<svg width="32" height="32" viewBox="0 0 32 32" fill="none" xmlns="http://www.w3.org/2000/svg">
<g clip-path="url(#clip0)">
<path d="M2.0001 2.17723C-0.514564 4.78923 0.00010293 7.5639 0.00010293 15.9932C0.00010293 22.9932 -1.22123 30.0106 5.17077 31.6626C7.16677 32.1759 24.8521 32.1759 26.8454 31.6599C29.5068 30.9732 31.6721 28.8146 31.9681 25.0506C32.0094 24.5252 32.0094 7.47057 31.9668 6.93457C31.6521 2.92523 29.1841 0.614566 25.9321 0.146566C25.1868 0.0385658 25.0374 0.00656577 21.2134 -0.000100896C7.64944 0.00656577 4.6761 -0.597434 2.0001 2.17723Z" fill="url(#paint0_linear)"/>
<path d="M15.9972 4.18548C11.1559 4.18548 6.55858 3.75481 4.80258 8.26148C4.07725 10.1228 4.18258 12.5401 4.18258 16.0015C4.18258 19.0388 4.08525 21.8935 4.80258 23.7401C6.55458 28.2495 11.1892 27.8175 15.9946 27.8175C20.6306 27.8175 25.4106 28.3001 27.1879 23.7401C27.9146 21.8601 27.8079 19.4788 27.8079 16.0015C27.8079 11.3855 28.0626 8.40548 25.8239 6.16814C23.5572 3.90147 20.4919 4.18548 15.9919 4.18548H15.9972ZM14.9386 6.31481C25.0372 6.29881 26.3226 5.17614 25.6132 20.7721C25.3612 26.2881 21.1612 25.6828 15.9986 25.6828C6.58525 25.6828 6.31458 25.4135 6.31458 15.9961C6.31458 6.46948 7.06125 6.32014 14.9386 6.31214V6.31481ZM22.3039 8.27614C21.5212 8.27614 20.8866 8.91081 20.8866 9.69348C20.8866 10.4761 21.5212 11.1108 22.3039 11.1108C23.0866 11.1108 23.7212 10.4761 23.7212 9.69348C23.7212 8.91081 23.0866 8.27614 22.3039 8.27614ZM15.9972 9.93348C12.6466 9.93348 9.93058 12.6508 9.93058 16.0015C9.93058 19.3521 12.6466 22.0681 15.9972 22.0681C19.3479 22.0681 22.0626 19.3521 22.0626 16.0015C22.0626 12.6508 19.3479 9.93348 15.9972 9.93348ZM15.9972 12.0628C21.2039 12.0628 21.2106 19.9401 15.9972 19.9401C10.7919 19.9401 10.7839 12.0628 15.9972 12.0628Z" fill="white"/>
</g>
<defs>
<linearGradient id="paint0_linear" x1="2.06146" y1="29.956" x2="31.8021" y2="4.21587" gradientUnits="userSpaceOnUse">
<stop stop-color="#FFDD55"/>
<stop offset="0.5" stop-color="#FF543E"/>
<stop offset="1" stop-color="#C837AB"/>
</linearGradient>
<clipPath id="clip0">
<rect width="32" height="32" fill="white"/>
</clipPath>
</defs>
</svg>
