<svg width="22" height="18" viewBox="0 0 22 18" fill="none" xmlns="http://www.w3.org/2000/svg">
<path d="M0.785645 5.40107L10.6786 10.5463C10.7779 10.5979 10.8881 10.6248 10.9999 10.6248C11.1118 10.6248 11.222 10.5979 11.3212 10.5463L21.2142 5.402V14.3395C21.2143 15.1103 20.9193 15.852 20.3899 16.4123C19.8606 16.9726 19.1368 17.3091 18.3672 17.3527L18.1964 17.3574H3.8035C3.03266 17.3574 2.29102 17.0625 1.73072 16.5331C1.17041 16.0037 0.833929 15.28 0.790288 14.5104L0.785645 14.3395V5.40107ZM3.8035 0.643066H18.1964C18.9672 0.643016 19.7088 0.937938 20.2691 1.46733C20.8294 1.99673 21.1659 2.72046 21.2096 3.49007L21.2142 3.66092V3.83178L10.9999 9.14321L0.785645 3.83178V3.66092C0.785594 2.89008 1.08052 2.14844 1.60991 1.58814C2.13931 1.02784 2.86304 0.691351 3.63264 0.647709L3.8035 0.643066H18.1964H3.8035Z" fill="#FF3E28"/>
</svg>
