<svg width="149" height="108" viewBox="0 0 149 108" fill="none" xmlns="http://www.w3.org/2000/svg">
<path d="M31.0234 83.4961C31.0234 83.832 30.8242 84 30.4258 84H27.6133C27.3164 84 26.9883 83.8945 26.6289 83.6836C26.2773 83.4648 26.0078 83.2031 25.8203 82.8984L23.8281 79.7812C23.0078 78.5 22.0156 77.8594 20.8516 77.8594H17.9922V82.8984C17.9922 83.2031 17.8828 83.4648 17.6641 83.6836C17.4531 83.8945 17.1953 84 16.8906 84H14.6875C14.3828 84 14.1211 83.8945 13.9023 83.6836C13.6836 83.4648 13.5742 83.2031 13.5742 82.8984V68.3086C13.5742 68.0039 13.6797 67.7422 13.8906 67.5234C14.1016 67.3047 14.3594 67.1953 14.6641 67.1953H24.332C26.1211 67.1953 27.5859 67.6758 28.7266 68.6367C29.875 69.5977 30.4492 70.8945 30.4492 72.5273C30.4492 74.8008 28.9766 76.2266 26.0312 76.8047C26.5 76.9766 26.9336 77.2734 27.332 77.6953C27.7305 78.1094 28.1875 78.7148 28.7031 79.5117L30.8359 82.8984C30.9609 83.1172 31.0234 83.3164 31.0234 83.4961ZM17.9922 74.543H22.9844C23.7891 74.543 24.4961 74.3828 25.1055 74.0625C25.7227 73.7422 26.0312 73.2305 26.0312 72.5273C26.0312 71.8242 25.7227 71.3125 25.1055 70.9922C24.4961 70.6719 23.7891 70.5117 22.9844 70.5117H17.9922V74.543ZM32.7461 77.3555V68.3086C32.7461 68.0039 32.8516 67.7422 33.0625 67.5234C33.2812 67.3047 33.5508 67.1953 33.8711 67.1953H36.0625C36.3594 67.1953 36.6172 67.3047 36.8359 67.5234C37.0547 67.7422 37.1641 68.0039 37.1641 68.3086V77.3789C37.1641 78.5273 37.4141 79.3828 37.9141 79.9453C38.4219 80.5078 39.2031 80.7891 40.2578 80.7891H42.1328C43.1875 80.7891 43.9648 80.5078 44.4648 79.9453C44.9727 79.3828 45.2266 78.5273 45.2266 77.3789V68.3086C45.2266 68.0039 45.332 67.7422 45.543 67.5234C45.7617 67.3047 46.0234 67.1953 46.3281 67.1953H48.5078C48.8281 67.1953 49.0977 67.3047 49.3164 67.5234C49.5352 67.7422 49.6445 68.0039 49.6445 68.3086V77.3555C49.6445 79.4961 49.0156 81.1562 47.7578 82.3359C46.5 83.5078 44.6641 84.0938 42.25 84.0938H40.1406C37.7188 84.0938 35.8789 83.5078 34.6211 82.3359C33.3711 81.1562 32.7461 79.4961 32.7461 77.3555ZM51.8008 79.6992C51.8008 79.2383 51.9375 78.9102 52.2109 78.7148C52.4844 78.5117 52.75 78.4102 53.0078 78.4102H54.4023C55.1055 78.4102 55.6406 78.793 56.0078 79.5586C56.375 80.3242 57.1992 80.707 58.4805 80.707L62.582 80.7891C63.957 80.7891 64.6445 80.3398 64.6445 79.4414C64.6445 78.7617 63.8047 78.2266 62.125 77.8359C61.375 77.6562 60.5469 77.4805 59.6406 77.3086C58.7344 77.1289 57.832 76.9062 56.9336 76.6406C56.043 76.375 55.2227 76.0625 54.4727 75.7031C53.7227 75.3438 53.1133 74.8516 52.6445 74.2266C52.1836 73.5938 51.9531 72.8516 51.9531 72C51.9531 70.4297 52.5117 69.2227 53.6289 68.3789C54.7461 67.5273 56.668 67.1016 59.3945 67.1016L62.3711 67.1719C63.9727 67.1719 65.4141 67.5859 66.6953 68.4141C67.9844 69.2344 68.6289 70.2617 68.6289 71.4961C68.6289 71.957 68.4922 72.2891 68.2188 72.4922C67.9453 72.6953 67.6836 72.7969 67.4336 72.7969H66.0391C65.3359 72.7969 64.8008 72.4141 64.4336 71.6484C64.0664 70.875 63.2422 70.4883 61.9609 70.4883L58.4336 70.418C57.0586 70.418 56.3711 70.8672 56.3711 71.7656C56.3711 72.2578 56.8047 72.6602 57.6719 72.9727C58.5469 73.2852 59.6016 73.5625 60.8359 73.8047C62.0781 74.0391 63.3242 74.3242 64.5742 74.6602C65.8242 74.9961 66.8828 75.5508 67.75 76.3242C68.625 77.0898 69.0625 78.0469 69.0625 79.1953C69.0625 80.7656 68.5 81.9766 67.375 82.8281C66.2578 83.6719 64.3398 84.0938 61.6211 84.0938L58.0703 84.0234C56.4688 84.0234 55.0234 83.6133 53.7344 82.793C52.4453 81.9648 51.8008 80.9336 51.8008 79.6992ZM70.5039 79.6992C70.5039 79.2383 70.6406 78.9102 70.9141 78.7148C71.1875 78.5117 71.4531 78.4102 71.7109 78.4102H73.1055C73.8086 78.4102 74.3438 78.793 74.7109 79.5586C75.0781 80.3242 75.9023 80.707 77.1836 80.707L81.2852 80.7891C82.6602 80.7891 83.3477 80.3398 83.3477 79.4414C83.3477 78.7617 82.5078 78.2266 80.8281 77.8359C80.0781 77.6562 79.25 77.4805 78.3438 77.3086C77.4375 77.1289 76.5352 76.9062 75.6367 76.6406C74.7461 76.375 73.9258 76.0625 73.1758 75.7031C72.4258 75.3438 71.8164 74.8516 71.3477 74.2266C70.8867 73.5938 70.6562 72.8516 70.6562 72C70.6562 70.4297 71.2148 69.2227 72.332 68.3789C73.4492 67.5273 75.3711 67.1016 78.0977 67.1016L81.0742 67.1719C82.6758 67.1719 84.1172 67.5859 85.3984 68.4141C86.6875 69.2344 87.332 70.2617 87.332 71.4961C87.332 71.957 87.1953 72.2891 86.9219 72.4922C86.6484 72.6953 86.3867 72.7969 86.1367 72.7969H84.7422C84.0391 72.7969 83.5039 72.4141 83.1367 71.6484C82.7695 70.875 81.9453 70.4883 80.6641 70.4883L77.1367 70.418C75.7617 70.418 75.0742 70.8672 75.0742 71.7656C75.0742 72.2578 75.5078 72.6602 76.375 72.9727C77.25 73.2852 78.3047 73.5625 79.5391 73.8047C80.7812 74.0391 82.0273 74.3242 83.2773 74.6602C84.5273 74.9961 85.5859 75.5508 86.4531 76.3242C87.3281 77.0898 87.7656 78.0469 87.7656 79.1953C87.7656 80.7656 87.2031 81.9766 86.0781 82.8281C84.9609 83.6719 83.043 84.0938 80.3242 84.0938L76.7734 84.0234C75.1719 84.0234 73.7266 83.6133 72.4375 82.793C71.1484 81.9648 70.5039 80.9336 70.5039 79.6992ZM90.168 82.9219V68.3086C90.168 68.0039 90.2773 67.7422 90.4961 67.5234C90.7148 67.3047 90.9766 67.1953 91.2812 67.1953H93.4609C93.7812 67.1953 94.0469 67.3047 94.2578 67.5234C94.4766 67.7422 94.5859 68.0039 94.5859 68.3086V82.8984C94.5859 83.2031 94.4727 83.4648 94.2461 83.6836C94.0273 83.8945 93.7656 84 93.4609 84H91.2812C90.9766 84 90.7148 83.8984 90.4961 83.6953C90.2773 83.4844 90.168 83.2266 90.168 82.9219ZM96.5664 82.9219L99.5078 71.7656C100.305 68.7266 102.898 67.2031 107.289 67.1953H113.605C113.895 67.1953 114.133 67.3047 114.32 67.5234C114.516 67.7422 114.613 67.9961 114.613 68.2852V82.9219C114.613 83.2266 114.504 83.4844 114.285 83.6953C114.066 83.8984 113.805 84 113.5 84H111.297C110.977 84 110.711 83.8984 110.5 83.6953C110.297 83.4844 110.195 83.2188 110.195 82.8984V79.9453H101.863L101.078 82.8984C101 83.2188 100.824 83.4844 100.551 83.6953C100.277 83.8984 99.9883 84 99.6836 84H97.375C97.0703 84 96.8516 83.9141 96.7188 83.7422C96.5859 83.5625 96.5195 83.4062 96.5195 83.2734C96.5273 83.1406 96.543 83.0234 96.5664 82.9219ZM102.73 76.6289H110.195V70.5117H106.855C106.105 70.5117 105.449 70.7266 104.887 71.1562C104.332 71.5781 103.957 72.1484 103.762 72.8672L102.73 76.6289ZM117.965 82.8984V68.3086C117.965 68.0039 118.07 67.7422 118.281 67.5234C118.492 67.3047 118.75 67.1953 119.055 67.1953H122.5C122.773 67.1953 123.062 67.3047 123.367 67.5234C123.672 67.7422 123.922 68.0039 124.117 68.3086L131.195 79.1953V68.2852C131.195 67.9805 131.301 67.7227 131.512 67.5117C131.73 67.3008 131.992 67.1953 132.297 67.1953H134.312C134.617 67.1953 134.875 67.3008 135.086 67.5117C135.305 67.7227 135.414 67.9883 135.414 68.3086V82.8984C135.414 83.2031 135.305 83.4648 135.086 83.6836C134.875 83.8945 134.617 84 134.312 84H130.422C130.117 84 129.805 83.8945 129.484 83.6836C129.164 83.4648 128.91 83.2031 128.723 82.8984L122.242 72.8438V82.8984C122.242 83.2031 122.133 83.4648 121.914 83.6836C121.703 83.8945 121.445 84 121.141 84H119.078C118.773 84 118.512 83.8945 118.293 83.6836C118.074 83.4648 117.965 83.2031 117.965 82.8984ZM24.5195 105.875V91.2852C24.5195 90.9805 24.6289 90.7227 24.8477 90.5117C25.0664 90.3008 25.3281 90.1953 25.6328 90.1953H39.1445C39.4492 90.1953 39.707 90.3047 39.918 90.5234C40.1367 90.7422 40.2461 91.0039 40.2461 91.3086V92.4102C40.2461 92.7148 40.1367 92.9766 39.918 93.1953C39.707 93.4062 39.4492 93.5117 39.1445 93.5117H28.9375V97.6367H37.2461C37.5508 97.6367 37.8086 97.7461 38.0195 97.9648C38.2383 98.1836 38.3477 98.4414 38.3477 98.7383V99.8516C38.3477 100.156 38.2383 100.418 38.0195 100.637C37.8086 100.848 37.5508 100.953 37.2461 100.953H28.9375V105.875C28.9375 106.195 28.8281 106.465 28.6094 106.684C28.3984 106.895 28.1406 107 27.8359 107H25.6328C25.3281 107 25.0664 106.895 24.8477 106.684C24.6289 106.465 24.5195 106.195 24.5195 105.875ZM59.6172 106.496C59.6172 106.832 59.418 107 59.0195 107H56.207C55.9102 107 55.582 106.895 55.2227 106.684C54.8711 106.465 54.6016 106.203 54.4141 105.898L52.4219 102.781C51.6016 101.5 50.6094 100.859 49.4453 100.859H46.5859V105.898C46.5859 106.203 46.4766 106.465 46.2578 106.684C46.0469 106.895 45.7891 107 45.4844 107H43.2812C42.9766 107 42.7148 106.895 42.4961 106.684C42.2773 106.465 42.168 106.203 42.168 105.898V91.3086C42.168 91.0039 42.2734 90.7422 42.4844 90.5234C42.6953 90.3047 42.9531 90.1953 43.2578 90.1953H52.9258C54.7148 90.1953 56.1797 90.6758 57.3203 91.6367C58.4688 92.5977 59.043 93.8945 59.043 95.5273C59.043 97.8008 57.5703 99.2266 54.625 99.8047C55.0938 99.9766 55.5273 100.273 55.9258 100.695C56.3242 101.109 56.7812 101.715 57.2969 102.512L59.4297 105.898C59.5547 106.117 59.6172 106.316 59.6172 106.496ZM46.5859 97.543H51.5781C52.3828 97.543 53.0898 97.3828 53.6992 97.0625C54.3164 96.7422 54.625 96.2305 54.625 95.5273C54.625 94.8242 54.3164 94.3125 53.6992 93.9922C53.0898 93.6719 52.3828 93.5117 51.5781 93.5117H46.5859V97.543ZM61.5742 105.922V91.3086C61.5742 91.0039 61.6836 90.7422 61.9023 90.5234C62.1211 90.3047 62.3828 90.1953 62.6875 90.1953H64.8672C65.1875 90.1953 65.4531 90.3047 65.6641 90.5234C65.8828 90.7422 65.9922 91.0039 65.9922 91.3086V105.898C65.9922 106.203 65.8789 106.465 65.6523 106.684C65.4336 106.895 65.1719 107 64.8672 107H62.6875C62.3828 107 62.1211 106.898 61.9023 106.695C61.6836 106.484 61.5742 106.227 61.5742 105.922ZM69.3555 105.875V91.2852C69.3555 90.9805 69.4648 90.7227 69.6836 90.5117C69.9023 90.3008 70.1641 90.1953 70.4688 90.1953H83.9805C84.2852 90.1953 84.543 90.3047 84.7539 90.5234C84.9727 90.7422 85.082 91.0039 85.082 91.3086V92.4102C85.082 92.7148 84.9727 92.9766 84.7539 93.1953C84.543 93.4062 84.2852 93.5117 83.9805 93.5117H73.7734V96.9219H82.5625C82.8672 96.9219 83.125 97.0312 83.3359 97.25C83.5547 97.4609 83.6641 97.7188 83.6641 98.0234V99.125C83.6641 99.4297 83.5547 99.6914 83.3359 99.9102C83.125 100.121 82.8672 100.227 82.5625 100.227H73.7734V103.684H83.957C84.2539 103.684 84.5078 103.789 84.7188 104C84.9297 104.211 85.0352 104.469 85.0352 104.773V105.898C85.0352 106.203 84.9258 106.465 84.707 106.684C84.4883 106.895 84.2266 107 83.9219 107H70.4688C70.1641 107 69.9023 106.895 69.6836 106.684C69.4648 106.465 69.3555 106.195 69.3555 105.875ZM87.2383 105.898V91.3086C87.2383 91.0039 87.3438 90.7422 87.5547 90.5234C87.7656 90.3047 88.0234 90.1953 88.3281 90.1953H91.7734C92.0469 90.1953 92.3359 90.3047 92.6406 90.5234C92.9453 90.7422 93.1953 91.0039 93.3906 91.3086L100.469 102.195V91.2852C100.469 90.9805 100.574 90.7227 100.785 90.5117C101.004 90.3008 101.266 90.1953 101.57 90.1953H103.586C103.891 90.1953 104.148 90.3008 104.359 90.5117C104.578 90.7227 104.688 90.9883 104.688 91.3086V105.898C104.688 106.203 104.578 106.465 104.359 106.684C104.148 106.895 103.891 107 103.586 107H99.6953C99.3906 107 99.0781 106.895 98.7578 106.684C98.4375 106.465 98.1836 106.203 97.9961 105.898L91.5156 95.8438V105.898C91.5156 106.203 91.4062 106.465 91.1875 106.684C90.9766 106.895 90.7188 107 90.4141 107H88.3516C88.0469 107 87.7852 106.895 87.5664 106.684C87.3477 106.465 87.2383 106.203 87.2383 105.898ZM108.051 105.922V91.332C108.051 91.0117 108.16 90.7422 108.379 90.5234C108.598 90.3047 108.859 90.1953 109.164 90.1953H115.715C119.105 90.1953 121.57 90.875 123.109 92.2344C124.656 93.5859 125.43 95.7109 125.43 98.6094C125.43 101.5 124.656 103.621 123.109 104.973C121.57 106.324 119.105 107 115.715 107H109.164C108.859 107 108.598 106.898 108.379 106.695C108.16 106.484 108.051 106.227 108.051 105.922ZM112.469 103.684H115.586C117.688 103.684 119.117 103.301 119.875 102.535C120.633 101.77 121.012 100.461 121.012 98.6094C121.012 96.75 120.633 95.4375 119.875 94.6719C119.117 93.8984 117.688 93.5117 115.586 93.5117H112.469V103.684Z" fill="url(#paint0_linear)"/>
<path d="M72.4523 23.7982C69.7297 21.4817 67.2316 18.9119 64.993 16.1226C62.2125 18.1811 59.2382 19.9913 56.0991 21.515C57.9961 24.5025 60.1775 27.2896 62.6067 29.8419C66.1134 28.1791 69.4089 26.1456 72.4523 23.7982Z" fill="url(#paint1_linear)"/>
<path d="M60.6959 44.7549C64.648 43.6847 68.4778 42.18 72.0169 40.2876C68.4245 38.0422 65.0983 35.4094 62.1093 32.4351C59.0771 33.7706 55.9061 34.8423 52.623 35.6277C54.9852 38.9683 57.6545 42.0327 60.6959 44.7549Z" fill="#FF3E28"/>
<path d="M74.1659 39.0729V39.0728C77.7765 36.9243 81.1133 34.3646 84.1179 31.4619C80.5733 29.7217 77.0879 27.9008 74.1659 25.9144V25.9147C71.2437 27.901 67.7584 29.7219 64.2139 31.4621C67.2185 34.3648 70.5553 36.9244 74.1659 39.0729Z" fill="url(#paint2_linear)"/>
<path d="M69.2031 53.4392C65.9945 51.6277 62.9787 49.5154 60.1998 47.1301C58.4265 47.5711 56.6193 47.9241 54.7852 48.1931C54.921 48.402 55.0723 48.5994 55.2148 48.8034C56.391 50.4101 59.8061 54.6405 63.1609 54.6405C67.3018 54.6405 69.1889 53.4386 69.1889 53.4386L69.2031 53.4392Z" fill="url(#paint3_linear)"/>
<path d="M72.7684 5.91326C71.6854 4.5546 70.6713 3.13955 69.7155 1.68299C69.7155 1.68299 64.0935 6.59674 64.2148 11.428C64.597 11.9876 64.9717 12.553 65.3745 13.097C68.0616 10.9415 70.5371 8.53572 72.7684 5.91326Z" fill="url(#paint4_linear)"/>
<path d="M74.1653 4.60419V4.60407C74.8791 3.69248 75.5618 2.75527 76.2301 1.8081C76.3944 0.297499 74.1653 1.33514e-05 74.1653 1.33514e-05V0.000122547C74.1653 0.000122547 71.9362 0.29772 72.1004 1.80821C72.7688 2.75549 73.4515 3.69259 74.1653 4.60419Z" fill="url(#paint5_linear)"/>
<path d="M58.2 45.3274C56.1063 43.3494 54.1895 41.1937 52.423 38.9147C52.405 38.9087 52.3844 38.9081 52.3714 38.8916C52.2177 38.6942 52.0121 38.8455 52 39.0793C52.3369 40.7296 53.1849 44.1613 54.5385 44.9395C56.1069 45.8413 57.794 45.4439 58.2 45.3274Z" fill="url(#paint6_linear)"/>
<path d="M55.1647 32.6984C56.9927 32.1496 58.7855 31.5188 60.5251 30.783C58.4009 28.4909 56.4803 26.0122 54.759 23.3907C54.7275 23.3579 54.6944 23.3192 54.6563 23.2614C54.3071 22.7327 53.5121 22.9449 53.471 23.6661C53.2325 26.3117 52.8341 33.1633 55.1647 32.6984Z" fill="url(#paint7_linear)"/>
<path d="M63.6678 14.4186C62.7214 13.1423 61.8468 11.8116 61.011 10.4547C60.9889 10.4379 60.9658 10.414 60.9401 10.3727C60.6477 9.90114 60.1456 10.0738 59.9782 10.345C59.1313 12.0333 57.3881 15.8836 57.8543 18.1553C59.8728 17.0285 61.8178 15.7853 63.6678 14.4186Z" fill="url(#paint8_linear)"/>
<path d="M75.8784 23.7981C78.9219 26.1454 82.2173 28.1789 85.724 29.8416C88.1533 27.2894 90.3346 24.5023 92.2316 21.5149C89.0925 19.9911 86.1182 18.1809 83.3378 16.1224C81.0992 18.9118 78.601 21.4814 75.8784 23.7981Z" fill="url(#paint9_linear)"/>
<path d="M95.7078 35.6275C92.4247 34.8422 89.2537 33.7704 86.2216 32.4349C83.2326 35.4092 79.9064 38.0419 76.314 40.2874C79.853 42.1798 83.6829 43.6846 87.6349 44.7548C90.6764 42.0326 93.3457 38.9681 95.7078 35.6275Z" fill="url(#paint10_linear)"/>
<path d="M74.1655 22.4284C76.899 20.1384 79.3998 17.5811 81.6342 14.8006C78.9282 12.6324 76.6078 10.6277 74.1655 8.31412V8.31434C71.7232 10.6279 69.4028 12.6326 66.6968 14.8007C68.9312 17.5813 71.4321 20.1385 74.1655 22.4285V22.4284Z" fill="url(#paint11_linear)"/>
<path d="M79.1284 53.439L79.1426 53.4385C79.1426 53.4385 81.0297 54.6404 85.1706 54.6404C88.5254 54.6404 91.9405 50.4099 93.1167 48.8033C93.2591 48.5991 93.4105 48.4018 93.5463 48.1929C91.7122 47.9238 89.905 47.5708 88.1317 47.1299C85.3528 49.5153 82.337 51.6275 79.1284 53.439Z" fill="url(#paint12_linear)"/>
<path d="M74.1657 53.5651V53.5649C78.2838 51.6644 82.1262 49.266 85.6077 46.4368C81.5862 45.2332 77.6165 43.9071 74.1657 42.2807C74.1657 42.2809 74.1657 42.2809 74.1657 42.2809V42.281C70.7147 43.9074 66.7451 45.2334 62.7236 46.437C66.2051 49.2663 70.0475 51.6645 74.1657 53.5651Z" fill="url(#paint13_linear)"/>
<path d="M74.1655 55.1237V55.1239C74.1655 55.1239 68.2609 56.2779 65.4736 56.0095C66.6657 56.6697 67.7924 57.0226 68.5887 57.2253C68.5866 57.2259 68.5844 57.2268 68.5822 57.2275C68.6187 57.2366 68.6563 57.2426 68.6928 57.2514C69.029 57.3346 69.3057 57.3928 69.4826 57.4318L69.4955 57.4254C71.0045 57.7363 72.5644 57.9104 74.1655 57.9104V57.9102C75.7667 57.9102 77.3266 57.7361 78.8356 57.4253L78.8485 57.4316C79.0254 57.3926 79.302 57.3343 79.6382 57.2513C79.6748 57.2424 79.7124 57.2363 79.7489 57.2273C79.7466 57.2266 79.7445 57.2258 79.7424 57.225C80.5386 57.0224 81.6655 56.6696 82.8575 56.0094C80.0702 56.2776 74.1655 55.1237 74.1655 55.1237Z" fill="url(#paint14_linear)"/>
<path d="M82.9564 13.0968C83.3592 12.5528 83.7338 11.9875 84.116 11.4279C84.2373 6.59653 78.6154 1.68289 78.6154 1.68289C77.6596 3.13934 76.6455 4.55439 75.5625 5.91305C77.7937 8.53551 80.2693 10.9414 82.9564 13.0968Z" fill="url(#paint15_linear)"/>
<path d="M95.9595 38.8913C95.9465 38.908 95.9259 38.9084 95.9079 38.9145C94.1414 41.1935 92.2246 43.3492 90.1309 45.3272C90.5369 45.4437 92.224 45.8412 93.7923 44.9393C95.146 44.1611 95.994 40.7294 96.3309 39.0791C96.3188 38.8452 96.1132 38.694 95.9595 38.8913Z" fill="url(#paint16_linear)"/>
<path d="M93.1665 32.6982C95.4972 33.1632 95.0988 26.3115 94.8603 23.666C94.8192 22.9448 94.0242 22.7324 93.675 23.2613C93.6369 23.3189 93.6038 23.3577 93.5723 23.3904C91.8509 26.0121 89.9304 28.4907 87.8062 30.7827C89.5458 31.5187 91.3385 32.1494 93.1665 32.6982Z" fill="url(#paint17_linear)"/>
<path d="M88.3526 10.3447C88.1853 10.0736 87.683 9.90101 87.3907 10.3725C87.3651 10.4138 87.3419 10.4377 87.3199 10.4545C86.484 11.8115 85.6095 13.1422 84.6631 14.4184C86.513 15.7852 88.458 17.0283 90.4766 18.155C90.9428 15.8834 89.1996 12.0332 88.3526 10.3447Z" fill="url(#paint18_linear)"/>
<defs>
<linearGradient id="paint0_linear" x1="75" y1="64" x2="75" y2="34.6667" gradientUnits="userSpaceOnUse">
<stop offset="0.471875" stop-color="#455A64"/>
<stop offset="1" stop-color="#455A64" stop-opacity="0"/>
</linearGradient>
<linearGradient id="paint1_linear" x1="64.2757" y1="29.8419" x2="64.2757" y2="16.1226" gradientUnits="userSpaceOnUse">
<stop offset="0.497917" stop-color="#006660"/>
<stop offset="1" stop-color="#30706C" stop-opacity="0"/>
</linearGradient>
<linearGradient id="paint2_linear" x1="74.1659" y1="39.0729" x2="74.1659" y2="25.9144" gradientUnits="userSpaceOnUse">
<stop offset="0.497917" stop-color="#006660"/>
<stop offset="1" stop-color="#30706C" stop-opacity="0"/>
</linearGradient>
<linearGradient id="paint3_linear" x1="61.9941" y1="54.6405" x2="61.9941" y2="47.1301" gradientUnits="userSpaceOnUse">
<stop offset="0.497917" stop-color="#006660"/>
<stop offset="1" stop-color="#30706C" stop-opacity="0"/>
</linearGradient>
<linearGradient id="paint4_linear" x1="68.4906" y1="13.097" x2="68.4906" y2="1.68299" gradientUnits="userSpaceOnUse">
<stop offset="0.497917" stop-color="#006660"/>
<stop offset="1" stop-color="#30706C" stop-opacity="0"/>
</linearGradient>
<linearGradient id="paint5_linear" x1="74.1653" y1="4.60419" x2="74.1653" y2="1.33514e-05" gradientUnits="userSpaceOnUse">
<stop offset="0.497917" stop-color="#006660"/>
<stop offset="1" stop-color="#30706C" stop-opacity="0"/>
</linearGradient>
<linearGradient id="paint6_linear" x1="55.1" y1="45.5153" x2="55.1" y2="38.8005" gradientUnits="userSpaceOnUse">
<stop offset="0.497917" stop-color="#006660"/>
<stop offset="1" stop-color="#30706C" stop-opacity="0"/>
</linearGradient>
<linearGradient id="paint7_linear" x1="56.9054" y1="32.7209" x2="56.9054" y2="22.9669" gradientUnits="userSpaceOnUse">
<stop offset="0.497917" stop-color="#006660"/>
<stop offset="1" stop-color="#30706C" stop-opacity="0"/>
</linearGradient>
<linearGradient id="paint8_linear" x1="60.7221" y1="18.1553" x2="60.7221" y2="10.0777" gradientUnits="userSpaceOnUse">
<stop offset="0.497917" stop-color="#006660"/>
<stop offset="1" stop-color="#30706C" stop-opacity="0"/>
</linearGradient>
<linearGradient id="paint9_linear" x1="84.055" y1="29.8416" x2="84.055" y2="16.1224" gradientUnits="userSpaceOnUse">
<stop offset="0.497917" stop-color="#006660"/>
<stop offset="1" stop-color="#30706C" stop-opacity="0"/>
</linearGradient>
<linearGradient id="paint10_linear" x1="86.0109" y1="44.7548" x2="86.0109" y2="32.4349" gradientUnits="userSpaceOnUse">
<stop offset="0.497917" stop-color="#006660"/>
<stop offset="1" stop-color="#30706C" stop-opacity="0"/>
</linearGradient>
<linearGradient id="paint11_linear" x1="74.1655" y1="22.4285" x2="74.1655" y2="8.31412" gradientUnits="userSpaceOnUse">
<stop offset="0.497917" stop-color="#006660"/>
<stop offset="1" stop-color="#30706C" stop-opacity="0"/>
</linearGradient>
<linearGradient id="paint12_linear" x1="86.3374" y1="54.6404" x2="86.3374" y2="47.1299" gradientUnits="userSpaceOnUse">
<stop offset="0.497917" stop-color="#006660"/>
<stop offset="1" stop-color="#30706C" stop-opacity="0"/>
</linearGradient>
<linearGradient id="paint13_linear" x1="74.1657" y1="53.5651" x2="74.1657" y2="42.2807" gradientUnits="userSpaceOnUse">
<stop offset="0.497917" stop-color="#006660"/>
<stop offset="1" stop-color="#30706C" stop-opacity="0"/>
</linearGradient>
<linearGradient id="paint14_linear" x1="74.1655" y1="57.9104" x2="74.1655" y2="55.1237" gradientUnits="userSpaceOnUse">
<stop offset="0.497917" stop-color="#006660"/>
<stop offset="1" stop-color="#30706C" stop-opacity="0"/>
</linearGradient>
<linearGradient id="paint15_linear" x1="79.8402" y1="13.0968" x2="79.8402" y2="1.68289" gradientUnits="userSpaceOnUse">
<stop offset="0.497917" stop-color="#006660"/>
<stop offset="1" stop-color="#30706C" stop-opacity="0"/>
</linearGradient>
<linearGradient id="paint16_linear" x1="93.2309" y1="45.5151" x2="93.2309" y2="38.8002" gradientUnits="userSpaceOnUse">
<stop offset="0.497917" stop-color="#006660"/>
<stop offset="1" stop-color="#30706C" stop-opacity="0"/>
</linearGradient>
<linearGradient id="paint17_linear" x1="91.4259" y1="32.7208" x2="91.4259" y2="22.9667" gradientUnits="userSpaceOnUse">
<stop offset="0.497917" stop-color="#006660"/>
<stop offset="1" stop-color="#30706C" stop-opacity="0"/>
</linearGradient>
<linearGradient id="paint18_linear" x1="87.6088" y1="18.155" x2="87.6088" y2="10.0776" gradientUnits="userSpaceOnUse">
<stop offset="0.497917" stop-color="#006660"/>
<stop offset="1" stop-color="#30706C" stop-opacity="0"/>
</linearGradient>
</defs>
</svg>
