<svg width="38" height="38" viewBox="0 0 38 38" fill="none" xmlns="http://www.w3.org/2000/svg">
<path d="M35.4667 38H2.53333C1.13367 38 0 36.8663 0 35.4667V2.53333C0 1.13367 1.13367 0 2.53333 0H35.4667C36.8663 0 38 1.13367 38 2.53333V35.4667C38 36.8663 36.8663 38 35.4667 38Z" fill="#FF3E28"/>
<path opacity="0.2" d="M35.4667 0.95C36.3407 0.95 37.05 1.65933 37.05 2.53333V35.4667C37.05 36.3407 36.3407 37.05 35.4667 37.05H2.53333C1.65933 37.05 0.95 36.3407 0.95 35.4667V2.53333C0.95 1.65933 1.65933 0.95 2.53333 0.95H35.4667ZM35.4667 0H2.53333C1.13367 0 0 1.13367 0 2.53333V35.4667C0 36.8663 1.13367 38 2.53333 38H35.4667C36.8663 38 38 36.8663 38 35.4667V2.53333C38 1.13367 36.8663 0 35.4667 0Z" fill="#424242"/>
<path opacity="0.2" d="M13.3888 9.81667C13.5091 9.81667 13.6295 9.84834 13.7435 9.91484L27.5026 18.0405C27.9871 18.3255 27.9871 19.0412 27.5026 19.323L13.7435 27.4518C13.6295 27.5183 13.506 27.55 13.3888 27.55C13.012 27.55 12.6668 27.2397 12.6668 26.809V10.5577C12.6668 10.127 13.012 9.81667 13.3888 9.81667ZM13.3888 8.86667C12.4673 8.86667 11.7168 9.6235 11.7168 10.5577V26.809C11.7168 27.74 12.4673 28.5 13.3888 28.5C13.6801 28.5 13.9715 28.4208 14.2248 28.272L27.9871 20.1432C28.5065 19.8392 28.8168 19.2913 28.8168 18.6833C28.8168 18.0753 28.5065 17.5275 27.984 17.2235L14.228 9.09784C13.9683 8.94584 13.6801 8.86667 13.3888 8.86667Z" fill="#424242"/>
<path d="M12.6665 18.6833V10.5577C12.6665 9.99083 13.265 9.63617 13.7432 9.91483L27.5023 18.0405C27.9868 18.3255 27.9868 19.0412 27.5023 19.323L13.7432 27.4518C13.2618 27.7337 12.6665 27.379 12.6665 26.809V18.6833Z" fill="#FAFAFA"/>
</svg>
