<svg width="46" height="46" viewBox="0 0 46 46" fill="none" xmlns="http://www.w3.org/2000/svg">
<circle cx="23" cy="23" r="23" fill="#BDE3ED"/>
<path d="M23.973 0.0367165C26.3921 0 28.7974 0.0217579 31.1999 0C31.3454 2.77549 32.363 5.60266 34.4341 7.56496C36.5011 9.5762 39.4248 10.4968 42.2695 10.8082V18.1094C39.6037 18.0237 36.9253 17.4798 34.5062 16.3538C33.4526 15.886 32.4711 15.2836 31.5104 14.6676C31.4979 19.9656 31.5326 25.2569 31.4757 30.5332C31.3316 33.068 30.479 35.5905 28.9762 37.6793C26.5585 41.1565 22.3621 43.4234 18.0521 43.4941C15.4084 43.6423 12.7675 42.9352 10.5147 41.6324C6.78138 39.4729 4.15433 35.5198 3.7717 31.277C3.72351 30.3784 3.71611 29.4782 3.74952 28.579C4.08224 25.129 5.82206 21.8286 8.52259 19.5835C11.5836 16.9685 15.8714 15.7228 19.8862 16.4599C19.9236 19.1456 19.8141 21.8286 19.8141 24.5144C17.98 23.9323 15.8368 24.0955 14.2342 25.1875C13.0617 25.9452 12.1757 27.0599 11.7125 28.3601C11.3299 29.2794 11.4394 30.3006 11.4616 31.277C11.901 34.2524 14.8178 36.7532 17.9315 36.4826C19.9957 36.4608 21.974 35.2859 23.0497 33.5657C23.3977 32.9632 23.7873 32.3472 23.808 31.6387C23.9897 28.3954 23.9176 25.1658 23.9397 21.9225C23.955 14.6132 23.9176 7.32426 23.9744 0.0380764L23.973 0.0367165Z" fill="black"/>
</svg>
