<svg width="4" height="3" viewBox="0 0 4 3" fill="none" xmlns="http://www.w3.org/2000/svg">
<path d="M1.83532 2.9136C1.85367 2.94025 1.87822 2.96203 1.90686 2.97708C1.9355 2.99214 1.96737 3 1.99973 3C2.03209 3 2.06396 2.99214 2.0926 2.97708C2.12124 2.96203 2.14579 2.94025 2.16414 2.9136L3.96428 0.313779C3.98512 0.283792 3.99734 0.248669 3.99961 0.212227C4.00189 0.175784 3.99413 0.139415 3.97718 0.107071C3.96023 0.0747278 3.93475 0.0476464 3.90349 0.0287697C3.87223 0.00989293 3.83639 -5.72649e-05 3.79987 2.47914e-07H0.199588C0.163154 0.000150719 0.12745 0.0102289 0.096316 0.0291508C0.065182 0.0480728 0.039796 0.0751227 0.0228878 0.107391C0.00597971 0.13966 -0.00181077 0.175927 0.000354187 0.212292C0.00251915 0.248657 0.0145576 0.283743 0.035175 0.313779L1.83532 2.9136Z" fill="black"/>
</svg>
