<svg width="156" height="55" viewBox="0 0 156 55" fill="none" xmlns="http://www.w3.org/2000/svg">
<path d="M19.3211 22.458C16.7491 20.2719 14.3891 17.8468 12.2743 15.2146C9.64767 17.1572 6.83786 18.8654 3.87238 20.3033C5.66448 23.1226 7.72515 25.7527 10.02 28.1613C13.3328 26.5921 16.446 24.6731 19.3211 22.458" fill="url(#paint0_linear)"/>
<path d="M8.21469 42.2344C11.9481 41.2244 15.5662 39.8045 18.9095 38.0186C15.5157 35.8996 12.3735 33.4151 9.54989 30.6083C6.68544 31.8686 3.68983 32.88 0.588318 33.6211C2.81978 36.7736 5.34147 39.6654 8.21469 42.2344Z" fill="#FF3E28"/>
<path d="M20.94 36.8724V36.8723C24.3509 34.8448 27.5031 32.4292 30.3416 29.69C26.9931 28.0478 23.7005 26.3294 20.94 24.455V24.4552C18.1795 26.3296 14.887 28.048 11.5385 29.6902C14.3769 32.4295 17.5291 34.8449 20.94 36.8724Z" fill="url(#paint1_linear)"/>
<path d="M16.2514 50.4296C13.2203 48.7202 10.3713 46.7269 7.74613 44.4758C6.07092 44.892 4.36369 45.2251 2.63098 45.479C2.75929 45.6762 2.90229 45.8624 3.03684 46.055C4.14797 47.5712 7.3742 51.5634 10.5435 51.5634C14.4553 51.5634 16.238 50.4291 16.238 50.4291L16.2514 50.4296" fill="url(#paint2_linear)"/>
<path d="M19.6195 5.58014C18.5964 4.29799 17.6384 2.96263 16.7355 1.5881C16.7355 1.5881 11.4245 6.22512 11.5391 10.7843C11.9001 11.3125 12.2541 11.8459 12.6346 12.3594C15.173 10.3252 17.5117 8.05492 19.6195 5.58014Z" fill="url(#paint3_linear)"/>
<path d="M20.939 4.34485V4.34474C21.6133 3.48448 22.2583 2.60005 22.8897 1.70622C23.0448 0.28069 20.939 -4.36775e-05 20.939 -4.36775e-05V5.9427e-05C20.939 5.9427e-05 18.8332 0.280898 18.9884 1.70632C19.6198 2.60026 20.2647 3.48459 20.939 4.34485" fill="url(#paint4_linear)"/>
<path d="M5.85711 42.7747C3.8792 40.9081 2.06838 38.8738 0.39962 36.7231C0.382604 36.7174 0.363156 36.7169 0.350895 36.7013C0.205675 36.515 0.0114147 36.6578 0 36.8784C0.318237 38.4358 1.11938 41.6743 2.39814 42.4087C3.87972 43.2596 5.47355 42.8846 5.85711 42.7747Z" fill="url(#paint5_linear)"/>
<path d="M2.99013 30.8568C4.71702 30.3389 6.41063 29.7437 8.05402 29.0493C6.04726 26.8863 4.23296 24.5472 2.60679 22.0732C2.57709 22.0423 2.5458 22.0058 2.50976 21.9513C2.1799 21.4523 1.42886 21.6526 1.39007 22.3332C1.16473 24.8298 0.788366 31.2956 2.99013 30.8568Z" fill="url(#paint6_linear)"/>
<path d="M11.0224 13.6065C10.1283 12.402 9.30215 11.1463 8.51253 9.86579C8.49171 9.84995 8.46983 9.82736 8.44563 9.7884C8.16935 9.34339 7.69501 9.50629 7.53689 9.76222C6.73681 11.3555 5.09003 14.9889 5.53044 17.1327C7.43733 16.0694 9.27478 14.8962 11.0224 13.6065" fill="url(#paint7_linear)"/>
<path d="M22.5578 22.4577C25.4329 24.6728 28.5461 26.5918 31.8589 28.1609C34.1537 25.7524 36.2144 23.1222 38.0065 20.3031C35.041 18.8651 32.2312 17.1568 29.6046 15.2143C27.4898 17.8466 25.1298 20.2715 22.5578 22.4577" fill="url(#paint8_linear)"/>
<path d="M41.2907 33.621C38.1891 32.88 35.1935 31.8685 32.3291 30.6082C29.5054 33.415 26.3632 35.8995 22.9695 38.0185C26.3128 39.8044 29.9308 41.2244 33.6643 42.2344C36.5375 39.6654 39.0592 36.7735 41.2907 33.621" fill="url(#paint9_linear)"/>
<path d="M20.9398 21.1652C23.522 19.0042 25.8846 16.5909 27.9954 13.9669C25.4391 11.9209 23.247 10.029 20.9398 7.84575V7.84596C18.6326 10.0292 16.4405 11.921 13.8842 13.967C15.995 16.5911 18.3575 19.0043 20.9398 21.1653V21.1652" fill="url(#paint10_linear)"/>
<path d="M25.6275 50.4294L25.6409 50.4289C25.6409 50.4289 27.4236 51.5631 31.3355 51.5631C34.5047 51.5631 37.731 47.5709 38.8421 46.0547C38.9766 45.8621 39.1196 45.6758 39.248 45.4787C37.5153 45.2248 35.808 44.8917 34.1328 44.4756C31.5076 46.7266 28.6586 48.7199 25.6275 50.4294" fill="url(#paint11_linear)"/>
<path d="M20.9397 50.5486V50.5484C24.8301 48.7549 28.46 46.4916 31.7489 43.8217C27.9498 42.6859 24.1997 41.4345 20.9397 39.8997C20.9397 39.8998 20.9397 39.8998 20.9397 39.8998V39.8999C17.6797 41.4347 13.9296 42.686 10.1306 43.8218C13.4195 46.4918 17.0493 48.755 20.9397 50.5486Z" fill="url(#paint12_linear)"/>
<path d="M20.94 52.0193V52.0195C20.94 52.0195 15.362 53.1084 12.7289 52.8552C13.855 53.4782 14.9194 53.8113 15.6716 54.0025C15.6696 54.0031 15.6676 54.004 15.6655 54.0046C15.7 54.0131 15.7355 54.0188 15.77 54.0272C16.0876 54.1056 16.349 54.1606 16.5161 54.1974L16.5283 54.1914C17.9538 54.4848 19.4275 54.649 20.94 54.649V54.6488C22.4526 54.6488 23.9263 54.4846 25.3518 54.1913L25.364 54.1972C25.5311 54.1604 25.7924 54.1054 26.11 54.0271C26.1446 54.0186 26.1801 54.0129 26.2146 54.0044C26.2125 54.0038 26.2105 54.003 26.2084 54.0023C26.9607 53.8111 28.0252 53.4781 29.1512 52.8551C26.5181 53.1082 20.94 52.0193 20.94 52.0193" fill="url(#paint13_linear)"/>
<path d="M29.2442 12.3591C29.6246 11.8457 29.9786 11.3123 30.3396 10.7842C30.4542 6.22489 25.1432 1.58796 25.1432 1.58796C24.2403 2.96239 23.2823 4.29775 22.2592 5.5799C24.367 8.05467 26.7057 10.325 29.2442 12.3591" fill="url(#paint14_linear)"/>
<path d="M41.5282 36.7011C41.516 36.7168 41.4965 36.7173 41.4795 36.723C39.8108 38.8736 37.9999 40.9079 36.022 42.7745C36.4056 42.8845 37.9994 43.2596 39.481 42.4085C40.7598 41.6741 41.5609 38.4357 41.8791 36.8783C41.8677 36.6576 41.6735 36.5149 41.5282 36.7011" fill="url(#paint15_linear)"/>
<path d="M38.8893 30.8568C41.091 31.2956 40.7147 24.8297 40.4893 22.3332C40.4506 21.6526 39.6995 21.4522 39.3696 21.9513C39.3336 22.0057 39.3023 22.0423 39.2726 22.0731C37.6464 24.5472 35.8321 26.8862 33.8254 29.0492C35.4688 29.7437 37.1624 30.3389 38.8893 30.8568Z" fill="url(#paint16_linear)"/>
<path d="M34.3417 9.7621C34.1836 9.50628 33.7091 9.34337 33.433 9.78828C33.4088 9.82724 33.3869 9.84983 33.3661 9.86567C32.5764 11.1462 31.7502 12.402 30.8562 13.6063C32.6038 14.8962 34.4413 16.0693 36.3481 17.1326C36.7885 14.9889 35.1418 11.3555 34.3417 9.7621" fill="url(#paint17_linear)"/>
<path d="M71.125 25.4961C71.125 25.832 70.9258 26 70.5273 26H67.7148C67.418 26 67.0898 25.8945 66.7305 25.6836C66.3789 25.4648 66.1094 25.2031 65.9219 24.8984L63.9297 21.7812C63.1094 20.5 62.1172 19.8594 60.9531 19.8594H58.0938V24.8984C58.0938 25.2031 57.9844 25.4648 57.7656 25.6836C57.5547 25.8945 57.2969 26 56.9922 26H54.7891C54.4844 26 54.2227 25.8945 54.0039 25.6836C53.7852 25.4648 53.6758 25.2031 53.6758 24.8984V10.3086C53.6758 10.0039 53.7812 9.74219 53.9922 9.52344C54.2031 9.30469 54.4609 9.19531 54.7656 9.19531H64.4336C66.2227 9.19531 67.6875 9.67578 68.8281 10.6367C69.9766 11.5977 70.5508 12.8945 70.5508 14.5273C70.5508 16.8008 69.0781 18.2266 66.1328 18.8047C66.6016 18.9766 67.0352 19.2734 67.4336 19.6953C67.832 20.1094 68.2891 20.7148 68.8047 21.5117L70.9375 24.8984C71.0625 25.1172 71.125 25.3164 71.125 25.4961ZM58.0938 16.543H63.0859C63.8906 16.543 64.5977 16.3828 65.207 16.0625C65.8242 15.7422 66.1328 15.2305 66.1328 14.5273C66.1328 13.8242 65.8242 13.3125 65.207 12.9922C64.5977 12.6719 63.8906 12.5117 63.0859 12.5117H58.0938V16.543ZM72.7305 20.5977V13.8828C72.7305 13.6719 72.7969 13.5 72.9297 13.3672C73.0703 13.2266 73.2422 13.1562 73.4453 13.1562H76.0703C76.2734 13.1562 76.4414 13.2266 76.5742 13.3672C76.7148 13.5 76.7852 13.6719 76.7852 13.8828V20.5977C76.7852 22.4727 77.5273 23.4102 79.0117 23.4102C79.9883 23.4102 81.0391 22.8477 82.1641 21.7227V13.8828C82.1641 13.6719 82.2305 13.5 82.3633 13.3672C82.5039 13.2266 82.6758 13.1562 82.8789 13.1562H85.4922C85.7031 13.1562 85.875 13.2266 86.0078 13.3672C86.1484 13.5 86.2188 13.6719 86.2188 13.8828V25.2852C86.2188 25.4883 86.1484 25.6602 86.0078 25.8008C85.875 25.9336 85.7031 26 85.4922 26H82.8789C82.6758 26 82.5039 25.9336 82.3633 25.8008C82.2305 25.6602 82.1641 25.4883 82.1641 25.2852V24.5352C80.8203 25.668 79.3867 26.2344 77.8633 26.2344C76.3477 26.2344 75.1133 25.7734 74.1602 24.8516C73.207 23.9219 72.7305 22.5039 72.7305 20.5977ZM88.3867 16.707C88.3867 14.1836 90.4219 12.9219 94.4922 12.9219C98.7734 12.9219 100.914 14.043 100.914 16.2852C100.914 16.4883 100.848 16.6602 100.715 16.8008C100.582 16.9336 100.41 17 100.199 17H98.4531C97.8906 17 97.418 16.7656 97.0352 16.2969C96.6523 15.8203 95.8984 15.582 94.7734 15.582C93.2266 15.582 92.4531 15.957 92.4531 16.707C92.4531 17.0586 92.7539 17.3516 93.3555 17.5859C93.9648 17.8203 94.7031 18.0273 95.5703 18.207C96.4453 18.3789 97.3164 18.6016 98.1836 18.875C99.0508 19.1484 99.7852 19.5859 100.387 20.1875C100.996 20.7812 101.301 21.5352 101.301 22.4492C101.301 24.9727 99.1523 26.2344 94.8555 26.2344C90.5586 26.2344 88.4102 25.1172 88.4102 22.8828C88.4102 22.6719 88.4766 22.5 88.6094 22.3672C88.75 22.2266 88.9258 22.1562 89.1367 22.1562H90.8828C91.4453 22.1562 91.918 22.3945 92.3008 22.8711C92.6836 23.3398 93.4375 23.5742 94.5625 23.5742C96.3516 23.5742 97.2461 23.1992 97.2461 22.4492C97.2461 22.0977 96.9414 21.8047 96.332 21.5703C95.7305 21.3359 94.9922 21.1289 94.1172 20.9492C93.2422 20.7617 92.3711 20.5352 91.5039 20.2695C90.6445 19.9961 89.9102 19.5586 89.3008 18.957C88.6914 18.3555 88.3867 17.6055 88.3867 16.707ZM102.754 16.707C102.754 14.1836 104.789 12.9219 108.859 12.9219C113.141 12.9219 115.281 14.043 115.281 16.2852C115.281 16.4883 115.215 16.6602 115.082 16.8008C114.949 16.9336 114.777 17 114.566 17H112.82C112.258 17 111.785 16.7656 111.402 16.2969C111.02 15.8203 110.266 15.582 109.141 15.582C107.594 15.582 106.82 15.957 106.82 16.707C106.82 17.0586 107.121 17.3516 107.723 17.5859C108.332 17.8203 109.07 18.0273 109.938 18.207C110.812 18.3789 111.684 18.6016 112.551 18.875C113.418 19.1484 114.152 19.5859 114.754 20.1875C115.363 20.7812 115.668 21.5352 115.668 22.4492C115.668 24.9727 113.52 26.2344 109.223 26.2344C104.926 26.2344 102.777 25.1172 102.777 22.8828C102.777 22.6719 102.844 22.5 102.977 22.3672C103.117 22.2266 103.293 22.1562 103.504 22.1562H105.25C105.812 22.1562 106.285 22.3945 106.668 22.8711C107.051 23.3398 107.805 23.5742 108.93 23.5742C110.719 23.5742 111.613 23.1992 111.613 22.4492C111.613 22.0977 111.309 21.8047 110.699 21.5703C110.098 21.3359 109.359 21.1289 108.484 20.9492C107.609 20.7617 106.738 20.5352 105.871 20.2695C105.012 19.9961 104.277 19.5586 103.668 18.957C103.059 18.3555 102.754 17.6055 102.754 16.707ZM117.848 10.707V10.3086C117.848 9.89453 117.965 9.56641 118.199 9.32422C118.441 9.08203 118.773 8.96094 119.195 8.96094H120.648C121.062 8.96094 121.391 9.08203 121.633 9.32422C121.875 9.55859 121.996 9.88672 121.996 10.3086V10.707C121.996 11.1211 121.875 11.4492 121.633 11.6914C121.398 11.9336 121.07 12.0547 120.648 12.0547H119.195C118.781 12.0547 118.453 11.9336 118.211 11.6914C117.969 11.4492 117.848 11.1211 117.848 10.707ZM117.895 25.2852V14.1641C117.895 13.9531 117.961 13.7812 118.094 13.6484C118.234 13.5156 118.406 13.4492 118.609 13.4492H121.234C121.445 13.4492 121.617 13.5195 121.75 13.6602C121.883 13.793 121.949 13.9609 121.949 14.1641V25.2852C121.949 25.4961 121.879 25.668 121.738 25.8008C121.605 25.9336 121.438 26 121.234 26H118.609C118.398 26 118.227 25.9336 118.094 25.8008C117.961 25.668 117.895 25.4961 117.895 25.2852ZM125.699 25.1562C124.668 24.4375 124.152 23.4219 124.152 22.1094C124.152 20.7969 124.668 19.7891 125.699 19.0859C126.738 18.3828 128.074 18.0312 129.707 18.0312H133.586C133.586 17.1172 133.395 16.4805 133.012 16.1211C132.629 15.7617 131.957 15.582 130.996 15.582C130.043 15.582 129.371 15.8203 128.98 16.2969C128.598 16.7656 128.125 17 127.562 17H125.816C125.605 17 125.43 16.9336 125.289 16.8008C125.156 16.6602 125.09 16.4883 125.09 16.2852C125.09 14.043 127.219 12.9219 131.477 12.9219C133.336 12.9219 134.828 13.3398 135.953 14.1758C137.078 15.0039 137.641 16.2891 137.641 18.0312V25.2852C137.641 25.4961 137.574 25.668 137.441 25.8008C137.309 25.9336 137.137 26 136.926 26H134.664C134.453 26 134.281 25.9336 134.148 25.8008C134.016 25.6602 133.949 25.4883 133.949 25.2852V24.9219C132.715 25.8047 131.289 26.2422 129.672 26.2344C128.062 26.2344 126.738 25.875 125.699 25.1562ZM129.988 20.6914C129.441 20.6914 129.008 20.8242 128.688 21.0898C128.375 21.3555 128.219 21.6992 128.219 22.1211C128.219 22.543 128.383 22.8906 128.711 23.1641C129.039 23.4375 129.504 23.5742 130.105 23.5742C131.309 23.5742 132.469 23.2227 133.586 22.5195V20.6914H129.988ZM140.535 25.2852V13.8828C140.535 13.6719 140.602 13.5 140.734 13.3672C140.875 13.2266 141.047 13.1562 141.25 13.1562H143.875C144.078 13.1562 144.246 13.2266 144.379 13.3672C144.52 13.5 144.59 13.6719 144.59 13.8828V14.6211C145.934 13.4883 147.363 12.9219 148.879 12.9219C150.402 12.9219 151.641 13.3867 152.594 14.3164C153.547 15.2383 154.023 16.6523 154.023 18.5586V25.2852C154.023 25.4883 153.953 25.6602 153.812 25.8008C153.68 25.9336 153.508 26 153.297 26H150.684C150.48 26 150.309 25.9336 150.168 25.8008C150.035 25.6602 149.969 25.4883 149.969 25.2852V18.5586C149.969 16.6914 149.223 15.7578 147.73 15.7578C146.754 15.7578 145.707 16.3164 144.59 17.4336V25.2852C144.59 25.4883 144.52 25.6602 144.379 25.8008C144.246 25.9336 144.078 26 143.875 26H141.25C141.047 26 140.875 25.9336 140.734 25.8008C140.602 25.6602 140.535 25.4883 140.535 25.2852ZM53.6758 47.875V33.2852C53.6758 32.9805 53.7852 32.7227 54.0039 32.5117C54.2227 32.3008 54.4844 32.1953 54.7891 32.1953H68.3008C68.6055 32.1953 68.8633 32.3047 69.0742 32.5234C69.293 32.7422 69.4023 33.0039 69.4023 33.3086V34.4102C69.4023 34.7148 69.293 34.9766 69.0742 35.1953C68.8633 35.4062 68.6055 35.5117 68.3008 35.5117H58.0938V39.6367H66.4023C66.707 39.6367 66.9648 39.7461 67.1758 39.9648C67.3945 40.1836 67.5039 40.4414 67.5039 40.7383V41.8516C67.5039 42.1562 67.3945 42.418 67.1758 42.6367C66.9648 42.8477 66.707 42.9531 66.4023 42.9531H58.0938V47.875C58.0938 48.1953 57.9844 48.4648 57.7656 48.6836C57.5547 48.8945 57.2969 49 56.9922 49H54.7891C54.4844 49 54.2227 48.8945 54.0039 48.6836C53.7852 48.4648 53.6758 48.1953 53.6758 47.875ZM79.3867 39.1328L77.582 39.0625C76.5273 39.0625 75.5195 39.6406 74.5586 40.7969V48.2852C74.5586 48.4961 74.4883 48.668 74.3477 48.8008C74.2148 48.9336 74.0469 49 73.8438 49H71.2188C71.0078 49 70.8359 48.9336 70.7031 48.8008C70.5703 48.668 70.5039 48.4961 70.5039 48.2852V36.8828C70.5039 36.6719 70.5703 36.5 70.7031 36.3672C70.8438 36.2266 71.0156 36.1562 71.2188 36.1562H73.8438C74.0547 36.1562 74.2266 36.2266 74.3594 36.3672C74.4922 36.5 74.5586 36.6719 74.5586 36.8828V37.6211C75.3555 37.043 76.1211 36.6172 76.8555 36.3438C77.5977 36.0625 78.5664 35.9219 79.7617 35.9219C79.9727 35.9219 80.1445 35.9922 80.2773 36.1328C80.418 36.2656 80.4883 36.4336 80.4883 36.6367V38.418C80.4883 38.6289 80.418 38.8008 80.2773 38.9336C80.1445 39.0664 79.9727 39.1328 79.7617 39.1328H79.3867ZM82.1758 33.707V33.3086C82.1758 32.8945 82.293 32.5664 82.5273 32.3242C82.7695 32.082 83.1016 31.9609 83.5234 31.9609H84.9766C85.3906 31.9609 85.7188 32.082 85.9609 32.3242C86.2031 32.5586 86.3242 32.8867 86.3242 33.3086V33.707C86.3242 34.1211 86.2031 34.4492 85.9609 34.6914C85.7266 34.9336 85.3984 35.0547 84.9766 35.0547H83.5234C83.1094 35.0547 82.7812 34.9336 82.5391 34.6914C82.2969 34.4492 82.1758 34.1211 82.1758 33.707ZM82.2227 48.2852V37.1641C82.2227 36.9531 82.2891 36.7812 82.4219 36.6484C82.5625 36.5156 82.7344 36.4492 82.9375 36.4492H85.5625C85.7734 36.4492 85.9453 36.5195 86.0781 36.6602C86.2109 36.793 86.2773 36.9609 86.2773 37.1641V48.2852C86.2773 48.4961 86.207 48.668 86.0664 48.8008C85.9336 48.9336 85.7656 49 85.5625 49H82.9375C82.7266 49 82.5547 48.9336 82.4219 48.8008C82.2891 48.668 82.2227 48.4961 82.2227 48.2852ZM90.2852 47.5234C89.082 46.3828 88.4805 44.7422 88.4805 42.6016C88.4805 40.4531 89.0859 38.8047 90.2969 37.6562C91.5078 36.5 93.1875 35.9219 95.3359 35.9219C97.4844 35.9219 99.1602 36.4844 100.363 37.6094C101.566 38.7266 102.168 40.332 102.168 42.4258V43.0938C102.168 43.3047 102.098 43.4805 101.957 43.6211C101.824 43.7539 101.652 43.8203 101.441 43.8203H92.6172C92.6953 44.7812 92.9688 45.4805 93.4375 45.918C93.9141 46.3555 94.6719 46.5742 95.7109 46.5742C96.75 46.5742 97.4609 46.3398 97.8438 45.8711C98.2266 45.4023 98.6992 45.1641 99.2617 45.1562H101.008C101.219 45.1562 101.391 45.2266 101.523 45.3672C101.664 45.5 101.734 45.6719 101.734 45.8828C101.734 48.125 99.5977 49.2422 95.3242 49.2344C93.168 49.2344 91.4883 48.6641 90.2852 47.5234ZM92.5938 41.3477H98.043C97.9648 39.5039 97.0586 38.582 95.3242 38.582C93.5977 38.582 92.6875 39.5039 92.5938 41.3477ZM104.324 48.2852V36.8828C104.324 36.6719 104.391 36.5 104.523 36.3672C104.664 36.2266 104.836 36.1562 105.039 36.1562H107.664C107.867 36.1562 108.035 36.2266 108.168 36.3672C108.309 36.5 108.379 36.6719 108.379 36.8828V37.6211C109.723 36.4883 111.152 35.9219 112.668 35.9219C114.191 35.9219 115.43 36.3867 116.383 37.3164C117.336 38.2383 117.812 39.6523 117.812 41.5586V48.2852C117.812 48.4883 117.742 48.6602 117.602 48.8008C117.469 48.9336 117.297 49 117.086 49H114.473C114.27 49 114.098 48.9336 113.957 48.8008C113.824 48.6602 113.758 48.4883 113.758 48.2852V41.5586C113.758 39.6914 113.012 38.7578 111.52 38.7578C110.543 38.7578 109.496 39.3164 108.379 40.4336V48.2852C108.379 48.4883 108.309 48.6602 108.168 48.8008C108.035 48.9336 107.867 49 107.664 49H105.039C104.836 49 104.664 48.9336 104.523 48.8008C104.391 48.6602 104.324 48.4883 104.324 48.2852ZM125.723 49.2344C124.09 49.2344 122.723 48.6602 121.621 47.5117C120.527 46.3633 119.98 44.7188 119.98 42.5781C119.98 40.4297 120.547 38.7852 121.68 37.6445C122.82 36.4961 124.352 35.9219 126.273 35.9219C127.266 35.9219 128.395 36.1211 129.66 36.5195V32.9219C129.66 32.7109 129.727 32.5391 129.859 32.4062C130 32.2656 130.172 32.1953 130.375 32.1953H132.988C133.199 32.1953 133.371 32.2656 133.504 32.4062C133.645 32.5391 133.715 32.7109 133.715 32.9219V48.2852C133.715 48.4883 133.645 48.6602 133.504 48.8008C133.371 48.9336 133.199 49 132.988 49H130.738C130.527 49 130.355 48.9336 130.223 48.8008C130.09 48.6602 130.023 48.4883 130.023 48.2852V47.9219C128.789 48.7969 127.355 49.2344 125.723 49.2344ZM127.117 38.7578C126.039 38.7578 125.277 39.0625 124.832 39.6719C124.387 40.2734 124.164 41.2422 124.164 42.5781C124.164 43.9141 124.375 44.8867 124.797 45.4961C125.219 46.1055 125.852 46.4102 126.695 46.4102C127.547 46.4102 128.535 46.0586 129.66 45.3555V39.2266C128.652 38.9141 127.805 38.7578 127.117 38.7578Z" fill="url(#paint18_linear)"/>
<defs>
<linearGradient id="paint0_linear" x1="11.5967" y1="28.1613" x2="11.5967" y2="15.2146" gradientUnits="userSpaceOnUse">
<stop offset="0.497917" stop-color="#006660"/>
<stop offset="1" stop-color="#30706C" stop-opacity="0"/>
</linearGradient>
<linearGradient id="paint1_linear" x1="20.94" y1="36.8724" x2="20.94" y2="24.455" gradientUnits="userSpaceOnUse">
<stop offset="0.497917" stop-color="#006660"/>
<stop offset="1" stop-color="#30706C" stop-opacity="0"/>
</linearGradient>
<linearGradient id="paint2_linear" x1="9.44121" y1="51.5634" x2="9.44121" y2="44.4758" gradientUnits="userSpaceOnUse">
<stop offset="0.497917" stop-color="#006660"/>
<stop offset="1" stop-color="#30706C" stop-opacity="0"/>
</linearGradient>
<linearGradient id="paint3_linear" x1="15.5784" y1="12.3594" x2="15.5784" y2="1.5881" gradientUnits="userSpaceOnUse">
<stop offset="0.497917" stop-color="#006660"/>
<stop offset="1" stop-color="#30706C" stop-opacity="0"/>
</linearGradient>
<linearGradient id="paint4_linear" x1="20.939" y1="4.34485" x2="20.939" y2="-4.3869e-05" gradientUnits="userSpaceOnUse">
<stop offset="0.497917" stop-color="#006660"/>
<stop offset="1" stop-color="#30706C" stop-opacity="0"/>
</linearGradient>
<linearGradient id="paint5_linear" x1="2.92855" y1="42.952" x2="2.92855" y2="36.6153" gradientUnits="userSpaceOnUse">
<stop offset="0.497917" stop-color="#006660"/>
<stop offset="1" stop-color="#30706C" stop-opacity="0"/>
</linearGradient>
<linearGradient id="paint6_linear" x1="4.6345" y1="30.8781" x2="4.6345" y2="21.6734" gradientUnits="userSpaceOnUse">
<stop offset="0.497917" stop-color="#006660"/>
<stop offset="1" stop-color="#30706C" stop-opacity="0"/>
</linearGradient>
<linearGradient id="paint7_linear" x1="8.23962" y1="17.1327" x2="8.23962" y2="9.51001" gradientUnits="userSpaceOnUse">
<stop offset="0.497917" stop-color="#006660"/>
<stop offset="1" stop-color="#30706C" stop-opacity="0"/>
</linearGradient>
<linearGradient id="paint8_linear" x1="30.2822" y1="28.1609" x2="30.2822" y2="15.2143" gradientUnits="userSpaceOnUse">
<stop offset="0.497917" stop-color="#006660"/>
<stop offset="1" stop-color="#30706C" stop-opacity="0"/>
</linearGradient>
<linearGradient id="paint9_linear" x1="32.1301" y1="42.2344" x2="32.1301" y2="30.6082" gradientUnits="userSpaceOnUse">
<stop offset="0.497917" stop-color="#006660"/>
<stop offset="1" stop-color="#30706C" stop-opacity="0"/>
</linearGradient>
<linearGradient id="paint10_linear" x1="20.9398" y1="21.1653" x2="20.9398" y2="7.84575" gradientUnits="userSpaceOnUse">
<stop offset="0.497917" stop-color="#006660"/>
<stop offset="1" stop-color="#30706C" stop-opacity="0"/>
</linearGradient>
<linearGradient id="paint11_linear" x1="32.4377" y1="51.5631" x2="32.4377" y2="44.4756" gradientUnits="userSpaceOnUse">
<stop offset="0.497917" stop-color="#006660"/>
<stop offset="1" stop-color="#30706C" stop-opacity="0"/>
</linearGradient>
<linearGradient id="paint12_linear" x1="20.9397" y1="50.5486" x2="20.9397" y2="39.8997" gradientUnits="userSpaceOnUse">
<stop offset="0.497917" stop-color="#006660"/>
<stop offset="1" stop-color="#30706C" stop-opacity="0"/>
</linearGradient>
<linearGradient id="paint13_linear" x1="20.94" y1="54.649" x2="20.94" y2="52.0193" gradientUnits="userSpaceOnUse">
<stop offset="0.497917" stop-color="#006660"/>
<stop offset="1" stop-color="#30706C" stop-opacity="0"/>
</linearGradient>
<linearGradient id="paint14_linear" x1="26.3003" y1="12.3591" x2="26.3003" y2="1.58796" gradientUnits="userSpaceOnUse">
<stop offset="0.497917" stop-color="#006660"/>
<stop offset="1" stop-color="#30706C" stop-opacity="0"/>
</linearGradient>
<linearGradient id="paint15_linear" x1="38.9506" y1="42.9519" x2="38.9506" y2="36.6152" gradientUnits="userSpaceOnUse">
<stop offset="0.497917" stop-color="#006660"/>
<stop offset="1" stop-color="#30706C" stop-opacity="0"/>
</linearGradient>
<linearGradient id="paint16_linear" x1="37.2449" y1="30.8781" x2="37.2449" y2="21.6733" gradientUnits="userSpaceOnUse">
<stop offset="0.497917" stop-color="#006660"/>
<stop offset="1" stop-color="#30706C" stop-opacity="0"/>
</linearGradient>
<linearGradient id="paint17_linear" x1="33.639" y1="17.1326" x2="33.639" y2="9.50997" gradientUnits="userSpaceOnUse">
<stop offset="0.497917" stop-color="#006660"/>
<stop offset="1" stop-color="#30706C" stop-opacity="0"/>
</linearGradient>
<linearGradient id="paint18_linear" x1="104.349" y1="6" x2="104.349" y2="-24.6667" gradientUnits="userSpaceOnUse">
<stop offset="0.471875" stop-color="#455A64"/>
<stop offset="1" stop-color="#455A64" stop-opacity="0"/>
</linearGradient>
</defs>
</svg>
