<svg width="94" height="85" viewBox="0 0 94 85" fill="none" xmlns="http://www.w3.org/2000/svg">
<path fill-rule="evenodd" clip-rule="evenodd" d="M11.8723 21.4907C9.71871 19.3364 7.56982 17.1842 7.56982 15.0306C7.56982 13.8389 8.53649 12.8716 9.72814 12.8716C10.7979 12.8716 11.3374 13.4024 11.8723 14.4634V21.4907Z" fill="#F0740E"/>
<path fill-rule="evenodd" clip-rule="evenodd" d="M4.87197 21.5041C3.79349 20.9646 3.25391 20.425 3.25391 19.3451C3.25391 18.1555 4.22057 17.1875 5.41155 17.1875C7.56515 17.1875 9.71875 19.3364 11.8724 21.4907V21.5183C9.71875 23.6719 7.56515 25.8208 5.41155 25.8208C4.22057 25.8208 3.25391 24.8534 3.25391 23.6618C3.25391 22.584 3.79349 22.0437 4.87197 21.5041Z" fill="#F0740E"/>
<path fill-rule="evenodd" clip-rule="evenodd" d="M11.8723 21.5183C9.71871 23.6719 7.56982 25.8242 7.56982 27.9778C7.56982 29.1694 8.53649 30.1374 9.72814 30.1374C10.7979 30.1374 11.3374 29.6059 11.8723 28.5456V21.5183Z" fill="#F0740E"/>
<path fill-rule="evenodd" clip-rule="evenodd" d="M11.8724 24.0942C10.4483 24.0854 9.29639 22.9301 9.29639 21.5041C9.29639 20.078 10.4483 18.9227 11.8724 18.9139V24.0942Z" fill="#F6D200"/>
<path fill-rule="evenodd" clip-rule="evenodd" d="M11.8726 21.4907C14.0262 19.3364 16.175 17.1842 16.175 15.0306C16.175 13.8389 15.2084 12.8716 14.0174 12.8716C12.947 12.8716 12.4074 13.4024 11.8726 14.4634V21.4907Z" fill="#FF3E28"/>
<path fill-rule="evenodd" clip-rule="evenodd" d="M18.8729 21.5041C19.9521 20.9646 20.491 20.425 20.491 19.3451C20.491 18.1555 19.5243 17.1875 18.3334 17.1875C16.1798 17.1875 14.0262 19.3364 11.8726 21.4907V21.5183C14.0262 23.6719 16.1798 25.8208 18.3334 25.8208C19.5243 25.8208 20.491 24.8534 20.491 23.6618C20.491 22.584 19.9521 22.0437 18.8729 21.5041Z" fill="#FF3E28"/>
<path fill-rule="evenodd" clip-rule="evenodd" d="M11.8726 21.5183C14.0262 23.6719 16.175 25.8242 16.175 27.9778C16.175 29.1694 15.2084 30.1374 14.0174 30.1374C12.947 30.1374 12.4074 29.6059 11.8726 28.5456V21.5183Z" fill="#FF3E28"/>
<path fill-rule="evenodd" clip-rule="evenodd" d="M11.8726 24.0942C13.2966 24.0854 14.4485 22.9301 14.4485 21.5041C14.4485 20.078 13.2966 18.9227 11.8726 18.9139V24.0942Z" fill="#F6A800"/>
<path fill-rule="evenodd" clip-rule="evenodd" d="M46.6528 70.4475C60.1565 70.3969 69.1865 71.2855 74.3802 67.4842C94.9166 52.4521 64.7358 13.3821 46.6528 16.6863V70.4475Z" fill="#472D24"/>
<path fill-rule="evenodd" clip-rule="evenodd" d="M46.653 70.4475C33.1501 70.3969 24.12 71.2855 18.9257 67.4842C-1.61 52.4521 28.5707 13.3821 46.653 16.6863V70.4475Z" fill="#66463A"/>
<path fill-rule="evenodd" clip-rule="evenodd" d="M44.3574 37.3055C44.6808 36.8144 45.0088 36.3213 45.3463 35.8316C45.6852 35.3398 46.0348 34.8481 46.3878 34.3536C46.3878 48.2702 46.3878 57.0928 46.3878 63.1649C46.3878 67.5981 46.3878 70.9884 46.3878 73.6547C46.2577 73.5873 46.1284 73.5152 45.995 73.4459C45.865 73.3771 45.7303 73.3084 45.5969 73.2377C45.5073 70.6435 45.3948 67.3778 45.2493 63.1649C45.054 57.5097 44.7778 49.4962 44.3574 37.3055Z" fill="#FCD3C5"/>
<path fill-rule="evenodd" clip-rule="evenodd" d="M48.4174 37.3055C48.0927 36.8144 47.7646 36.3213 47.4271 35.8316C47.0883 35.3398 46.7393 34.8481 46.3877 34.3536C46.3877 48.2702 46.3877 57.0928 46.3877 63.1649C46.3877 67.5981 46.3877 70.9884 46.3877 73.6547C46.517 73.5873 46.6464 73.5152 46.7791 73.4459C46.9098 73.3771 47.0445 73.3084 47.1785 73.2377C47.2681 70.6435 47.3806 67.3778 47.5261 63.1649C47.7208 57.5097 47.997 49.4962 48.4174 37.3055Z" fill="#D9B0A3"/>
<path fill-rule="evenodd" clip-rule="evenodd" d="M40.3135 37.5838C40.6025 37.0711 40.8955 36.5572 41.1986 36.0452C41.5024 35.5312 41.8177 35.0172 42.1357 34.4999C43.0922 48.3821 43.6985 57.1858 44.1155 63.2424C44.4199 67.6655 44.653 71.0491 44.8362 73.7066C44.7015 73.6494 44.5681 73.586 44.4307 73.5274C44.2953 73.4668 44.1565 73.4082 44.0185 73.3462C43.751 70.7649 43.4142 67.5139 42.9797 63.3199C42.397 57.693 41.5705 49.7172 40.3135 37.5838Z" fill="#FCD3C5"/>
<path fill-rule="evenodd" clip-rule="evenodd" d="M44.3641 37.3042C44.0057 36.8367 43.6454 36.3692 43.2749 35.9024C42.903 35.4349 42.5211 34.9694 42.1357 34.4999C43.0923 48.3821 43.6986 57.1858 44.1155 63.2424C44.42 67.6655 44.6531 71.0491 44.8363 73.7066C44.961 73.6325 45.0849 73.5517 45.2122 73.4722C45.3382 73.3961 45.4675 73.3166 45.5962 73.2378C45.5073 70.6436 45.3955 67.3778 45.2513 63.1649C45.0573 57.5085 44.7818 49.4963 44.3641 37.3042Z" fill="#D9B0A3"/>
<path fill-rule="evenodd" clip-rule="evenodd" d="M36.2959 38.1368C36.5492 37.6074 36.8058 37.0745 37.0733 36.5417C37.3407 36.0088 37.6203 35.4746 37.9018 34.9364C39.8096 48.7223 41.0187 57.46 41.8513 63.4748C42.4583 67.8676 42.9238 71.227 43.2889 73.8649C43.1508 73.8171 43.0127 73.7632 42.8719 73.7134C42.7331 73.6635 42.5903 73.6137 42.4482 73.5618C42.0043 71.004 41.4445 67.7847 40.7237 63.6318C39.755 58.0568 38.3828 50.1571 36.2959 38.1368Z" fill="#FCD3C5"/>
<path fill-rule="evenodd" clip-rule="evenodd" d="M40.3175 37.5818C39.9281 37.1385 39.5354 36.6973 39.1346 36.2574C38.7311 35.8162 38.3182 35.3776 37.9019 34.9364C39.8096 48.7223 41.0188 57.46 41.8514 63.4748C42.4583 67.8676 42.9238 71.227 43.2889 73.8649C43.4081 73.7827 43.526 73.6925 43.6479 73.6062C43.7678 73.52 43.8918 73.4324 44.0151 73.3442C43.7483 70.7628 43.4122 67.5119 42.9783 63.3199C42.3963 57.691 41.5718 49.7152 40.3175 37.5818Z" fill="#D9B0A3"/>
<path fill-rule="evenodd" clip-rule="evenodd" d="M32.3281 38.9633C32.5444 38.415 32.7646 37.8659 32.9943 37.3176C33.2247 36.7659 33.4666 36.2142 33.7111 35.6571C36.5606 49.2793 38.3672 57.9153 39.6101 63.858C40.5181 68.1982 41.2127 71.5179 41.7583 74.1255C41.6168 74.0878 41.4754 74.0427 41.3312 74.0016C41.1898 73.9618 41.0442 73.9221 40.8987 73.879C40.2797 71.3596 39.501 68.1861 38.4959 64.0925C37.1473 58.5963 35.2362 50.8084 32.3281 38.9633Z" fill="#FCD3C5"/>
<path fill-rule="evenodd" clip-rule="evenodd" d="M36.3024 38.132C35.8834 37.7164 35.4617 37.3021 35.0313 36.8919C34.5988 36.4796 34.1569 36.0707 33.7109 35.6571C36.5604 49.2793 38.3671 57.9153 39.6099 63.858C40.518 68.1982 41.2125 71.5179 41.7581 74.1255C41.8713 74.0339 41.9825 73.9376 42.0983 73.8413C42.2128 73.7476 42.3301 73.6533 42.4466 73.5563C42.0033 70.9992 41.4449 67.7792 40.7248 63.625C39.7575 58.05 38.3873 50.1496 36.3024 38.132Z" fill="#D9B0A3"/>
<path fill-rule="evenodd" clip-rule="evenodd" d="M28.4463 40.0533C28.6248 39.4908 28.8067 38.9283 28.9987 38.3665C29.1913 37.8007 29.3948 37.2335 29.6002 36.6609C33.3726 50.0567 35.764 58.5485 37.4096 64.3943C38.6114 68.6604 39.5309 71.9249 40.253 74.4914C40.1096 74.4618 39.9654 74.4274 39.8192 74.3964C39.6744 74.3654 39.5262 74.3358 39.3787 74.3035C38.5898 71.8319 37.5956 68.7177 36.3143 64.7029C34.5939 59.3124 32.1553 51.6728 28.4463 40.0533Z" fill="#FCD3C5"/>
<path fill-rule="evenodd" clip-rule="evenodd" d="M32.3551 38.9512C31.9091 38.5666 31.4598 38.182 31.0024 37.8007C30.543 37.4194 30.0735 37.0422 29.6006 36.6609C33.3729 50.0567 35.7643 58.5485 37.41 64.3943C38.6118 68.6604 39.5313 71.9249 40.2534 74.4914C40.3598 74.391 40.4649 74.2859 40.574 74.1842C40.6811 74.0825 40.7916 73.9788 40.9014 73.8757C40.2851 71.3543 39.5077 68.1795 38.506 64.0858C37.1608 58.5896 35.2544 50.7998 32.3551 38.9512Z" fill="#D9B0A3"/>
<path fill-rule="evenodd" clip-rule="evenodd" d="M20.9268 43.0394C21.0265 42.4588 21.1295 41.8774 21.2427 41.2927C21.3559 40.7066 21.4798 40.1165 21.6058 39.5217C27.176 52.2743 30.7079 60.3605 33.1384 65.9241C34.9134 69.9867 36.2707 73.0942 37.3371 75.5361C37.1909 75.5274 37.0441 75.5119 36.8945 75.5018C36.7477 75.493 36.5961 75.4829 36.4459 75.4708C35.325 73.1306 33.9151 70.1814 32.0956 66.3788C29.653 61.2747 26.1919 54.0419 20.9268 43.0394Z" fill="#FCD3C5"/>
<path fill-rule="evenodd" clip-rule="evenodd" d="M24.6474 41.4133C24.153 41.0947 23.6558 40.774 23.1499 40.4601C22.6427 40.1442 22.126 39.8356 21.606 39.5217C27.1762 52.2743 30.7081 60.3605 33.1385 65.9241C34.9136 69.9867 36.2709 73.0942 37.3373 75.5361C37.4296 75.4223 37.5192 75.3051 37.6128 75.1878C37.7051 75.074 37.8007 74.9568 37.8957 74.8376C36.9392 72.4253 35.7347 69.3865 34.182 65.4687C32.0964 60.2069 29.1419 52.7539 24.6474 41.4133Z" fill="#D9B0A3"/>
<path fill-rule="evenodd" clip-rule="evenodd" d="M17.3291 44.9229C17.3891 44.3382 17.4517 43.7501 17.5238 43.1587C17.5965 42.5672 17.6794 41.9704 17.7636 41.3668C24.2008 53.7057 28.2817 61.5279 31.0907 66.9103C33.1413 70.8422 34.7102 73.848 35.9422 76.2104C35.796 76.2124 35.6485 76.207 35.4983 76.207C35.3514 76.207 35.1999 76.2084 35.049 76.207C33.7698 73.9497 32.1591 71.1056 30.0816 67.4377C27.2928 62.5148 23.3406 55.5373 17.3291 44.9229Z" fill="#FCD3C5"/>
<path fill-rule="evenodd" clip-rule="evenodd" d="M20.9284 43.0448C20.4131 42.7606 19.895 42.4756 19.3689 42.1967C18.8408 41.9172 18.3046 41.6444 17.7637 41.3668C24.2009 53.7057 28.2818 61.5279 31.0908 66.9103C33.1413 70.8422 34.7102 73.848 35.9423 76.2104C36.0265 76.0912 36.1073 75.9672 36.1936 75.8446C36.2778 75.7241 36.3647 75.6001 36.4509 75.4755C35.3307 73.1339 33.9201 70.1868 32.0999 66.3841C29.6566 61.28 26.1949 54.0473 20.9284 43.0448Z" fill="#D9B0A3"/>
<path fill-rule="evenodd" clip-rule="evenodd" d="M24.6313 41.4255C24.7708 40.8549 24.9129 40.2803 25.0658 39.7064C25.2194 39.1284 25.3831 38.5491 25.5488 37.963C30.2346 51.0672 33.2053 59.3744 35.2491 65.0929C36.7419 69.266 37.8837 72.4597 38.781 74.969C38.6362 74.9501 38.49 74.9259 38.3418 74.905C38.1956 74.8861 38.0461 74.8652 37.8965 74.843C36.9386 72.4307 35.7328 69.3933 34.1774 65.4755C32.0898 60.2158 29.1319 52.7641 24.6313 41.4255Z" fill="#FCD3C5"/>
<path fill-rule="evenodd" clip-rule="evenodd" d="M28.4537 40.06C27.9822 39.7064 27.5079 39.3527 27.0249 39.0044C26.5406 38.6562 26.0468 38.3113 25.5483 37.963C30.2341 51.0672 33.2048 59.3744 35.2486 65.0929C36.7414 69.266 37.8832 72.4597 38.7805 74.969C38.8802 74.8639 38.9779 74.7514 39.0789 74.6409C39.1793 74.5325 39.2824 74.422 39.3847 74.3102C38.5966 71.8386 37.6023 68.7244 36.3211 64.7096C34.6006 59.3192 32.1627 51.6795 28.4537 40.06Z" fill="#D9B0A3"/>
<path fill-rule="evenodd" clip-rule="evenodd" d="M71.8032 43.0193C72.3172 42.733 72.8346 42.448 73.3607 42.1692C73.8881 41.8876 74.4243 41.6134 74.9666 41.3379C68.5462 53.6835 64.4755 61.5125 61.6738 66.8982C59.6287 70.8315 58.0638 73.8413 56.8351 76.2051C56.7503 76.0865 56.6687 75.9619 56.5832 75.84C56.4983 75.7187 56.4114 75.5948 56.3252 75.4708C57.4421 73.1286 58.8493 70.1781 60.6641 66.3741C63.1006 61.2659 66.5523 54.0298 71.8032 43.0193Z" fill="#FCD3C5"/>
<path fill-rule="evenodd" clip-rule="evenodd" d="M75.4056 44.892C75.3437 44.3073 75.2797 43.7192 75.2069 43.1277C75.1328 42.5343 75.05 41.9394 74.9664 41.3379C68.5461 53.6835 64.4753 61.5125 61.6737 66.8982C59.6285 70.8315 58.0637 73.8413 56.835 76.2051C56.9805 76.2051 57.1287 76.2017 57.2782 76.2017C57.4257 76.2004 57.5766 76.2017 57.7282 76.2004C59.0047 73.941 60.6113 71.0956 62.6834 67.4243C65.4655 62.4973 69.4083 55.5145 75.4056 44.892Z" fill="#D9B0A3"/>
<path fill-rule="evenodd" clip-rule="evenodd" d="M68.0852 41.3979C68.5783 41.0772 69.0747 40.7566 69.5806 40.4426C70.0872 40.1254 70.6032 39.8168 71.1253 39.5029C65.5678 52.2608 62.0447 60.3505 59.6203 65.9167C57.85 69.9814 56.4953 73.0909 55.4317 75.5348C55.3387 75.421 55.2491 75.3031 55.1555 75.1859C55.0625 75.072 54.9669 74.9548 54.8726 74.8363C55.8264 72.422 57.0275 69.3832 58.5762 65.4634C60.6564 60.2003 63.6028 52.7438 68.0852 41.3979Z" fill="#FCD3C5"/>
<path fill-rule="evenodd" clip-rule="evenodd" d="M71.8076 43.0193C71.7059 42.44 71.6015 41.8566 71.4877 41.2719C71.3738 40.6858 71.2499 40.0977 71.1252 39.5029C65.5678 52.2608 62.0447 60.3505 59.6203 65.9167C57.85 69.9814 56.4953 73.0909 55.4316 75.5348C55.5771 75.524 55.724 75.5106 55.8735 75.4998C56.0204 75.4897 56.172 75.4796 56.3229 75.4675C57.4411 73.1252 58.8483 70.1768 60.6637 66.3721C63.1003 61.2646 66.554 54.0285 71.8076 43.0193Z" fill="#D9B0A3"/>
<path fill-rule="evenodd" clip-rule="evenodd" d="M64.2695 40.0337C64.7397 39.6807 65.2126 39.327 65.6956 38.9767C66.1792 38.6285 66.673 38.2836 67.1722 37.9353C62.5039 51.0449 59.5446 59.3568 57.5083 65.0773C56.0209 69.2518 54.8831 72.4475 53.9892 74.9581C53.8895 74.8517 53.7918 74.7392 53.6901 74.6307C53.5897 74.5223 53.486 74.4118 53.3843 74.3C54.1697 71.8271 55.1593 68.7122 56.4352 64.694C58.1489 59.3016 60.5766 51.6606 64.2695 40.0337Z" fill="#FCD3C5"/>
<path fill-rule="evenodd" clip-rule="evenodd" d="M68.0944 41.3964C67.953 40.8238 67.8095 40.2512 67.6559 39.6753C67.5016 39.0993 67.338 38.52 67.1722 37.9353C62.504 51.0449 59.5447 59.3568 57.5083 65.0773C56.0209 69.2518 54.8832 72.4475 53.9893 74.9581C54.1341 74.9393 54.2796 74.9137 54.4285 74.8928C54.574 74.8719 54.7242 74.853 54.8744 74.8308C55.8289 72.4185 57.03 69.3778 58.5801 65.4579C60.6609 60.1968 63.6094 52.7397 68.0944 41.3964Z" fill="#D9B0A3"/>
<path fill-rule="evenodd" clip-rule="evenodd" d="M60.3888 38.9405C60.8334 38.5559 61.2821 38.1699 61.7395 37.7886C62.1982 37.4073 62.6677 37.0301 63.142 36.6488C59.379 50.0467 56.993 58.5412 55.3514 64.3856C54.153 68.6537 53.2355 71.9202 52.5154 74.486C52.4083 74.3863 52.3032 74.2806 52.1941 74.1789C52.0863 74.0771 51.9758 73.9741 51.8667 73.8703C52.4817 71.3489 53.2564 68.1741 54.2554 64.0784C55.5966 58.5809 57.4976 50.7917 60.3888 38.9405Z" fill="#FCD3C5"/>
<path fill-rule="evenodd" clip-rule="evenodd" d="M64.2981 40.0392C64.1183 39.4787 63.9357 38.9162 63.743 38.3524C63.5504 37.7872 63.3469 37.2194 63.1422 36.6488C59.3793 50.0467 56.9933 58.5412 55.3516 64.3856C54.1532 68.6537 53.2357 71.9202 52.5156 74.486C52.6584 74.455 52.8026 74.4207 52.9488 74.391C53.0929 74.3601 53.2411 74.3291 53.3893 74.2981C54.1775 71.8252 55.1684 68.711 56.4476 64.6941C58.164 59.3017 60.5972 51.662 64.2981 40.0392Z" fill="#D9B0A3"/>
<path fill-rule="evenodd" clip-rule="evenodd" d="M56.4164 38.1247C56.8334 37.7091 57.2537 37.2941 57.6842 36.8832C58.116 36.4696 58.5579 36.0607 59.0045 35.6484C56.1732 49.274 54.3786 57.912 53.1432 63.8561C52.2412 68.197 51.5514 71.518 51.0091 74.1276C50.8953 74.034 50.7835 73.9377 50.6676 73.8427C50.5538 73.7497 50.4359 73.6548 50.3193 73.5584C50.7592 71.0006 51.3136 67.7793 52.0283 63.625C52.9883 58.048 54.3477 50.1463 56.4164 38.1247Z" fill="#FCD3C5"/>
<path fill-rule="evenodd" clip-rule="evenodd" d="M60.3916 38.9513C60.1734 38.4043 59.9524 37.8559 59.722 37.3056C59.4903 36.7559 59.2485 36.2042 59.0046 35.6484C56.1733 49.274 54.3788 57.912 53.1433 63.8561C52.2414 68.197 51.5516 71.518 51.0093 74.1276C51.1501 74.0879 51.2909 74.0428 51.435 74.003C51.5765 73.9619 51.7227 73.9222 51.8682 73.8791C52.4839 71.3577 53.2585 68.1828 54.2575 64.0892C55.5987 58.5917 57.4997 50.8018 60.3916 38.9513Z" fill="#D9B0A3"/>
<path fill-rule="evenodd" clip-rule="evenodd" d="M52.4142 37.5716C52.8016 37.1283 53.193 36.6851 53.5944 36.2452C53.9966 35.804 54.4095 35.3654 54.8272 34.9229C52.9343 48.7101 51.7339 57.4511 50.908 63.4667C50.3051 67.8587 49.8437 71.2181 49.4812 73.8581C49.3613 73.7739 49.2435 73.6857 49.1215 73.5981C49.0009 73.5132 48.877 73.4256 48.7544 73.3374C49.0185 70.756 49.3512 67.5051 49.7803 63.3111C50.3563 57.6822 51.1727 49.705 52.4142 37.5716Z" fill="#FCD3C5"/>
<path fill-rule="evenodd" clip-rule="evenodd" d="M56.4367 38.1233C56.1821 37.5918 55.9241 37.0589 55.656 36.5281C55.3872 35.9953 55.1083 35.4604 54.8274 34.9229C52.9345 48.7101 51.7341 57.4511 50.9082 63.4667C50.3053 67.8587 49.8439 71.2181 49.4814 73.8581C49.6195 73.8103 49.757 73.7564 49.8978 73.7045C50.0365 73.6547 50.1793 73.6048 50.3215 73.553C50.7634 70.9958 51.3191 67.7745 52.0359 63.6216C52.9985 58.0446 54.3626 50.1429 56.4367 38.1233Z" fill="#D9B0A3"/>
<path fill-rule="evenodd" clip-rule="evenodd" d="M48.3618 37.3021C48.7181 36.8353 49.0779 36.3658 49.4477 35.9003C49.8189 35.4315 50.2001 34.966 50.5861 34.4951C49.6491 48.3807 49.055 57.1824 48.6461 63.2403C48.3476 67.6641 48.1186 71.0471 47.9394 73.7066C47.8141 73.6304 47.6902 73.5496 47.5622 73.4721C47.4369 73.396 47.3069 73.3165 47.1782 73.2377C47.2638 70.6436 47.3716 67.3778 47.5103 63.1649C47.6962 57.5084 47.9603 49.4949 48.3618 37.3021Z" fill="#FCD3C5"/>
<path fill-rule="evenodd" clip-rule="evenodd" d="M52.4124 37.5763C52.1214 37.0643 51.8277 36.5524 51.5239 36.0398C51.2194 35.5264 50.9041 35.0125 50.5862 34.4951C49.6491 48.3807 49.055 57.1824 48.6461 63.2403C48.3477 67.6641 48.1186 71.0471 47.9395 73.7066C48.0735 73.648 48.2069 73.586 48.3443 73.5254C48.479 73.4654 48.6178 73.4048 48.7566 73.3442C49.0206 70.7628 49.3534 67.5118 49.7818 63.3178C50.3571 57.6876 51.1722 49.7118 52.4124 37.5763Z" fill="#D9B0A3"/>
<path fill-rule="evenodd" clip-rule="evenodd" d="M2.19189 55.1318C2.60281 54.2473 3.04606 53.2921 3.52501 52.2608C4.04506 51.1399 4.61293 49.9152 5.23402 48.5787C8.37516 54.1679 11.5156 59.757 14.6521 65.3394C17.7892 70.9218 20.9283 76.5068 24.0634 82.0879C22.5982 81.9222 21.2577 81.7699 20.029 81.6325C18.898 81.5045 17.8518 81.3873 16.8838 81.2768C14.4379 76.9245 11.9885 72.5648 9.54122 68.209C7.09324 63.8547 4.64257 59.4929 2.19189 55.1318Z" fill="#FF3E28"/>
<path fill-rule="evenodd" clip-rule="evenodd" d="M5.02143 54.725C5.44918 54.4839 5.99079 54.6355 6.23127 55.0632C6.47176 55.491 6.31952 56.0339 5.89176 56.2737C5.46468 56.5135 4.9224 56.3613 4.68259 55.9342C4.4421 55.5065 4.59367 54.9649 5.02143 54.725Z" fill="#DECDBD"/>
<path fill-rule="evenodd" clip-rule="evenodd" d="M5.77344 55.1232L8.24028 53.7368L8.40936 54.0373L5.94252 55.4236L5.77344 55.1232Z" fill="#DECDBD"/>
<path fill-rule="evenodd" clip-rule="evenodd" d="M7.27568 56.184C7.70343 55.9441 8.2457 56.0957 8.48551 56.5235C8.726 56.9512 8.57376 57.4928 8.14668 57.734C7.71825 57.9738 7.17733 57.8222 6.93684 57.3945C6.69636 56.9667 6.8486 56.4251 7.27568 56.184Z" fill="#DECDBD"/>
<path fill-rule="evenodd" clip-rule="evenodd" d="M8.02832 56.5821L10.4952 55.1958L10.6642 55.4976L8.1974 56.8839L8.02832 56.5821Z" fill="#DECDBD"/>
<path fill-rule="evenodd" clip-rule="evenodd" d="M7.35025 58.8691C7.778 58.6293 8.3196 58.7809 8.56008 59.2086C8.80057 59.6364 8.64833 60.178 8.22058 60.4192C7.79282 60.659 7.25122 60.5074 7.01074 60.0797C6.77093 59.6519 6.92249 59.1103 7.35025 58.8691Z" fill="#DECDBD"/>
<path fill-rule="evenodd" clip-rule="evenodd" d="M8.10303 59.2673L10.5699 57.8823L10.739 58.1828L8.27211 59.5691L8.10303 59.2673Z" fill="#DECDBD"/>
<path fill-rule="evenodd" clip-rule="evenodd" d="M9.60492 60.3296C10.0327 60.0898 10.5743 60.2413 10.8148 60.6691C11.0553 61.0969 10.903 61.6385 10.4753 61.8783C10.0475 62.1194 9.5059 61.9679 9.26609 61.5401C9.0256 61.111 9.17717 60.5694 9.60492 60.3296Z" fill="#DECDBD"/>
<path fill-rule="evenodd" clip-rule="evenodd" d="M10.3574 60.7278L12.8243 59.3414L12.9933 59.6432L10.5265 61.0296L10.3574 60.7278Z" fill="#DECDBD"/>
<path fill-rule="evenodd" clip-rule="evenodd" d="M9.67984 63.0148C10.1076 62.775 10.6492 62.9265 10.8897 63.3543C11.1302 63.782 10.9779 64.3236 10.5502 64.5635C10.1224 64.8046 9.58081 64.6531 9.34033 64.2253C9.10052 63.7975 9.25208 63.2546 9.67984 63.0148Z" fill="#DECDBD"/>
<path fill-rule="evenodd" clip-rule="evenodd" d="M10.4321 63.4127L12.899 62.0264L13.068 62.3282L10.6012 63.7145L10.4321 63.4127Z" fill="#DECDBD"/>
<path fill-rule="evenodd" clip-rule="evenodd" d="M11.9347 64.475C12.3625 64.2339 12.9041 64.3875 13.1446 64.8152C13.3851 65.2423 13.2328 65.7839 12.8051 66.0237C12.3773 66.2635 11.8357 66.112 11.5952 65.6842C11.3554 65.2565 11.507 64.7149 11.9347 64.475Z" fill="#DECDBD"/>
<path fill-rule="evenodd" clip-rule="evenodd" d="M12.687 64.8738L15.1539 63.4868L15.3229 63.7886L12.8561 65.1736L12.687 64.8738Z" fill="#DECDBD"/>
<path fill-rule="evenodd" clip-rule="evenodd" d="M12.0094 67.1603C12.4372 66.9204 12.9788 67.0727 13.2193 67.4998C13.4598 67.9275 13.3075 68.4691 12.8798 68.7089C12.452 68.9501 11.9104 68.7985 11.6699 68.3694C11.4301 67.9417 11.5817 67.4001 12.0094 67.1603Z" fill="#DECDBD"/>
<path fill-rule="evenodd" clip-rule="evenodd" d="M12.7607 67.559L15.2283 66.172L15.3973 66.4738L12.9305 67.8608L12.7607 67.559Z" fill="#DECDBD"/>
<path fill-rule="evenodd" clip-rule="evenodd" d="M14.2641 68.6206C14.6919 68.3794 15.2335 68.531 15.474 68.9587C15.7138 69.3865 15.5622 69.9281 15.1344 70.1692C14.7067 70.4091 14.1651 70.2575 13.9253 69.8297C13.6848 69.402 13.8363 68.8604 14.2641 68.6206Z" fill="#DECDBD"/>
<path fill-rule="evenodd" clip-rule="evenodd" d="M15.0166 69.0195L17.4834 67.6332L17.6525 67.9329L15.1857 69.3193L15.0166 69.0195Z" fill="#DECDBD"/>
<path fill-rule="evenodd" clip-rule="evenodd" d="M14.3388 71.3057C14.7666 71.0665 15.3082 71.2181 15.5487 71.6459C15.7885 72.0716 15.6369 72.6146 15.2092 72.8544C14.7814 73.0942 14.2398 72.9426 13.9993 72.5149C13.7588 72.0871 13.9111 71.5455 14.3388 71.3057Z" fill="#DECDBD"/>
<path fill-rule="evenodd" clip-rule="evenodd" d="M15.0908 71.7046L17.5583 70.3182L17.7274 70.62L15.2606 72.0043L15.0908 71.7046Z" fill="#DECDBD"/>
<path fill-rule="evenodd" clip-rule="evenodd" d="M16.5934 72.7649C17.0212 72.5251 17.5628 72.6773 17.8032 73.1044C18.0437 73.5321 17.8915 74.0737 17.4637 74.3156C17.036 74.5547 16.4944 74.4031 16.2539 73.9754C16.0141 73.5476 16.1657 73.0067 16.5934 72.7649Z" fill="#DECDBD"/>
<path fill-rule="evenodd" clip-rule="evenodd" d="M17.3452 73.1636L19.8127 71.7786L19.9818 72.0783L17.515 73.4653L17.3452 73.1636Z" fill="#DECDBD"/>
<path fill-rule="evenodd" clip-rule="evenodd" d="M16.6684 75.4519C17.0962 75.2101 17.6378 75.3623 17.8783 75.7894C18.1181 76.2172 17.9665 76.7588 17.5388 77.0006C17.111 77.2398 16.5694 77.0882 16.3289 76.6604C16.0884 76.2327 16.2407 75.6911 16.6684 75.4519Z" fill="#DECDBD"/>
<path fill-rule="evenodd" clip-rule="evenodd" d="M17.4199 75.8481L19.8874 74.4637L20.0565 74.7635L17.5897 76.1499L17.4199 75.8481Z" fill="#DECDBD"/>
<path fill-rule="evenodd" clip-rule="evenodd" d="M18.9228 76.9103C19.3506 76.6712 19.8922 76.8227 20.1327 77.2505C20.3725 77.6782 20.2209 78.2192 19.7931 78.459C19.3654 78.7008 18.8238 78.5486 18.5833 78.1215C18.3428 77.6937 18.4951 77.1521 18.9228 76.9103Z" fill="#DECDBD"/>
<path fill-rule="evenodd" clip-rule="evenodd" d="M19.6743 77.3092L22.1418 75.9229L22.3109 76.2246L19.8441 77.611L19.6743 77.3092Z" fill="#DECDBD"/>
<path fill-rule="evenodd" clip-rule="evenodd" d="M7.83057 47.1183L16.2079 42.4124L35.0372 75.9208L26.6599 80.6288L7.83057 47.1183Z" fill="#33DCD9"/>
<path fill-rule="evenodd" clip-rule="evenodd" d="M7.83074 47.1183L5.23389 48.5787L24.0632 82.0879L26.6601 80.6288L7.83074 47.1183Z" fill="#169E94"/>
<path fill-rule="evenodd" clip-rule="evenodd" d="M16.018 51.8816C14.7637 51.5293 13.5114 51.1763 13.0601 50.374C12.8109 49.9294 12.9685 49.3669 13.4131 49.117C13.8119 48.8927 14.1238 48.9776 14.5455 49.2618L16.018 51.8816Z" fill="#F0740E"/>
<path fill-rule="evenodd" clip-rule="evenodd" d="M13.4114 53.3521C12.8961 53.3784 12.5815 53.2888 12.3558 52.8866C12.1059 52.4434 12.2642 51.8795 12.7082 51.631C13.5111 51.1796 14.7641 51.5292 16.0184 51.8815L16.0238 51.8917C15.6721 53.1453 15.3198 54.3976 14.5169 54.8489C14.0729 55.0975 13.5098 54.9405 13.2599 54.4959C13.0342 54.0938 13.1218 53.7798 13.4114 53.3521Z" fill="#F0740E"/>
<path fill-rule="evenodd" clip-rule="evenodd" d="M16.0235 51.8917C15.6719 53.1454 15.3216 54.3976 15.7729 55.2013C16.0228 55.6459 16.5853 55.8028 17.0292 55.5529C17.4287 55.3286 17.5183 55.018 17.4954 54.5115L16.0235 51.8917Z" fill="#F0740E"/>
<path fill-rule="evenodd" clip-rule="evenodd" d="M16.5628 52.8523C16.0307 53.1474 15.3591 52.9574 15.06 52.4266C14.7615 51.8951 14.9488 51.2208 15.4783 50.921L16.5628 52.8523Z" fill="#F6D200"/>
<path fill-rule="evenodd" clip-rule="evenodd" d="M16.0179 51.8815C16.3695 50.6272 16.7191 49.3736 16.2678 48.5699C16.0185 48.1267 15.4554 47.9684 15.0114 48.2183C14.6127 48.4426 14.5224 48.7532 14.5453 49.2617L16.0179 51.8815Z" fill="#FF3E28"/>
<path fill-rule="evenodd" clip-rule="evenodd" d="M18.6304 50.4192C18.9194 49.9928 19.0076 49.6775 18.782 49.2754C18.5321 48.8321 17.9696 48.6738 17.525 48.9237C16.722 49.3737 16.3697 50.6274 16.0181 51.8817L16.0235 51.8918C17.2778 52.2434 18.5307 52.5937 19.3337 52.1417C19.7776 51.8918 19.9352 51.3293 19.686 50.8847C19.4596 50.4825 19.1457 50.395 18.6304 50.4192Z" fill="#FF3E28"/>
<path fill-rule="evenodd" clip-rule="evenodd" d="M16.0234 51.8917C17.2777 52.2434 18.53 52.595 18.9807 53.3986C19.2306 53.8419 19.0723 54.4057 18.6284 54.6543C18.2296 54.8786 17.9177 54.7937 17.4953 54.5115L16.0234 51.8917Z" fill="#FF3E28"/>
<path fill-rule="evenodd" clip-rule="evenodd" d="M16.5631 52.8523C17.0925 52.5506 17.2798 51.8776 16.9807 51.3468C16.6823 50.8153 16.0107 50.6239 15.4785 50.921L16.5631 52.8523Z" fill="#F6A800"/>
<path fill-rule="evenodd" clip-rule="evenodd" d="M21.4314 61.5145C20.1771 61.1622 18.9248 60.8106 18.4741 60.0069C18.2242 59.5637 18.3819 58.9999 18.8265 58.7499C19.2252 58.5256 19.5371 58.6118 19.9595 58.8948L21.4314 61.5145Z" fill="#F0740E"/>
<path fill-rule="evenodd" clip-rule="evenodd" d="M18.8242 62.987C18.3089 63.0112 17.995 62.923 17.7686 62.5215C17.5194 62.0762 17.677 61.5144 18.1209 61.2645C18.9239 60.8125 20.1769 61.1621 21.4312 61.5144L21.4365 61.5245C21.0856 62.7781 20.7326 64.0304 19.9296 64.4818C19.4857 64.7324 18.9226 64.5734 18.6733 64.1301C18.447 63.7266 18.5352 63.4127 18.8242 62.987Z" fill="#F0740E"/>
<path fill-rule="evenodd" clip-rule="evenodd" d="M21.4366 61.5245C21.0849 62.7782 20.7353 64.0318 21.1867 64.8341C21.4359 65.2787 21.9991 65.4377 22.443 65.1878C22.8418 64.9634 22.932 64.6529 22.9091 64.1443L21.4366 61.5245Z" fill="#F0740E"/>
<path fill-rule="evenodd" clip-rule="evenodd" d="M21.9771 62.4851C21.4442 62.7802 20.7726 62.5902 20.4735 62.0594C20.1751 61.5279 20.3624 60.8556 20.8919 60.5538L21.9771 62.4851Z" fill="#F6D200"/>
<path fill-rule="evenodd" clip-rule="evenodd" d="M21.4313 61.5144C21.7829 60.2608 22.1332 59.0085 21.6818 58.2049C21.4319 57.7603 20.8694 57.6033 20.4255 57.8512C20.0261 58.0755 19.9365 58.3874 19.9594 58.8947L21.4313 61.5144Z" fill="#FF3E28"/>
<path fill-rule="evenodd" clip-rule="evenodd" d="M24.044 60.0534C24.3336 59.6263 24.4212 59.3124 24.1955 58.9102C23.9463 58.4656 23.3831 58.3067 22.9386 58.5566C22.1363 59.0086 21.7833 60.2609 21.4316 61.5145L21.437 61.5246C22.6913 61.8762 23.9443 62.2265 24.7472 61.7745C25.1912 61.5266 25.3488 60.9628 25.0996 60.5196C24.8739 60.116 24.5593 60.0278 24.044 60.0534Z" fill="#FF3E28"/>
<path fill-rule="evenodd" clip-rule="evenodd" d="M21.437 61.5245C22.6913 61.8762 23.9436 62.2298 24.3949 63.0321C24.6442 63.4767 24.4866 64.0392 24.042 64.2891C23.6432 64.5134 23.3313 64.4286 22.9096 64.1443L21.437 61.5245Z" fill="#FF3E28"/>
<path fill-rule="evenodd" clip-rule="evenodd" d="M21.9773 62.4852C22.5061 62.1834 22.6934 61.5125 22.395 60.9796C22.0959 60.4488 21.4243 60.2588 20.8921 60.5539L21.9773 62.4852Z" fill="#F6A800"/>
<path fill-rule="evenodd" clip-rule="evenodd" d="M26.8448 71.1488C25.5905 70.7972 24.3382 70.4435 23.8876 69.6419C23.6377 69.1973 23.796 68.6348 24.2399 68.3849C24.6387 68.1606 24.9512 68.2448 25.3729 68.5277L26.8448 71.1488Z" fill="#F0740E"/>
<path fill-rule="evenodd" clip-rule="evenodd" d="M24.2378 72.62C23.7224 72.6442 23.4085 72.556 23.1822 72.1545C22.9329 71.7092 23.0906 71.1474 23.5352 70.8975C24.3375 70.4475 25.5911 70.7971 26.8447 71.1487L26.8501 71.1575C26.4985 72.4132 26.1462 73.6648 25.3432 74.1154C24.8993 74.3653 24.3361 74.2084 24.0862 73.7631C23.8605 73.3616 23.9488 73.0477 24.2378 72.62Z" fill="#F0740E"/>
<path fill-rule="evenodd" clip-rule="evenodd" d="M26.8501 71.1576C26.4985 72.4132 26.1489 73.6649 26.6002 74.4685C26.8495 74.9118 27.4126 75.0707 27.8566 74.8208C28.2554 74.5965 28.3456 74.286 28.3227 73.7787L26.8501 71.1576Z" fill="#F0740E"/>
<path fill-rule="evenodd" clip-rule="evenodd" d="M27.3898 72.1181C26.8576 72.4145 26.186 72.2252 25.8876 71.6924C25.5885 71.1609 25.7757 70.4886 26.3052 70.1888L27.3898 72.1181Z" fill="#F6D200"/>
<path fill-rule="evenodd" clip-rule="evenodd" d="M26.8448 71.1488C27.1965 69.8938 27.5468 68.6415 27.0954 67.8379C26.8455 67.3946 26.283 67.2363 25.8391 67.4862C25.4396 67.7106 25.35 68.0211 25.3729 68.5277L26.8448 71.1488Z" fill="#FF3E28"/>
<path fill-rule="evenodd" clip-rule="evenodd" d="M29.4571 69.687C29.7467 69.2593 29.835 68.9454 29.6086 68.5432C29.3594 68.0999 28.7962 67.9416 28.3516 68.1916C27.5493 68.6415 27.1964 69.8938 26.8447 71.1488L26.8501 71.1576C28.1044 71.5112 29.3574 71.8595 30.1604 71.4095C30.6043 71.1596 30.7626 70.5971 30.5127 70.1525C30.287 69.7503 29.9724 69.6628 29.4571 69.687Z" fill="#FF3E28"/>
<path fill-rule="evenodd" clip-rule="evenodd" d="M26.8501 71.1576C28.1044 71.5112 29.3567 71.8629 29.808 72.6665C30.0573 73.1098 29.8996 73.6722 29.4557 73.9221C29.0562 74.1465 28.7444 74.0616 28.3227 73.7787L26.8501 71.1576Z" fill="#FF3E28"/>
<path fill-rule="evenodd" clip-rule="evenodd" d="M27.3897 72.1181C27.9192 71.8183 28.1071 71.1454 27.808 70.6146C27.5096 70.0831 26.8373 69.8918 26.3052 70.1888L27.3897 72.1181Z" fill="#F6A800"/>
<path fill-rule="evenodd" clip-rule="evenodd" d="M85.0864 46.8731L76.6794 42.1361L57.7295 75.7618L66.1357 80.5008L85.0864 46.8731Z" fill="#33DCD9"/>
<path fill-rule="evenodd" clip-rule="evenodd" d="M85.0864 46.8732L93.0716 51.3744L74.1216 85.0001L66.1357 80.5009L85.0864 46.8732Z" fill="#169E94"/>
<path fill-rule="evenodd" clip-rule="evenodd" d="M76.8589 51.6451C78.1186 51.2935 79.3769 50.9412 79.8309 50.1362C80.0822 49.6896 79.9246 49.1237 79.4786 48.8738C79.0785 48.6481 78.7646 48.7323 78.3409 49.0166L76.8589 51.6451Z" fill="#F0740E"/>
<path fill-rule="evenodd" clip-rule="evenodd" d="M79.4748 53.1265C79.9921 53.152 80.3081 53.0645 80.5351 52.661C80.7864 52.2143 80.6287 51.6485 80.1828 51.3986C79.3771 50.9432 78.1181 51.2935 76.8584 51.6451L76.853 51.6552C77.2047 52.9163 77.557 54.1733 78.3626 54.6266C78.8086 54.8786 79.3744 54.7196 79.625 54.275C79.8527 53.8715 79.7645 53.5556 79.4748 53.1265Z" fill="#F0740E"/>
<path fill-rule="evenodd" clip-rule="evenodd" d="M76.853 51.6553C77.2046 52.9163 77.5542 54.1747 77.1002 54.9803C76.8489 55.4249 76.2838 55.5839 75.8385 55.332C75.4377 55.1063 75.3481 54.7937 75.3717 54.2851L76.853 51.6553Z" fill="#F0740E"/>
<path fill-rule="evenodd" clip-rule="evenodd" d="M76.3101 52.6192C76.8442 52.9163 77.5192 52.7263 77.8197 52.1935C78.1201 51.6606 77.9328 50.9843 77.402 50.6812L76.3101 52.6192Z" fill="#F6D200"/>
<path fill-rule="evenodd" clip-rule="evenodd" d="M76.8585 51.6451C76.5075 50.3861 76.1572 49.1271 76.6113 48.3201C76.8625 47.8755 77.4277 47.7185 77.8737 47.9685C78.2738 48.1941 78.3641 48.5067 78.3405 49.0166L76.8585 51.6451Z" fill="#FF3E28"/>
<path fill-rule="evenodd" clip-rule="evenodd" d="M74.2365 50.1739C73.9468 49.7448 73.8586 49.4288 74.0863 49.0253C74.3375 48.5807 74.9027 48.4218 75.3487 48.6737C76.1543 49.1271 76.5073 50.3861 76.8583 51.6451L76.8529 51.6552C75.5932 52.0068 74.3342 52.3571 73.5285 51.9038C73.0826 51.6518 72.9249 51.086 73.1762 50.6414C73.4039 50.2359 73.7191 50.1483 74.2365 50.1739Z" fill="#FF3E28"/>
<path fill-rule="evenodd" clip-rule="evenodd" d="M76.8532 51.6553C75.5935 52.0069 74.3352 52.3592 73.8811 53.1662C73.6299 53.6108 73.7882 54.1767 74.2334 54.4286C74.6343 54.6543 74.9475 54.5681 75.3719 54.2851L76.8532 51.6553Z" fill="#FF3E28"/>
<path fill-rule="evenodd" clip-rule="evenodd" d="M76.3102 52.6192C75.7787 52.3161 75.5914 51.6398 75.8919 51.1069C76.193 50.5741 76.8673 50.3841 77.4021 50.6812L76.3102 52.6192Z" fill="#F6A800"/>
<path fill-rule="evenodd" clip-rule="evenodd" d="M71.4102 61.3124C72.6705 60.9608 73.9282 60.6091 74.3822 59.8035C74.6335 59.3569 74.4758 58.791 74.0299 58.5411C73.6298 58.3154 73.3159 58.3996 72.8921 58.6846L71.4102 61.3124Z" fill="#F0740E"/>
<path fill-rule="evenodd" clip-rule="evenodd" d="M74.0266 62.7937C74.5439 62.8199 74.8598 62.7317 75.0869 62.3282C75.3381 61.8816 75.1805 61.3157 74.7345 61.0658C73.9289 60.6104 72.6705 60.9607 71.4102 61.3124L71.4048 61.3231C71.7564 62.5835 72.1094 63.8405 72.9151 64.2938C73.3603 64.5458 73.9262 64.3888 74.1768 63.9422C74.4045 63.5387 74.3169 63.2234 74.0266 62.7937Z" fill="#F0740E"/>
<path fill-rule="evenodd" clip-rule="evenodd" d="M71.4047 61.3232C71.7564 62.5836 72.1067 63.8426 71.6526 64.6476C71.4014 65.0929 70.8355 65.2512 70.3902 64.9992C69.9901 64.7736 69.8998 64.4617 69.9234 63.9531L71.4047 61.3232Z" fill="#F0740E"/>
<path fill-rule="evenodd" clip-rule="evenodd" d="M70.8618 62.2872C71.396 62.5836 72.071 62.3937 72.3714 61.8608C72.6719 61.328 72.4846 60.6523 71.9538 60.3485L70.8618 62.2872Z" fill="#F6D200"/>
<path fill-rule="evenodd" clip-rule="evenodd" d="M71.4102 61.3124C71.0593 60.0534 70.709 58.7951 71.163 57.9894C71.4143 57.5428 71.9801 57.3858 72.4254 57.6357C72.8256 57.8621 72.9158 58.174 72.8922 58.6846L71.4102 61.3124Z" fill="#FF3E28"/>
<path fill-rule="evenodd" clip-rule="evenodd" d="M68.7883 59.8419C68.4986 59.4122 68.4111 59.0983 68.6381 58.6934C68.8894 58.2481 69.4545 58.0898 69.9005 58.3411C70.7061 58.7951 71.0591 60.0535 71.4101 61.3125L71.4047 61.3232C70.145 61.6749 68.886 62.0245 68.0803 61.5711C67.635 61.3192 67.4774 60.754 67.728 60.3088C67.9557 59.9053 68.271 59.8177 68.7883 59.8419Z" fill="#FF3E28"/>
<path fill-rule="evenodd" clip-rule="evenodd" d="M71.4049 61.3232C70.1452 61.6749 68.8876 62.0265 68.4335 62.8335C68.1823 63.2788 68.3399 63.844 68.7858 64.0959C69.186 64.3216 69.4999 64.2374 69.9236 63.9531L71.4049 61.3232Z" fill="#FF3E28"/>
<path fill-rule="evenodd" clip-rule="evenodd" d="M70.8622 62.2872C70.3307 61.9834 70.1434 61.3091 70.4446 60.7742C70.745 60.2414 71.42 60.0521 71.9542 60.3485L70.8622 62.2872Z" fill="#F6A800"/>
<path fill-rule="evenodd" clip-rule="evenodd" d="M65.9624 70.9804C67.2221 70.628 68.4798 70.2764 68.9345 69.4714C69.1857 69.0248 69.0274 68.459 68.5821 68.209C68.1813 67.9827 67.8674 68.0676 67.4437 68.3518L65.9624 70.9804Z" fill="#F0740E"/>
<path fill-rule="evenodd" clip-rule="evenodd" d="M68.5783 72.4616C69.0957 72.4872 69.4116 72.399 69.6393 71.9955C69.8905 71.5489 69.7322 70.9837 69.287 70.7331C68.4813 70.2797 67.2223 70.628 65.9626 70.9803L65.9565 70.9904C66.3082 72.2508 66.6612 73.5085 67.4668 73.9632C67.9121 74.2138 68.4779 74.0568 68.7292 73.6102C68.9569 73.2067 68.8686 72.8907 68.5783 72.4616Z" fill="#F0740E"/>
<path fill-rule="evenodd" clip-rule="evenodd" d="M65.9565 70.9905C66.3081 72.2508 66.6584 73.5099 66.2044 74.3155C65.9531 74.7601 65.3879 74.9191 64.942 74.6672C64.5418 74.4428 64.4516 74.1289 64.4751 73.6203L65.9565 70.9905Z" fill="#F0740E"/>
<path fill-rule="evenodd" clip-rule="evenodd" d="M65.4136 71.9544C65.9478 72.2528 66.6227 72.0628 66.9232 71.5286C67.2243 70.9958 67.037 70.3195 66.5055 70.0177L65.4136 71.9544Z" fill="#F6D200"/>
<path fill-rule="evenodd" clip-rule="evenodd" d="M65.9622 70.9804C65.6105 69.7214 65.2609 68.4623 65.7149 67.6567C65.9655 67.2101 66.5314 67.0531 66.9767 67.3037C67.3775 67.5294 67.4671 67.8412 67.4435 68.3519L65.9622 70.9804Z" fill="#FF3E28"/>
<path fill-rule="evenodd" clip-rule="evenodd" d="M63.3405 69.5106C63.0508 69.0815 62.9626 68.7642 63.1896 68.3607C63.4409 67.9154 64.0067 67.7571 64.452 68.009C65.2577 68.4624 65.6106 69.7214 65.9623 70.9804L65.9562 70.9905C64.6965 71.3422 63.4382 71.6925 62.6325 71.2391C62.1866 70.9872 62.0289 70.4213 62.2802 69.9767C62.5072 69.5732 62.8232 69.485 63.3405 69.5106Z" fill="#FF3E28"/>
<path fill-rule="evenodd" clip-rule="evenodd" d="M65.9565 70.9905C64.6968 71.3421 63.4392 71.6958 62.9851 72.5008C62.7339 72.946 62.8922 73.5119 63.3374 73.7631C63.7376 73.9895 64.0515 73.9046 64.4752 73.6203L65.9565 70.9905Z" fill="#FF3E28"/>
<path fill-rule="evenodd" clip-rule="evenodd" d="M65.4135 71.9544C64.8827 71.6506 64.6954 70.9763 64.9959 70.4421C65.2963 69.9092 65.9713 69.7193 66.5055 70.0177L65.4135 71.9544Z" fill="#F6A800"/>
<path fill-rule="evenodd" clip-rule="evenodd" d="M83.0774 53.385L88.4577 56.4164L76.0453 78.4421L70.665 75.4101L83.0774 53.385Z" fill="#FF3E28"/>
<path fill-rule="evenodd" clip-rule="evenodd" d="M86.2878 56.8274C86.6589 57.0355 86.7903 57.5064 86.5808 57.8789C86.372 58.2501 85.9011 58.3808 85.5293 58.1719C85.1581 57.9638 85.0267 57.4929 85.2356 57.1204C85.4451 56.7492 85.9159 56.6185 86.2878 56.8274ZM84.8219 59.4276C85.1938 59.6364 85.3252 60.1073 85.1157 60.4798C84.9062 60.8503 84.4353 60.9816 84.0641 60.7728C83.6929 60.564 83.5609 60.0918 83.7704 59.7206C83.9799 59.3501 84.4508 59.2188 84.8219 59.4276ZM82.3841 58.0534C82.7552 58.2635 82.8866 58.7344 82.6778 59.1049C82.4683 59.4774 81.9974 59.6088 81.6262 59.3986C81.2544 59.1898 81.123 58.7189 81.3325 58.3464C81.5414 57.9759 82.0129 57.8445 82.3841 58.0534ZM83.3568 62.0285C83.7286 62.2366 83.8593 62.7075 83.6505 63.0787C83.441 63.4512 82.9701 63.5819 82.599 63.373C82.2271 63.1629 82.0958 62.692 82.3053 62.3215C82.5148 61.949 82.9856 61.8176 83.3568 62.0285ZM80.9189 60.6536C81.2901 60.8624 81.4221 61.3333 81.2126 61.7058C81.0031 62.0763 80.5323 62.2077 80.1611 61.9988C79.7892 61.79 79.6579 61.3191 79.8674 60.9466C80.0769 60.5761 80.5471 60.4454 80.9189 60.6536ZM81.8916 64.6273C82.2628 64.8375 82.3948 65.3084 82.1853 65.6789C81.9758 66.0501 81.505 66.1828 81.1338 65.9719C80.762 65.7638 80.6306 65.2929 80.8401 64.9204C81.0496 64.5492 81.5198 64.4185 81.8916 64.6273ZM79.4538 63.2545C79.8249 63.4633 79.9563 63.9335 79.7475 64.3047C79.538 64.6772 79.0671 64.8079 78.6953 64.5997C78.3241 64.3889 78.1927 63.918 78.4022 63.5475C78.6117 63.177 79.0826 63.0436 79.4538 63.2545ZM80.4265 67.2276C80.7977 67.4364 80.929 67.9073 80.7202 68.2798C80.5107 68.6503 80.0398 68.7816 79.6687 68.5728C79.2968 68.364 79.1655 67.8931 79.375 67.5206C79.5845 67.1501 80.0546 67.0187 80.4265 67.2276ZM77.9886 65.8534C78.3598 66.0635 78.4911 66.5344 78.2823 66.9049C78.0728 67.2761 77.602 67.4088 77.2301 67.1979C76.8589 66.9898 76.7276 66.5189 76.9371 66.1477C77.1459 65.7752 77.6168 65.6445 77.9886 65.8534ZM78.9613 69.8278C79.3325 70.0366 79.4639 70.5075 79.255 70.8786C79.0455 71.2505 78.5747 71.3819 78.2035 71.173C77.8317 70.9629 77.7003 70.492 77.9098 70.1215C78.1186 69.7503 78.5902 69.6176 78.9613 69.8278ZM76.5235 68.4536C76.8946 68.6624 77.026 69.1333 76.8165 69.5058C76.6077 69.8763 76.1368 70.0076 75.765 69.7988C75.3938 69.59 75.2624 69.1191 75.4719 68.7466C75.6807 68.3761 76.1516 68.2447 76.5235 68.4536ZM77.4962 72.4267C77.8674 72.6375 77.9987 73.1084 77.7892 73.4789C77.5804 73.8514 77.1095 73.9827 76.7377 73.7719C76.3665 73.5631 76.2351 73.0929 76.4446 72.7217C76.6535 72.3492 77.1243 72.2185 77.4962 72.4267ZM75.0576 71.0545C75.4295 71.2626 75.5608 71.7335 75.3513 72.1047C75.1425 72.4772 74.6716 72.6079 74.2998 72.399C73.9286 72.1889 73.7973 71.718 74.0068 71.3475C74.2156 70.975 74.6865 70.8436 75.0576 71.0545ZM76.0304 75.0275C76.4022 75.2364 76.5336 75.7086 76.3241 76.0791C76.1146 76.4503 75.6444 76.5809 75.2725 76.3728C74.9014 76.164 74.77 75.6931 74.9788 75.3206C75.1883 74.9501 75.6592 74.8187 76.0304 75.0275ZM73.5925 73.6533C73.9643 73.8635 74.0957 74.3344 73.8862 74.7049C73.6767 75.076 73.2058 75.2088 72.8347 74.9979C72.4635 74.7898 72.3321 74.3189 72.5416 73.9477C72.7504 73.5752 73.2213 73.4445 73.5925 73.6533ZM83.8492 55.4525C84.2211 55.6633 84.3524 56.1342 84.1429 56.5047C83.9334 56.8772 83.4632 57.0079 83.0914 56.7977C82.7202 56.5889 82.5889 56.118 82.7977 55.7462C83.0072 55.375 83.4781 55.2443 83.8492 55.4525Z" fill="#DECDBD"/>
<path fill-rule="evenodd" clip-rule="evenodd" d="M39.5294 17.0743C38.9205 20.111 37.7834 22.0821 36.1195 22.9854C32.3788 22.8857 28.178 21.0333 28.981 17.3013C30.9184 8.30161 39.5456 11.8799 39.5294 17.0743Z" fill="#876253"/>
<path fill-rule="evenodd" clip-rule="evenodd" d="M46.6251 40.8151C39.4119 41.2739 31.8456 38.6629 29.7688 32.9599C28.9079 30.5955 30.5671 27.3398 31.8665 23.9184C34.8076 16.1791 40.7591 12.4936 46.6251 12.7833V40.8151Z" fill="#876253"/>
<path fill-rule="evenodd" clip-rule="evenodd" d="M40.1507 18.6021C41.2299 18.5556 42.1629 19.9157 42.2356 21.6388C42.3084 23.3613 41.4933 24.7948 40.4141 24.8413C39.335 24.8857 38.402 23.527 38.3292 21.8025C38.2565 20.0814 39.0722 18.6466 40.1507 18.6021Z" fill="white"/>
<path fill-rule="evenodd" clip-rule="evenodd" d="M40.2332 20.5543C41.0422 20.5213 41.7381 21.4523 41.7886 22.6358C41.8384 23.8201 41.2227 24.807 40.4137 24.8413C39.6047 24.8757 38.9081 23.9427 38.8583 22.7598C38.8084 21.5749 39.4241 20.5887 40.2332 20.5543Z" fill="#424347"/>
<path fill-rule="evenodd" clip-rule="evenodd" d="M40.2121 21.9959C40.5906 21.9804 40.9174 22.4162 40.9403 22.97C40.9638 23.525 40.6755 23.9878 40.2969 24.0033C39.9177 24.0188 39.5916 23.5823 39.5687 23.0286C39.5452 22.4735 39.8335 22.0127 40.2121 21.9959Z" fill="#1F1E1C"/>
<path fill-rule="evenodd" clip-rule="evenodd" d="M46.625 43.4241C41.3694 43.3965 40.499 41.4342 40.499 39.515C40.499 37.6006 43.232 36.0472 46.625 36.0142V43.4241Z" fill="#876253"/>
<path fill-rule="evenodd" clip-rule="evenodd" d="M46.6253 41.1358C44.8766 41.0913 43.4761 39.9616 43.4761 38.5753C43.4767 37.1883 44.8766 36.0593 46.6253 36.0142V41.1358Z" fill="#FF3E28"/>
<path fill-rule="evenodd" clip-rule="evenodd" d="M41.5053 38.225C41.4427 39.5528 41.8138 40.5376 42.6202 41.1789C42.3352 40.6218 42.3332 39.7239 42.6135 38.4817C41.8347 38.2351 41.4656 38.1489 41.5053 38.225Z" fill="white"/>
<path fill-rule="evenodd" clip-rule="evenodd" d="M46.6254 37.5919C43.625 42.762 31.9995 37.0092 38.9527 26.1812C41.7772 21.7818 44.2043 19.552 46.6254 19.4867V37.5919Z" fill="#CFB49B"/>
<path fill-rule="evenodd" clip-rule="evenodd" d="M33.4499 20.5954C32.3175 20.0416 31.5563 19.112 31.8406 17.791C32.7486 13.5734 36.1026 13.9561 37.528 15.8099C35.9935 17.0345 34.6051 18.6277 33.4499 20.5954Z" fill="#A87E6A"/>
<path fill-rule="evenodd" clip-rule="evenodd" d="M46.625 37.5938C43.8854 42.3119 33.9574 37.9246 37.5465 28.8831C39.9877 26.8642 43.1572 25.6342 46.625 25.6106V37.5938Z" fill="#DECDBD"/>
<path fill-rule="evenodd" clip-rule="evenodd" d="M46.6251 26.8763C42.4627 26.9053 38.3657 28.7315 41.8679 32.3617C43.6187 34.1758 45.1243 35.1034 46.6251 35.1465V26.8763Z" fill="#2B2A28"/>
<path fill-rule="evenodd" clip-rule="evenodd" d="M44.4602 27.8019C45.4269 27.8019 46.2103 28.2815 46.2103 28.8709C46.2103 29.461 45.4269 29.9386 44.4602 29.9386C43.4929 29.9386 42.7095 29.461 42.7095 28.8709C42.7095 28.2815 43.4929 27.8019 44.4602 27.8019Z" fill="#E6E6E6"/>
<path fill-rule="evenodd" clip-rule="evenodd" d="M53.7207 17.0743C54.3304 20.111 55.4668 22.0821 57.1307 22.9854C60.8713 22.8857 65.0721 21.0333 64.2691 17.3013C62.3324 8.30161 53.7046 11.8799 53.7207 17.0743Z" fill="#6B4636"/>
<path fill-rule="evenodd" clip-rule="evenodd" d="M46.625 40.8151C53.8376 41.2739 61.4038 38.6629 63.4806 32.9599C64.3415 30.5955 62.683 27.3398 61.3829 23.9184C58.4418 16.1791 52.491 12.4936 46.625 12.7833V40.8151Z" fill="#66463A"/>
<path fill-rule="evenodd" clip-rule="evenodd" d="M53.0997 18.6021C52.0205 18.5556 51.0875 19.9157 51.0148 21.6388C50.942 23.3613 51.7578 24.7948 52.8363 24.8413C53.9154 24.8857 54.8484 23.527 54.9212 21.8025C54.9939 20.0814 54.1781 18.6466 53.0997 18.6021Z" fill="white"/>
<path fill-rule="evenodd" clip-rule="evenodd" d="M53.0166 20.5543C52.2082 20.5213 51.5117 21.4523 51.4618 22.6358C51.412 23.8201 52.027 24.807 52.836 24.8413C53.6451 24.8757 54.3416 23.9427 54.3914 22.7598C54.4413 21.5749 53.8256 20.5887 53.0166 20.5543Z" fill="#424347"/>
<path fill-rule="evenodd" clip-rule="evenodd" d="M53.0376 21.9959C52.6591 21.9804 52.333 22.4162 52.3095 22.97C52.2859 23.525 52.5742 23.9878 52.9534 24.0033C53.332 24.0188 53.6581 23.5823 53.6816 23.0286C53.7045 22.4735 53.4169 22.0127 53.0376 21.9959Z" fill="#1F1E1C"/>
<path fill-rule="evenodd" clip-rule="evenodd" d="M46.625 43.4241C51.88 43.3965 52.7503 41.4342 52.7503 39.515C52.7503 37.6006 50.0174 36.0472 46.625 36.0142V43.4241Z" fill="#66463A"/>
<path fill-rule="evenodd" clip-rule="evenodd" d="M46.625 41.1358C48.3737 41.0913 49.7736 39.9616 49.7736 38.5753C49.7736 37.1883 48.3731 36.0593 46.625 36.0142V41.1358Z" fill="#B52C1D"/>
<path fill-rule="evenodd" clip-rule="evenodd" d="M51.7448 38.225C51.8074 39.5528 51.4362 40.5376 50.6299 41.1789C50.9148 40.6218 50.9169 39.7239 50.6366 38.4817C51.416 38.2351 51.7852 38.1489 51.7448 38.225Z" fill="white"/>
<path fill-rule="evenodd" clip-rule="evenodd" d="M46.625 37.5919C49.6247 42.762 61.2502 37.0092 54.297 26.1812C51.4724 21.7818 49.0454 19.552 46.625 19.4867V37.5919Z" fill="#B5987D"/>
<path fill-rule="evenodd" clip-rule="evenodd" d="M59.7999 20.5954C60.9329 20.0416 61.6934 19.112 61.4092 17.791C60.5011 13.5734 57.1471 13.9561 55.7217 15.8099C57.2562 17.0345 58.6446 18.6277 59.7999 20.5954Z" fill="#9E735F"/>
<path fill-rule="evenodd" clip-rule="evenodd" d="M46.625 37.5938C49.3647 42.3119 59.2927 37.9246 55.7029 28.8831C53.2616 26.8642 50.0922 25.6342 46.625 25.6106V37.5938Z" fill="#BDA691"/>
<path fill-rule="evenodd" clip-rule="evenodd" d="M46.625 26.8763C50.7874 26.9053 54.8838 28.7315 51.3815 32.3617C49.6308 34.1758 48.1252 35.1034 46.625 35.1465V26.8763Z" fill="#1A1916"/>
<path fill-rule="evenodd" clip-rule="evenodd" d="M65.8938 7.372C66.3216 7.25479 66.775 7.14431 67.2546 7.03923C69.7443 5.79907 70.2657 3.48514 67.6561 1.25677C61.652 -3.86823 47.377 8.00656 58.3087 13.0992L59.2545 12.3852C59.8615 9.46026 62.5749 7.8752 65.8938 7.372Z" fill="#D4BE96"/>
<path fill-rule="evenodd" clip-rule="evenodd" d="M75.8462 11.5398C75.8583 11.6745 75.9782 11.7762 76.1136 11.7641C76.249 11.752 76.3501 11.6314 76.3379 11.4967C76.1298 9.05678 75.3093 7.08236 73.8765 5.57006C72.4477 4.06449 70.4154 3.02642 67.7801 2.4572C67.6467 2.42756 67.5154 2.51244 67.4864 2.64514C67.4581 2.77987 67.543 2.91056 67.6757 2.93817C70.2106 3.48651 72.1574 4.47675 73.5168 5.90957C74.8714 7.33902 75.6481 9.21576 75.8462 11.5398Z" fill="#66463A"/>
<path fill-rule="evenodd" clip-rule="evenodd" d="M46.6738 4.12303V19.3175C52.1444 19.3175 59.5658 19.6469 59.5658 11.7209C59.5658 3.79363 52.1444 4.12303 46.6738 4.12303Z" fill="#BDA691"/>
<path fill-rule="evenodd" clip-rule="evenodd" d="M27.3377 7.372C26.9099 7.25479 26.4566 7.14431 25.9769 7.03923C23.4872 5.79907 22.9665 3.48514 25.5754 1.25677C31.5789 -3.86823 45.8545 8.00656 34.9228 13.0992L33.9777 12.3852C33.37 9.46026 30.6573 7.8752 27.3377 7.372Z" fill="#D4BE96"/>
<path fill-rule="evenodd" clip-rule="evenodd" d="M17.3857 11.5398C17.3736 11.6745 17.2537 11.7762 17.1183 11.7641C16.9829 11.752 16.8825 11.6314 16.894 11.4967C17.1021 9.05678 17.9226 7.08236 19.3554 5.57006C20.7842 4.06449 22.8172 3.02642 25.4518 2.4572C25.5852 2.42756 25.7165 2.51244 25.7455 2.64514C25.7738 2.77987 25.6889 2.91056 25.5562 2.93817C23.0213 3.48651 21.0745 4.47675 19.7151 5.90957C18.3605 7.33902 17.5838 9.21576 17.3857 11.5398Z" fill="#66463A"/>
<path fill-rule="evenodd" clip-rule="evenodd" d="M46.6737 4.12303V19.3175C41.2031 19.3175 33.7817 19.6469 33.7817 11.7209C33.7817 3.79363 41.2031 4.12303 46.6737 4.12303Z" fill="#DECDBD"/>
<path fill-rule="evenodd" clip-rule="evenodd" d="M46.7056 7.71692L47.6225 10.559L50.6093 10.5536L48.1897 12.3043L49.1179 15.1424L46.7056 13.3835L44.292 15.1424L45.221 12.3043L42.8013 10.5536L45.7875 10.559L46.7056 7.71692Z" fill="#FF3E28"/>
<path fill-rule="evenodd" clip-rule="evenodd" d="M79.6851 75.1272C91.9128 74.3687 96.8694 64.9203 90.1223 56.6063L79.6851 75.1272Z" fill="#66463A"/>
<path fill-rule="evenodd" clip-rule="evenodd" d="M88.144 60.1174L81.9189 71.1643C86.7132 68.8915 89.0298 64.6719 88.144 60.1174Z" fill="#9E735F"/>
<path fill-rule="evenodd" clip-rule="evenodd" d="M89.9008 64.903C90.0935 64.8774 90.2471 64.715 90.2437 64.5392C90.241 64.3634 90.0827 64.2408 89.8901 64.2664C88.6836 64.42 87.6442 64.234 86.7711 63.7079C85.884 63.1731 85.1598 62.2832 84.5973 61.0383C84.5273 60.8834 84.3252 60.8248 84.146 60.909C83.9661 60.9952 83.8772 61.1899 83.9473 61.3469C84.5556 62.6921 85.3531 63.6628 86.3407 64.2596C87.3417 64.8632 88.5293 65.0774 89.9008 64.903Z" fill="#2B2A28"/>
<path fill-rule="evenodd" clip-rule="evenodd" d="M89.0144 66.9016C89.203 66.8261 89.3081 66.6294 89.2495 66.4637C89.1908 66.298 88.9894 66.2239 88.8008 66.3C87.6152 66.7722 86.4916 66.8773 85.432 66.6139C84.3535 66.3465 83.3289 65.6964 82.3582 64.6665C82.237 64.5371 82.0113 64.5371 81.855 64.6665C81.698 64.7958 81.6698 65.0066 81.791 65.136C82.8412 66.2495 83.9662 66.9555 85.1652 67.2532C86.3825 67.557 87.6657 67.4398 89.0144 66.9016Z" fill="#2B2A28"/>
<path fill-rule="evenodd" clip-rule="evenodd" d="M88.7328 69.1832C88.9066 69.076 88.9706 68.8692 88.8763 68.721C88.7813 68.5728 88.5637 68.5398 88.3906 68.6469C87.2993 69.3145 86.1919 69.6197 85.0689 69.5611C83.9278 69.5004 82.7584 69.068 81.562 68.2603C81.4118 68.1586 81.1854 68.2003 81.0561 68.3519C80.9261 68.5035 80.9422 68.7089 81.0925 68.8106C82.3865 69.683 83.6684 70.1539 84.9389 70.2212C86.2276 70.2886 87.492 69.9417 88.7328 69.1832Z" fill="#2B2A28"/>
<path fill-rule="evenodd" clip-rule="evenodd" d="M13.4704 75.1272C1.24267 74.3687 -3.71392 64.9203 3.03318 56.6063L13.4704 75.1272Z" fill="#66463A"/>
<path fill-rule="evenodd" clip-rule="evenodd" d="M5.01191 60.1174L11.2369 71.1643C6.4427 68.8915 4.12608 64.6719 5.01191 60.1174Z" fill="#9E735F"/>
<path fill-rule="evenodd" clip-rule="evenodd" d="M3.25472 64.903C3.06206 64.8774 2.90847 64.715 2.91117 64.5392C2.91454 64.3634 3.07284 64.2408 3.2655 64.2664C4.47197 64.42 5.51138 64.234 6.38441 63.7079C7.27158 63.1731 7.99574 62.2832 8.55822 61.0383C8.62828 60.8834 8.83037 60.8248 9.01022 60.909C9.18941 60.9952 9.27766 61.1899 9.20827 61.3469C8.59998 62.6921 7.8024 63.6628 6.81486 64.2596C5.81384 64.8632 4.62623 65.0774 3.25472 64.903Z" fill="#2B2A28"/>
<path fill-rule="evenodd" clip-rule="evenodd" d="M4.14146 66.9016C3.95285 66.8261 3.84776 66.6294 3.90637 66.4637C3.96497 66.298 4.16571 66.2239 4.35501 66.3C5.5406 66.7722 6.66422 66.8773 7.72384 66.6139C8.80233 66.3465 9.82692 65.6964 10.7976 64.6665C10.9189 64.5371 11.1445 64.5371 11.3008 64.6665C11.4578 64.7958 11.4861 65.0066 11.3648 65.136C10.3146 66.2495 9.19034 66.9555 7.9906 67.2532C6.77335 67.557 5.49008 67.4398 4.14146 66.9016Z" fill="#2B2A28"/>
<path fill-rule="evenodd" clip-rule="evenodd" d="M4.42284 69.1832C4.24904 69.076 4.18505 68.8692 4.27936 68.721C4.37366 68.5728 4.59192 68.5398 4.76505 68.6469C5.85633 69.3145 6.96378 69.6197 8.08673 69.5611C9.22786 69.5004 10.3973 69.068 11.5937 68.2603C11.7439 68.1586 11.9702 68.2003 12.0996 68.3519C12.2296 68.5035 12.2127 68.7089 12.0632 68.8106C10.7691 69.683 9.48721 70.1539 8.21674 70.2212C6.92808 70.2886 5.663 69.9417 4.42284 69.1832Z" fill="#2B2A28"/>
</svg>
