<svg width="81" height="89" viewBox="0 0 81 89" fill="none" xmlns="http://www.w3.org/2000/svg">
<path fill-rule="evenodd" clip-rule="evenodd" d="M17.2441 23.0697H40.1794V66.0897H30.5702C23.2406 66.0897 17.2441 60.0917 17.2441 52.7621V23.0697Z" fill="#F6D200"/>
<path fill-rule="evenodd" clip-rule="evenodd" d="M32.4409 66.0896H40.1797V68.367H32.4409V66.0896Z" fill="#F0740E"/>
<path fill-rule="evenodd" clip-rule="evenodd" d="M33.9557 9.49065H40.1794V2.63123H30.5811V6.06211C30.5811 7.94742 32.0993 9.49065 33.9557 9.49065Z" fill="#F6D200"/>
<path fill-rule="evenodd" clip-rule="evenodd" d="M29.5186 75.0905H40.1798V68.3092H29.5186V75.0905Z" fill="#F6D200"/>
<path fill-rule="evenodd" clip-rule="evenodd" d="M32.4409 75.0906H40.1797V78.3614H32.4409V75.0906Z" fill="#F0740E"/>
<path fill-rule="evenodd" clip-rule="evenodd" d="M40.1561 40.6044H40.1795V57.9064H40.1561C35.3788 57.9064 31.5059 54.0335 31.5059 49.2554C31.5059 44.4765 35.3788 40.6044 40.1561 40.6044Z" fill="#33DCD9"/>
<path fill-rule="evenodd" clip-rule="evenodd" d="M40.1558 48.5533H40.1792V59.192H37.7012V51.0088C37.7012 49.6592 38.8055 48.5533 40.1558 48.5533Z" fill="#F0740E"/>
<path fill-rule="evenodd" clip-rule="evenodd" d="M32.8569 9.15625H40.1795V12.823H32.8569V9.15625Z" fill="#33DCD9"/>
<path fill-rule="evenodd" clip-rule="evenodd" d="M30.9153 0H40.1794V2.55306H30.9153C30.2132 2.55306 29.6392 1.97903 29.6392 1.27692C29.6392 0.573247 30.2132 0 30.9153 0Z" fill="#F0740E"/>
<path fill-rule="evenodd" clip-rule="evenodd" d="M32.8342 12.7816C27.8585 14.6529 22.9133 17.794 17.3003 19.7808V21.6661H40.1794V12.7816H32.8342Z" fill="#F6D200"/>
<path fill-rule="evenodd" clip-rule="evenodd" d="M39.4839 43.1473H40.1797V50.1028H39.4839V43.1473Z" fill="#F0740E"/>
<path fill-rule="evenodd" clip-rule="evenodd" d="M23.0541 15.2105V19.2709H21.2477V15.2105C20.405 14.8567 19.813 14.025 19.813 13.0534C19.813 11.7617 20.8595 10.7159 22.1513 10.7159C23.4422 10.7159 24.4888 11.7617 24.4888 13.0534C24.4888 14.025 23.8968 14.8567 23.0541 15.2105Z" fill="#F0740E"/>
<path fill-rule="evenodd" clip-rule="evenodd" d="M17.1273 19.7972H40.1798V23.4195H17.1273C16.1308 23.4195 15.3154 22.6041 15.3154 21.6083C15.3154 20.611 16.1308 19.7972 17.1273 19.7972Z" fill="#F0740E"/>
<path fill-rule="evenodd" clip-rule="evenodd" d="M27.5258 78.2457C31.7314 78.2457 35.9425 78.2457 40.1505 78.2457H40.1793V84.5093L40.1559 84.5116C38.0988 84.5116 37.7622 82.7544 35.0662 82.7544C32.3695 82.7544 29.2877 85.341 29.2877 88.5321C29.2877 88.6899 29.2939 88.8461 29.3072 88.9999H24.2612C24.9165 86.8405 25.521 84.849 26.0794 83.0082C26.5964 81.3064 27.0775 79.721 27.5258 78.2457Z" fill="#F6D200"/>
<path fill-rule="evenodd" clip-rule="evenodd" d="M38.0761 4.06665C38.943 4.06665 39.6459 4.78204 39.6459 5.66222C39.6459 6.54396 38.943 7.25701 38.0761 7.25701C37.2092 7.25701 36.5063 6.54396 36.5063 5.66222C36.5063 4.78204 37.2092 4.06665 38.0761 4.06665Z" fill="#33DCD9"/>
<path fill-rule="evenodd" clip-rule="evenodd" d="M33.9165 4.06665C34.7834 4.06665 35.4855 4.78204 35.4855 5.66222C35.4855 6.54396 34.7834 7.25701 33.9165 7.25701C33.0496 7.25701 32.3467 6.54396 32.3467 5.66222C32.3467 4.78204 33.0496 4.06665 33.9165 4.06665Z" fill="#33DCD9"/>
<path fill-rule="evenodd" clip-rule="evenodd" d="M37.6913 70.1499C38.5472 70.1499 39.2408 70.8442 39.2408 71.6994C39.2408 72.5554 38.5472 73.2489 37.6913 73.2489C36.8361 73.2489 36.1426 72.5554 36.1426 71.6994C36.1426 70.8442 36.8361 70.1499 37.6913 70.1499Z" fill="#F0740E"/>
<path fill-rule="evenodd" clip-rule="evenodd" d="M32.7624 70.1499C33.6175 70.1499 34.3111 70.8442 34.3111 71.6994C34.3111 72.5554 33.6175 73.2489 32.7624 73.2489C31.9072 73.2489 31.2129 72.5554 31.2129 71.6994C31.2129 70.8442 31.9072 70.1499 32.7624 70.1499Z" fill="#F0740E"/>
<path fill-rule="evenodd" clip-rule="evenodd" d="M4.04709 30.8773C3.61989 31.2295 3.07241 31.4396 2.47652 31.4396C1.10901 31.4396 0 30.3313 0 28.9638C0 27.8142 0.78177 26.8489 1.84235 26.5685L1.84626 26.5607C5.21388 25.3111 9.91388 26.6388 12.0999 30.0314C13.1425 31.6489 14.8005 32.611 17.2442 32.8086V42.7514C8.90562 39.0745 10.9682 31.1834 7.50765 29.8221C6.36116 29.3723 5.04675 30.2735 4.04709 30.8773Z" fill="#F6D200"/>
<path fill-rule="evenodd" clip-rule="evenodd" d="M2.47643 27.6907C3.17932 27.6907 3.75023 28.26 3.75023 28.9637C3.75023 29.6658 3.17932 30.2375 2.47643 30.2375C1.77276 30.2375 1.20264 29.6658 1.20264 28.9637C1.20264 28.26 1.77276 27.6907 2.47643 27.6907Z" fill="#F0740E"/>
<path fill-rule="evenodd" clip-rule="evenodd" d="M63.1145 23.0697H40.1792V66.0897H49.7885C57.1181 66.0897 63.1145 60.0917 63.1145 52.7621V23.0697Z" fill="#F6A800"/>
<path fill-rule="evenodd" clip-rule="evenodd" d="M47.918 66.0896H40.1792V68.367H47.918V66.0896Z" fill="#FF3E28"/>
<path fill-rule="evenodd" clip-rule="evenodd" d="M46.4029 9.49065H40.1792V2.63123H49.7776V6.06211C49.7776 7.94742 48.2593 9.49065 46.4029 9.49065Z" fill="#FFCA08"/>
<path fill-rule="evenodd" clip-rule="evenodd" d="M50.8405 75.0905H40.1792V68.3092H50.8405V75.0905Z" fill="#F6A800"/>
<path fill-rule="evenodd" clip-rule="evenodd" d="M47.918 75.0906H40.1792V78.3614H47.918V75.0906Z" fill="#FF3E28"/>
<path fill-rule="evenodd" clip-rule="evenodd" d="M40.2026 40.6044H40.1792V57.9064H40.2026C44.9799 57.9064 48.8529 54.0335 48.8529 49.2554C48.8529 44.4765 44.9799 40.6044 40.2026 40.6044Z" fill="#169E94"/>
<path fill-rule="evenodd" clip-rule="evenodd" d="M40.2026 48.5533H40.1792V59.192H42.6573V51.0088C42.6573 49.6592 41.553 48.5533 40.2026 48.5533Z" fill="#FF3E28"/>
<path fill-rule="evenodd" clip-rule="evenodd" d="M47.5018 9.15625H40.1792V12.823H47.5018V9.15625Z" fill="#169E94"/>
<path fill-rule="evenodd" clip-rule="evenodd" d="M49.4433 0H40.1792V2.55306H49.4433C50.1454 2.55306 50.7194 1.97903 50.7194 1.27692C50.7194 0.573247 50.1454 0 49.4433 0Z" fill="#FF3E28"/>
<path fill-rule="evenodd" clip-rule="evenodd" d="M47.5244 12.7816C52.5009 14.6529 57.4453 17.794 63.0583 19.7808V21.6661H40.1792V12.7816H47.5244Z" fill="#F6A800"/>
<path fill-rule="evenodd" clip-rule="evenodd" d="M40.8751 43.1473H40.1792V50.1028H40.8751V43.1473Z" fill="#FF3E28"/>
<path fill-rule="evenodd" clip-rule="evenodd" d="M57.3053 15.2105V19.2709H59.1117V15.2105C59.9544 14.8567 60.5464 14.025 60.5464 13.0534C60.5464 11.7617 59.4999 10.7159 58.2089 10.7159C56.9171 10.7159 55.8706 11.7617 55.8706 13.0534C55.8706 14.025 56.4626 14.8567 57.3053 15.2105Z" fill="#FF3E28"/>
<path fill-rule="evenodd" clip-rule="evenodd" d="M63.2317 19.7972H40.1792V23.4195H63.2317C64.2282 23.4195 65.0436 22.6041 65.0436 21.6083C65.0436 20.611 64.2282 19.7972 63.2317 19.7972Z" fill="#FF3E28"/>
<path fill-rule="evenodd" clip-rule="evenodd" d="M52.8336 78.2457C48.6272 78.2457 44.4161 78.2457 40.2073 78.2457H40.1792V84.5093L40.2026 84.5116C42.2598 84.5116 42.5964 82.7544 45.2931 82.7544C47.9891 82.7544 51.0709 85.341 51.0709 88.5321C51.0709 88.6899 51.0639 88.8461 51.0521 88.9999H56.0981C55.4421 86.8405 54.8376 84.849 54.2792 83.0082C53.7622 81.3064 53.2811 79.721 52.8336 78.2457Z" fill="#F6A800"/>
<path fill-rule="evenodd" clip-rule="evenodd" d="M42.2827 4.06665C41.4158 4.06665 40.7129 4.78204 40.7129 5.66222C40.7129 6.54396 41.4158 7.25701 42.2827 7.25701C43.1496 7.25701 43.8525 6.54396 43.8525 5.66222C43.8525 4.78204 43.1496 4.06665 42.2827 4.06665Z" fill="#169E94"/>
<path fill-rule="evenodd" clip-rule="evenodd" d="M46.4433 4.06665C45.5756 4.06665 44.8735 4.78204 44.8735 5.66222C44.8735 6.54396 45.5756 7.25701 46.4433 7.25701C47.3102 7.25701 48.0123 6.54396 48.0123 5.66222C48.0123 4.78204 47.3102 4.06665 46.4433 4.06665Z" fill="#169E94"/>
<path fill-rule="evenodd" clip-rule="evenodd" d="M42.6674 70.1499C41.8122 70.1499 41.1187 70.8442 41.1187 71.6994C41.1187 72.5554 41.8122 73.2489 42.6674 73.2489C43.5233 73.2489 44.2168 72.5554 44.2168 71.6994C44.2168 70.8442 43.5233 70.1499 42.6674 70.1499Z" fill="#FF3E28"/>
<path fill-rule="evenodd" clip-rule="evenodd" d="M47.5966 70.1499C46.7414 70.1499 46.0479 70.8442 46.0479 71.6994C46.0479 72.5554 46.7414 73.2489 47.5966 73.2489C48.4525 73.2489 49.146 72.5554 49.146 71.6994C49.146 70.8442 48.4525 70.1499 47.5966 70.1499Z" fill="#FF3E28"/>
<path fill-rule="evenodd" clip-rule="evenodd" d="M76.3119 30.8773C76.7391 31.2295 77.2866 31.4396 77.8825 31.4396C79.25 31.4396 80.359 30.3313 80.359 28.9638C80.359 27.8142 79.5772 26.8489 78.5166 26.5685L78.5127 26.5607C75.1451 25.3111 70.4451 26.6388 68.2591 30.0314C67.2157 31.6489 65.5585 32.611 63.1147 32.8086V42.7514C71.4534 39.0745 69.3908 31.1834 72.8513 29.8221C73.9978 29.3723 75.3122 30.2735 76.3119 30.8773Z" fill="#F6A800"/>
<path fill-rule="evenodd" clip-rule="evenodd" d="M77.8827 27.6907C77.1798 27.6907 76.6089 28.26 76.6089 28.9637C76.6089 29.6658 77.1798 30.2375 77.8827 30.2375C78.5863 30.2375 79.1565 29.6658 79.1565 28.9637C79.1565 28.26 78.5863 27.6907 77.8827 27.6907Z" fill="#FF3E28"/>
<path fill-rule="evenodd" clip-rule="evenodd" d="M40.8578 44.5711V45.7941C40.9523 46.0706 41.1085 46.3181 41.3108 46.5204C41.6529 46.8617 42.1254 47.0741 42.6471 47.0741C43.1695 47.0741 43.642 46.8617 43.9841 46.5204C44.3262 46.1783 44.5378 45.7043 44.5378 45.1826C44.5378 44.6609 44.3262 44.1892 43.9841 43.8471C43.642 43.505 43.1695 43.2934 42.6471 43.2934C42.1254 43.2934 41.6529 43.505 41.3108 43.8471C41.1085 44.0494 40.9523 44.2946 40.8578 44.5711ZM48.5724 43.8471C48.2303 43.505 47.7578 43.2934 47.2361 43.2934C46.7137 43.2934 46.2404 43.505 45.8983 43.8471C45.557 44.1892 45.3454 44.6609 45.3454 45.1826C45.3454 45.7043 45.557 46.1783 45.8983 46.5204C46.2404 46.8617 46.7137 47.0741 47.2361 47.0741C47.7578 47.0741 48.2303 46.8617 48.5724 46.5204C48.9145 46.1783 49.1261 45.7043 49.1261 45.1826C49.1261 44.6609 48.9145 44.1892 48.5724 43.8471ZM40.2666 43.1473H40.8578V43.1895C41.3319 42.7631 41.9598 42.5038 42.6471 42.5038C43.3874 42.5038 44.0567 42.8037 44.5417 43.2895C44.6948 43.441 44.8291 43.6128 44.9416 43.7994C45.0541 43.6128 45.1884 43.441 45.3407 43.2895C45.8257 42.8037 46.4958 42.5038 47.2361 42.5038C47.9757 42.5038 48.6451 42.8037 49.13 43.2895C49.615 43.7729 49.9149 44.443 49.9149 45.1826C49.9149 45.9222 49.615 46.5923 49.13 47.078C48.6451 47.5615 47.9757 47.8614 47.2361 47.8614C46.4958 47.8614 45.8257 47.5615 45.3407 47.078C45.1884 46.9242 45.0541 46.7539 44.9416 46.5681C44.8291 46.7539 44.6948 46.9242 44.5417 47.078C44.0567 47.5615 43.3874 47.8614 42.6471 47.8614C41.9598 47.8614 41.3319 47.6036 40.8578 47.178V50.1028H40.2666V43.1473Z" fill="#FF3E28"/>
<path fill-rule="evenodd" clip-rule="evenodd" d="M21.8965 54.4997H23.767V26.677H21.8965V54.4997Z" fill="white"/>
</svg>
