<svg width="99" height="86" viewBox="0 0 99 86" fill="none" xmlns="http://www.w3.org/2000/svg">
<path fill-rule="evenodd" clip-rule="evenodd" d="M76.8749 19.5481L77.2649 19.3246L78.7895 21.9874L78.3983 22.2116L76.8749 19.5481Z" fill="#61271C"/>
<path fill-rule="evenodd" clip-rule="evenodd" d="M76.2287 17.9656C76.7997 17.6399 77.5258 17.837 77.853 18.4079C78.1811 18.979 77.9822 19.7061 77.4113 20.0318C76.8395 20.3603 76.1124 20.1614 75.7867 19.5904C75.4595 19.0196 75.6578 18.2928 76.2287 17.9656Z" fill="#FF3E28"/>
<path fill-rule="evenodd" clip-rule="evenodd" d="M79.4695 17.4236L79.8601 17.1997L81.3835 19.8632L80.9942 20.0864L79.4695 17.4236Z" fill="#61271C"/>
<path fill-rule="evenodd" clip-rule="evenodd" d="M78.8231 15.8412C79.3952 15.5133 80.1219 15.7116 80.4492 16.2825C80.7748 16.8535 80.577 17.5824 80.0057 17.9075C79.4357 18.235 78.7086 18.0361 78.3811 17.4662C78.0542 16.8959 78.2531 16.1687 78.8231 15.8412Z" fill="#FF3E28"/>
<path fill-rule="evenodd" clip-rule="evenodd" d="M74.3084 21.5642L74.6993 21.3409L76.2237 24.0062L75.834 24.2288L74.3084 21.5642Z" fill="#61271C"/>
<path fill-rule="evenodd" clip-rule="evenodd" d="M73.6624 19.9832C74.2327 19.6564 74.9617 19.8542 75.2885 20.4245C75.6142 20.9955 75.4153 21.7226 74.8454 22.0501C74.2751 22.3769 73.5479 22.1781 73.2205 21.6081C72.8936 21.0378 73.0914 20.3089 73.6624 19.9832Z" fill="#FF3E28"/>
<path fill-rule="evenodd" clip-rule="evenodd" d="M35.7156 46.4324C45.6324 41.1717 53.667 36.9108 60.2873 33.3987C65.8326 30.4563 70.5624 27.9479 74.6376 25.7873C74.9661 26.359 75.2922 26.9321 75.6197 27.5021L75.6355 27.5296L37.4979 49.5484L37.3999 49.3745C36.8381 48.3946 36.2775 47.4139 35.7156 46.4324Z" fill="#33DCD9"/>
<path fill-rule="evenodd" clip-rule="evenodd" d="M0.0104989 43.3297L35.7233 46.4458L37.4977 49.5481L12.0642 64.2321L0.0104989 43.3297Z" fill="#F0740E"/>
<path fill-rule="evenodd" clip-rule="evenodd" d="M60.6182 33.2581L61.6473 32.7109L62.8915 34.8867L61.8828 35.4691L60.6182 33.2581ZM54.0774 36.745L55.1053 36.1985L56.4742 38.5917L55.4655 39.1741L54.0774 36.745ZM49.0773 39.4109L50.1054 38.862L51.5698 41.4233L50.5628 42.0047L49.0773 39.4109ZM44.7795 41.7025L45.8076 41.1536L47.3542 43.8572L46.3454 44.4396L44.7795 41.7025ZM41.6019 43.396L42.6303 42.8477L44.2376 45.6565L43.2289 46.2389L41.6019 43.396Z" fill="#FCD3C5"/>
<path fill-rule="evenodd" clip-rule="evenodd" d="M69.871 28.3271L70.8973 27.7792L71.9677 29.6471L70.959 30.2295L69.871 28.3271Z" fill="#FCD3C5"/>
<path fill-rule="evenodd" clip-rule="evenodd" d="M74.0916 24.4839C75.1398 23.6867 76.3002 22.8022 77.5914 21.8183C79.0388 20.7156 80.6732 19.4698 82.5315 18.0541C83.3552 18.2435 84.2064 18.4377 85.0892 18.6384L86.5668 21.2183L75.0172 27.8865L75.0003 27.8572C74.6802 27.2958 74.3579 26.7348 74.0352 26.1717C74.054 25.6243 74.0725 25.0626 74.0916 24.4839Z" fill="#F0740E"/>
<path fill-rule="evenodd" clip-rule="evenodd" d="M81.7218 20.2684C82.1163 20.043 82.6161 20.181 82.8411 20.5733C83.0672 20.965 82.9313 21.4684 82.5373 21.6919C82.1438 21.919 81.6428 21.7818 81.4176 21.3888C81.1922 20.9943 81.3291 20.4927 81.7218 20.2684Z" fill="#61271C"/>
<path fill-rule="evenodd" clip-rule="evenodd" d="M79.0543 22.3759C79.4473 22.1507 79.9482 22.2864 80.1725 22.6791C80.3985 23.0733 80.2628 23.5742 79.8683 23.7996C79.4759 24.0245 78.9743 23.8876 78.749 23.4946C78.5247 23.1019 78.6616 22.6003 79.0543 22.3759Z" fill="#61271C"/>
<path fill-rule="evenodd" clip-rule="evenodd" d="M76.4293 24.3376C76.8226 24.1129 77.3242 24.2499 77.5486 24.6426C77.7739 25.0355 77.6369 25.5372 77.2436 25.7618C76.851 25.9862 76.3504 25.851 76.1244 25.4569C75.9001 25.0641 76.0352 24.5636 76.4293 24.3376Z" fill="#61271C"/>
<path fill-rule="evenodd" clip-rule="evenodd" d="M24.659 49.5579C25.8746 49.9069 26.7296 50.9073 26.9504 52.0698C28.1339 52.0235 29.3003 52.6298 29.9136 53.7347C29.9419 53.7838 29.9665 53.8333 29.9908 53.8823L24.3957 57.1126C24.346 57.0376 24.2968 56.9592 24.252 56.8775C24.0802 56.5661 23.9634 56.2396 23.9005 55.9084C23.5629 55.9215 23.2192 55.884 22.8761 55.7855C22.5339 55.6872 22.2208 55.5371 21.9416 55.3476C21.7133 55.5957 21.4423 55.8112 21.1319 55.9848C20.8218 56.1575 20.4946 56.273 20.1613 56.3363C20.1762 56.6729 20.1366 57.0187 20.0384 57.3608C19.9401 57.703 19.7922 58.0156 19.6023 58.2943C19.8499 58.5229 20.0663 58.7942 20.2372 59.1053C20.296 59.2101 20.3476 59.3174 20.393 59.4236L14.8284 62.6363C14.7379 62.5155 14.6527 62.3845 14.5752 62.2475C13.961 61.1407 14.0651 59.8297 14.7311 58.8512C13.8607 58.0478 13.4641 56.7946 13.812 55.5772C14.1616 54.3613 15.1602 53.5072 16.3249 53.2861C16.2768 52.1036 16.883 50.9372 17.9894 50.3223C19.0962 49.708 20.4065 49.811 21.3857 50.4782C22.189 49.6062 23.4423 49.2111 24.659 49.5579Z" fill="#F6D200"/>
<path fill-rule="evenodd" clip-rule="evenodd" d="M19.8017 53.7237C22.1598 52.3742 25.165 53.1921 26.5138 55.549C26.5632 55.6345 26.6095 55.7217 26.6516 55.8098L18.1517 60.7173C18.092 60.625 18.0317 60.5315 17.9779 60.4342C16.6284 58.076 17.445 55.0716 19.8017 53.7237Z" fill="#61271C"/>
<path fill-rule="evenodd" clip-rule="evenodd" d="M39.3059 52.6512C48.8199 46.6927 56.5275 41.8656 62.8792 37.8883C68.2001 34.5572 72.737 31.7146 76.6468 29.2675C76.3152 28.6959 75.9819 28.127 75.6521 27.5584L75.6351 27.5291L37.4974 49.5479L37.6 49.7215C38.1678 50.698 38.7368 51.6738 39.3059 52.6512Z" fill="#169E94"/>
<path fill-rule="evenodd" clip-rule="evenodd" d="M24.1399 85.1237L39.2977 52.6375L37.4972 49.5479L12.0637 64.2319L24.1399 85.1237Z" fill="#FF3E28"/>
<path fill-rule="evenodd" clip-rule="evenodd" d="M63.1662 37.6715L64.1553 37.055L62.8914 34.8866L61.8827 35.4691L63.1662 37.6715ZM56.8761 41.5926L57.8643 40.9774L56.4741 38.5917L55.4654 39.1741L56.8761 41.5926ZM52.0672 44.5898L53.0563 43.9733L51.5697 41.4232L50.5627 42.0046L52.0672 44.5898ZM47.9345 47.1672L48.9229 46.5495L47.3541 43.8571L46.3454 44.4395L47.9345 47.1672ZM44.8791 49.0723L45.8674 48.4547L44.2376 45.6565L43.2288 46.2389L44.8791 49.0723Z" fill="#CFB49B"/>
<path fill-rule="evenodd" clip-rule="evenodd" d="M72.0635 32.1244L73.0511 31.5095L71.9677 29.6468L70.9589 30.2292L72.0635 32.1244Z" fill="#CFB49B"/>
<path fill-rule="evenodd" clip-rule="evenodd" d="M77.5021 30.3907C78.7173 29.8829 80.0625 29.3183 81.5605 28.6926C83.2392 27.9905 85.1352 27.198 87.2904 26.2965C87.5382 25.4885 87.7953 24.6536 88.0633 23.7894L86.5667 21.2179L75.0172 27.8861L75.0348 27.9166C75.3612 28.4751 75.6859 29.0347 76.0122 29.5958C76.4967 29.855 76.9924 30.1197 77.5021 30.3907Z" fill="#FF3E28"/>
<path fill-rule="evenodd" clip-rule="evenodd" d="M31.0708 60.6634C31.3761 59.4356 30.9382 58.1967 30.0411 57.423C30.673 56.4212 30.7319 55.1092 30.0806 54.0238C30.0522 53.9748 30.022 53.9293 29.9907 53.882L24.3956 57.1123C24.4367 57.1946 24.4797 57.2758 24.5284 57.3561C24.7122 57.6606 24.9365 57.9249 25.1916 58.1444C25.0114 58.4302 24.8734 58.7491 24.7858 59.0931C24.7001 59.4391 24.6733 59.7847 24.6981 60.1219C24.3691 60.1955 24.0469 60.3225 23.7414 60.5045C23.4375 60.6879 23.1732 60.9123 22.9524 61.1705C22.6677 60.9881 22.3484 60.8495 22.0037 60.7647C21.6572 60.6769 21.3128 60.6493 20.9765 60.6745C20.9024 60.3458 20.7756 60.0227 20.5916 59.7191C20.5303 59.6158 20.4632 59.5174 20.3929 59.4233L14.8283 62.636C14.8887 62.7765 14.9596 62.9158 15.0391 63.0508C15.6905 64.1362 16.8783 64.7021 18.0587 64.6146C18.3192 65.7701 19.2062 66.7401 20.4341 67.0469C21.6623 67.3528 22.9012 66.9149 23.6751 66.0169C24.6751 66.6498 25.9884 66.708 27.0741 66.0572C28.1594 65.4059 28.7254 64.2196 28.6372 63.038C29.794 62.7783 30.7628 61.8905 31.0708 60.6634Z" fill="#F6A800"/>
<path fill-rule="evenodd" clip-rule="evenodd" d="M25.0343 62.7867C27.382 61.4193 28.177 58.409 26.8096 56.0612C26.7602 55.9757 26.7075 55.8913 26.6515 55.8096L18.1516 60.7171C18.2024 60.8161 18.2536 60.9157 18.312 61.0127C19.6784 63.3587 22.6886 64.1537 25.0343 62.7867Z" fill="#451910"/>
<path fill-rule="evenodd" clip-rule="evenodd" d="M66.0052 33.0894C65.6778 32.4947 65.8853 31.7467 66.4761 31.4056C67.0651 31.0655 67.8167 31.2598 68.168 31.8407L66.0052 33.0894Z" fill="#F0740E"/>
<path fill-rule="evenodd" clip-rule="evenodd" d="M66.0052 33.089C66.3558 33.6687 67.1084 33.8648 67.6992 33.5238C68.2882 33.1837 68.4947 32.4338 68.168 31.8403L66.0052 33.089Z" fill="#FF3E28"/>
<path fill-rule="evenodd" clip-rule="evenodd" d="M58.1661 37.6155C57.8393 37.0204 58.0462 36.2727 58.6358 35.9323C59.2248 35.5923 59.9758 35.7869 60.3277 36.3675L58.1661 37.6155Z" fill="#F0740E"/>
<path fill-rule="evenodd" clip-rule="evenodd" d="M58.1655 37.615C58.5167 38.1943 59.2688 38.3908 59.8584 38.0504C60.4474 37.7103 60.6533 36.9608 60.3271 36.3669L58.1655 37.615Z" fill="#FF3E28"/>
<path fill-rule="evenodd" clip-rule="evenodd" d="M52.308 40.9977C51.9812 40.4027 52.1881 39.655 52.7789 39.3139C53.3685 38.9735 54.1195 39.1682 54.4708 39.749L52.308 40.9977Z" fill="#F0740E"/>
<path fill-rule="evenodd" clip-rule="evenodd" d="M52.3079 40.9972C52.6591 41.5766 53.4112 41.773 54.0019 41.432C54.5915 41.0916 54.7974 40.342 54.4707 39.7485L52.3079 40.9972Z" fill="#FF3E28"/>
<path fill-rule="evenodd" clip-rule="evenodd" d="M39.0621 48.6451C38.7335 48.0511 38.9422 47.3024 39.5318 46.962C40.1208 46.6219 40.8724 46.8162 41.2237 47.3971L39.0621 48.6451Z" fill="#F0740E"/>
<path fill-rule="evenodd" clip-rule="evenodd" d="M39.062 48.6447C39.4114 49.2251 40.1653 49.4206 40.7549 49.0802C41.3439 48.7401 41.5503 47.9902 41.2236 47.3967L39.062 48.6447Z" fill="#FF3E28"/>
</svg>
