<svg width="267" height="33" viewBox="0 0 267 33" fill="none" xmlns="http://www.w3.org/2000/svg">
<path d="M20.9595 2.99171C22.2689 1.11697 24.4115 0 26.6983 0H251.966C257.755 0 261.042 6.62557 257.54 11.2346L243.105 30.2346C241.782 31.9769 239.72 33 237.532 33H13.4276C7.76775 33 4.44791 26.6318 7.68882 21.9917L20.9595 2.99171Z" fill="#F1F1F1"/>
<path d="M55.7634 11.346C56.9754 11.346 57.9354 11.544 58.6434 11.94C59.3634 12.336 59.8794 13.008 60.1914 13.956C60.5034 14.892 60.6594 16.17 60.6594 17.79C60.6594 19.41 60.5034 20.688 60.1914 21.624C59.8794 22.56 59.3634 23.232 58.6434 23.64C57.9354 24.036 56.9754 24.234 55.7634 24.234C54.5634 24.234 53.6034 24.036 52.8834 23.64C52.1634 23.232 51.6414 22.56 51.3174 21.624C51.0054 20.688 50.8494 19.41 50.8494 17.79C50.8494 16.17 51.0054 14.892 51.3174 13.956C51.6414 13.008 52.1634 12.336 52.8834 11.94C53.6034 11.544 54.5634 11.346 55.7634 11.346ZM55.7634 12.768C54.9474 12.768 54.2994 12.924 53.8194 13.236C53.3514 13.548 53.0154 14.07 52.8114 14.802C52.6194 15.522 52.5234 16.518 52.5234 17.79C52.5234 19.05 52.6194 20.046 52.8114 20.778C53.0154 21.51 53.3514 22.032 53.8194 22.344C54.2994 22.656 54.9474 22.812 55.7634 22.812C56.5794 22.812 57.2214 22.656 57.6894 22.344C58.1694 22.032 58.5054 21.51 58.6974 20.778C58.9014 20.046 59.0034 19.05 59.0034 17.79C59.0034 16.518 58.9014 15.522 58.6974 14.802C58.5054 14.07 58.1694 13.548 57.6894 13.236C57.2214 12.924 56.5794 12.768 55.7634 12.768ZM66.8881 15.018C67.2841 15.018 67.7461 15.048 68.2741 15.108C68.8021 15.156 69.2821 15.264 69.7141 15.432L69.5161 16.422C69.1201 16.386 68.7001 16.362 68.2561 16.35C67.8241 16.326 67.4521 16.314 67.1401 16.314C66.4561 16.314 65.9041 16.41 65.4841 16.602C65.0761 16.794 64.7821 17.13 64.6021 17.61C64.4221 18.09 64.3321 18.756 64.3321 19.608C64.3321 20.46 64.4221 21.132 64.6021 21.624C64.7821 22.104 65.0761 22.44 65.4841 22.632C65.9041 22.824 66.4561 22.92 67.1401 22.92C67.4161 22.92 67.8061 22.908 68.3101 22.884C68.8141 22.86 69.2881 22.812 69.7321 22.74L69.8761 23.766C69.4441 23.922 68.9641 24.036 68.4361 24.108C67.9201 24.18 67.4041 24.216 66.8881 24.216C65.8801 24.216 65.0701 24.066 64.4581 23.766C63.8461 23.466 63.4021 22.98 63.1261 22.308C62.8621 21.636 62.7301 20.736 62.7301 19.608C62.7301 18.48 62.8621 17.58 63.1261 16.908C63.4021 16.236 63.8461 15.756 64.4581 15.468C65.0701 15.168 65.8801 15.018 66.8881 15.018ZM73.5154 15.234V18.762H78.1234V15.234H79.6354V24H78.1234V19.932H73.5154V24H72.0034V15.234H73.5154ZM86.206 15.018C87.214 15.018 88.018 15.168 88.618 15.468C89.218 15.768 89.65 16.26 89.914 16.944C90.19 17.616 90.328 18.51 90.328 19.626C90.328 20.742 90.19 21.642 89.914 22.326C89.65 22.998 89.218 23.484 88.618 23.784C88.018 24.084 87.214 24.234 86.206 24.234C85.198 24.234 84.388 24.084 83.776 23.784C83.176 23.484 82.738 22.998 82.462 22.326C82.198 21.642 82.066 20.742 82.066 19.626C82.066 18.51 82.198 17.616 82.462 16.944C82.738 16.26 83.176 15.768 83.776 15.468C84.388 15.168 85.198 15.018 86.206 15.018ZM86.206 16.314C85.57 16.314 85.066 16.416 84.694 16.62C84.322 16.812 84.058 17.148 83.902 17.628C83.746 18.108 83.668 18.774 83.668 19.626C83.668 20.478 83.746 21.144 83.902 21.624C84.058 22.104 84.322 22.446 84.694 22.65C85.066 22.842 85.57 22.938 86.206 22.938C86.842 22.938 87.34 22.842 87.7 22.65C88.072 22.446 88.336 22.104 88.492 21.624C88.648 21.144 88.726 20.478 88.726 19.626C88.726 18.774 88.648 18.108 88.492 17.628C88.336 17.148 88.072 16.812 87.7 16.62C87.34 16.416 86.842 16.314 86.206 16.314ZM96.3272 15.144C97.2392 15.144 97.9592 15.21 98.4872 15.342C99.0272 15.474 99.4172 15.708 99.6572 16.044C99.8972 16.38 100.017 16.86 100.017 17.484C100.017 18.108 99.8672 18.582 99.5672 18.906C99.2792 19.218 98.7992 19.404 98.1272 19.464V19.518C98.9432 19.578 99.5132 19.806 99.8372 20.202C100.161 20.586 100.323 21.132 100.323 21.84C100.323 22.44 100.203 22.908 99.9632 23.244C99.7352 23.568 99.3632 23.796 98.8472 23.928C98.3432 24.06 97.6652 24.126 96.8132 24.126C96.2012 24.126 95.6672 24.12 95.2112 24.108C94.7552 24.108 94.3352 24.096 93.9512 24.072C93.5792 24.06 93.1832 24.042 92.7632 24.018V15.252C93.1352 15.216 93.4892 15.192 93.8252 15.18C94.1612 15.168 94.5272 15.162 94.9232 15.162C95.3192 15.15 95.7872 15.144 96.3272 15.144ZM96.2732 16.35C95.8652 16.35 95.4872 16.35 95.1392 16.35C94.7912 16.338 94.4792 16.338 94.2032 16.35V18.942H96.5072C97.2632 18.942 97.7912 18.852 98.0912 18.672C98.4032 18.492 98.5592 18.138 98.5592 17.61C98.5592 17.106 98.3912 16.77 98.0552 16.602C97.7192 16.434 97.1252 16.35 96.2732 16.35ZM96.5072 20.04H94.2032V22.902C94.5272 22.914 94.8872 22.92 95.2832 22.92C95.6912 22.92 96.1292 22.92 96.5972 22.92C97.4132 22.92 97.9832 22.83 98.3072 22.65C98.6312 22.458 98.7932 22.08 98.7932 21.516C98.7932 20.952 98.6252 20.568 98.2892 20.364C97.9532 20.148 97.3592 20.04 96.5072 20.04ZM106.888 15.018C107.86 15.018 108.598 15.222 109.102 15.63C109.618 16.026 109.876 16.758 109.876 17.826V24H108.67L108.49 22.56C108.262 22.788 107.968 23.028 107.608 23.28C107.248 23.52 106.834 23.73 106.366 23.91C105.91 24.078 105.412 24.162 104.872 24.162C104.092 24.162 103.462 23.952 102.982 23.532C102.502 23.112 102.262 22.506 102.262 21.714V20.76C102.262 20.076 102.472 19.548 102.892 19.176C103.324 18.792 103.924 18.6 104.692 18.6H108.346V17.826C108.334 17.286 108.208 16.902 107.968 16.674C107.728 16.434 107.26 16.314 106.564 16.314C106.096 16.314 105.514 16.338 104.818 16.386C104.134 16.434 103.456 16.488 102.784 16.548L102.64 15.414C103.252 15.318 103.948 15.228 104.728 15.144C105.508 15.06 106.228 15.018 106.888 15.018ZM105.178 22.848C105.61 22.86 106.114 22.758 106.69 22.542C107.278 22.314 107.83 21.972 108.346 21.516V19.752L104.962 19.77C104.542 19.782 104.242 19.896 104.062 20.112C103.894 20.316 103.81 20.604 103.81 20.976V21.534C103.81 21.99 103.918 22.326 104.134 22.542C104.362 22.746 104.71 22.848 105.178 22.848ZM119.592 15.234V16.494H116.424V24H114.894V16.494H111.708V15.234H119.592ZM124.945 15.018C126.265 15.018 127.219 15.258 127.807 15.738C128.407 16.218 128.713 16.932 128.725 17.88C128.725 18.66 128.557 19.272 128.221 19.716C127.897 20.148 127.369 20.364 126.637 20.364H122.551C122.599 21.06 122.725 21.594 122.929 21.966C123.145 22.326 123.445 22.578 123.829 22.722C124.213 22.854 124.705 22.92 125.305 22.92C125.785 22.92 126.301 22.902 126.853 22.866C127.417 22.818 127.921 22.764 128.365 22.704L128.509 23.73C128.245 23.838 127.909 23.928 127.501 24C127.093 24.072 126.673 24.126 126.241 24.162C125.821 24.198 125.443 24.216 125.107 24.216C124.111 24.216 123.301 24.066 122.677 23.766C122.065 23.454 121.621 22.962 121.345 22.29C121.069 21.606 120.931 20.706 120.931 19.59C120.931 18.438 121.069 17.532 121.345 16.872C121.633 16.2 122.071 15.726 122.659 15.45C123.247 15.162 124.009 15.018 124.945 15.018ZM125.017 16.314C124.405 16.314 123.919 16.398 123.559 16.566C123.211 16.734 122.953 17.028 122.785 17.448C122.629 17.856 122.539 18.432 122.515 19.176H126.241C126.625 19.176 126.877 19.044 126.997 18.78C127.129 18.504 127.189 18.204 127.177 17.88C127.177 17.316 127.015 16.914 126.691 16.674C126.367 16.434 125.809 16.314 125.017 16.314ZM138.32 15.234V24H136.79V16.44H134.882C134.51 16.44 134.24 16.524 134.072 16.692C133.916 16.848 133.808 17.13 133.748 17.538C133.652 18.33 133.544 19.146 133.424 19.986C133.304 20.814 133.13 21.534 132.902 22.146C132.458 23.43 131.54 24.078 130.148 24.09L129.986 22.92C130.478 22.8 130.826 22.644 131.03 22.452C131.246 22.26 131.414 22.008 131.534 21.696C131.69 21.312 131.816 20.856 131.912 20.328C132.008 19.8 132.086 19.266 132.146 18.726C132.218 18.174 132.272 17.694 132.308 17.286C132.392 16.614 132.608 16.104 132.956 15.756C133.316 15.408 133.862 15.234 134.594 15.234H138.32ZM144.737 18.636C145.637 18.636 146.339 18.72 146.843 18.888C147.359 19.056 147.725 19.344 147.941 19.752C148.157 20.148 148.265 20.688 148.265 21.372C148.265 22.08 148.151 22.638 147.923 23.046C147.707 23.442 147.353 23.718 146.861 23.874C146.381 24.03 145.751 24.108 144.971 24.108C144.395 24.108 143.897 24.102 143.477 24.09C143.057 24.09 142.673 24.078 142.325 24.054C141.977 24.042 141.611 24.024 141.227 24H141.173V15.234H142.667V18.636H144.737ZM144.737 19.77H142.667V22.884C143.231 22.896 143.921 22.902 144.737 22.902C145.457 22.902 145.961 22.8 146.249 22.596C146.549 22.392 146.699 21.966 146.699 21.318C146.699 20.742 146.567 20.34 146.303 20.112C146.039 19.884 145.517 19.77 144.737 19.77ZM155.956 15.234V22.776H159.592V15.234H160.978V22.776H164.632V15.234H166.108V24H154.462V15.234H155.956ZM170.494 15.234V17.844C170.494 18.192 170.464 18.528 170.404 18.852H171.628C172.204 18.852 172.666 18.708 173.014 18.42C173.362 18.132 173.662 17.718 173.914 17.178C174.178 16.638 174.454 15.99 174.742 15.234H176.326C176.002 16.098 175.702 16.83 175.426 17.43C175.15 18.03 174.826 18.492 174.454 18.816C174.094 19.14 173.602 19.338 172.978 19.41V19.464C173.638 19.524 174.16 19.722 174.544 20.058C174.928 20.382 175.27 20.868 175.57 21.516C175.87 22.152 176.206 22.98 176.578 24H174.976C174.616 23.052 174.298 22.29 174.022 21.714C173.746 21.126 173.428 20.7 173.068 20.436C172.72 20.16 172.24 20.028 171.628 20.04H170.422C170.47 20.34 170.494 20.622 170.494 20.886V24H168.964V15.234H170.494ZM182.27 15.018C183.278 15.018 184.082 15.168 184.682 15.468C185.282 15.768 185.714 16.26 185.978 16.944C186.254 17.616 186.392 18.51 186.392 19.626C186.392 20.742 186.254 21.642 185.978 22.326C185.714 22.998 185.282 23.484 184.682 23.784C184.082 24.084 183.278 24.234 182.27 24.234C181.262 24.234 180.452 24.084 179.84 23.784C179.24 23.484 178.802 22.998 178.526 22.326C178.262 21.642 178.13 20.742 178.13 19.626C178.13 18.51 178.262 17.616 178.526 16.944C178.802 16.26 179.24 15.768 179.84 15.468C180.452 15.168 181.262 15.018 182.27 15.018ZM182.27 16.314C181.634 16.314 181.13 16.416 180.758 16.62C180.386 16.812 180.122 17.148 179.966 17.628C179.81 18.108 179.732 18.774 179.732 19.626C179.732 20.478 179.81 21.144 179.966 21.624C180.122 22.104 180.386 22.446 180.758 22.65C181.13 22.842 181.634 22.938 182.27 22.938C182.906 22.938 183.404 22.842 183.764 22.65C184.136 22.446 184.4 22.104 184.556 21.624C184.712 21.144 184.79 20.478 184.79 19.626C184.79 18.774 184.712 18.108 184.556 17.628C184.4 17.148 184.136 16.812 183.764 16.62C183.404 16.416 182.906 16.314 182.27 16.314ZM195.941 15.234V24H194.411V16.44H192.503C192.131 16.44 191.861 16.524 191.693 16.692C191.537 16.848 191.429 17.13 191.369 17.538C191.273 18.33 191.165 19.146 191.045 19.986C190.925 20.814 190.751 21.534 190.523 22.146C190.079 23.43 189.161 24.078 187.769 24.09L187.607 22.92C188.099 22.8 188.447 22.644 188.651 22.452C188.867 22.26 189.035 22.008 189.155 21.696C189.311 21.312 189.437 20.856 189.533 20.328C189.629 19.8 189.707 19.266 189.767 18.726C189.839 18.174 189.893 17.694 189.929 17.286C190.013 16.614 190.229 16.104 190.577 15.756C190.937 15.408 191.483 15.234 192.215 15.234H195.941ZM202.358 18.636C203.234 18.636 203.918 18.72 204.41 18.888C204.902 19.056 205.25 19.344 205.454 19.752C205.67 20.148 205.778 20.688 205.778 21.372C205.778 22.08 205.67 22.638 205.454 23.046C205.238 23.442 204.896 23.718 204.428 23.874C203.96 24.03 203.348 24.108 202.592 24.108C202.016 24.108 201.518 24.102 201.098 24.09C200.678 24.09 200.294 24.078 199.946 24.054C199.598 24.042 199.232 24.024 198.848 24H198.794V15.234H200.288V18.636H202.358ZM208.928 15.234V24H207.38V15.234H208.928ZM202.358 19.77H200.288V22.884C200.852 22.896 201.542 22.902 202.358 22.902C203.054 22.902 203.54 22.8 203.816 22.596C204.092 22.392 204.23 21.966 204.23 21.318C204.23 20.742 204.098 20.34 203.834 20.112C203.582 19.884 203.09 19.77 202.358 19.77Z" fill="#424347"/>
</svg>
