<svg width="268" height="41" viewBox="0 0 268 41" fill="none" xmlns="http://www.w3.org/2000/svg">
<g filter="url(#filter0_d)">
<path d="M21.8986 2.99171C23.208 1.11697 25.3506 0 27.6374 0H252.905C258.694 0 261.981 6.62557 258.479 11.2346L244.045 30.2346C242.721 31.9769 240.659 33 238.471 33H14.3667C8.70683 33 5.387 26.6318 8.62791 21.9917L21.8986 2.99171Z" fill="#F1F1F1"/>
<path d="M56.7024 11.346C57.9144 11.346 58.8744 11.544 59.5824 11.94C60.3024 12.336 60.8184 13.008 61.1304 13.956C61.4424 14.892 61.5984 16.17 61.5984 17.79C61.5984 19.41 61.4424 20.688 61.1304 21.624C60.8184 22.56 60.3024 23.232 59.5824 23.64C58.8744 24.036 57.9144 24.234 56.7024 24.234C55.5024 24.234 54.5424 24.036 53.8224 23.64C53.1024 23.232 52.5804 22.56 52.2564 21.624C51.9444 20.688 51.7884 19.41 51.7884 17.79C51.7884 16.17 51.9444 14.892 52.2564 13.956C52.5804 13.008 53.1024 12.336 53.8224 11.94C54.5424 11.544 55.5024 11.346 56.7024 11.346ZM56.7024 12.768C55.8864 12.768 55.2384 12.924 54.7584 13.236C54.2904 13.548 53.9544 14.07 53.7504 14.802C53.5584 15.522 53.4624 16.518 53.4624 17.79C53.4624 19.05 53.5584 20.046 53.7504 20.778C53.9544 21.51 54.2904 22.032 54.7584 22.344C55.2384 22.656 55.8864 22.812 56.7024 22.812C57.5184 22.812 58.1604 22.656 58.6284 22.344C59.1084 22.032 59.4444 21.51 59.6364 20.778C59.8404 20.046 59.9424 19.05 59.9424 17.79C59.9424 16.518 59.8404 15.522 59.6364 14.802C59.4444 14.07 59.1084 13.548 58.6284 13.236C58.1604 12.924 57.5184 12.768 56.7024 12.768ZM67.8271 15.018C68.2231 15.018 68.6851 15.048 69.2131 15.108C69.7411 15.156 70.2211 15.264 70.6531 15.432L70.4551 16.422C70.0591 16.386 69.6391 16.362 69.1951 16.35C68.7631 16.326 68.3911 16.314 68.0791 16.314C67.3951 16.314 66.8431 16.41 66.4231 16.602C66.0151 16.794 65.7211 17.13 65.5411 17.61C65.3611 18.09 65.2711 18.756 65.2711 19.608C65.2711 20.46 65.3611 21.132 65.5411 21.624C65.7211 22.104 66.0151 22.44 66.4231 22.632C66.8431 22.824 67.3951 22.92 68.0791 22.92C68.3551 22.92 68.7451 22.908 69.2491 22.884C69.7531 22.86 70.2271 22.812 70.6711 22.74L70.8151 23.766C70.3831 23.922 69.9031 24.036 69.3751 24.108C68.8591 24.18 68.3431 24.216 67.8271 24.216C66.8191 24.216 66.0091 24.066 65.3971 23.766C64.7851 23.466 64.3411 22.98 64.0651 22.308C63.8011 21.636 63.6691 20.736 63.6691 19.608C63.6691 18.48 63.8011 17.58 64.0651 16.908C64.3411 16.236 64.7851 15.756 65.3971 15.468C66.0091 15.168 66.8191 15.018 67.8271 15.018ZM74.4545 15.234V18.762H79.0625V15.234H80.5745V24H79.0625V19.932H74.4545V24H72.9425V15.234H74.4545ZM87.1451 15.018C88.1531 15.018 88.9571 15.168 89.5571 15.468C90.1571 15.768 90.5891 16.26 90.8531 16.944C91.1291 17.616 91.2671 18.51 91.2671 19.626C91.2671 20.742 91.1291 21.642 90.8531 22.326C90.5891 22.998 90.1571 23.484 89.5571 23.784C88.9571 24.084 88.1531 24.234 87.1451 24.234C86.1371 24.234 85.3271 24.084 84.7151 23.784C84.1151 23.484 83.6771 22.998 83.4011 22.326C83.1371 21.642 83.0051 20.742 83.0051 19.626C83.0051 18.51 83.1371 17.616 83.4011 16.944C83.6771 16.26 84.1151 15.768 84.7151 15.468C85.3271 15.168 86.1371 15.018 87.1451 15.018ZM87.1451 16.314C86.5091 16.314 86.0051 16.416 85.6331 16.62C85.2611 16.812 84.9971 17.148 84.8411 17.628C84.6851 18.108 84.6071 18.774 84.6071 19.626C84.6071 20.478 84.6851 21.144 84.8411 21.624C84.9971 22.104 85.2611 22.446 85.6331 22.65C86.0051 22.842 86.5091 22.938 87.1451 22.938C87.7811 22.938 88.2791 22.842 88.6391 22.65C89.0111 22.446 89.2751 22.104 89.4311 21.624C89.5871 21.144 89.6651 20.478 89.6651 19.626C89.6651 18.774 89.5871 18.108 89.4311 17.628C89.2751 17.148 89.0111 16.812 88.6391 16.62C88.2791 16.416 87.7811 16.314 87.1451 16.314ZM97.2663 15.144C98.1783 15.144 98.8983 15.21 99.4263 15.342C99.9663 15.474 100.356 15.708 100.596 16.044C100.836 16.38 100.956 16.86 100.956 17.484C100.956 18.108 100.806 18.582 100.506 18.906C100.218 19.218 99.7383 19.404 99.0663 19.464V19.518C99.8823 19.578 100.452 19.806 100.776 20.202C101.1 20.586 101.262 21.132 101.262 21.84C101.262 22.44 101.142 22.908 100.902 23.244C100.674 23.568 100.302 23.796 99.7863 23.928C99.2823 24.06 98.6043 24.126 97.7523 24.126C97.1403 24.126 96.6063 24.12 96.1503 24.108C95.6943 24.108 95.2743 24.096 94.8903 24.072C94.5183 24.06 94.1223 24.042 93.7023 24.018V15.252C94.0743 15.216 94.4283 15.192 94.7643 15.18C95.1003 15.168 95.4663 15.162 95.8623 15.162C96.2583 15.15 96.7263 15.144 97.2663 15.144ZM97.2123 16.35C96.8043 16.35 96.4263 16.35 96.0783 16.35C95.7303 16.338 95.4183 16.338 95.1423 16.35V18.942H97.4463C98.2023 18.942 98.7303 18.852 99.0303 18.672C99.3423 18.492 99.4983 18.138 99.4983 17.61C99.4983 17.106 99.3303 16.77 98.9943 16.602C98.6583 16.434 98.0643 16.35 97.2123 16.35ZM97.4463 20.04H95.1423V22.902C95.4663 22.914 95.8263 22.92 96.2223 22.92C96.6303 22.92 97.0683 22.92 97.5363 22.92C98.3523 22.92 98.9223 22.83 99.2463 22.65C99.5703 22.458 99.7323 22.08 99.7323 21.516C99.7323 20.952 99.5643 20.568 99.2283 20.364C98.8923 20.148 98.2983 20.04 97.4463 20.04ZM107.827 15.018C108.799 15.018 109.537 15.222 110.041 15.63C110.557 16.026 110.815 16.758 110.815 17.826V24H109.609L109.429 22.56C109.201 22.788 108.907 23.028 108.547 23.28C108.187 23.52 107.773 23.73 107.305 23.91C106.849 24.078 106.351 24.162 105.811 24.162C105.031 24.162 104.401 23.952 103.921 23.532C103.441 23.112 103.201 22.506 103.201 21.714V20.76C103.201 20.076 103.411 19.548 103.831 19.176C104.263 18.792 104.863 18.6 105.631 18.6H109.285V17.826C109.273 17.286 109.147 16.902 108.907 16.674C108.667 16.434 108.199 16.314 107.503 16.314C107.035 16.314 106.453 16.338 105.757 16.386C105.073 16.434 104.395 16.488 103.723 16.548L103.579 15.414C104.191 15.318 104.887 15.228 105.667 15.144C106.447 15.06 107.167 15.018 107.827 15.018ZM106.117 22.848C106.549 22.86 107.053 22.758 107.629 22.542C108.217 22.314 108.769 21.972 109.285 21.516V19.752L105.901 19.77C105.481 19.782 105.181 19.896 105.001 20.112C104.833 20.316 104.749 20.604 104.749 20.976V21.534C104.749 21.99 104.857 22.326 105.073 22.542C105.301 22.746 105.649 22.848 106.117 22.848ZM120.531 15.234V16.494H117.363V24H115.833V16.494H112.647V15.234H120.531ZM125.884 15.018C127.204 15.018 128.158 15.258 128.746 15.738C129.346 16.218 129.652 16.932 129.664 17.88C129.664 18.66 129.496 19.272 129.16 19.716C128.836 20.148 128.308 20.364 127.576 20.364H123.49C123.538 21.06 123.664 21.594 123.868 21.966C124.084 22.326 124.384 22.578 124.768 22.722C125.152 22.854 125.644 22.92 126.244 22.92C126.724 22.92 127.24 22.902 127.792 22.866C128.356 22.818 128.86 22.764 129.304 22.704L129.448 23.73C129.184 23.838 128.848 23.928 128.44 24C128.032 24.072 127.612 24.126 127.18 24.162C126.76 24.198 126.382 24.216 126.046 24.216C125.05 24.216 124.24 24.066 123.616 23.766C123.004 23.454 122.56 22.962 122.284 22.29C122.008 21.606 121.87 20.706 121.87 19.59C121.87 18.438 122.008 17.532 122.284 16.872C122.572 16.2 123.01 15.726 123.598 15.45C124.186 15.162 124.948 15.018 125.884 15.018ZM125.956 16.314C125.344 16.314 124.858 16.398 124.498 16.566C124.15 16.734 123.892 17.028 123.724 17.448C123.568 17.856 123.478 18.432 123.454 19.176H127.18C127.564 19.176 127.816 19.044 127.936 18.78C128.068 18.504 128.128 18.204 128.116 17.88C128.116 17.316 127.954 16.914 127.63 16.674C127.306 16.434 126.748 16.314 125.956 16.314ZM139.259 15.234V24H137.729V16.44H135.821C135.449 16.44 135.179 16.524 135.011 16.692C134.855 16.848 134.747 17.13 134.687 17.538C134.591 18.33 134.483 19.146 134.363 19.986C134.243 20.814 134.069 21.534 133.841 22.146C133.397 23.43 132.479 24.078 131.087 24.09L130.925 22.92C131.417 22.8 131.765 22.644 131.969 22.452C132.185 22.26 132.353 22.008 132.473 21.696C132.629 21.312 132.755 20.856 132.851 20.328C132.947 19.8 133.025 19.266 133.085 18.726C133.157 18.174 133.211 17.694 133.247 17.286C133.331 16.614 133.547 16.104 133.895 15.756C134.255 15.408 134.801 15.234 135.533 15.234H139.259ZM145.676 18.636C146.576 18.636 147.278 18.72 147.782 18.888C148.298 19.056 148.664 19.344 148.88 19.752C149.096 20.148 149.204 20.688 149.204 21.372C149.204 22.08 149.09 22.638 148.862 23.046C148.646 23.442 148.292 23.718 147.8 23.874C147.32 24.03 146.69 24.108 145.91 24.108C145.334 24.108 144.836 24.102 144.416 24.09C143.996 24.09 143.612 24.078 143.264 24.054C142.916 24.042 142.55 24.024 142.166 24H142.112V15.234H143.606V18.636H145.676ZM145.676 19.77H143.606V22.884C144.17 22.896 144.86 22.902 145.676 22.902C146.396 22.902 146.9 22.8 147.188 22.596C147.488 22.392 147.638 21.966 147.638 21.318C147.638 20.742 147.506 20.34 147.242 20.112C146.978 19.884 146.456 19.77 145.676 19.77ZM156.895 15.234V22.776H160.531V15.234H161.917V22.776H165.571V15.234H167.047V24H155.401V15.234H156.895ZM171.433 15.234V17.844C171.433 18.192 171.403 18.528 171.343 18.852H172.567C173.143 18.852 173.605 18.708 173.953 18.42C174.301 18.132 174.601 17.718 174.853 17.178C175.117 16.638 175.393 15.99 175.681 15.234H177.265C176.941 16.098 176.641 16.83 176.365 17.43C176.089 18.03 175.765 18.492 175.393 18.816C175.033 19.14 174.541 19.338 173.917 19.41V19.464C174.577 19.524 175.099 19.722 175.483 20.058C175.867 20.382 176.209 20.868 176.509 21.516C176.809 22.152 177.145 22.98 177.517 24H175.915C175.555 23.052 175.237 22.29 174.961 21.714C174.685 21.126 174.367 20.7 174.007 20.436C173.659 20.16 173.179 20.028 172.567 20.04H171.361C171.409 20.34 171.433 20.622 171.433 20.886V24H169.903V15.234H171.433ZM183.21 15.018C184.218 15.018 185.022 15.168 185.622 15.468C186.222 15.768 186.654 16.26 186.918 16.944C187.194 17.616 187.332 18.51 187.332 19.626C187.332 20.742 187.194 21.642 186.918 22.326C186.654 22.998 186.222 23.484 185.622 23.784C185.022 24.084 184.218 24.234 183.21 24.234C182.202 24.234 181.392 24.084 180.78 23.784C180.18 23.484 179.742 22.998 179.466 22.326C179.202 21.642 179.07 20.742 179.07 19.626C179.07 18.51 179.202 17.616 179.466 16.944C179.742 16.26 180.18 15.768 180.78 15.468C181.392 15.168 182.202 15.018 183.21 15.018ZM183.21 16.314C182.574 16.314 182.07 16.416 181.698 16.62C181.326 16.812 181.062 17.148 180.906 17.628C180.75 18.108 180.672 18.774 180.672 19.626C180.672 20.478 180.75 21.144 180.906 21.624C181.062 22.104 181.326 22.446 181.698 22.65C182.07 22.842 182.574 22.938 183.21 22.938C183.846 22.938 184.344 22.842 184.704 22.65C185.076 22.446 185.34 22.104 185.496 21.624C185.652 21.144 185.73 20.478 185.73 19.626C185.73 18.774 185.652 18.108 185.496 17.628C185.34 17.148 185.076 16.812 184.704 16.62C184.344 16.416 183.846 16.314 183.21 16.314ZM196.88 15.234V24H195.35V16.44H193.442C193.07 16.44 192.8 16.524 192.632 16.692C192.476 16.848 192.368 17.13 192.308 17.538C192.212 18.33 192.104 19.146 191.984 19.986C191.864 20.814 191.69 21.534 191.462 22.146C191.018 23.43 190.1 24.078 188.708 24.09L188.546 22.92C189.038 22.8 189.386 22.644 189.59 22.452C189.806 22.26 189.974 22.008 190.094 21.696C190.25 21.312 190.376 20.856 190.472 20.328C190.568 19.8 190.646 19.266 190.706 18.726C190.778 18.174 190.832 17.694 190.868 17.286C190.952 16.614 191.168 16.104 191.516 15.756C191.876 15.408 192.422 15.234 193.154 15.234H196.88ZM203.298 18.636C204.174 18.636 204.858 18.72 205.35 18.888C205.842 19.056 206.19 19.344 206.394 19.752C206.61 20.148 206.718 20.688 206.718 21.372C206.718 22.08 206.61 22.638 206.394 23.046C206.178 23.442 205.836 23.718 205.368 23.874C204.9 24.03 204.288 24.108 203.532 24.108C202.956 24.108 202.458 24.102 202.038 24.09C201.618 24.09 201.234 24.078 200.886 24.054C200.538 24.042 200.172 24.024 199.788 24H199.734V15.234H201.228V18.636H203.298ZM209.868 15.234V24H208.32V15.234H209.868ZM203.298 19.77H201.228V22.884C201.792 22.896 202.482 22.902 203.298 22.902C203.994 22.902 204.48 22.8 204.756 22.596C205.032 22.392 205.17 21.966 205.17 21.318C205.17 20.742 205.038 20.34 204.774 20.112C204.522 19.884 204.03 19.77 203.298 19.77Z" fill="#424347"/>
</g>
<defs>
<filter id="filter0_d" x="3.35455" y="0" width="260.564" height="41" filterUnits="userSpaceOnUse" color-interpolation-filters="sRGB">
<feFlood flood-opacity="0" result="BackgroundImageFix"/>
<feColorMatrix in="SourceAlpha" type="matrix" values="0 0 0 0 0 0 0 0 0 0 0 0 0 0 0 0 0 0 127 0"/>
<feOffset dy="4"/>
<feGaussianBlur stdDeviation="2"/>
<feColorMatrix type="matrix" values="0 0 0 0 0 0 0 0 0 0 0 0 0 0 0 0 0 0 0.25 0"/>
<feBlend mode="normal" in2="BackgroundImageFix" result="effect1_dropShadow"/>
<feBlend mode="normal" in="SourceGraphic" in2="effect1_dropShadow" result="shape"/>
</filter>
</defs>
</svg>
