<svg width="23" height="23" viewBox="0 0 23 23" fill="none" xmlns="http://www.w3.org/2000/svg">
<path d="M11.4167 12.393C11.4405 12.393 11.4643 12.393 11.4929 12.393C11.5024 12.393 11.5119 12.393 11.5214 12.393C11.5357 12.393 11.5548 12.393 11.5691 12.393C12.9646 12.3692 14.0934 11.8786 14.9269 10.9404C16.7606 8.87327 16.4558 5.32968 16.4225 4.99151C16.3034 2.45289 15.1031 1.23835 14.1124 0.671568C13.3742 0.24767 12.5121 0.0190516 11.55 0H11.5167C11.5119 0 11.5024 0 11.4976 0H11.469C10.9404 0 9.90205 0.085732 8.90661 0.652516C7.9064 1.2193 6.6871 2.43384 6.56803 4.99151C6.53469 5.32968 6.22987 8.87327 8.06358 10.9404C8.89232 11.8786 10.0211 12.3692 11.4167 12.393ZM7.83972 5.11058C7.83972 5.09629 7.84449 5.082 7.84449 5.07248C8.00166 1.65749 10.426 1.29074 11.4643 1.29074H11.4833C11.4929 1.29074 11.5071 1.29074 11.5214 1.29074C12.8074 1.31932 14.9936 1.84324 15.1412 5.07248C15.1412 5.08677 15.1412 5.10106 15.146 5.11058C15.1508 5.14392 15.4842 8.38269 13.9696 10.0878C13.3694 10.7641 12.5693 11.0975 11.5167 11.1071C11.5071 11.1071 11.5024 11.1071 11.4929 11.1071C11.4833 11.1071 11.4786 11.1071 11.469 11.1071C10.4212 11.0975 9.61628 10.7641 9.02092 10.0878C7.51108 8.39221 7.83496 5.13916 7.83972 5.11058Z" fill="#B28D5C"/>
<path d="M21.2805 18.2706C21.2805 18.2658 21.2805 18.2611 21.2805 18.2563C21.2805 18.2182 21.2757 18.1801 21.2757 18.1372C21.2472 17.1942 21.1852 14.989 19.1182 14.2841C19.1039 14.2793 19.0848 14.2745 19.0705 14.2698C16.9225 13.722 15.1364 12.4837 15.1173 12.4694C14.8268 12.2646 14.4267 12.336 14.2219 12.6266C14.0171 12.9171 14.0885 13.3172 14.3791 13.522C14.46 13.5791 16.3557 14.8985 18.7276 15.5081C19.8374 15.9034 19.9612 17.0894 19.9945 18.1753C19.9945 18.2182 19.9945 18.2563 19.9993 18.2944C20.0041 18.7231 19.9755 19.3851 19.8993 19.7661C19.1277 20.2043 16.1032 21.7189 11.5023 21.7189C6.92039 21.7189 3.8769 20.1996 3.10055 19.7614C3.02435 19.3803 2.99101 18.7183 3.00053 18.2896C3.00053 18.2515 3.00529 18.2134 3.00529 18.1706C3.03863 17.0846 3.16247 15.8987 4.27222 15.5034C6.64414 14.8937 8.53977 13.5696 8.62074 13.5172C8.91128 13.3124 8.98272 12.9123 8.77792 12.6218C8.57311 12.3313 8.17303 12.2598 7.88249 12.4646C7.86344 12.4789 6.08688 13.7173 3.9293 14.265C3.91024 14.2698 3.89596 14.2745 3.88167 14.2793C1.81457 14.989 1.75265 17.1942 1.72408 18.1325C1.72408 18.1753 1.72408 18.2134 1.71931 18.2515C1.71931 18.2563 1.71931 18.2611 1.71931 18.2658C1.71455 18.5135 1.70979 19.7852 1.96222 20.4234C2.00985 20.5473 2.09558 20.652 2.20989 20.7235C2.35278 20.8187 5.7773 23.0001 11.5071 23.0001C17.2368 23.0001 20.6613 20.814 20.8042 20.7235C20.9138 20.652 21.0043 20.5473 21.0519 20.4234C21.29 19.79 21.2853 18.5183 21.2805 18.2706Z" fill="#B28D5C"/>
</svg>
