<?xml version="1.0" encoding="utf-8"?>
<!-- Generator: Adobe Illustrator 17.1.0, SVG Export Plug-In . SVG Version: 6.00 Build 0)  -->
<!DOCTYPE svg PUBLIC "-//W3C//DTD SVG 1.1//EN" "http://www.w3.org/Graphics/SVG/1.1/DTD/svg11.dtd">
<svg version="1.1" id="Layer_1" xmlns="http://www.w3.org/2000/svg" xmlns:xlink="http://www.w3.org/1999/xlink" x="0px" y="0px"
	 viewBox="0 0 512 512" enable-background="new 0 0 512 512" xml:space="preserve">
<path fill="#B69E5B" d="M238.9,68.3h34.1c4.2,0,7.7-3,8.4-7.1L290,9.9c0.4-2.5-0.3-5-1.9-6.9s-4-3-6.5-3h-51.2c-2.5,0-4.9,1.1-6.5,3
	c-1.6,1.9-2.3,4.4-1.9,6.9l8.5,51.2C231.2,65.3,234.8,68.3,238.9,68.3z M271.5,17.1l-5.7,34.1h-19.7l-5.7-34.1H271.5z"/>
<path fill="#B69E5B" d="M100.2,136.2c1.5,1.1,3.2,1.6,5,1.6c2.2,0,4.4-0.8,6-2.5l24.1-24.1c2.9-2.9,3.3-7.6,0.9-11L106.1,58
	c-1.5-2-3.7-3.3-6.2-3.6c-2.5-0.2-5,0.7-6.7,2.5L56.9,93.1c-1.8,1.8-2.7,4.2-2.5,6.7c0.2,2.5,1.5,4.8,3.5,6.2L100.2,136.2z M98,76.1
	l20.1,28.1l-13.9,13.9L76.1,98L98,76.1z"/>
<path fill="#B69E5B" d="M400.8,135.3c1.6,1.6,3.8,2.5,6,2.5c1.7,0,3.5-0.5,5-1.6l42.2-30.2c2-1.5,3.3-3.7,3.5-6.2
	c0.2-2.5-0.7-5-2.5-6.7l-36.2-36.2c-1.8-1.8-4.2-2.6-6.7-2.5c-2.5,0.2-4.8,1.5-6.2,3.5l-30.2,42.2c-2.4,3.4-2,8,0.9,11L400.8,135.3z
	 M414,76.1l22,21.9l-28.2,20.1l-13.9-13.9L414,76.1z"/>
<g>
	<path fill="none" d="M238.9,103.9c-7.3,2.6-13,8.3-15.6,15.6h15.6V103.9z"/>
	<path fill="none" d="M461.7,426.7H50.3c-1.3,6.3-4,12.1-7.7,17.1h426.7C465.6,438.8,462.9,433,461.7,426.7z"/>
	<path fill="none" d="M264.5,102.4H256v17.1h32.7C285.1,109.5,275.7,102.4,264.5,102.4z"/>
	<rect x="247.5" y="136.5" fill="none" width="17.1" height="17.1"/>
	<path fill="#B69E5B" d="M512,418.1v-8.5c0-132.5-101.2-241.8-230.4-254.7v-18.3h17.1c4.7,0,8.5-3.8,8.5-8.5
		c0-23.5-19.1-42.7-42.7-42.7h-17.1c-23.5,0-42.7,19.1-42.7,42.7c0,4.7,3.8,8.5,8.5,8.5h17.1v18.3C101.2,167.8,0,277.1,0,409.6v8.5
		c0,4.7,3.8,8.5,8.5,8.5h24c-3.5,9.9-12.9,17.1-24,17.1c-4.7,0-8.5,3.8-8.5,8.5v51.2c0,4.7,3.8,8.5,8.5,8.5h494.9
		c4.7,0,8.5-3.8,8.5-8.5v-51.2c0-4.7-3.8-8.5-8.5-8.5c-11.1,0-20.5-7.2-24-17.1h24C508.2,426.7,512,422.8,512,418.1z M256,102.4h8.5
		c11.1,0,20.6,7.1,24.1,17.1H256V102.4z M247.5,136.5h17.1v17.1h-17.1V136.5z M223.3,119.5c2.6-7.3,8.4-13,15.6-15.6v15.6H223.3z
		 M122,250c35.4-35.4,70.7-44.5,72.2-44.9l2.1,8.3l2.1,8.3c-0.3,0.1-32.5,8.6-64.3,40.4c-7.6,7.6-14.5,15.8-20.5,24.4l-14-9.7
		C106.1,267.3,113.6,258.3,122,250z M86.2,299.1l15.3,7.6c-5.8,11.7-7.9,19.5-7.9,19.6l-16.6-4.2C77.1,321.8,79.5,312.6,86.2,299.1z
		 M50.3,426.7h411.3c1.3,6.3,4,12.1,7.7,17.1H42.6C46.4,438.8,49.1,433,50.3,426.7z M341.3,486.4h-17.1v-17.1h17.1V486.4z
		 M477.9,486.4H358.4v-17.1h119.5V486.4z"/>
</g>
</svg>
