<svg width="121" height="138" viewBox="0 0 121 138" fill="none" xmlns="http://www.w3.org/2000/svg">
<path d="M63.1009 40.1477C63.2616 40.172 64.9549 40.4167 67.2496 40.4167C70.4046 40.4167 74.6969 39.9531 77.7012 37.8147C80.9732 35.4854 81.0754 32.1087 79.7857 29.9573C78.5786 27.9423 76.3477 26.9509 73.8538 27.2269C73.6382 24.9429 72.1257 23.1559 69.7199 22.4864C67.1456 21.7695 63.5416 22.5468 61.7048 25.944C58.7926 31.3281 62.0291 39.1262 62.168 39.4556C62.3222 39.8205 62.6773 40.0841 63.1009 40.1477ZM63.8755 26.9208C65.0866 24.6804 67.3885 24.1484 69.0138 24.5985C70.3916 24.9818 71.744 26.2017 71.409 28.476C71.3529 28.8571 71.5177 29.2371 71.8444 29.4792C72.1706 29.7212 72.6107 29.7923 73.0101 29.6646C75.3835 28.8997 76.971 29.8624 77.6623 31.0166C78.477 32.3755 78.3706 34.5377 76.2124 36.0735C72.6066 38.6416 66.2949 38.2632 64.1939 38.0508C63.5381 36.2201 61.846 30.6721 63.8755 26.9208Z" fill="#B28D5C"/>
<path d="M46.6683 29.7443C46.761 29.7642 46.855 29.7739 46.9477 29.7739C47.2738 29.7739 47.5905 29.6537 47.8215 29.4338C48.0892 29.1788 54.3731 23.1219 53.969 17.1275C53.7132 13.3481 50.7189 11.3617 48.0443 11.1153C45.5481 10.8846 43.388 12.0021 42.2223 14.0354C40.0381 12.9077 37.5667 13.0339 35.5998 14.4656C33.4983 15.9971 32.1612 19.1495 34.1931 22.4518C37.4136 27.6888 46.2919 29.6629 46.6683 29.7443ZM37.11 16.1912C37.6653 15.7869 38.4009 15.5017 39.2281 15.5017C40.0777 15.5017 41.0241 15.8025 41.9695 16.582C42.2832 16.8396 42.7222 16.9324 43.1227 16.8213C43.5269 16.713 43.84 16.4203 43.9493 16.0494C44.6033 13.8301 46.3699 13.1789 47.8014 13.3126C49.4906 13.4678 51.3848 14.7707 51.5537 17.2633C51.8344 21.4287 47.9232 25.9644 46.5442 27.4252C44.5188 26.884 38.5468 25.0194 36.3035 21.3715C34.9629 19.1927 35.7818 17.1588 37.11 16.1912Z" fill="#B28D5C"/>
<path d="M75.2656 52.566C77.4422 52.566 79.2129 50.9499 79.2129 48.9634C79.2129 46.9765 77.4422 45.3604 75.2656 45.3604C74.5974 45.3604 74.0556 45.8547 74.0556 46.4644C74.0556 47.074 74.5974 47.5684 75.2656 47.5684C76.1075 47.5684 76.7929 48.1942 76.7929 48.9634C76.7929 49.7321 76.1075 50.358 75.2656 50.358C73.089 50.358 71.3184 51.9741 71.3184 53.9611C71.3184 55.9481 73.089 57.5642 75.2656 57.5642C75.9338 57.5642 76.4756 57.0699 76.4756 56.4602C76.4756 55.8505 75.9338 55.3562 75.2656 55.3562C74.4237 55.3562 73.7384 54.7303 73.7384 53.9611C73.7384 53.1919 74.4237 52.566 75.2656 52.566Z" fill="#B28D5C"/>
<path d="M82.4024 47.5684C83.2443 47.5684 83.9296 48.1942 83.9296 48.9634C83.9296 49.7321 83.2443 50.358 82.4024 50.358C80.2258 50.358 78.4551 51.9741 78.4551 53.9611C78.4551 55.9481 80.2258 57.5642 82.4024 57.5642C83.0706 57.5642 83.6124 57.0699 83.6124 56.4602C83.6124 55.8505 83.0706 55.3562 82.4024 55.3562C81.5604 55.3562 80.8751 54.7303 80.8751 53.9611C80.8751 53.1919 81.5604 52.566 82.4024 52.566C84.5789 52.566 86.3496 50.9499 86.3496 48.9634C86.3496 46.9765 84.5789 45.3604 82.4024 45.3604C81.7341 45.3604 81.1924 45.8547 81.1924 46.4644C81.1924 47.074 81.7341 47.5684 82.4024 47.5684Z" fill="#B28D5C"/>
<path d="M13.3086 99.36H107.689C108.357 99.36 108.899 98.8657 108.899 98.256V89.3318C108.899 88.7221 108.357 88.2278 107.689 88.2278H88.9948C92.4272 86.1662 95.2801 83.1842 97.3481 79.5909H101.946C105.78 79.5909 108.899 76.7436 108.899 73.244C108.899 69.7444 105.78 66.8971 101.946 66.8971H101.003C101.027 66.404 101.055 65.9118 101.055 65.4125V61.2569C101.055 60.6472 100.513 60.1529 99.8449 60.1529H56.8763C56.2081 60.1529 55.6663 60.6472 55.6663 61.2569V65.4125C55.6663 75.1663 60.377 83.8134 67.7264 88.2278H41.2284V85.6867C41.2284 84.4166 40.6175 83.2614 39.6509 82.5013C45.0191 78.3193 48.4004 70.7115 48.4004 62.514C48.4004 61.9043 47.8586 61.41 47.1904 61.41H46.7497C46.6729 49.8887 39.3098 40.5439 30.2622 40.5439C21.2152 40.5439 13.8521 49.8887 13.7754 61.41H13.3346C12.6664 61.41 12.1246 61.9043 12.1246 62.514C12.1246 70.7115 15.5059 78.3193 20.8741 82.5013C19.9075 83.2614 19.2966 84.4166 19.2966 85.6867V88.2278H13.3086C12.6404 88.2278 12.0986 88.7221 12.0986 89.3318V98.256C12.0986 98.8657 12.6404 99.36 13.3086 99.36ZM101.946 69.1051C104.445 69.1051 106.479 70.9616 106.479 73.244C106.479 75.5264 104.445 77.3829 101.946 77.3829H98.4998C99.6646 74.8339 100.448 72.0401 100.813 69.1051H101.946V69.1051ZM58.0863 65.4125V62.3609H98.6349V65.4125C98.6349 75.6865 92.7639 84.9352 84.3311 87.9917H72.3901C63.9573 84.9352 58.0863 75.6865 58.0863 65.4125ZM30.2622 42.7519C37.978 42.7519 44.2569 51.106 44.3299 61.41H16.1951C16.2681 51.106 22.5471 42.7519 30.2622 42.7519ZM23.8406 81.786C18.4452 78.5101 14.8743 71.4597 14.5665 63.618H45.9585C45.6507 71.4597 42.0798 78.5101 36.6844 81.786C36.2667 82.0399 36.0641 82.503 36.1752 82.9498C36.2862 83.3967 36.6886 83.7342 37.1855 83.7983C38.1107 83.9175 38.8084 84.7293 38.8084 85.6867V88.2278H21.7166V85.6867C21.7166 84.7293 22.4144 83.9175 23.3396 83.7983C23.8365 83.7342 24.2388 83.3967 24.3499 82.9498C24.461 82.503 24.2583 82.0399 23.8406 81.786ZM14.5186 90.4358H106.479V97.152H14.5186V90.4358V90.4358Z" fill="#B28D5C"/>
</svg>
