<svg width="23" height="23" viewBox="0 0 23 23" fill="none" xmlns="http://www.w3.org/2000/svg">
<path d="M19.2625 4.21667C18.6633 3.89543 14.9377 1.88983 12.8903 0.605283C12.5407 0.2346 12.0485 0 11.5 0C10.9514 0 10.4592 0.2346 10.1096 0.605283C8.06188 1.88945 4.33665 3.89543 3.7375 4.21667H0V23H23V4.21667H19.2625ZM12.3521 1.15153C12.3537 1.15345 12.3541 1.15575 12.356 1.15767C12.4491 1.26232 12.5519 1.42063 12.6078 1.6238C12.6124 1.64105 12.6201 1.65715 12.6239 1.67517C12.64 1.74953 12.65 1.83003 12.65 1.91667C12.65 2.5507 12.134 3.06667 11.5 3.06667C10.866 3.06667 10.35 2.5507 10.35 1.91667C10.35 1.83003 10.36 1.74953 10.3764 1.67517C10.3803 1.65753 10.3876 1.64182 10.3922 1.62457C10.4481 1.42063 10.5509 1.2627 10.644 1.15767C10.6455 1.15575 10.6459 1.15345 10.6479 1.15153C10.8587 0.917317 11.1607 0.766667 11.5 0.766667C11.8392 0.766667 12.1413 0.917317 12.3521 1.15153ZM9.58563 1.82237C9.5841 1.8538 9.58333 1.88523 9.58333 1.91667C9.58333 2.97352 10.4431 3.83333 11.5 3.83333C12.5568 3.83333 13.4167 2.97352 13.4167 1.91667C13.4167 1.88523 13.4159 1.8538 13.4144 1.82237C14.7917 2.64117 16.4944 3.58455 17.6529 4.21667H5.34712C6.50555 3.58455 8.20832 2.64117 9.58563 1.82237ZM3.83333 4.98333H19.1667H22.2333V6.9H0.766667V4.98333H3.83333ZM0.766667 22.2333V7.66667H22.2333V22.2333H0.766667Z" fill="#B28D5C"/>
<path d="M8.81644 11.1168C9.02815 11.1168 9.19977 10.9451 9.19977 10.7334C9.19977 10.5217 9.02815 10.3501 8.81644 10.3501C8.60473 10.3501 8.43311 10.5217 8.43311 10.7334C8.43311 10.9451 8.60473 11.1168 8.81644 11.1168Z" fill="#B28D5C"/>
<path d="M11.5 11.1168C11.7117 11.1168 11.8834 10.9451 11.8834 10.7334C11.8834 10.5217 11.7117 10.3501 11.5 10.3501C11.2883 10.3501 11.1167 10.5217 11.1167 10.7334C11.1167 10.9451 11.2883 11.1168 11.5 11.1168Z" fill="#B28D5C"/>
<path d="M14.1831 11.1168C14.3948 11.1168 14.5665 10.9451 14.5665 10.7334C14.5665 10.5217 14.3948 10.3501 14.1831 10.3501C13.9714 10.3501 13.7998 10.5217 13.7998 10.7334C13.7998 10.9451 13.9714 11.1168 14.1831 11.1168Z" fill="#B28D5C"/>
<path d="M16.8667 11.1168C17.0784 11.1168 17.2501 10.9451 17.2501 10.7334C17.2501 10.5217 17.0784 10.3501 16.8667 10.3501C16.655 10.3501 16.4834 10.5217 16.4834 10.7334C16.4834 10.9451 16.655 11.1168 16.8667 11.1168Z" fill="#B28D5C"/>
<path d="M19.5501 11.1168C19.7618 11.1168 19.9334 10.9451 19.9334 10.7334C19.9334 10.5217 19.7618 10.3501 19.5501 10.3501C19.3384 10.3501 19.1667 10.5217 19.1667 10.7334C19.1667 10.9451 19.3384 11.1168 19.5501 11.1168Z" fill="#B28D5C"/>
<path d="M3.45023 14.1832C3.66194 14.1832 3.83356 14.0115 3.83356 13.7998C3.83356 13.5881 3.66194 13.4165 3.45023 13.4165C3.23852 13.4165 3.06689 13.5881 3.06689 13.7998C3.06689 14.0115 3.23852 14.1832 3.45023 14.1832Z" fill="#B28D5C"/>
<path d="M6.13333 14.1832C6.34504 14.1832 6.51667 14.0115 6.51667 13.7998C6.51667 13.5881 6.34504 13.4165 6.13333 13.4165C5.92162 13.4165 5.75 13.5881 5.75 13.7998C5.75 14.0115 5.92162 14.1832 6.13333 14.1832Z" fill="#B28D5C"/>
<path d="M8.81644 14.1832C9.02815 14.1832 9.19977 14.0115 9.19977 13.7998C9.19977 13.5881 9.02815 13.4165 8.81644 13.4165C8.60473 13.4165 8.43311 13.5881 8.43311 13.7998C8.43311 14.0115 8.60473 14.1832 8.81644 14.1832Z" fill="#B28D5C"/>
<path d="M11.5 14.1832C11.7117 14.1832 11.8834 14.0115 11.8834 13.7998C11.8834 13.5881 11.7117 13.4165 11.5 13.4165C11.2883 13.4165 11.1167 13.5881 11.1167 13.7998C11.1167 14.0115 11.2883 14.1832 11.5 14.1832Z" fill="#B28D5C"/>
<path d="M14.1831 14.1832C14.3948 14.1832 14.5665 14.0115 14.5665 13.7998C14.5665 13.5881 14.3948 13.4165 14.1831 13.4165C13.9714 13.4165 13.7998 13.5881 13.7998 13.7998C13.7998 14.0115 13.9714 14.1832 14.1831 14.1832Z" fill="#B28D5C"/>
<path d="M16.8667 14.1832C17.0784 14.1832 17.2501 14.0115 17.2501 13.7998C17.2501 13.5881 17.0784 13.4165 16.8667 13.4165C16.655 13.4165 16.4834 13.5881 16.4834 13.7998C16.4834 14.0115 16.655 14.1832 16.8667 14.1832Z" fill="#B28D5C"/>
<path d="M19.5501 14.1832C19.7618 14.1832 19.9334 14.0115 19.9334 13.7998C19.9334 13.5881 19.7618 13.4165 19.5501 13.4165C19.3384 13.4165 19.1667 13.5881 19.1667 13.7998C19.1667 14.0115 19.3384 14.1832 19.5501 14.1832Z" fill="#B28D5C"/>
<path d="M3.45023 16.8668C3.66194 16.8668 3.83356 16.6951 3.83356 16.4834C3.83356 16.2717 3.66194 16.1001 3.45023 16.1001C3.23852 16.1001 3.06689 16.2717 3.06689 16.4834C3.06689 16.6951 3.23852 16.8668 3.45023 16.8668Z" fill="#B28D5C"/>
<path d="M6.13333 16.8668C6.34504 16.8668 6.51667 16.6951 6.51667 16.4834C6.51667 16.2717 6.34504 16.1001 6.13333 16.1001C5.92162 16.1001 5.75 16.2717 5.75 16.4834C5.75 16.6951 5.92162 16.8668 6.13333 16.8668Z" fill="#B28D5C"/>
<path d="M8.81644 16.8668C9.02815 16.8668 9.19977 16.6951 9.19977 16.4834C9.19977 16.2717 9.02815 16.1001 8.81644 16.1001C8.60473 16.1001 8.43311 16.2717 8.43311 16.4834C8.43311 16.6951 8.60473 16.8668 8.81644 16.8668Z" fill="#B28D5C"/>
<path d="M11.5 16.8668C11.7117 16.8668 11.8834 16.6951 11.8834 16.4834C11.8834 16.2717 11.7117 16.1001 11.5 16.1001C11.2883 16.1001 11.1167 16.2717 11.1167 16.4834C11.1167 16.6951 11.2883 16.8668 11.5 16.8668Z" fill="#B28D5C"/>
<path d="M14.1831 16.8668C14.3948 16.8668 14.5665 16.6951 14.5665 16.4834C14.5665 16.2717 14.3948 16.1001 14.1831 16.1001C13.9714 16.1001 13.7998 16.2717 13.7998 16.4834C13.7998 16.6951 13.9714 16.8668 14.1831 16.8668Z" fill="#B28D5C"/>
<path d="M16.8667 16.8668C17.0784 16.8668 17.2501 16.6951 17.2501 16.4834C17.2501 16.2717 17.0784 16.1001 16.8667 16.1001C16.655 16.1001 16.4834 16.2717 16.4834 16.4834C16.4834 16.6951 16.655 16.8668 16.8667 16.8668Z" fill="#B28D5C"/>
<path d="M19.5501 16.8668C19.7618 16.8668 19.9334 16.6951 19.9334 16.4834C19.9334 16.2717 19.7618 16.1001 19.5501 16.1001C19.3384 16.1001 19.1667 16.2717 19.1667 16.4834C19.1667 16.6951 19.3384 16.8668 19.5501 16.8668Z" fill="#B28D5C"/>
<path d="M3.45023 19.9332C3.66194 19.9332 3.83356 19.7615 3.83356 19.5498C3.83356 19.3381 3.66194 19.1665 3.45023 19.1665C3.23852 19.1665 3.06689 19.3381 3.06689 19.5498C3.06689 19.7615 3.23852 19.9332 3.45023 19.9332Z" fill="#B28D5C"/>
<path d="M6.13333 19.9332C6.34504 19.9332 6.51667 19.7615 6.51667 19.5498C6.51667 19.3381 6.34504 19.1665 6.13333 19.1665C5.92162 19.1665 5.75 19.3381 5.75 19.5498C5.75 19.7615 5.92162 19.9332 6.13333 19.9332Z" fill="#B28D5C"/>
<path d="M8.81644 19.9332C9.02815 19.9332 9.19977 19.7615 9.19977 19.5498C9.19977 19.3381 9.02815 19.1665 8.81644 19.1665C8.60473 19.1665 8.43311 19.3381 8.43311 19.5498C8.43311 19.7615 8.60473 19.9332 8.81644 19.9332Z" fill="#B28D5C"/>
<path d="M11.5 19.9332C11.7117 19.9332 11.8834 19.7615 11.8834 19.5498C11.8834 19.3381 11.7117 19.1665 11.5 19.1665C11.2883 19.1665 11.1167 19.3381 11.1167 19.5498C11.1167 19.7615 11.2883 19.9332 11.5 19.9332Z" fill="#B28D5C"/>
<path d="M14.1831 19.9332C14.3948 19.9332 14.5665 19.7615 14.5665 19.5498C14.5665 19.3381 14.3948 19.1665 14.1831 19.1665C13.9714 19.1665 13.7998 19.3381 13.7998 19.5498C13.7998 19.7615 13.9714 19.9332 14.1831 19.9332Z" fill="#B28D5C"/>
</svg>
