<svg width="18" height="18" viewBox="0 0 18 18" fill="none" xmlns="http://www.w3.org/2000/svg">
<g clip-path="url(#clip0)">
<path fill-rule="evenodd" clip-rule="evenodd" d="M11.1398 8.99907L17.5574 2.5814C18.1482 1.99064 18.1482 1.03284 17.5574 0.442174C16.9667 -0.148581 16.009 -0.148581 15.4182 0.442174L9.00047 6.85993L2.58271 0.442089C1.99196 -0.148665 1.03424 -0.148665 0.44349 0.442089C-0.147179 1.03284 -0.147179 1.99064 0.44349 2.58131L6.86124 8.99898L0.44349 15.4167C-0.147179 16.0075 -0.147179 16.9653 0.44349 17.556C1.03424 18.1467 1.99196 18.1467 2.58271 17.556L9.00047 11.1382L15.4182 17.556C16.0089 18.1467 16.9667 18.1467 17.5574 17.556C18.1482 16.9652 18.1482 16.0075 17.5574 15.4167L11.1398 8.99907Z" fill="#B28D5C"/>
</g>
<defs>
<clipPath id="clip0">
<rect width="18" height="18" fill="white"/>
</clipPath>
</defs>
</svg>
