<svg width="16" height="16" viewBox="0 0 16 16" fill="none" xmlns="http://www.w3.org/2000/svg">
<path d="M7.99987 0C3.58171 0 0 3.58182 0 7.99987C0 12.4179 3.58171 16 7.99987 16C12.418 16 16 12.4179 16 7.99987C16 3.58182 12.418 0 7.99987 0ZM11.4584 9.52144H8.0668C8.05533 9.52144 8.04467 9.51867 8.03331 9.51824C8.02195 9.51877 8.01133 9.52144 7.99981 9.52144C7.69426 9.52144 7.44652 9.2737 7.44652 8.96815V3.32C7.44652 3.01445 7.69426 2.76671 7.99981 2.76671C8.30537 2.76671 8.5531 3.01445 8.5531 3.32V8.41486H11.4582C11.7638 8.41486 12.0115 8.6626 12.0115 8.96815C12.0115 9.2737 11.764 9.52144 11.4584 9.52144Z" fill="white"/>
</svg>
