<svg width="18" height="18" viewBox="0 0 18 18" fill="none" xmlns="http://www.w3.org/2000/svg">
<path d="M13.4999 0.0037452L11.1657 0C8.54339 0 6.8487 1.73871 6.8487 4.42982V6.47227H4.50179C4.29899 6.47227 4.13477 6.63668 4.13477 6.83949V9.79876C4.13477 10.0016 4.29918 10.1658 4.50179 10.1658H6.8487V17.633C6.8487 17.8358 7.01292 18 7.21572 18H10.2778C10.4806 18 10.6448 17.8356 10.6448 17.633V10.1658H13.3889C13.5917 10.1658 13.7559 10.0016 13.7559 9.79876L13.757 6.83949C13.757 6.74211 13.7183 6.64886 13.6495 6.57994C13.5808 6.51103 13.4872 6.47227 13.3898 6.47227H10.6448V4.74086C10.6448 3.90868 10.8431 3.48622 11.9271 3.48622L13.4995 3.48566C13.7022 3.48566 13.8664 3.32124 13.8664 3.11863V0.370775C13.8664 0.168347 13.7023 0.00411972 13.4999 0.0037452Z" fill="white"/>
</svg>
