<svg width="118" height="118" viewBox="0 0 118 118" fill="none" xmlns="http://www.w3.org/2000/svg">
<path d="M17.2852 118H100.715C110.246 118 118 110.246 118 100.715V17.2852C118 7.75401 110.246 0 100.715 0H17.2852C7.75401 0 0 7.75401 0 17.2852V100.715C0 110.246 7.75401 118 17.2852 118ZM6.91406 17.2852C6.91406 11.5667 11.5667 6.91406 17.2852 6.91406H100.715C106.433 6.91406 111.086 11.5667 111.086 17.2852V100.715C111.086 106.433 106.433 111.086 100.715 111.086H17.2852C11.5667 111.086 6.91406 106.433 6.91406 100.715V17.2852Z" fill="#222222"/>
<path d="M59 90.1133C76.1555 90.1133 90.1133 76.1555 90.1133 59C90.1133 41.8445 76.1555 27.8867 59 27.8867C41.8445 27.8867 27.8867 41.8445 27.8867 59C27.8867 76.1555 41.8445 90.1133 59 90.1133ZM59 34.8008C72.3438 34.8008 83.1992 45.6562 83.1992 59C83.1992 72.3438 72.3438 83.1992 59 83.1992C45.6562 83.1992 34.8008 72.3438 34.8008 59C34.8008 45.6562 45.6562 34.8008 59 34.8008Z" fill="#222222"/>
<path d="M93.5703 34.8008C99.2888 34.8008 103.941 30.1482 103.941 24.4297C103.941 18.7112 99.2888 14.0586 93.5703 14.0586C87.8518 14.0586 83.1992 18.7112 83.1992 24.4297C83.1992 30.1482 87.8518 34.8008 93.5703 34.8008ZM93.5703 20.9727C95.4762 20.9727 97.0273 22.5238 97.0273 24.4297C97.0273 26.3356 95.4762 27.8867 93.5703 27.8867C91.6644 27.8867 90.1133 26.3356 90.1133 24.4297C90.1133 22.5238 91.6644 20.9727 93.5703 20.9727Z" fill="#222222"/>
</svg>
