<svg width="217" height="434" viewBox="0 0 217 434" fill="none" xmlns="http://www.w3.org/2000/svg">
<path d="M433 217L429.98 214.578C427.967 212.963 384.084 177.234 348.453 169.361C353.888 160.075 356.908 149.377 356.908 137.871C356.908 103.554 329.128 75.8995 294.907 75.8995C283.634 75.8995 272.965 78.9274 263.907 84.1758C255.653 48.6484 220.627 5.04651 219.016 3.02791L216.399 0L213.984 3.02791C212.373 5.04651 176.944 49.0521 168.892 84.5795C159.632 79.1293 148.762 75.8995 137.288 75.8995C103.066 75.8995 75.4881 103.756 75.4881 137.871C75.4881 149.377 78.709 160.075 84.1441 169.361C48.715 177.637 5.23384 212.761 3.22083 214.578L0 217L3.01953 219.422C5.03254 221.037 48.715 256.363 84.1441 264.639C78.5077 273.925 75.2868 284.825 75.2868 296.331C75.2868 330.647 103.066 358.302 137.086 358.302C148.762 358.302 159.431 355.073 168.892 349.622C177.146 385.15 212.172 428.954 213.984 430.972L216.399 434L218.815 430.972C220.425 428.954 255.452 385.553 263.705 350.026C272.764 355.274 283.433 358.504 294.706 358.504C328.927 358.504 356.707 330.647 356.707 296.533C356.707 285.027 353.486 274.127 348.051 264.841C383.681 256.968 427.766 221.239 429.779 219.422L433 217ZM265.316 91.0391C273.972 85.5888 284.037 82.3591 294.907 82.3591C325.505 82.3591 350.466 107.188 350.466 138.073C350.466 149.175 347.245 159.47 341.609 168.352C339.395 168.15 337.382 167.948 335.369 167.948C325.706 167.948 316.044 170.976 306.583 177.234C305.576 177.839 304.771 178.445 303.966 179.252C301.55 174.811 298.933 170.572 295.712 166.535C298.933 149.175 304.167 135.045 311.011 127.374C311.212 127.172 324.096 109.61 324.096 109.61C324.096 109.61 306.985 122.731 306.583 122.933C298.329 130.604 282.225 136.054 263.101 139.284C259.277 137.265 255.251 135.448 251.225 134.035C254.043 131.007 256.66 127.778 258.874 123.942C263.504 115.666 265.92 107.188 265.92 98.7098C265.718 95.6819 265.517 93.2595 265.316 91.0391ZM292.693 282.807C294.504 289.064 296.517 294.716 298.732 299.561C293.9 297.34 288.264 295.322 282.024 293.505C282.225 293.303 282.426 293.101 282.628 292.9C286.251 289.67 289.673 286.238 292.693 282.807ZM252.231 305.011C240.958 309.654 229.685 312.076 218.412 312.076C217.607 312.076 216.802 312.076 215.997 312.076C181.574 311.067 154.801 296.129 136.885 267.667C129.236 255.555 125.008 241.829 124.404 227.093C123.197 196.007 135.476 170.572 160.84 151.395C174.73 140.899 190.431 134.843 207.542 133.632C210.562 133.43 213.38 133.228 216.198 133.228C248.004 133.228 273.972 146.551 293.297 172.793C295.511 175.82 297.121 178.647 298.53 181.473C298.329 181.473 298.329 181.473 298.128 181.473C296.517 181.473 295.31 182.684 294.102 183.491C284.641 189.345 276.387 196.612 268.134 204.283C256.861 214.578 246.997 226.487 236.731 237.792C233.309 241.425 229.887 245.26 226.062 248.692C227.471 246.472 229.081 244.251 230.692 242.031C237.939 232.341 242.971 221.239 248.406 210.54C253.439 200.851 259.277 191.969 268.335 185.308C268.738 184.904 269.543 184.702 269.14 183.895C268.738 183.087 268.134 183.289 267.53 183.491C262.095 184.702 257.264 187.327 252.835 190.354C246.796 194.19 241.159 198.833 235.724 203.475C228.276 209.935 221.633 217 215.393 224.469C209.152 231.938 204.321 240.618 198.282 248.288C191.237 256.968 182.983 263.63 171.912 266.052C163.054 268.071 155.204 265.85 148.963 258.987C146.95 256.968 145.34 254.546 144.535 251.518C153.996 255.757 163.457 256.161 172.717 252.729C184.996 248.087 194.86 240.618 197.88 226.891C200.094 216.394 197.074 207.109 186.003 203.072C185.198 202.668 184.392 202.264 183.788 201.457C179.159 194.795 172.918 191.767 164.665 191.767C149.97 191.767 138.294 201.86 133.664 214.174C131.651 219.422 131.249 224.873 131.45 230.525C131.651 237.993 134.47 244.049 140.307 248.692C141.314 249.5 142.119 250.509 142.723 251.922C143.528 254.344 144.736 256.565 146.346 258.583C151.58 265.447 158.424 269.282 167.08 268.878C175.132 268.474 182.782 266.254 190.23 262.419C202.51 255.959 212.977 247.279 221.231 236.177C226.263 229.515 230.49 222.248 235.12 215.183C239.348 208.724 243.575 202.062 249.212 196.814C253.238 192.979 257.666 189.345 263.101 187.125C256.056 193.786 250.017 201.053 245.186 209.531C239.348 219.826 234.315 230.525 227.874 240.618C222.841 248.692 218.01 256.968 210.562 263.226C210.36 263.428 210.159 263.428 210.159 263.63C209.958 263.832 209.756 264.235 209.958 264.639C210.159 265.043 210.763 265.043 211.166 265.043C211.769 264.841 212.172 264.639 212.575 264.235C215.594 261.611 218.815 259.189 221.834 256.565C232.101 247.279 241.159 236.782 250.419 226.689C259.881 216.193 269.744 206.1 280.615 196.814C283.232 194.594 285.848 192.575 288.667 190.354C281.822 197.42 275.179 204.283 268.738 211.55C259.881 221.845 251.023 232.14 245.186 244.655C242.77 249.5 241.361 254.748 241.562 260.198C241.763 265.648 245.789 268.273 250.822 265.648C254.043 264.034 256.458 261.409 258.673 258.583C259.075 257.978 259.881 257.17 259.075 255.354C257.867 256.565 257.062 257.776 256.257 258.785C254.244 260.804 252.432 262.822 249.614 264.034C246.595 265.245 244.783 264.437 243.978 261.207C243.776 260.198 243.776 258.987 243.978 257.978C244.783 254.344 246.192 250.913 248.004 247.481C255.049 234.562 263.907 222.854 273.166 211.55C280.413 202.668 288.063 193.988 296.517 186.115C297.725 185.106 299.336 184.299 300.141 182.886C303.764 189.547 306.381 196.814 308.193 205.292C312.219 225.276 309.602 244.655 300.342 262.419C289.069 281.999 273.166 296.331 252.231 305.011ZM219.218 317.728C218.412 319.545 217.808 321.362 217.205 322.977C216.601 321.16 215.997 319.545 215.192 317.728C215.393 317.728 215.795 317.728 215.997 317.728C217.003 317.93 218.01 317.93 219.218 317.728ZM150.976 293.505C144.937 295.12 139.301 297.139 134.47 299.561C136.684 294.716 138.697 289.064 140.509 282.807C143.528 286.642 147.152 290.275 150.976 293.505ZM123.398 191.767C112.326 188.941 102.463 182.684 95.2157 174.206C96.0209 174.206 96.8261 174.206 97.6313 174.206C106.086 174.206 114.541 177.032 122.995 182.482C124.203 183.289 125.21 184.097 126.216 184.904C125.21 186.923 124.203 189.345 123.398 191.767ZM118.365 219.826C115.95 218.817 113.534 217.807 111.32 217C113.735 216.193 115.95 215.183 118.365 214.174V219.826ZM122.995 251.922C114.742 257.372 106.086 260.198 97.8326 260.198C97.0274 260.198 96.4235 260.198 95.6183 260.198C102.261 252.527 110.917 246.875 120.781 243.646C121.385 246.27 121.989 249.096 122.995 251.922ZM142.522 160.075C140.509 150.588 137.69 141.908 134.47 134.843C141.918 138.476 151.379 141.302 161.847 143.321C154.6 147.964 148.158 153.616 142.522 160.075ZM210.36 127.576C213.38 121.924 215.997 116.473 217.808 111.427C219.62 116.675 222.036 122.126 225.055 127.576H210.36ZM280.615 150.386C277.595 147.762 274.374 145.541 271.153 143.523C281.621 141.302 291.082 138.476 298.53 134.843C295.31 141.908 292.491 150.386 290.478 160.075C287.459 156.644 284.238 153.414 280.615 150.386ZM140.71 246.472C137.489 244.251 135.476 241.425 134.268 237.993C130.645 227.093 132.658 217 139.301 207.916C142.723 203.072 147.152 199.236 152.788 197.218C160.639 194.19 168.691 193.382 176.34 198.025C177.749 198.833 178.957 199.842 180.165 201.659C167.886 201.255 157.619 205.09 149.97 214.578C142.32 223.863 139.301 234.36 140.71 246.472ZM163.054 208.32C168.49 205.09 174.73 204.485 180.97 204.687C182.581 204.687 182.983 205.898 183.386 207.109C185.198 213.367 184.191 219.019 180.97 224.671C178.353 229.314 174.529 232.543 169.496 234.158C168.691 234.36 167.483 234.562 167.886 235.571C168.087 236.782 169.295 236.58 170.301 236.177C176.542 234.158 180.97 230.121 183.788 224.267C186.405 218.817 187.211 213.367 185.801 207.513C185.6 207.109 185.399 206.503 185.801 206.1C186.204 205.898 186.808 206.1 187.211 206.301C191.841 208.926 195.263 212.559 195.867 218.009C196.672 226.084 194.256 233.351 188.821 239.407C180.97 248.288 170.905 252.729 159.23 252.729C158.626 252.729 158.223 252.729 157.619 252.729C153.392 252.729 149.366 251.72 145.34 249.903C143.528 249.096 142.723 247.885 142.522 245.866C140.911 228.708 148.963 216.798 163.054 208.32ZM312.219 243.646C321.881 246.875 330.336 252.527 336.778 259.996C336.174 259.996 335.771 259.996 335.167 259.996C326.713 259.996 318.258 257.17 309.803 251.72C310.206 250.509 310.609 249.096 311.011 247.885C311.615 246.472 312.018 245.059 312.219 243.646ZM314.635 214.578L314.433 213.367C317.251 214.78 320.271 215.991 323.089 216.798C320.271 217.807 317.453 218.817 314.635 220.23V214.578ZM306.583 184.702C307.589 183.895 308.797 183.087 309.803 182.28C318.057 176.83 326.713 174.004 335.167 174.004C335.771 174.004 336.375 174.004 336.979 174.004C329.732 182.482 320.271 188.538 309.199 191.566C308.596 189.345 307.589 186.923 306.583 184.702ZM259.478 98.1042C259.478 105.573 257.465 113.042 253.238 120.309C250.822 124.548 247.802 128.181 244.38 131.411C242.971 131.007 241.562 130.604 240.153 130.402C242.166 116.473 249.212 104.16 259.478 95.6819C259.277 96.2875 259.478 97.0949 259.478 98.1042ZM216.399 10.093C224.854 20.9935 252.432 58.5395 258.27 87.8093C245.186 97.4986 236.127 112.033 233.711 128.787C233.51 128.787 233.51 128.787 233.309 128.787C225.659 116.07 221.029 103.756 221.029 93.8651L217.607 28.0586L214.386 93.8651C214.386 103.756 209.756 115.868 202.308 128.383C201.1 128.585 199.893 128.787 198.483 128.989C196.068 112.436 187.211 98.1042 174.529 88.4149C180.165 59.1451 207.945 21.1954 216.399 10.093ZM173.723 95.8837C183.587 104.564 190.431 116.675 192.243 130.402C191.035 130.604 190.029 131.007 188.821 131.411C185.399 128.383 182.178 124.548 179.762 120.309C175.535 113.042 173.522 105.573 173.522 98.1042C173.522 97.2967 173.723 96.6912 173.723 95.8837ZM81.9298 137.871C81.9298 107.188 106.69 82.1572 137.489 82.1572C148.762 82.1572 159.23 85.5888 167.886 91.2409C167.684 93.4614 167.483 95.6819 167.483 97.9023C167.483 106.38 169.899 114.859 174.529 123.135C176.743 126.97 179.159 130.2 182.178 133.228C177.951 134.641 173.925 136.458 170.1 138.476C150.775 135.247 134.872 129.796 126.619 122.126C126.417 121.722 108.099 107.995 108.099 107.995C108.099 107.995 121.788 126.163 122.19 126.567C129.236 134.237 134.268 148.569 137.69 165.929C135.476 168.755 133.463 171.783 131.45 175.013C130.645 176.224 130.041 177.435 129.437 178.647C128.632 178.041 127.625 177.233 126.82 176.83C117.359 170.774 107.696 167.544 98.0339 167.544C95.8196 167.544 93.404 167.746 90.9884 167.948C85.1506 159.47 81.9298 149.175 81.9298 137.871ZM10.0651 217C20.9354 208.522 58.5788 180.867 87.7675 175.013C96.0209 185.913 107.898 194.19 121.586 197.823C120.781 200.649 120.177 203.475 119.775 206.301C110.313 210.944 101.255 213.77 93.6053 213.77L27.9809 217L94.2092 220.432C101.456 220.432 109.709 222.854 118.567 227.093V230.928L118.768 231.736C118.768 232.14 118.969 232.341 118.969 232.745C119.171 234.36 119.372 235.773 119.573 237.388C106.891 241.223 96.0209 248.894 88.1702 259.189C58.7801 253.335 21.1367 225.68 10.0651 217ZM167.684 342.961C159.028 348.815 148.561 352.045 137.288 352.045C106.69 352.045 81.7285 327.216 81.7285 296.331C81.7285 285.027 85.1506 274.53 90.7871 265.85C93.2027 266.052 95.417 266.254 97.6313 266.254C106.891 266.254 116.151 263.428 125.21 257.776C126.216 260.4 127.424 262.822 128.833 265.245C130.846 269.08 133.06 272.714 135.677 276.347C132.255 290.477 127.424 301.781 121.184 308.039L108.099 325.803L125.612 312.48C131.853 306.222 142.924 301.378 157.015 298.148C160.035 300.368 163.054 302.387 166.275 304.204C169.295 306.02 172.516 307.434 175.535 308.847C170.1 317.728 167.282 326.812 167.282 335.896C167.282 338.318 167.483 340.74 167.684 342.961ZM173.522 336.098C173.522 327.821 176.139 319.545 181.373 311.471C184.191 312.48 187.009 313.489 189.828 314.297C186.607 323.784 180.97 332.06 173.723 338.52C173.723 337.713 173.522 336.905 173.522 336.098ZM216.399 424.109C207.945 413.007 180.165 375.46 174.529 346.191C184.392 338.722 192.042 328.225 196.068 316.114C199.893 316.921 203.919 317.527 207.743 317.728C211.568 326.005 213.581 333.877 213.581 340.74L217.003 406.547L220.425 340.74C220.425 333.877 222.64 326.005 226.464 317.527C228.276 317.325 230.088 317.123 231.698 316.921C233.107 316.719 234.718 316.517 236.127 316.114C240.153 328.427 248.004 339.126 258.27 346.594C252.432 375.662 224.854 413.007 216.399 424.109ZM259.277 339.126C251.627 332.666 245.789 324.188 242.367 314.499C245.588 313.691 248.608 312.682 251.627 311.673C256.66 319.747 259.277 328.023 259.277 336.3C259.478 337.107 259.277 338.116 259.277 339.126ZM350.466 296.533C350.466 327.216 325.706 352.045 294.907 352.045C284.037 352.045 273.77 348.815 265.114 343.365C265.517 340.942 265.718 338.52 265.718 336.098C265.718 327.014 262.9 317.93 257.666 309.048C264.108 306.222 270.348 302.589 276.186 298.148C290.076 301.58 300.946 306.828 307.589 312.48C311.816 316.114 325.505 325.601 325.505 325.601C325.505 325.601 315.641 312.278 312.018 308.039C306.18 301.378 300.946 290.477 297.524 276.347C301.55 270.493 304.972 264.437 307.79 257.776C316.849 263.428 326.109 266.254 335.369 266.254C337.382 266.254 339.395 266.052 341.609 265.85C347.044 274.732 350.466 285.229 350.466 296.533ZM344.427 259.189C336.778 248.894 325.907 241.223 313.427 237.388C313.628 236.379 313.829 235.369 314.031 234.158C314.232 233.149 314.433 231.938 314.635 230.928V227.699C323.894 223.056 332.752 220.432 340.2 220.432L406.428 217.202L340.804 213.77C332.752 213.77 323.291 210.742 313.225 205.494C312.823 203.072 312.219 200.649 311.615 198.429C311.615 198.227 311.414 198.025 311.414 197.823C324.901 194.19 336.576 186.115 344.629 175.013C373.817 180.463 411.863 208.522 422.935 217C411.863 225.68 373.616 253.739 344.427 259.189Z" fill="#F7F5F4"/>
</svg>
