<svg width="109" height="147" viewBox="0 0 109 147" fill="none" xmlns="http://www.w3.org/2000/svg">
<path d="M23.2595 131.789C23.2595 131.89 23.2088 131.941 23.1581 131.991C23.1075 132.042 23.0568 132.093 22.9554 132.093L20.6751 131.991L18.6481 132.093C18.4454 132.093 18.3441 131.991 18.3441 131.84C18.3441 131.688 18.3948 131.587 18.5468 131.537L18.9015 131.486C19.4589 131.436 19.763 131.132 19.763 130.678L19.6109 121.076C19.6109 120.925 19.5603 120.874 19.5096 120.874C19.4589 120.874 19.4589 120.874 19.4082 120.925L13.8848 131.941C13.8341 132.042 13.7327 132.143 13.6314 132.143C13.53 132.143 13.4794 132.093 13.4287 131.941L7.90522 121.279C7.90522 121.228 7.85455 121.228 7.80387 121.228C7.70253 121.228 7.70253 121.279 7.70253 121.43L7.60118 130.678C7.60118 131.132 7.85455 131.385 8.41196 131.486L8.76668 131.537C8.9187 131.587 9.02005 131.638 9.02005 131.84C9.02005 132.042 8.9187 132.093 8.71601 132.093L7.04376 132.042L5.06747 132.093C4.86478 132.093 4.76343 131.991 4.76343 131.84C4.76343 131.688 4.8141 131.587 4.96612 131.537L5.57421 131.486C6.1823 131.436 6.48635 131.132 6.48635 130.678L6.73972 119.156C6.73972 118.701 6.48635 118.398 5.92893 118.348L5.57421 118.297C5.42219 118.247 5.32084 118.196 5.32084 117.994C5.32084 117.842 5.42219 117.741 5.62489 117.741L7.39848 117.792C7.85455 117.792 8.15859 117.943 8.25994 118.196L13.9861 129.515L19.7123 118.247C19.8136 117.994 20.1177 117.893 20.6244 117.842L22.4487 117.792C22.6514 117.792 22.7527 117.893 22.7527 118.044C22.7527 118.196 22.6514 118.297 22.4994 118.348L22.1446 118.398C21.6379 118.449 21.3339 118.701 21.3339 119.207L21.5872 130.728C21.5872 130.981 21.6886 131.183 21.8406 131.284C21.9926 131.385 22.246 131.486 22.4994 131.537L23.1075 131.587C23.2088 131.537 23.2595 131.638 23.2595 131.789Z" fill="#222222"/>
<path d="M25.033 132.092C24.8303 132.092 24.729 131.991 24.729 131.84C24.729 131.688 24.7797 131.587 24.9317 131.537L25.2864 131.486C25.8438 131.436 26.0972 131.132 26.0972 130.678V119.156C26.0972 118.651 25.7931 118.398 25.1851 118.348L24.577 118.297C24.4249 118.247 24.3743 118.196 24.3743 118.044C24.3743 117.842 24.4756 117.741 24.6783 117.741L26.9586 117.842L28.9856 117.741C29.1883 117.741 29.2897 117.842 29.2897 117.994C29.2897 118.196 29.1883 118.297 29.0363 118.297L28.6816 118.348C28.1242 118.449 27.8708 118.701 27.8708 119.156V130.678C27.8708 130.93 27.9721 131.132 28.1242 131.233C28.2762 131.385 28.5295 131.436 28.7829 131.486L29.391 131.537C29.543 131.537 29.6444 131.638 29.6444 131.789C29.6444 131.89 29.5937 131.941 29.543 131.991C29.4924 132.042 29.4417 132.092 29.3403 132.092L27.06 131.991L25.033 132.092Z" fill="#222222"/>
<path d="M40.7927 128.353C40.7927 129.616 40.3367 130.577 39.3739 131.233C38.4111 131.89 37.2456 132.244 35.8774 132.244C34.5092 132.244 33.3943 132.093 32.5329 131.739C31.6714 131.436 31.2153 131.082 31.2153 130.678V128.303C31.2153 127.999 31.3167 127.898 31.5194 127.898C31.6714 127.898 31.8234 128.05 31.8741 128.303C32.2288 129.364 32.6849 130.122 33.2423 130.627C33.7997 131.132 34.6105 131.385 35.624 131.385C36.6375 131.385 37.4482 131.132 38.107 130.678C38.7151 130.223 39.0698 129.566 39.0698 128.757C39.0698 127.848 38.5631 127.14 37.5496 126.483C37.0935 126.231 36.5868 125.928 36.08 125.675C35.5226 125.422 35.0159 125.17 34.4585 124.866C33.9011 124.614 33.445 124.31 32.9889 123.957C31.9754 123.249 31.4687 122.289 31.4687 121.177C31.4687 120.066 31.8741 119.156 32.7356 118.499C33.597 117.842 34.6105 117.539 35.776 117.539C36.9415 117.539 37.9043 117.691 38.7658 117.994C39.5766 118.297 39.982 118.6 39.982 118.954V120.975C39.982 121.228 39.8806 121.38 39.6779 121.38C39.4752 121.38 39.3232 121.228 39.2218 120.975C38.9178 120.116 38.5631 119.459 38.107 119.055C37.6509 118.651 36.9415 118.449 36.0294 118.449C35.1172 118.449 34.4078 118.651 33.8504 119.106C33.3436 119.56 33.0396 120.066 33.0396 120.723C33.0396 121.38 33.293 121.935 33.8504 122.39C34.3571 122.845 35.0159 123.249 35.776 123.603C36.5361 123.957 37.2962 124.31 38.0057 124.715C38.7658 125.119 39.3739 125.574 39.9313 126.18C40.5394 126.837 40.7927 127.545 40.7927 128.353Z" fill="#222222"/>
<path d="M57.2618 131.537C57.4139 131.537 57.4645 131.638 57.4645 131.789C57.4645 131.991 57.3632 132.042 57.1605 132.042L54.8802 131.941L52.9039 132.042C52.7012 132.042 52.5998 131.941 52.5998 131.739C52.5998 131.587 52.6505 131.486 52.8025 131.486L53.1572 131.436C53.7146 131.385 53.968 131.082 53.968 130.627V125.624C53.968 125.372 53.8667 125.22 53.6133 125.22H46.2655C46.1642 125.22 46.1135 125.271 46.0122 125.321C45.9615 125.372 45.9108 125.473 45.9108 125.574V130.577C45.9108 131.082 46.1642 131.335 46.7216 131.385L47.0763 131.436C47.2284 131.486 47.3297 131.537 47.3297 131.688C47.3297 131.789 47.279 131.84 47.2284 131.89C47.1777 131.941 47.0763 131.991 47.0257 131.991L44.9987 131.89L42.7184 131.991C42.5157 131.991 42.4143 131.89 42.4143 131.739C42.4143 131.537 42.465 131.486 42.617 131.486L43.2251 131.436C43.4785 131.385 43.7318 131.335 43.8839 131.183C44.0359 131.031 44.1372 130.829 44.1372 130.627V119.106C44.1372 118.6 43.8332 118.348 43.2251 118.297L42.617 118.247C42.465 118.247 42.4143 118.145 42.4143 117.994C42.4143 117.792 42.5157 117.741 42.7184 117.741L44.9987 117.842L47.0257 117.741C47.2284 117.741 47.3297 117.842 47.3297 117.994C47.3297 118.196 47.2284 118.297 47.0763 118.297L46.7216 118.348C46.1642 118.449 45.9108 118.701 45.9108 119.156V123.906C45.9108 124.159 46.0628 124.31 46.3162 124.31H53.664C53.9173 124.31 54.0694 124.209 54.0694 123.957V119.156C54.0694 118.701 53.816 118.449 53.2586 118.348L52.9039 118.297C52.7518 118.247 52.7012 118.196 52.7012 118.044C52.7012 117.842 52.8025 117.741 53.0052 117.741L54.9815 117.842L57.2618 117.741C57.4645 117.741 57.5659 117.842 57.5659 117.994C57.5659 118.196 57.5152 118.247 57.3632 118.247L56.7551 118.297C56.147 118.348 55.843 118.6 55.843 119.106V130.627C55.843 131.132 56.147 131.385 56.7551 131.436L57.2618 131.537Z" fill="#222222"/>
<path d="M59.3394 132.092C59.1367 132.092 59.0354 131.991 59.0354 131.84C59.0354 131.688 59.0861 131.587 59.2381 131.537L59.5928 131.486C60.1502 131.436 60.4036 131.132 60.4036 130.678V119.156C60.4036 118.651 60.0995 118.398 59.4914 118.348L58.8834 118.297C58.7313 118.247 58.6807 118.196 58.6807 118.044C58.6807 117.842 58.782 117.741 58.9847 117.741L61.265 117.842L63.292 117.741C63.4947 117.741 63.596 117.842 63.596 117.994C63.596 118.196 63.4947 118.297 63.3427 118.297L62.988 118.348C62.4305 118.449 62.1772 118.701 62.1772 119.156V130.678C62.1772 130.93 62.2785 131.132 62.4305 131.233C62.5826 131.385 62.8359 131.436 63.0893 131.486L63.6974 131.537C63.8494 131.537 63.9508 131.638 63.9508 131.789C63.9508 131.89 63.9001 131.941 63.8494 131.991C63.7987 132.042 63.7481 132.092 63.6467 132.092L61.3664 131.991L59.3394 132.092Z" fill="#222222"/>
<path d="M68.6635 119.156V130.122C68.6635 130.425 68.7649 130.627 68.9169 130.779C69.1196 130.931 69.3223 131.032 69.6263 131.032H72.5654C73.2748 131.032 73.8829 130.88 74.3897 130.526C74.8964 130.173 75.2511 129.667 75.4538 129.01C75.5045 128.808 75.6565 128.707 75.8592 128.707C76.0619 128.707 76.1633 128.808 76.1633 129.061L75.8592 131.183C75.8086 131.436 75.7579 131.587 75.5552 131.739C75.4032 131.891 75.2005 131.992 74.9471 131.992H67.7514L65.471 132.093C65.2683 132.093 65.167 131.992 65.167 131.84C65.167 131.689 65.2177 131.587 65.3697 131.587L65.9778 131.537C66.2311 131.486 66.4845 131.436 66.6365 131.284C66.7886 131.133 66.8899 130.931 66.8899 130.728V119.207C66.8899 118.702 66.5859 118.449 65.9778 118.398L65.3697 118.348C65.2177 118.297 65.167 118.247 65.167 118.095C65.167 117.893 65.2683 117.792 65.471 117.792L67.7514 117.893L69.7783 117.792C69.981 117.792 70.0824 117.893 70.0824 118.045C70.0824 118.247 69.981 118.348 69.829 118.348L69.4743 118.398C68.9169 118.449 68.6635 118.702 68.6635 119.156Z" fill="#222222"/>
<path d="M87.4128 131.992H79.8117L77.5313 132.093C77.3286 132.093 77.2273 131.992 77.2273 131.84C77.2273 131.689 77.278 131.588 77.43 131.588L78.0381 131.537C78.2915 131.487 78.5448 131.436 78.6968 131.284C78.8489 131.133 78.9502 130.931 78.9502 130.729V119.207C78.9502 118.702 78.6462 118.449 78.0381 118.399L77.43 118.348C77.278 118.348 77.2273 118.247 77.2273 118.095C77.2273 117.893 77.3286 117.843 77.5313 117.843L79.8117 117.944H87.0074C87.2608 117.944 87.4635 118.045 87.6155 118.197C87.7675 118.348 87.8689 118.55 87.9195 118.752L88.2236 120.622C88.2743 120.875 88.1729 120.976 87.9195 120.976C87.7168 120.976 87.5648 120.875 87.4635 120.673C87.2608 120.016 86.9567 119.561 86.5513 119.308C86.1459 119.056 85.5885 118.904 84.8791 118.904H81.6866C81.3826 118.904 81.1292 119.005 80.9772 119.157C80.7745 119.308 80.7238 119.561 80.7238 119.864V124.109C80.7238 124.26 80.8252 124.362 80.9772 124.362H84.7777C84.9804 124.362 85.1325 124.311 85.2338 124.21C85.3352 124.109 85.4365 124.008 85.4365 123.957C85.4872 123.856 85.5378 123.705 85.5885 123.502L85.6899 123.25C85.7405 123.098 85.8419 122.997 85.9939 122.997C86.1459 122.997 86.2473 123.098 86.2473 123.3L86.1459 125.018L86.2473 126.635C86.2473 126.787 86.1459 126.888 85.9939 126.939C85.8419 126.939 85.7405 126.838 85.6899 126.686L85.6392 126.332C85.5378 125.625 85.2338 125.271 84.8284 125.271H81.0279C80.8758 125.271 80.7745 125.372 80.7745 125.574V130.274C80.7745 130.577 80.8758 130.779 81.0279 130.931C81.2305 131.082 81.4332 131.183 81.7373 131.183H85.0818C85.7912 131.183 86.3993 131.032 86.906 130.678C87.4128 130.324 87.7675 129.819 87.9702 129.162C88.0209 128.96 88.1729 128.859 88.3249 128.859C88.4769 128.859 88.5783 128.909 88.629 128.96C88.6796 129.011 88.7303 129.112 88.6796 129.213L88.3756 131.335C88.3249 131.588 88.2743 131.739 88.0716 131.891C87.8689 131.941 87.6662 131.992 87.4128 131.992Z" fill="#222222"/>
<path d="M101.956 128.959V119.156C101.956 118.701 101.652 118.398 101.044 118.348L100.436 118.297C100.284 118.247 100.233 118.196 100.233 117.994C100.233 117.792 100.335 117.741 100.537 117.741L102.514 117.792L104.085 117.741C104.287 117.741 104.389 117.842 104.389 117.994C104.389 118.145 104.287 118.247 104.135 118.297L103.78 118.348C103.223 118.449 102.97 118.701 102.97 119.156V131.991C102.97 132.143 102.919 132.244 102.767 132.244H102.514C102.159 132.244 101.906 132.093 101.652 131.739L93.0883 120.824C93.0376 120.773 93.0376 120.773 92.9869 120.773C92.9362 120.773 92.8856 120.824 92.8856 120.975V130.678C92.8856 131.132 93.1389 131.385 93.6963 131.486L94.0511 131.537C94.2031 131.587 94.3044 131.638 94.3044 131.84C94.3044 132.042 94.2031 132.093 94.0004 132.093L92.4295 132.042L90.4532 132.093C90.2505 132.093 90.1492 131.991 90.1492 131.84C90.1492 131.688 90.1998 131.587 90.3519 131.537L90.96 131.486C91.568 131.436 91.8721 131.132 91.8721 130.678V119.156C91.8721 118.701 91.6187 118.398 91.0613 118.348L90.7066 118.297C90.5546 118.247 90.4532 118.196 90.4532 117.994C90.4532 117.842 90.5546 117.741 90.7573 117.741L92.3788 117.792C92.7842 117.792 93.0883 117.943 93.291 118.196L101.754 129.01C101.804 129.061 101.855 129.061 101.906 129.061C101.906 129.111 101.956 129.061 101.956 128.959Z" fill="#222222"/>
<path d="M15.4555 142.2C15.3035 141.947 15.0501 141.694 14.7461 141.543C14.442 141.391 14.138 141.29 13.7326 141.29H12.9725C12.8711 141.29 12.7698 141.341 12.6684 141.391C12.5671 141.442 12.5671 141.543 12.5671 141.694V146.091C12.5671 146.192 12.6177 146.293 12.6684 146.394C12.7698 146.444 12.8204 146.495 12.9725 146.495H13.7832C14.442 146.495 14.9488 146.293 15.3541 145.838C15.7595 145.383 15.9622 144.827 15.9622 144.069C15.9622 143.362 15.8102 142.755 15.4555 142.2ZM15.9622 141.745C16.5196 142.25 16.773 142.958 16.773 143.817C16.773 144.676 16.469 145.434 15.9116 145.99C15.3541 146.596 14.6447 146.899 13.7832 146.899H12.3137L11.2495 146.95C11.1482 146.95 11.1482 146.899 11.1482 146.849C11.1482 146.748 11.1989 146.748 11.2495 146.748H11.5029C11.6043 146.748 11.7056 146.697 11.807 146.646C11.8576 146.596 11.9083 146.495 11.9083 146.394V141.492C11.9083 141.29 11.7563 141.189 11.5029 141.138L11.2495 141.088C11.1989 141.088 11.1482 141.037 11.1482 140.987C11.1482 140.886 11.1989 140.886 11.2495 140.886L12.3137 140.936H13.7832C14.6954 140.936 15.4048 141.189 15.9622 141.745Z" fill="#222222"/>
<path d="M21.7393 146.899H18.5468L17.584 146.95C17.4827 146.95 17.4827 146.899 17.4827 146.849C17.4827 146.748 17.5333 146.748 17.584 146.748H17.8374C17.9387 146.748 18.0401 146.697 18.1414 146.647C18.1921 146.596 18.2428 146.495 18.2428 146.394V141.492C18.2428 141.29 18.0908 141.189 17.8374 141.139H17.584C17.5333 141.139 17.4827 141.088 17.4827 141.038C17.4827 140.937 17.5333 140.937 17.584 140.937L18.5468 140.987H21.5873C21.6886 140.987 21.79 141.038 21.8406 141.088C21.8913 141.139 21.942 141.24 21.942 141.341L22.0433 142.099C22.0433 142.2 21.9927 142.25 21.942 142.25C21.8406 142.25 21.79 142.2 21.7393 142.099C21.6379 141.846 21.5366 141.644 21.3339 141.543C21.1819 141.442 20.9285 141.391 20.6245 141.391H19.3069C19.2056 141.391 19.1042 141.442 19.0029 141.492C18.9015 141.543 18.9015 141.644 18.9015 141.796V143.564C18.9015 143.615 18.9522 143.665 19.0029 143.665H20.5738C20.6751 143.665 20.7258 143.665 20.7765 143.615C20.8272 143.564 20.8272 143.514 20.8778 143.514C20.8778 143.463 20.9285 143.413 20.9285 143.312L20.9792 143.21C20.9792 143.16 21.0299 143.109 21.1312 143.109C21.1819 143.109 21.2325 143.16 21.2325 143.21L21.1819 143.918L21.2325 144.625C21.2325 144.676 21.1819 144.726 21.1312 144.777C21.0805 144.777 21.0299 144.726 21.0299 144.676V144.524C20.9792 144.221 20.8778 144.07 20.6751 144.07H19.1042C19.0536 144.07 19.0029 144.12 19.0029 144.171V146.141C19.0029 146.242 19.0536 146.344 19.1042 146.445C19.2056 146.495 19.2563 146.546 19.4083 146.546H20.8272C21.1312 146.546 21.3846 146.495 21.5873 146.344C21.79 146.192 21.942 145.99 22.0433 145.687C22.094 145.586 22.094 145.535 22.1954 145.535C22.246 145.535 22.2967 145.535 22.3474 145.586C22.3474 145.636 22.3981 145.636 22.3981 145.687L22.246 146.596C22.246 146.697 22.1954 146.748 22.1447 146.849C21.942 146.849 21.8406 146.899 21.7393 146.899Z" fill="#222222"/>
<path d="M25.6411 141.543V146.293C25.6411 146.394 25.6917 146.495 25.7424 146.545C25.7931 146.596 25.8944 146.646 25.9958 146.646H26.2492C26.2998 146.646 26.3505 146.697 26.3505 146.748C26.3505 146.798 26.3505 146.798 26.2998 146.849C26.2998 146.849 26.2492 146.899 26.1985 146.899L25.2357 146.849L24.1715 146.899C24.1208 146.899 24.1208 146.899 24.0702 146.849C24.0702 146.849 24.0195 146.798 24.0195 146.748C24.0195 146.697 24.0702 146.646 24.1208 146.646H24.4249C24.5262 146.646 24.6276 146.596 24.6783 146.545C24.7289 146.495 24.7796 146.394 24.7796 146.293V141.543C24.7796 141.391 24.7289 141.29 24.5769 141.29H23.8675C23.6141 141.29 23.3607 141.391 23.2087 141.492C23.0567 141.644 22.9047 141.846 22.854 142.149C22.8033 142.25 22.7526 142.301 22.702 142.301C22.6513 142.301 22.6006 142.301 22.5499 142.25C22.4993 142.2 22.4993 142.2 22.4993 142.149L22.5499 141.037C22.5499 140.936 22.6006 140.886 22.7526 140.886H27.4653C27.5667 140.886 27.668 140.936 27.668 141.088L27.7694 142.149C27.7694 142.2 27.7694 142.25 27.7187 142.25C27.668 142.301 27.668 142.301 27.5667 142.301C27.516 142.301 27.4653 142.25 27.4147 142.149C27.3133 141.846 27.1613 141.644 27.0093 141.492C26.8572 141.341 26.6545 141.29 26.3505 141.29H25.8438C25.6917 141.341 25.6411 141.391 25.6411 141.543Z" fill="#222222"/>
<path d="M33.0396 142.199C32.8876 141.896 32.6342 141.694 32.3808 141.492C32.0768 141.34 31.7727 141.239 31.3673 141.239C30.6579 141.239 30.1512 141.441 29.7458 141.896C29.3404 142.351 29.1884 142.907 29.1884 143.614C29.1884 144.372 29.3404 145.029 29.6951 145.636C29.8471 145.939 30.1005 146.191 30.4045 146.343C30.7086 146.545 31.0633 146.596 31.418 146.596C32.0768 146.596 32.6342 146.394 32.9889 145.939C33.3436 145.484 33.5463 144.878 33.5463 144.17C33.4957 143.412 33.3436 142.755 33.0396 142.199ZM31.3167 140.835C32.2288 140.835 32.9382 141.138 33.4957 141.694C34.0531 142.25 34.3064 143.008 34.3064 143.917C34.3064 144.827 34.0531 145.535 33.4957 146.141C32.9382 146.747 32.2288 147 31.3167 147C30.4552 147 29.6951 146.697 29.1377 146.141C28.5803 145.585 28.3269 144.827 28.3269 143.917C28.3269 143.008 28.5803 142.3 29.1377 141.694C29.6951 141.088 30.4552 140.835 31.3167 140.835Z" fill="#222222"/>
<path d="M36.2827 146.697C36.3334 146.697 36.3841 146.748 36.3841 146.798C36.3841 146.849 36.3334 146.899 36.2321 146.899H35.5733H34.6612C34.5598 146.899 34.5598 146.849 34.5598 146.798C34.5598 146.748 34.6105 146.697 34.6612 146.697L34.9145 146.646C35.0666 146.646 35.2693 146.495 35.4213 146.293L37.0428 143.968L35.4213 141.492C35.2693 141.29 35.1172 141.189 34.9145 141.138H34.6612C34.6105 141.138 34.5598 141.088 34.5598 141.037C34.5598 140.987 34.6105 140.936 34.6612 140.936L35.6746 140.987H36.5361C36.6375 140.987 36.6881 141.037 36.6881 141.088C36.6881 141.138 36.6375 141.189 36.5868 141.189H36.4348C36.3334 141.189 36.2827 141.239 36.2321 141.29C36.1814 141.341 36.1814 141.442 36.2321 141.492L37.4482 143.362L38.7658 141.492C38.8164 141.442 38.8164 141.341 38.7658 141.29C38.7151 141.239 38.6644 141.189 38.5631 141.138H38.411C38.3604 141.138 38.3097 141.088 38.3097 141.037C38.3097 140.987 38.3604 140.936 38.4617 140.936H39.1205L40.0326 140.886C40.134 140.886 40.134 140.936 40.134 140.987C40.134 141.037 40.0833 141.088 40.0326 141.088H39.7792C39.6272 141.088 39.4245 141.239 39.2725 141.442L37.7016 143.665L39.4245 146.242C39.5766 146.444 39.7286 146.545 39.9313 146.596L40.1846 146.646C40.2353 146.646 40.286 146.697 40.286 146.748C40.286 146.798 40.2353 146.849 40.1846 146.849H39.1712H38.259C38.1577 146.849 38.107 146.798 38.107 146.748C38.107 146.697 38.1577 146.646 38.2084 146.646H38.3604C38.4617 146.646 38.5124 146.596 38.5631 146.545C38.6137 146.495 38.6137 146.394 38.5631 146.343L37.2455 144.373L35.8773 146.343C35.8267 146.394 35.8267 146.495 35.8267 146.545C35.8773 146.596 35.928 146.646 36.0294 146.646L36.2827 146.697Z" fill="#222222"/>
<path d="M44.3905 141.997C44.3905 142.401 44.5425 142.806 44.8465 143.362C45.2519 143.159 45.5053 142.957 45.708 142.806C45.9107 142.654 46.012 142.553 46.0627 142.401C46.1134 142.3 46.1641 142.098 46.1641 141.947C46.1641 141.745 46.0627 141.593 45.9107 141.441C45.7587 141.29 45.556 141.239 45.3026 141.239C45.0492 141.239 44.8465 141.29 44.6945 141.441C44.4918 141.593 44.3905 141.745 44.3905 141.997ZM43.6304 145.332C43.6304 145.686 43.7317 145.989 43.9851 146.242C44.2385 146.495 44.4918 146.596 44.8465 146.596C45.404 146.596 45.86 146.394 46.1641 145.989C45.404 145.282 44.8465 144.625 44.4411 144.019C43.9344 144.372 43.6304 144.827 43.6304 145.332ZM46.7215 141.997C46.7215 142.199 46.6708 142.351 46.6201 142.452C46.5695 142.553 46.5188 142.654 46.4681 142.705C46.4174 142.755 46.3668 142.806 46.2654 142.907C46.1641 142.957 46.1134 143.058 46.0627 143.058C46.012 143.109 45.9614 143.159 45.8094 143.21C45.6573 143.261 45.6067 143.311 45.556 143.362C45.5053 143.412 45.3026 143.513 44.9986 143.665C45.3533 144.17 45.86 144.777 46.5188 145.383C46.6708 145.13 46.7722 144.726 46.8735 144.271C46.8735 144.221 46.8735 144.17 46.8735 144.12C46.8735 143.968 46.8228 143.917 46.6708 143.917H46.3668C46.3161 143.917 46.2654 143.867 46.2654 143.816C46.2654 143.715 46.3161 143.715 46.4174 143.715H47.1776H47.887C47.9883 143.715 47.9883 143.766 47.9883 143.816C47.9883 143.867 47.9377 143.917 47.887 143.917L47.735 143.968C47.5829 143.968 47.4816 144.019 47.4309 144.069C47.3296 144.12 47.2789 144.221 47.2789 144.322C47.1269 144.928 46.9749 145.383 46.8228 145.686C47.0762 145.939 47.3296 146.141 47.5829 146.343C47.8363 146.545 48.039 146.697 48.191 146.697H48.3431C48.3937 146.697 48.4444 146.747 48.4444 146.798C48.4444 146.848 48.3937 146.899 48.3431 146.899C47.7856 146.899 47.4816 146.848 47.3296 146.848C47.2282 146.848 47.0762 146.798 46.9749 146.697C46.7722 146.495 46.5695 146.343 46.4681 146.242C46.0627 146.747 45.4546 147 44.7452 147C44.1878 147 43.7317 146.848 43.377 146.596C43.0223 146.292 42.8196 145.939 42.8196 145.534C42.8196 145.13 42.9209 144.777 43.1743 144.473C43.4277 144.221 43.7824 143.917 44.1878 143.665C43.8331 143.109 43.681 142.604 43.681 142.199C43.681 141.795 43.8331 141.441 44.0864 141.189C44.3398 140.936 44.7452 140.835 45.1506 140.835C45.6067 140.835 45.9614 140.936 46.2147 141.138C46.6201 141.391 46.7215 141.694 46.7215 141.997Z" fill="#222222"/>
<path d="M53.2077 147C53.1064 147 53.0557 146.95 53.005 146.899L51.1808 141.492C51.1301 141.29 50.9274 141.189 50.674 141.138H50.4713C50.4713 141.138 50.4207 141.138 50.4207 141.088V141.037C50.4207 140.936 50.4713 140.886 50.522 140.886L51.3835 140.936L52.3463 140.886C52.4476 140.886 52.4476 140.936 52.4476 140.987C52.4476 141.088 52.3969 141.088 52.3463 141.138H52.1436C52.0422 141.138 51.9916 141.189 51.9409 141.239C51.8902 141.29 51.8902 141.391 51.9409 141.492L53.3598 145.737L54.9307 140.987C54.9307 140.936 55.032 140.886 55.1334 140.886C55.2347 140.886 55.2854 140.936 55.336 140.987L56.907 145.737L58.3258 141.492C58.3765 141.391 58.3258 141.341 58.3258 141.239C58.2752 141.189 58.2245 141.138 58.1231 141.138H57.9204C57.8698 141.138 57.8191 141.088 57.8191 141.037C57.8191 140.936 57.8698 140.936 57.9711 140.936L58.7312 140.987L59.4913 140.936C59.5927 140.936 59.5927 140.987 59.5927 141.037C59.5927 141.138 59.542 141.138 59.4913 141.138H59.3393C59.0859 141.189 58.9339 141.29 58.8326 141.492L56.9576 146.899C56.9576 146.95 56.8563 147 56.7549 147C56.6536 147 56.6029 146.95 56.5522 146.899L54.9813 142.25L53.4104 146.899C53.3598 146.95 53.3091 147 53.2077 147Z" fill="#222222"/>
<path d="M64.0015 146.899H60.809L59.8462 146.95C59.7449 146.95 59.7449 146.899 59.7449 146.849C59.7449 146.748 59.7955 146.748 59.8462 146.748H60.0996C60.2009 146.748 60.3023 146.697 60.4036 146.647C60.4543 146.596 60.505 146.495 60.505 146.394V141.492C60.505 141.29 60.353 141.189 60.0996 141.139H59.8462C59.7955 141.139 59.7449 141.088 59.7449 141.038C59.7449 140.937 59.7955 140.937 59.8462 140.937L60.809 140.987H63.8495C63.9508 140.987 64.0522 141.038 64.1029 141.088C64.1535 141.139 64.2042 141.24 64.2042 141.341L64.3055 142.099C64.3055 142.2 64.2549 142.25 64.2042 142.25C64.1028 142.25 64.0522 142.2 64.0015 142.099C63.9002 141.846 63.7988 141.644 63.5961 141.543C63.4441 141.442 63.1907 141.391 62.8867 141.391H61.5691C61.4678 141.391 61.3664 141.442 61.2651 141.492C61.1637 141.543 61.1637 141.644 61.1637 141.796V143.564C61.1637 143.615 61.2144 143.665 61.2651 143.665H62.836C62.9373 143.665 62.988 143.665 63.0387 143.615C63.0894 143.564 63.0894 143.514 63.14 143.514C63.14 143.463 63.1907 143.413 63.1907 143.312L63.2414 143.21C63.2414 143.16 63.2921 143.109 63.3934 143.109C63.4441 143.109 63.4948 143.16 63.4948 143.21L63.4441 143.918L63.4948 144.625C63.4948 144.676 63.4441 144.726 63.3934 144.777C63.3427 144.777 63.2921 144.726 63.2921 144.676L63.2414 144.524C63.1907 144.221 63.0894 144.07 62.8867 144.07H61.3158C61.2651 144.07 61.2144 144.12 61.2144 144.171V146.141C61.2144 146.242 61.2651 146.344 61.3158 146.445C61.4171 146.495 61.5185 146.546 61.6198 146.546H63.0387C63.3427 146.546 63.5961 146.495 63.7988 146.344C64.0015 146.192 64.1535 145.99 64.2549 145.687C64.3055 145.586 64.3055 145.535 64.4069 145.535C64.4576 145.535 64.5082 145.535 64.5589 145.586C64.5589 145.636 64.6096 145.636 64.6096 145.687L64.3562 146.546C64.3562 146.647 64.3055 146.697 64.2549 146.798C64.2042 146.849 64.1029 146.899 64.0015 146.899Z" fill="#222222"/>
<path d="M66.5858 141.492V146.091C66.5858 146.192 66.6364 146.293 66.6871 146.394C66.7885 146.444 66.8391 146.495 66.9911 146.495H68.2073C68.5114 146.495 68.7647 146.444 68.9674 146.293C69.1701 146.141 69.3222 145.939 69.4235 145.636C69.4742 145.535 69.5248 145.484 69.6262 145.484C69.7275 145.484 69.7782 145.535 69.7276 145.636L69.5755 146.545C69.5755 146.646 69.5249 146.697 69.4742 146.798C69.4235 146.849 69.3222 146.899 69.2208 146.899H66.1804L65.2176 146.95C65.1162 146.95 65.1162 146.899 65.1162 146.849C65.1162 146.748 65.1669 146.748 65.2176 146.748H65.4709C65.5723 146.748 65.6736 146.697 65.775 146.646C65.8256 146.596 65.8763 146.495 65.8763 146.394V141.492C65.8763 141.29 65.7243 141.189 65.4709 141.138L65.2176 141.088C65.1669 141.088 65.1162 141.037 65.1162 140.987C65.1162 140.886 65.1669 140.886 65.2176 140.886L66.1804 140.936L67.0418 140.886C67.1432 140.886 67.1938 140.936 67.1938 140.987C67.1938 141.088 67.1432 141.088 67.0925 141.138L66.9405 141.189C66.6871 141.189 66.5858 141.341 66.5858 141.492Z" fill="#222222"/>
<path d="M71.6531 141.492V146.091C71.6531 146.192 71.7038 146.293 71.7545 146.394C71.8558 146.444 71.9065 146.495 72.0585 146.495H73.2747C73.5788 146.495 73.8321 146.444 74.0348 146.293C74.2375 146.141 74.3895 145.939 74.4909 145.636C74.5416 145.535 74.5922 145.484 74.6936 145.484C74.7949 145.484 74.8456 145.535 74.7949 145.636L74.6429 146.545C74.6429 146.646 74.5922 146.697 74.5416 146.798C74.4909 146.899 74.3895 146.899 74.2882 146.899H71.2478L70.2849 146.95C70.1836 146.95 70.1836 146.899 70.1836 146.849C70.1836 146.748 70.2343 146.748 70.2849 146.748H70.5383C70.6397 146.748 70.741 146.697 70.8424 146.646C70.893 146.596 70.9437 146.495 70.9437 146.394V141.492C70.9437 141.29 70.7917 141.189 70.5383 141.138L70.2849 141.088C70.2343 141.088 70.1836 141.037 70.1836 140.987C70.1836 140.886 70.2343 140.886 70.2849 140.886L71.2478 140.936L72.1092 140.886C72.2106 140.886 72.2612 140.936 72.2612 140.987C72.2612 141.088 72.2106 141.088 72.1599 141.138L72.0079 141.189C71.7545 141.189 71.6531 141.341 71.6531 141.492Z" fill="#222222"/>
<path d="M80.2172 145.636V141.492C80.2172 141.29 80.0651 141.189 79.8118 141.139H79.5584C79.5077 141.139 79.4571 141.088 79.4571 141.038C79.4571 140.987 79.5077 140.937 79.5584 140.937H80.3692H81.0279C81.1293 140.937 81.18 140.987 81.18 141.038C81.18 141.088 81.1293 141.139 81.0786 141.139H80.9266C80.7239 141.189 80.5719 141.29 80.5719 141.492V146.899C80.5719 146.95 80.5212 147 80.4705 147H80.3692C80.2172 147 80.1158 146.95 80.0145 146.798L76.4166 142.2H76.3659C76.3659 142.2 76.3153 142.25 76.3153 142.301V146.344C76.3153 146.546 76.4166 146.647 76.67 146.697H76.822C76.8727 146.697 76.9234 146.748 76.9234 146.798C76.9234 146.849 76.8727 146.899 76.7713 146.899L76.1126 146.849L75.3018 146.899C75.2004 146.899 75.2004 146.849 75.2004 146.798C75.2004 146.748 75.2511 146.697 75.3018 146.697H75.5552C75.8085 146.647 75.9605 146.546 75.9605 146.344V141.492C75.9605 141.29 75.8592 141.189 75.6058 141.139H75.4538C75.4031 141.139 75.3525 141.088 75.3525 141.038C75.3525 140.987 75.4031 140.937 75.5045 140.937H76.1632C76.3153 140.937 76.4673 140.987 76.518 141.088L80.0651 145.636H80.1158C80.2172 145.687 80.2172 145.687 80.2172 145.636Z" fill="#222222"/>
<path d="M86.0447 146.899H82.8522L81.8894 146.95C81.7881 146.95 81.7881 146.899 81.7881 146.849C81.7881 146.748 81.8388 146.748 81.8894 146.748H82.1428C82.2442 146.748 82.3455 146.697 82.4469 146.647C82.4975 146.596 82.5482 146.495 82.5482 146.394V141.492C82.5482 141.29 82.3962 141.189 82.1428 141.139H81.8894C81.8388 141.139 81.7881 141.088 81.7881 141.038C81.7881 140.937 81.8388 140.937 81.8894 140.937L82.8522 140.987H85.8927C85.994 140.987 86.0954 141.038 86.1461 141.088C86.1967 141.139 86.2474 141.24 86.2474 141.341L86.3488 142.099C86.3488 142.2 86.2981 142.25 86.2474 142.25C86.1461 142.25 86.0954 142.2 86.0447 142.099C85.9434 141.846 85.842 141.644 85.6393 141.543C85.4873 141.442 85.2339 141.391 84.9299 141.391H83.6124C83.511 141.391 83.4097 141.442 83.3083 141.492C83.207 141.543 83.207 141.644 83.207 141.796V143.564C83.207 143.615 83.2576 143.665 83.3083 143.665H84.8792C84.9806 143.665 85.0312 143.665 85.0819 143.615C85.1326 143.564 85.1326 143.514 85.1833 143.514C85.1833 143.463 85.2339 143.413 85.2339 143.312L85.2846 143.21C85.2846 143.16 85.3353 143.109 85.4366 143.109C85.4873 143.109 85.538 143.16 85.538 143.21L85.4873 143.918L85.538 144.625C85.538 144.676 85.4873 144.726 85.4366 144.777C85.386 144.777 85.3353 144.726 85.3353 144.676V144.524C85.2846 144.221 85.1833 144.07 84.9806 144.07H83.4097C83.359 144.07 83.3083 144.12 83.3083 144.171V146.141C83.3083 146.242 83.359 146.344 83.4097 146.445C83.511 146.495 83.5617 146.546 83.7137 146.546H85.1326C85.4366 146.546 85.69 146.495 85.8927 146.344C86.0954 146.192 86.2474 145.99 86.3488 145.687C86.3994 145.586 86.3994 145.535 86.5008 145.535C86.5515 145.535 86.6021 145.535 86.6528 145.586C86.6528 145.636 86.7035 145.636 86.7035 145.687L86.5515 146.596C86.5515 146.697 86.5008 146.748 86.4501 146.849C86.2474 146.849 86.1461 146.899 86.0447 146.899Z" fill="#222222"/>
<path d="M91.3654 145.383C91.3654 145.939 91.1628 146.344 90.7574 146.596C90.352 146.849 89.8452 147 89.2878 147C88.7304 147 88.2237 146.95 87.8689 146.798C87.5142 146.647 87.3115 146.495 87.3115 146.344V145.333C87.3115 145.232 87.3622 145.131 87.4635 145.131C87.5142 145.131 87.5649 145.181 87.6156 145.282C87.7676 145.737 87.9703 146.04 88.173 146.242C88.4264 146.445 88.7304 146.546 89.1865 146.546C89.6425 146.546 89.9466 146.445 90.1999 146.242C90.4533 146.04 90.6053 145.788 90.6053 145.434C90.6053 145.08 90.4026 144.726 89.9973 144.474C89.7946 144.373 89.5919 144.272 89.3892 144.12C89.1865 144.019 88.9331 143.918 88.7304 143.766C88.477 143.665 88.2743 143.514 88.1223 143.413C87.7169 143.109 87.5142 142.705 87.5142 142.25C87.5142 141.796 87.7169 141.391 88.0716 141.139C88.4264 140.886 88.8824 140.734 89.3385 140.734C89.8452 140.734 90.2506 140.785 90.6053 140.937C90.9601 141.038 91.1121 141.189 91.1121 141.341V142.2C91.1121 142.301 91.0614 142.351 91.0107 142.351C90.9094 142.351 90.8587 142.301 90.808 142.2C90.7067 141.846 90.5547 141.543 90.352 141.391C90.1493 141.24 89.8452 141.139 89.4905 141.139C89.0851 141.139 88.7811 141.24 88.5784 141.391C88.3757 141.593 88.2237 141.796 88.2237 142.048C88.2237 142.301 88.325 142.554 88.5784 142.756C88.7811 142.958 89.0851 143.109 89.3892 143.261C89.6932 143.413 89.9972 143.564 90.352 143.716C90.656 143.867 90.9601 144.07 91.1627 144.322C91.2641 144.726 91.3654 145.03 91.3654 145.383Z" fill="#222222"/>
<path d="M96.2302 145.383C96.2302 145.939 96.0275 146.344 95.6221 146.596C95.2167 146.849 94.71 147 94.1526 147C93.5952 147 93.0884 146.95 92.7337 146.798C92.379 146.647 92.1763 146.495 92.1763 146.344V145.333C92.1763 145.232 92.2269 145.131 92.3283 145.131C92.379 145.131 92.4296 145.181 92.4803 145.282C92.6323 145.737 92.835 146.04 93.0377 146.242C93.2911 146.445 93.5952 146.546 94.0512 146.546C94.5073 146.546 94.8113 146.445 95.0647 146.242C95.3181 146.04 95.4701 145.788 95.4701 145.434C95.4701 145.08 95.2674 144.726 94.862 144.474C94.6593 144.373 94.4566 144.272 94.2539 144.12C94.0512 144.019 93.7978 143.918 93.5951 143.766C93.3418 143.665 93.1391 143.514 92.9871 143.413C92.5817 143.109 92.379 142.705 92.379 142.25C92.379 141.796 92.5817 141.391 92.9364 141.139C93.2911 140.886 93.7472 140.734 94.2032 140.734C94.71 140.734 95.1154 140.785 95.4701 140.937C95.8248 141.038 95.9768 141.189 95.9768 141.341V142.2C95.9768 142.301 95.9262 142.351 95.8755 142.351C95.7741 142.351 95.7235 142.301 95.6728 142.2C95.5714 141.846 95.4194 141.543 95.2167 141.391C95.014 141.24 94.71 141.139 94.3553 141.139C93.9499 141.139 93.6458 141.24 93.4431 141.391C93.2404 141.593 93.0884 141.796 93.0884 142.048C93.0884 142.301 93.1898 142.554 93.4431 142.756C93.6458 142.958 93.9499 143.109 94.2539 143.261C94.558 143.413 94.862 143.564 95.2167 143.716C95.5208 143.867 95.8248 144.07 96.0275 144.322C96.1289 144.726 96.2302 145.03 96.2302 145.383Z" fill="#222222"/>
<path d="M48.9513 135.983C47.1777 136.034 45.3534 136.034 43.5798 136.084C39.982 136.135 36.4348 136.236 32.8369 136.438C36.4348 136.64 39.982 136.741 43.5798 136.792C45.3534 136.842 47.1777 136.842 48.9513 136.893L54.3227 136.944H59.6942C61.4678 136.944 63.2921 136.893 65.0657 136.842C68.6635 136.792 72.2107 136.691 75.8086 136.489C72.2107 136.287 68.6635 136.186 65.0657 136.135C63.2921 136.084 61.4678 136.084 59.6942 136.034H54.3227L48.9513 135.983Z" fill="url(#paint0_linear)"/>
<path d="M109 54.3228L108.24 53.7164C107.733 53.3121 96.6862 44.3678 87.7169 42.397C89.0851 40.0725 89.8452 37.3943 89.8452 34.5139C89.8452 25.9233 82.8522 19.0003 74.2376 19.0003C71.3998 19.0003 68.7141 19.7583 66.4338 21.0722C64.3561 12.1784 55.5388 1.26332 55.1334 0.757992L54.4747 0L53.8666 0.757992C53.4612 1.26332 44.5425 12.2795 42.5156 21.1733C40.1846 19.8089 37.4482 19.0003 34.5597 19.0003C25.9451 19.0003 19.0028 25.9739 19.0028 34.5139C19.0028 37.3943 19.8136 40.0725 21.1818 42.397C12.2631 44.4689 1.31753 53.2616 0.810786 53.7164L0 54.3228L0.760112 54.9292C1.26685 55.3334 12.2631 64.1767 21.1818 66.2485C19.7629 68.5731 18.9521 71.3018 18.9521 74.1822C18.9521 82.7728 25.9451 89.6958 34.5091 89.6958C37.4482 89.6958 40.1339 88.8872 42.5156 87.5229C44.5932 96.4166 53.4105 107.382 53.8666 107.888L54.4747 108.646L55.0827 107.888C55.4881 107.382 64.3054 96.5177 66.3831 87.6239C68.6634 88.9378 71.3491 89.7463 74.1869 89.7463C82.8015 89.7463 89.7945 82.7728 89.7945 74.2327C89.7945 71.3524 88.9837 68.6236 87.6155 66.2991C96.5848 64.3283 107.682 55.384 108.189 54.9292L109 54.3228ZM66.7885 22.7903C68.9675 21.4259 71.5012 20.6174 74.2376 20.6174C81.94 20.6174 88.2236 26.8329 88.2236 34.5645C88.2236 37.3438 87.4128 39.9209 85.994 42.1444C85.4365 42.0938 84.9298 42.0433 84.4231 42.0433C81.9907 42.0433 79.5583 42.8013 77.1767 44.3678C76.9233 44.5194 76.7206 44.671 76.5179 44.8732C75.9098 43.7614 75.251 42.7002 74.4403 41.6896C75.251 37.3438 76.5686 33.8065 78.2915 31.8862C78.3422 31.8357 81.5853 27.4393 81.5853 27.4393C81.5853 27.4393 77.278 30.724 77.1767 30.7745C75.099 32.6947 71.0451 34.0591 66.2311 34.8677C65.2682 34.3623 64.2548 33.9075 63.2413 33.5538C63.9507 32.7958 64.6095 31.9873 65.1669 31.0272C66.3324 28.9553 66.9405 26.8329 66.9405 24.7106C66.8898 23.9526 66.8391 23.3462 66.7885 22.7903ZM73.6801 70.7965C74.1362 72.363 74.643 73.7779 75.2004 74.9907C73.9842 74.4349 72.5653 73.9295 70.9944 73.4747C71.0451 73.4242 71.0958 73.3737 71.1464 73.3231C72.0586 72.5146 72.92 71.6556 73.6801 70.7965ZM63.4947 76.3551C60.6569 77.5174 57.8192 78.1238 54.9814 78.1238C54.7787 78.1238 54.576 78.1238 54.3733 78.1238C45.708 77.8711 38.9684 74.1317 34.4584 67.0065C32.5328 63.9746 31.4686 60.5383 31.3166 56.8494C31.0126 49.0674 34.1037 42.7002 40.4886 37.8996C43.9851 35.2719 47.9377 33.7559 52.245 33.4527C53.0051 33.4022 53.7146 33.3517 54.424 33.3517C62.4305 33.3517 68.9675 36.6868 73.8322 43.2561C74.3896 44.0141 74.795 44.7216 75.1497 45.429C75.099 45.429 75.099 45.429 75.0484 45.429C74.643 45.429 74.3389 45.7322 74.0349 45.9343C71.6532 47.3998 69.5755 49.219 67.4979 51.1392C64.6602 53.7164 62.1771 56.6978 59.5927 59.5277C58.7313 60.4373 57.8698 61.3974 56.907 62.2564C57.2617 61.7006 57.6671 61.1447 58.0725 60.5889C59.8968 58.1633 61.1636 55.384 62.5318 52.7057C63.7987 50.2802 65.2682 48.0567 67.5486 46.3891C67.6499 46.2881 67.8526 46.2375 67.7513 46.0354C67.6499 45.8333 67.4979 45.8838 67.3459 45.9343C65.9777 46.2375 64.7615 46.8945 63.6467 47.6525C62.1265 48.6126 60.7076 49.7748 59.3394 50.9371C57.4644 52.5541 55.7922 54.3228 54.2213 56.1925C52.6504 58.0622 51.4342 60.2351 49.914 62.1554C48.1404 64.3283 46.0628 65.9959 43.2757 66.6023C41.046 67.1076 39.0697 66.5517 37.4988 64.8336C36.9921 64.3283 36.5867 63.7219 36.384 62.9639C38.7657 64.0251 41.1474 64.1262 43.4784 63.2671C46.5695 62.1048 49.0525 60.2351 49.8126 56.7989C50.3701 54.1712 49.61 51.8467 46.8229 50.836C46.6202 50.735 46.4175 50.6339 46.2655 50.4318C45.1 48.7642 43.5291 48.0062 41.4514 48.0062C37.7522 48.0062 34.8131 50.5328 33.6476 53.6153C33.1409 54.9292 33.0395 56.2936 33.0902 57.7085C33.1409 59.5782 33.8503 61.0942 35.3199 62.2564C35.5732 62.4586 35.7759 62.7112 35.9279 63.065C36.1306 63.6714 36.4347 64.2272 36.8401 64.7326C38.1576 66.4507 39.8805 67.4108 42.0595 67.3097C44.0865 67.2087 46.0121 66.6528 47.887 65.6927C50.9781 64.0756 53.6132 61.9027 55.6908 59.1234C56.9577 57.4558 58.0219 55.6366 59.1874 53.868C60.2515 52.2509 61.3157 50.5834 62.7345 49.2695C63.748 48.3094 64.8629 47.3998 66.2311 46.8439C64.4575 48.5115 62.9372 50.3307 61.7211 52.4531C60.2515 55.0303 58.9847 57.7085 57.3631 60.2351C56.0962 62.2564 54.8801 64.3283 53.0051 65.8948C52.9544 65.9453 52.9038 65.9453 52.9038 65.9959C52.8531 66.0464 52.8024 66.1475 52.8531 66.2485C52.9038 66.3496 53.0558 66.3496 53.1571 66.3496C53.3092 66.2991 53.4105 66.2485 53.5119 66.1475C54.272 65.4905 55.0827 64.8842 55.8429 64.2272C58.4272 61.9027 60.7076 59.275 63.0386 56.7484C65.4203 54.1207 67.9033 51.594 70.6397 49.2695C71.2985 48.7136 71.9572 48.2083 72.6667 47.6525C70.9437 49.4211 69.2715 51.1392 67.6499 52.9584C65.4203 55.5356 63.1906 58.1128 61.7211 61.2458C61.113 62.4586 60.7583 63.7724 60.8089 65.1368C60.8596 66.5012 61.8731 67.1581 63.1399 66.5012C63.9507 66.0969 64.5588 65.44 65.1162 64.7326C65.2176 64.581 65.4203 64.3788 65.2176 63.924C64.9135 64.2272 64.7108 64.5304 64.5081 64.7831C64.0014 65.2884 63.5453 65.7937 62.8359 66.0969C62.0758 66.4001 61.6197 66.198 61.417 65.3895C61.3663 65.1368 61.3663 64.8336 61.417 64.581C61.6197 63.6714 61.9744 62.8123 62.4305 61.9532C64.2041 58.7191 66.4337 55.7882 68.7648 52.9584C70.589 50.735 72.5146 48.562 74.643 46.5913C74.947 46.3386 75.3524 46.1365 75.5551 45.7827C76.4672 47.4503 77.126 49.2695 77.5821 51.3919C78.5955 56.3946 77.9368 61.2458 75.6058 65.6927C72.768 70.5944 68.7648 74.1822 63.4947 76.3551ZM55.1841 79.5387C54.9814 79.9935 54.8294 80.4483 54.6774 80.8525C54.5253 80.3977 54.3733 79.9935 54.1706 79.5387C54.2213 79.5387 54.3226 79.5387 54.3733 79.5387C54.6267 79.5892 54.8801 79.5892 55.1841 79.5387ZM38.0056 73.4747C36.4854 73.879 35.0665 74.3843 33.8503 74.9907C34.4077 73.7779 34.9145 72.363 35.3705 70.7965C36.1306 71.7566 37.0428 72.6662 38.0056 73.4747ZM31.0632 48.0062C28.2761 47.2987 25.7931 45.7322 23.9689 43.6098C24.1715 43.6098 24.3742 43.6098 24.5769 43.6098C26.7053 43.6098 28.8336 44.3173 30.9619 45.6817C31.2659 45.8838 31.5193 46.0859 31.7727 46.2881C31.5193 46.7934 31.2659 47.3998 31.0632 48.0062ZM29.7964 55.0303C29.1883 54.7776 28.5802 54.5249 28.0228 54.3228C28.6309 54.1207 29.1883 53.868 29.7964 53.6153V55.0303ZM30.9619 63.065C28.8842 64.4294 26.7053 65.1368 24.6276 65.1368C24.4249 65.1368 24.2729 65.1368 24.0702 65.1368C25.7424 63.2166 27.9214 61.8017 30.4045 60.9931C30.5565 61.6501 30.7085 62.3575 30.9619 63.065ZM35.8773 40.0725C35.3705 37.6975 34.6611 35.5246 33.8503 33.7559C35.7252 34.6655 38.1069 35.373 40.742 35.8783C38.9177 37.0406 37.2961 38.4555 35.8773 40.0725ZM52.9544 31.9367C53.7146 30.5218 54.3733 29.1574 54.8294 27.8941C55.2854 29.208 55.8935 30.5724 56.6537 31.9367H52.9544ZM70.6397 37.647C69.8796 36.99 69.0688 36.4342 68.258 35.9288C70.8931 35.373 73.2748 34.6655 75.1497 33.7559C74.3389 35.5246 73.6295 37.647 73.1227 40.0725C72.3626 39.2135 71.5518 38.4049 70.6397 37.647ZM35.4212 61.7006C34.6104 61.1447 34.1037 60.4373 33.7996 59.5782C32.8875 56.8494 33.3942 54.3228 35.0665 52.0488C35.9279 50.836 37.0428 49.8759 38.4616 49.3706C40.4379 48.6126 42.4649 48.4104 44.3905 49.5727C44.7452 49.7748 45.0493 50.0275 45.3533 50.4823C42.2622 50.3812 39.6778 51.3414 37.7522 53.7164C35.8266 56.0409 35.0665 58.6686 35.4212 61.7006ZM41.046 52.1499C42.4142 51.3414 43.9851 51.1898 45.556 51.2403C45.9614 51.2403 46.0628 51.5435 46.1641 51.8467C46.6202 53.4132 46.3668 54.8281 45.556 56.243C44.8973 57.4053 43.9344 58.2138 42.6676 58.6181C42.4649 58.6686 42.1609 58.7191 42.2622 58.9718C42.3129 59.275 42.6169 59.2245 42.8703 59.1234C44.4412 58.6181 45.556 57.6074 46.2655 56.142C46.9242 54.7776 47.1269 53.4132 46.7722 51.9478C46.7215 51.8467 46.6709 51.6951 46.7722 51.594C46.8735 51.5435 47.0256 51.594 47.1269 51.6446C48.2924 52.3015 49.1539 53.2111 49.3059 54.5755C49.5086 56.5968 48.9005 58.416 47.5323 59.9319C45.556 62.1554 43.0223 63.2671 40.0832 63.2671C39.9312 63.2671 39.8298 63.2671 39.6778 63.2671C38.6137 63.2671 37.6002 63.0144 36.5867 62.5596C36.1306 62.3575 35.9279 62.0543 35.8773 61.549C35.4719 57.2537 37.4988 54.2723 41.046 52.1499ZM78.5955 60.9931C81.0279 61.8017 83.1562 63.2166 84.7778 65.0863C84.6258 65.0863 84.5244 65.0863 84.3724 65.0863C82.2441 65.0863 80.1158 64.3788 77.9874 63.0144C78.0888 62.7112 78.1901 62.3575 78.2915 62.0543C78.4435 61.7006 78.5449 61.3469 78.5955 60.9931ZM79.2036 53.7164L79.1529 53.4132C79.8624 53.7669 80.6225 54.0701 81.3319 54.2723C80.6225 54.5249 79.9131 54.7776 79.2036 55.1313V53.7164ZM77.1767 46.2375C77.43 46.0354 77.7341 45.8333 77.9874 45.6311C80.0651 44.2668 82.2441 43.5593 84.3724 43.5593C84.5244 43.5593 84.6764 43.5593 84.8284 43.5593C83.0042 45.6817 80.6225 47.1977 77.8354 47.9557C77.6834 47.3998 77.43 46.7934 77.1767 46.2375ZM65.3189 24.559C65.3189 26.4287 64.8122 28.2984 63.748 30.1176C63.1399 31.1788 62.3798 32.0883 61.5184 32.8969C61.1636 32.7958 60.8089 32.6947 60.4542 32.6442C60.9609 29.1574 62.7345 26.0749 65.3189 23.9526C65.2682 24.1042 65.3189 24.3063 65.3189 24.559ZM54.4747 2.52664C56.603 5.25541 63.5453 14.6545 65.0149 21.9818C61.7211 24.4074 59.4407 28.0457 58.8326 32.2399C58.782 32.2399 58.782 32.2399 58.7313 32.2399C56.8057 29.0564 55.6402 25.9739 55.6402 23.4978L54.7787 7.02406L53.9679 23.4978C53.9679 25.9739 52.8024 29.0058 50.9275 32.1389C50.6234 32.1894 50.3194 32.2399 49.9647 32.2905C49.3566 28.1468 47.1269 24.559 43.9344 22.1334C45.3533 14.8061 52.3464 5.30595 54.4747 2.52664ZM43.7318 24.0031C46.2148 26.176 47.9377 29.208 48.3938 32.6442C48.0897 32.6947 47.8364 32.7958 47.5323 32.8969C46.6709 32.1389 45.8601 31.1788 45.252 30.1176C44.1878 28.2984 43.6811 26.4287 43.6811 24.559C43.6811 24.3568 43.7318 24.2052 43.7318 24.0031ZM20.6244 34.5139C20.6244 26.8329 26.8573 20.5669 34.6104 20.5669C37.4482 20.5669 40.0832 21.4259 42.2622 22.8408C42.2115 23.3967 42.1609 23.9526 42.1609 24.5084C42.1609 26.6308 42.7689 28.7532 43.9344 30.825C44.4919 31.7852 45.1 32.5937 45.8601 33.3517C44.7959 33.7054 43.7824 34.1602 42.8196 34.6655C37.9549 33.857 33.9517 32.4926 31.874 30.5724C31.8233 30.4713 27.212 27.0351 27.212 27.0351C27.212 27.0351 30.6578 31.583 30.7592 31.6841C32.5328 33.6043 33.7996 37.1922 34.6611 41.538C34.1037 42.2454 33.5969 43.0034 33.0902 43.812C32.8875 44.1152 32.7355 44.4184 32.5835 44.7216C32.3808 44.57 32.1274 44.3678 31.9247 44.2668C29.543 42.7508 27.1106 41.9422 24.6783 41.9422C24.1209 41.9422 23.5128 41.9928 22.9047 42.0433C21.4351 39.9209 20.6244 37.3438 20.6244 34.5139ZM2.53371 54.3228C5.27011 52.2004 14.7462 45.2774 22.0939 43.812C24.1715 46.5407 27.1613 48.6126 30.6072 49.5222C30.4045 50.2296 30.2524 50.9371 30.1511 51.6446C27.7694 52.8068 25.4891 53.5143 23.5635 53.5143L7.0437 54.3228L23.7155 55.1819C25.5397 55.1819 27.6174 55.7882 29.847 56.8494V57.8096L29.8977 58.0117C29.8977 58.1128 29.9484 58.1633 29.9484 58.2644C29.9991 58.6686 30.0497 59.0223 30.1004 59.4266C26.9079 60.3867 24.1715 62.307 22.1953 64.8841C14.7968 63.4187 5.32078 56.4957 2.53371 54.3228ZM42.2115 85.8553C40.0325 87.3207 37.3975 88.1292 34.5597 88.1292C26.8573 88.1292 20.5737 81.9137 20.5737 74.1822C20.5737 71.3524 21.4351 68.7246 22.854 66.5517C23.4621 66.6023 24.0195 66.6528 24.5769 66.6528C26.9079 66.6528 29.239 65.9453 31.5193 64.5304C31.7727 65.1873 32.0767 65.7937 32.4314 66.4001C32.9382 67.3603 33.4956 68.2699 34.1543 69.1794C33.2929 72.7167 32.0767 75.5466 30.5058 77.1131L27.212 81.56L31.6206 78.2248C33.1915 76.6583 35.9786 75.4455 39.5258 74.637C40.2859 75.1928 41.046 75.6982 41.8568 76.153C42.6169 76.6078 43.4277 76.9615 44.1878 77.3152C42.8196 79.5387 42.1102 81.8126 42.1102 84.0866C42.1102 84.693 42.1609 85.2994 42.2115 85.8553ZM43.6811 84.1372C43.6811 82.0653 44.3398 79.9935 45.6574 77.9722C46.3668 78.2248 47.0762 78.4775 47.7857 78.6796C46.9749 81.0547 45.556 83.1265 43.7318 84.7436C43.7318 84.5414 43.6811 84.3393 43.6811 84.1372ZM54.4747 106.169C52.3464 103.39 45.3533 93.9911 43.9344 86.6638C46.4175 84.7941 48.3431 82.1664 49.3566 79.1344C50.3194 79.3365 51.3329 79.4881 52.2957 79.5387C53.2585 81.6105 53.7652 83.5813 53.7652 85.2994L54.6267 101.773L55.4881 85.2994C55.4881 83.5813 56.0456 81.6105 57.0084 79.4881C57.4644 79.4376 57.9205 79.3871 58.3259 79.3365C58.6806 79.286 59.086 79.2355 59.4407 79.1344C60.4542 82.2169 62.4305 84.8951 65.0149 86.7649C63.5453 94.0416 56.603 103.39 54.4747 106.169ZM65.2682 84.8952C63.3426 83.2781 61.8731 81.1557 61.0116 78.7301C61.8224 78.528 62.5825 78.2754 63.3426 78.0227C64.6095 80.044 65.2682 82.1159 65.2682 84.1877C65.3189 84.3898 65.2682 84.6425 65.2682 84.8952ZM88.2236 74.2327C88.2236 81.9137 81.9907 88.1292 74.2376 88.1292C71.5012 88.1292 68.9168 87.3207 66.7378 85.9563C66.8391 85.35 66.8898 84.7436 66.8898 84.1372C66.8898 81.8632 66.1804 79.5892 64.8629 77.3658C66.4844 76.6583 68.0553 75.7487 69.5249 74.637C73.0214 75.496 75.7578 76.8099 77.43 78.2248C78.4942 79.1344 81.94 81.5095 81.94 81.5095C81.94 81.5095 79.457 78.1743 78.5449 77.1131C77.0753 75.4455 75.7578 72.7167 74.8963 69.1794C75.9098 67.714 76.7713 66.198 77.4807 64.5304C79.761 65.9453 82.0921 66.6528 84.4231 66.6528C84.9298 66.6528 85.4365 66.6023 85.994 66.5517C87.3622 68.7752 88.2236 71.4029 88.2236 74.2327ZM86.7034 64.8841C84.7778 62.307 82.0414 60.3867 78.8996 59.4266C78.9503 59.1739 79.0009 58.9213 79.0516 58.6181C79.1023 58.3654 79.153 58.0622 79.2036 57.8096V57.001C81.5346 55.8388 83.7643 55.1819 85.6392 55.1819L102.311 54.3733L85.7913 53.5143C83.7643 53.5143 81.3826 52.7563 78.8489 51.4424C78.7476 50.836 78.5955 50.2296 78.4435 49.6738C78.4435 49.6232 78.3928 49.5727 78.3928 49.5222C81.788 48.6126 84.7271 46.5913 86.7541 43.812C94.1018 45.1763 103.679 52.2004 106.466 54.3228C103.679 56.4957 94.0511 63.5198 86.7034 64.8841Z" fill="url(#paint1_linear)"/>
<defs>
<linearGradient id="paint0_linear" x1="32.8625" y1="136.445" x2="75.7497" y2="136.445" gradientUnits="userSpaceOnUse">
<stop stop-color="#81623D"/>
<stop offset="0.0990594" stop-color="#856740"/>
<stop offset="0.2414" stop-color="#927647"/>
<stop offset="0.4099" stop-color="#A99154"/>
<stop offset="0.597" stop-color="#CEBD69"/>
<stop offset="0.6613" stop-color="#E1D273"/>
<stop offset="1" stop-color="#9D7D4A"/>
</linearGradient>
<linearGradient id="paint1_linear" x1="11.6951" y1="96.7871" x2="165.653" y2="-56.9256" gradientUnits="userSpaceOnUse">
<stop stop-color="#9B7D4A"/>
<stop offset="0.0588648" stop-color="#A0824D"/>
<stop offset="0.1439" stop-color="#AC9154"/>
<stop offset="0.2442" stop-color="#C2AD62"/>
<stop offset="0.3333" stop-color="#E0D174"/>
<stop offset="0.5161" stop-color="#E5DA8F"/>
<stop offset="0.6613" stop-color="#E0D174"/>
<stop offset="1" stop-color="#9B7D4A"/>
</linearGradient>
</defs>
</svg>
