<svg width="179" height="68" viewBox="0 0 179 68" fill="none" xmlns="http://www.w3.org/2000/svg">
<path d="M97.7398 25.3013C97.7398 25.4025 97.689 25.4532 97.6383 25.5038C97.5875 25.5544 97.5368 25.605 97.4353 25.605L95.1512 25.5038L93.121 25.605C92.918 25.605 92.8165 25.5038 92.8165 25.3519C92.8165 25.2001 92.8672 25.0988 93.0195 25.0482L93.3748 24.9976C93.9331 24.947 94.2376 24.6433 94.2376 24.1878L94.0854 14.571C94.0854 14.4192 94.0346 14.3686 93.9839 14.3686C93.9331 14.3686 93.9331 14.3686 93.8823 14.4192L88.3499 25.4531C88.2992 25.5544 88.1977 25.6556 88.0962 25.6556C87.9946 25.6556 87.9439 25.605 87.8931 25.4531L82.3607 14.7735C82.3607 14.7229 82.31 14.7229 82.2592 14.7229C82.1577 14.7229 82.1577 14.7735 82.1577 14.9253L82.0562 24.1878C82.0562 24.6433 82.31 24.8964 82.8683 24.9976L83.2236 25.0482C83.3759 25.0988 83.4774 25.1495 83.4774 25.3519C83.4774 25.5544 83.3759 25.605 83.1728 25.605L81.4979 25.5544L79.5184 25.605C79.3154 25.605 79.2139 25.5038 79.2139 25.3519C79.2139 25.2001 79.2646 25.0988 79.4169 25.0482L80.026 24.9976C80.635 24.947 80.9396 24.6433 80.9396 24.1878L81.1934 12.6477C81.1934 12.1921 80.9396 11.8885 80.3813 11.8378L80.026 11.7872C79.8737 11.7366 79.7722 11.686 79.7722 11.4835C79.7722 11.3317 79.8737 11.2305 80.0767 11.2305L81.8532 11.2811C82.31 11.2811 82.6145 11.4329 82.716 11.686L88.4515 23.0236L94.1869 11.7366C94.2884 11.4835 94.5929 11.3823 95.1005 11.3317L96.9277 11.2811C97.1307 11.2811 97.2322 11.3823 97.2322 11.5342C97.2322 11.686 97.1307 11.7872 96.9785 11.8378L96.6232 11.8885C96.1156 11.9391 95.8111 12.1921 95.8111 12.6983L96.0648 24.2384C96.0648 24.4915 96.1664 24.6939 96.3186 24.7952C96.4709 24.8964 96.7247 24.9976 96.9785 25.0482L97.5875 25.0988C97.689 25.0482 97.7398 25.1495 97.7398 25.3013Z" fill="#222222"/>
<path d="M99.5163 25.6049C99.3133 25.6049 99.2117 25.5037 99.2117 25.3519C99.2117 25.2 99.2625 25.0988 99.4148 25.0482L99.7701 24.9976C100.328 24.947 100.582 24.6433 100.582 24.1877V12.6477C100.582 12.1415 100.278 11.8885 99.6685 11.8378L99.0595 11.7872C98.9072 11.7366 98.8564 11.686 98.8564 11.5342C98.8564 11.3317 98.958 11.2305 99.161 11.2305L101.445 11.3317L103.475 11.2305C103.678 11.2305 103.78 11.3317 103.78 11.4835C103.78 11.686 103.678 11.7872 103.526 11.7872L103.171 11.8378C102.612 11.9391 102.359 12.1921 102.359 12.6477V24.1877C102.359 24.4408 102.46 24.6433 102.612 24.7445C102.765 24.8963 103.018 24.947 103.272 24.9976L103.881 25.0482C104.034 25.0482 104.135 25.1494 104.135 25.3013C104.135 25.4025 104.084 25.4531 104.034 25.5037C103.983 25.5543 103.932 25.6049 103.831 25.6049L101.547 25.5037L99.5163 25.6049Z" fill="#222222"/>
<path d="M115.301 21.8598C115.301 23.1252 114.845 24.0869 113.88 24.7449C112.916 25.4028 111.748 25.7571 110.378 25.7571C109.008 25.7571 107.891 25.6053 107.028 25.251C106.165 24.9473 105.708 24.593 105.708 24.1881V21.8092C105.708 21.5055 105.81 21.4043 106.013 21.4043C106.165 21.4043 106.318 21.5561 106.368 21.8092C106.724 22.8721 107.18 23.6313 107.739 24.1375C108.297 24.6436 109.109 24.8967 110.124 24.8967C111.139 24.8967 111.951 24.6436 112.611 24.1881C113.22 23.7326 113.576 23.0746 113.576 22.2647C113.576 21.3537 113.068 20.6451 112.053 19.9871C111.596 19.734 111.089 19.4303 110.581 19.1773C110.023 18.9242 109.515 18.6711 108.957 18.3674C108.399 18.1144 107.942 17.8107 107.485 17.4564C106.47 16.7478 105.962 15.7861 105.962 14.6726C105.962 13.559 106.368 12.648 107.231 11.99C108.094 11.332 109.109 11.0283 110.277 11.0283C111.444 11.0283 112.408 11.1802 113.271 11.4838C114.083 11.7875 114.489 12.0912 114.489 12.4455V14.4701C114.489 14.7232 114.388 14.875 114.185 14.875C113.982 14.875 113.829 14.7232 113.728 14.4701C113.423 13.6097 113.068 12.9517 112.611 12.5468C112.155 12.1418 111.444 11.9394 110.53 11.9394C109.617 11.9394 108.906 12.1418 108.348 12.5974C107.84 13.0529 107.536 13.559 107.536 14.217C107.536 14.875 107.789 15.4318 108.348 15.8873C108.855 16.3428 109.515 16.7478 110.277 17.1021C111.038 17.4564 111.799 17.8107 112.51 18.2156C113.271 18.6205 113.88 19.076 114.439 19.6834C115.048 20.3414 115.301 21.05 115.301 21.8598Z" fill="#222222"/>
<path d="M131.797 25.0482C131.95 25.0482 132 25.1495 132 25.3013C132 25.5038 131.899 25.5544 131.696 25.5544L129.412 25.4531L127.432 25.5544C127.229 25.5544 127.128 25.4532 127.128 25.2507C127.128 25.0989 127.178 24.9976 127.331 24.9976L127.686 24.947C128.244 24.8964 128.498 24.5927 128.498 24.1372V19.1263C128.498 18.8733 128.397 18.7214 128.143 18.7214H120.783C120.682 18.7214 120.631 18.772 120.529 18.8226C120.479 18.8733 120.428 18.9745 120.428 19.0757V24.0866C120.428 24.5927 120.682 24.8458 121.24 24.8964L121.595 24.947C121.748 24.9976 121.849 25.0482 121.849 25.2001C121.849 25.3013 121.798 25.3519 121.748 25.4025C121.697 25.4531 121.595 25.5038 121.545 25.5038L119.514 25.4025L117.23 25.5038C117.027 25.5038 116.926 25.4025 116.926 25.2507C116.926 25.0482 116.977 24.9976 117.129 24.9976L117.738 24.947C117.992 24.8964 118.245 24.8458 118.398 24.6939C118.55 24.5421 118.651 24.3396 118.651 24.1372V12.5971C118.651 12.0909 118.347 11.8378 117.738 11.7872L117.129 11.7366C116.977 11.7366 116.926 11.6354 116.926 11.4835C116.926 11.2811 117.027 11.2305 117.23 11.2305L119.514 11.3317L121.545 11.2305C121.748 11.2305 121.849 11.3317 121.849 11.4835C121.849 11.686 121.748 11.7872 121.595 11.7872L121.24 11.8378C120.682 11.9391 120.428 12.1921 120.428 12.6477V17.4054C120.428 17.6585 120.58 17.8104 120.834 17.8104H128.194C128.447 17.8104 128.6 17.7091 128.6 17.4561V12.6477C128.6 12.1921 128.346 11.9391 127.788 11.8378L127.432 11.7872C127.28 11.7366 127.229 11.686 127.229 11.5342C127.229 11.3317 127.331 11.2305 127.534 11.2305L129.513 11.3317L131.797 11.2305C132 11.2305 132.102 11.3317 132.102 11.4835C132.102 11.686 132.051 11.7366 131.899 11.7366L131.29 11.7872C130.681 11.8378 130.376 12.0909 130.376 12.5971V24.1372C130.376 24.6433 130.681 24.8964 131.29 24.947L131.797 25.0482Z" fill="#222222"/>
<path d="M133.878 25.6049C133.675 25.6049 133.573 25.5037 133.573 25.3519C133.573 25.2 133.624 25.0988 133.776 25.0482L134.131 24.9976C134.69 24.947 134.943 24.6433 134.943 24.1877V12.6477C134.943 12.1415 134.639 11.8885 134.03 11.8378L133.421 11.7872C133.269 11.7366 133.218 11.686 133.218 11.5342C133.218 11.3317 133.319 11.2305 133.522 11.2305L135.806 11.3317L137.837 11.2305C138.04 11.2305 138.141 11.3317 138.141 11.4835C138.141 11.686 138.04 11.7872 137.887 11.7872L137.532 11.8378C136.974 11.9391 136.72 12.1921 136.72 12.6477V24.1877C136.72 24.4408 136.821 24.6433 136.974 24.7445C137.126 24.8963 137.38 24.947 137.634 24.9976L138.243 25.0482C138.395 25.0482 138.496 25.1494 138.496 25.3013C138.496 25.4025 138.446 25.4531 138.395 25.5037C138.344 25.5543 138.293 25.6049 138.192 25.6049L135.908 25.5037L133.878 25.6049Z" fill="#222222"/>
<path d="M143.217 12.6478V23.6312C143.217 23.9349 143.319 24.1373 143.471 24.2891C143.674 24.441 143.877 24.5422 144.181 24.5422H147.125C147.836 24.5422 148.445 24.3904 148.952 24.0361C149.46 23.6818 149.815 23.1756 150.018 22.5177C150.069 22.3152 150.221 22.214 150.424 22.214C150.627 22.214 150.729 22.3152 150.729 22.5683L150.424 24.6941C150.374 24.9471 150.323 25.099 150.12 25.2508C149.968 25.4027 149.765 25.5039 149.511 25.5039H142.303L140.019 25.6051C139.816 25.6051 139.715 25.5039 139.715 25.3521C139.715 25.2002 139.766 25.099 139.918 25.099L140.527 25.0484C140.781 24.9977 141.034 24.9471 141.187 24.7953C141.339 24.6434 141.441 24.441 141.441 24.2385V12.6984C141.441 12.1923 141.136 11.9392 140.527 11.8886L139.918 11.838C139.766 11.7874 139.715 11.7368 139.715 11.5849C139.715 11.3825 139.816 11.2812 140.019 11.2812L142.303 11.3825L144.334 11.2812C144.537 11.2812 144.638 11.3825 144.638 11.5343C144.638 11.7368 144.537 11.838 144.384 11.838L144.029 11.8886C143.471 11.9392 143.217 12.1923 143.217 12.6478Z" fill="#222222"/>
<path d="M161.997 25.5041H154.383L152.099 25.6053C151.896 25.6053 151.795 25.5041 151.795 25.3522C151.795 25.2004 151.846 25.0992 151.998 25.0992L152.607 25.0485C152.861 24.9979 153.115 24.9473 153.267 24.7955C153.419 24.6436 153.521 24.4412 153.521 24.2387V12.6986C153.521 12.1925 153.216 11.9394 152.607 11.8888L151.998 11.8382C151.846 11.8382 151.795 11.7369 151.795 11.5851C151.795 11.3826 151.896 11.332 152.099 11.332L154.383 11.4333H161.591C161.845 11.4333 162.048 11.5345 162.2 11.6863C162.352 11.8382 162.454 12.0406 162.504 12.2431L162.809 14.1158C162.86 14.3689 162.758 14.4701 162.504 14.4701C162.301 14.4701 162.149 14.3689 162.048 14.1664C161.845 13.5085 161.54 13.0529 161.134 12.7999C160.728 12.5468 160.17 12.3949 159.459 12.3949H156.261C155.957 12.3949 155.703 12.4962 155.551 12.648C155.348 12.7999 155.297 13.0529 155.297 13.3566V17.6082C155.297 17.7601 155.399 17.8613 155.551 17.8613H159.358C159.561 17.8613 159.713 17.8107 159.814 17.7095C159.916 17.6082 160.017 17.507 160.017 17.4564C160.068 17.3552 160.119 17.2033 160.17 17.0008L160.271 16.7478C160.322 16.5959 160.423 16.4947 160.576 16.4947C160.728 16.4947 160.829 16.5959 160.829 16.7984L160.728 18.5193L160.829 20.1389C160.829 20.2908 160.728 20.392 160.576 20.4426C160.423 20.4426 160.322 20.3414 160.271 20.1896L160.22 19.8353C160.119 19.1267 159.814 18.7723 159.408 18.7723H155.602C155.449 18.7723 155.348 18.8736 155.348 19.076V23.7832C155.348 24.0869 155.449 24.2893 155.602 24.4412C155.805 24.593 156.008 24.6942 156.312 24.6942H159.662C160.373 24.6942 160.982 24.5424 161.489 24.1881C161.997 23.8338 162.352 23.3277 162.555 22.6697C162.606 22.4672 162.758 22.366 162.91 22.366C163.063 22.366 163.164 22.4166 163.215 22.4672C163.266 22.5178 163.317 22.619 163.266 22.7203L162.961 24.8461C162.91 25.0992 162.86 25.251 162.657 25.4028C162.454 25.4535 162.251 25.5041 161.997 25.5041Z" fill="#222222"/>
<path d="M176.563 22.4669V12.6477C176.563 12.1921 176.259 11.8885 175.65 11.8378L175.041 11.7872C174.888 11.7366 174.838 11.686 174.838 11.4835C174.838 11.2811 174.939 11.2305 175.142 11.2305L177.122 11.2811L178.695 11.2305C178.898 11.2305 179 11.3317 179 11.4835C179 11.6354 178.898 11.7366 178.746 11.7872L178.391 11.8378C177.832 11.9391 177.579 12.1921 177.579 12.6477V25.5038C177.579 25.6556 177.528 25.7568 177.376 25.7568H177.122C176.766 25.7568 176.513 25.605 176.259 25.2507L167.681 14.318C167.63 14.2673 167.63 14.2673 167.58 14.2673C167.529 14.2673 167.478 14.3179 167.478 14.4698V24.1878C167.478 24.6433 167.732 24.8964 168.29 24.9976L168.646 25.0482C168.798 25.0988 168.899 25.1494 168.899 25.3519C168.899 25.5544 168.798 25.605 168.595 25.605L167.021 25.5544L165.042 25.605C164.839 25.605 164.737 25.5037 164.737 25.3519C164.737 25.2001 164.788 25.0988 164.94 25.0482L165.549 24.9976C166.158 24.947 166.463 24.6433 166.463 24.1878V12.6477C166.463 12.1921 166.209 11.8885 165.651 11.8378L165.296 11.7872C165.143 11.7366 165.042 11.686 165.042 11.4835C165.042 11.3317 165.143 11.2305 165.346 11.2305L166.971 11.2811C167.377 11.2811 167.681 11.4329 167.884 11.686L176.36 22.5175C176.411 22.5681 176.462 22.5681 176.513 22.5681C176.513 22.6187 176.563 22.5681 176.563 22.4669Z" fill="#222222"/>
<path d="M89.9236 35.7281C89.7714 35.475 89.5176 35.2219 89.213 35.0701C88.9085 34.9183 88.604 34.817 88.1979 34.817H87.4366C87.3351 34.817 87.2336 34.8676 87.1321 34.9183C87.0305 34.9689 87.0305 35.0701 87.0305 35.2219V39.6254C87.0305 39.7266 87.0813 39.8278 87.1321 39.9291C87.2336 39.9797 87.2843 40.0303 87.4366 40.0303H88.2487C88.9085 40.0303 89.4161 39.8278 89.8221 39.3723C90.2282 38.9168 90.4312 38.36 90.4312 37.6008C90.4312 36.8922 90.2789 36.2848 89.9236 35.7281ZM90.4312 35.2726C90.9895 35.7787 91.2433 36.4873 91.2433 37.3477C91.2433 38.2082 90.9388 38.9674 90.3804 39.5241C89.8221 40.1315 89.1115 40.4352 88.2487 40.4352H86.7768L85.7109 40.4858C85.6094 40.4858 85.6094 40.4352 85.6094 40.3846C85.6094 40.2834 85.6601 40.2834 85.7109 40.2834H85.9647C86.0662 40.2834 86.1677 40.2328 86.2692 40.1821C86.32 40.1315 86.3707 40.0303 86.3707 39.9291V35.0195C86.3707 34.817 86.2184 34.7158 85.9647 34.6652L85.7109 34.6146C85.6601 34.6146 85.6094 34.564 85.6094 34.5133C85.6094 34.4121 85.6601 34.4121 85.7109 34.4121L86.7768 34.4627H88.2487C89.1623 34.4627 89.8729 34.7158 90.4312 35.2726Z" fill="#222222"/>
<path d="M96.2166 40.4354H93.019L92.0546 40.486C91.9531 40.486 91.9531 40.4354 91.9531 40.3848C91.9531 40.2835 92.0039 40.2835 92.0546 40.2835H92.3084C92.4099 40.2835 92.5114 40.2329 92.613 40.1823C92.6637 40.1317 92.7145 40.0305 92.7145 39.9292V35.0196C92.7145 34.8172 92.5622 34.716 92.3084 34.6653H92.0546C92.0039 34.6653 91.9531 34.6147 91.9531 34.5641C91.9531 34.4629 92.0039 34.4629 92.0546 34.4629L93.019 34.5135H96.0644C96.1659 34.5135 96.2674 34.5641 96.3181 34.6147C96.3689 34.6654 96.4196 34.7666 96.4196 34.8678L96.5212 35.627C96.5212 35.7283 96.4704 35.7789 96.4196 35.7789C96.3181 35.7789 96.2674 35.7283 96.2166 35.627C96.1151 35.374 96.0136 35.1715 95.8106 35.0703C95.6583 34.969 95.4045 34.9184 95.1 34.9184H93.7803C93.6788 34.9184 93.5773 34.969 93.4758 35.0196C93.3743 35.0703 93.3743 35.1715 93.3743 35.3233V37.0948C93.3743 37.1454 93.425 37.1961 93.4758 37.1961H95.0492C95.1507 37.1961 95.2015 37.1961 95.2523 37.1455C95.303 37.0948 95.303 37.0442 95.3538 37.0442C95.3538 36.9936 95.4045 36.943 95.4045 36.8418L95.4553 36.7405C95.4553 36.6899 95.506 36.6393 95.6076 36.6393C95.6583 36.6393 95.7091 36.6899 95.7091 36.7405L95.6583 37.4491L95.7091 38.1577C95.7091 38.2083 95.6583 38.259 95.6076 38.3096C95.5568 38.3096 95.506 38.2589 95.506 38.2083V38.0565C95.4553 37.7528 95.3538 37.601 95.1507 37.601H93.5773C93.5266 37.601 93.4758 37.6516 93.4758 37.7022V39.6762C93.4758 39.7774 93.5266 39.8786 93.5773 39.9798C93.6788 40.0304 93.7296 40.0811 93.8819 40.0811H95.303C95.6076 40.0811 95.8613 40.0305 96.0644 39.8786C96.2674 39.7268 96.4196 39.5243 96.5212 39.2206C96.5719 39.1194 96.5719 39.0688 96.6734 39.0688C96.7242 39.0688 96.7749 39.0688 96.8257 39.1194C96.8257 39.17 96.8765 39.17 96.8765 39.2206L96.7242 40.1317C96.7242 40.2329 96.6734 40.2835 96.6227 40.3848C96.4196 40.3848 96.3181 40.4354 96.2166 40.4354Z" fill="#222222"/>
<path d="M100.125 35.0701V39.8279C100.125 39.9291 100.176 40.0303 100.227 40.0809C100.278 40.1315 100.379 40.1822 100.481 40.1822H100.734C100.785 40.1822 100.836 40.2328 100.836 40.2834C100.836 40.334 100.836 40.334 100.785 40.3846C100.785 40.3846 100.734 40.4352 100.684 40.4352L99.7193 40.3846L98.6535 40.4352C98.6027 40.4352 98.6027 40.4352 98.552 40.3846C98.552 40.3846 98.5012 40.334 98.5012 40.2834C98.5012 40.2328 98.552 40.1822 98.6027 40.1822H98.9072C99.0088 40.1822 99.1103 40.1315 99.161 40.0809C99.2118 40.0303 99.2625 39.9291 99.2625 39.8279V35.0701C99.2625 34.9183 99.2118 34.817 99.0595 34.817H98.3489C98.0951 34.817 97.8414 34.9183 97.6891 35.0195C97.5368 35.1713 97.3846 35.3738 97.3338 35.6775C97.2831 35.7787 97.2323 35.8293 97.1815 35.8293C97.1308 35.8293 97.08 35.8293 97.0293 35.7787C96.9785 35.7281 96.9785 35.7281 96.9785 35.6775L97.0293 34.564C97.0293 34.4627 97.08 34.4121 97.2323 34.4121H101.953C102.054 34.4121 102.156 34.4627 102.156 34.6146L102.257 35.6775C102.257 35.7281 102.257 35.7787 102.206 35.7787C102.156 35.8293 102.156 35.8293 102.054 35.8293C102.003 35.8293 101.953 35.7787 101.902 35.6775C101.8 35.3738 101.648 35.1713 101.496 35.0195C101.344 34.8676 101.141 34.817 100.836 34.817H100.328C100.176 34.8676 100.125 34.9183 100.125 35.0701Z" fill="#222222"/>
<path d="M107.536 35.7284C107.383 35.4247 107.13 35.2223 106.876 35.0198C106.571 34.868 106.267 34.7667 105.861 34.7667C105.15 34.7667 104.643 34.9692 104.237 35.4247C103.831 35.8802 103.678 36.437 103.678 37.1456C103.678 37.9048 103.831 38.5628 104.186 39.1702C104.338 39.4739 104.592 39.7269 104.896 39.8788C105.201 40.0812 105.556 40.1318 105.912 40.1318C106.571 40.1318 107.13 39.9294 107.485 39.4739C107.84 39.0183 108.043 38.4109 108.043 37.7023C107.993 36.9431 107.84 36.2852 107.536 35.7284ZM105.81 34.3618C106.724 34.3618 107.434 34.6655 107.993 35.2223C108.551 35.779 108.805 36.5382 108.805 37.4493C108.805 38.3603 108.551 39.0689 107.993 39.6763C107.434 40.2837 106.724 40.5368 105.81 40.5368C104.947 40.5368 104.186 40.2331 103.628 39.6763C103.069 39.1196 102.815 38.3603 102.815 37.4493C102.815 36.5382 103.069 35.8296 103.628 35.2223C104.186 34.6149 104.947 34.3618 105.81 34.3618Z" fill="#222222"/>
<path d="M110.784 40.2328C110.835 40.2328 110.886 40.2834 110.886 40.334C110.886 40.3846 110.835 40.4352 110.734 40.4352H110.074H109.16C109.059 40.4352 109.059 40.3846 109.059 40.334C109.059 40.2834 109.109 40.2328 109.16 40.2328L109.414 40.1822C109.566 40.1822 109.769 40.0303 109.921 39.8279L111.546 37.4996L109.921 35.0195C109.769 34.817 109.617 34.7158 109.414 34.6652H109.16C109.109 34.6652 109.059 34.6146 109.059 34.564C109.059 34.5133 109.109 34.4627 109.16 34.4627L110.175 34.5133H111.038C111.14 34.5133 111.19 34.564 111.19 34.6146C111.19 34.6652 111.14 34.7158 111.089 34.7158H110.937C110.835 34.7158 110.784 34.7664 110.734 34.817C110.683 34.8676 110.683 34.9689 110.734 35.0195L111.952 36.8922L113.271 35.0195C113.322 34.9689 113.322 34.8676 113.271 34.817C113.221 34.7664 113.17 34.7158 113.068 34.6652H112.916C112.865 34.6652 112.815 34.6146 112.815 34.564C112.815 34.5133 112.865 34.4627 112.967 34.4627H113.627L114.54 34.4121C114.642 34.4121 114.642 34.4627 114.642 34.5133C114.642 34.564 114.591 34.6146 114.54 34.6146H114.286C114.134 34.6146 113.931 34.7664 113.779 34.9689L112.205 37.1959L113.931 39.7772C114.083 39.9797 114.236 40.0809 114.439 40.1315L114.693 40.1822C114.743 40.1822 114.794 40.2328 114.794 40.2834C114.794 40.334 114.743 40.3846 114.693 40.3846H113.677H112.764C112.662 40.3846 112.612 40.334 112.612 40.2834C112.612 40.2328 112.662 40.1822 112.713 40.1822H112.865C112.967 40.1822 113.018 40.1315 113.068 40.0809C113.119 40.0303 113.119 39.9291 113.068 39.8785L111.749 37.9045L110.378 39.8785C110.327 39.9291 110.327 40.0303 110.327 40.0809C110.378 40.1315 110.429 40.1822 110.531 40.1822L110.784 40.2328Z" fill="#222222"/>
<path d="M118.905 35.5259C118.905 35.9309 119.058 36.3358 119.362 36.8925C119.768 36.6901 120.022 36.4876 120.225 36.3358C120.428 36.1839 120.53 36.0827 120.58 35.9308C120.631 35.8296 120.682 35.6272 120.682 35.4753C120.682 35.2729 120.58 35.121 120.428 34.9692C120.276 34.8173 120.073 34.7667 119.819 34.7667C119.565 34.7667 119.362 34.8173 119.21 34.9692C119.007 35.121 118.905 35.2729 118.905 35.5259ZM118.144 38.8665C118.144 39.2208 118.246 39.5245 118.499 39.7775C118.753 40.0306 119.007 40.1318 119.362 40.1318C119.921 40.1318 120.377 39.9294 120.682 39.5245C119.921 38.8159 119.362 38.1579 118.956 37.5505C118.449 37.9048 118.144 38.3603 118.144 38.8665ZM121.24 35.5259C121.24 35.7284 121.189 35.8802 121.139 35.9815C121.088 36.0827 121.037 36.1839 120.986 36.2345C120.936 36.2852 120.885 36.3358 120.783 36.437C120.682 36.4876 120.631 36.5888 120.58 36.5888C120.53 36.6395 120.479 36.6901 120.327 36.7407C120.174 36.7913 120.124 36.8419 120.073 36.8925C120.022 36.9431 119.819 37.0444 119.515 37.1962C119.87 37.7023 120.377 38.3097 121.037 38.9171C121.189 38.664 121.291 38.2591 121.393 37.8036C121.393 37.753 121.393 37.7024 121.393 37.6517C121.393 37.4999 121.342 37.4493 121.189 37.4493H120.885C120.834 37.4493 120.783 37.3987 120.783 37.3481C120.783 37.2468 120.834 37.2468 120.936 37.2468H121.697H122.408C122.509 37.2468 122.509 37.2974 122.509 37.3481C122.509 37.3987 122.458 37.4493 122.408 37.4493L122.255 37.4999C122.103 37.4999 122.002 37.5505 121.951 37.6011C121.849 37.6517 121.799 37.753 121.799 37.8542C121.646 38.4616 121.494 38.9171 121.342 39.2208C121.596 39.4739 121.849 39.6763 122.103 39.8788C122.357 40.0812 122.56 40.2331 122.712 40.2331H122.864C122.915 40.2331 122.966 40.2837 122.966 40.3343C122.966 40.3849 122.915 40.4355 122.864 40.4355C122.306 40.4355 122.002 40.3849 121.849 40.3849C121.748 40.3849 121.596 40.3343 121.494 40.2331C121.291 40.0306 121.088 39.8788 120.986 39.7775C120.58 40.2837 119.971 40.5368 119.261 40.5368C118.702 40.5368 118.246 40.3849 117.89 40.1318C117.535 39.8282 117.332 39.4739 117.332 39.0689C117.332 38.664 117.434 38.3097 117.687 38.006C117.941 37.753 118.296 37.4493 118.702 37.1962C118.347 36.6394 118.195 36.1333 118.195 35.7284C118.195 35.3235 118.347 34.9692 118.601 34.7161C118.855 34.463 119.261 34.3618 119.667 34.3618C120.124 34.3618 120.479 34.463 120.733 34.6655C121.139 34.9186 121.24 35.2223 121.24 35.5259Z" fill="#222222"/>
<path d="M127.737 40.5364C127.635 40.5364 127.585 40.4858 127.534 40.4352L125.707 35.0195C125.656 34.817 125.453 34.7158 125.199 34.6652H124.996C124.996 34.6652 124.945 34.6652 124.945 34.6146V34.564C124.945 34.4627 124.996 34.4121 125.047 34.4121L125.91 34.4627L126.874 34.4121C126.976 34.4121 126.976 34.4627 126.976 34.5133C126.976 34.6146 126.925 34.6146 126.874 34.6652H126.671C126.57 34.6652 126.519 34.7158 126.468 34.7664C126.417 34.817 126.417 34.9183 126.468 35.0195L127.889 39.2711L129.463 34.5133C129.463 34.4627 129.564 34.4121 129.666 34.4121C129.767 34.4121 129.818 34.4627 129.869 34.5133L131.442 39.2711L132.863 35.0195C132.914 34.9183 132.863 34.8676 132.863 34.7664C132.813 34.7158 132.762 34.6652 132.66 34.6652H132.457C132.406 34.6652 132.356 34.6146 132.356 34.564C132.356 34.4627 132.406 34.4627 132.508 34.4627L133.269 34.5133L134.031 34.4627C134.132 34.4627 134.132 34.5133 134.132 34.564C134.132 34.6652 134.081 34.6652 134.031 34.6652H133.878C133.625 34.7158 133.472 34.817 133.371 35.0195L131.493 40.4352C131.493 40.4858 131.391 40.5364 131.29 40.5364C131.188 40.5364 131.138 40.4858 131.087 40.4352L129.513 35.7787L127.94 40.4352C127.889 40.4858 127.838 40.5364 127.737 40.5364Z" fill="#222222"/>
<path d="M138.548 40.4354H135.35L134.386 40.486C134.284 40.486 134.284 40.4354 134.284 40.3848C134.284 40.2835 134.335 40.2835 134.386 40.2835H134.639C134.741 40.2835 134.842 40.2329 134.944 40.1823C134.995 40.1317 135.046 40.0305 135.046 39.9292V35.0196C135.046 34.8172 134.893 34.716 134.639 34.6653H134.386C134.335 34.6653 134.284 34.6147 134.284 34.5641C134.284 34.4629 134.335 34.4629 134.386 34.4629L135.35 34.5135H138.395C138.497 34.5135 138.598 34.5641 138.649 34.6147C138.7 34.6654 138.751 34.7666 138.751 34.8678L138.852 35.627C138.852 35.7283 138.801 35.7789 138.751 35.7789C138.649 35.7789 138.598 35.7283 138.548 35.627C138.446 35.374 138.345 35.1715 138.142 35.0703C137.989 34.969 137.736 34.9184 137.431 34.9184H136.111C136.01 34.9184 135.908 34.969 135.807 35.0196C135.705 35.0703 135.705 35.1715 135.705 35.3233V37.0948C135.705 37.1454 135.756 37.1961 135.807 37.1961H137.38C137.482 37.1961 137.533 37.1961 137.583 37.1455C137.634 37.0948 137.634 37.0442 137.685 37.0442C137.685 36.9936 137.736 36.943 137.736 36.8418L137.786 36.7405C137.786 36.6899 137.837 36.6393 137.939 36.6393C137.989 36.6393 138.04 36.6899 138.04 36.7405L137.989 37.4491L138.04 38.1577C138.04 38.2083 137.989 38.259 137.939 38.3096C137.888 38.3096 137.837 38.2589 137.837 38.2083L137.786 38.0565C137.736 37.7528 137.634 37.601 137.431 37.601H135.858C135.807 37.601 135.756 37.6516 135.756 37.7022V39.6762C135.756 39.7774 135.807 39.8786 135.858 39.9798C135.959 40.0304 136.061 40.0811 136.162 40.0811H137.583C137.888 40.0811 138.142 40.0305 138.345 39.8786C138.548 39.7268 138.7 39.5243 138.801 39.2206C138.852 39.1194 138.852 39.0688 138.954 39.0688C139.004 39.0688 139.055 39.0688 139.106 39.1194C139.106 39.17 139.157 39.17 139.157 39.2206L138.903 40.0811C138.903 40.1823 138.852 40.2329 138.801 40.3341C138.751 40.3848 138.649 40.4354 138.548 40.4354Z" fill="#222222"/>
<path d="M141.136 35.0195V39.6254C141.136 39.7266 141.187 39.8278 141.237 39.9291C141.339 39.9797 141.39 40.0303 141.542 40.0303H142.76C143.065 40.0303 143.318 39.9797 143.522 39.8278C143.725 39.676 143.877 39.4735 143.978 39.1699C144.029 39.0686 144.08 39.018 144.181 39.018C144.283 39.018 144.334 39.0686 144.283 39.1699L144.131 40.0809C144.131 40.1821 144.08 40.2327 144.029 40.334C143.978 40.3846 143.877 40.4352 143.775 40.4352H140.73L139.766 40.4858C139.664 40.4858 139.664 40.4352 139.664 40.3846C139.664 40.2834 139.715 40.2834 139.766 40.2834H140.019C140.121 40.2834 140.222 40.2328 140.324 40.1821C140.375 40.1315 140.425 40.0303 140.425 39.9291V35.0195C140.425 34.817 140.273 34.7158 140.019 34.6652L139.766 34.6146C139.715 34.6146 139.664 34.564 139.664 34.5133C139.664 34.4121 139.715 34.4121 139.766 34.4121L140.73 34.4627L141.593 34.4121C141.694 34.4121 141.745 34.4627 141.745 34.5133C141.745 34.6146 141.694 34.6146 141.644 34.6652L141.491 34.7158C141.237 34.7158 141.136 34.8676 141.136 35.0195Z" fill="#222222"/>
<path d="M146.212 35.0195V39.6254C146.212 39.7266 146.263 39.8278 146.314 39.9291C146.415 39.9797 146.466 40.0303 146.618 40.0303H147.836C148.141 40.0303 148.395 39.9797 148.598 39.8278C148.801 39.676 148.953 39.4735 149.054 39.1699C149.105 39.0686 149.156 39.018 149.258 39.018C149.359 39.018 149.41 39.0686 149.359 39.1699L149.207 40.0809C149.207 40.1821 149.156 40.2327 149.105 40.334C149.054 40.4352 148.953 40.4352 148.851 40.4352H145.806L144.842 40.4858C144.74 40.4858 144.74 40.4352 144.74 40.3846C144.74 40.2834 144.791 40.2834 144.842 40.2834H145.096C145.197 40.2834 145.299 40.2328 145.4 40.1821C145.451 40.1315 145.502 40.0303 145.502 39.9291V35.0195C145.502 34.817 145.349 34.7158 145.096 34.6652L144.842 34.6146C144.791 34.6146 144.74 34.564 144.74 34.5133C144.74 34.4121 144.791 34.4121 144.842 34.4121L145.806 34.4627L146.669 34.4121C146.77 34.4121 146.821 34.4627 146.821 34.5133C146.821 34.6146 146.77 34.6146 146.72 34.6652L146.567 34.7158C146.314 34.7158 146.212 34.8676 146.212 35.0195Z" fill="#222222"/>
<path d="M154.789 39.17V35.0197C154.789 34.8172 154.637 34.716 154.383 34.6653H154.13C154.079 34.6653 154.028 34.6147 154.028 34.5641C154.028 34.5135 154.079 34.4629 154.13 34.4629H154.942H155.602C155.703 34.4629 155.754 34.5135 155.754 34.5641C155.754 34.6147 155.703 34.6653 155.652 34.6653H155.5C155.297 34.716 155.145 34.8172 155.145 35.0197V40.4354C155.145 40.486 155.094 40.5366 155.043 40.5366H154.942C154.789 40.5366 154.688 40.486 154.586 40.3342L150.983 35.7282H150.932C150.932 35.7282 150.881 35.7789 150.881 35.8295V39.8786C150.881 40.0811 150.983 40.1823 151.237 40.2329H151.389C151.44 40.2329 151.49 40.2835 151.49 40.3342C151.49 40.3848 151.44 40.4354 151.338 40.4354L150.678 40.3848L149.866 40.4354C149.765 40.4354 149.765 40.3848 149.765 40.3342C149.765 40.2835 149.815 40.2329 149.866 40.2329H150.12C150.374 40.1823 150.526 40.0811 150.526 39.8786V35.0197C150.526 34.8172 150.424 34.716 150.171 34.6653H150.018C149.968 34.6653 149.917 34.6147 149.917 34.5641C149.917 34.5135 149.968 34.4629 150.069 34.4629H150.729C150.881 34.4629 151.034 34.5135 151.084 34.6147L154.637 39.17H154.688C154.789 39.2206 154.789 39.2206 154.789 39.17Z" fill="#222222"/>
<path d="M160.627 40.4354H157.429L156.465 40.486C156.363 40.486 156.363 40.4354 156.363 40.3848C156.363 40.2835 156.414 40.2835 156.465 40.2835H156.719C156.82 40.2835 156.922 40.2329 157.023 40.1823C157.074 40.1317 157.125 40.0305 157.125 39.9292V35.0196C157.125 34.8172 156.972 34.716 156.719 34.6653H156.465C156.414 34.6653 156.363 34.6147 156.363 34.5641C156.363 34.4629 156.414 34.4629 156.465 34.4629L157.429 34.5135H160.475C160.576 34.5135 160.678 34.5641 160.728 34.6147C160.779 34.6654 160.83 34.7666 160.83 34.8678L160.931 35.627C160.931 35.7283 160.881 35.7789 160.83 35.7789C160.728 35.7789 160.678 35.7283 160.627 35.627C160.525 35.374 160.424 35.1715 160.221 35.0703C160.068 34.969 159.815 34.9184 159.51 34.9184H158.191C158.089 34.9184 157.987 34.969 157.886 35.0196C157.784 35.0703 157.784 35.1715 157.784 35.3233V37.0948C157.784 37.1454 157.835 37.1961 157.886 37.1961H159.459C159.561 37.1961 159.612 37.1961 159.662 37.1455C159.713 37.0948 159.713 37.0442 159.764 37.0442C159.764 36.9936 159.815 36.943 159.815 36.8418L159.865 36.7405C159.865 36.6899 159.916 36.6393 160.018 36.6393C160.068 36.6393 160.119 36.6899 160.119 36.7405L160.068 37.4491L160.119 38.1577C160.119 38.2083 160.068 38.259 160.018 38.3096C159.967 38.3096 159.916 38.2589 159.916 38.2083V38.0565C159.865 37.7528 159.764 37.601 159.561 37.601H157.987C157.937 37.601 157.886 37.6516 157.886 37.7022V39.6762C157.886 39.7774 157.937 39.8786 157.987 39.9798C158.089 40.0304 158.14 40.0811 158.292 40.0811H159.713C160.018 40.0811 160.271 40.0305 160.475 39.8786C160.678 39.7268 160.83 39.5243 160.931 39.2206C160.982 39.1194 160.982 39.0688 161.084 39.0688C161.134 39.0688 161.185 39.0688 161.236 39.1194C161.236 39.17 161.287 39.17 161.287 39.2206L161.134 40.1317C161.134 40.2329 161.084 40.2835 161.033 40.3848C160.83 40.3848 160.728 40.4354 160.627 40.4354Z" fill="#222222"/>
<path d="M165.956 38.9168C165.956 39.4736 165.753 39.8785 165.347 40.1315C164.941 40.3846 164.433 40.5365 163.875 40.5365C163.317 40.5365 162.809 40.4858 162.454 40.334C162.099 40.1822 161.896 40.0303 161.896 39.8785V38.8662C161.896 38.765 161.946 38.6637 162.048 38.6637C162.099 38.6637 162.149 38.7143 162.2 38.8156C162.352 39.2711 162.555 39.5748 162.758 39.7772C163.012 39.9797 163.317 40.0809 163.773 40.0809C164.23 40.0809 164.535 39.9797 164.789 39.7772C165.042 39.5748 165.195 39.3217 165.195 38.9674C165.195 38.6131 164.992 38.2588 164.586 38.0057C164.383 37.9045 164.18 37.8033 163.976 37.6514C163.773 37.5502 163.52 37.449 163.317 37.2971C163.063 37.1959 162.86 37.044 162.708 36.9428C162.302 36.6391 162.099 36.2342 162.099 35.7787C162.099 35.3232 162.302 34.9182 162.657 34.6652C163.012 34.4121 163.469 34.2603 163.926 34.2603C164.433 34.2603 164.839 34.3109 165.195 34.4627C165.55 34.5639 165.702 34.7158 165.702 34.8676V35.7281C165.702 35.8293 165.651 35.8799 165.601 35.8799C165.499 35.8799 165.448 35.8293 165.398 35.7281C165.296 35.3738 165.144 35.0701 164.941 34.9182C164.738 34.7664 164.433 34.6652 164.078 34.6652C163.672 34.6652 163.367 34.7664 163.164 34.9182C162.961 35.1207 162.809 35.3232 162.809 35.5762C162.809 35.8293 162.911 36.0824 163.164 36.2848C163.367 36.4873 163.672 36.6391 163.976 36.791C164.281 36.9428 164.586 37.0947 164.941 37.2465C165.245 37.3984 165.55 37.6008 165.753 37.8539C165.854 38.2588 165.956 38.5625 165.956 38.9168Z" fill="#222222"/>
<path d="M170.828 38.9168C170.828 39.4736 170.625 39.8785 170.219 40.1315C169.813 40.3846 169.305 40.5365 168.747 40.5365C168.189 40.5365 167.681 40.4858 167.326 40.334C166.971 40.1822 166.768 40.0303 166.768 39.8785V38.8662C166.768 38.765 166.818 38.6637 166.92 38.6637C166.971 38.6637 167.021 38.7143 167.072 38.8156C167.224 39.2711 167.427 39.5748 167.63 39.7772C167.884 39.9797 168.189 40.0809 168.646 40.0809C169.102 40.0809 169.407 39.9797 169.661 39.7772C169.914 39.5748 170.067 39.3217 170.067 38.9674C170.067 38.6131 169.864 38.2588 169.458 38.0057C169.255 37.9045 169.052 37.8033 168.849 37.6514C168.646 37.5502 168.392 37.449 168.189 37.2971C167.935 37.1959 167.732 37.044 167.58 36.9428C167.174 36.6391 166.971 36.2342 166.971 35.7787C166.971 35.3232 167.174 34.9182 167.529 34.6652C167.884 34.4121 168.341 34.2603 168.798 34.2603C169.305 34.2603 169.711 34.3109 170.067 34.4627C170.422 34.5639 170.574 34.7158 170.574 34.8676V35.7281C170.574 35.8293 170.524 35.8799 170.473 35.8799C170.371 35.8799 170.321 35.8293 170.27 35.7281C170.168 35.3738 170.016 35.0701 169.813 34.9182C169.61 34.7664 169.305 34.6652 168.95 34.6652C168.544 34.6652 168.24 34.7664 168.036 34.9182C167.833 35.1207 167.681 35.3232 167.681 35.5762C167.681 35.8293 167.783 36.0824 168.036 36.2848C168.24 36.4873 168.544 36.6391 168.849 36.791C169.153 36.9428 169.458 37.0947 169.813 37.2465C170.117 37.3984 170.422 37.6008 170.625 37.8539C170.727 38.2588 170.828 38.5625 170.828 38.9168Z" fill="#222222"/>
<path d="M123.473 29.5029C121.697 29.5535 119.87 29.5535 118.093 29.6041C114.49 29.6548 110.937 29.756 107.333 29.9585C110.937 30.1609 114.49 30.2621 118.093 30.3128C119.87 30.3634 121.697 30.3634 123.473 30.414L128.854 30.4646H134.234C136.01 30.4646 137.837 30.414 139.614 30.3634C143.217 30.3127 146.77 30.2115 150.374 30.0091C146.77 29.8066 143.217 29.7054 139.614 29.6548C137.837 29.6042 136.01 29.6042 134.234 29.5535H128.854L123.473 29.5029Z" fill="url(#paint0_linear)"/>
<path d="M67.0188 33.5094L66.5515 33.1354C66.2399 32.886 59.4477 27.3686 53.9329 26.1529C54.7741 24.719 55.2415 23.067 55.2415 21.2902C55.2415 15.991 50.9418 11.7205 45.6451 11.7205C43.9003 11.7205 42.249 12.1881 40.8469 12.9985C39.5695 7.51234 34.1481 0.779289 33.8989 0.467573L33.4938 0L33.12 0.467573C32.8707 0.779289 27.3871 7.57469 26.1408 13.0609C24.7076 12.2192 23.0251 11.7205 21.2491 11.7205C15.9524 11.7205 11.6839 16.0222 11.6839 21.2902C11.6839 23.067 12.1824 24.719 13.0237 26.1529C7.54001 27.431 0.810084 32.8548 0.498513 33.1354L0 33.5094L0.467356 33.8835C0.778927 34.1329 7.54001 39.5879 13.0237 40.8659C12.1513 42.2998 11.6527 43.9831 11.6527 45.7598C11.6527 51.059 15.9524 55.3295 21.218 55.3295C23.0251 55.3295 24.6764 54.8308 26.1408 53.9891C27.4182 59.4753 32.8395 66.2396 33.12 66.5513L33.4938 67.0188L33.8677 66.5513C34.117 66.2396 39.5383 59.5377 40.8158 54.0515C42.2178 54.8619 43.8691 55.3607 45.6139 55.3607C50.9106 55.3607 55.2103 51.059 55.2103 45.791C55.2103 44.0142 54.7118 42.331 53.8706 40.8971C59.3854 39.6814 66.2088 34.164 66.5203 33.8835L67.0188 33.5094ZM41.065 14.0584C42.4048 13.2167 43.9626 12.718 45.6451 12.718C50.381 12.718 54.2444 16.5521 54.2444 21.3213C54.2444 23.0358 53.7459 24.6255 52.8735 25.9971C52.5308 25.9659 52.2192 25.9347 51.9077 25.9347C50.4121 25.9347 48.9166 26.4023 47.4522 27.3686C47.2964 27.4621 47.1718 27.5557 47.0472 27.6803C46.6733 26.9946 46.2682 26.34 45.7697 25.7165C46.2682 23.0358 47.0783 20.8538 48.1377 19.6693C48.1688 19.6381 50.1629 16.9262 50.1629 16.9262C50.1629 16.9262 47.5145 18.9523 47.4522 18.9835C46.1748 20.168 43.6822 21.0096 40.7223 21.5084C40.1303 21.1967 39.5072 20.9161 38.884 20.6979C39.3202 20.2303 39.7253 19.7316 40.068 19.1393C40.7846 17.8613 41.1585 16.5521 41.1585 15.2429C41.1273 14.7753 41.0962 14.4013 41.065 14.0584ZM45.3024 43.6713C45.5828 44.6377 45.8944 45.5105 46.2371 46.2586C45.4893 45.9157 44.6169 45.604 43.6511 45.3234C43.6822 45.2923 43.7134 45.2611 43.7445 45.2299C44.3053 44.7312 44.835 44.2013 45.3024 43.6713ZM39.0398 47.1002C37.295 47.8172 35.5502 48.1912 33.8054 48.1912C33.6808 48.1912 33.5562 48.1912 33.4315 48.1912C28.1037 48.0354 23.9598 45.7287 21.1868 41.3335C20.0028 39.4632 19.3485 37.3435 19.2551 35.068C19.0681 30.2676 20.9687 26.34 24.8945 23.3787C27.0443 21.7577 29.4746 20.8226 32.1229 20.6356C32.5903 20.6044 33.0265 20.5732 33.4627 20.5732C38.3855 20.5732 42.4048 22.6305 45.3958 26.6828C45.7386 27.1504 45.9878 27.5868 46.2059 28.0232C46.1748 28.0232 46.1748 28.0232 46.1436 28.0232C45.8944 28.0232 45.7074 28.2103 45.5205 28.3349C44.0561 29.2389 42.7786 30.3611 41.5012 31.5456C39.7564 33.1354 38.2297 34.9745 36.6407 36.7201C36.111 37.2812 35.5814 37.8734 34.9894 38.4034C35.2075 38.0605 35.4567 37.7176 35.706 37.3747C36.8276 35.8785 37.6066 34.164 38.4478 32.5119C39.2267 31.0157 40.1303 29.6441 41.5324 28.6155C41.5947 28.5531 41.7193 28.522 41.657 28.3973C41.5947 28.2726 41.5012 28.3038 41.4077 28.3349C40.5665 28.522 39.8187 28.9272 39.1333 29.3948C38.1986 29.987 37.3262 30.704 36.4849 31.4209C35.3321 32.4184 34.3039 33.5094 33.3381 34.6628C32.3722 35.8161 31.6244 37.1565 30.6897 38.341C29.5992 39.6814 28.3218 40.7101 26.6081 41.0841C25.2372 41.3958 24.0221 41.0529 23.0562 39.9931C22.7447 39.6814 22.4954 39.3073 22.3708 38.8398C23.8352 39.4944 25.2995 39.5567 26.7328 39.0268C28.6333 38.3098 30.16 37.1565 30.6274 35.0368C30.9701 33.4159 30.5028 31.982 28.7891 31.3586C28.6645 31.2962 28.5399 31.2339 28.4464 31.1092C27.7298 30.0806 26.7639 29.613 25.4865 29.613C23.212 29.613 21.4049 31.1716 20.6883 33.073C20.3767 33.8835 20.3144 34.7251 20.3456 35.5979C20.3767 36.7513 20.8129 37.6864 21.7165 38.4034C21.8723 38.528 21.9969 38.6839 22.0904 38.9021C22.215 39.2762 22.4019 39.619 22.6512 39.9308C23.4613 40.9906 24.5206 41.5829 25.8604 41.5205C27.1066 41.4582 28.2906 41.1153 29.4434 40.523C31.344 39.5255 32.9642 38.1852 34.2416 36.4707C35.0205 35.4421 35.6748 34.3199 36.3915 33.2289C37.0457 32.2314 37.7001 31.2027 38.5724 30.3923C39.1956 29.8 39.881 29.2389 40.7223 28.896C39.6318 29.9247 38.6971 31.0469 37.9493 32.3561C37.0457 33.9458 36.2668 35.5979 35.2698 37.1565C34.4909 38.4034 33.7431 39.6814 32.5903 40.6477C32.5591 40.6789 32.528 40.6789 32.528 40.7101C32.4968 40.7412 32.4657 40.8036 32.4968 40.8659C32.528 40.9283 32.6214 40.9283 32.6838 40.9283C32.7772 40.8971 32.8395 40.8659 32.9019 40.8036C33.3692 40.3983 33.8677 40.0243 34.3351 39.619C35.9241 38.1852 37.3262 36.5642 38.7594 35.0057C40.2238 33.3847 41.7505 31.8262 43.4329 30.3923C43.838 30.0494 44.243 29.7377 44.6792 29.3948C43.6199 30.4858 42.5917 31.5456 41.5947 32.6678C40.2238 34.2575 38.8529 35.8473 37.9493 37.7799C37.5754 38.528 37.3573 39.3385 37.3885 40.1801C37.4196 41.0218 38.0428 41.427 38.8217 41.0218C39.3202 40.7724 39.6941 40.3672 40.0368 39.9308C40.0991 39.8372 40.2238 39.7126 40.0991 39.432C39.9122 39.619 39.7876 39.8061 39.6629 39.9619C39.3514 40.2736 39.071 40.5854 38.6348 40.7724C38.1674 40.9594 37.887 40.8347 37.7624 40.336C37.7312 40.1801 37.7312 39.9931 37.7624 39.8372C37.887 39.2762 38.1051 38.7462 38.3855 38.2163C39.476 36.2213 40.8469 34.4134 42.2801 32.6678C43.4018 31.2962 44.5858 29.9559 45.8944 28.7402C46.0813 28.5843 46.3306 28.4596 46.4552 28.2414C47.016 29.2701 47.4211 30.3923 47.7015 31.7015C48.3246 34.7875 47.9196 37.7799 46.4863 40.523C44.7415 43.5467 42.2801 45.7598 39.0398 47.1002ZM33.93 49.064C33.8054 49.3446 33.7119 49.6251 33.6185 49.8745C33.525 49.5939 33.4315 49.3446 33.3069 49.064C33.3381 49.064 33.4004 49.064 33.4315 49.064C33.5873 49.0952 33.7431 49.0952 33.93 49.064ZM23.3678 45.3234C22.4331 45.5728 21.5607 45.8845 20.8129 46.2586C21.1556 45.5105 21.4672 44.6377 21.7476 43.6713C22.215 44.2636 22.7758 44.8247 23.3678 45.3234ZM19.0993 29.613C17.3856 29.1766 15.8589 28.2103 14.7373 26.9011C14.8619 26.9011 14.9865 26.9011 15.1112 26.9011C16.4198 26.9011 17.7284 27.3375 19.037 28.1791C19.2239 28.3038 19.3797 28.4285 19.5355 28.5531C19.3797 28.8649 19.2239 29.2389 19.0993 29.613ZM18.3204 33.9458C17.9465 33.79 17.5726 33.6341 17.2299 33.5094C17.6037 33.3847 17.9465 33.2289 18.3204 33.073V33.9458ZM19.037 38.9021C17.7595 39.7437 16.4198 40.1801 15.1423 40.1801C15.0177 40.1801 14.9242 40.1801 14.7996 40.1801C15.8278 38.9956 17.1675 38.1228 18.6942 37.6241C18.7877 38.0293 18.8812 38.4657 19.037 38.9021ZM22.0592 24.719C21.7476 23.254 21.3114 21.9136 20.8129 20.8226C21.9657 21.3837 23.4301 21.8201 25.0503 22.1318C23.9286 22.8487 22.9316 23.7216 22.0592 24.719ZM32.5591 19.7004C33.0265 18.8276 33.4315 17.986 33.7119 17.2067C33.9924 18.0172 34.3662 18.8588 34.8336 19.7004H32.5591ZM43.4329 23.2228C42.9656 22.8176 42.4671 22.4747 41.9686 22.163C43.5887 21.8201 45.0531 21.3837 46.2059 20.8226C45.7074 21.9136 45.2712 23.2228 44.9596 24.719C44.4923 24.1891 43.9938 23.6904 43.4329 23.2228ZM21.7788 38.0605C21.2803 37.7176 20.9687 37.2812 20.7818 36.7513C20.2209 35.068 20.5325 33.5094 21.5607 32.1067C22.0904 31.3586 22.7758 30.7663 23.6482 30.4546C24.8633 29.987 26.1096 29.8623 27.2936 30.5793C27.5117 30.704 27.6986 30.8598 27.8856 31.1404C25.985 31.078 24.396 31.6703 23.212 33.1354C22.028 34.5693 21.5607 36.1902 21.7788 38.0605ZM25.2372 32.169C26.0785 31.6703 27.0443 31.5768 28.0102 31.608C28.2595 31.608 28.3218 31.795 28.3841 31.982C28.6645 32.9483 28.5087 33.8211 28.0102 34.6939C27.6052 35.4109 27.0132 35.9096 26.2342 36.159C26.1096 36.1902 25.9227 36.2213 25.985 36.3772C26.0161 36.5642 26.2031 36.5331 26.3589 36.4707C27.3247 36.159 28.0102 35.5356 28.4464 34.6316C28.8514 33.79 28.9761 32.9483 28.758 32.0444C28.7268 31.982 28.6957 31.8885 28.758 31.8262C28.8203 31.795 28.9138 31.8262 28.9761 31.8573C29.6927 32.2626 30.2224 32.8236 30.3158 33.6653C30.4405 34.9121 30.0666 36.0343 29.2253 36.9695C28.0102 38.341 26.4523 39.0268 24.6452 39.0268C24.5518 39.0268 24.4895 39.0268 24.396 39.0268C23.7417 39.0268 23.1185 38.8709 22.4954 38.5904C22.215 38.4657 22.0904 38.2787 22.0592 37.967C21.8099 35.3174 23.0562 33.4782 25.2372 32.169ZM48.3246 37.6241C49.8201 38.1228 51.1287 38.9956 52.1258 40.149C52.0323 40.149 51.97 40.149 51.8765 40.149C50.5679 40.149 49.2593 39.7126 47.9507 38.8709C48.013 38.6839 48.0754 38.4657 48.1377 38.2787C48.2311 38.0605 48.2935 37.8423 48.3246 37.6241ZM48.6985 33.1354L48.6673 32.9483C49.1035 33.1665 49.5709 33.3536 50.0071 33.4782C49.5709 33.6341 49.1347 33.79 48.6985 34.0082V33.1354ZM47.4522 28.522C47.608 28.3973 47.7949 28.2726 47.9507 28.1479C49.2282 27.3063 50.5679 26.8699 51.8765 26.8699C51.97 26.8699 52.0635 26.8699 52.1569 26.8699C51.0353 28.1791 49.5709 29.1142 47.8573 29.5818C47.7638 29.2389 47.608 28.8649 47.4522 28.522ZM40.1615 15.1494C40.1615 16.3027 39.8499 17.4561 39.1956 18.5782C38.8217 19.2328 38.3543 19.7939 37.8247 20.2927C37.6066 20.2303 37.3885 20.168 37.1704 20.1368C37.4819 17.986 38.5724 16.0845 40.1615 14.7753C40.1303 14.8688 40.1615 14.9935 40.1615 15.1494ZM33.4938 1.55858C34.8024 3.24184 39.071 9.03975 39.9745 13.5596C37.9493 15.0559 36.5472 17.3002 36.1734 19.8875C36.1422 19.8875 36.1422 19.8875 36.111 19.8875C34.9271 17.9236 34.2105 16.0222 34.2105 14.4948L33.6808 4.33285L33.1823 14.4948C33.1823 16.0222 32.4657 17.8925 31.3128 19.8251C31.1259 19.8563 30.939 19.8875 30.7209 19.9186C30.347 17.3626 28.9761 15.1494 27.0132 13.6531C27.8856 9.13327 32.1852 3.27301 33.4938 1.55858ZM26.8885 14.8065C28.4152 16.1469 29.4746 18.0172 29.755 20.1368C29.5681 20.168 29.4123 20.2303 29.2253 20.2927C28.6957 19.8251 28.1971 19.2328 27.8233 18.5782C27.169 17.4561 26.8574 16.3027 26.8574 15.1494C26.8574 15.0247 26.8885 14.9312 26.8885 14.8065ZM12.6809 21.2902C12.6809 16.5521 16.5132 12.6868 21.2803 12.6868C23.0251 12.6868 24.6452 13.2167 25.985 14.0895C25.9538 14.4324 25.9227 14.7753 25.9227 15.1182C25.9227 16.4274 26.2966 17.7366 27.0132 19.0146C27.3559 19.6069 27.7298 20.1057 28.1971 20.5732C27.5428 20.7914 26.9197 21.072 26.3277 21.3837C23.3366 20.8849 20.8752 20.0433 19.5978 18.8588C19.5666 18.7964 16.7313 16.6768 16.7313 16.6768C16.7313 16.6768 18.85 19.4822 18.9123 19.5446C20.0028 20.7291 20.7818 22.9423 21.3114 25.623C20.9687 26.0594 20.6571 26.527 20.3456 27.0257C20.2209 27.2128 20.1275 27.3998 20.034 27.5868C19.9094 27.4933 19.7536 27.3686 19.629 27.3063C18.1646 26.3711 16.669 25.8724 15.1735 25.8724C14.8308 25.8724 14.4569 25.9036 14.083 25.9347C13.1794 24.6255 12.6809 23.0358 12.6809 21.2902ZM1.55785 33.5094C3.24033 32.2002 9.06671 27.9297 13.5845 27.0257C14.8619 28.709 16.7002 29.987 18.8189 30.5481C18.6942 30.9845 18.6008 31.4209 18.5385 31.8573C17.0741 32.5743 15.672 33.0107 14.488 33.0107L4.33083 33.5094L14.5815 34.0393C15.7032 34.0393 16.9806 34.4134 18.3515 35.068V35.6603L18.3827 35.7849C18.3827 35.8473 18.4138 35.8785 18.4138 35.9408C18.445 36.1902 18.4761 36.4084 18.5073 36.6577C16.5444 37.25 14.8619 38.4345 13.6468 40.0243C9.09786 39.1203 3.27149 34.8498 1.55785 33.5094ZM25.9538 52.9605C24.6141 53.8644 22.9939 54.3632 21.2491 54.3632C16.5132 54.3632 12.6498 50.5291 12.6498 45.7598C12.6498 44.0142 13.1794 42.3933 14.0518 41.0529C14.4257 41.0841 14.7684 41.1153 15.1112 41.1153C16.5444 41.1153 17.9776 40.6789 19.3797 39.8061C19.5355 40.2113 19.7224 40.5854 19.9405 40.9594C20.2521 41.5517 20.5948 42.1128 20.9999 42.6739C20.4702 44.8559 19.7224 46.6015 18.7566 47.5678L16.7313 50.3109L19.442 48.2536C20.4079 47.2873 22.1215 46.5391 24.3025 46.0404C24.7699 46.3833 25.2372 46.695 25.7357 46.9755C26.2031 47.2561 26.7016 47.4743 27.169 47.6925C26.3277 49.064 25.8915 50.4667 25.8915 51.8695C25.8915 52.2435 25.9227 52.6176 25.9538 52.9605ZM26.8574 51.9006C26.8574 50.6226 27.2624 49.3446 28.0725 48.0977C28.5087 48.2536 28.9449 48.4094 29.3811 48.5341C28.8826 49.9992 28.0102 51.2772 26.8885 52.2747C26.8885 52.15 26.8574 52.0253 26.8574 51.9006ZM33.4938 65.4914C32.1852 63.777 27.8856 57.9791 27.0132 53.4592C28.5399 52.3059 29.7238 50.6849 30.347 48.8147C30.939 48.9393 31.5621 49.0329 32.1541 49.064C32.7461 50.3421 33.0576 51.5578 33.0576 52.6176L33.5873 62.7795L34.117 52.6176C34.117 51.5578 34.4597 50.3421 35.0517 49.0329C35.3321 49.0017 35.6125 48.9705 35.8618 48.9393C36.0799 48.9082 36.3291 48.877 36.5472 48.8147C37.1704 50.7161 38.3855 52.3682 39.9745 53.5216C39.071 58.0103 34.8024 63.777 33.4938 65.4914ZM40.1303 52.3682C38.9463 51.3707 38.0428 50.0615 37.5131 48.5653C38.0116 48.4406 38.479 48.2847 38.9463 48.1289C39.7253 49.3757 40.1303 50.6538 40.1303 51.9318C40.1615 52.0565 40.1303 52.2124 40.1303 52.3682ZM54.2444 45.791C54.2444 50.5291 50.4121 54.3632 45.6451 54.3632C43.9626 54.3632 42.3736 53.8644 41.0339 53.0228C41.0962 52.6488 41.1273 52.2747 41.1273 51.9006C41.1273 50.4979 40.6911 49.0952 39.881 47.7237C40.8781 47.2873 41.8439 46.7262 42.7475 46.0404C44.8973 46.5703 46.5798 47.3808 47.608 48.2536C48.2623 48.8147 50.381 50.2797 50.381 50.2797C50.381 50.2797 48.8543 48.2224 48.2934 47.5678C47.3899 46.5391 46.5798 44.8559 46.0501 42.6739C46.6733 41.7699 47.2029 40.8347 47.6391 39.8061C49.0412 40.6789 50.4744 41.1153 51.9077 41.1153C52.2192 41.1153 52.5308 41.0841 52.8735 41.0529C53.7148 42.4245 54.2444 44.0454 54.2444 45.791ZM53.3097 40.0243C52.1258 38.4345 50.4433 37.25 48.5115 36.6577C48.5427 36.5019 48.5739 36.346 48.605 36.159C48.6362 36.0031 48.6673 35.8161 48.6985 35.6603V35.1615C50.1317 34.4446 51.5026 34.0393 52.6554 34.0393L62.9061 33.5406L52.7489 33.0107C51.5026 33.0107 50.0382 32.5431 48.4804 31.7326C48.4181 31.3586 48.3246 30.9845 48.2311 30.6416C48.2311 30.6105 48.2 30.5793 48.2 30.5481C50.2875 29.987 52.0946 28.7402 53.3409 27.0257C57.8587 27.8674 63.7474 32.2002 65.461 33.5094C63.7474 34.8498 57.8275 39.1826 53.3097 40.0243Z" fill="url(#paint1_linear)"/>
<g clip-path="url(#clip0)">
<path d="M93.3073 52.5156C93.2823 52.4388 93.2164 52.384 93.1365 52.3715L90.7546 52.033L89.6827 49.8783C89.6467 49.8062 89.573 49.7607 89.4931 49.7607C89.4132 49.7607 89.3395 49.8062 89.3035 49.8798L88.2457 52.0408L85.8638 52.395C85.7839 52.4075 85.7181 52.4624 85.693 52.5391C85.6679 52.6159 85.6899 52.7005 85.7478 52.7554L87.4763 54.4306L87.0767 56.8031C87.0626 56.883 87.0955 56.9629 87.1613 57.01C87.1974 57.0366 87.2412 57.0507 87.2851 57.0507C87.3196 57.0507 87.3525 57.0429 87.3838 57.0256L89.5103 55.8989L91.6431 57.0131C91.6745 57.0288 91.7074 57.0366 91.7403 57.0366C91.8562 57.0366 91.9518 56.941 91.9518 56.825C91.9518 56.8078 91.9503 56.7921 91.9456 56.7765L91.5334 54.418L93.2509 52.7335C93.312 52.677 93.3324 52.5924 93.3073 52.5156ZM91.1605 54.194C91.1103 54.2425 91.0884 54.313 91.1009 54.382L91.4598 56.4395L89.6075 55.4727C89.5464 55.4398 89.4727 55.4413 89.4101 55.4727L87.5641 56.4505L87.9104 54.3898C87.9213 54.3209 87.8994 54.2519 87.8493 54.2034L86.3512 52.7491L88.4181 52.442C88.4871 52.431 88.5466 52.3887 88.5764 52.326L89.4947 50.4502L90.4255 52.3213C90.4568 52.384 90.5164 52.4263 90.5853 52.4373L92.6539 52.7319L91.1605 54.194Z" fill="#B28D5C"/>
</g>
<g clip-path="url(#clip1)">
<path d="M118.758 52.5156C118.732 52.4388 118.667 52.384 118.587 52.3715L116.205 52.033L115.133 49.8783C115.097 49.8062 115.023 49.7607 114.943 49.7607C114.863 49.7607 114.79 49.8062 114.754 49.8798L113.696 52.0408L111.314 52.395C111.234 52.4075 111.168 52.4624 111.143 52.5391C111.118 52.6159 111.14 52.7005 111.198 52.7554L112.926 54.4306L112.527 56.8031C112.513 56.883 112.546 56.9629 112.612 57.01C112.648 57.0366 112.691 57.0507 112.735 57.0507C112.77 57.0507 112.803 57.0429 112.834 57.0256L114.961 55.8989L117.093 57.0131C117.125 57.0288 117.158 57.0366 117.19 57.0366C117.306 57.0366 117.402 56.941 117.402 56.825C117.402 56.8078 117.4 56.7921 117.396 56.7765L116.984 54.418L118.701 52.7335C118.762 52.677 118.783 52.5924 118.758 52.5156ZM116.611 54.194C116.561 54.2425 116.539 54.313 116.551 54.382L116.91 56.4395L115.058 55.4727C114.997 55.4398 114.923 55.4413 114.86 55.4727L113.014 56.4505L113.361 54.3898C113.372 54.3209 113.35 54.2519 113.299 54.2034L111.801 52.7491L113.868 52.442C113.937 52.431 113.997 52.3887 114.027 52.326L114.945 50.4502L115.876 52.3213C115.907 52.384 115.967 52.4263 116.036 52.4373L118.104 52.7319L116.611 54.194Z" fill="#B28D5C"/>
</g>
<g clip-path="url(#clip2)">
<path d="M144.208 52.5156C144.183 52.4388 144.117 52.384 144.037 52.3715L141.655 52.033L140.583 49.8783C140.547 49.8062 140.473 49.7607 140.393 49.7607C140.314 49.7607 140.24 49.8062 140.204 49.8798L139.146 52.0408L136.764 52.395C136.684 52.4075 136.618 52.4624 136.593 52.5391C136.568 52.6159 136.59 52.7005 136.648 52.7554L138.377 54.4306L137.977 56.8031C137.963 56.883 137.996 56.9629 138.062 57.01C138.098 57.0366 138.142 57.0507 138.186 57.0507C138.22 57.0507 138.253 57.0429 138.284 57.0256L140.411 55.8989L142.544 57.0131C142.575 57.0288 142.608 57.0366 142.641 57.0366C142.757 57.0366 142.852 56.941 142.852 56.825C142.852 56.8078 142.851 56.7921 142.846 56.7765L142.434 54.418L144.151 52.7335C144.212 52.677 144.233 52.5924 144.208 52.5156ZM142.061 54.194C142.011 54.2425 141.989 54.313 142.001 54.382L142.36 56.4395L140.508 55.4727C140.447 55.4398 140.373 55.4413 140.31 55.4727L138.464 56.4505L138.811 54.3898C138.822 54.3209 138.8 54.2519 138.75 54.2034L137.252 52.7491L139.318 52.442C139.387 52.431 139.447 52.3887 139.477 52.326L140.395 50.4502L141.326 52.3213C141.357 52.384 141.417 52.4263 141.486 52.4373L143.554 52.7319L142.061 54.194Z" fill="#B28D5C"/>
</g>
<g clip-path="url(#clip3)">
<path d="M169.658 52.5156C169.633 52.4388 169.567 52.384 169.487 52.3715L167.105 52.033L166.033 49.8783C165.997 49.8062 165.924 49.7607 165.844 49.7607C165.764 49.7607 165.69 49.8062 165.654 49.8798L164.596 52.0408L162.214 52.395C162.134 52.4075 162.069 52.4624 162.044 52.5391C162.018 52.6159 162.04 52.7005 162.098 52.7554L163.827 54.4306L163.427 56.8031C163.413 56.883 163.446 56.9629 163.512 57.01C163.548 57.0366 163.592 57.0507 163.636 57.0507C163.67 57.0507 163.703 57.0429 163.734 57.0256L165.861 55.8989L167.994 57.0131C168.025 57.0288 168.058 57.0366 168.091 57.0366C168.207 57.0366 168.302 56.941 168.302 56.825C168.302 56.8078 168.301 56.7921 168.296 56.7765L167.884 54.418L169.602 52.7335C169.663 52.677 169.683 52.5924 169.658 52.5156ZM167.511 54.194C167.461 54.2425 167.439 54.313 167.451 54.382L167.81 56.4395L165.958 55.4727C165.897 55.4398 165.823 55.4413 165.761 55.4727L163.915 56.4505L164.261 54.3898C164.272 54.3209 164.25 54.2519 164.2 54.2034L162.702 52.7491L164.769 52.442C164.838 52.431 164.897 52.3887 164.927 52.326L165.845 50.4502L166.776 52.3213C166.807 52.384 166.867 52.4263 166.936 52.4373L169.004 52.7319L167.511 54.194Z" fill="#B28D5C"/>
</g>
<defs>
<linearGradient id="paint0_linear" x1="107.359" y1="29.9656" x2="150.315" y2="29.9656" gradientUnits="userSpaceOnUse">
<stop stop-color="#81623D"/>
<stop offset="0.0990594" stop-color="#856740"/>
<stop offset="0.2414" stop-color="#927647"/>
<stop offset="0.4099" stop-color="#A99154"/>
<stop offset="0.597" stop-color="#CEBD69"/>
<stop offset="0.6613" stop-color="#E1D273"/>
<stop offset="1" stop-color="#9D7D4A"/>
</linearGradient>
<linearGradient id="paint1_linear" x1="7.19074" y1="59.7039" x2="102.16" y2="-34.8057" gradientUnits="userSpaceOnUse">
<stop stop-color="#9B7D4A"/>
<stop offset="0.0588648" stop-color="#A0824D"/>
<stop offset="0.1439" stop-color="#AC9154"/>
<stop offset="0.2442" stop-color="#C2AD62"/>
<stop offset="0.3333" stop-color="#E0D174"/>
<stop offset="0.5161" stop-color="#E5DA8F"/>
<stop offset="0.6613" stop-color="#E0D174"/>
<stop offset="1" stop-color="#9B7D4A"/>
</linearGradient>
<clipPath id="clip0">
<rect width="7.63506" height="7.63506" fill="white" transform="translate(85.6826 49.5884)"/>
</clipPath>
<clipPath id="clip1">
<rect width="7.63506" height="7.63506" fill="white" transform="translate(111.133 49.5884)"/>
</clipPath>
<clipPath id="clip2">
<rect width="7.63506" height="7.63506" fill="white" transform="translate(136.583 49.5884)"/>
</clipPath>
<clipPath id="clip3">
<rect width="7.63506" height="7.63506" fill="white" transform="translate(162.033 49.5884)"/>
</clipPath>
</defs>
</svg>
