<svg width="423" height="424" viewBox="0 0 423 424" fill="none" xmlns="http://www.w3.org/2000/svg">
<path d="M423 0L417.1 -4.73303C413.167 -7.88837 327.427 -77.7005 257.812 -93.0828C268.431 -111.226 274.331 -132.13 274.331 -154.612C274.331 -221.663 220.054 -275.699 153.192 -275.699C131.167 -275.699 110.322 -269.782 92.6234 -259.527C76.4979 -328.945 8.06277 -414.14 4.91632 -418.084L-0.196686 -424L-4.91632 -418.084C-8.06277 -414.14 -77.2845 -328.156 -93.0168 -258.739C-111.109 -269.388 -132.347 -275.699 -154.766 -275.699C-221.628 -275.699 -275.51 -221.269 -275.51 -154.612C-275.51 -132.13 -269.218 -111.226 -258.598 -93.0828C-327.82 -76.9116 -412.774 -8.28281 -416.707 -4.73303L-423 0L-417.1 4.733C-413.167 7.88834 -327.82 76.9117 -258.598 93.0828C-269.611 111.226 -275.904 132.525 -275.904 155.007C-275.904 222.058 -221.628 276.093 -155.159 276.093C-132.347 276.093 -111.502 269.782 -93.0168 259.133C-76.8912 328.551 -8.45605 414.139 -4.91632 418.084L-0.196686 424L4.52298 418.084C7.66943 414.139 76.1046 329.339 92.2301 259.922C109.929 270.177 130.774 276.487 152.799 276.487C219.661 276.487 273.937 222.058 273.937 155.401C273.937 132.919 267.644 111.62 257.025 93.4772C326.64 78.0948 412.774 8.28278 416.707 4.733L423 0ZM95.3766 -246.117C112.289 -256.767 131.954 -263.077 153.192 -263.077C212.975 -263.077 261.745 -214.564 261.745 -154.218C261.745 -132.525 255.452 -112.409 244.439 -95.0549C240.113 -95.4493 236.18 -95.8438 232.247 -95.8438C213.368 -95.8438 194.49 -89.9275 176.004 -77.7005C174.038 -76.5172 172.464 -75.334 170.891 -73.7563C166.172 -82.4335 161.059 -90.7163 154.766 -98.6046C161.059 -132.525 171.284 -160.134 184.657 -175.122C185.05 -175.516 210.222 -209.831 210.222 -209.831C210.222 -209.831 176.791 -184.193 176.004 -183.799C159.879 -168.811 128.414 -158.162 91.0502 -151.851C83.5774 -155.795 75.7113 -159.345 67.8452 -162.106C73.3515 -168.022 78.4644 -174.333 82.7908 -181.827C91.8369 -197.998 96.5565 -214.564 96.5565 -231.129C96.1631 -237.046 95.7699 -241.779 95.3766 -246.117ZM148.866 128.581C152.406 140.807 156.339 151.851 160.665 161.317C151.226 156.979 140.213 153.034 128.021 149.485C128.414 149.09 128.807 148.696 129.201 148.301C136.28 141.991 142.966 135.286 148.866 128.581ZM69.8117 171.967C47.7866 181.038 25.7615 185.771 3.73639 185.771C2.16318 185.771 0.589935 185.771 -0.983276 185.771C-68.2385 183.799 -120.548 154.612 -155.552 98.9991C-170.498 75.334 -178.757 48.5135 -179.937 19.7209C-182.297 -41.0195 -158.305 -90.7163 -108.749 -128.186C-81.6109 -148.696 -50.9331 -160.528 -17.5021 -162.895C-11.6025 -163.289 -6.09625 -163.684 -0.589966 -163.684C61.5523 -163.684 112.289 -137.652 150.046 -86.3777C154.372 -80.4614 157.519 -74.9395 160.272 -69.4177C159.879 -69.4177 159.879 -69.4177 159.485 -69.4177C156.339 -69.4177 153.979 -67.0511 151.619 -65.4735C133.134 -54.0353 117.008 -39.8363 100.883 -24.8484C78.8577 -4.73303 59.5857 18.5377 39.5272 40.6251C32.841 47.7247 26.1548 55.2186 18.682 61.9237C21.4352 57.5851 24.5815 53.2465 27.728 48.9079C41.887 29.9758 51.7197 8.28278 62.3389 -12.6214C72.1715 -31.5535 83.5774 -48.9079 101.276 -61.9237C102.063 -62.7126 103.636 -63.107 102.849 -64.6847C102.063 -66.2623 100.883 -65.8679 99.7029 -65.4735C89.0836 -63.107 79.6443 -57.9796 70.9916 -52.0633C59.1924 -44.5693 48.1799 -35.4977 37.5606 -26.4261C23.0083 -13.8047 10.0293 0 -2.16321 14.5935C-14.3557 29.187 -23.795 46.147 -35.5941 61.1349C-49.3598 78.0949 -65.4854 91.1107 -87.1172 95.8438C-104.423 99.788 -119.762 95.4493 -131.954 82.0391C-135.887 78.0949 -139.033 73.3618 -140.607 67.4456C-122.121 75.7283 -103.636 76.5172 -85.5439 69.8121C-61.5523 60.7404 -42.2803 46.147 -36.3808 19.3265C-32.0544 -1.18326 -37.954 -19.3265 -59.5858 -27.2149C-61.159 -28.0038 -62.7322 -28.7926 -63.9121 -30.3702C-72.9582 -43.386 -85.1506 -49.3023 -101.276 -49.3023C-129.987 -49.3023 -152.799 -29.5814 -161.845 -5.52188C-165.778 4.733 -166.565 15.3823 -166.172 26.426C-165.778 41.0195 -160.272 52.8521 -148.866 61.9237C-146.9 63.5014 -145.326 65.4735 -144.146 68.2344C-142.573 72.9675 -140.213 77.3061 -137.067 81.2502C-126.841 94.6605 -113.469 102.154 -96.5565 101.366C-80.8243 100.577 -65.8787 96.2382 -51.3264 88.7442C-27.3347 76.1228 -6.88284 59.1628 9.24268 37.4698C19.0753 24.4539 27.3347 10.2549 36.3807 -3.54977C44.6401 -16.1712 52.8996 -29.187 63.9121 -39.4419C71.7782 -46.9358 80.4309 -54.0354 91.0502 -58.374C77.2845 -45.3582 65.4854 -31.1591 56.046 -14.5935C44.6402 5.52188 34.8075 26.426 22.2217 46.1469C12.3891 61.9237 2.94977 78.0948 -11.6025 90.3218C-11.9958 90.7162 -12.3891 90.7163 -12.3891 91.1107C-12.7824 91.5051 -13.1758 92.294 -12.7824 93.0828C-12.3891 93.8716 -11.2092 93.8716 -10.4226 93.8716C-9.24271 93.4772 -8.45612 93.0828 -7.66949 92.2939C-1.76993 87.1665 4.52301 82.4335 10.4226 77.306C30.4811 59.1628 48.1799 38.653 66.2719 18.9321C84.7573 -1.57767 104.029 -21.2986 125.268 -39.4419C130.381 -43.7805 135.494 -47.7247 141 -52.0633C127.628 -38.2586 114.648 -24.8484 102.063 -10.6493C84.7573 9.46606 67.4519 29.5814 56.046 54.0353C51.3264 63.5014 48.5732 73.7563 48.9665 84.4055C49.3598 95.0549 57.2259 100.182 67.0586 95.0549C73.3514 91.8995 78.0711 86.7721 82.3975 81.2502C83.1841 80.067 84.7573 78.4893 83.1841 74.9395C80.8242 77.306 79.251 79.6725 77.6778 81.6446C73.7448 85.5888 70.205 89.533 64.6987 91.8995C58.7992 94.2661 55.2594 92.6884 53.6862 86.3777C53.2928 84.4055 53.2928 82.0391 53.6862 80.067C55.2594 72.9674 58.0125 66.2623 61.5523 59.5572C75.318 34.3144 92.6234 11.4381 110.715 -10.6493C124.874 -28.0037 139.82 -44.9637 156.339 -60.3461C158.699 -62.3182 161.845 -63.8958 163.418 -66.6568C170.498 -53.641 175.611 -39.4419 179.151 -22.8763C187.017 16.1711 181.904 54.0354 163.812 88.7442C141.787 127.003 110.715 155.007 69.8117 171.967ZM5.3096 196.815C3.73639 200.365 2.55646 203.914 1.37656 207.07C0.196655 203.52 -0.983276 200.365 -2.55649 196.815C-2.16318 196.815 -1.37659 196.815 -0.983276 196.815C0.983246 197.209 2.94977 197.209 5.3096 196.815ZM-128.021 149.485C-139.82 152.64 -150.833 156.584 -160.272 161.317C-155.946 151.851 -152.013 140.807 -148.473 128.581C-142.573 136.074 -135.494 143.174 -128.021 149.485ZM-181.904 -49.3023C-203.536 -54.8242 -222.808 -67.0511 -236.967 -83.6167C-235.393 -83.6167 -233.82 -83.6167 -232.247 -83.6167C-215.728 -83.6167 -199.209 -78.0949 -182.69 -67.4456C-180.331 -65.8679 -178.364 -64.2903 -176.397 -62.7126C-178.364 -58.7684 -180.331 -54.0354 -181.904 -49.3023ZM-191.736 5.52185C-196.456 3.54974 -201.176 1.57767 -205.502 0C-200.782 -1.57767 -196.456 -3.54977 -191.736 -5.52188V5.52185ZM-182.69 68.2344C-198.816 78.8837 -215.728 84.4055 -231.854 84.4055C-233.427 84.4055 -234.607 84.4055 -236.18 84.4055C-223.201 69.4176 -206.289 58.3739 -187.017 52.0632C-185.837 57.1907 -184.657 62.7126 -182.69 68.2344ZM-144.54 -111.226C-148.473 -129.764 -153.979 -146.724 -160.272 -160.528C-145.72 -153.429 -127.234 -147.907 -106.782 -143.963C-120.941 -134.891 -133.527 -123.847 -144.54 -111.226ZM-11.9958 -174.727C-6.09628 -185.771 -0.983276 -196.42 2.55646 -206.281C6.09619 -196.026 10.8159 -185.377 16.7155 -174.727H-11.9958ZM125.268 -130.158C119.368 -135.286 113.075 -139.624 106.782 -143.568C127.234 -147.907 145.72 -153.429 160.272 -160.528C153.979 -146.724 148.473 -130.158 144.54 -111.226C138.64 -117.931 132.347 -124.242 125.268 -130.158ZM-148.079 57.5851C-154.372 53.2465 -158.305 47.7246 -160.665 41.0195C-167.745 19.7209 -163.812 0 -150.833 -17.7488C-144.146 -27.2149 -135.494 -34.7089 -124.481 -38.653C-109.142 -44.5693 -93.4101 -46.147 -78.4644 -37.0753C-75.7113 -35.4977 -73.3515 -33.5256 -70.9916 -29.9758C-94.9833 -30.7647 -115.042 -23.2707 -129.987 -4.73303C-144.933 13.4102 -150.833 33.92 -148.079 57.5851ZM-104.423 -16.96C-93.8034 -23.2707 -81.6109 -24.4539 -69.4184 -24.0595C-66.272 -24.0595 -65.4854 -21.6931 -64.6988 -19.3265C-61.159 -7.09955 -63.1255 3.94418 -69.4184 14.9879C-74.5314 24.0595 -82.0042 30.3702 -91.8369 33.5256C-93.4101 33.92 -95.7699 34.3144 -94.9833 36.2865C-94.59 38.653 -92.2301 38.2586 -90.2636 37.4698C-78.0711 33.5256 -69.4184 25.6372 -63.9121 14.1991C-58.7992 3.54977 -57.226 -7.09952 -59.9791 -18.5377C-60.3724 -19.3265 -60.7657 -20.5098 -59.9791 -21.2986C-59.1925 -21.693 -58.0126 -21.2986 -57.226 -20.9042C-48.1799 -15.7768 -41.4937 -8.67722 -40.3138 1.97208C-38.7406 17.7488 -43.4603 31.9479 -54.0795 43.7805C-69.4184 61.1349 -89.0837 69.8121 -111.895 69.8121C-113.075 69.8121 -113.862 69.8121 -115.042 69.8121C-123.301 69.8121 -131.167 67.84 -139.034 64.2902C-142.573 62.7126 -144.146 60.346 -144.54 56.4019C-147.686 22.8763 -131.954 -0.39444 -104.423 -16.96ZM187.017 52.0632C205.895 58.3739 222.414 69.4177 235 84.0112C233.82 84.0112 233.033 84.0112 231.854 84.0112C215.335 84.0112 198.816 78.4893 182.297 67.84C183.084 65.4734 183.87 62.7126 184.657 60.346C185.837 57.5851 186.623 54.8242 187.017 52.0632ZM191.736 -4.73303L191.343 -7.09955C196.849 -4.33862 202.749 -1.97208 208.255 -0.394409C202.749 1.5777 197.243 3.54974 191.736 6.31067V-4.73303ZM176.004 -63.107C177.971 -64.6847 180.33 -66.2623 182.297 -67.84C198.423 -78.4893 215.335 -84.0112 231.854 -84.0112C233.033 -84.0112 234.213 -84.0112 235.393 -84.0112C221.234 -67.4456 202.749 -55.613 181.117 -49.6967C179.937 -54.0353 177.971 -58.7684 176.004 -63.107ZM83.9707 -232.313C83.9707 -217.719 80.0376 -203.126 71.7782 -188.927C67.0586 -180.644 61.159 -173.544 54.4728 -167.233C51.7196 -168.022 48.9665 -168.811 46.2134 -169.206C50.1464 -196.42 63.9121 -220.48 83.9707 -237.046C83.5774 -235.862 83.9707 -234.285 83.9707 -232.313ZM-0.196686 -404.279C16.3221 -382.98 70.205 -309.619 81.6109 -252.428C56.046 -233.496 38.3473 -205.098 33.6276 -172.361C33.2343 -172.361 33.2343 -172.361 32.841 -172.361C17.8954 -197.209 8.84937 -221.269 8.84937 -240.595L2.16315 -369.176L-4.12973 -240.595C-4.12973 -221.269 -13.1758 -197.604 -27.7281 -173.15C-30.0879 -172.755 -32.4477 -172.361 -35.2009 -171.967C-39.9205 -204.309 -57.226 -232.313 -82.0042 -251.245C-70.9917 -308.435 -16.7155 -382.586 -0.196686 -404.279ZM-83.5774 -236.651C-64.3055 -219.691 -50.933 -196.026 -47.3933 -169.206C-49.7531 -168.811 -51.7197 -168.022 -54.0795 -167.233C-60.7657 -173.15 -67.0586 -180.644 -71.7783 -188.927C-80.0377 -203.126 -83.9707 -217.719 -83.9707 -232.313C-83.9707 -233.89 -83.5774 -235.074 -83.5774 -236.651ZM-262.925 -154.612C-262.925 -214.564 -214.548 -263.472 -154.372 -263.472C-132.347 -263.472 -111.895 -256.767 -94.9833 -245.723C-95.3766 -241.384 -95.7699 -237.046 -95.7699 -232.707C-95.7699 -216.141 -91.0502 -199.576 -82.0042 -183.405C-77.6779 -175.911 -72.9582 -169.6 -67.0586 -163.684C-75.318 -160.923 -83.1841 -157.373 -90.6569 -153.429C-128.414 -159.74 -159.485 -170.389 -175.611 -185.377C-176.004 -186.166 -211.795 -212.986 -211.795 -212.986C-211.795 -212.986 -185.05 -177.488 -184.264 -176.7C-170.498 -161.712 -160.665 -133.708 -153.979 -99.7879C-158.305 -94.2661 -162.238 -88.3498 -166.172 -82.0391C-167.745 -79.6726 -168.925 -77.3061 -170.105 -74.9395C-171.678 -76.1228 -173.644 -77.7005 -175.218 -78.4893C-193.703 -90.3219 -212.582 -96.6326 -231.46 -96.6326C-235.787 -96.6326 -240.506 -96.2382 -245.226 -95.8438C-256.632 -112.409 -262.925 -132.525 -262.925 -154.612ZM-403.335 0C-382.096 -16.5656 -308.548 -70.601 -251.519 -82.0391C-235.393 -60.7405 -212.188 -44.5693 -185.444 -37.4698C-187.017 -31.9479 -188.197 -26.4261 -188.983 -20.9042C-207.469 -11.8326 -225.167 -6.3107 -240.113 -6.3107L-368.331 0L-238.933 6.70511C-224.774 6.70511 -208.649 11.4381 -191.343 19.7209V27.2149L-190.95 28.7926C-190.95 29.5814 -190.557 29.9758 -190.557 30.7646C-190.163 33.92 -189.77 36.6809 -189.377 39.8363C-214.155 47.3302 -235.393 62.3181 -250.732 82.4334C-308.155 70.9953 -381.703 16.96 -403.335 0ZM-95.3766 246.117C-112.289 257.555 -132.741 263.866 -154.766 263.866C-214.548 263.866 -263.318 215.353 -263.318 155.007C-263.318 132.919 -256.632 112.409 -245.619 95.4493C-240.9 95.8437 -236.573 96.2381 -232.247 96.2381C-214.155 96.2381 -196.063 90.7162 -178.364 79.6725C-176.398 84.8 -174.038 89.533 -171.285 94.266C-167.351 101.76 -163.025 108.859 -157.912 115.959C-164.598 143.568 -174.038 165.656 -186.23 177.883L-211.795 212.592L-177.577 186.56C-165.385 174.333 -143.753 164.867 -116.222 158.556C-110.322 162.895 -104.423 166.839 -98.1297 170.389C-92.2302 173.939 -85.9373 176.7 -80.0377 179.46C-90.6569 196.815 -96.1632 214.564 -96.1632 232.312C-96.1632 237.046 -95.7699 241.779 -95.3766 246.117ZM-83.9707 232.707C-83.9707 216.536 -78.8578 200.365 -68.6318 184.588C-63.1255 186.56 -57.6193 188.532 -52.113 190.11C-58.4059 208.647 -69.4184 224.819 -83.5774 237.44C-83.5774 235.862 -83.9707 234.285 -83.9707 232.707ZM-0.196686 404.674C-16.7155 382.98 -70.9917 309.619 -82.0042 252.428C-62.7322 237.834 -47.7866 217.325 -39.9205 193.66C-32.4477 195.237 -24.5816 196.42 -17.1088 196.815C-9.63602 212.986 -5.70294 228.368 -5.70294 241.779L0.983246 370.359L7.66943 241.779C7.66943 228.368 11.9958 212.986 19.4686 196.42C23.0083 196.026 26.5481 195.632 29.6945 195.237C32.4477 194.843 35.5941 194.448 38.3473 193.66C46.2134 217.719 61.5523 238.623 81.6109 253.217C70.205 310.013 16.3221 382.98 -0.196686 404.674ZM83.5774 238.623C68.6318 226.002 57.2259 209.436 50.5397 190.504C56.8326 188.927 62.7322 186.954 68.6318 184.982C78.4644 200.759 83.5774 216.93 83.5774 233.101C83.9707 234.679 83.5774 236.651 83.5774 238.623ZM261.745 155.401C261.745 215.352 213.368 263.866 153.192 263.866C131.954 263.866 111.895 257.555 94.9832 246.906C95.7698 242.173 96.1631 237.44 96.1631 232.707C96.1631 214.958 90.6569 197.209 80.4309 179.855C93.0167 174.333 105.209 167.233 116.615 158.556C143.753 165.261 164.992 175.516 177.971 186.56C186.23 193.66 212.975 212.197 212.975 212.197C212.975 212.197 193.703 186.166 186.623 177.883C175.218 164.867 164.992 143.568 158.305 115.959C166.172 104.521 172.858 92.6884 178.364 79.6725C196.063 90.7162 214.155 96.2381 232.247 96.2381C236.18 96.2381 240.113 95.8437 244.439 95.4493C255.059 112.804 261.745 133.313 261.745 155.401ZM249.946 82.4334C235 62.3181 213.761 47.3302 189.377 39.8363C189.77 37.8642 190.163 35.8921 190.556 33.5256C190.95 31.5535 191.343 29.187 191.736 27.2149V20.9042C209.828 11.8326 227.134 6.70511 241.686 6.70511L371.084 0.394409L242.866 -6.3107C227.134 -6.3107 208.649 -12.227 188.983 -22.4818C188.197 -27.2149 187.017 -31.9479 185.837 -36.2865C185.837 -36.6809 185.443 -37.0754 185.443 -37.4698C211.795 -44.5693 234.607 -60.3461 250.339 -82.0391C307.368 -71.3898 381.703 -16.5656 403.335 0C381.703 16.96 306.975 71.7841 249.946 82.4334Z" fill="white" fill-opacity="0.28"/>
</svg>
