<?xml version="1.0" encoding="UTF-8" standalone="no"?>
<svg
   xmlns:dc="http://purl.org/dc/elements/1.1/"
   xmlns:cc="http://creativecommons.org/ns#"
   xmlns:rdf="http://www.w3.org/1999/02/22-rdf-syntax-ns#"
   xmlns:svg="http://www.w3.org/2000/svg"
   xmlns="http://www.w3.org/2000/svg"
   xml:space="preserve"
   enable-background="new 0 0 500 500"
   viewBox="0 0 500 500"
   height="500px"
   width="500px"
   y="0px"
   x="0px"
   id="Layer_1"
   version="1.1"><metadata
     id="metadata23"><rdf:RDF><cc:Work
         rdf:about=""><dc:format>image/svg+xml</dc:format><dc:type
           rdf:resource="http://purl.org/dc/dcmitype/StillImage" /><dc:title></dc:title></cc:Work></rdf:RDF></metadata><defs
     id="defs21" /><g
     id="g3"><path
       style="fill:#000000;fill-opacity:0.52941179"
       id="path5"
       d="M339.25,16.4C317.9,8.24,295.14,2.92,271.44,0.91C264.37,0.31,257.22,0,250,0C111.93,0,0,111.93,0,250   c0,107.5,67.86,199.16,163.07,234.47c21.34,7.92,44.05,13,67.68,14.8c6.36,0.48,12.77,0.73,19.25,0.73c138.07,0,250-111.93,250-250   C500,143.37,433.24,52.33,339.25,16.4z"
       fill="#FF0000" /><g
       id="g7"><path
         style="fill:#000000;fill-opacity:0"
         id="path9"
         d="M339.25,16.4C317.9,8.24,295.14,2.92,271.44,0.91L162,89l65.219,25.312L339.25,16.4z"
         fill="#D00000" /><polygon
         style="fill:#fffdf4;fill-opacity:0.69444442"
         id="polygon11"
         points="162,284 226.132,308.89 338,216 274.455,191.449   "
         fill="#FFB2B2" /><polygon
         id="polygon13"
         points="162,89 162,148 274.455,191.449 338,216 338,157.308 227.219,114.312   "
         fill="#FFFFFF" /><polygon
         id="polygon15"
         points="226.13,308.89 162,284 162,343 275.07,386.69 338,411 338,352.31   "
         fill="#FFFFFF" /><path
         style="fill:#000000;fill-opacity:0"
         id="path17"
         d="M338,411l-107.25,88.27c-23.63-1.8-46.34-6.88-67.68-14.8l112-97.78L338,411z"
         fill="#D00000" /></g></g></svg>