<svg width="127" height="171" viewBox="0 0 127 171" fill="none" xmlns="http://www.w3.org/2000/svg">
<path d="M27.1002 153.306C27.1002 153.424 27.0412 153.483 26.9822 153.541C26.9231 153.6 26.8641 153.659 26.746 153.659L24.0891 153.541L21.7274 153.659C21.4912 153.659 21.3731 153.541 21.3731 153.365C21.3731 153.189 21.4322 153.071 21.6093 153.012L22.0226 152.954C22.6721 152.895 23.0263 152.542 23.0263 152.013L22.8492 140.844C22.8492 140.668 22.7902 140.609 22.7311 140.609C22.6721 140.609 22.6721 140.609 22.613 140.668L16.1774 153.483C16.1184 153.6 16.0003 153.718 15.8822 153.718C15.7641 153.718 15.7051 153.659 15.646 153.483L9.21043 141.079C9.21043 141.021 9.15138 141.021 9.09234 141.021C8.97426 141.021 8.97426 141.079 8.97426 141.256L8.85617 152.013C8.85617 152.542 9.15139 152.836 9.80085 152.954L10.2141 153.012C10.3913 153.071 10.5094 153.13 10.5094 153.365C10.5094 153.6 10.3913 153.659 10.1551 153.659L8.20671 153.6L5.90406 153.659C5.66789 153.659 5.5498 153.541 5.5498 153.365C5.5498 153.189 5.60885 153.071 5.78597 153.012L6.49448 152.954C7.20299 152.895 7.55724 152.542 7.55724 152.013L7.85245 138.611C7.85245 138.081 7.55724 137.729 6.90778 137.67L6.49448 137.611C6.31735 137.552 6.19927 137.494 6.19927 137.259C6.19927 137.082 6.31735 136.965 6.55352 136.965L8.62 137.023C9.15139 137.023 9.50564 137.2 9.62372 137.494L16.2955 150.661L22.9673 137.552C23.0854 137.259 23.4396 137.141 24.03 137.082L26.1556 137.023C26.3917 137.023 26.5098 137.141 26.5098 137.317C26.5098 137.494 26.3917 137.611 26.2146 137.67L25.8013 137.729C25.2109 137.788 24.8566 138.081 24.8566 138.669L25.1518 152.072C25.1518 152.366 25.2699 152.601 25.4471 152.718C25.6242 152.836 25.9194 152.954 26.2146 153.012L26.9231 153.071C27.0412 153.012 27.1002 153.13 27.1002 153.306Z" fill="white"/>
<path d="M29.167 153.659C28.9308 153.659 28.8127 153.541 28.8127 153.365C28.8127 153.189 28.8718 153.071 29.0489 153.012L29.4622 152.954C30.1116 152.895 30.4069 152.542 30.4069 152.013V138.611C30.4069 138.023 30.0526 137.729 29.3441 137.67L28.6356 137.611C28.4585 137.552 28.3994 137.494 28.3994 137.317C28.3994 137.082 28.5175 136.965 28.7537 136.965L31.4106 137.082L33.7723 136.965C34.0084 136.965 34.1265 137.082 34.1265 137.259C34.1265 137.494 34.0084 137.611 33.8313 137.611L33.418 137.67C32.7685 137.788 32.4733 138.081 32.4733 138.611V152.013C32.4733 152.307 32.5914 152.542 32.7685 152.66C32.9457 152.836 33.2409 152.895 33.5361 152.954L34.2446 153.012C34.4217 153.012 34.5398 153.13 34.5398 153.306C34.5398 153.424 34.4808 153.483 34.4217 153.541C34.3627 153.6 34.3036 153.659 34.1856 153.659L31.5287 153.541L29.167 153.659Z" fill="white"/>
<path d="M47.5291 149.309C47.5291 150.779 46.9977 151.896 45.8759 152.66C44.7541 153.424 43.3962 153.835 41.802 153.835C40.2079 153.835 38.9089 153.659 37.9052 153.248C36.9015 152.895 36.3701 152.483 36.3701 152.013V149.25C36.3701 148.898 36.4882 148.78 36.7244 148.78C36.9015 148.78 37.0786 148.956 37.1377 149.25C37.551 150.485 38.0823 151.366 38.7318 151.954C39.3813 152.542 40.326 152.836 41.5068 152.836C42.6877 152.836 43.6323 152.542 44.3999 152.013C45.1084 151.484 45.5217 150.72 45.5217 149.779C45.5217 148.721 44.9313 147.898 43.7504 147.134C43.219 146.84 42.6286 146.487 42.0382 146.194C41.3887 145.9 40.7983 145.606 40.1488 145.253C39.4994 144.959 38.968 144.606 38.4366 144.195C37.2558 143.372 36.6653 142.255 36.6653 140.962C36.6653 139.669 37.1377 138.611 38.1414 137.846C39.1451 137.082 40.326 136.729 41.6839 136.729C43.0419 136.729 44.1637 136.906 45.1674 137.259C46.1121 137.611 46.5844 137.964 46.5844 138.375V140.727C46.5844 141.021 46.4664 141.197 46.2302 141.197C45.994 141.197 45.8169 141.021 45.6988 140.727C45.3446 139.727 44.9313 138.963 44.3999 138.493C43.8685 138.023 43.0419 137.788 41.9791 137.788C40.9164 137.788 40.0898 138.023 39.4403 138.552C38.8499 139.081 38.4956 139.669 38.4956 140.433C38.4956 141.197 38.7909 141.844 39.4403 142.373C40.0307 142.902 40.7983 143.372 41.6839 143.783C42.5696 144.195 43.4552 144.606 44.2818 145.077C45.1674 145.547 45.8759 146.076 46.5254 146.781C47.2339 147.546 47.5291 148.369 47.5291 149.309Z" fill="white"/>
<path d="M66.7174 153.012C66.8945 153.012 66.9536 153.13 66.9536 153.306C66.9536 153.541 66.8355 153.6 66.5993 153.6L63.9424 153.483L61.6397 153.6C61.4036 153.6 61.2855 153.483 61.2855 153.248C61.2855 153.071 61.3445 152.954 61.5217 152.954L61.9349 152.895C62.5844 152.836 62.8796 152.483 62.8796 151.954V146.135C62.8796 145.841 62.7615 145.665 62.4663 145.665H53.9052C53.7871 145.665 53.7281 145.723 53.61 145.782C53.5509 145.841 53.4919 145.958 53.4919 146.076V151.896C53.4919 152.483 53.7871 152.777 54.4366 152.836L54.8499 152.895C55.027 152.954 55.1451 153.012 55.1451 153.189C55.1451 153.306 55.086 153.365 55.027 153.424C54.9679 153.483 54.8499 153.541 54.7908 153.541L52.4291 153.424L49.7722 153.541C49.5361 153.541 49.418 153.424 49.418 153.248C49.418 153.012 49.477 152.954 49.6541 152.954L50.3626 152.895C50.6579 152.836 50.9531 152.777 51.1302 152.601C51.3073 152.425 51.4254 152.189 51.4254 151.954V138.552C51.4254 137.964 51.0712 137.67 50.3626 137.611L49.6541 137.552C49.477 137.552 49.418 137.435 49.418 137.259C49.418 137.023 49.5361 136.965 49.7722 136.965L52.4291 137.082L54.7908 136.965C55.027 136.965 55.1451 137.082 55.1451 137.259C55.1451 137.494 55.027 137.611 54.8499 137.611L54.4366 137.67C53.7871 137.788 53.4919 138.081 53.4919 138.611V144.136C53.4919 144.43 53.669 144.606 53.9642 144.606H62.5254C62.8206 144.606 62.9977 144.489 62.9977 144.195V138.611C62.9977 138.081 62.7025 137.788 62.053 137.67L61.6397 137.611C61.4626 137.552 61.4036 137.494 61.4036 137.317C61.4036 137.082 61.5217 136.965 61.7578 136.965L64.0605 137.082L66.7174 136.965C66.9535 136.965 67.0716 137.082 67.0716 137.259C67.0716 137.494 67.0126 137.552 66.8355 137.552L66.127 137.611C65.4184 137.67 65.0642 137.964 65.0642 138.552V151.954C65.0642 152.542 65.4184 152.836 66.127 152.895L66.7174 153.012Z" fill="white"/>
<path d="M69.1386 153.659C68.9025 153.659 68.7844 153.541 68.7844 153.365C68.7844 153.189 68.8434 153.071 69.0206 153.012L69.4339 152.954C70.0833 152.895 70.3785 152.542 70.3785 152.013V138.611C70.3785 138.023 70.0243 137.729 69.3158 137.67L68.6073 137.611C68.4301 137.552 68.3711 137.494 68.3711 137.317C68.3711 137.082 68.4892 136.965 68.7253 136.965L71.3822 137.082L73.7439 136.965C73.9801 136.965 74.0982 137.082 74.0982 137.259C74.0982 137.494 73.9801 137.611 73.803 137.611L73.3897 137.67C72.7402 137.788 72.445 138.081 72.445 138.611V152.013C72.445 152.307 72.5631 152.542 72.7402 152.66C72.9173 152.836 73.2126 152.895 73.5078 152.954L74.2163 153.012C74.3934 153.012 74.5115 153.13 74.5115 153.306C74.5115 153.424 74.4524 153.483 74.3934 153.541C74.3344 153.6 74.2753 153.659 74.1572 153.659L71.5003 153.541L69.1386 153.659Z" fill="white"/>
<path d="M80.0026 138.611V151.366C80.0026 151.719 80.1207 151.954 80.2978 152.131C80.534 152.307 80.7702 152.425 81.1244 152.425H84.5489C85.3755 152.425 86.084 152.248 86.6744 151.837C87.2648 151.425 87.6781 150.837 87.9143 150.073C87.9733 149.838 88.1505 149.721 88.3866 149.721C88.6228 149.721 88.7409 149.838 88.7409 150.132L88.3866 152.601C88.3276 152.895 88.2686 153.071 88.0324 153.248C87.8553 153.424 87.6191 153.541 87.3239 153.541H78.9399L76.283 153.659C76.0468 153.659 75.9287 153.541 75.9287 153.365C75.9287 153.189 75.9877 153.071 76.1649 153.071L76.8734 153.012C77.1686 152.954 77.4638 152.895 77.6409 152.718C77.8181 152.542 77.9361 152.307 77.9361 152.072V138.669C77.9361 138.081 77.5819 137.788 76.8734 137.729L76.1649 137.67C75.9877 137.611 75.9287 137.552 75.9287 137.376C75.9287 137.141 76.0468 137.023 76.283 137.023L78.9399 137.141L81.3016 137.023C81.5377 137.023 81.6558 137.141 81.6558 137.317C81.6558 137.552 81.5377 137.67 81.3606 137.67L80.9473 137.729C80.2978 137.788 80.0026 138.081 80.0026 138.611Z" fill="white"/>
<path d="M101.848 153.541H92.9916L90.3347 153.659C90.0986 153.659 89.9805 153.541 89.9805 153.365C89.9805 153.189 90.0395 153.071 90.2166 153.071L90.9251 153.012C91.2204 152.954 91.5156 152.895 91.6927 152.718C91.8698 152.542 91.9879 152.307 91.9879 152.072V138.669C91.9879 138.081 91.6337 137.788 90.9251 137.729L90.2166 137.67C90.0395 137.67 89.9805 137.552 89.9805 137.376C89.9805 137.141 90.0986 137.082 90.3347 137.082L92.9916 137.2H101.376C101.671 137.2 101.907 137.317 102.084 137.494C102.261 137.67 102.379 137.905 102.438 138.14L102.793 140.315C102.852 140.609 102.734 140.727 102.438 140.727C102.202 140.727 102.025 140.609 101.907 140.374C101.671 139.61 101.317 139.081 100.844 138.787C100.372 138.493 99.7225 138.317 98.8959 138.317H95.1762C94.8219 138.317 94.5267 138.434 94.3496 138.611C94.1134 138.787 94.0544 139.081 94.0544 139.433V144.371C94.0544 144.548 94.1725 144.665 94.3496 144.665H98.7778C99.0139 144.665 99.1911 144.606 99.3092 144.489C99.4272 144.371 99.5453 144.254 99.5453 144.195C99.6044 144.077 99.6634 143.901 99.7224 143.666L99.8405 143.372C99.8996 143.196 100.018 143.078 100.195 143.078C100.372 143.078 100.49 143.196 100.49 143.431L100.372 145.429L100.49 147.31C100.49 147.487 100.372 147.604 100.195 147.663C100.018 147.663 99.8996 147.546 99.8405 147.369L99.7815 146.958C99.6634 146.135 99.3092 145.723 98.8368 145.723H94.4086C94.2315 145.723 94.1134 145.841 94.1134 146.076V151.543C94.1134 151.895 94.2315 152.131 94.4086 152.307C94.6448 152.483 94.881 152.601 95.2352 152.601H99.132C99.9586 152.601 100.667 152.425 101.258 152.013C101.848 151.602 102.261 151.014 102.497 150.25C102.556 150.014 102.734 149.897 102.911 149.897C103.088 149.897 103.206 149.956 103.265 150.014C103.324 150.073 103.383 150.191 103.324 150.308L102.97 152.777C102.911 153.071 102.852 153.248 102.616 153.424C102.379 153.483 102.143 153.541 101.848 153.541Z" fill="white"/>
<path d="M118.793 150.014V138.611C118.793 138.081 118.439 137.729 117.73 137.67L117.022 137.611C116.845 137.552 116.786 137.494 116.786 137.259C116.786 137.023 116.904 136.965 117.14 136.965L119.442 137.023L121.273 136.965C121.509 136.965 121.627 137.082 121.627 137.259C121.627 137.435 121.509 137.552 121.332 137.611L120.918 137.67C120.269 137.788 119.974 138.081 119.974 138.611V153.541C119.974 153.718 119.915 153.835 119.738 153.835H119.442C119.029 153.835 118.734 153.659 118.439 153.248L108.461 140.55C108.402 140.492 108.402 140.492 108.342 140.492C108.283 140.492 108.224 140.55 108.224 140.727V152.013C108.224 152.542 108.52 152.836 109.169 152.954L109.582 153.012C109.76 153.071 109.878 153.13 109.878 153.365C109.878 153.6 109.76 153.659 109.523 153.659L107.693 153.6L105.39 153.659C105.154 153.659 105.036 153.541 105.036 153.365C105.036 153.189 105.095 153.071 105.272 153.012L105.981 152.954C106.689 152.895 107.044 152.542 107.044 152.013V138.611C107.044 138.081 106.748 137.729 106.099 137.67L105.686 137.611C105.508 137.552 105.39 137.494 105.39 137.259C105.39 137.082 105.508 136.965 105.745 136.965L107.634 137.023C108.106 137.023 108.461 137.2 108.697 137.494L118.557 150.073C118.616 150.132 118.675 150.132 118.734 150.132C118.734 150.191 118.793 150.132 118.793 150.014Z" fill="white"/>
<path d="M18.0079 165.416C17.8307 165.122 17.5355 164.828 17.1813 164.651C16.827 164.475 16.4728 164.358 16.0004 164.358H15.1148C14.9967 164.358 14.8786 164.416 14.7605 164.475C14.6424 164.534 14.6424 164.651 14.6424 164.828V169.942C14.6424 170.059 14.7015 170.177 14.7605 170.295C14.8786 170.353 14.9377 170.412 15.1148 170.412H16.0595C16.827 170.412 17.4174 170.177 17.8898 169.648C18.3621 169.119 18.5983 168.472 18.5983 167.591C18.5983 166.768 18.4212 166.062 18.0079 165.416ZM18.5983 164.887C19.2477 165.474 19.543 166.297 19.543 167.297C19.543 168.296 19.1887 169.178 18.5392 169.824C17.8898 170.53 17.0632 170.882 16.0595 170.882H14.3472L13.1073 170.941C12.9893 170.941 12.9893 170.882 12.9893 170.824C12.9893 170.706 13.0483 170.706 13.1073 170.706H13.4026C13.5206 170.706 13.6387 170.647 13.7568 170.589C13.8159 170.53 13.8749 170.412 13.8749 170.295V164.593C13.8749 164.358 13.6978 164.24 13.4026 164.181L13.1073 164.122C13.0483 164.122 12.9893 164.064 12.9893 164.005C12.9893 163.887 13.0483 163.887 13.1073 163.887L14.3472 163.946H16.0595C17.1222 163.946 17.9488 164.24 18.5983 164.887Z" fill="white"/>
<path d="M25.3287 170.882H21.609L20.4872 170.941C20.3691 170.941 20.3691 170.882 20.3691 170.824C20.3691 170.706 20.4282 170.706 20.4872 170.706H20.7824C20.9005 170.706 21.0186 170.647 21.1367 170.589C21.1957 170.53 21.2548 170.412 21.2548 170.295V164.593C21.2548 164.358 21.0776 164.24 20.7824 164.181H20.4872C20.4282 164.181 20.3691 164.122 20.3691 164.064C20.3691 163.946 20.4282 163.946 20.4872 163.946L21.609 164.005H25.1516C25.2696 164.005 25.3877 164.064 25.4468 164.122C25.5058 164.181 25.5649 164.299 25.5649 164.416L25.6829 165.298C25.6829 165.416 25.6239 165.474 25.5649 165.474C25.4468 165.474 25.3877 165.416 25.3287 165.298C25.2106 165.004 25.0925 164.769 24.8564 164.651C24.6792 164.534 24.384 164.475 24.0298 164.475H22.4947C22.3766 164.475 22.2585 164.534 22.1404 164.593C22.0223 164.651 22.0223 164.769 22.0223 164.945V167.003C22.0223 167.062 22.0814 167.12 22.1404 167.12H23.9707C24.0888 167.12 24.1478 167.12 24.2069 167.062C24.2659 167.003 24.2659 166.944 24.325 166.944C24.325 166.885 24.384 166.826 24.384 166.709L24.4431 166.591C24.4431 166.532 24.5021 166.474 24.6202 166.474C24.6792 166.474 24.7383 166.532 24.7383 166.591L24.6792 167.414L24.7383 168.237C24.7383 168.296 24.6792 168.355 24.6202 168.414C24.5611 168.414 24.5021 168.355 24.5021 168.296V168.12C24.4431 167.767 24.325 167.591 24.0888 167.591H22.2585C22.1995 167.591 22.1404 167.649 22.1404 167.708V170.001C22.1404 170.118 22.1995 170.236 22.2585 170.353C22.3766 170.412 22.4356 170.471 22.6127 170.471H24.2659C24.6202 170.471 24.9154 170.412 25.1516 170.236C25.3877 170.059 25.5649 169.824 25.6829 169.472C25.742 169.354 25.742 169.295 25.8601 169.295C25.9191 169.295 25.9782 169.295 26.0372 169.354C26.0372 169.413 26.0962 169.413 26.0962 169.472L25.9191 170.53C25.9191 170.647 25.8601 170.706 25.801 170.824C25.5649 170.824 25.4468 170.882 25.3287 170.882Z" fill="white"/>
<path d="M29.8755 164.651V170.177C29.8755 170.295 29.9345 170.412 29.9936 170.471C30.0526 170.53 30.1707 170.589 30.2888 170.589H30.584C30.643 170.589 30.7021 170.647 30.7021 170.706C30.7021 170.765 30.7021 170.765 30.643 170.824C30.643 170.824 30.584 170.882 30.5249 170.882L29.4031 170.824L28.1632 170.882C28.1042 170.882 28.1042 170.882 28.0452 170.824C28.0452 170.824 27.9861 170.765 27.9861 170.706C27.9861 170.647 28.0452 170.589 28.1042 170.589H28.4585C28.5765 170.589 28.6946 170.53 28.7537 170.471C28.8127 170.412 28.8717 170.295 28.8717 170.177V164.651C28.8717 164.475 28.8127 164.358 28.6356 164.358H27.809C27.5138 164.358 27.2186 164.475 27.0414 164.593C26.8643 164.769 26.6872 165.004 26.6281 165.357C26.5691 165.474 26.5101 165.533 26.451 165.533C26.392 165.533 26.3329 165.533 26.2739 165.474C26.2148 165.416 26.2148 165.416 26.2148 165.357L26.2739 164.064C26.2739 163.946 26.3329 163.887 26.5101 163.887H32.001C32.1191 163.887 32.2372 163.946 32.2372 164.122L32.3552 165.357C32.3552 165.416 32.3552 165.474 32.2962 165.474C32.2372 165.533 32.2372 165.533 32.1191 165.533C32.06 165.533 32.001 165.474 31.942 165.357C31.8239 165.004 31.6467 164.769 31.4696 164.593C31.2925 164.416 31.0563 164.358 30.7021 164.358H30.1116C29.9345 164.416 29.8755 164.475 29.8755 164.651Z" fill="white"/>
<path d="M38.4958 165.416C38.3187 165.063 38.0235 164.828 37.7283 164.593C37.374 164.416 37.0198 164.299 36.5474 164.299C35.7208 164.299 35.1304 164.534 34.6581 165.063C34.1857 165.592 34.0086 166.239 34.0086 167.062C34.0086 167.943 34.1857 168.707 34.599 169.413C34.7761 169.766 35.0714 170.059 35.4256 170.236C35.7799 170.471 36.1932 170.53 36.6065 170.53C37.374 170.53 38.0235 170.295 38.4368 169.766C38.8501 169.237 39.0862 168.531 39.0862 167.708C39.0272 166.826 38.8501 166.062 38.4958 165.416ZM36.4884 163.828C37.5511 163.828 38.3777 164.181 39.0272 164.828C39.6767 165.474 39.9719 166.356 39.9719 167.414C39.9719 168.472 39.6767 169.295 39.0272 170.001C38.3777 170.706 37.5511 171 36.4884 171C35.4847 171 34.599 170.647 33.9496 170.001C33.3001 169.354 33.0049 168.472 33.0049 167.414C33.0049 166.356 33.3001 165.533 33.9496 164.828C34.599 164.122 35.4847 163.828 36.4884 163.828Z" fill="white"/>
<path d="M42.274 170.647C42.3331 170.647 42.3921 170.706 42.3921 170.765C42.3921 170.824 42.3331 170.882 42.215 170.882H41.4474H40.3847C40.2666 170.882 40.2666 170.824 40.2666 170.765C40.2666 170.706 40.3256 170.647 40.3847 170.647L40.6799 170.589C40.857 170.589 41.0932 170.412 41.2703 170.177L43.1597 167.473L41.2703 164.593C41.0932 164.358 40.9161 164.24 40.6799 164.181H40.3847C40.3256 164.181 40.2666 164.122 40.2666 164.064C40.2666 164.005 40.3256 163.946 40.3847 163.946L41.5655 164.005H42.5693C42.6873 164.005 42.7464 164.064 42.7464 164.122C42.7464 164.181 42.6873 164.24 42.6283 164.24H42.4512C42.3331 164.24 42.274 164.299 42.215 164.358C42.156 164.416 42.156 164.534 42.215 164.593L43.632 166.768L45.1671 164.593C45.2262 164.534 45.2262 164.416 45.1671 164.358C45.1081 164.299 45.049 164.24 44.9309 164.181H44.7538C44.6948 164.181 44.6357 164.122 44.6357 164.064C44.6357 164.005 44.6948 163.946 44.8129 163.946H45.5804L46.6432 163.887C46.7613 163.887 46.7612 163.946 46.7612 164.005C46.7612 164.064 46.7022 164.122 46.6432 164.122H46.348C46.1708 164.122 45.9347 164.299 45.7575 164.534L43.9272 167.12L45.9347 170.118C46.1118 170.353 46.2889 170.471 46.5251 170.53L46.8203 170.589C46.8793 170.589 46.9384 170.647 46.9384 170.706C46.9384 170.765 46.8793 170.824 46.8203 170.824H45.6394H44.5767C44.4586 170.824 44.3996 170.765 44.3996 170.706C44.3996 170.647 44.4586 170.589 44.5176 170.589H44.6948C44.8129 170.589 44.8719 170.53 44.9309 170.471C44.99 170.412 44.99 170.295 44.9309 170.236L43.3958 167.943L41.8017 170.236C41.7427 170.295 41.7427 170.412 41.7427 170.471C41.8017 170.53 41.8607 170.589 41.9788 170.589L42.274 170.647Z" fill="white"/>
<path d="M51.7209 165.18C51.7209 165.651 51.8981 166.121 52.2523 166.768C52.7247 166.533 53.0199 166.297 53.256 166.121C53.4922 165.945 53.6103 165.827 53.6693 165.651C53.7284 165.533 53.7874 165.298 53.7874 165.122C53.7874 164.887 53.6693 164.71 53.4922 164.534C53.3151 164.358 53.0789 164.299 52.7837 164.299C52.4885 164.299 52.2523 164.358 52.0752 164.534C51.839 164.71 51.7209 164.887 51.7209 165.18ZM50.8353 169.06C50.8353 169.472 50.9534 169.824 51.2486 170.118C51.5438 170.412 51.839 170.53 52.2523 170.53C52.9018 170.53 53.4332 170.295 53.7874 169.824C52.9018 169.001 52.2523 168.237 51.78 167.532C51.1896 167.943 50.8353 168.472 50.8353 169.06ZM54.4369 165.18C54.4369 165.416 54.3778 165.592 54.3188 165.71C54.2598 165.827 54.2007 165.945 54.1417 166.003C54.0826 166.062 54.0236 166.121 53.9055 166.239C53.7874 166.297 53.7284 166.415 53.6693 166.415C53.6103 166.474 53.5513 166.532 53.3741 166.591C53.197 166.65 53.138 166.709 53.0789 166.768C53.0199 166.826 52.7837 166.944 52.4294 167.12C52.8427 167.708 53.4332 168.414 54.2007 169.119C54.3778 168.825 54.4959 168.355 54.614 167.826C54.614 167.767 54.614 167.708 54.614 167.649C54.614 167.473 54.555 167.414 54.3778 167.414H54.0236C53.9645 167.414 53.9055 167.355 53.9055 167.297C53.9055 167.179 53.9645 167.179 54.0826 167.179H54.9683H55.7949C55.9129 167.179 55.9129 167.238 55.9129 167.297C55.9129 167.355 55.8539 167.414 55.7949 167.414L55.6177 167.473C55.4406 167.473 55.3225 167.532 55.2635 167.591C55.1454 167.649 55.0864 167.767 55.0864 167.885C54.9092 168.59 54.7321 169.119 54.555 169.472C54.8502 169.766 55.1454 170.001 55.4406 170.236C55.7358 170.471 55.972 170.647 56.1491 170.647H56.3262C56.3853 170.647 56.4443 170.706 56.4443 170.765C56.4443 170.824 56.3853 170.882 56.3262 170.882C55.6768 170.882 55.3225 170.824 55.1454 170.824C55.0273 170.824 54.8502 170.765 54.7321 170.647C54.4959 170.412 54.2598 170.236 54.1417 170.118C53.6693 170.706 52.9608 171 52.1342 171C51.4848 171 50.9534 170.824 50.5401 170.53C50.1268 170.177 49.8906 169.766 49.8906 169.295C49.8906 168.825 50.0087 168.414 50.3039 168.061C50.5991 167.767 51.0124 167.414 51.4848 167.12C51.0715 166.474 50.8943 165.886 50.8943 165.416C50.8943 164.945 51.0715 164.534 51.3667 164.24C51.6619 163.946 52.1342 163.828 52.6066 163.828C53.138 163.828 53.5512 163.946 53.8465 164.181C54.3188 164.475 54.4369 164.828 54.4369 165.18Z" fill="white"/>
<path d="M61.9944 171C61.8763 171 61.8173 170.941 61.7582 170.882L59.6327 164.593C59.5737 164.358 59.3375 164.24 59.0423 164.181H58.8061C58.8061 164.181 58.7471 164.181 58.7471 164.122V164.064C58.7471 163.946 58.8061 163.887 58.8652 163.887L59.8689 163.946L60.9907 163.887C61.1088 163.887 61.1088 163.946 61.1088 164.005C61.1088 164.122 61.0497 164.122 60.9907 164.181H60.7545C60.6364 164.181 60.5774 164.24 60.5183 164.299C60.4593 164.358 60.4593 164.475 60.5183 164.593L62.1715 169.53L64.0018 164.005C64.0018 163.946 64.1199 163.887 64.238 163.887C64.3561 163.887 64.4151 163.946 64.4742 164.005L66.3045 169.53L67.9577 164.593C68.0167 164.475 67.9577 164.416 67.9577 164.299C67.8986 164.24 67.8396 164.181 67.7215 164.181H67.4853C67.4263 164.181 67.3673 164.122 67.3673 164.064C67.3673 163.946 67.4263 163.946 67.5444 163.946L68.43 164.005L69.3157 163.946C69.4337 163.946 69.4337 164.005 69.4337 164.064C69.4337 164.181 69.3747 164.181 69.3157 164.181H69.1385C68.8433 164.24 68.6662 164.358 68.5481 164.593L66.3635 170.882C66.3635 170.941 66.2455 171 66.1274 171C66.0093 171 65.9502 170.941 65.8912 170.882L64.0609 165.474L62.2306 170.882C62.1715 170.941 62.1125 171 61.9944 171Z" fill="white"/>
<path d="M74.5709 170.882H70.8512L69.7294 170.941C69.6113 170.941 69.6113 170.882 69.6113 170.824C69.6113 170.706 69.6704 170.706 69.7294 170.706H70.0246C70.1427 170.706 70.2608 170.647 70.3789 170.589C70.4379 170.53 70.497 170.412 70.497 170.295V164.593C70.497 164.358 70.3198 164.24 70.0246 164.181H69.7294C69.6704 164.181 69.6113 164.122 69.6113 164.064C69.6113 163.946 69.6704 163.946 69.7294 163.946L70.8512 164.005H74.3938C74.5118 164.005 74.6299 164.064 74.689 164.122C74.748 164.181 74.8071 164.299 74.8071 164.416L74.9251 165.298C74.9251 165.416 74.8661 165.474 74.8071 165.474C74.689 165.474 74.6299 165.416 74.5709 165.298C74.4528 165.004 74.3347 164.769 74.0985 164.651C73.9214 164.534 73.6262 164.475 73.272 164.475H71.7369C71.6188 164.475 71.5007 164.534 71.3826 164.593C71.2645 164.651 71.2645 164.769 71.2645 164.945V167.003C71.2645 167.062 71.3236 167.12 71.3826 167.12H73.2129C73.331 167.12 73.39 167.12 73.4491 167.062C73.5081 167.003 73.5081 166.944 73.5672 166.944C73.5672 166.885 73.6262 166.826 73.6262 166.709L73.6853 166.591C73.6853 166.532 73.7443 166.474 73.8624 166.474C73.9214 166.474 73.9805 166.532 73.9805 166.591L73.9214 167.414L73.9805 168.237C73.9805 168.296 73.9214 168.355 73.8624 168.414C73.8033 168.414 73.7443 168.355 73.7443 168.296L73.6853 168.12C73.6262 167.767 73.5081 167.591 73.272 167.591H71.4416C71.3826 167.591 71.3236 167.649 71.3236 167.708V170.001C71.3236 170.118 71.3826 170.236 71.4416 170.353C71.5597 170.412 71.6778 170.471 71.7959 170.471H73.4491C73.8033 170.471 74.0985 170.412 74.3347 170.236C74.5709 170.059 74.748 169.824 74.8661 169.472C74.9251 169.354 74.9251 169.295 75.0432 169.295C75.1023 169.295 75.1613 169.295 75.2204 169.354C75.2204 169.413 75.2794 169.413 75.2794 169.472L74.9842 170.471C74.9842 170.589 74.9251 170.647 74.8661 170.765C74.8071 170.824 74.689 170.882 74.5709 170.882Z" fill="white"/>
<path d="M77.5814 164.593V169.942C77.5814 170.059 77.6404 170.177 77.6995 170.295C77.8175 170.353 77.8766 170.412 78.0537 170.412H79.4707C79.825 170.412 80.1202 170.353 80.3564 170.177C80.5925 170.001 80.7696 169.766 80.8877 169.413C80.9468 169.295 81.0058 169.236 81.1239 169.236C81.242 169.236 81.301 169.295 81.242 169.413L81.0649 170.471C81.0649 170.589 81.0058 170.647 80.9468 170.765C80.8877 170.824 80.7696 170.882 80.6516 170.882H77.109L75.9872 170.941C75.8691 170.941 75.8691 170.882 75.8691 170.824C75.8691 170.706 75.9282 170.706 75.9872 170.706H76.2824C76.4005 170.706 76.5186 170.647 76.6367 170.589C76.6957 170.53 76.7548 170.412 76.7548 170.295V164.593C76.7548 164.358 76.5776 164.24 76.2824 164.181L75.9872 164.122C75.9282 164.122 75.8691 164.064 75.8691 164.005C75.8691 163.887 75.9282 163.887 75.9872 163.887L77.109 163.946L78.1127 163.887C78.2308 163.887 78.2899 163.946 78.2899 164.005C78.2899 164.122 78.2308 164.122 78.1718 164.181L77.9947 164.24C77.6995 164.24 77.5814 164.416 77.5814 164.593Z" fill="white"/>
<path d="M83.4857 164.593V169.942C83.4857 170.059 83.5447 170.177 83.6038 170.295C83.7218 170.353 83.7809 170.412 83.958 170.412H85.375C85.7293 170.412 86.0245 170.353 86.2607 170.177C86.4968 170.001 86.6739 169.766 86.792 169.413C86.8511 169.295 86.9101 169.236 87.0282 169.236C87.1463 169.236 87.2053 169.295 87.1463 169.413L86.9692 170.471C86.9692 170.589 86.9101 170.647 86.8511 170.765C86.792 170.882 86.6739 170.882 86.5559 170.882H83.0133L81.8915 170.941C81.7734 170.941 81.7734 170.882 81.7734 170.824C81.7734 170.706 81.8325 170.706 81.8915 170.706H82.1867C82.3048 170.706 82.4229 170.647 82.541 170.589C82.6 170.53 82.6591 170.412 82.6591 170.295V164.593C82.6591 164.358 82.4819 164.24 82.1867 164.181L81.8915 164.122C81.8325 164.122 81.7734 164.064 81.7734 164.005C81.7734 163.887 81.8325 163.887 81.8915 163.887L83.0133 163.946L84.017 163.887C84.1351 163.887 84.1942 163.946 84.1942 164.005C84.1942 164.122 84.1351 164.122 84.0761 164.181L83.899 164.24C83.6038 164.24 83.4857 164.416 83.4857 164.593Z" fill="white"/>
<path d="M93.4643 169.413V164.593C93.4643 164.358 93.2872 164.24 92.992 164.181H92.6968C92.6377 164.181 92.5787 164.122 92.5787 164.064C92.5787 164.005 92.6377 163.946 92.6968 163.946H93.6414H94.409C94.5271 163.946 94.5861 164.005 94.5861 164.064C94.5861 164.122 94.5271 164.181 94.468 164.181H94.2909C94.0547 164.24 93.8776 164.358 93.8776 164.593V170.882C93.8776 170.941 93.8186 171 93.7595 171H93.6414C93.4643 171 93.3462 170.941 93.2281 170.765L89.0362 165.416H88.9771C88.9771 165.416 88.9181 165.474 88.9181 165.533V170.236C88.9181 170.471 89.0362 170.589 89.3314 170.647H89.5085C89.5675 170.647 89.6266 170.706 89.6266 170.765C89.6266 170.824 89.5675 170.882 89.4495 170.882L88.6819 170.824L87.7372 170.882C87.6191 170.882 87.6191 170.824 87.6191 170.765C87.6191 170.706 87.6782 170.647 87.7372 170.647H88.0324C88.3277 170.589 88.5048 170.471 88.5048 170.236V164.593C88.5048 164.358 88.3867 164.24 88.0915 164.181H87.9144C87.8553 164.181 87.7963 164.122 87.7963 164.064C87.7963 164.005 87.8553 163.946 87.9734 163.946H88.7409C88.9181 163.946 89.0952 164.005 89.1542 164.122L93.2872 169.413H93.3462C93.4643 169.472 93.4643 169.472 93.4643 169.413Z" fill="white"/>
<path d="M100.254 170.882H96.5338L95.412 170.941C95.294 170.941 95.2939 170.882 95.2939 170.824C95.2939 170.706 95.353 170.706 95.412 170.706H95.7072C95.8253 170.706 95.9434 170.647 96.0615 170.589C96.1205 170.53 96.1796 170.412 96.1796 170.295V164.593C96.1796 164.358 96.0025 164.24 95.7072 164.181H95.412C95.353 164.181 95.2939 164.122 95.2939 164.064C95.2939 163.946 95.353 163.946 95.412 163.946L96.5338 164.005H100.076C100.194 164.005 100.313 164.064 100.372 164.122C100.431 164.181 100.49 164.299 100.49 164.416L100.608 165.298C100.608 165.416 100.549 165.474 100.49 165.474C100.372 165.474 100.313 165.416 100.254 165.298C100.135 165.004 100.017 164.769 99.7812 164.651C99.604 164.534 99.3088 164.475 98.9546 164.475H97.4195C97.3014 164.475 97.1833 164.534 97.0652 164.593C96.9471 164.651 96.9471 164.769 96.9471 164.945V167.003C96.9471 167.062 97.0062 167.12 97.0652 167.12H98.8955C99.0136 167.12 99.0727 167.12 99.1317 167.062C99.1907 167.003 99.1907 166.944 99.2498 166.944C99.2498 166.885 99.3088 166.826 99.3088 166.709L99.3679 166.591C99.3679 166.532 99.4269 166.474 99.545 166.474C99.604 166.474 99.6631 166.532 99.6631 166.591L99.604 167.414L99.6631 168.237C99.6631 168.296 99.604 168.355 99.545 168.414C99.486 168.414 99.4269 168.355 99.4269 168.296V168.12C99.3679 167.767 99.2498 167.591 99.0136 167.591H97.1833C97.1243 167.591 97.0652 167.649 97.0652 167.708V170.001C97.0652 170.118 97.1243 170.236 97.1833 170.353C97.3014 170.412 97.3604 170.471 97.5376 170.471H99.1907C99.545 170.471 99.8402 170.412 100.076 170.236C100.313 170.059 100.49 169.824 100.608 169.472C100.667 169.354 100.667 169.295 100.785 169.295C100.844 169.295 100.903 169.295 100.962 169.354C100.962 169.413 101.021 169.413 101.021 169.472L100.844 170.53C100.844 170.647 100.785 170.706 100.726 170.824C100.49 170.824 100.372 170.882 100.254 170.882Z" fill="white"/>
<path d="M106.453 169.119C106.453 169.766 106.217 170.236 105.744 170.53C105.272 170.824 104.682 171 104.032 171C103.383 171 102.792 170.941 102.379 170.765C101.966 170.589 101.729 170.412 101.729 170.236V169.06C101.729 168.943 101.789 168.825 101.907 168.825C101.966 168.825 102.025 168.884 102.084 169.001C102.261 169.53 102.497 169.883 102.733 170.118C103.028 170.353 103.383 170.471 103.914 170.471C104.445 170.471 104.8 170.353 105.095 170.118C105.39 169.883 105.567 169.589 105.567 169.178C105.567 168.766 105.331 168.355 104.859 168.061C104.623 167.943 104.386 167.826 104.15 167.649C103.914 167.532 103.619 167.414 103.383 167.238C103.087 167.12 102.851 166.944 102.674 166.826C102.202 166.474 101.966 166.003 101.966 165.474C101.966 164.945 102.202 164.475 102.615 164.181C103.028 163.887 103.56 163.711 104.091 163.711C104.682 163.711 105.154 163.77 105.567 163.946C105.981 164.064 106.158 164.24 106.158 164.416V165.416C106.158 165.533 106.099 165.592 106.04 165.592C105.921 165.592 105.862 165.533 105.803 165.416C105.685 165.004 105.508 164.651 105.272 164.475C105.036 164.299 104.682 164.181 104.268 164.181C103.796 164.181 103.442 164.299 103.206 164.475C102.969 164.71 102.792 164.945 102.792 165.239C102.792 165.533 102.91 165.827 103.206 166.062C103.442 166.297 103.796 166.474 104.15 166.65C104.504 166.826 104.859 167.003 105.272 167.179C105.626 167.355 105.981 167.591 106.217 167.884C106.335 168.355 106.453 168.707 106.453 169.119Z" fill="white"/>
<path d="M112.121 169.119C112.121 169.766 111.885 170.236 111.412 170.53C110.94 170.824 110.35 171 109.7 171C109.051 171 108.46 170.941 108.047 170.765C107.634 170.589 107.397 170.412 107.397 170.236V169.06C107.397 168.943 107.457 168.825 107.575 168.825C107.634 168.825 107.693 168.884 107.752 169.001C107.929 169.53 108.165 169.883 108.401 170.118C108.696 170.353 109.051 170.471 109.582 170.471C110.113 170.471 110.468 170.353 110.763 170.118C111.058 169.883 111.235 169.589 111.235 169.178C111.235 168.766 110.999 168.355 110.527 168.061C110.291 167.943 110.054 167.826 109.818 167.649C109.582 167.532 109.287 167.414 109.051 167.238C108.755 167.12 108.519 166.944 108.342 166.826C107.87 166.474 107.634 166.003 107.634 165.474C107.634 164.945 107.87 164.475 108.283 164.181C108.696 163.887 109.228 163.711 109.759 163.711C110.35 163.711 110.822 163.77 111.235 163.946C111.649 164.064 111.826 164.24 111.826 164.416V165.416C111.826 165.533 111.767 165.592 111.708 165.592C111.589 165.592 111.53 165.533 111.471 165.416C111.353 165.004 111.176 164.651 110.94 164.475C110.704 164.299 110.35 164.181 109.936 164.181C109.464 164.181 109.11 164.299 108.874 164.475C108.637 164.71 108.46 164.945 108.46 165.239C108.46 165.533 108.578 165.827 108.874 166.062C109.11 166.297 109.464 166.474 109.818 166.65C110.172 166.826 110.527 167.003 110.94 167.179C111.294 167.355 111.649 167.591 111.885 167.884C112.003 168.355 112.121 168.707 112.121 169.119Z" fill="white"/>
<path d="M57.0352 158.185C54.9687 158.244 52.8432 158.244 50.7767 158.303C46.5847 158.362 42.4518 158.479 38.2598 158.714C42.4518 158.949 46.5847 159.067 50.7767 159.126C52.8432 159.185 54.9687 159.185 57.0352 159.243L63.2937 159.302H69.5522C71.6187 159.302 73.7442 159.243 75.8107 159.185C80.0027 159.126 84.1357 159.008 88.3277 158.773C84.1357 158.538 80.0027 158.42 75.8107 158.362C73.7442 158.303 71.6187 158.303 69.5522 158.244H63.2937L57.0352 158.185Z" fill="url(#paint0_linear)"/>
<path d="M127 63.1918L126.114 62.4864C125.524 62.0162 112.653 51.6115 102.202 49.319C103.796 46.615 104.682 43.4995 104.682 40.1488C104.682 30.1557 96.5342 22.1024 86.497 22.1024C83.1906 22.1024 80.0614 22.9842 77.4045 24.5125C74.9837 14.1667 64.7104 1.46958 64.238 0.881746L63.4705 0L62.762 0.881746C62.2896 1.46958 51.8982 14.2843 49.5365 24.6301C46.8205 23.043 43.6323 22.1024 40.2668 22.1024C30.2297 22.1024 22.1409 30.2145 22.1409 40.1488C22.1409 43.4995 23.0855 46.615 24.6797 49.319C14.2882 51.7291 1.5351 61.9574 0.944677 62.4864L0 63.1918L0.885635 63.8972C1.47606 64.3675 14.2882 74.6545 24.6797 77.0646C23.0265 79.7686 22.0818 82.9429 22.0818 86.2936C22.0818 96.2867 30.2297 104.34 40.2078 104.34C43.6323 104.34 46.7615 103.399 49.5365 101.812C51.9572 112.158 62.2306 124.914 62.762 125.502L63.4705 126.384L64.179 125.502C64.6513 124.914 74.9247 112.276 77.3454 101.93C80.0023 103.458 83.1316 104.399 86.4379 104.399C96.4751 104.399 104.623 96.2867 104.623 86.3523C104.623 83.0017 103.678 79.8274 102.084 77.1234C112.535 74.8309 125.465 64.4263 126.055 63.8972L127 63.1918ZM77.8178 26.5112C80.3566 24.924 83.3087 23.9835 86.497 23.9835C95.4714 23.9835 102.793 31.2138 102.793 40.2076C102.793 43.4407 101.848 46.4386 100.195 49.0251C99.5453 48.9663 98.9549 48.9075 98.3645 48.9075C95.5304 48.9075 92.6964 49.7893 89.9214 51.6115C89.6262 51.7879 89.3901 51.9642 89.1539 52.1994C88.4454 50.9062 87.6778 49.6717 86.7331 48.496C87.6778 43.4407 89.2129 39.3259 91.2204 37.0921C91.2794 37.0333 95.0581 31.9192 95.0581 31.9192C95.0581 31.9192 90.0395 35.7401 89.9214 35.7989C87.5007 38.0327 82.7773 39.6198 77.1683 40.5603C76.0465 39.9725 74.8656 39.4435 73.6848 39.032C74.5114 38.1502 75.2789 37.2097 75.9284 36.0928C77.2864 33.6827 77.9949 31.2138 77.9949 28.7449C77.9358 27.8632 77.8768 27.1578 77.8178 26.5112ZM85.8475 82.3551C86.3789 84.1774 86.9693 85.8233 87.6188 87.2341C86.2018 86.5875 84.5486 85.9996 82.7183 85.4706C82.7773 85.4118 82.8363 85.353 82.8954 85.2943C83.9582 84.3537 84.9619 83.3544 85.8475 82.3551ZM73.98 88.8212C70.6736 90.1733 67.3673 90.8787 64.0609 90.8787C63.8247 90.8787 63.5886 90.8787 63.3524 90.8787C53.2562 90.5847 45.4035 86.2348 40.1488 77.9464C37.9052 74.4194 36.6653 70.4221 36.4881 66.131C36.1339 57.0784 39.7355 49.6717 47.1748 44.0873C51.2487 41.0306 55.854 39.2671 60.8726 38.9144C61.7583 38.8556 62.5848 38.7968 63.4114 38.7968C72.7401 38.7968 80.3566 42.6765 86.0246 50.3183C86.6741 51.2001 87.1464 52.023 87.5597 52.846C87.5007 52.846 87.5007 52.846 87.4417 52.846C86.9693 52.846 86.6151 53.1987 86.2608 53.4338C83.4858 55.1385 81.0651 57.2547 78.6443 59.4885C75.338 62.4864 72.4449 65.9546 69.4337 69.2465C68.43 70.3046 67.4263 71.4214 66.3045 72.4208C66.7178 71.7741 67.1901 71.1275 67.6625 70.4809C69.788 67.6593 71.2641 64.4263 72.8582 61.3108C74.3343 58.4892 76.0465 55.9027 78.7034 53.9629C78.8215 53.8453 79.0576 53.7865 78.9396 53.5514C78.8215 53.3163 78.6443 53.375 78.4672 53.4338C76.8731 53.7865 75.4561 54.5507 74.1571 55.4324C72.3859 56.5493 70.7327 57.9013 69.1385 59.2533C66.954 61.1344 65.0056 63.1918 63.1753 65.3668C61.345 67.5418 59.9279 70.0694 58.1567 72.3032C56.0902 74.8309 53.6695 76.7707 50.4221 77.4761C47.8243 78.0639 45.5216 77.4173 43.6913 75.4187C43.1009 74.8309 42.6285 74.1255 42.3924 73.2437C45.1674 74.4782 47.9424 74.5957 50.6583 73.5964C54.2599 72.2444 57.153 70.0694 58.0386 66.0722C58.6881 63.0155 57.8024 60.3114 54.5551 59.1358C54.3189 59.0182 54.0828 58.9007 53.9056 58.6655C52.5477 56.7257 50.7173 55.8439 48.2966 55.8439C43.9865 55.8439 40.5621 58.7831 39.2041 62.3689C38.6137 63.8972 38.4956 65.4844 38.5546 67.1303C38.6137 69.3053 39.4403 71.0687 41.1525 72.4208C41.4477 72.6559 41.6839 72.9498 41.861 73.3613C42.0972 74.0667 42.4514 74.7133 42.9238 75.3011C44.4589 77.2998 46.4663 78.4166 49.0051 78.2991C51.3668 78.1815 53.6104 77.5349 55.795 76.418C59.3966 74.5369 62.4668 72.0093 64.8875 68.7762C66.3635 66.8364 67.6034 64.7202 68.9614 62.6628C70.2013 60.7817 71.4412 58.8419 73.0944 57.3135C74.2752 56.1966 75.5742 55.1385 77.1683 54.4919C75.1018 56.4318 73.3305 58.548 71.9135 61.0168C70.2013 64.0148 68.7252 67.1303 66.8359 70.0694C65.3598 72.4208 63.9428 74.8309 61.7583 76.6531C61.6992 76.7119 61.6402 76.7119 61.6402 76.7707C61.5811 76.8295 61.5221 76.9471 61.5811 77.0646C61.6402 77.1822 61.8173 77.1822 61.9354 77.1822C62.1125 77.1234 62.2306 77.0646 62.3487 76.9471C63.2343 76.1829 64.179 75.4775 65.0646 74.7133C68.0758 72.0093 70.7327 68.9526 73.4486 66.0134C76.2236 62.9567 79.1167 60.0175 82.305 57.3135C83.0725 56.6669 83.8401 56.0791 84.6667 55.4324C82.6592 57.4899 80.7108 59.4885 78.8215 61.6047C76.2236 64.6026 73.6258 67.6005 71.9135 71.2451C71.205 72.6559 70.7917 74.1842 70.8508 75.7714C70.9098 77.3585 72.0907 78.1227 73.5667 77.3585C74.5114 76.8883 75.2199 76.1241 75.8694 75.3011C75.9874 75.1248 76.2236 74.8896 75.9874 74.3606C75.6332 74.7133 75.397 75.066 75.1609 75.3599C74.5704 75.9477 74.039 76.5356 73.2125 76.8883C72.3268 77.241 71.7954 77.0058 71.5593 76.0653C71.5002 75.7714 71.5002 75.4187 71.5593 75.1248C71.7954 74.0667 72.2087 73.0674 72.7401 72.0681C74.8066 68.3059 77.4045 64.8965 80.1204 61.6047C82.2459 59.0182 84.4895 56.4905 86.9693 54.198C87.3236 53.9041 87.7959 53.669 88.0321 53.2575C89.0948 55.1973 89.8624 57.3135 90.3938 59.7824C91.5746 65.6019 90.8071 71.2451 88.0911 76.418C84.7847 82.12 80.1204 86.2936 73.98 88.8212ZM64.2971 92.5246C64.0609 93.0536 63.8838 93.5827 63.7066 94.0529C63.5295 93.5239 63.3524 93.0536 63.1162 92.5246C63.1753 92.5246 63.2934 92.5246 63.3524 92.5246C63.6476 92.5834 63.9428 92.5834 64.2971 92.5246ZM44.2817 85.4706C42.5105 85.9409 40.8573 86.5287 39.4403 87.2341C40.0897 85.8233 40.6801 84.1774 41.2115 82.3551C42.0972 83.472 43.1599 84.5301 44.2817 85.4706ZM36.1929 55.8439C32.9456 55.021 30.0525 53.1987 27.927 50.7298C28.1632 50.7298 28.3993 50.7298 28.6355 50.7298C31.1153 50.7298 33.5951 51.5528 36.0748 53.1399C36.4291 53.375 36.7243 53.6102 37.0195 53.8453C36.7243 54.4331 36.4291 55.1385 36.1929 55.8439ZM34.7169 64.0148C34.0084 63.7209 33.2999 63.4269 32.6504 63.1918C33.3589 62.9567 34.0084 62.6628 34.7169 62.3689V64.0148ZM36.0748 73.3613C33.6541 74.9484 31.1153 75.7714 28.6946 75.7714C28.4584 75.7714 28.2813 75.7714 28.0451 75.7714C29.9935 73.5376 32.5323 71.8917 35.4254 70.9512C35.6025 71.7154 35.7796 72.5383 36.0748 73.3613ZM41.802 46.615C41.2115 43.8522 40.3849 41.3245 39.4403 39.2671C41.6248 40.3252 44.3998 41.1482 47.47 41.736C45.3445 43.088 43.4551 44.7339 41.802 46.615ZM61.6992 37.1509C62.5848 35.505 63.3524 33.9178 63.8838 32.4483C64.4152 33.9766 65.1237 35.5638 66.0093 37.1509H61.6992ZM82.305 43.7934C81.4193 43.0292 80.4747 42.3826 79.53 41.7948C82.6002 41.1482 85.3752 40.3252 87.5597 39.2671C86.6151 41.3245 85.7885 43.7934 85.198 46.615C84.3124 45.6157 83.3677 44.6751 82.305 43.7934ZM41.2706 71.7741C40.3259 71.1275 39.7355 70.3046 39.3812 69.3053C38.3185 66.131 38.9089 63.1918 40.8573 60.5466C41.861 59.1358 43.1599 58.0189 44.8131 57.4311C47.1158 56.5493 49.4775 56.3142 51.7211 57.6662C52.1344 57.9013 52.4886 58.1953 52.8429 58.7243C49.2413 58.6067 46.2301 59.7236 43.9865 62.4864C41.7429 65.1904 40.8573 68.2472 41.2706 71.7741ZM47.8243 60.6641C49.4184 59.7236 51.2487 59.5473 53.079 59.606C53.5514 59.606 53.6695 59.9587 53.7875 60.3114C54.3189 62.1337 54.0237 63.7796 53.079 65.4256C52.3115 66.7776 51.1897 67.7181 49.7136 68.1884C49.4775 68.2472 49.1232 68.3059 49.2413 68.5999C49.3003 68.9526 49.6546 68.8938 49.9498 68.7762C51.7801 68.1884 53.079 67.0127 53.9056 65.308C54.6732 63.7209 54.9093 62.1337 54.496 60.429C54.437 60.3114 54.378 60.1351 54.496 60.0175C54.6141 59.9587 54.7913 60.0175 54.9093 60.0763C56.2673 60.8405 57.271 61.8986 57.4482 63.4857C57.6843 65.8371 56.9758 67.9532 55.3817 69.7167C53.079 72.3032 50.1269 73.5964 46.7025 73.5964C46.5253 73.5964 46.4073 73.5964 46.2301 73.5964C44.9902 73.5964 43.8094 73.3025 42.6285 72.7735C42.0972 72.5383 41.861 72.1856 41.802 71.5978C41.3296 66.6012 43.6913 63.133 47.8243 60.6641ZM91.5746 70.9512C94.4086 71.8917 96.8884 73.5376 98.7778 75.7126C98.6006 75.7126 98.4826 75.7126 98.3054 75.7126C95.8257 75.7126 93.3459 74.8896 90.8661 73.3025C90.9842 72.9498 91.1023 72.5383 91.2204 72.1856C91.3975 71.7741 91.5156 71.3627 91.5746 70.9512ZM92.2831 62.4864L92.2241 62.1337C93.0507 62.5452 93.9363 62.8979 94.7629 63.133C93.9363 63.4269 93.1097 63.7209 92.2831 64.1323V62.4864ZM89.9214 53.7865C90.2166 53.5514 90.5709 53.3163 90.8661 53.0811C93.2868 51.494 95.8257 50.671 98.3054 50.671C98.4826 50.671 98.6597 50.671 98.8368 50.671C96.7113 53.1399 93.9363 54.9034 90.689 55.7851C90.5119 55.1385 90.2166 54.4331 89.9214 53.7865ZM76.1055 28.5686C76.1055 30.7436 75.5151 32.9185 74.2752 35.0347C73.5667 36.2692 72.6811 37.3273 71.6774 38.2678C71.2641 38.1502 70.8508 38.0327 70.4375 37.9739C71.0279 33.9178 73.0944 30.3321 76.1055 27.8632C76.0465 28.0395 76.1055 28.2747 76.1055 28.5686ZM63.4705 2.93915C65.9503 6.11344 74.0391 17.0471 75.7513 25.5706C71.9135 28.3922 69.2566 32.6246 68.5481 37.5036C68.4891 37.5036 68.4891 37.5036 68.43 37.5036C66.1864 33.8003 64.8285 30.2145 64.8285 27.3341L63.8247 8.17085L62.8801 27.3341C62.8801 30.2145 61.5221 33.7415 59.3375 37.386C58.9833 37.4448 58.629 37.5036 58.2157 37.5624C57.5072 32.7422 54.9093 28.5686 51.1897 25.747C52.8429 17.2234 60.9907 6.17222 63.4705 2.93915ZM50.9535 27.922C53.8466 30.4496 55.854 33.9766 56.3854 37.9739C56.0311 38.0327 55.7359 38.1502 55.3817 38.2678C54.378 37.386 53.4333 36.2692 52.7248 35.0347C51.4849 32.9185 50.8945 30.7436 50.8945 28.5686C50.8945 28.3334 50.9535 28.1571 50.9535 27.922ZM24.0302 40.1488C24.0302 31.2138 31.2924 23.9247 40.3259 23.9247C43.6323 23.9247 46.7025 24.924 49.2413 26.57C49.1822 27.2166 49.1232 27.8632 49.1232 28.5098C49.1232 30.9787 49.8317 33.4476 51.1897 35.8577C51.8391 36.9746 52.5476 37.9151 53.4333 38.7968C52.1934 39.2083 51.0126 39.7374 49.8907 40.3252C44.2227 39.3847 39.5583 37.7975 37.1376 35.5638C37.0786 35.4462 31.7057 31.4489 31.7057 31.4489C31.7057 31.4489 35.7206 36.7394 35.8387 36.857C37.9052 39.0908 39.3812 43.2643 40.3849 48.3197C39.7355 49.1427 39.1451 50.0244 38.5546 50.9649C38.3185 51.3176 38.1413 51.6703 37.9642 52.023C37.728 51.8467 37.4328 51.6115 37.1967 51.494C34.4217 49.7305 31.5876 48.79 28.7536 48.79C28.1041 48.79 27.3956 48.8487 26.6871 48.9075C24.9749 46.4386 24.0302 43.4407 24.0302 40.1488ZM2.95212 63.1918C6.1404 60.7229 17.1813 52.6696 25.7424 50.9649C28.1632 54.1392 31.6467 56.5493 35.6616 57.6074C35.4254 58.4304 35.2483 59.2533 35.1302 60.0763C32.3552 61.4283 29.6983 62.2513 27.4547 62.2513L8.20688 63.1918L27.6318 64.1911C29.7573 64.1911 32.1781 64.8965 34.7759 66.131V67.2478L34.835 67.483C34.835 67.6005 34.894 67.6593 34.894 67.7769C34.953 68.2472 35.0121 68.6586 35.0711 69.1289C31.3515 70.2458 28.1632 72.4795 25.8605 75.4775C17.2404 73.7728 6.19944 65.7195 2.95212 63.1918ZM49.1822 99.8725C46.6434 101.577 43.5732 102.518 40.2668 102.518C31.2924 102.518 23.9712 95.2874 23.9712 86.2936C23.9712 83.0017 24.9749 79.945 26.6281 77.4173C27.3366 77.4761 27.9861 77.5349 28.6355 77.5349C31.3515 77.5349 34.0674 76.7119 36.7243 75.066C37.0195 75.8302 37.3738 76.5356 37.7871 77.241C38.3775 78.3578 39.027 79.4159 39.7945 80.474C38.7908 84.5889 37.3738 87.8807 35.5435 89.703L31.7057 94.8759L36.8424 90.9962C38.6727 89.1739 41.92 87.7631 46.053 86.8226C46.9386 87.4692 47.8243 88.0571 48.7689 88.5861C49.6546 89.1152 50.5993 89.5266 51.4849 89.9381C49.8907 92.5246 49.0642 95.1698 49.0642 97.815C49.0642 98.5204 49.1232 99.2258 49.1822 99.8725ZM50.8945 97.8738C50.8945 95.4637 51.662 93.0536 53.1971 90.7023C54.0237 90.9962 54.8503 91.2901 55.6769 91.5253C54.7322 94.2881 53.079 96.6982 50.9535 98.5792C50.9535 98.3441 50.8945 98.109 50.8945 97.8738ZM63.4705 123.503C60.9907 120.27 52.8429 109.337 51.1897 100.813C54.0827 98.638 56.3264 95.5813 57.5072 92.0543C58.629 92.2894 59.8099 92.4658 60.9317 92.5246C62.0535 94.9347 62.6439 97.2272 62.6439 99.2258L63.6476 118.389L64.6513 99.2258C64.6513 97.2272 65.3008 94.9347 66.4226 92.4658C66.954 92.407 67.4854 92.3482 67.9577 92.2894C68.371 92.2307 68.8433 92.1719 69.2566 92.0543C70.4375 95.6401 72.7401 98.7556 75.7513 100.931C74.0391 109.395 65.9503 120.27 63.4705 123.503ZM76.0465 98.7556C73.8029 96.8745 72.0907 94.4056 71.0869 91.584C72.0316 91.3489 72.9172 91.055 73.8029 90.7611C75.2789 93.1124 76.0465 95.5225 76.0465 97.9326C76.1055 98.1678 76.0465 98.4617 76.0465 98.7556ZM102.793 86.3523C102.793 95.2874 95.5304 102.518 86.497 102.518C83.3087 102.518 80.2975 101.577 77.7587 99.99C77.8768 99.2846 77.9358 98.5792 77.9358 97.8738C77.9358 95.2286 77.1093 92.5834 75.5742 89.9969C77.4635 89.1739 79.2938 88.1158 81.006 86.8226C85.08 87.8219 88.2682 89.3503 90.2166 90.9962C91.4565 92.0543 95.4714 94.8171 95.4714 94.8171C95.4714 94.8171 92.5783 90.9374 91.5156 89.703C89.8033 87.7631 88.2682 84.5889 87.2645 80.474C88.4454 78.7693 89.4491 77.0058 90.2757 75.066C92.9326 76.7119 95.6485 77.5349 98.3645 77.5349C98.9549 77.5349 99.5453 77.4761 100.195 77.4173C101.789 80.0038 102.793 83.0605 102.793 86.3523ZM101.021 75.4775C98.7778 72.4795 95.5895 70.2458 91.9289 69.1289C91.9879 68.835 92.047 68.5411 92.106 68.1884C92.165 67.8945 92.2241 67.5418 92.2831 67.2478V66.3073C94.9991 64.9553 97.5969 64.1911 99.7815 64.1911L119.206 63.2506L99.9586 62.2513C97.5969 62.2513 94.8219 61.3695 91.8698 59.8412C91.7517 59.1358 91.5746 58.4304 91.3975 57.7838C91.3975 57.725 91.3384 57.6662 91.3384 57.6074C95.2943 56.5493 98.7187 54.198 101.08 50.9649C109.642 52.5521 120.801 60.7229 124.048 63.1918C120.801 65.7195 109.583 73.8903 101.021 75.4775Z" fill="url(#paint1_linear)"/>
<defs>
<linearGradient id="paint0_linear" x1="38.2896" y1="158.723" x2="88.2591" y2="158.723" gradientUnits="userSpaceOnUse">
<stop stop-color="#81623D"/>
<stop offset="0.0990594" stop-color="#856740"/>
<stop offset="0.2414" stop-color="#927647"/>
<stop offset="0.4099" stop-color="#A99154"/>
<stop offset="0.597" stop-color="#CEBD69"/>
<stop offset="0.6613" stop-color="#E1D273"/>
<stop offset="1" stop-color="#9D7D4A"/>
</linearGradient>
<linearGradient id="paint1_linear" x1="13.6264" y1="112.589" x2="192.721" y2="-66.5076" gradientUnits="userSpaceOnUse">
<stop stop-color="#9B7D4A"/>
<stop offset="0.0588648" stop-color="#A0824D"/>
<stop offset="0.1439" stop-color="#AC9154"/>
<stop offset="0.2442" stop-color="#C2AD62"/>
<stop offset="0.3333" stop-color="#E0D174"/>
<stop offset="0.5161" stop-color="#E5DA8F"/>
<stop offset="0.6613" stop-color="#E0D174"/>
<stop offset="1" stop-color="#9B7D4A"/>
</linearGradient>
</defs>
</svg>
