<svg width="216" height="434" viewBox="0 0 216 434" fill="none" xmlns="http://www.w3.org/2000/svg">
<path d="M216 217L212.98 214.578C210.967 212.963 167.084 177.234 131.453 169.361C136.888 160.075 139.908 149.377 139.908 137.871C139.908 103.554 112.128 75.8995 77.907 75.8995C66.6341 75.8995 55.9651 78.9274 46.9066 84.1758C38.6532 48.6484 3.62669 5.04651 2.01628 3.02791L-0.600647 0L-3.01627 3.02791C-4.62668 5.04651 -40.0558 49.0521 -48.1078 84.5795C-57.3677 79.1293 -68.238 75.8995 -79.7122 75.8995C-113.934 75.8995 -141.512 103.756 -141.512 137.871C-141.512 149.377 -138.291 160.075 -132.856 169.361C-168.285 177.637 -211.766 212.761 -213.779 214.578L-217 217L-213.98 219.422C-211.967 221.037 -168.285 256.363 -132.856 264.639C-138.492 273.925 -141.713 284.825 -141.713 296.331C-141.713 330.647 -113.934 358.302 -79.9135 358.302C-68.238 358.302 -57.569 355.073 -48.1078 349.622C-39.8545 385.15 -4.82799 428.954 -3.01627 430.972L-0.600647 434L1.81496 430.972C3.42537 428.954 38.4519 385.553 46.7053 350.026C55.7638 355.274 66.4328 358.504 77.7057 358.504C111.927 358.504 139.707 330.647 139.707 296.533C139.707 285.027 136.486 274.127 131.051 264.841C166.681 256.968 210.766 221.239 212.779 219.422L216 217ZM48.3157 91.0391C56.9716 85.5888 67.0367 82.3591 77.907 82.3591C108.505 82.3591 133.466 107.188 133.466 138.073C133.466 149.175 130.245 159.47 124.609 168.352C122.395 168.15 120.382 167.948 118.369 167.948C108.706 167.948 99.0437 170.976 89.5825 177.234C88.576 177.839 87.7708 178.445 86.9656 179.252C84.55 174.811 81.933 170.572 78.7122 166.535C81.933 149.175 87.1669 135.045 94.0111 127.374C94.2125 127.172 107.096 109.61 107.096 109.61C107.096 109.61 89.9851 122.731 89.5825 122.933C81.3292 130.604 65.225 136.054 46.1013 139.284C42.2766 137.265 38.2506 135.448 34.2245 134.035C37.0428 131.007 39.6597 127.778 41.874 123.942C46.504 115.666 48.9196 107.188 48.9196 98.7098C48.7183 95.6819 48.517 93.2595 48.3157 91.0391ZM75.6927 282.807C77.5044 289.064 79.5174 294.716 81.7318 299.561C76.9005 297.34 71.2641 295.322 65.0237 293.505C65.225 293.303 65.4263 293.101 65.6276 292.9C69.251 289.67 72.6732 286.238 75.6927 282.807ZM35.2311 305.011C23.9582 309.654 12.6853 312.076 1.41237 312.076C0.607162 312.076 -0.198044 312.076 -1.00325 312.076C-35.4258 311.067 -62.199 296.129 -80.1148 267.667C-87.7643 255.555 -91.9916 241.829 -92.5955 227.093C-93.8034 196.007 -81.5239 170.572 -56.1599 151.395C-42.2701 140.899 -26.5686 134.843 -9.45793 133.632C-6.4384 133.43 -3.62018 133.228 -0.801956 133.228C31.0037 133.228 56.9716 146.551 76.2966 172.793C78.5109 175.82 80.1213 178.647 81.5305 181.473C81.3292 181.473 81.3292 181.473 81.1279 181.473C79.5175 181.473 78.3096 182.684 77.1018 183.491C67.6407 189.345 59.3872 196.612 51.1339 204.283C39.861 214.578 29.9972 226.487 19.7308 237.792C16.3087 241.425 12.8866 245.26 9.06183 248.692C10.4709 246.472 12.0813 244.251 13.6918 242.031C20.9386 232.341 25.9712 221.239 31.4063 210.54C36.4389 200.851 42.2766 191.969 51.3352 185.308C51.7378 184.904 52.543 184.702 52.1404 183.895C51.7378 183.087 51.1339 183.289 50.53 183.491C45.0948 184.702 40.2636 187.327 35.835 190.354C29.7959 194.19 24.1595 198.833 18.7243 203.475C11.2761 209.935 4.63319 217 -1.60716 224.469C-7.84752 231.938 -12.6788 240.618 -18.7178 248.288C-25.7634 256.968 -34.0167 263.63 -45.0883 266.052C-53.9456 268.071 -61.7964 265.85 -68.0367 258.987C-70.0497 256.968 -71.6602 254.546 -72.4654 251.518C-63.0042 255.757 -53.543 256.161 -44.2831 252.729C-32.0037 248.087 -22.1399 240.618 -19.1204 226.891C-16.9061 216.394 -19.9256 207.109 -30.9972 203.072C-31.8024 202.668 -32.6076 202.264 -33.2115 201.457C-37.8415 194.795 -44.0818 191.767 -52.3352 191.767C-67.0302 191.767 -78.7057 201.86 -83.3357 214.174C-85.3487 219.422 -85.7513 224.873 -85.55 230.525C-85.3487 237.993 -82.5305 244.049 -76.6927 248.692C-75.6862 249.5 -74.881 250.509 -74.2771 251.922C-73.4719 254.344 -72.2641 256.565 -70.6537 258.583C-65.4198 265.447 -58.5755 269.282 -49.9196 268.878C-41.8675 268.474 -34.218 266.254 -26.7699 262.419C-14.4905 255.959 -4.02278 247.279 4.23059 236.177C9.26314 229.515 13.4905 222.248 18.1204 215.183C22.3477 208.724 26.5751 202.062 32.2115 196.814C36.2376 192.979 40.6662 189.345 46.1013 187.125C39.0558 193.786 33.0167 201.053 28.1855 209.531C22.3477 219.826 17.3152 230.525 10.8735 240.618C5.84099 248.692 1.00975 256.968 -6.4384 263.226C-6.63971 263.428 -6.841 263.428 -6.841 263.63C-7.04231 263.832 -7.24361 264.235 -7.0423 264.639C-6.841 265.043 -6.23709 265.043 -5.83449 265.043C-5.23059 264.841 -4.82799 264.639 -4.42538 264.235C-1.40587 261.611 1.81496 259.189 4.83449 256.565C15.1009 247.279 24.1595 236.782 33.4193 226.689C42.8805 216.193 52.7443 206.1 63.6146 196.814C66.2315 194.594 68.8484 192.575 71.6667 190.354C64.8224 197.42 58.1794 204.283 51.7378 211.55C42.8805 221.845 34.0233 232.14 28.1855 244.655C25.7699 249.5 24.3608 254.748 24.5621 260.198C24.7634 265.648 28.7894 268.273 33.8219 265.648C37.0428 264.034 39.4584 261.409 41.6727 258.583C42.0753 257.978 42.8805 257.17 42.0753 255.354C40.8675 256.565 40.0623 257.776 39.2571 258.785C37.2441 260.804 35.4324 262.822 32.6141 264.034C29.5946 265.245 27.7829 264.437 26.9777 261.207C26.7764 260.198 26.7764 258.987 26.9777 257.978C27.7829 254.344 29.192 250.913 31.0037 247.481C38.0493 234.562 46.9066 222.854 56.1664 211.55C63.4133 202.668 71.0628 193.988 79.5174 186.115C80.7253 185.106 82.3357 184.299 83.1409 182.886C86.7643 189.547 89.3812 196.814 91.1929 205.292C95.219 225.276 92.6021 244.655 83.3422 262.419C72.0693 281.999 56.1664 296.331 35.2311 305.011ZM2.21758 317.728C1.41237 319.545 0.808456 321.362 0.204559 322.977C-0.399353 321.16 -1.00325 319.545 -1.80846 317.728C-1.60716 317.728 -1.20456 317.728 -1.00325 317.728C0.00326538 317.93 1.00977 317.93 2.21758 317.728ZM-66.0237 293.505C-72.0628 295.12 -77.6992 297.139 -82.5304 299.561C-80.3161 294.716 -78.3031 289.064 -76.4914 282.807C-73.4719 286.642 -69.8484 290.275 -66.0237 293.505ZM-93.6021 191.767C-104.674 188.941 -114.537 182.684 -121.784 174.206C-120.979 174.206 -120.174 174.206 -119.369 174.206C-110.914 174.206 -102.459 177.032 -94.0047 182.482C-92.7968 183.289 -91.7903 184.097 -90.7838 184.904C-91.7903 186.923 -92.7968 189.345 -93.6021 191.767ZM-98.6346 219.826C-101.05 218.817 -103.466 217.807 -105.68 217C-103.265 216.193 -101.05 215.183 -98.6346 214.174V219.826ZM-94.0047 251.922C-102.258 257.372 -110.914 260.198 -119.167 260.198C-119.973 260.198 -120.576 260.198 -121.382 260.198C-114.739 252.527 -106.083 246.875 -96.219 243.646C-95.6151 246.27 -95.0112 249.096 -94.0047 251.922ZM-74.4784 160.075C-76.4914 150.588 -79.3096 141.908 -82.5304 134.843C-75.0823 138.476 -65.6211 141.302 -55.1534 143.321C-62.4003 147.964 -68.8419 153.616 -74.4784 160.075ZM-6.63971 127.576C-3.62018 121.924 -1.00327 116.473 0.808456 111.427C2.62016 116.675 5.0358 122.126 8.05533 127.576H-6.63971ZM63.6146 150.386C60.5951 147.762 57.3742 145.541 54.1534 143.523C64.6211 141.302 74.0823 138.476 81.5305 134.843C78.3096 141.908 75.4914 150.386 73.4784 160.075C70.4589 156.644 67.238 153.414 63.6146 150.386ZM-76.2901 246.472C-79.5109 244.251 -81.524 241.425 -82.7318 237.993C-86.3552 227.093 -84.3422 217 -77.6992 207.916C-74.2771 203.072 -69.8484 199.236 -64.212 197.218C-56.3612 194.19 -48.3092 193.382 -40.6597 198.025C-39.2506 198.833 -38.0428 199.842 -36.835 201.659C-49.1144 201.255 -59.3808 205.09 -67.0302 214.578C-74.6797 223.863 -77.6992 234.36 -76.2901 246.472ZM-53.9456 208.32C-48.5105 205.09 -42.2701 204.485 -36.0298 204.687C-34.4193 204.687 -34.0167 205.898 -33.6141 207.109C-31.8024 213.367 -32.8089 219.019 -36.0298 224.671C-38.6467 229.314 -42.4714 232.543 -47.504 234.158C-48.3092 234.36 -49.517 234.562 -49.1144 235.571C-48.9131 236.782 -47.7053 236.58 -46.6987 236.177C-40.4584 234.158 -36.0298 230.121 -33.2115 224.267C-30.5946 218.817 -29.7894 213.367 -31.1985 207.513C-31.3998 207.109 -31.6011 206.503 -31.1985 206.1C-30.7959 205.898 -30.192 206.1 -29.7894 206.301C-25.1595 208.926 -21.7373 212.559 -21.1334 218.009C-20.3282 226.084 -22.7438 233.351 -28.179 239.407C-36.0298 248.288 -46.0948 252.729 -57.7703 252.729C-58.3743 252.729 -58.7768 252.729 -59.3808 252.729C-63.6081 252.729 -67.6341 251.72 -71.6602 249.903C-73.4719 249.096 -74.2771 247.885 -74.4784 245.866C-76.0888 228.708 -68.0367 216.798 -53.9456 208.32ZM95.219 243.646C104.881 246.875 113.336 252.527 119.778 259.996C119.174 259.996 118.771 259.996 118.167 259.996C109.713 259.996 101.258 257.17 92.8033 251.72C93.2059 250.509 93.6086 249.096 94.0111 247.885C94.6151 246.472 95.0177 245.059 95.219 243.646ZM97.6346 214.578L97.4333 213.367C100.251 214.78 103.271 215.991 106.089 216.798C103.271 217.807 100.453 218.817 97.6346 220.23V214.578ZM89.5825 184.702C90.589 183.895 91.7968 183.087 92.8033 182.28C101.057 176.83 109.713 174.004 118.167 174.004C118.771 174.004 119.375 174.004 119.979 174.004C112.732 182.482 103.271 188.538 92.1995 191.566C91.5956 189.345 90.589 186.923 89.5825 184.702ZM42.4779 98.1042C42.4779 105.573 40.4649 113.042 36.2376 120.309C33.8219 124.548 30.8024 128.181 27.3803 131.411C25.9712 131.007 24.5621 130.604 23.153 130.402C25.166 116.473 32.2115 104.16 42.4779 95.6819C42.2766 96.2875 42.4779 97.0949 42.4779 98.1042ZM-0.600647 10.093C7.85402 20.9935 35.4324 58.5395 41.2701 87.8093C28.1855 97.4986 19.1269 112.033 16.7113 128.787C16.51 128.787 16.51 128.787 16.3087 128.787C8.65923 116.07 4.0293 103.756 4.0293 93.8651L0.607147 28.0586L-2.61368 93.8651C-2.61368 103.756 -7.24361 115.868 -14.6918 128.383C-15.8996 128.585 -17.1074 128.787 -18.5165 128.989C-20.9321 112.436 -29.7894 98.1042 -42.4714 88.4149C-36.835 59.1451 -9.05533 21.1954 -0.600647 10.093ZM-43.2766 95.8837C-33.4128 104.564 -26.5686 116.675 -24.7569 130.402C-25.9647 130.604 -26.9712 131.007 -28.179 131.411C-31.6011 128.383 -34.8219 124.548 -37.2376 120.309C-41.4649 113.042 -43.4779 105.573 -43.4779 98.1042C-43.4779 97.2967 -43.2766 96.6912 -43.2766 95.8837ZM-135.07 137.871C-135.07 107.188 -110.31 82.1572 -79.5109 82.1572C-68.238 82.1572 -57.7703 85.5888 -49.1144 91.2409C-49.3157 93.4614 -49.517 95.6819 -49.517 97.9023C-49.517 106.38 -47.1013 114.859 -42.4714 123.135C-40.2571 126.97 -37.8415 130.2 -34.8219 133.228C-39.0493 134.641 -43.0753 136.458 -46.9001 138.476C-66.225 135.247 -82.1279 129.796 -90.3812 122.126C-90.5825 121.722 -108.901 107.995 -108.901 107.995C-108.901 107.995 -95.2125 126.163 -94.8099 126.567C-87.7643 134.237 -82.7318 148.569 -79.3096 165.929C-81.5239 168.755 -83.537 171.783 -85.55 175.013C-86.3552 176.224 -86.9591 177.435 -87.563 178.647C-88.3682 178.041 -89.3747 177.233 -90.1799 176.83C-99.6411 170.774 -109.304 167.544 -118.966 167.544C-121.18 167.544 -123.596 167.746 -126.012 167.948C-131.849 159.47 -135.07 149.175 -135.07 137.871ZM-206.935 217C-196.065 208.522 -158.421 180.867 -129.232 175.013C-120.979 185.913 -109.102 194.19 -95.4138 197.823C-96.219 200.649 -96.8229 203.475 -97.2255 206.301C-106.687 210.944 -115.745 213.77 -123.395 213.77L-189.019 217L-122.791 220.432C-115.544 220.432 -107.291 222.854 -98.4333 227.093V230.928L-98.232 231.736C-98.232 232.14 -98.0307 232.341 -98.0307 232.745C-97.8294 234.36 -97.6281 235.773 -97.4268 237.388C-110.109 241.223 -120.979 248.894 -128.83 259.189C-158.22 253.335 -195.863 225.68 -206.935 217ZM-49.3157 342.961C-57.9716 348.815 -68.4393 352.045 -79.7122 352.045C-110.31 352.045 -135.272 327.216 -135.272 296.331C-135.272 285.027 -131.849 274.53 -126.213 265.85C-123.797 266.052 -121.583 266.254 -119.369 266.254C-110.109 266.254 -100.849 263.428 -91.7903 257.776C-90.7838 260.4 -89.576 262.822 -88.1669 265.245C-86.1539 269.08 -83.9396 272.714 -81.3226 276.347C-84.7448 290.477 -89.576 301.781 -95.8164 308.039L-108.901 325.803L-91.3877 312.48C-85.1474 306.222 -74.0758 301.378 -59.9847 298.148C-56.9651 300.368 -53.9456 302.387 -50.7248 304.204C-47.7053 306.02 -44.4844 307.434 -41.4649 308.847C-46.9001 317.728 -49.7183 326.812 -49.7183 335.896C-49.7183 338.318 -49.517 340.74 -49.3157 342.961ZM-43.4779 336.098C-43.4779 327.821 -40.861 319.545 -35.6272 311.471C-32.8089 312.48 -29.9907 313.489 -27.1725 314.297C-30.3933 323.784 -36.0298 332.06 -43.2766 338.52C-43.2766 337.713 -43.4779 336.905 -43.4779 336.098ZM-0.600647 424.109C-9.05533 413.007 -36.835 375.46 -42.4714 346.191C-32.6076 338.722 -24.9582 328.225 -20.9321 316.114C-17.1074 316.921 -13.0814 317.527 -9.25664 317.728C-5.4319 326.005 -3.41888 333.877 -3.41888 340.74L0.00326538 406.547L3.42538 340.74C3.42538 333.877 5.63969 326.005 9.46443 317.527C11.2762 317.325 13.0879 317.123 14.6983 316.921C16.1074 316.719 17.7178 316.517 19.1269 316.114C23.153 328.427 31.0037 339.126 41.2701 346.594C35.4324 375.662 7.85402 413.007 -0.600647 424.109ZM42.2766 339.126C34.6272 332.666 28.7894 324.188 25.3673 314.499C28.5881 313.691 31.6076 312.682 34.6272 311.673C39.6597 319.747 42.2766 328.023 42.2766 336.3C42.4779 337.107 42.2766 338.116 42.2766 339.126ZM133.466 296.533C133.466 327.216 108.706 352.045 77.907 352.045C67.0367 352.045 56.7703 348.815 48.1143 343.365C48.517 340.942 48.7183 338.52 48.7183 336.098C48.7183 327.014 45.9001 317.93 40.6662 309.048C47.1078 306.222 53.3482 302.589 59.1859 298.148C73.0758 301.58 83.9461 306.828 90.589 312.48C94.8164 316.114 108.505 325.601 108.505 325.601C108.505 325.601 98.6411 312.278 95.0177 308.039C89.1799 301.378 83.9461 290.477 80.524 276.347C84.55 270.493 87.9721 264.437 90.7903 257.776C99.8489 263.428 109.109 266.254 118.369 266.254C120.382 266.254 122.395 266.052 124.609 265.85C130.044 274.732 133.466 285.229 133.466 296.533ZM127.427 259.189C119.778 248.894 108.907 241.223 96.4268 237.388C96.6281 236.379 96.8294 235.369 97.0307 234.158C97.232 233.149 97.4333 231.938 97.6346 230.928V227.699C106.894 223.056 115.752 220.432 123.2 220.432L189.428 217.202L123.804 213.77C115.752 213.77 106.291 210.742 96.2255 205.494C95.8229 203.072 95.219 200.649 94.6151 198.429C94.6151 198.227 94.4138 198.025 94.4138 197.823C107.901 194.19 119.576 186.115 127.629 175.013C156.817 180.463 194.863 208.522 205.935 217C194.863 225.68 156.616 253.739 127.427 259.189Z" fill="#F7F5F4"/>
</svg>
