<svg width="255" height="96" viewBox="0 0 255 96" fill="none" xmlns="http://www.w3.org/2000/svg">
<path d="M139.238 36.0448C139.238 36.189 139.166 36.2612 139.094 36.3333C139.021 36.4054 138.949 36.4775 138.805 36.4775L135.551 36.3333L132.659 36.4775C132.369 36.4775 132.225 36.3332 132.225 36.1169C132.225 35.9006 132.297 35.7564 132.514 35.6843L133.02 35.6122C133.815 35.5401 134.249 35.1075 134.249 34.4585L134.032 20.7587C134.032 20.5423 133.96 20.4702 133.888 20.4702C133.815 20.4702 133.815 20.4702 133.743 20.5423L125.862 36.2612C125.789 36.4054 125.645 36.5496 125.5 36.5496C125.356 36.5496 125.283 36.4775 125.211 36.2612L117.33 21.0471C117.33 20.975 117.257 20.975 117.185 20.975C117.04 20.975 117.04 21.0471 117.04 21.2634L116.896 34.4585C116.896 35.1075 117.257 35.468 118.053 35.6122L118.559 35.6843C118.776 35.7564 118.92 35.8285 118.92 36.1169C118.92 36.4054 118.776 36.4775 118.487 36.4775L116.1 36.4053L113.281 36.4775C112.991 36.4775 112.847 36.3332 112.847 36.1169C112.847 35.9006 112.919 35.7564 113.136 35.6843L114.004 35.6122C114.871 35.5401 115.305 35.1075 115.305 34.4585L115.667 18.0187C115.667 17.3697 115.305 16.9371 114.51 16.865L114.004 16.7929C113.787 16.7208 113.642 16.6487 113.642 16.3603C113.642 16.144 113.787 15.9998 114.076 15.9998L116.607 16.0719C117.257 16.0719 117.691 16.2882 117.836 16.6487L126.006 32.8001L134.177 16.7208C134.322 16.3603 134.755 16.2161 135.478 16.144L138.082 16.0719C138.371 16.0719 138.515 16.2161 138.515 16.4324C138.515 16.6487 138.371 16.7929 138.154 16.865L137.648 16.9371C136.925 17.0092 136.491 17.3697 136.491 18.0908L136.852 34.5306C136.852 34.8912 136.997 35.1796 137.214 35.3238C137.431 35.468 137.792 35.6122 138.154 35.6843L139.021 35.7564C139.166 35.6843 139.238 35.8285 139.238 36.0448Z" fill="white"/>
<path d="M141.769 36.4774C141.48 36.4774 141.335 36.3332 141.335 36.1169C141.335 35.9006 141.408 35.7563 141.624 35.6842L142.131 35.6122C142.926 35.54 143.288 35.1074 143.288 34.4585V18.0187C143.288 17.2976 142.854 16.9371 141.986 16.865L141.118 16.7929C140.901 16.7208 140.829 16.6487 140.829 16.4324C140.829 16.144 140.974 15.9998 141.263 15.9998L144.517 16.144L147.409 15.9998C147.698 15.9998 147.843 16.144 147.843 16.3603C147.843 16.6487 147.698 16.7929 147.481 16.7929L146.975 16.865C146.18 17.0092 145.818 17.3697 145.818 18.0187V34.4585C145.818 34.819 145.963 35.1074 146.18 35.2516C146.397 35.4679 146.758 35.54 147.12 35.6122L147.987 35.6842C148.204 35.6842 148.349 35.8284 148.349 36.0448C148.349 36.189 148.277 36.2611 148.204 36.3332C148.132 36.4053 148.06 36.4774 147.915 36.4774L144.661 36.3332L141.769 36.4774Z" fill="white"/>
<path d="M164.256 31.1423C164.256 32.9449 163.605 34.3149 162.232 35.2523C160.858 36.1896 159.195 36.6944 157.242 36.6944C155.29 36.6944 153.699 36.478 152.47 35.9733C151.241 35.5407 150.59 35.0359 150.59 34.4591V31.0702C150.59 30.6376 150.735 30.4934 151.024 30.4934C151.241 30.4934 151.458 30.7097 151.53 31.0702C152.036 32.5844 152.687 33.666 153.483 34.387C154.278 35.108 155.435 35.4686 156.881 35.4686C158.327 35.4686 159.484 35.108 160.424 34.4591C161.292 33.8102 161.798 32.8728 161.798 31.7191C161.798 30.4212 161.075 29.4118 159.629 28.4744C158.978 28.1139 158.255 27.6813 157.532 27.3207C156.736 26.9602 156.013 26.5997 155.218 26.1671C154.423 25.8066 153.772 25.3739 153.121 24.8692C151.675 23.8597 150.952 22.4897 150.952 20.9034C150.952 19.3171 151.53 18.0193 152.76 17.0819C153.989 16.1445 155.435 15.7119 157.098 15.7119C158.761 15.7119 160.135 15.9282 161.364 16.3609C162.521 16.7935 163.099 17.2261 163.099 17.7308V20.615C163.099 20.9755 162.955 21.1919 162.665 21.1919C162.376 21.1919 162.159 20.9755 162.015 20.615C161.581 19.3892 161.075 18.4519 160.424 17.8751C159.773 17.2982 158.761 17.0098 157.459 17.0098C156.158 17.0098 155.146 17.2982 154.35 17.9471C153.627 18.5961 153.193 19.3171 153.193 20.2545C153.193 21.1919 153.555 21.985 154.35 22.6339C155.073 23.2829 156.013 23.8597 157.098 24.3645C158.182 24.8692 159.267 25.3739 160.279 25.9508C161.364 26.5276 162.232 27.1765 163.027 28.0418C163.895 28.9792 164.256 29.9886 164.256 31.1423Z" fill="white"/>
<path d="M187.756 35.6843C187.972 35.6843 188.045 35.8285 188.045 36.0448C188.045 36.3332 187.9 36.4053 187.611 36.4053L184.357 36.2612L181.537 36.4053C181.248 36.4053 181.103 36.2612 181.103 35.9727C181.103 35.7564 181.176 35.6122 181.393 35.6122L181.899 35.5401C182.694 35.468 183.056 35.0354 183.056 34.3864V27.2481C183.056 26.8876 182.911 26.6712 182.549 26.6712H172.065C171.92 26.6712 171.848 26.7433 171.704 26.8154C171.631 26.8875 171.559 27.0318 171.559 27.176V34.3143C171.559 35.0354 171.92 35.3959 172.716 35.468L173.222 35.5401C173.439 35.6122 173.584 35.6843 173.584 35.9006C173.584 36.0448 173.511 36.1169 173.439 36.189C173.367 36.2611 173.222 36.3333 173.15 36.3333L170.257 36.189L167.004 36.3333C166.714 36.3333 166.57 36.1891 166.57 35.9727C166.57 35.6843 166.642 35.6122 166.859 35.6122L167.727 35.5401C168.088 35.468 168.45 35.3959 168.667 35.1796C168.884 34.9633 169.028 34.6748 169.028 34.3864V17.9466C169.028 17.2255 168.594 16.865 167.727 16.7929L166.859 16.7208C166.642 16.7208 166.57 16.5766 166.57 16.3603C166.57 16.0719 166.714 15.9998 167.004 15.9998L170.257 16.144L173.15 15.9998C173.439 15.9998 173.584 16.144 173.584 16.3603C173.584 16.6487 173.439 16.7929 173.222 16.7929L172.716 16.865C171.92 17.0092 171.559 17.3697 171.559 18.0187V24.7965C171.559 25.157 171.776 25.3734 172.137 25.3734H182.622C182.983 25.3734 183.2 25.2291 183.2 24.8686V18.0187C183.2 17.3697 182.839 17.0092 182.043 16.865L181.537 16.7929C181.32 16.7208 181.248 16.6487 181.248 16.4324C181.248 16.144 181.393 15.9998 181.682 15.9998L184.502 16.144L187.756 15.9998C188.045 15.9998 188.189 16.144 188.189 16.3603C188.189 16.6487 188.117 16.7208 187.9 16.7208L187.032 16.7929C186.165 16.865 185.731 17.2255 185.731 17.9466V34.3864C185.731 35.1075 186.165 35.468 187.032 35.5401L187.756 35.6843Z" fill="white"/>
<path d="M190.72 36.4774C190.431 36.4774 190.286 36.3332 190.286 36.1169C190.286 35.9006 190.358 35.7563 190.575 35.6842L191.081 35.6122C191.877 35.54 192.238 35.1074 192.238 34.4585V18.0187C192.238 17.2976 191.804 16.9371 190.937 16.865L190.069 16.7929C189.852 16.7208 189.78 16.6487 189.78 16.4324C189.78 16.144 189.924 15.9998 190.214 15.9998L193.467 16.144L196.36 15.9998C196.649 15.9998 196.793 16.144 196.793 16.3603C196.793 16.6487 196.649 16.7929 196.432 16.7929L195.926 16.865C195.13 17.0092 194.769 17.3697 194.769 18.0187V34.4585C194.769 34.819 194.914 35.1074 195.13 35.2516C195.347 35.4679 195.709 35.54 196.07 35.6122L196.938 35.6842C197.155 35.6842 197.3 35.8284 197.3 36.0448C197.3 36.189 197.227 36.2611 197.155 36.3332C197.083 36.4053 197.01 36.4774 196.866 36.4774L193.612 36.3332L190.72 36.4774Z" fill="white"/>
<path d="M204.025 18.0186V33.6653C204.025 34.0979 204.169 34.3863 204.386 34.6026C204.676 34.8189 204.965 34.9631 205.399 34.9631H209.592C210.605 34.9631 211.472 34.7468 212.195 34.2421C212.918 33.7374 213.425 33.0163 213.714 32.079C213.786 31.7905 214.003 31.6463 214.292 31.6463C214.581 31.6463 214.726 31.7905 214.726 32.1511L214.292 35.1795C214.22 35.54 214.148 35.7563 213.858 35.9726C213.641 36.1889 213.352 36.3331 212.991 36.3331H202.723L199.469 36.4773C199.18 36.4773 199.036 36.3331 199.036 36.1168C199.036 35.9005 199.108 35.7563 199.325 35.7563L200.193 35.6842C200.554 35.6121 200.916 35.54 201.133 35.3237C201.349 35.1073 201.494 34.8189 201.494 34.5305V18.0907C201.494 17.3696 201.06 17.0091 200.193 16.937L199.325 16.8649C199.108 16.7928 199.036 16.7207 199.036 16.5044C199.036 16.216 199.18 16.0718 199.469 16.0718L202.723 16.216L205.615 16.0718C205.905 16.0718 206.049 16.216 206.049 16.4323C206.049 16.7207 205.905 16.8649 205.688 16.8649L205.182 16.937C204.386 17.0091 204.025 17.3697 204.025 18.0186Z" fill="white"/>
<path d="M230.778 36.334H219.932L216.678 36.4782C216.389 36.4782 216.244 36.334 216.244 36.1177C216.244 35.9014 216.316 35.7572 216.533 35.7572L217.401 35.6851C217.763 35.613 218.124 35.5409 218.341 35.3246C218.558 35.1082 218.703 34.8198 218.703 34.5314V18.0916C218.703 17.3705 218.269 17.01 217.401 16.9379L216.533 16.8658C216.316 16.8658 216.244 16.7216 216.244 16.5053C216.244 16.2169 216.389 16.1448 216.678 16.1448L219.932 16.289H230.199C230.561 16.289 230.85 16.4332 231.067 16.6495C231.284 16.8658 231.428 17.1542 231.501 17.4427L231.935 20.1105C232.007 20.471 231.862 20.6153 231.501 20.6153C231.212 20.6153 230.995 20.471 230.85 20.1826C230.561 19.2453 230.127 18.5963 229.548 18.2358C228.97 17.8753 228.175 17.659 227.162 17.659H222.607C222.173 17.659 221.812 17.8032 221.595 18.0195C221.306 18.2358 221.233 18.5963 221.233 19.029V25.0857C221.233 25.302 221.378 25.4463 221.595 25.4463H227.018C227.307 25.4463 227.524 25.3742 227.669 25.2299C227.813 25.0857 227.958 24.9415 227.958 24.8694C228.03 24.7252 228.102 24.5089 228.175 24.2205L228.319 23.86C228.392 23.6436 228.536 23.4994 228.753 23.4994C228.97 23.4994 229.115 23.6436 229.115 23.9321L228.97 26.3836L229.115 28.691C229.115 28.9073 228.97 29.0515 228.753 29.1236C228.536 29.1236 228.392 28.9794 228.319 28.7631L228.247 28.2583C228.102 27.2489 227.669 26.7441 227.09 26.7441H221.667C221.45 26.7441 221.306 26.8883 221.306 27.1768V33.8825C221.306 34.3151 221.45 34.6035 221.667 34.8198C221.956 35.0362 222.246 35.1804 222.679 35.1804H227.452C228.464 35.1804 229.332 34.964 230.055 34.4593C230.778 33.9546 231.284 33.2335 231.573 32.2962C231.645 32.0078 231.862 31.8636 232.079 31.8636C232.296 31.8636 232.441 31.9357 232.513 32.0078C232.585 32.0799 232.658 32.2241 232.585 32.3683L232.151 35.3967C232.079 35.7572 232.007 35.9735 231.718 36.1898C231.428 36.2619 231.139 36.334 230.778 36.334Z" fill="white"/>
<path d="M251.53 32.007V18.0187C251.53 17.3697 251.096 16.9371 250.228 16.865L249.361 16.7929C249.144 16.7208 249.072 16.6487 249.072 16.3603C249.072 16.0719 249.216 15.9998 249.505 15.9998L252.325 16.0719L254.567 15.9998C254.856 15.9998 255.001 16.144 255.001 16.3603C255.001 16.5766 254.856 16.7208 254.639 16.7929L254.133 16.865C253.338 17.0092 252.976 17.3697 252.976 18.0187V36.3332C252.976 36.5496 252.904 36.6938 252.687 36.6938H252.325C251.819 36.6938 251.458 36.4775 251.096 35.9727L238.876 20.3981C238.804 20.326 238.804 20.326 238.732 20.326C238.659 20.326 238.587 20.3981 238.587 20.6144V34.4585C238.587 35.1075 238.949 35.468 239.744 35.6122L240.25 35.6843C240.467 35.7564 240.612 35.8285 240.612 36.1169C240.612 36.4053 240.467 36.4774 240.178 36.4774L237.936 36.4053L235.116 36.4774C234.827 36.4774 234.683 36.3332 234.683 36.1169C234.683 35.9006 234.755 35.7564 234.972 35.6843L235.84 35.6122C236.707 35.5401 237.141 35.1075 237.141 34.4585V18.0187C237.141 17.3697 236.779 16.9371 235.984 16.865L235.478 16.7929C235.261 16.7208 235.116 16.6487 235.116 16.3603C235.116 16.144 235.261 15.9998 235.55 15.9998L237.864 16.0719C238.443 16.0719 238.876 16.2882 239.166 16.6487L251.241 32.0791C251.313 32.1512 251.385 32.1512 251.458 32.1512C251.458 32.2233 251.53 32.1512 251.53 32.007Z" fill="white"/>
<path d="M128.103 50.8986C127.886 50.5381 127.524 50.1776 127.09 49.9613C126.656 49.745 126.223 49.6008 125.644 49.6008H124.56C124.415 49.6008 124.27 49.6729 124.126 49.745C123.981 49.8171 123.981 49.9613 123.981 50.1776V56.4507C123.981 56.5949 124.053 56.7391 124.126 56.8833C124.27 56.9554 124.343 57.0275 124.56 57.0275H125.716C126.656 57.0275 127.38 56.7391 127.958 56.0901C128.536 55.4412 128.826 54.6481 128.826 53.5665C128.826 52.557 128.609 51.6918 128.103 50.8986ZM128.826 50.2497C129.621 50.9707 129.983 51.9802 129.983 53.206C129.983 54.4317 129.549 55.5133 128.753 56.3064C127.958 57.1717 126.946 57.6043 125.716 57.6043H123.62L122.101 57.6764C121.957 57.6764 121.957 57.6043 121.957 57.5322C121.957 57.388 122.029 57.388 122.101 57.388H122.463C122.607 57.388 122.752 57.3159 122.897 57.2438C122.969 57.1717 123.041 57.0275 123.041 56.8833V49.8892C123.041 49.6008 122.824 49.4566 122.463 49.3844L122.101 49.3124C122.029 49.3124 121.957 49.2402 121.957 49.1681C121.957 49.0239 122.029 49.0239 122.101 49.0239L123.62 49.096H125.716C127.018 49.096 128.03 49.4566 128.826 50.2497Z" fill="white"/>
<path d="M137.069 57.6042H132.514L131.14 57.6763C130.996 57.6763 130.996 57.6042 130.996 57.5321C130.996 57.3879 131.068 57.3879 131.14 57.3879H131.502C131.646 57.3879 131.791 57.3158 131.936 57.2437C132.008 57.1716 132.08 57.0274 132.08 56.8832V49.8891C132.08 49.6007 131.863 49.4565 131.502 49.3844H131.14C131.068 49.3844 130.996 49.3123 130.996 49.2402C130.996 49.096 131.068 49.0959 131.14 49.0959L132.514 49.1681H136.852C136.997 49.1681 137.142 49.2402 137.214 49.3123C137.286 49.3844 137.359 49.5286 137.359 49.6728L137.503 50.7544C137.503 50.8986 137.431 50.9707 137.359 50.9707C137.214 50.9707 137.142 50.8986 137.069 50.7544C136.925 50.3938 136.78 50.1054 136.491 49.9612C136.274 49.817 135.912 49.7449 135.479 49.7449H133.599C133.454 49.7449 133.309 49.817 133.165 49.8891C133.02 49.9612 133.02 50.1054 133.02 50.3217V52.8454C133.02 52.9175 133.092 52.9896 133.165 52.9896H135.406C135.551 52.9896 135.623 52.9896 135.696 52.9175C135.768 52.8454 135.768 52.7733 135.84 52.7733C135.84 52.7012 135.912 52.6291 135.912 52.4848L135.985 52.3406C135.985 52.2685 136.057 52.1964 136.202 52.1964C136.274 52.1964 136.346 52.2685 136.346 52.3406L136.274 53.3501L136.346 54.3596C136.346 54.4317 136.274 54.5038 136.202 54.5759C136.129 54.5759 136.057 54.5038 136.057 54.4316V54.2153C135.985 53.7827 135.84 53.5664 135.551 53.5664H133.309C133.237 53.5664 133.165 53.6385 133.165 53.7106V56.5227C133.165 56.6669 133.237 56.8111 133.309 56.9553C133.454 57.0274 133.526 57.0995 133.743 57.0995H135.768C136.202 57.0995 136.563 57.0274 136.852 56.8111C137.142 56.5948 137.359 56.3064 137.503 55.8737C137.575 55.7295 137.575 55.6574 137.72 55.6574C137.792 55.6574 137.865 55.6574 137.937 55.7295C137.937 55.8016 138.009 55.8016 138.009 55.8737L137.792 57.1716C137.792 57.3158 137.72 57.3879 137.648 57.5321C137.359 57.5321 137.214 57.6042 137.069 57.6042Z" fill="white"/>
<path d="M142.637 49.9613V56.7391C142.637 56.8833 142.709 57.0275 142.781 57.0996C142.854 57.1717 142.998 57.2439 143.143 57.2439H143.504C143.577 57.2439 143.649 57.3159 143.649 57.388C143.649 57.4602 143.649 57.4602 143.577 57.5323C143.577 57.5323 143.504 57.6044 143.432 57.6044L142.058 57.5323L140.54 57.6044C140.468 57.6044 140.468 57.6044 140.395 57.5323C140.395 57.5323 140.323 57.4602 140.323 57.388C140.323 57.3159 140.395 57.2439 140.468 57.2439H140.901C141.046 57.2439 141.191 57.1717 141.263 57.0996C141.335 57.0275 141.408 56.8833 141.408 56.7391V49.9613C141.408 49.745 141.335 49.6008 141.118 49.6008H140.106C139.745 49.6008 139.383 49.745 139.166 49.8892C138.949 50.1055 138.732 50.3939 138.66 50.8265C138.588 50.9707 138.515 51.0429 138.443 51.0429C138.371 51.0429 138.298 51.0429 138.226 50.9708C138.154 50.8987 138.154 50.8986 138.154 50.8265L138.226 49.2403C138.226 49.096 138.298 49.0239 138.515 49.0239H145.24C145.384 49.0239 145.529 49.096 145.529 49.3124L145.674 50.8265C145.674 50.8986 145.674 50.9708 145.601 50.9708C145.529 51.0429 145.529 51.0429 145.384 51.0429C145.312 51.0429 145.24 50.9707 145.168 50.8265C145.023 50.3939 144.806 50.1055 144.589 49.8892C144.372 49.6729 144.083 49.6008 143.649 49.6008H142.926C142.709 49.6729 142.637 49.745 142.637 49.9613Z" fill="white"/>
<path d="M153.194 50.8985C152.977 50.4658 152.615 50.1774 152.254 49.889C151.82 49.6727 151.386 49.5285 150.808 49.5285C149.795 49.5285 149.072 49.8169 148.494 50.4658C147.915 51.1148 147.698 51.9079 147.698 52.9174C147.698 53.999 147.915 54.9363 148.422 55.8016C148.638 56.2342 149 56.5947 149.434 56.811C149.868 57.0994 150.374 57.1715 150.88 57.1715C151.82 57.1715 152.615 56.8831 153.121 56.2342C153.628 55.5852 153.917 54.72 153.917 53.7105C153.844 52.629 153.628 51.6916 153.194 50.8985ZM150.735 48.9517C152.037 48.9517 153.049 49.3843 153.844 50.1774C154.64 50.9706 155.001 52.0521 155.001 53.35C155.001 54.6479 154.64 55.6574 153.844 56.5226C153.049 57.3879 152.037 57.7484 150.735 57.7484C149.506 57.7484 148.422 57.3158 147.626 56.5226C146.831 55.7295 146.469 54.6479 146.469 53.35C146.469 52.0521 146.831 51.0427 147.626 50.1774C148.422 49.3122 149.506 48.9517 150.735 48.9517Z" fill="white"/>
<path d="M157.821 57.3159C157.894 57.3159 157.966 57.3881 157.966 57.4602C157.966 57.5323 157.894 57.6044 157.749 57.6044H156.809H155.507C155.363 57.6044 155.363 57.5323 155.363 57.4602C155.363 57.3881 155.435 57.3159 155.507 57.3159L155.869 57.2439C156.086 57.2439 156.375 57.0275 156.592 56.7391L158.906 53.4223L156.592 49.8892C156.375 49.6008 156.158 49.4566 155.869 49.3844H155.507C155.435 49.3844 155.363 49.3124 155.363 49.2403C155.363 49.1681 155.435 49.096 155.507 49.096L156.954 49.1681H158.183C158.327 49.1681 158.4 49.2403 158.4 49.3124C158.4 49.3845 158.327 49.4566 158.255 49.4566H158.038C157.894 49.4566 157.821 49.5287 157.749 49.6008C157.677 49.6729 157.677 49.8171 157.749 49.8892L159.484 52.5571L161.364 49.8892C161.437 49.8171 161.437 49.6729 161.364 49.6008C161.292 49.5287 161.22 49.4566 161.075 49.3844H160.858C160.786 49.3844 160.713 49.3124 160.713 49.2403C160.713 49.1681 160.786 49.096 160.93 49.096H161.87L163.172 49.0239C163.316 49.0239 163.316 49.096 163.316 49.1681C163.316 49.2402 163.244 49.3124 163.172 49.3124H162.81C162.593 49.3124 162.304 49.5287 162.087 49.8171L159.846 52.9897L162.304 56.667C162.521 56.9554 162.738 57.0996 163.027 57.1717L163.389 57.2439C163.461 57.2439 163.533 57.3159 163.533 57.388C163.533 57.4602 163.461 57.5323 163.389 57.5323H161.943H160.641C160.497 57.5323 160.424 57.4602 160.424 57.388C160.424 57.3159 160.497 57.2439 160.569 57.2439H160.786C160.93 57.2439 161.003 57.1717 161.075 57.0996C161.147 57.0275 161.147 56.8833 161.075 56.8112L159.195 53.9992L157.243 56.8112C157.17 56.8833 157.17 57.0275 157.17 57.0996C157.243 57.1717 157.315 57.2439 157.46 57.2439L157.821 57.3159Z" fill="white"/>
<path d="M169.39 50.6101C169.39 51.1869 169.607 51.7637 170.041 52.5569C170.62 52.2685 170.981 51.98 171.27 51.7637C171.56 51.5474 171.704 51.4032 171.777 51.1869C171.849 51.0427 171.921 50.7543 171.921 50.5379C171.921 50.2495 171.777 50.0332 171.56 49.8169C171.343 49.6006 171.053 49.5285 170.692 49.5285C170.33 49.5285 170.041 49.6006 169.824 49.8169C169.535 50.0332 169.39 50.2495 169.39 50.6101ZM168.306 55.3689C168.306 55.8737 168.45 56.3063 168.812 56.6668C169.173 57.0273 169.535 57.1715 170.041 57.1715C170.837 57.1715 171.487 56.8831 171.921 56.3063C170.837 55.2968 170.041 54.3595 169.463 53.4942C168.74 53.999 168.306 54.6479 168.306 55.3689ZM172.716 50.6101C172.716 50.8985 172.644 51.1148 172.572 51.259C172.5 51.4032 172.427 51.5474 172.355 51.6195C172.283 51.6916 172.21 51.7637 172.066 51.9079C171.921 51.98 171.849 52.1242 171.777 52.1242C171.704 52.1964 171.632 52.2684 171.415 52.3406C171.198 52.4127 171.126 52.4848 171.053 52.5569C170.981 52.629 170.692 52.7732 170.258 52.9895C170.764 53.7105 171.487 54.5758 172.427 55.441C172.644 55.0805 172.789 54.5037 172.933 53.8547C172.933 53.7826 172.933 53.7105 172.933 53.6384C172.933 53.4221 172.861 53.35 172.644 53.35H172.21C172.138 53.35 172.066 53.2779 172.066 53.2058C172.066 53.0616 172.138 53.0616 172.283 53.0616H173.367H174.38C174.524 53.0616 174.524 53.1337 174.524 53.2058C174.524 53.2779 174.452 53.35 174.38 53.35L174.163 53.4221C173.946 53.4221 173.801 53.4942 173.729 53.5663C173.584 53.6384 173.512 53.7826 173.512 53.9269C173.295 54.7921 173.078 55.441 172.861 55.8737C173.223 56.2342 173.584 56.5226 173.946 56.811C174.307 57.0994 174.596 57.3157 174.813 57.3157H175.03C175.103 57.3157 175.175 57.3879 175.175 57.46C175.175 57.5321 175.103 57.6042 175.03 57.6042C174.235 57.6042 173.801 57.5321 173.584 57.5321C173.44 57.5321 173.223 57.46 173.078 57.3157C172.789 57.0273 172.5 56.811 172.355 56.6668C171.777 57.3879 170.909 57.7484 169.897 57.7484C169.101 57.7484 168.45 57.5321 167.944 57.1715C167.438 56.7389 167.149 56.2342 167.149 55.6574C167.149 55.0805 167.294 54.5758 167.655 54.1432C168.017 53.7826 168.523 53.35 169.101 52.9895C168.595 52.1963 168.378 51.4753 168.378 50.8985C168.378 50.3216 168.595 49.8169 168.957 49.4564C169.318 49.0959 169.897 48.9517 170.475 48.9517C171.126 48.9517 171.632 49.0959 171.993 49.3843C172.572 49.7448 172.716 50.1774 172.716 50.6101Z" fill="white"/>
<path d="M181.971 57.7486C181.826 57.7486 181.754 57.6765 181.682 57.6044L179.079 49.8892C179.006 49.6008 178.717 49.4566 178.356 49.3844H178.066C178.066 49.3844 177.994 49.3845 177.994 49.3124V49.2403C177.994 49.096 178.066 49.0239 178.139 49.0239L179.368 49.096L180.742 49.0239C180.886 49.0239 180.886 49.096 180.886 49.1681C180.886 49.3124 180.814 49.3123 180.742 49.3844H180.453C180.308 49.3844 180.236 49.4566 180.163 49.5287C180.091 49.6008 180.091 49.745 180.163 49.8892L182.188 55.9459L184.429 49.1681C184.429 49.096 184.574 49.0239 184.719 49.0239C184.863 49.0239 184.936 49.096 185.008 49.1681L187.249 55.9459L189.274 49.8892C189.346 49.745 189.274 49.6729 189.274 49.5287C189.202 49.4566 189.129 49.3844 188.985 49.3844H188.695C188.623 49.3844 188.551 49.3124 188.551 49.2403C188.551 49.096 188.623 49.096 188.768 49.096L189.852 49.1681L190.937 49.096C191.082 49.096 191.082 49.1681 191.082 49.2403C191.082 49.3845 191.009 49.3844 190.937 49.3844H190.72C190.359 49.4566 190.142 49.6008 189.997 49.8892L187.322 57.6044C187.322 57.6765 187.177 57.7486 187.032 57.7486C186.888 57.7486 186.816 57.6765 186.743 57.6044L184.502 50.9708L182.26 57.6044C182.188 57.6765 182.116 57.7486 181.971 57.7486Z" fill="white"/>
<path d="M197.373 57.6042H192.817L191.443 57.6763C191.299 57.6763 191.299 57.6042 191.299 57.5321C191.299 57.3879 191.371 57.3879 191.443 57.3879H191.805C191.95 57.3879 192.094 57.3158 192.239 57.2437C192.311 57.1716 192.383 57.0274 192.383 56.8832V49.8891C192.383 49.6007 192.167 49.4565 191.805 49.3844H191.443C191.371 49.3844 191.299 49.3123 191.299 49.2402C191.299 49.096 191.371 49.0959 191.443 49.0959L192.817 49.1681H197.156C197.3 49.1681 197.445 49.2402 197.517 49.3123C197.589 49.3844 197.662 49.5286 197.662 49.6728L197.806 50.7544C197.806 50.8986 197.734 50.9707 197.662 50.9707C197.517 50.9707 197.445 50.8986 197.373 50.7544C197.228 50.3938 197.083 50.1054 196.794 49.9612C196.577 49.817 196.216 49.7449 195.782 49.7449H193.902C193.757 49.7449 193.613 49.817 193.468 49.8891C193.323 49.9612 193.323 50.1054 193.323 50.3217V52.8454C193.323 52.9175 193.396 52.9896 193.468 52.9896H195.71C195.854 52.9896 195.926 52.9896 195.999 52.9175C196.071 52.8454 196.071 52.7733 196.143 52.7733C196.143 52.7012 196.216 52.6291 196.216 52.4848L196.288 52.3406C196.288 52.2685 196.36 52.1964 196.505 52.1964C196.577 52.1964 196.649 52.2685 196.649 52.3406L196.577 53.3501L196.649 54.3596C196.649 54.4317 196.577 54.5038 196.505 54.5759C196.433 54.5759 196.36 54.5038 196.36 54.4316L196.288 54.2153C196.216 53.7827 196.071 53.5664 195.782 53.5664H193.54C193.468 53.5664 193.396 53.6385 193.396 53.7106V56.5227C193.396 56.6669 193.468 56.8111 193.54 56.9553C193.685 57.0274 193.83 57.0995 193.974 57.0995H195.999C196.433 57.0995 196.794 57.0274 197.083 56.8111C197.373 56.5948 197.589 56.3064 197.734 55.8737C197.806 55.7295 197.806 55.6574 197.951 55.6574C198.023 55.6574 198.096 55.6574 198.168 55.7295C198.168 55.8016 198.24 55.8016 198.24 55.8737L197.879 57.0995C197.879 57.2437 197.806 57.3158 197.734 57.46C197.662 57.5321 197.517 57.6042 197.373 57.6042Z" fill="white"/>
<path d="M201.06 49.8892V56.4507C201.06 56.5949 201.132 56.7391 201.204 56.8833C201.349 56.9554 201.421 57.0275 201.638 57.0275H203.374C203.807 57.0275 204.169 56.9554 204.458 56.7391C204.747 56.5228 204.964 56.2344 205.109 55.8017C205.181 55.6575 205.254 55.5854 205.398 55.5854C205.543 55.5854 205.615 55.6575 205.543 55.8017L205.326 57.0996C205.326 57.2438 205.254 57.3159 205.181 57.4601C205.109 57.5322 204.964 57.6043 204.82 57.6043H200.481L199.108 57.6764C198.963 57.6764 198.963 57.6043 198.963 57.5322C198.963 57.388 199.035 57.388 199.108 57.388H199.469C199.614 57.388 199.758 57.3159 199.903 57.2438C199.975 57.1717 200.047 57.0275 200.047 56.8833V49.8892C200.047 49.6008 199.831 49.4566 199.469 49.3844L199.108 49.3124C199.035 49.3124 198.963 49.2402 198.963 49.1681C198.963 49.0239 199.035 49.0239 199.108 49.0239L200.481 49.096L201.711 49.0239C201.855 49.0239 201.927 49.096 201.927 49.1681C201.927 49.3124 201.855 49.3123 201.783 49.3844L201.566 49.4566C201.204 49.4566 201.06 49.6729 201.06 49.8892Z" fill="white"/>
<path d="M208.29 49.8892V56.4507C208.29 56.5949 208.363 56.7391 208.435 56.8833C208.579 56.9554 208.652 57.0275 208.869 57.0275H210.604C211.038 57.0275 211.399 56.9554 211.689 56.7391C211.978 56.5228 212.195 56.2344 212.339 55.8017C212.412 55.6575 212.484 55.5854 212.629 55.5854C212.773 55.5854 212.846 55.6575 212.773 55.8017L212.556 57.0996C212.556 57.2438 212.484 57.3159 212.412 57.4601C212.339 57.6043 212.195 57.6043 212.05 57.6043H207.712L206.338 57.6764C206.193 57.6764 206.193 57.6043 206.193 57.5322C206.193 57.388 206.266 57.388 206.338 57.388H206.699C206.844 57.388 206.989 57.3159 207.133 57.2438C207.206 57.1717 207.278 57.0275 207.278 56.8833V49.8892C207.278 49.6008 207.061 49.4566 206.699 49.3844L206.338 49.3124C206.266 49.3124 206.193 49.2402 206.193 49.1681C206.193 49.0239 206.266 49.0239 206.338 49.0239L207.712 49.096L208.941 49.0239C209.086 49.0239 209.158 49.096 209.158 49.1681C209.158 49.3124 209.086 49.3123 209.013 49.3844L208.796 49.4566C208.435 49.4566 208.29 49.6729 208.29 49.8892Z" fill="white"/>
<path d="M220.51 55.8017V49.8891C220.51 49.6007 220.293 49.4565 219.932 49.3844H219.57C219.498 49.3844 219.426 49.3123 219.426 49.2402C219.426 49.1681 219.498 49.0959 219.57 49.0959H220.727H221.667C221.812 49.0959 221.884 49.1681 221.884 49.2402C221.884 49.3123 221.812 49.3844 221.74 49.3844H221.523C221.233 49.4565 221.016 49.6007 221.016 49.8891V57.6043C221.016 57.6764 220.944 57.7485 220.872 57.7485H220.727C220.51 57.7485 220.366 57.6764 220.221 57.46L215.087 50.8986H215.015C215.015 50.8986 214.943 50.9707 214.943 51.0428V56.8111C214.943 57.0995 215.087 57.2437 215.449 57.3158H215.666C215.738 57.3158 215.81 57.3879 215.81 57.46C215.81 57.5322 215.738 57.6043 215.594 57.6043L214.654 57.5322L213.497 57.6043C213.352 57.6043 213.352 57.5322 213.352 57.46C213.352 57.3879 213.424 57.3158 213.497 57.3158H213.858C214.22 57.2437 214.437 57.0995 214.437 56.8111V49.8891C214.437 49.6007 214.292 49.4565 213.93 49.3844H213.714C213.641 49.3844 213.569 49.3123 213.569 49.2402C213.569 49.1681 213.641 49.0959 213.786 49.0959H214.726C214.943 49.0959 215.16 49.1681 215.232 49.3123L220.293 55.8017H220.366C220.51 55.8738 220.51 55.8738 220.51 55.8017Z" fill="white"/>
<path d="M228.826 57.6042H224.271L222.897 57.6763C222.752 57.6763 222.752 57.6042 222.752 57.5321C222.752 57.3879 222.825 57.3879 222.897 57.3879H223.259C223.403 57.3879 223.548 57.3158 223.692 57.2437C223.765 57.1716 223.837 57.0274 223.837 56.8832V49.8891C223.837 49.6007 223.62 49.4565 223.259 49.3844H222.897C222.825 49.3844 222.752 49.3123 222.752 49.2402C222.752 49.096 222.825 49.0959 222.897 49.0959L224.271 49.1681H228.609C228.754 49.1681 228.898 49.2402 228.971 49.3123C229.043 49.3844 229.115 49.5286 229.115 49.6728L229.26 50.7544C229.26 50.8986 229.188 50.9707 229.115 50.9707C228.971 50.9707 228.898 50.8986 228.826 50.7544C228.682 50.3938 228.537 50.1054 228.248 49.9612C228.031 49.817 227.669 49.7449 227.235 49.7449H225.355C225.211 49.7449 225.066 49.817 224.922 49.8891C224.777 49.9612 224.777 50.1054 224.777 50.3217V52.8454C224.777 52.9175 224.849 52.9896 224.922 52.9896H227.163C227.308 52.9896 227.38 52.9896 227.452 52.9175C227.525 52.8454 227.525 52.7733 227.597 52.7733C227.597 52.7012 227.669 52.6291 227.669 52.4848L227.742 52.3406C227.742 52.2685 227.814 52.1964 227.958 52.1964C228.031 52.1964 228.103 52.2685 228.103 52.3406L228.031 53.3501L228.103 54.3596C228.103 54.4317 228.031 54.5038 227.958 54.5759C227.886 54.5759 227.814 54.5038 227.814 54.4316V54.2153C227.742 53.7827 227.597 53.5664 227.308 53.5664H225.066C224.994 53.5664 224.922 53.6385 224.922 53.7106V56.5227C224.922 56.6669 224.994 56.8111 225.066 56.9553C225.211 57.0274 225.283 57.0995 225.5 57.0995H227.525C227.958 57.0995 228.32 57.0274 228.609 56.8111C228.898 56.5948 229.115 56.3064 229.26 55.8737C229.332 55.7295 229.332 55.6574 229.477 55.6574C229.549 55.6574 229.622 55.6574 229.694 55.7295C229.694 55.8016 229.766 55.8016 229.766 55.8737L229.549 57.1716C229.549 57.3158 229.477 57.3879 229.405 57.5321C229.115 57.5321 228.971 57.6042 228.826 57.6042Z" fill="white"/>
<path d="M236.418 55.442C236.418 56.2351 236.129 56.812 235.55 57.1725C234.972 57.533 234.249 57.7493 233.453 57.7493C232.658 57.7493 231.935 57.6772 231.429 57.4609C230.923 57.2446 230.633 57.0283 230.633 56.812V55.3699C230.633 55.2257 230.706 55.0815 230.85 55.0815C230.923 55.0815 230.995 55.1536 231.067 55.2978C231.284 55.9467 231.573 56.3793 231.863 56.6678C232.224 56.9562 232.658 57.1004 233.309 57.1004C233.959 57.1004 234.393 56.9562 234.755 56.6678C235.116 56.3793 235.333 56.0188 235.333 55.5141C235.333 55.0093 235.044 54.5046 234.466 54.1441C234.176 53.9999 233.887 53.8557 233.598 53.6394C233.309 53.4952 232.947 53.3509 232.658 53.1346C232.296 52.9904 232.007 52.7741 231.79 52.6299C231.212 52.1973 230.923 51.6204 230.923 50.9715C230.923 50.3225 231.212 49.7457 231.718 49.3852C232.224 49.0247 232.875 48.8083 233.526 48.8083C234.249 48.8083 234.827 48.8804 235.333 49.0968C235.839 49.241 236.056 49.4573 236.056 49.6736V50.8994C236.056 51.0436 235.984 51.1157 235.912 51.1157C235.767 51.1157 235.695 51.0436 235.622 50.8994C235.478 50.3946 235.261 49.962 234.972 49.7457C234.682 49.5294 234.249 49.3852 233.742 49.3852C233.164 49.3852 232.73 49.5294 232.441 49.7457C232.152 50.0341 231.935 50.3226 231.935 50.6831C231.935 51.0436 232.079 51.4041 232.441 51.6925C232.73 51.981 233.164 52.1973 233.598 52.4136C234.032 52.6299 234.466 52.8462 234.972 53.0625C235.405 53.2788 235.839 53.5673 236.129 53.9278C236.273 54.5046 236.418 54.9373 236.418 55.442Z" fill="white"/>
<path d="M243.359 55.442C243.359 56.2351 243.07 56.812 242.492 57.1725C241.913 57.533 241.19 57.7493 240.395 57.7493C239.599 57.7493 238.876 57.6772 238.37 57.4609C237.864 57.2446 237.575 57.0283 237.575 56.812V55.3699C237.575 55.2257 237.647 55.0815 237.792 55.0815C237.864 55.0815 237.936 55.1536 238.009 55.2978C238.225 55.9467 238.515 56.3793 238.804 56.6678C239.165 56.9562 239.599 57.1004 240.25 57.1004C240.901 57.1004 241.335 56.9562 241.696 56.6678C242.058 56.3793 242.275 56.0188 242.275 55.5141C242.275 55.0093 241.985 54.5046 241.407 54.1441C241.118 53.9999 240.828 53.8557 240.539 53.6394C240.25 53.4952 239.889 53.3509 239.599 53.1346C239.238 52.9904 238.949 52.7741 238.732 52.6299C238.153 52.1973 237.864 51.6204 237.864 50.9715C237.864 50.3225 238.153 49.7457 238.659 49.3852C239.165 49.0247 239.816 48.8083 240.467 48.8083C241.19 48.8083 241.768 48.8804 242.275 49.0968C242.781 49.241 242.998 49.4573 242.998 49.6736V50.8994C242.998 51.0436 242.925 51.1157 242.853 51.1157C242.708 51.1157 242.636 51.0436 242.564 50.8994C242.419 50.3946 242.202 49.962 241.913 49.7457C241.624 49.5294 241.19 49.3852 240.684 49.3852C240.105 49.3852 239.672 49.5294 239.382 49.7457C239.093 50.0341 238.876 50.3226 238.876 50.6831C238.876 51.0436 239.021 51.4041 239.382 51.6925C239.672 51.981 240.105 52.1973 240.539 52.4136C240.973 52.6299 241.407 52.8462 241.913 53.0625C242.347 53.2788 242.781 53.5673 243.07 53.9278C243.215 54.5046 243.359 54.9373 243.359 55.442Z" fill="white"/>
<path d="M175.898 42.03C173.367 42.1021 170.764 42.1021 168.233 42.1742C163.099 42.2463 158.038 42.3905 152.904 42.679C158.038 42.9674 163.099 43.1116 168.233 43.1837C170.764 43.2558 173.367 43.2558 175.898 43.3279L183.562 43.4H191.227C193.757 43.4 196.36 43.3279 198.891 43.2558C204.025 43.1837 209.086 43.0395 214.22 42.7511C209.086 42.4627 204.025 42.3184 198.891 42.2463C196.36 42.1742 193.757 42.1742 191.227 42.1021H183.562L175.898 42.03Z" fill="url(#paint0_linear)"/>
<path d="M95.4739 47.737L94.8081 47.2041C94.3643 46.8488 84.6882 38.9889 76.8319 37.257C78.0303 35.2143 78.6961 32.8608 78.6961 30.3296C78.6961 22.7805 72.5708 16.6968 65.0252 16.6968C62.5396 16.6968 60.1872 17.3629 58.1898 18.5175C56.37 10.702 48.6469 1.11016 48.2918 0.666097L47.7148 0L47.1821 0.666097C46.8271 1.11016 39.0152 10.7908 37.2397 18.6063C35.198 17.4073 32.8011 16.6968 30.2711 16.6968C22.7255 16.6968 16.6447 22.8249 16.6447 30.3296C16.6447 32.8608 17.3549 35.2143 18.5533 37.257C10.7414 39.0777 1.15403 46.8044 0.710173 47.2041L0 47.737L0.665788 48.2698C1.10965 48.6251 10.7414 56.3962 18.5533 58.2169C17.3105 60.2596 16.6003 62.6575 16.6003 65.1887C16.6003 72.7378 22.7255 78.8215 30.2268 78.8215C32.8011 78.8215 35.1536 78.111 37.2397 76.912C39.0595 84.7276 46.7827 94.3638 47.1821 94.8078L47.7148 95.4739L48.2474 94.8078C48.6025 94.3638 56.3256 84.8164 58.1454 77.0008C60.1428 78.1554 62.4953 78.8659 64.9809 78.8659C72.5265 78.8659 78.6517 72.7378 78.6517 65.2331C78.6517 62.702 77.9415 60.304 76.7431 58.2613C84.5994 56.5294 94.3199 48.6695 94.7638 48.2698L95.4739 47.737ZM58.5005 20.0273C60.4091 18.8283 62.6284 18.1178 65.0252 18.1178C71.7719 18.1178 77.2757 23.5798 77.2757 30.374C77.2757 32.8164 76.5656 35.0811 75.3228 37.035C74.8345 36.9906 74.3907 36.9462 73.9468 36.9462C71.8163 36.9462 69.6858 37.6123 67.5996 38.9889C67.3777 39.1221 67.2002 39.2553 67.0226 39.433C66.49 38.456 65.913 37.5235 65.2028 36.6353C65.913 32.8164 67.067 29.7079 68.5761 28.0205C68.6205 27.9761 71.4612 24.1127 71.4612 24.1127C71.4612 24.1127 67.6884 26.9991 67.5996 27.0435C65.7798 28.731 62.2289 29.93 58.0123 30.6405C57.169 30.1964 56.2812 29.7968 55.3935 29.4859C56.0149 28.8198 56.5919 28.1093 57.0802 27.2656C58.1011 25.4449 58.6337 23.5798 58.6337 21.7148C58.5893 21.0487 58.5449 20.5158 58.5005 20.0273ZM64.537 62.2135C64.9365 63.5901 65.3803 64.8335 65.8686 65.8992C64.8033 65.4107 63.5605 64.9667 62.1846 64.567C62.2289 64.5226 62.2733 64.4782 62.3177 64.4338C63.1167 63.7233 63.8712 62.9684 64.537 62.2135ZM55.6155 67.0982C53.1298 68.1195 50.6442 68.6524 48.1586 68.6524C47.9811 68.6524 47.8035 68.6524 47.626 68.6524C40.036 68.4304 34.1327 65.1443 30.1824 58.883C28.4957 56.2186 27.5636 53.199 27.4304 49.9573C27.1641 43.1187 29.8717 37.5235 35.4643 33.3049C38.5269 30.9957 41.989 29.6635 45.7618 29.3971C46.4276 29.3527 47.049 29.3083 47.6704 29.3083C54.6833 29.3083 60.4091 32.2391 64.6702 38.0119C65.1584 38.678 65.5135 39.2997 65.8242 39.9214C65.7798 39.9214 65.7798 39.9214 65.7354 39.9214C65.3803 39.9214 65.114 40.1879 64.8477 40.3655C62.7616 41.6533 60.9417 43.2519 59.1219 44.9394C56.6363 47.2041 54.4614 49.8241 52.1977 52.3108C51.4432 53.1102 50.6886 53.9539 49.8453 54.7088C50.156 54.2203 50.5111 53.7318 50.8662 53.2434C52.4641 51.1119 53.5737 48.6695 54.7721 46.316C55.8818 44.1845 57.169 42.2306 59.1663 40.7652C59.2551 40.6763 59.4326 40.6319 59.3439 40.4543C59.2551 40.2767 59.1219 40.3211 58.9888 40.3655C57.7904 40.6319 56.7251 41.2092 55.7486 41.8753C54.417 42.719 53.1742 43.7404 51.9758 44.7617C50.3335 46.1827 48.8688 47.737 47.4928 49.38C46.1169 51.023 45.0516 52.9325 43.72 54.62C42.1665 56.5295 40.3467 57.9949 37.9055 58.5277C35.9525 58.9718 34.2215 58.4833 32.8455 56.9735C32.4017 56.5295 32.0466 55.9966 31.869 55.3305C33.9552 56.263 36.0413 56.3518 38.083 55.5969C40.7906 54.5756 42.9655 52.9325 43.6313 49.9129C44.1195 47.6037 43.4537 45.5611 41.0125 44.6729C40.835 44.5841 40.6574 44.4953 40.5243 44.3177C39.5034 42.8523 38.1274 42.1862 36.3076 42.1862C33.0674 42.1862 30.4931 44.4065 29.4722 47.1153C29.0283 48.2698 28.9396 49.4688 28.984 50.7122C29.0283 52.3552 29.6497 53.6874 30.9369 54.7088C31.1589 54.8864 31.3364 55.1084 31.4696 55.4193C31.6471 55.9522 31.9134 56.4406 32.2685 56.8847C33.4225 58.3945 34.9317 59.2382 36.8402 59.1494C38.6157 59.0606 40.3023 58.5722 41.9446 57.7284C44.6521 56.3074 46.9602 54.3979 48.78 51.9556C49.8897 50.4902 50.8218 48.8915 51.8427 47.3373C52.7748 45.9163 53.7069 44.4509 54.9497 43.2963C55.8374 42.4526 56.8139 41.6533 58.0123 41.1648C56.4588 42.6302 55.1272 44.2289 54.062 46.0939C52.7748 48.3587 51.6651 50.7122 50.2448 52.9325C49.1351 54.7088 48.0699 56.5294 46.4276 57.9061C46.3832 57.9505 46.3388 57.9505 46.3388 57.9949C46.2944 58.0393 46.25 58.1281 46.2944 58.2169C46.3388 58.3057 46.472 58.3057 46.5607 58.3057C46.6939 58.2613 46.7827 58.2169 46.8714 58.1281C47.5372 57.5508 48.2474 57.0179 48.9132 56.4406C51.1769 54.3979 53.1742 52.0888 55.216 49.8685C57.3021 47.5593 59.477 45.339 61.8739 43.2963C62.4509 42.8078 63.0279 42.3638 63.6493 41.8753C62.1402 43.4295 60.6754 44.9394 59.2551 46.538C57.3021 48.8027 55.3491 51.0675 54.062 53.8207C53.5293 54.8864 53.2186 56.041 53.263 57.24C53.3074 58.4389 54.1951 59.0162 55.3047 58.4389C56.0149 58.0837 56.5476 57.5064 57.0358 56.8847C57.1246 56.7515 57.3021 56.5739 57.1246 56.1742C56.8583 56.4406 56.6807 56.7071 56.5032 56.9291C56.0593 57.3732 55.6598 57.8172 55.0384 58.0837C54.3727 58.3501 53.9732 58.1725 53.7956 57.462C53.7512 57.24 53.7512 56.9735 53.7956 56.7515C53.9732 55.9522 54.2839 55.1973 54.6833 54.4423C56.2369 51.6003 58.1898 49.0248 60.2316 46.538C61.8295 44.5841 63.5161 42.6746 65.3803 40.9428C65.6467 40.7207 66.0017 40.5431 66.1793 40.2323C66.9782 41.6977 67.5552 43.2963 67.9547 45.1614C68.8424 49.5576 68.2654 53.8207 66.2237 57.7284C63.7381 62.0359 60.2316 65.1887 55.6155 67.0982ZM48.3362 69.8958C48.1586 70.2955 48.0255 70.6951 47.8923 71.0504C47.7592 70.6507 47.626 70.2955 47.4485 69.8958C47.4928 69.8958 47.5816 69.8958 47.626 69.8958C47.8479 69.9402 48.0699 69.9402 48.3362 69.8958ZM33.2894 64.567C31.9578 64.9223 30.715 65.3663 29.6497 65.8992C30.138 64.8335 30.5818 63.5901 30.9813 62.2135C31.6471 63.0572 32.446 63.8565 33.2894 64.567ZM27.2085 42.1862C24.7673 41.5645 22.5924 40.1879 20.9945 38.3228C21.172 38.3228 21.3496 38.3228 21.5271 38.3228C23.3913 38.3228 25.2555 38.9445 27.1197 40.1435C27.3861 40.3211 27.608 40.4987 27.8299 40.6763C27.608 41.1204 27.3861 41.6533 27.2085 42.1862ZM26.0989 48.3587C25.5662 48.1366 25.0336 47.9146 24.5454 47.737C25.078 47.5593 25.5662 47.3373 26.0989 47.1153V48.3587ZM27.1197 55.4193C25.2999 56.6183 23.3913 57.24 21.5715 57.24C21.394 57.24 21.2608 57.24 21.0833 57.24C22.548 55.5525 24.4566 54.3091 26.6315 53.5986C26.7647 54.1759 26.8978 54.7976 27.1197 55.4193ZM31.4252 35.2143C30.9813 33.1272 30.3599 31.2178 29.6497 29.6635C31.292 30.4628 33.3782 31.0845 35.6862 31.5286C34.0883 32.55 32.668 33.7933 31.4252 35.2143ZM46.3832 28.0649C47.049 26.8215 47.626 25.6225 48.0255 24.5124C48.4249 25.6669 48.9576 26.8659 49.6234 28.0649H46.3832ZM61.8739 33.0828C61.2081 32.5055 60.4979 32.0171 59.7877 31.573C62.0958 31.0845 64.1819 30.4628 65.8242 29.6635C65.114 31.2178 64.4926 33.0828 64.0488 35.2143C63.383 34.4594 62.6728 33.7489 61.8739 33.0828ZM31.0257 54.2203C30.3155 53.7318 29.8717 53.1102 29.6054 52.3552C28.8064 49.9573 29.2503 47.737 30.715 45.7387C31.4696 44.6729 32.446 43.8292 33.6889 43.3851C35.4199 42.719 37.1953 42.5414 38.882 43.5628C39.1927 43.7404 39.459 43.9624 39.7253 44.3621C37.0178 44.2733 34.7541 45.117 33.0674 47.2041C31.3808 49.2468 30.715 51.5559 31.0257 54.2203ZM35.9525 45.8275C37.1509 45.117 38.5269 44.9838 39.9029 45.0282C40.258 45.0282 40.3467 45.2946 40.4355 45.5611C40.835 46.9377 40.613 48.181 39.9029 49.4244C39.3259 50.4458 38.4825 51.1563 37.3729 51.5115C37.1953 51.5559 36.929 51.6003 37.0178 51.8224C37.0622 52.0888 37.3285 52.0444 37.5504 51.9556C38.9264 51.5115 39.9029 50.6234 40.5243 49.3356C41.1013 48.1366 41.2788 46.9377 40.9681 45.6499C40.9237 45.5611 40.8794 45.4278 40.9681 45.339C41.0569 45.2946 41.1901 45.339 41.2788 45.3834C42.2997 45.9607 43.0543 46.76 43.1874 47.959C43.365 49.7353 42.8323 51.3339 41.6339 52.6661C39.9029 54.62 37.6836 55.5969 35.1092 55.5969C34.976 55.5969 34.8873 55.5969 34.7541 55.5969C33.822 55.5969 32.9343 55.3749 32.0466 54.9752C31.6471 54.7976 31.4696 54.5312 31.4252 54.0871C31.0701 50.3125 32.8455 47.6926 35.9525 45.8275ZM68.8424 53.5986C70.973 54.3091 72.8372 55.5525 74.2575 57.1955C74.1243 57.1955 74.0356 57.1955 73.9024 57.1955C72.0382 57.1955 70.174 56.5739 68.3098 55.3749C68.3986 55.1084 68.4873 54.7976 68.5761 54.5312C68.7093 54.2203 68.798 53.9095 68.8424 53.5986ZM69.3751 47.2041L69.3307 46.9377C69.9521 47.2485 70.6179 47.5149 71.2393 47.6926C70.6179 47.9146 69.9965 48.1366 69.3751 48.4475V47.2041ZM67.5996 40.6319C67.8216 40.4543 68.0879 40.2767 68.3098 40.0991C70.1296 38.9001 72.0382 38.2784 73.9024 38.2784C74.0356 38.2784 74.1687 38.2784 74.3019 38.2784C72.704 40.1435 70.6179 41.4757 68.1766 42.1418C68.0435 41.6533 67.8216 41.1204 67.5996 40.6319ZM57.2133 21.5816C57.2133 23.2246 56.7695 24.8676 55.8374 26.4663C55.3048 27.3988 54.639 28.1981 53.8844 28.9086C53.5737 28.8198 53.263 28.731 52.9523 28.6866C53.3962 25.6225 54.9497 22.9137 57.2133 21.0487C57.169 21.1819 57.2133 21.3595 57.2133 21.5816ZM47.7148 2.22032C49.579 4.61827 55.6598 12.8779 56.947 19.3168C54.062 21.4483 52.0646 24.6456 51.532 28.3313C51.4876 28.3313 51.4876 28.3313 51.4432 28.3313C49.7565 25.5337 48.7356 22.8249 48.7356 20.649L47.9811 6.1725L47.2709 20.649C47.2709 22.8249 46.25 25.4893 44.6078 28.2425C44.3414 28.2869 44.0751 28.3313 43.7644 28.3757C43.2318 24.7344 41.2788 21.5816 38.4825 19.45C39.7253 13.0111 45.8506 4.66268 47.7148 2.22032ZM38.305 21.0931C40.4799 23.0026 41.989 25.6669 42.3885 28.6866C42.1222 28.731 41.9002 28.8198 41.6339 28.9086C40.8794 28.2425 40.1692 27.3988 39.6366 26.4663C38.7044 24.8676 38.2606 23.2246 38.2606 21.5816C38.2606 21.4039 38.305 21.2707 38.305 21.0931ZM18.065 30.3296C18.065 23.5798 23.5245 18.0734 30.3155 18.0734C32.8011 18.0734 35.1092 18.8283 37.0178 20.0717C36.9734 20.5602 36.929 21.0487 36.929 21.5371C36.929 23.4022 37.4616 25.2673 38.4825 27.088C38.9708 27.9317 39.5034 28.6422 40.1692 29.3083C39.2371 29.6191 38.3494 30.0188 37.506 30.4628C33.245 29.7523 29.7385 28.5534 27.9187 26.8659C27.8743 26.7771 23.8352 23.7575 23.8352 23.7575C23.8352 23.7575 26.8534 27.7541 26.9422 27.8429C28.4957 29.5303 29.6054 32.6832 30.3599 36.5021C29.8717 37.1238 29.4278 37.7899 28.984 38.5004C28.8064 38.7669 28.6733 39.0333 28.5401 39.2997C28.3626 39.1665 28.1406 38.9889 27.9631 38.9001C25.8769 37.5679 23.7464 36.8574 21.6159 36.8574C21.1277 36.8574 20.595 36.9018 20.0624 36.9462C18.7752 35.0811 18.065 32.8164 18.065 30.3296ZM2.21929 47.737C4.61613 45.8719 12.9163 39.7882 19.3522 38.5004C21.172 40.8984 23.7908 42.719 26.809 43.5184C26.6315 44.14 26.4983 44.7617 26.4096 45.3834C24.3234 46.4048 22.3261 47.0265 20.6394 47.0265L6.16963 47.737L20.7726 48.4919C22.3705 48.4919 24.1903 49.0248 26.1433 49.9573V50.801L26.1876 50.9786C26.1876 51.0675 26.232 51.1119 26.232 51.2007C26.2764 51.5559 26.3208 51.8668 26.3652 52.222C23.5689 53.0657 21.172 54.7532 19.441 57.0179C12.9607 55.7301 4.66051 49.6464 2.21929 47.737ZM36.9734 75.4466C35.0648 76.7344 32.7567 77.4449 30.2711 77.4449C23.5245 77.4449 18.0206 71.9829 18.0206 65.1887C18.0206 62.702 18.7752 60.3928 20.018 58.4833C20.5506 58.5277 21.0389 58.5721 21.5271 58.5721C23.5689 58.5721 25.6106 57.9505 27.608 56.7071C27.8299 57.2844 28.0962 57.8172 28.4069 58.3501C28.8508 59.1938 29.339 59.9932 29.9161 60.7925C29.1615 63.9009 28.0962 66.3877 26.7203 67.7643L23.8352 71.6721L27.6968 68.7412C29.0727 67.3646 31.5139 66.2989 34.621 65.5884C35.2867 66.0768 35.9525 66.5209 36.6627 66.9206C37.3285 67.3202 38.0387 67.6311 38.7044 67.9419C37.506 69.8958 36.8846 71.8941 36.8846 73.8924C36.8846 74.4253 36.929 74.9581 36.9734 75.4466ZM38.2606 73.9368C38.2606 72.1161 38.8376 70.2955 39.9916 68.5192C40.613 68.7412 41.2344 68.9633 41.8558 69.1409C41.1457 71.228 39.9029 73.0487 38.305 74.4697C38.305 74.292 38.2606 74.1144 38.2606 73.9368ZM47.7148 93.298C45.8506 90.8557 39.7253 82.5961 38.4825 76.1571C40.6574 74.5141 42.3441 72.2049 43.2318 69.5406C44.0751 69.7182 44.9628 69.8514 45.8062 69.8958C46.6495 71.7165 47.0934 73.4483 47.0934 74.9581L47.8479 89.4347L48.6025 74.9581C48.6025 73.4483 49.0907 71.7165 49.9341 69.8514C50.3335 69.807 50.733 69.7626 51.0881 69.7182C51.3988 69.6738 51.7539 69.6294 52.0646 69.5406C52.9523 72.2494 54.6833 74.6029 56.947 76.2459C55.6598 82.6405 49.579 90.8557 47.7148 93.298ZM57.169 74.6029C55.4823 73.1819 54.1951 71.3168 53.4405 69.1853C54.1507 69.0077 54.8165 68.7856 55.4823 68.5636C56.5919 70.3399 57.169 72.1605 57.169 73.9812C57.2133 74.1588 57.169 74.3809 57.169 74.6029ZM77.2757 65.2331C77.2757 71.9829 71.8163 77.4449 65.0252 77.4449C62.6284 77.4449 60.3647 76.7344 58.4561 75.5354C58.5449 75.0025 58.5893 74.4697 58.5893 73.9368C58.5893 71.9385 57.9679 69.9402 56.8139 67.9863C58.2342 67.3646 59.6102 66.5653 60.8974 65.5884C63.96 66.3433 66.3568 67.4979 67.8216 68.7412C68.7537 69.5406 71.7719 71.6277 71.7719 71.6277C71.7719 71.6277 69.597 68.6968 68.798 67.7643C67.5109 66.2989 66.3568 63.9009 65.6023 60.7925C66.49 59.5047 67.2445 58.1725 67.8659 56.7071C69.8633 57.9505 71.9051 58.5721 73.9468 58.5721C74.3907 58.5721 74.8345 58.5277 75.3228 58.4833C76.5212 60.4372 77.2757 62.7464 77.2757 65.2331ZM75.9442 57.0179C74.2575 54.7532 71.8607 53.0657 69.1087 52.222C69.1531 52 69.1975 51.778 69.2419 51.5115C69.2863 51.2895 69.3307 51.023 69.3751 50.801V50.0905C71.4168 49.0692 73.3698 48.4919 75.0121 48.4919L89.615 47.7814L75.1452 47.0265C73.3698 47.0265 71.2837 46.3604 69.0644 45.2058C68.9756 44.6729 68.8424 44.14 68.7093 43.6516C68.7093 43.6072 68.6649 43.5628 68.6649 43.5184C71.6387 42.719 74.2131 40.9428 75.9885 38.5004C82.4245 39.6994 90.8134 45.8719 93.2546 47.737C90.8134 49.6464 82.3801 55.8189 75.9442 57.0179Z" fill="url(#paint1_linear)"/>
<g clip-path="url(#clip0)">
<path d="M132.923 74.8123C132.888 74.7029 132.794 74.6247 132.68 74.6069L129.287 74.1247L127.76 71.0551C127.708 70.9524 127.604 70.8877 127.49 70.8877C127.376 70.8877 127.271 70.9524 127.22 71.0574L125.713 74.1358L122.319 74.6404C122.206 74.6582 122.112 74.7364 122.076 74.8458C122.04 74.9551 122.072 75.0757 122.154 75.1538L124.617 77.5403L124.047 80.9201C124.027 81.034 124.074 81.1478 124.168 81.2148C124.219 81.2528 124.282 81.2729 124.344 81.2729C124.393 81.2729 124.44 81.2617 124.485 81.2371L127.514 79.632L130.553 81.2193C130.597 81.2416 130.644 81.2528 130.691 81.2528C130.856 81.2528 130.992 81.1166 130.992 80.9514C130.992 80.9268 130.99 80.9045 130.983 80.8822L130.396 77.5224L132.843 75.1226C132.93 75.0422 132.959 74.9217 132.923 74.8123ZM129.865 77.2032C129.794 77.2724 129.762 77.3728 129.78 77.4711L130.291 80.4022L127.653 79.0248C127.566 78.9779 127.461 78.9802 127.371 79.0248L124.742 80.4178L125.235 77.4822C125.251 77.384 125.219 77.2858 125.148 77.2166L123.014 75.1449L125.958 74.7073C126.057 74.6917 126.141 74.6314 126.184 74.5421L127.492 71.87L128.818 74.5354C128.863 74.6247 128.947 74.685 129.046 74.7006L131.992 75.1203L129.865 77.2032Z" fill="#B28D5C"/>
</g>
<g clip-path="url(#clip1)">
<path d="M169.179 74.8123C169.144 74.7029 169.05 74.6247 168.936 74.6069L165.543 74.1247L164.016 71.0551C163.964 70.9524 163.859 70.8877 163.746 70.8877C163.632 70.8877 163.527 70.9524 163.475 71.0574L161.969 74.1358L158.575 74.6404C158.461 74.6582 158.368 74.7364 158.332 74.8458C158.296 74.9551 158.328 75.0757 158.41 75.1538L160.872 77.5403L160.303 80.9201C160.283 81.034 160.33 81.1478 160.424 81.2148C160.475 81.2528 160.538 81.2729 160.6 81.2729C160.649 81.2729 160.696 81.2617 160.741 81.2371L163.77 79.632L166.808 81.2193C166.853 81.2416 166.9 81.2528 166.947 81.2528C167.112 81.2528 167.248 81.1166 167.248 80.9514C167.248 80.9268 167.246 80.9045 167.239 80.8822L166.652 77.5224L169.099 75.1226C169.186 75.0422 169.215 74.9217 169.179 74.8123ZM166.121 77.2032C166.049 77.2724 166.018 77.3728 166.036 77.4711L166.547 80.4022L163.909 79.0248C163.821 78.9779 163.717 78.9802 163.627 79.0248L160.997 80.4178L161.491 77.4822C161.506 77.384 161.475 77.2858 161.404 77.2166L159.27 75.1449L162.214 74.7073C162.312 74.6917 162.397 74.6314 162.44 74.5421L163.748 71.87L165.074 74.5354C165.118 74.6247 165.203 74.685 165.302 74.7006L168.248 75.1203L166.121 77.2032Z" fill="#B28D5C"/>
</g>
<g clip-path="url(#clip2)">
<path d="M205.436 74.8123C205.4 74.7029 205.306 74.6247 205.192 74.6069L201.799 74.1247L200.272 71.0551C200.221 70.9524 200.116 70.8877 200.002 70.8877C199.888 70.8877 199.783 70.9524 199.732 71.0574L198.225 74.1358L194.832 74.6404C194.718 74.6582 194.624 74.7364 194.588 74.8458C194.553 74.9551 194.584 75.0757 194.666 75.1538L197.129 77.5403L196.56 80.9201C196.539 81.034 196.586 81.1478 196.68 81.2148C196.731 81.2528 196.794 81.2729 196.856 81.2729C196.906 81.2729 196.952 81.2617 196.997 81.2371L200.026 79.632L203.065 81.2193C203.109 81.2416 203.156 81.2528 203.203 81.2528C203.368 81.2528 203.505 81.1166 203.505 80.9514C203.505 80.9268 203.502 80.9045 203.496 80.8822L202.909 77.5224L205.355 75.1226C205.442 75.0422 205.471 74.9217 205.436 74.8123ZM202.377 77.2032C202.306 77.2724 202.275 77.3728 202.292 77.4711L202.804 80.4022L200.165 79.0248C200.078 78.9779 199.973 78.9802 199.884 79.0248L197.254 80.4178L197.747 77.4822C197.763 77.384 197.732 77.2858 197.66 77.2166L195.526 75.1449L198.47 74.7073C198.569 74.6917 198.654 74.6314 198.696 74.5421L200.004 71.87L201.33 74.5354C201.375 74.6247 201.46 74.685 201.558 74.7006L204.505 75.1203L202.377 77.2032Z" fill="#B28D5C"/>
</g>
<g clip-path="url(#clip3)">
<path d="M241.691 74.8123C241.656 74.7029 241.562 74.6247 241.448 74.6069L238.055 74.1247L236.528 71.0551C236.477 70.9524 236.372 70.8877 236.258 70.8877C236.144 70.8877 236.039 70.9524 235.988 71.0574L234.481 74.1358L231.088 74.6404C230.974 74.6582 230.88 74.7364 230.844 74.8458C230.808 74.9551 230.84 75.0757 230.922 75.1538L233.385 77.5403L232.815 80.9201C232.795 81.034 232.842 81.1478 232.936 81.2148C232.987 81.2528 233.05 81.2729 233.112 81.2729C233.161 81.2729 233.208 81.2617 233.253 81.2371L236.282 79.632L239.321 81.2193C239.365 81.2416 239.412 81.2528 239.459 81.2528C239.624 81.2528 239.76 81.1166 239.76 80.9514C239.76 80.9268 239.758 80.9045 239.751 80.8822L239.164 77.5224L241.611 75.1226C241.698 75.0422 241.727 74.9217 241.691 74.8123ZM238.633 77.2032C238.562 77.2724 238.53 77.3728 238.548 77.4711L239.059 80.4022L236.421 79.0248C236.334 78.9779 236.229 78.9802 236.139 79.0248L233.51 80.4178L234.003 77.4822C234.019 77.384 233.987 77.2858 233.916 77.2166L231.782 75.1449L234.726 74.7073C234.825 74.6917 234.909 74.6314 234.952 74.5421L236.26 71.87L237.586 74.5354C237.631 74.6247 237.716 74.685 237.814 74.7006L240.761 75.1203L238.633 77.2032Z" fill="#B28D5C"/>
</g>
<defs>
<linearGradient id="paint0_linear" x1="152.941" y1="42.6892" x2="214.136" y2="42.6892" gradientUnits="userSpaceOnUse">
<stop stop-color="#81623D"/>
<stop offset="0.0990594" stop-color="#856740"/>
<stop offset="0.2414" stop-color="#927647"/>
<stop offset="0.4099" stop-color="#A99154"/>
<stop offset="0.597" stop-color="#CEBD69"/>
<stop offset="0.6613" stop-color="#E1D273"/>
<stop offset="1" stop-color="#9D7D4A"/>
</linearGradient>
<linearGradient id="paint1_linear" x1="10.2438" y1="85.0532" x2="145.535" y2="-49.5836" gradientUnits="userSpaceOnUse">
<stop stop-color="#9B7D4A"/>
<stop offset="0.0588648" stop-color="#A0824D"/>
<stop offset="0.1439" stop-color="#AC9154"/>
<stop offset="0.2442" stop-color="#C2AD62"/>
<stop offset="0.3333" stop-color="#E0D174"/>
<stop offset="0.5161" stop-color="#E5DA8F"/>
<stop offset="0.6613" stop-color="#E0D174"/>
<stop offset="1" stop-color="#9B7D4A"/>
</linearGradient>
<clipPath id="clip0">
<rect width="10.8768" height="10.8768" fill="white" transform="translate(122.062 70.6418)"/>
</clipPath>
<clipPath id="clip1">
<rect width="10.8768" height="10.8768" fill="white" transform="translate(158.317 70.6418)"/>
</clipPath>
<clipPath id="clip2">
<rect width="10.8768" height="10.8768" fill="white" transform="translate(194.574 70.6418)"/>
</clipPath>
<clipPath id="clip3">
<rect width="10.8768" height="10.8768" fill="white" transform="translate(230.83 70.6418)"/>
</clipPath>
</defs>
</svg>
