<svg width="14" height="10" viewBox="0 0 14 10" fill="none" xmlns="http://www.w3.org/2000/svg">
<path d="M7.01757 5.93364H7.02057C7.12614 5.93364 7.23047 5.90301 7.31489 5.84724L7.33778 5.83253C7.34277 5.82928 7.34799 5.82633 7.35323 5.82283L7.61991 5.60219L13.9853 0.349356C13.9721 0.33117 13.9497 0.318726 13.9258 0.318726H0.0739575C0.0567778 0.318726 0.0408333 0.324948 0.0281373 0.335402L6.68786 5.82455C6.77179 5.89404 6.89155 5.93364 7.01757 5.93364ZM0 1.06304V8.84928L4.77075 4.99537L0 1.06304ZM9.23424 5.02151L14 8.85127V1.08893L9.23424 5.02151ZM7.71901 6.27154C7.52903 6.42741 7.28053 6.51334 7.01956 6.51334C6.75761 6.51334 6.50934 6.42792 6.31986 6.27277L5.22719 5.3716L0 9.59359V9.60702C0 9.64712 0.0343595 9.68122 0.0749412 9.68122H13.926C13.9659 9.68122 14 9.64712 14 9.60676V9.59432L8.77729 5.39803L7.71901 6.27154Z" fill="#B79E5B"/>
</svg>
