<svg width="16" height="16" viewBox="0 0 16 16" fill="none" xmlns="http://www.w3.org/2000/svg">
<path d="M8.00033 0C11.1955 0 13.7949 2.59944 13.7949 5.79456C13.7949 9.75981 8.60933 15.581 8.38855 15.8269C8.18117 16.0579 7.81911 16.0575 7.61211 15.8269C7.39133 15.581 2.20573 9.75981 2.20573 5.79456C2.2058 2.59944 4.8052 0 8.00033 0ZM8.00033 8.70997C9.60789 8.70997 10.9157 7.40212 10.9157 5.79456C10.9157 4.187 9.60786 2.87919 8.00033 2.87919C6.3928 2.87919 5.08498 4.18703 5.08498 5.79459C5.08498 7.40216 6.3928 8.70997 8.00033 8.70997Z" fill="white"/>
</svg>
