<svg width="118" height="118" viewBox="0 0 118 118" fill="none" xmlns="http://www.w3.org/2000/svg">
<path d="M94.8508 109.455C94.296 109.455 93.7471 109.261 93.3067 108.888L69.39 88.6126H16.4032C7.35838 88.6124 0 81.2131 0 72.1179V25.039C0 15.9439 7.35838 8.54456 16.4032 8.54456H101.597C110.642 8.54456 118 15.9441 118 25.039V72.1179C118 81.2131 110.642 88.6124 101.597 88.6124H97.245V107.047C97.245 107.984 96.7049 108.835 95.8598 109.23C95.5374 109.381 95.193 109.455 94.8508 109.455ZM16.4032 13.3609C9.99942 13.3609 4.7896 18.5996 4.7896 25.039V72.1179C4.7896 78.5571 9.99942 83.796 16.4032 83.796H70.2647C70.8296 83.796 71.3763 83.9969 71.8085 84.3629L92.4554 101.867V86.2042C92.4554 84.8742 93.5278 83.796 94.8503 83.796H101.597C108.001 83.796 113.21 78.5571 113.21 72.1179V25.039C113.21 18.5996 108.001 13.3609 101.597 13.3609H16.4032Z" fill="black"/>
<path d="M97.571 35.5125H20.4289C19.1063 35.5125 18.0342 34.4341 18.0342 33.1043C18.0342 31.7743 19.1063 30.6962 20.4289 30.6962H97.5708C98.8933 30.6962 99.9654 31.7743 99.9654 33.1043C99.9654 34.4341 98.8936 35.5125 97.571 35.5125Z" fill="black"/>
<path d="M97.571 50.9328H20.4289C19.1063 50.9328 18.0342 49.8544 18.0342 48.5246C18.0342 47.1946 19.1063 46.1165 20.4289 46.1165H97.5708C98.8933 46.1165 99.9654 47.1946 99.9654 48.5246C99.9654 49.8544 98.8936 50.9328 97.571 50.9328Z" fill="black"/>
<path d="M97.571 66.3536H20.4289C19.1063 66.3536 18.0342 65.2752 18.0342 63.9454C18.0342 62.6154 19.1063 61.5372 20.4289 61.5372H97.5708C98.8933 61.5372 99.9654 62.6151 99.9654 63.9454C99.9654 65.2752 98.8936 66.3536 97.571 66.3536Z" fill="black"/>
</svg>
