<svg width="18" height="18" viewBox="0 0 18 18" fill="none" xmlns="http://www.w3.org/2000/svg">
<g clip-path="url(#clip0)">
<path d="M8.11395 12.679C6.71853 12.5334 5.46035 12.1898 4.38315 11.3473C4.24949 11.2424 4.1115 11.1414 3.98953 11.0243C3.51804 10.5715 3.47053 10.0529 3.84361 9.51844C4.16277 9.06109 4.69855 8.93874 5.25543 9.20135C5.36327 9.25225 5.46601 9.31578 5.56442 9.38403C7.57196 10.7634 10.3298 10.8015 12.3449 9.44605C12.5445 9.29297 12.7579 9.16817 13.0053 9.10445C13.4862 8.98097 13.9347 9.15761 14.1928 9.57839C14.4876 10.0589 14.4838 10.528 14.1206 10.901C13.5633 11.473 12.8931 11.8868 12.1485 12.1756C11.4443 12.4486 10.6731 12.586 9.90978 12.6773C10.025 12.8026 10.0793 12.8643 10.1513 12.9367C11.1878 13.978 12.2288 15.0151 13.2618 16.0597C13.6138 16.4156 13.6873 16.8569 13.4935 17.2709C13.2816 17.7234 12.8073 18.021 12.3422 17.9892C12.0476 17.9688 11.8178 17.8221 11.6136 17.6165C10.8315 16.8294 10.0346 16.0568 9.26825 15.2549C9.04524 15.0217 8.93797 15.0658 8.74115 15.2683C7.95427 16.0783 7.15458 16.876 6.35016 17.6691C5.98896 18.0252 5.55914 18.0893 5.14025 17.8859C4.69496 17.67 4.41162 17.2155 4.43349 16.7587C4.44857 16.4497 4.60052 16.2137 4.8126 16.002C5.83833 14.9778 6.86124 13.9509 7.88452 12.925C7.9522 12.8567 8.01535 12.7843 8.11395 12.679Z" fill="white"/>
<path d="M8.96399 9.11096C6.4746 9.10248 4.43331 7.03876 4.44783 4.5454C4.46216 2.02453 6.50476 -0.0069573 9.01867 1.79086e-05C11.5377 0.0068046 13.5595 2.06751 13.5469 4.61459C13.5341 7.10285 11.4787 9.11963 8.96399 9.11096ZM11.2264 4.55144C11.2221 3.31343 10.2361 2.32785 9.00057 2.32672C7.75464 2.3254 6.75983 3.32889 6.76944 4.57821C6.77868 5.8115 7.77312 6.7901 9.01207 6.78558C10.2472 6.78124 11.2306 5.78925 11.2264 4.55144Z" fill="white"/>
</g>
<defs>
<clipPath id="clip0">
<rect width="18" height="18" fill="white"/>
</clipPath>
</defs>
</svg>
