<svg width="16" height="16" viewBox="0 0 16 16" fill="none" xmlns="http://www.w3.org/2000/svg">
<path d="M15.9924 12.6242C16.0263 12.884 15.9471 13.1098 15.7552 13.3018L13.5025 15.5375C13.4008 15.6504 13.2682 15.7465 13.1044 15.8254C12.9407 15.9045 12.7798 15.9553 12.6218 15.9779C12.6105 15.9779 12.5765 15.9808 12.5201 15.9864C12.4637 15.9921 12.3903 15.9949 12.2999 15.9949C12.0853 15.9949 11.7381 15.9582 11.2582 15.8848C10.7783 15.8114 10.1911 15.6307 9.49669 15.3428C8.80212 15.0548 8.01453 14.6229 7.13378 14.047C6.25303 13.4712 5.31576 12.6807 4.32206 11.6757C3.53162 10.8965 2.87668 10.1513 2.35724 9.4399C1.83781 8.72848 1.42 8.07072 1.10383 7.46659C0.78762 6.86247 0.550487 6.3148 0.392399 5.8236C0.23431 5.33239 0.127036 4.90894 0.0705753 4.55324C0.0141151 4.19754 -0.00846903 3.91807 0.00282301 3.71481C0.0141151 3.51155 0.0197611 3.39863 0.0197611 3.37605C0.0423452 3.21796 0.0931594 3.05705 0.172204 2.89331C0.251248 2.72958 0.34723 2.5969 0.460151 2.49527L2.71291 0.242504C2.871 0.0844154 3.05168 0.00537109 3.25493 0.00537109C3.40173 0.00537109 3.53159 0.0477163 3.64451 0.132407C3.75743 0.217097 3.85341 0.321548 3.93246 0.445761L5.74483 3.88419C5.84646 4.06486 5.87469 4.26247 5.82952 4.47702C5.78435 4.69157 5.68837 4.87224 5.54157 5.01904L4.71161 5.84901C4.68902 5.87159 4.66926 5.90829 4.65232 5.9591C4.63538 6.00992 4.62692 6.05226 4.62692 6.08614C4.67208 6.32327 4.77371 6.59428 4.9318 6.89917C5.06731 7.17017 5.27621 7.50047 5.55851 7.89004C5.84081 8.27962 6.24168 8.72845 6.76111 9.23659C7.26925 9.75608 7.72094 10.1597 8.11616 10.4477C8.5113 10.7356 8.8417 10.9474 9.10706 11.0829C9.37243 11.2184 9.57568 11.3002 9.71681 11.3284L9.92848 11.3708C9.95106 11.3708 9.98784 11.3623 10.0386 11.3454C10.0894 11.3284 10.1261 11.3087 10.1487 11.286L11.1142 10.3036C11.3175 10.123 11.5546 10.0327 11.8256 10.0327C12.0176 10.0327 12.17 10.0665 12.2829 10.1343H12.2998L15.5688 12.0652C15.806 12.2121 15.9472 12.3984 15.9924 12.6242Z" fill="white"/>
</svg>
