<svg width="14" height="14" viewBox="0 0 14 14" fill="none" xmlns="http://www.w3.org/2000/svg">
<path d="M13.9933 11.0461C14.023 11.2733 13.9537 11.4709 13.7858 11.6389L11.8147 13.5952C11.7257 13.694 11.6097 13.778 11.4664 13.8471C11.3231 13.9163 11.1824 13.9608 11.0441 13.9805C11.0342 13.9805 11.0045 13.9831 10.9551 13.988C10.9057 13.9929 10.8415 13.9954 10.7625 13.9954C10.5747 13.9954 10.2708 13.9633 9.8509 13.8991C9.43098 13.8348 8.91721 13.6767 8.30961 13.4248C7.70186 13.1728 7.01271 12.7949 6.24206 12.291C5.4714 11.7872 4.65129 11.0955 3.7818 10.2161C3.09016 9.53434 2.51709 8.88222 2.06259 8.25977C1.60808 7.63727 1.2425 7.06173 0.965847 6.53312C0.689168 6.00451 0.481676 5.5253 0.343349 5.0955C0.205021 4.6657 0.111156 4.29518 0.0617534 3.98394C0.0123507 3.6727 -0.00741041 3.42816 0.00247014 3.25031C0.0123507 3.07246 0.0172909 2.97365 0.0172909 2.95389C0.037052 2.81556 0.0815145 2.67477 0.150678 2.5315C0.219842 2.38823 0.303827 2.27213 0.402632 2.18321L2.3738 0.212039C2.51213 0.073711 2.67022 0.00454712 2.84807 0.00454712C2.97651 0.00454712 3.09014 0.0415992 3.18894 0.115703C3.28775 0.189807 3.37173 0.281202 3.4409 0.389889L5.02673 3.39852C5.11565 3.5566 5.14035 3.72951 5.10083 3.91724C5.06131 4.10497 4.97732 4.26306 4.84888 4.39151L4.12266 5.11773C4.10289 5.13749 4.0856 5.1696 4.07078 5.21407C4.05596 5.25853 4.04855 5.29558 4.04855 5.32522C4.08807 5.53271 4.177 5.76985 4.31533 6.03662C4.43389 6.27376 4.61668 6.56276 4.8637 6.90364C5.11071 7.24452 5.46147 7.63725 5.91597 8.08187C6.3606 8.53643 6.75582 8.88961 7.10164 9.14161C7.44739 9.39347 7.73649 9.5788 7.96868 9.69737C8.20087 9.81593 8.37872 9.88757 8.50221 9.9122L8.68742 9.94927C8.70718 9.94927 8.73936 9.94184 8.78378 9.92704C8.82824 9.9122 8.86035 9.89493 8.88014 9.87514L9.7249 9.01554C9.90285 8.85747 10.1102 8.77843 10.3474 8.77843C10.5154 8.77843 10.6487 8.80804 10.7475 8.86735H10.7623L13.6227 10.5569C13.8303 10.6855 13.9538 10.8484 13.9933 11.0461Z" fill="#B79E5B"/>
</svg>
