<svg width="118" height="118" viewBox="0 0 118 118" fill="none" xmlns="http://www.w3.org/2000/svg">
<path d="M72.3099 25.1357C75.6033 25.6014 78.8285 26.4286 82.0154 27.4079C87.5786 29.121 92.8282 31.501 97.7653 34.5885C98.1089 34.8016 98.5674 34.9369 98.972 34.9369C104.771 34.9608 110.568 34.9525 116.362 34.9572C116.829 34.9572 117.293 35.0063 117.759 35.0327C117.759 35.1464 117.776 35.1943 117.757 35.2206C117.486 35.6372 117.212 36.0479 116.94 36.4633C114.973 39.4801 113.293 42.6359 112.3 46.1244C112.192 46.4991 112.17 46.8128 112.423 47.1803C117.586 54.5932 119.233 62.7315 117.076 71.5044C115.184 79.1986 110.774 85.1976 104.072 89.4451C99.2821 92.4823 93.9906 93.9285 88.3376 93.9596C85.9624 93.974 83.5992 93.6544 81.2791 93.0534C75.6261 91.5869 70.7799 88.7687 66.7862 84.5008C66.2594 83.9405 65.7638 83.3551 65.2023 82.7218C63.0905 85.8692 61.0123 88.9651 58.8837 92.1423C56.7635 88.9746 54.714 85.9087 52.6692 82.8547C52.5279 82.9289 52.4872 82.9373 52.4597 82.9637C52.413 83.002 52.3735 83.0487 52.3364 83.0929C47.5058 88.7974 41.429 92.2944 34.0257 93.464C29.9075 94.1165 25.8287 93.8818 21.829 92.7792C16.1604 91.2217 11.343 88.2312 7.451 83.8184C3.6476 79.5038 1.282 74.4949 0.393699 68.8C-0.622696 63.4845 0.615175 58.3595 0.924044 57.1156C1.81953 53.5002 3.38063 50.1804 5.52356 47.1276C5.6744 46.911 5.72708 46.5279 5.65525 46.2693C4.78132 43.0645 3.27528 40.1494 1.51185 37.3576C1.06411 36.6476 0.527781 35.9904 0.0321542 35.3092C0.0321542 35.2314 0.0321542 35.1512 0.0321542 35.0722C0.131519 35.0841 0.229687 35.1033 0.326657 35.1033C6.25982 35.1057 12.1918 35.1081 18.1249 35.0961C18.3835 35.0961 18.6709 34.9896 18.8911 34.8483C23.0597 32.1738 27.5012 30.0548 32.1677 28.4051C35.533 27.2176 38.9688 26.2909 42.4729 25.6121C45.8657 24.9561 49.2764 24.494 52.7231 24.2665C61.126 23.6201 67.8421 24.5096 72.3099 25.1357ZM64.8719 64.3202C64.8719 77.3489 75.4429 87.993 88.425 87.9427C101.456 87.896 111.979 77.5513 111.97 64.3788C111.96 50.8041 100.949 40.5995 87.9198 40.8641C75.0574 41.131 64.9893 51.4985 64.8719 64.3202ZM29.5423 40.7743C16.8691 40.6641 5.81926 51.2411 6.04074 64.714C6.24665 77.2783 16.6021 87.9295 29.8057 87.8158C42.716 87.7056 53.093 77.1634 53.1169 64.3968C53.1373 51.2806 42.6334 40.7743 29.5423 40.7743ZM30.7108 34.628C37.8698 35.065 44.1585 37.5599 49.4716 42.3916C54.7738 47.2138 57.8805 53.2296 59.0094 60.3037C60.1707 53.3134 63.1959 47.3539 68.3988 42.5796C73.6101 37.8005 79.815 35.2924 86.8567 34.7621C78.5005 31.0473 69.6893 29.4694 60.6196 29.2946C50.312 29.0923 40.2857 30.6115 30.7108 34.628Z" fill="#222"/>
<path d="M88.3771 49.4562C96.44 49.4431 102.971 55.9389 102.971 63.9934C102.971 72.0791 96.5513 78.3295 88.9781 78.618C80.5201 78.9425 73.7525 72.2036 73.7549 64.0293C73.7621 55.7617 80.5775 49.3198 88.3771 49.4562ZM97.8874 64.0293C97.8838 58.7738 93.635 54.5023 88.4154 54.5023C83.1359 54.5023 78.8381 58.751 78.8165 63.991C78.7973 69.2083 83.1167 73.5492 88.3471 73.5636C93.586 73.5839 97.8898 69.2753 97.8874 64.0293Z" fill="#222"/>
<path d="M29.2311 49.4562C37.2892 49.4478 43.8293 55.9556 43.809 64.009C43.7862 72.1605 37.361 78.2744 29.9206 78.6132C21.4291 79.0011 14.5777 72.2323 14.5933 64.0138C14.61 55.6875 21.4722 49.3173 29.2311 49.4562ZM38.7306 63.997C38.715 58.7091 34.4387 54.4939 29.1006 54.5035C23.9515 54.513 19.637 58.8588 19.6489 64.0269C19.6621 69.255 23.9719 73.554 29.2167 73.5684C34.4292 73.5803 38.7437 69.2394 38.7306 63.997Z" fill="#222"/>
<path d="M88.3845 59.1915C91.0566 59.1891 93.2474 61.3812 93.2223 64.0377C93.1959 66.7002 91.0422 68.8575 88.4144 68.8587C85.7088 68.8587 83.5336 66.7205 83.5396 64.0712C83.5444 61.3225 85.6574 59.1939 88.3845 59.1915Z" fill="#222"/>
<path d="M29.2061 59.1484C31.9189 59.146 34.0989 61.3129 34.1097 64.0173C34.1204 66.699 31.9201 68.9006 29.2204 68.9065C26.4562 68.9125 24.324 66.7768 24.3264 63.9982C24.3264 61.2698 26.4538 59.152 29.2061 59.1484Z" fill="#222"/>
</svg>
