<svg width="18" height="18" viewBox="0 0 18 18" fill="none" xmlns="http://www.w3.org/2000/svg">
<g clip-path="url(#clip0)">
<path d="M17.9046 13.14C17.8828 13.0931 17.8625 13.0541 17.8436 13.0229C17.5313 12.4604 16.9345 11.77 16.0536 10.9515L16.0349 10.9328L16.0256 10.9236L16.0162 10.9142H16.0068C15.6069 10.533 15.3538 10.2768 15.2477 10.1456C15.0537 9.89564 15.0103 9.64265 15.1163 9.38632C15.1912 9.19265 15.4726 8.78364 15.9598 8.15875C16.216 7.82757 16.419 7.56215 16.5689 7.36217C17.6499 5.92508 18.1185 5.00676 17.9747 4.60685L17.9189 4.51339C17.8814 4.45713 17.7845 4.40566 17.6285 4.35872C17.4721 4.31188 17.2723 4.30413 17.0285 4.33535L14.3295 4.35399C14.2858 4.3385 14.2234 4.33994 14.142 4.35872C14.0608 4.37749 14.0201 4.38692 14.0201 4.38692L13.9732 4.41039L13.9359 4.43858C13.9046 4.45723 13.8703 4.49002 13.8327 4.53689C13.7954 4.58361 13.7642 4.63842 13.7392 4.70089C13.4454 5.45689 13.1113 6.15978 12.7363 6.80953C12.5051 7.19696 12.2928 7.53273 12.0989 7.81703C11.9053 8.10124 11.7428 8.31063 11.6117 8.44485C11.4804 8.57921 11.3619 8.68684 11.2555 8.76815C11.1493 8.84949 11.0682 8.88386 11.012 8.87129C10.9557 8.85872 10.9027 8.84624 10.8525 8.83377C10.7651 8.7775 10.6948 8.70099 10.6418 8.60415C10.5885 8.50732 10.5527 8.38544 10.5339 8.23861C10.5153 8.09168 10.5043 7.96531 10.5011 7.85905C10.4982 7.75293 10.4995 7.60282 10.5059 7.40915C10.5124 7.21538 10.5153 7.08427 10.5153 7.01554C10.5153 6.77808 10.5199 6.52037 10.5292 6.24234C10.5387 5.96431 10.5463 5.74401 10.5527 5.58173C10.5591 5.41927 10.562 5.2474 10.562 5.0662C10.562 4.88501 10.551 4.74291 10.5292 4.63977C10.5077 4.53676 10.4746 4.43678 10.4311 4.33984C10.3872 4.24301 10.3231 4.1681 10.2389 4.11492C10.1546 4.06181 10.0498 4.01967 9.92498 3.98835C9.59381 3.91341 9.1721 3.87287 8.65967 3.86657C7.49762 3.85409 6.75094 3.92913 6.4198 4.09159C6.2886 4.16022 6.16987 4.25401 6.06371 4.37264C5.95122 4.51014 5.93553 4.58518 6.01674 4.59752C6.39167 4.65369 6.6571 4.78804 6.81331 5.00045L6.86961 5.11301C6.9134 5.19422 6.95712 5.338 7.00088 5.54414C7.04457 5.75028 7.07276 5.97832 7.08517 6.22812C7.11635 6.6843 7.11635 7.07479 7.08517 7.39963C7.05389 7.7246 7.02435 7.97758 6.99615 8.15878C6.96795 8.33998 6.9258 8.4868 6.86961 8.59923C6.81331 8.71169 6.77586 8.78043 6.75708 8.80537C6.73834 8.83032 6.72271 8.84604 6.71031 8.85222C6.6291 8.88333 6.54464 8.89919 6.45722 8.89919C6.36968 8.89919 6.26352 8.8554 6.13859 8.76789C6.01369 8.68037 5.88406 8.56017 5.74971 8.40707C5.61535 8.25394 5.46383 8.03995 5.29508 7.76507C5.12645 7.49019 4.9515 7.16532 4.7703 6.79045L4.62039 6.51859C4.52667 6.3437 4.39865 6.08904 4.2362 5.75485C4.07365 5.42052 3.92997 5.09712 3.80507 4.78473C3.75515 4.65352 3.68014 4.55364 3.58019 4.4849L3.53328 4.4567C3.5021 4.43175 3.45204 4.40526 3.38337 4.37703C3.3146 4.34884 3.24284 4.32862 3.1678 4.31618L0.599915 4.33482C0.337509 4.33482 0.159465 4.39427 0.0657162 4.513L0.0281969 4.56916C0.00945368 4.60044 0 4.6504 0 4.71917C0 4.78791 0.0187432 4.87227 0.0562625 4.97216C0.431127 5.85319 0.838784 6.70288 1.27923 7.52134C1.71968 8.33981 2.10243 8.99911 2.42723 9.49865C2.7521 9.99854 3.08325 10.4703 3.42066 10.9138C3.75807 11.3574 3.98141 11.6417 4.09069 11.7666C4.20009 11.8918 4.28603 11.9853 4.3485 12.0478L4.58284 12.2727C4.73278 12.4227 4.95297 12.6023 5.24351 12.8115C5.53411 13.0209 5.85583 13.2271 6.20883 13.4303C6.5619 13.6332 6.97265 13.7988 7.44129 13.9268C7.90987 14.055 8.36595 14.1064 8.80958 14.0816H9.88737C10.1059 14.0627 10.2716 13.994 10.3841 13.8754L10.4214 13.8284C10.4465 13.7911 10.4699 13.7332 10.4916 13.6552C10.5135 13.5771 10.5244 13.4911 10.5244 13.3975C10.518 13.1289 10.5385 12.8868 10.5852 12.6713C10.6319 12.4558 10.6852 12.2934 10.7447 12.184C10.8042 12.0746 10.8714 11.9824 10.9461 11.9076C11.0211 11.8327 11.0744 11.7873 11.1057 11.7717C11.1369 11.7559 11.1617 11.7453 11.1805 11.7389C11.3304 11.6889 11.5069 11.7373 11.7101 11.8843C11.9132 12.0311 12.1037 12.2124 12.2819 12.4278C12.4599 12.6435 12.6739 12.8855 12.9238 13.1541C13.1738 13.4228 13.3924 13.6225 13.5798 13.7539L13.7671 13.8664C13.8923 13.9414 14.0547 14.0102 14.2547 14.0726C14.4543 14.1351 14.6292 14.1507 14.7794 14.1195L17.1785 14.0821C17.4158 14.0821 17.6004 14.0428 17.7314 13.9648C17.8626 13.8867 17.9406 13.8007 17.9657 13.7071C17.9908 13.6134 17.9922 13.5071 17.9705 13.3883C17.9483 13.2698 17.9264 13.1869 17.9046 13.14Z" fill="white"/>
</g>
<defs>
<clipPath id="clip0">
<rect width="18" height="18" fill="white"/>
</clipPath>
</defs>
</svg>
