<svg width="207" height="207" viewBox="0 0 207 207" fill="none" xmlns="http://www.w3.org/2000/svg">
<path d="M90.4115 50.9257L79.0145 39.4037C77.6706 37.7973 75.2793 37.5848 73.6728 38.9287C72.0664 40.2726 71.8539 42.6639 73.1978 44.2704C73.3322 44.4308 73.4796 44.5803 73.639 44.7168L85.036 56.2387C86.6262 57.6014 89.0202 57.4164 90.3828 55.8262C91.5882 54.4193 91.6007 52.3467 90.4115 50.9257Z" fill="#B79E5B"/>
<path d="M187.042 40.0002C185.698 38.3938 183.307 38.1812 181.7 39.5251C181.54 39.6595 181.39 39.8069 181.254 39.9663L169.732 51.3632C168.126 52.7071 167.913 55.0985 169.257 56.7049C170.601 58.3113 172.992 58.5238 174.599 57.18C174.759 57.0456 174.908 56.8982 175.045 56.7388L186.567 45.3418C188.173 43.9979 188.386 41.6066 187.042 40.0002Z" fill="#B79E5B"/>
<path d="M118.374 37.6267C118.351 37.5163 118.323 37.4074 118.289 37.2996L114.122 21.6314C113.689 19.5942 111.686 18.2941 109.649 18.727C107.612 19.1598 106.311 21.1631 106.744 23.2003C106.768 23.3108 106.796 23.4196 106.829 23.5274L110.996 39.1956C111.43 41.2328 113.432 42.5329 115.47 42.1001C117.507 41.6672 118.808 39.6639 118.374 37.6267Z" fill="#B79E5B"/>
<path d="M170.19 118.307C169.482 117.599 168.746 116.905 167.982 116.224L168.607 115.099C169.382 113.673 170.078 112.205 170.69 110.703C179.566 88.5363 168.791 63.3718 146.625 54.4965C146.583 54.4798 146.542 54.4631 146.5 54.447C126.461 46.4592 103.599 54.4595 92.9117 73.1988C66.7894 65.9033 39.6987 81.1652 32.4027 107.288C31.1885 111.635 30.5796 116.128 30.5931 120.641C30.5931 121.266 30.5931 121.919 30.5931 122.6C12.4575 123.886 -1.20221 139.63 0.0838515 157.765C1.29908 174.906 15.4937 188.228 32.6766 188.356H32.7808H141.125C163.782 188.395 182.181 170.06 182.221 147.402C182.24 136.49 177.91 126.02 170.19 118.307ZM117.352 61.4893C125.801 58.1291 135.217 58.1291 143.667 61.4893C161.985 68.7979 170.925 89.5593 163.648 107.89C163.121 109.152 162.523 110.383 161.856 111.578V111.911C151.396 105.83 138.787 104.672 127.394 108.744C125.291 100.355 121.007 92.6705 114.976 86.471C119.19 78.6483 128.577 75.1975 136.854 78.4285C138.832 79.0791 140.963 78.0024 141.614 76.0241C142.211 74.2093 141.356 72.2347 139.625 71.4278C128.387 66.9248 115.537 71.12 109.122 81.3871C106.278 79.2494 103.212 77.4258 99.9749 75.9491C104.044 69.3708 110.143 64.2954 117.352 61.4893ZM149.04 179.856C146.461 180.472 143.818 180.78 141.166 180.772H32.8225C18.8185 180.76 7.47625 169.397 7.48875 155.393C7.495 148.681 10.1614 142.246 14.9041 137.497L14.8624 137.518C19.6113 132.761 26.0593 130.092 32.7808 130.101H33.6976H34.5102C36.588 130.242 38.3876 128.673 38.5288 126.595C38.5512 126.269 38.5309 125.942 38.4689 125.621C38.3855 124.899 38.3163 124.114 38.2605 123.267C38.2605 122.475 38.2605 121.6 38.2605 120.621C38.5694 97.6778 57.4187 79.3291 80.3621 79.638C100.522 79.9094 117.577 94.6155 120.81 114.516C121.109 116.577 123.021 118.006 125.083 117.708C125.481 117.65 125.868 117.529 126.228 117.35C128.535 116.196 130.968 115.315 133.478 114.724C151.464 110.427 169.528 121.524 173.825 139.51C178.122 157.495 167.025 175.558 149.04 179.856Z" fill="#B79E5B"/>
<path d="M206.831 75.7344C206.256 73.8691 204.352 72.7512 202.443 73.157L186.775 77.3241C184.763 77.845 183.552 79.8947 184.066 81.9079C184.585 83.9248 186.641 85.1389 188.659 84.6196C188.663 84.6186 188.667 84.6175 188.671 84.6165L204.339 80.4494C206.33 79.8358 207.445 77.7247 206.831 75.7344Z" fill="#B79E5B"/>
<path d="M204.173 112.599L188.546 108.327C186.538 107.752 184.444 108.913 183.869 110.921C183.293 112.929 184.455 115.023 186.463 115.599L202.089 119.87C204.097 120.446 206.191 119.284 206.767 117.276C207.342 115.268 206.181 113.174 204.173 112.599Z" fill="#B79E5B"/>
<path d="M150.928 19.0997C148.92 18.5241 146.826 19.6857 146.25 21.6937L141.979 37.3202C141.383 39.3157 142.518 41.417 144.513 42.0129C144.557 42.0259 144.601 42.0384 144.646 42.0498C146.644 42.6379 148.741 41.4951 149.329 39.497C149.338 39.4663 149.346 39.435 149.355 39.4038L153.522 23.7772C154.097 21.7692 152.936 19.6752 150.928 19.0997Z" fill="#B79E5B"/>
</svg>
