<svg width="250" height="55" viewBox="0 0 250 55" fill="none" xmlns="http://www.w3.org/2000/svg">
<path d="M19.3211 22.458C16.7491 20.2719 14.3891 17.8468 12.2743 15.2146C9.64767 17.1572 6.83786 18.8654 3.87238 20.3033C5.66448 23.1226 7.72515 25.7527 10.02 28.1613C13.3328 26.5921 16.446 24.6731 19.3211 22.458" fill="url(#paint0_linear)"/>
<path d="M8.21469 42.2344C11.9481 41.2244 15.5662 39.8045 18.9095 38.0186C15.5157 35.8996 12.3735 33.4151 9.54989 30.6083C6.68544 31.8686 3.68983 32.88 0.588318 33.6211C2.81978 36.7736 5.34147 39.6654 8.21469 42.2344Z" fill="#FF3E28"/>
<path d="M20.94 36.8724V36.8723C24.3509 34.8448 27.5031 32.4292 30.3416 29.69C26.9931 28.0478 23.7005 26.3294 20.94 24.455V24.4552C18.1795 26.3296 14.887 28.048 11.5385 29.6902C14.3769 32.4295 17.5291 34.8449 20.94 36.8724Z" fill="url(#paint1_linear)"/>
<path d="M16.2514 50.4296C13.2203 48.7202 10.3713 46.7269 7.74613 44.4758C6.07092 44.892 4.36369 45.2251 2.63098 45.479C2.75929 45.6762 2.90229 45.8624 3.03684 46.055C4.14797 47.5712 7.3742 51.5634 10.5435 51.5634C14.4553 51.5634 16.238 50.4291 16.238 50.4291L16.2514 50.4296" fill="url(#paint2_linear)"/>
<path d="M19.6195 5.58014C18.5964 4.29799 17.6384 2.96263 16.7355 1.5881C16.7355 1.5881 11.4245 6.22512 11.5391 10.7843C11.9001 11.3125 12.2541 11.8459 12.6346 12.3594C15.173 10.3252 17.5117 8.05492 19.6195 5.58014Z" fill="url(#paint3_linear)"/>
<path d="M20.939 4.34485V4.34474C21.6133 3.48448 22.2583 2.60005 22.8897 1.70622C23.0448 0.28069 20.939 -4.36775e-05 20.939 -4.36775e-05V5.9427e-05C20.939 5.9427e-05 18.8332 0.280898 18.9884 1.70632C19.6198 2.60026 20.2647 3.48459 20.939 4.34485" fill="url(#paint4_linear)"/>
<path d="M5.85711 42.7747C3.8792 40.9081 2.06838 38.8738 0.39962 36.7231C0.382604 36.7174 0.363156 36.7169 0.350895 36.7013C0.205675 36.515 0.0114147 36.6578 0 36.8784C0.318237 38.4358 1.11938 41.6743 2.39814 42.4087C3.87972 43.2596 5.47355 42.8846 5.85711 42.7747Z" fill="url(#paint5_linear)"/>
<path d="M2.99013 30.8568C4.71702 30.3389 6.41063 29.7437 8.05402 29.0493C6.04726 26.8863 4.23296 24.5472 2.60679 22.0732C2.57709 22.0423 2.5458 22.0058 2.50976 21.9513C2.1799 21.4523 1.42886 21.6526 1.39007 22.3332C1.16473 24.8298 0.788366 31.2956 2.99013 30.8568Z" fill="url(#paint6_linear)"/>
<path d="M11.0224 13.6065C10.1283 12.402 9.30215 11.1463 8.51253 9.86579C8.49171 9.84995 8.46983 9.82736 8.44563 9.7884C8.16935 9.34339 7.69501 9.50629 7.53689 9.76222C6.73681 11.3555 5.09003 14.9889 5.53044 17.1327C7.43733 16.0694 9.27478 14.8962 11.0224 13.6065" fill="url(#paint7_linear)"/>
<path d="M22.5578 22.4577C25.4329 24.6728 28.5461 26.5918 31.8589 28.1609C34.1537 25.7524 36.2144 23.1222 38.0065 20.3031C35.041 18.8651 32.2312 17.1568 29.6046 15.2143C27.4898 17.8466 25.1298 20.2715 22.5578 22.4577" fill="url(#paint8_linear)"/>
<path d="M41.2907 33.621C38.1891 32.88 35.1935 31.8685 32.3291 30.6082C29.5054 33.415 26.3632 35.8995 22.9695 38.0185C26.3128 39.8044 29.9308 41.2244 33.6643 42.2344C36.5375 39.6654 39.0592 36.7735 41.2907 33.621" fill="url(#paint9_linear)"/>
<path d="M20.9398 21.1652C23.522 19.0042 25.8846 16.5909 27.9954 13.9669C25.4391 11.9209 23.247 10.029 20.9398 7.84575V7.84596C18.6326 10.0292 16.4405 11.921 13.8842 13.967C15.995 16.5911 18.3575 19.0043 20.9398 21.1653V21.1652" fill="url(#paint10_linear)"/>
<path d="M25.6275 50.4294L25.6409 50.4289C25.6409 50.4289 27.4236 51.5631 31.3355 51.5631C34.5047 51.5631 37.731 47.5709 38.8421 46.0547C38.9766 45.8621 39.1196 45.6758 39.248 45.4787C37.5153 45.2248 35.808 44.8917 34.1328 44.4756C31.5076 46.7266 28.6586 48.7199 25.6275 50.4294" fill="url(#paint11_linear)"/>
<path d="M20.9397 50.5486V50.5484C24.8301 48.7549 28.46 46.4916 31.7489 43.8217C27.9498 42.6859 24.1997 41.4345 20.9397 39.8997C20.9397 39.8998 20.9397 39.8998 20.9397 39.8998V39.8999C17.6797 41.4347 13.9296 42.686 10.1306 43.8218C13.4195 46.4918 17.0493 48.755 20.9397 50.5486Z" fill="url(#paint12_linear)"/>
<path d="M20.94 52.0193V52.0195C20.94 52.0195 15.362 53.1084 12.7289 52.8552C13.855 53.4782 14.9194 53.8113 15.6716 54.0025C15.6696 54.0031 15.6676 54.004 15.6655 54.0046C15.7 54.0131 15.7355 54.0188 15.77 54.0272C16.0876 54.1056 16.349 54.1606 16.5161 54.1974L16.5283 54.1914C17.9538 54.4848 19.4275 54.649 20.94 54.649V54.6488C22.4526 54.6488 23.9263 54.4846 25.3518 54.1913L25.364 54.1972C25.5311 54.1604 25.7924 54.1054 26.11 54.0271C26.1446 54.0186 26.1801 54.0129 26.2146 54.0044C26.2125 54.0038 26.2105 54.003 26.2084 54.0023C26.9607 53.8111 28.0252 53.4781 29.1512 52.8551C26.5181 53.1082 20.94 52.0193 20.94 52.0193" fill="url(#paint13_linear)"/>
<path d="M29.2442 12.3591C29.6246 11.8457 29.9786 11.3123 30.3396 10.7842C30.4542 6.22489 25.1432 1.58796 25.1432 1.58796C24.2403 2.96239 23.2823 4.29775 22.2592 5.5799C24.367 8.05467 26.7057 10.325 29.2442 12.3591" fill="url(#paint14_linear)"/>
<path d="M41.5282 36.7011C41.516 36.7168 41.4965 36.7173 41.4795 36.723C39.8108 38.8736 37.9999 40.9079 36.022 42.7745C36.4056 42.8845 37.9994 43.2596 39.481 42.4085C40.7598 41.6741 41.5609 38.4357 41.8791 36.8783C41.8677 36.6576 41.6735 36.5149 41.5282 36.7011" fill="url(#paint15_linear)"/>
<path d="M38.8893 30.8568C41.091 31.2956 40.7147 24.8297 40.4893 22.3332C40.4506 21.6526 39.6995 21.4522 39.3696 21.9513C39.3336 22.0057 39.3023 22.0423 39.2726 22.0731C37.6464 24.5472 35.8321 26.8862 33.8254 29.0492C35.4688 29.7437 37.1624 30.3389 38.8893 30.8568Z" fill="url(#paint16_linear)"/>
<path d="M34.3417 9.7621C34.1836 9.50628 33.7091 9.34337 33.433 9.78828C33.4088 9.82724 33.3869 9.84983 33.3661 9.86567C32.5764 11.1462 31.7502 12.402 30.8562 13.6063C32.6038 14.8962 34.4413 16.0693 36.3481 17.1326C36.7885 14.9889 35.1418 11.3555 34.3417 9.7621" fill="url(#paint17_linear)"/>
<path d="M73.6016 36.4961C73.6016 36.832 73.4023 37 73.0039 37H70.1914C69.8945 37 69.5664 36.8945 69.207 36.6836C68.8555 36.4648 68.5859 36.2031 68.3984 35.8984L66.4062 32.7812C65.5859 31.5 64.5938 30.8594 63.4297 30.8594H60.5703V35.8984C60.5703 36.2031 60.4609 36.4648 60.2422 36.6836C60.0312 36.8945 59.7734 37 59.4688 37H57.2656C56.9609 37 56.6992 36.8945 56.4805 36.6836C56.2617 36.4648 56.1523 36.2031 56.1523 35.8984V21.3086C56.1523 21.0039 56.2578 20.7422 56.4688 20.5234C56.6797 20.3047 56.9375 20.1953 57.2422 20.1953H66.9102C68.6992 20.1953 70.1641 20.6758 71.3047 21.6367C72.4531 22.5977 73.0273 23.8945 73.0273 25.5273C73.0273 27.8008 71.5547 29.2266 68.6094 29.8047C69.0781 29.9766 69.5117 30.2734 69.9102 30.6953C70.3086 31.1094 70.7656 31.7148 71.2812 32.5117L73.4141 35.8984C73.5391 36.1172 73.6016 36.3164 73.6016 36.4961ZM60.5703 27.543H65.5625C66.3672 27.543 67.0742 27.3828 67.6836 27.0625C68.3008 26.7422 68.6094 26.2305 68.6094 25.5273C68.6094 24.8242 68.3008 24.3125 67.6836 23.9922C67.0742 23.6719 66.3672 23.5117 65.5625 23.5117H60.5703V27.543ZM75.207 31.5977V24.8828C75.207 24.6719 75.2734 24.5 75.4062 24.3672C75.5469 24.2266 75.7188 24.1562 75.9219 24.1562H78.5469C78.75 24.1562 78.918 24.2266 79.0508 24.3672C79.1914 24.5 79.2617 24.6719 79.2617 24.8828V31.5977C79.2617 33.4727 80.0039 34.4102 81.4883 34.4102C82.4648 34.4102 83.5156 33.8477 84.6406 32.7227V24.8828C84.6406 24.6719 84.707 24.5 84.8398 24.3672C84.9805 24.2266 85.1523 24.1562 85.3555 24.1562H87.9688C88.1797 24.1562 88.3516 24.2266 88.4844 24.3672C88.625 24.5 88.6953 24.6719 88.6953 24.8828V36.2852C88.6953 36.4883 88.625 36.6602 88.4844 36.8008C88.3516 36.9336 88.1797 37 87.9688 37H85.3555C85.1523 37 84.9805 36.9336 84.8398 36.8008C84.707 36.6602 84.6406 36.4883 84.6406 36.2852V35.5352C83.2969 36.668 81.8633 37.2344 80.3398 37.2344C78.8242 37.2344 77.5898 36.7734 76.6367 35.8516C75.6836 34.9219 75.207 33.5039 75.207 31.5977ZM90.8633 27.707C90.8633 25.1836 92.8984 23.9219 96.9688 23.9219C101.25 23.9219 103.391 25.043 103.391 27.2852C103.391 27.4883 103.324 27.6602 103.191 27.8008C103.059 27.9336 102.887 28 102.676 28H100.93C100.367 28 99.8945 27.7656 99.5117 27.2969C99.1289 26.8203 98.375 26.582 97.25 26.582C95.7031 26.582 94.9297 26.957 94.9297 27.707C94.9297 28.0586 95.2305 28.3516 95.832 28.5859C96.4414 28.8203 97.1797 29.0273 98.0469 29.207C98.9219 29.3789 99.793 29.6016 100.66 29.875C101.527 30.1484 102.262 30.5859 102.863 31.1875C103.473 31.7812 103.777 32.5352 103.777 33.4492C103.777 35.9727 101.629 37.2344 97.332 37.2344C93.0352 37.2344 90.8867 36.1172 90.8867 33.8828C90.8867 33.6719 90.9531 33.5 91.0859 33.3672C91.2266 33.2266 91.4023 33.1562 91.6133 33.1562H93.3594C93.9219 33.1562 94.3945 33.3945 94.7773 33.8711C95.1602 34.3398 95.9141 34.5742 97.0391 34.5742C98.8281 34.5742 99.7227 34.1992 99.7227 33.4492C99.7227 33.0977 99.418 32.8047 98.8086 32.5703C98.207 32.3359 97.4688 32.1289 96.5938 31.9492C95.7188 31.7617 94.8477 31.5352 93.9805 31.2695C93.1211 30.9961 92.3867 30.5586 91.7773 29.957C91.168 29.3555 90.8633 28.6055 90.8633 27.707ZM105.23 27.707C105.23 25.1836 107.266 23.9219 111.336 23.9219C115.617 23.9219 117.758 25.043 117.758 27.2852C117.758 27.4883 117.691 27.6602 117.559 27.8008C117.426 27.9336 117.254 28 117.043 28H115.297C114.734 28 114.262 27.7656 113.879 27.2969C113.496 26.8203 112.742 26.582 111.617 26.582C110.07 26.582 109.297 26.957 109.297 27.707C109.297 28.0586 109.598 28.3516 110.199 28.5859C110.809 28.8203 111.547 29.0273 112.414 29.207C113.289 29.3789 114.16 29.6016 115.027 29.875C115.895 30.1484 116.629 30.5859 117.23 31.1875C117.84 31.7812 118.145 32.5352 118.145 33.4492C118.145 35.9727 115.996 37.2344 111.699 37.2344C107.402 37.2344 105.254 36.1172 105.254 33.8828C105.254 33.6719 105.32 33.5 105.453 33.3672C105.594 33.2266 105.77 33.1562 105.98 33.1562H107.727C108.289 33.1562 108.762 33.3945 109.145 33.8711C109.527 34.3398 110.281 34.5742 111.406 34.5742C113.195 34.5742 114.09 34.1992 114.09 33.4492C114.09 33.0977 113.785 32.8047 113.176 32.5703C112.574 32.3359 111.836 32.1289 110.961 31.9492C110.086 31.7617 109.215 31.5352 108.348 31.2695C107.488 30.9961 106.754 30.5586 106.145 29.957C105.535 29.3555 105.23 28.6055 105.23 27.707ZM120.324 21.707V21.3086C120.324 20.8945 120.441 20.5664 120.676 20.3242C120.918 20.082 121.25 19.9609 121.672 19.9609H123.125C123.539 19.9609 123.867 20.082 124.109 20.3242C124.352 20.5586 124.473 20.8867 124.473 21.3086V21.707C124.473 22.1211 124.352 22.4492 124.109 22.6914C123.875 22.9336 123.547 23.0547 123.125 23.0547H121.672C121.258 23.0547 120.93 22.9336 120.688 22.6914C120.445 22.4492 120.324 22.1211 120.324 21.707ZM120.371 36.2852V25.1641C120.371 24.9531 120.438 24.7812 120.57 24.6484C120.711 24.5156 120.883 24.4492 121.086 24.4492H123.711C123.922 24.4492 124.094 24.5195 124.227 24.6602C124.359 24.793 124.426 24.9609 124.426 25.1641V36.2852C124.426 36.4961 124.355 36.668 124.215 36.8008C124.082 36.9336 123.914 37 123.711 37H121.086C120.875 37 120.703 36.9336 120.57 36.8008C120.438 36.668 120.371 36.4961 120.371 36.2852ZM128.176 36.1562C127.145 35.4375 126.629 34.4219 126.629 33.1094C126.629 31.7969 127.145 30.7891 128.176 30.0859C129.215 29.3828 130.551 29.0312 132.184 29.0312H136.062C136.062 28.1172 135.871 27.4805 135.488 27.1211C135.105 26.7617 134.434 26.582 133.473 26.582C132.52 26.582 131.848 26.8203 131.457 27.2969C131.074 27.7656 130.602 28 130.039 28H128.293C128.082 28 127.906 27.9336 127.766 27.8008C127.633 27.6602 127.566 27.4883 127.566 27.2852C127.566 25.043 129.695 23.9219 133.953 23.9219C135.812 23.9219 137.305 24.3398 138.43 25.1758C139.555 26.0039 140.117 27.2891 140.117 29.0312V36.2852C140.117 36.4961 140.051 36.668 139.918 36.8008C139.785 36.9336 139.613 37 139.402 37H137.141C136.93 37 136.758 36.9336 136.625 36.8008C136.492 36.6602 136.426 36.4883 136.426 36.2852V35.9219C135.191 36.8047 133.766 37.2422 132.148 37.2344C130.539 37.2344 129.215 36.875 128.176 36.1562ZM132.465 31.6914C131.918 31.6914 131.484 31.8242 131.164 32.0898C130.852 32.3555 130.695 32.6992 130.695 33.1211C130.695 33.543 130.859 33.8906 131.188 34.1641C131.516 34.4375 131.98 34.5742 132.582 34.5742C133.785 34.5742 134.945 34.2227 136.062 33.5195V31.6914H132.465ZM143.012 36.2852V24.8828C143.012 24.6719 143.078 24.5 143.211 24.3672C143.352 24.2266 143.523 24.1562 143.727 24.1562H146.352C146.555 24.1562 146.723 24.2266 146.855 24.3672C146.996 24.5 147.066 24.6719 147.066 24.8828V25.6211C148.41 24.4883 149.84 23.9219 151.355 23.9219C152.879 23.9219 154.117 24.3867 155.07 25.3164C156.023 26.2383 156.5 27.6523 156.5 29.5586V36.2852C156.5 36.4883 156.43 36.6602 156.289 36.8008C156.156 36.9336 155.984 37 155.773 37H153.16C152.957 37 152.785 36.9336 152.645 36.8008C152.512 36.6602 152.445 36.4883 152.445 36.2852V29.5586C152.445 27.6914 151.699 26.7578 150.207 26.7578C149.23 26.7578 148.184 27.3164 147.066 28.4336V36.2852C147.066 36.4883 146.996 36.6602 146.855 36.8008C146.723 36.9336 146.555 37 146.352 37H143.727C143.523 37 143.352 36.9336 143.211 36.8008C143.078 36.6602 143.012 36.4883 143.012 36.2852ZM168.043 35.875V21.2852C168.043 20.9805 168.152 20.7227 168.371 20.5117C168.59 20.3008 168.852 20.1953 169.156 20.1953H182.668C182.973 20.1953 183.23 20.3047 183.441 20.5234C183.66 20.7422 183.77 21.0039 183.77 21.3086V22.4102C183.77 22.7148 183.66 22.9766 183.441 23.1953C183.23 23.4062 182.973 23.5117 182.668 23.5117H172.461V27.6367H180.77C181.074 27.6367 181.332 27.7461 181.543 27.9648C181.762 28.1836 181.871 28.4414 181.871 28.7383V29.8516C181.871 30.1562 181.762 30.418 181.543 30.6367C181.332 30.8477 181.074 30.9531 180.77 30.9531H172.461V35.875C172.461 36.1953 172.352 36.4648 172.133 36.6836C171.922 36.8945 171.664 37 171.359 37H169.156C168.852 37 168.59 36.8945 168.371 36.6836C168.152 36.4648 168.043 36.1953 168.043 35.875ZM193.754 27.1328L191.949 27.0625C190.895 27.0625 189.887 27.6406 188.926 28.7969V36.2852C188.926 36.4961 188.855 36.668 188.715 36.8008C188.582 36.9336 188.414 37 188.211 37H185.586C185.375 37 185.203 36.9336 185.07 36.8008C184.938 36.668 184.871 36.4961 184.871 36.2852V24.8828C184.871 24.6719 184.938 24.5 185.07 24.3672C185.211 24.2266 185.383 24.1562 185.586 24.1562H188.211C188.422 24.1562 188.594 24.2266 188.727 24.3672C188.859 24.5 188.926 24.6719 188.926 24.8828V25.6211C189.723 25.043 190.488 24.6172 191.223 24.3438C191.965 24.0625 192.934 23.9219 194.129 23.9219C194.34 23.9219 194.512 23.9922 194.645 24.1328C194.785 24.2656 194.855 24.4336 194.855 24.6367V26.418C194.855 26.6289 194.785 26.8008 194.645 26.9336C194.512 27.0664 194.34 27.1328 194.129 27.1328H193.754ZM196.543 21.707V21.3086C196.543 20.8945 196.66 20.5664 196.895 20.3242C197.137 20.082 197.469 19.9609 197.891 19.9609H199.344C199.758 19.9609 200.086 20.082 200.328 20.3242C200.57 20.5586 200.691 20.8867 200.691 21.3086V21.707C200.691 22.1211 200.57 22.4492 200.328 22.6914C200.094 22.9336 199.766 23.0547 199.344 23.0547H197.891C197.477 23.0547 197.148 22.9336 196.906 22.6914C196.664 22.4492 196.543 22.1211 196.543 21.707ZM196.59 36.2852V25.1641C196.59 24.9531 196.656 24.7812 196.789 24.6484C196.93 24.5156 197.102 24.4492 197.305 24.4492H199.93C200.141 24.4492 200.312 24.5195 200.445 24.6602C200.578 24.793 200.645 24.9609 200.645 25.1641V36.2852C200.645 36.4961 200.574 36.668 200.434 36.8008C200.301 36.9336 200.133 37 199.93 37H197.305C197.094 37 196.922 36.9336 196.789 36.8008C196.656 36.668 196.59 36.4961 196.59 36.2852ZM204.652 35.5234C203.449 34.3828 202.848 32.7422 202.848 30.6016C202.848 28.4531 203.453 26.8047 204.664 25.6562C205.875 24.5 207.555 23.9219 209.703 23.9219C211.852 23.9219 213.527 24.4844 214.73 25.6094C215.934 26.7266 216.535 28.332 216.535 30.4258V31.0938C216.535 31.3047 216.465 31.4805 216.324 31.6211C216.191 31.7539 216.02 31.8203 215.809 31.8203H206.984C207.062 32.7812 207.336 33.4805 207.805 33.918C208.281 34.3555 209.039 34.5742 210.078 34.5742C211.117 34.5742 211.828 34.3398 212.211 33.8711C212.594 33.4023 213.066 33.1641 213.629 33.1562H215.375C215.586 33.1562 215.758 33.2266 215.891 33.3672C216.031 33.5 216.102 33.6719 216.102 33.8828C216.102 36.125 213.965 37.2422 209.691 37.2344C207.535 37.2344 205.855 36.6641 204.652 35.5234ZM206.961 29.3477H212.41C212.332 27.5039 211.426 26.582 209.691 26.582C207.965 26.582 207.055 27.5039 206.961 29.3477ZM218.691 36.2852V24.8828C218.691 24.6719 218.758 24.5 218.891 24.3672C219.031 24.2266 219.203 24.1562 219.406 24.1562H222.031C222.234 24.1562 222.402 24.2266 222.535 24.3672C222.676 24.5 222.746 24.6719 222.746 24.8828V25.6211C224.09 24.4883 225.52 23.9219 227.035 23.9219C228.559 23.9219 229.797 24.3867 230.75 25.3164C231.703 26.2383 232.18 27.6523 232.18 29.5586V36.2852C232.18 36.4883 232.109 36.6602 231.969 36.8008C231.836 36.9336 231.664 37 231.453 37H228.84C228.637 37 228.465 36.9336 228.324 36.8008C228.191 36.6602 228.125 36.4883 228.125 36.2852V29.5586C228.125 27.6914 227.379 26.7578 225.887 26.7578C224.91 26.7578 223.863 27.3164 222.746 28.4336V36.2852C222.746 36.4883 222.676 36.6602 222.535 36.8008C222.402 36.9336 222.234 37 222.031 37H219.406C219.203 37 219.031 36.9336 218.891 36.8008C218.758 36.6602 218.691 36.4883 218.691 36.2852ZM240.09 37.2344C238.457 37.2344 237.09 36.6602 235.988 35.5117C234.895 34.3633 234.348 32.7188 234.348 30.5781C234.348 28.4297 234.914 26.7852 236.047 25.6445C237.188 24.4961 238.719 23.9219 240.641 23.9219C241.633 23.9219 242.762 24.1211 244.027 24.5195V20.9219C244.027 20.7109 244.094 20.5391 244.227 20.4062C244.367 20.2656 244.539 20.1953 244.742 20.1953H247.355C247.566 20.1953 247.738 20.2656 247.871 20.4062C248.012 20.5391 248.082 20.7109 248.082 20.9219V36.2852C248.082 36.4883 248.012 36.6602 247.871 36.8008C247.738 36.9336 247.566 37 247.355 37H245.105C244.895 37 244.723 36.9336 244.59 36.8008C244.457 36.6602 244.391 36.4883 244.391 36.2852V35.9219C243.156 36.7969 241.723 37.2344 240.09 37.2344ZM241.484 26.7578C240.406 26.7578 239.645 27.0625 239.199 27.6719C238.754 28.2734 238.531 29.2422 238.531 30.5781C238.531 31.9141 238.742 32.8867 239.164 33.4961C239.586 34.1055 240.219 34.4102 241.062 34.4102C241.914 34.4102 242.902 34.0586 244.027 33.3555V27.2266C243.02 26.9141 242.172 26.7578 241.484 26.7578Z" fill="url(#paint18_linear)"/>
<defs>
<linearGradient id="paint0_linear" x1="11.5967" y1="28.1613" x2="11.5967" y2="15.2146" gradientUnits="userSpaceOnUse">
<stop offset="0.497917" stop-color="#006660"/>
<stop offset="1" stop-color="#30706C" stop-opacity="0"/>
</linearGradient>
<linearGradient id="paint1_linear" x1="20.94" y1="36.8724" x2="20.94" y2="24.455" gradientUnits="userSpaceOnUse">
<stop offset="0.497917" stop-color="#006660"/>
<stop offset="1" stop-color="#30706C" stop-opacity="0"/>
</linearGradient>
<linearGradient id="paint2_linear" x1="9.44121" y1="51.5634" x2="9.44121" y2="44.4758" gradientUnits="userSpaceOnUse">
<stop offset="0.497917" stop-color="#006660"/>
<stop offset="1" stop-color="#30706C" stop-opacity="0"/>
</linearGradient>
<linearGradient id="paint3_linear" x1="15.5784" y1="12.3594" x2="15.5784" y2="1.5881" gradientUnits="userSpaceOnUse">
<stop offset="0.497917" stop-color="#006660"/>
<stop offset="1" stop-color="#30706C" stop-opacity="0"/>
</linearGradient>
<linearGradient id="paint4_linear" x1="20.939" y1="4.34485" x2="20.939" y2="-4.3869e-05" gradientUnits="userSpaceOnUse">
<stop offset="0.497917" stop-color="#006660"/>
<stop offset="1" stop-color="#30706C" stop-opacity="0"/>
</linearGradient>
<linearGradient id="paint5_linear" x1="2.92855" y1="42.952" x2="2.92855" y2="36.6153" gradientUnits="userSpaceOnUse">
<stop offset="0.497917" stop-color="#006660"/>
<stop offset="1" stop-color="#30706C" stop-opacity="0"/>
</linearGradient>
<linearGradient id="paint6_linear" x1="4.6345" y1="30.8781" x2="4.6345" y2="21.6734" gradientUnits="userSpaceOnUse">
<stop offset="0.497917" stop-color="#006660"/>
<stop offset="1" stop-color="#30706C" stop-opacity="0"/>
</linearGradient>
<linearGradient id="paint7_linear" x1="8.23962" y1="17.1327" x2="8.23962" y2="9.51001" gradientUnits="userSpaceOnUse">
<stop offset="0.497917" stop-color="#006660"/>
<stop offset="1" stop-color="#30706C" stop-opacity="0"/>
</linearGradient>
<linearGradient id="paint8_linear" x1="30.2822" y1="28.1609" x2="30.2822" y2="15.2143" gradientUnits="userSpaceOnUse">
<stop offset="0.497917" stop-color="#006660"/>
<stop offset="1" stop-color="#30706C" stop-opacity="0"/>
</linearGradient>
<linearGradient id="paint9_linear" x1="32.1301" y1="42.2344" x2="32.1301" y2="30.6082" gradientUnits="userSpaceOnUse">
<stop offset="0.497917" stop-color="#006660"/>
<stop offset="1" stop-color="#30706C" stop-opacity="0"/>
</linearGradient>
<linearGradient id="paint10_linear" x1="20.9398" y1="21.1653" x2="20.9398" y2="7.84575" gradientUnits="userSpaceOnUse">
<stop offset="0.497917" stop-color="#006660"/>
<stop offset="1" stop-color="#30706C" stop-opacity="0"/>
</linearGradient>
<linearGradient id="paint11_linear" x1="32.4377" y1="51.5631" x2="32.4377" y2="44.4756" gradientUnits="userSpaceOnUse">
<stop offset="0.497917" stop-color="#006660"/>
<stop offset="1" stop-color="#30706C" stop-opacity="0"/>
</linearGradient>
<linearGradient id="paint12_linear" x1="20.9397" y1="50.5486" x2="20.9397" y2="39.8997" gradientUnits="userSpaceOnUse">
<stop offset="0.497917" stop-color="#006660"/>
<stop offset="1" stop-color="#30706C" stop-opacity="0"/>
</linearGradient>
<linearGradient id="paint13_linear" x1="20.94" y1="54.649" x2="20.94" y2="52.0193" gradientUnits="userSpaceOnUse">
<stop offset="0.497917" stop-color="#006660"/>
<stop offset="1" stop-color="#30706C" stop-opacity="0"/>
</linearGradient>
<linearGradient id="paint14_linear" x1="26.3003" y1="12.3591" x2="26.3003" y2="1.58796" gradientUnits="userSpaceOnUse">
<stop offset="0.497917" stop-color="#006660"/>
<stop offset="1" stop-color="#30706C" stop-opacity="0"/>
</linearGradient>
<linearGradient id="paint15_linear" x1="38.9506" y1="42.9519" x2="38.9506" y2="36.6152" gradientUnits="userSpaceOnUse">
<stop offset="0.497917" stop-color="#006660"/>
<stop offset="1" stop-color="#30706C" stop-opacity="0"/>
</linearGradient>
<linearGradient id="paint16_linear" x1="37.2449" y1="30.8781" x2="37.2449" y2="21.6733" gradientUnits="userSpaceOnUse">
<stop offset="0.497917" stop-color="#006660"/>
<stop offset="1" stop-color="#30706C" stop-opacity="0"/>
</linearGradient>
<linearGradient id="paint17_linear" x1="33.639" y1="17.1326" x2="33.639" y2="9.50997" gradientUnits="userSpaceOnUse">
<stop offset="0.497917" stop-color="#006660"/>
<stop offset="1" stop-color="#30706C" stop-opacity="0"/>
</linearGradient>
<linearGradient id="paint18_linear" x1="152.658" y1="17" x2="152.658" y2="1.66667" gradientUnits="userSpaceOnUse">
<stop offset="0.471875" stop-color="#455A64"/>
<stop offset="1" stop-color="#455A64" stop-opacity="0"/>
</linearGradient>
</defs>
</svg>
