<svg width="41" height="17" viewBox="0 0 41 17" fill="none" xmlns="http://www.w3.org/2000/svg">
<path d="M6.09766 12.5146C6.09766 12.5967 6.0931 12.6696 6.08398 12.7334C6.07487 12.7926 6.05892 12.8428 6.03613 12.8838C6.01335 12.9248 5.986 12.9544 5.9541 12.9727C5.92676 12.9909 5.89486 13 5.8584 13H1.61328C1.50846 13 1.4082 12.9658 1.3125 12.8975C1.22135 12.8245 1.17578 12.6992 1.17578 12.5215V4.63281C1.17578 4.45508 1.22135 4.33203 1.3125 4.26367C1.4082 4.19076 1.50846 4.1543 1.61328 4.1543H5.81055C5.84701 4.1543 5.87891 4.16341 5.90625 4.18164C5.93815 4.19987 5.96322 4.22949 5.98145 4.27051C5.99967 4.31152 6.01335 4.36393 6.02246 4.42773C6.03613 4.48698 6.04297 4.56217 6.04297 4.65332C6.04297 4.73535 6.03613 4.80827 6.02246 4.87207C6.01335 4.93132 5.99967 4.98145 5.98145 5.02246C5.96322 5.05892 5.93815 5.08626 5.90625 5.10449C5.87891 5.12272 5.84701 5.13184 5.81055 5.13184H2.35156V7.90723H5.31836C5.35482 7.90723 5.38672 7.91862 5.41406 7.94141C5.44596 7.95964 5.47103 7.98698 5.48926 8.02344C5.51204 8.0599 5.52799 8.11003 5.53711 8.17383C5.54622 8.23763 5.55078 8.31283 5.55078 8.39941C5.55078 8.48145 5.54622 8.55208 5.53711 8.61133C5.52799 8.67057 5.51204 8.71842 5.48926 8.75488C5.47103 8.79134 5.44596 8.81868 5.41406 8.83691C5.38672 8.85059 5.35482 8.85742 5.31836 8.85742H2.35156V12.0225H5.8584C5.89486 12.0225 5.92676 12.0316 5.9541 12.0498C5.986 12.068 6.01335 12.0977 6.03613 12.1387C6.05892 12.1751 6.07487 12.2253 6.08398 12.2891C6.0931 12.3483 6.09766 12.4235 6.09766 12.5146ZM14.6973 12.5146C14.6973 12.6058 14.6813 12.6833 14.6494 12.7471C14.6221 12.8109 14.5833 12.8633 14.5332 12.9043C14.4876 12.9453 14.4352 12.9749 14.376 12.9932C14.3167 13.0114 14.2575 13.0205 14.1982 13.0205H13.8223C13.7038 13.0205 13.599 13.0091 13.5078 12.9863C13.4212 12.959 13.3369 12.9134 13.2549 12.8496C13.1774 12.7812 13.0977 12.6901 13.0156 12.5762C12.9382 12.4622 12.8516 12.3164 12.7559 12.1387L9.9668 7.10742C9.82096 6.84766 9.67285 6.5765 9.52246 6.29395C9.37663 6.00684 9.23991 5.72884 9.1123 5.45996H9.09863C9.10775 5.78809 9.11458 6.12305 9.11914 6.46484C9.1237 6.80664 9.12598 7.14616 9.12598 7.4834V12.8223C9.12598 12.8542 9.11686 12.8861 9.09863 12.918C9.0804 12.9453 9.0485 12.9681 9.00293 12.9863C8.96191 13 8.90495 13.0114 8.83203 13.0205C8.76367 13.0342 8.6748 13.041 8.56543 13.041C8.45605 13.041 8.36491 13.0342 8.29199 13.0205C8.22363 13.0114 8.16895 13 8.12793 12.9863C8.08691 12.9681 8.05729 12.9453 8.03906 12.918C8.02083 12.8861 8.01172 12.8542 8.01172 12.8223V4.66016C8.01172 4.47786 8.06185 4.34798 8.16211 4.27051C8.26237 4.19303 8.37174 4.1543 8.49023 4.1543H9.05078C9.18294 4.1543 9.29232 4.16569 9.37891 4.18848C9.47005 4.21126 9.5498 4.25 9.61816 4.30469C9.69108 4.35482 9.75944 4.42773 9.82324 4.52344C9.8916 4.61458 9.96452 4.73079 10.042 4.87207L12.1885 8.75488C12.3206 8.99186 12.4482 9.22428 12.5713 9.45215C12.6943 9.67546 12.8128 9.89648 12.9268 10.1152C13.0407 10.334 13.1523 10.5505 13.2617 10.7646C13.3757 10.9743 13.4873 11.1862 13.5967 11.4004H13.6035C13.5944 11.0404 13.5876 10.6667 13.583 10.2793C13.583 9.88737 13.583 9.51139 13.583 9.15137V4.35254C13.583 4.32064 13.5921 4.29102 13.6104 4.26367C13.6286 4.23633 13.6582 4.21354 13.6992 4.19531C13.7448 4.17253 13.8018 4.15658 13.8701 4.14746C13.943 4.13835 14.0365 4.13379 14.1504 4.13379C14.2507 4.13379 14.3372 4.13835 14.4102 4.14746C14.4831 4.15658 14.54 4.17253 14.5811 4.19531C14.6221 4.21354 14.6517 4.23633 14.6699 4.26367C14.6882 4.29102 14.6973 4.32064 14.6973 4.35254V12.5146Z" fill="black"/>
<g clip-path="url(#clip0)">
<path d="M32.0643 17C36.9995 17 41.0002 13.1944 41.0002 8.5C41.0002 3.80558 36.9995 0 32.0643 0C27.1292 0 23.1284 3.80558 23.1284 8.5C23.1284 13.1944 27.1292 17 32.0643 17Z" fill="#F0F0F0"/>
<path d="M24.9754 3.32504C24.2735 4.19374 23.7442 5.19498 23.436 6.28268H28.0847L24.9754 3.32504Z" fill="#0052B4"/>
<path d="M40.6921 6.28268C40.3839 5.19501 39.8546 4.19377 39.1527 3.32507L36.0435 6.28268H40.6921Z" fill="#0052B4"/>
<path d="M23.436 10.7174C23.7443 11.8051 24.2735 12.8063 24.9754 13.675L28.0846 10.7174H23.436Z" fill="#0052B4"/>
<path d="M37.5043 1.75714C36.5911 1.08946 35.5385 0.586 34.395 0.292816V4.71471L37.5043 1.75714Z" fill="#0052B4"/>
<path d="M26.6235 15.2428C27.5368 15.9105 28.5894 16.414 29.7328 16.7072V12.2853L26.6235 15.2428Z" fill="#0052B4"/>
<path d="M29.7328 0.292816C28.5893 0.586 27.5367 1.08946 26.6235 1.75711L29.7328 4.71468V0.292816Z" fill="#0052B4"/>
<path d="M34.395 16.7072C35.5385 16.414 36.5911 15.9105 37.5043 15.2429L34.395 12.2853V16.7072Z" fill="#0052B4"/>
<path d="M36.0435 10.7174L39.1527 13.675C39.8546 12.8064 40.3839 11.8051 40.6921 10.7174H36.0435Z" fill="#0052B4"/>
<path d="M40.9246 7.39131H33.2299H33.2299V0.0719512C32.8483 0.0247031 32.4593 0 32.0643 0C31.6692 0 31.2803 0.0247031 30.8988 0.0719512V7.39125V7.39128H23.2041C23.1544 7.75422 23.1284 8.12424 23.1284 8.5C23.1284 8.87583 23.1544 9.24578 23.2041 9.60869H30.8987H30.8987V16.928C31.2803 16.9753 31.6692 17 32.0643 17C32.4593 17 32.8483 16.9753 33.2299 16.928V9.60875V9.60872H40.9246C40.9742 9.24578 41.0002 8.87583 41.0002 8.5C41.0002 8.12424 40.9742 7.75422 40.9246 7.39131Z" fill="#D80027"/>
<path d="M34.395 10.7174L38.3825 14.5104C38.5659 14.3361 38.7409 14.1537 38.9078 13.9647L35.4939 10.7174H34.395V10.7174Z" fill="#D80027"/>
<path d="M29.7331 10.7174H29.7331L25.7456 14.5104C25.9289 14.6848 26.1206 14.8513 26.3193 15.01L29.7331 11.7626V10.7174Z" fill="#D80027"/>
<path d="M29.733 6.28269V6.28262L25.7455 2.48959C25.5621 2.66398 25.3871 2.84629 25.2202 3.03529L28.6341 6.28265H29.733V6.28269Z" fill="#D80027"/>
<path d="M34.395 6.28266L38.3826 2.4896C38.1992 2.31515 38.0076 2.14873 37.8089 1.98999L34.395 5.23736V6.28266V6.28266Z" fill="#D80027"/>
</g>
<defs>
<clipPath id="clip0">
<rect width="17.8718" height="17" fill="white" transform="translate(23.1284)"/>
</clipPath>
</defs>
</svg>
