<svg width="121" height="85" viewBox="0 0 121 85" fill="none" xmlns="http://www.w3.org/2000/svg">
<path d="M29.2068 63.6431C29.2068 63.881 29.0657 64 28.7835 64H26.7913C26.581 64 26.3486 63.9253 26.094 63.7759C25.845 63.6209 25.6541 63.4355 25.5213 63.2197L24.1101 61.0117C23.5291 60.1042 22.8263 59.6504 22.0017 59.6504H19.9763V63.2197C19.9763 63.4355 19.8989 63.6209 19.7439 63.7759C19.5945 63.9253 19.4119 64 19.1961 64H17.6355C17.4197 64 17.2343 63.9253 17.0794 63.7759C16.9244 63.6209 16.8469 63.4355 16.8469 63.2197V52.8853C16.8469 52.6694 16.9216 52.484 17.0711 52.3291C17.2205 52.1742 17.4031 52.0967 17.6189 52.0967H24.4671C25.7343 52.0967 26.7719 52.437 27.5798 53.1177C28.3933 53.7983 28.8001 54.717 28.8001 55.8735C28.8001 57.4839 27.7569 58.4938 25.6707 58.9033C26.0027 59.0251 26.3098 59.2354 26.5921 59.5342C26.8743 59.8275 27.198 60.2563 27.5632 60.8208L29.074 63.2197C29.1625 63.3747 29.2068 63.5158 29.2068 63.6431ZM19.9763 57.3013H23.5125C24.0825 57.3013 24.5833 57.1878 25.0149 56.9609C25.4521 56.734 25.6707 56.3716 25.6707 55.8735C25.6707 55.3755 25.4521 55.013 25.0149 54.7861C24.5833 54.5592 24.0825 54.4458 23.5125 54.4458H19.9763V57.3013ZM30.427 59.2935V52.8853C30.427 52.6694 30.5017 52.484 30.6511 52.3291C30.8061 52.1742 30.997 52.0967 31.2239 52.0967H32.7761C32.9864 52.0967 33.169 52.1742 33.324 52.3291C33.4789 52.484 33.5564 52.6694 33.5564 52.8853V59.3101C33.5564 60.1235 33.7335 60.7295 34.0877 61.1279C34.4474 61.5264 35.0007 61.7256 35.7478 61.7256H37.0759C37.823 61.7256 38.3736 61.5264 38.7278 61.1279C39.0875 60.7295 39.2673 60.1235 39.2673 59.3101V52.8853C39.2673 52.6694 39.3421 52.484 39.4915 52.3291C39.6464 52.1742 39.8318 52.0967 40.0476 52.0967H41.5916C41.8185 52.0967 42.0094 52.1742 42.1643 52.3291C42.3193 52.484 42.3967 52.6694 42.3967 52.8853V59.2935C42.3967 60.8097 41.9513 61.9857 41.0603 62.8213C40.1694 63.6514 38.8689 64.0664 37.159 64.0664H35.6648C33.9493 64.0664 32.6461 63.6514 31.7551 62.8213C30.8697 61.9857 30.427 60.8097 30.427 59.2935ZM43.9241 60.9536C43.9241 60.6271 44.0209 60.3947 44.2146 60.2563C44.4083 60.1125 44.5965 60.0405 44.7791 60.0405H45.7669C46.2649 60.0405 46.644 60.3117 46.9041 60.854C47.1642 61.3963 47.748 61.6675 48.6555 61.6675L51.5608 61.7256C52.5348 61.7256 53.0217 61.4074 53.0217 60.771C53.0217 60.2896 52.4269 59.9105 51.2371 59.6338C50.7058 59.5065 50.1192 59.382 49.4773 59.2603C48.8354 59.133 48.1962 58.9753 47.5598 58.7871C46.929 58.599 46.3479 58.3776 45.8167 58.123C45.2854 57.8685 44.8538 57.5199 44.5217 57.0771C44.1952 56.6289 44.032 56.1032 44.032 55.5C44.032 54.3877 44.4277 53.5327 45.219 52.9351C46.0104 52.3319 47.3717 52.0303 49.303 52.0303L51.4114 52.0801C52.5458 52.0801 53.5668 52.3734 54.4744 52.96C55.3875 53.541 55.844 54.2687 55.844 55.1431C55.844 55.4696 55.7472 55.7048 55.5535 55.8486C55.3598 55.9925 55.1744 56.0645 54.9973 56.0645H54.0095C53.5115 56.0645 53.1324 55.7933 52.8723 55.251C52.6122 54.7031 52.0284 54.4292 51.1209 54.4292L48.6223 54.3794C47.6484 54.3794 47.1614 54.6976 47.1614 55.334C47.1614 55.6826 47.4685 55.9676 48.0828 56.189C48.7026 56.4103 49.4496 56.6068 50.324 56.7783C51.2039 56.9443 52.0865 57.1463 52.9719 57.3843C53.8574 57.6222 54.6072 58.0151 55.2215 58.563C55.8412 59.1053 56.1511 59.7832 56.1511 60.5967C56.1511 61.709 55.7527 62.5667 54.9558 63.1699C54.1645 63.7676 52.8059 64.0664 50.8801 64.0664L48.365 64.0166C47.2306 64.0166 46.2068 63.7261 45.2937 63.145C44.3806 62.5584 43.9241 61.828 43.9241 60.9536ZM57.1721 60.9536C57.1721 60.6271 57.269 60.3947 57.4627 60.2563C57.6563 60.1125 57.8445 60.0405 58.0271 60.0405H59.0149C59.513 60.0405 59.892 60.3117 60.1521 60.854C60.4122 61.3963 60.996 61.6675 61.9036 61.6675L64.8089 61.7256C65.7828 61.7256 66.2698 61.4074 66.2698 60.771C66.2698 60.2896 65.6749 59.9105 64.4851 59.6338C63.9539 59.5065 63.3673 59.382 62.7254 59.2603C62.0834 59.133 61.4443 58.9753 60.8079 58.7871C60.177 58.599 59.596 58.3776 59.0647 58.123C58.5335 57.8685 58.1018 57.5199 57.7698 57.0771C57.4433 56.6289 57.28 56.1032 57.28 55.5C57.28 54.3877 57.6757 53.5327 58.4671 52.9351C59.2584 52.3319 60.6197 52.0303 62.551 52.0303L64.6594 52.0801C65.7939 52.0801 66.8149 52.3734 67.7224 52.96C68.6355 53.541 69.0921 54.2687 69.0921 55.1431C69.0921 55.4696 68.9952 55.7048 68.8015 55.8486C68.6078 55.9925 68.4225 56.0645 68.2454 56.0645H67.2576C66.7595 56.0645 66.3805 55.7933 66.1204 55.251C65.8603 54.7031 65.2765 54.4292 64.3689 54.4292L61.8704 54.3794C60.8964 54.3794 60.4094 54.6976 60.4094 55.334C60.4094 55.6826 60.7166 55.9676 61.3308 56.189C61.9506 56.4103 62.6977 56.6068 63.572 56.7783C64.4519 56.9443 65.3346 57.1463 66.22 57.3843C67.1054 57.6222 67.8552 58.0151 68.4695 58.563C69.0893 59.1053 69.3992 59.7832 69.3992 60.5967C69.3992 61.709 69.0007 62.5667 68.2039 63.1699C67.4125 63.7676 66.054 64.0664 64.1282 64.0664L61.6131 64.0166C60.4786 64.0166 59.4548 63.7261 58.5418 63.145C57.6287 62.5584 57.1721 61.828 57.1721 60.9536ZM71.1008 63.2363V52.8853C71.1008 52.6694 71.1783 52.484 71.3333 52.3291C71.4882 52.1742 71.6736 52.0967 71.8894 52.0967H73.4334C73.6603 52.0967 73.8484 52.1742 73.9978 52.3291C74.1528 52.484 74.2302 52.6694 74.2302 52.8853V63.2197C74.2302 63.4355 74.15 63.6209 73.9895 63.7759C73.8346 63.9253 73.6492 64 73.4334 64H71.8894C71.6736 64 71.4882 63.9281 71.3333 63.7842C71.1783 63.6348 71.1008 63.4521 71.1008 63.2363ZM75.6331 63.2363L77.7166 55.334C78.281 53.1813 80.1183 52.1022 83.2283 52.0967H87.7024C87.9072 52.0967 88.0759 52.1742 88.2088 52.3291C88.3471 52.484 88.4163 52.6639 88.4163 52.8687V63.2363C88.4163 63.4521 88.3388 63.6348 88.1839 63.7842C88.0289 63.9281 87.8435 64 87.6277 64H86.0672C85.8403 64 85.6521 63.9281 85.5027 63.7842C85.3588 63.6348 85.2869 63.4466 85.2869 63.2197V61.1279H79.385L78.8289 63.2197C78.7735 63.4466 78.649 63.6348 78.4553 63.7842C78.2617 63.9281 78.0569 64 77.8411 64H76.2058C75.99 64 75.8351 63.9391 75.741 63.8174C75.6469 63.6901 75.5999 63.5794 75.5999 63.4854C75.6054 63.3913 75.6165 63.3083 75.6331 63.2363ZM79.9993 58.7788H85.2869V54.4458H82.9212C82.3899 54.4458 81.9251 54.598 81.5266 54.9023C81.1337 55.2012 80.8681 55.6051 80.7298 56.1143L79.9993 58.7788ZM90.7903 63.2197V52.8853C90.7903 52.6694 90.865 52.484 91.0144 52.3291C91.1638 52.1742 91.3465 52.0967 91.5623 52.0967H94.0027C94.1964 52.0967 94.4011 52.1742 94.617 52.3291C94.8328 52.484 95.0099 52.6694 95.1482 52.8853L100.162 60.5967V52.8687C100.162 52.6528 100.237 52.4702 100.386 52.3208C100.541 52.1714 100.726 52.0967 100.942 52.0967H102.37C102.586 52.0967 102.768 52.1714 102.918 52.3208C103.073 52.4702 103.15 52.6584 103.15 52.8853V63.2197C103.15 63.4355 103.073 63.6209 102.918 63.7759C102.768 63.9253 102.586 64 102.37 64H99.614C99.3982 64 99.1769 63.9253 98.95 63.7759C98.7231 63.6209 98.5432 63.4355 98.4104 63.2197L93.8201 56.0977V63.2197C93.8201 63.4355 93.7426 63.6209 93.5877 63.7759C93.4382 63.9253 93.2556 64 93.0398 64H91.5789C91.3631 64 91.1777 63.9253 91.0227 63.7759C90.8678 63.6209 90.7903 63.4355 90.7903 63.2197ZM24.5999 80.2031V69.8687C24.5999 69.6528 24.6773 69.4702 24.8323 69.3208C24.9872 69.1714 25.1726 69.0967 25.3884 69.0967H34.9592C35.1751 69.0967 35.3577 69.1742 35.5071 69.3291C35.662 69.484 35.7395 69.6694 35.7395 69.8853V70.6655C35.7395 70.8813 35.662 71.0667 35.5071 71.2217C35.3577 71.3711 35.1751 71.4458 34.9592 71.4458H27.7293V74.3677H33.6145C33.8303 74.3677 34.013 74.4451 34.1624 74.6001C34.3173 74.755 34.3948 74.9377 34.3948 75.1479V75.9365C34.3948 76.1523 34.3173 76.3377 34.1624 76.4927C34.013 76.6421 33.8303 76.7168 33.6145 76.7168H27.7293V80.2031C27.7293 80.43 27.6518 80.6209 27.4968 80.7759C27.3474 80.9253 27.1648 81 26.949 81H25.3884C25.1726 81 24.9872 80.9253 24.8323 80.7759C24.6773 80.6209 24.5999 80.43 24.5999 80.2031ZM49.4607 80.6431C49.4607 80.881 49.3196 81 49.0374 81H47.0452C46.8349 81 46.6025 80.9253 46.3479 80.7759C46.0989 80.6209 45.908 80.4355 45.7752 80.2197L44.364 78.0117C43.783 77.1042 43.0802 76.6504 42.2556 76.6504H40.2302V80.2197C40.2302 80.4355 40.1528 80.6209 39.9978 80.7759C39.8484 80.9253 39.6658 81 39.45 81H37.8894C37.6736 81 37.4882 80.9253 37.3333 80.7759C37.1783 80.6209 37.1008 80.4355 37.1008 80.2197V69.8853C37.1008 69.6694 37.1756 69.484 37.325 69.3291C37.4744 69.1742 37.657 69.0967 37.8728 69.0967H44.721C45.9882 69.0967 47.0258 69.437 47.8338 70.1177C48.6472 70.7983 49.054 71.717 49.054 72.8735C49.054 74.4839 48.0108 75.4938 45.9246 75.9033C46.2566 76.0251 46.5637 76.2354 46.846 76.5342C47.1282 76.8275 47.4519 77.2563 47.8172 77.8208L49.3279 80.2197C49.4164 80.3747 49.4607 80.5158 49.4607 80.6431ZM40.2302 74.3013H43.7664C44.3364 74.3013 44.8372 74.1878 45.2688 73.9609C45.706 73.734 45.9246 73.3716 45.9246 72.8735C45.9246 72.3755 45.706 72.013 45.2688 71.7861C44.8372 71.5592 44.3364 71.4458 43.7664 71.4458H40.2302V74.3013ZM50.8469 80.2363V69.8853C50.8469 69.6694 50.9244 69.484 51.0794 69.3291C51.2343 69.1742 51.4197 69.0967 51.6355 69.0967H53.1795C53.4063 69.0967 53.5945 69.1742 53.7439 69.3291C53.8989 69.484 53.9763 69.6694 53.9763 69.8853V80.2197C53.9763 80.4355 53.8961 80.6209 53.7356 80.7759C53.5807 80.9253 53.3953 81 53.1795 81H51.6355C51.4197 81 51.2343 80.9281 51.0794 80.7842C50.9244 80.6348 50.8469 80.4521 50.8469 80.2363ZM56.3587 80.2031V69.8687C56.3587 69.6528 56.4361 69.4702 56.5911 69.3208C56.746 69.1714 56.9314 69.0967 57.1472 69.0967H66.718C66.9339 69.0967 67.1165 69.1742 67.2659 69.3291C67.4208 69.484 67.4983 69.6694 67.4983 69.8853V70.6655C67.4983 70.8813 67.4208 71.0667 67.2659 71.2217C67.1165 71.3711 66.9339 71.4458 66.718 71.4458H59.4881V73.8613H65.7136C65.9295 73.8613 66.1121 73.9388 66.2615 74.0938C66.4164 74.2432 66.4939 74.4258 66.4939 74.6416V75.4219C66.4939 75.6377 66.4164 75.8231 66.2615 75.978C66.1121 76.1274 65.9295 76.2021 65.7136 76.2021H59.4881V78.6509H66.7014C66.9117 78.6509 67.0916 78.7256 67.241 78.875C67.3904 79.0244 67.4651 79.207 67.4651 79.4229V80.2197C67.4651 80.4355 67.3876 80.6209 67.2327 80.7759C67.0777 80.9253 66.8923 81 66.6765 81H57.1472C56.9314 81 56.746 80.9253 56.5911 80.7759C56.4361 80.6209 56.3587 80.43 56.3587 80.2031ZM69.0257 80.2197V69.8853C69.0257 69.6694 69.1004 69.484 69.2498 69.3291C69.3992 69.1742 69.5818 69.0967 69.7976 69.0967H72.2381C72.4317 69.0967 72.6365 69.1742 72.8523 69.3291C73.0681 69.484 73.2452 69.6694 73.3836 69.8853L78.3972 77.5967V69.8687C78.3972 69.6528 78.4719 69.4702 78.6214 69.3208C78.7763 69.1714 78.9617 69.0967 79.1775 69.0967H80.6052C80.8211 69.0967 81.0037 69.1714 81.1531 69.3208C81.308 69.4702 81.3855 69.6584 81.3855 69.8853V80.2197C81.3855 80.4355 81.308 80.6209 81.1531 80.7759C81.0037 80.9253 80.8211 81 80.6052 81H77.8494C77.6336 81 77.4122 80.9253 77.1853 80.7759C76.9584 80.6209 76.7786 80.4355 76.6458 80.2197L72.0554 73.0977V80.2197C72.0554 80.4355 71.978 80.6209 71.823 80.7759C71.6736 80.9253 71.491 81 71.2752 81H69.8142C69.5984 81 69.413 80.9253 69.2581 80.7759C69.1031 80.6209 69.0257 80.4355 69.0257 80.2197ZM83.7678 80.2363V69.9019C83.7678 69.675 83.8453 69.484 84.0003 69.3291C84.1552 69.1742 84.3406 69.0967 84.5564 69.0967H89.1965C91.5982 69.0967 93.3442 69.5781 94.4343 70.541C95.53 71.4984 96.0779 73.0036 96.0779 75.0566C96.0779 77.1042 95.53 78.6066 94.4343 79.564C93.3442 80.5213 91.5982 81 89.1965 81H84.5564C84.3406 81 84.1552 80.9281 84.0003 80.7842C83.8453 80.6348 83.7678 80.4521 83.7678 80.2363ZM86.8972 78.6509H89.1052C90.5938 78.6509 91.6065 78.3797 92.1433 77.8374C92.6801 77.2951 92.9485 76.3682 92.9485 75.0566C92.9485 73.7396 92.6801 72.8099 92.1433 72.2676C91.6065 71.7197 90.5938 71.4458 89.1052 71.4458H86.8972V78.6509Z" fill="url(#paint0_linear)"/>
<path d="M58.4722 19.1672C56.2794 17.3014 54.2674 15.2317 52.4644 12.9853C50.2251 14.6432 47.8295 16.1011 45.3013 17.3283C46.8291 19.7345 48.586 21.9791 50.5425 24.0348C53.3669 22.6956 56.021 21.0578 58.4722 19.1672Z" fill="url(#paint1_linear)"/>
<path d="M49.0039 36.0459C52.1869 35.1839 55.2715 33.972 58.1219 32.4478C55.2285 30.6394 52.5496 28.5189 50.1422 26.1234C47.7001 27.199 45.1462 28.0622 42.502 28.6947C44.4044 31.3853 46.5543 33.8534 49.0039 36.0459Z" fill="#FF3E28"/>
<path d="M59.8523 31.4695V31.4695C62.7603 29.739 65.4478 27.6774 67.8677 25.3396C65.0129 23.938 62.2058 22.4714 59.8523 20.8716V20.8718C57.4988 22.4716 54.6917 23.9382 51.8369 25.3397C54.2569 27.6776 56.9443 29.7391 59.8523 31.4695Z" fill="url(#paint2_linear)"/>
<path d="M55.8554 43.0402C53.2712 41.5813 50.8422 39.88 48.6041 37.9588C47.1759 38.314 45.7204 38.5983 44.2432 38.815C44.3526 38.9832 44.4745 39.1422 44.5892 39.3066C45.5365 40.6006 48.287 44.0078 50.989 44.0078C54.3241 44.0078 55.844 43.0397 55.844 43.0397L55.8554 43.0402Z" fill="url(#paint3_linear)"/>
<path d="M58.727 4.76257C57.8548 3.6683 57.038 2.52861 56.2683 1.35549C56.2683 1.35549 51.7403 5.31305 51.838 9.20419C52.1458 9.65492 52.4476 10.1102 52.772 10.5484C54.9362 8.81231 56.93 6.87471 58.727 4.76257Z" fill="url(#paint4_linear)"/>
<path d="M59.8521 3.70825V3.70816C60.427 2.97396 60.9769 2.21912 61.5152 1.45627C61.6475 0.239622 59.8521 2.55108e-05 59.8521 2.55108e-05V0.000113487C59.8521 0.000113487 58.0568 0.2398 58.1891 1.45635C58.7274 2.2193 59.2772 2.97405 59.8521 3.70825Z" fill="url(#paint5_linear)"/>
<path d="M46.9935 36.507C45.3072 34.9138 43.7634 33.1776 42.3407 31.3421C42.3262 31.3373 42.3096 31.3368 42.2992 31.3235C42.1754 31.1645 42.0097 31.2864 42 31.4747C42.2713 32.8039 42.9543 35.5678 44.0446 36.1946C45.3077 36.9208 46.6665 36.6008 46.9935 36.507Z" fill="url(#paint6_linear)"/>
<path d="M44.5491 26.3354C46.0214 25.8935 47.4653 25.3854 48.8664 24.7928C47.1555 22.9467 45.6087 20.9504 44.2223 18.839C44.1969 18.8126 44.1703 18.7814 44.1395 18.7349C43.8583 18.309 43.218 18.48 43.1849 19.0608C42.9928 21.1916 42.6719 26.7099 44.5491 26.3354Z" fill="url(#paint7_linear)"/>
<path d="M51.3973 11.6128C50.6351 10.5849 49.9307 9.51311 49.2575 8.42028C49.2397 8.40676 49.2211 8.38748 49.2005 8.35423C48.9649 7.97442 48.5605 8.11346 48.4257 8.33188C47.7436 9.69171 46.3396 12.7927 46.7151 14.6223C48.3408 13.7149 49.9074 12.7136 51.3973 11.6128Z" fill="url(#paint8_linear)"/>
<path d="M61.2319 19.1671C63.6832 21.0576 66.3373 22.6954 69.1616 24.0346C71.1182 21.9791 72.875 19.7343 74.4029 17.3282C71.8746 16.1009 69.4791 14.643 67.2397 12.9851C65.4367 15.2317 63.4247 17.3013 61.2319 19.1671Z" fill="url(#paint9_linear)"/>
<path d="M77.2024 28.6946C74.5582 28.0621 72.0043 27.1989 69.5622 26.1232C67.1548 28.5188 64.4759 30.6392 61.5825 32.4477C64.4329 33.9718 67.5175 35.1838 70.7005 36.0458C73.1501 33.8533 75.3 31.3851 77.2024 28.6946Z" fill="url(#paint10_linear)"/>
<path d="M59.8523 18.0639C62.0538 16.2196 64.068 14.1599 65.8676 11.9204C63.6882 10.1742 61.8193 8.55958 59.8523 6.69623V6.69641C57.8852 8.55976 56.0164 10.1743 53.8369 11.9205C55.6366 14.1601 57.6507 16.2197 59.8523 18.064V18.0639Z" fill="url(#paint11_linear)"/>
<path d="M63.8496 43.0401L63.8611 43.0396C63.8611 43.0396 65.3809 44.0077 68.716 44.0077C71.418 44.0077 74.1685 40.6004 75.1159 39.3064C75.2306 39.142 75.3525 38.983 75.4619 38.8148C73.9846 38.5981 72.5291 38.3138 71.1009 37.9587C68.8628 39.8799 66.4338 41.581 63.8496 43.0401Z" fill="url(#paint12_linear)"/>
<path d="M59.8522 43.1416V43.1415C63.169 41.6108 66.2637 39.6791 69.0677 37.4005C65.8287 36.4311 62.6315 35.363 59.8522 34.0531C59.8522 34.0532 59.8522 34.0532 59.8522 34.0532V34.0533C57.0728 35.3632 53.8757 36.4312 50.6367 37.4006C53.4407 39.6793 56.5354 41.6109 59.8522 43.1416Z" fill="url(#paint13_linear)"/>
<path d="M59.8521 44.3969V44.3971C59.8521 44.3971 55.0964 45.3265 52.8516 45.1103C53.8117 45.6421 54.7191 45.9264 55.3604 46.0895C55.3587 46.0901 55.357 46.0908 55.3552 46.0913C55.3846 46.0986 55.4149 46.1035 55.4443 46.1106C55.7151 46.1776 55.938 46.2245 56.0804 46.2559L56.0908 46.2507C57.3062 46.5012 58.5625 46.6414 59.8521 46.6414V46.6412C61.1416 46.6412 62.398 46.501 63.6134 46.2507L63.6237 46.2557C63.7662 46.2243 63.989 46.1774 64.2598 46.1105C64.2893 46.1033 64.3196 46.0985 64.3489 46.0912C64.3471 46.0906 64.3454 46.09 64.3437 46.0894C64.985 45.9262 65.8926 45.642 66.8526 45.1102C64.6077 45.3263 59.8521 44.3969 59.8521 44.3969Z" fill="url(#paint14_linear)"/>
<path d="M66.9326 10.5482C67.257 10.1101 67.5588 9.65483 67.8666 9.2041C67.9643 5.31287 63.4363 1.3554 63.4363 1.3554C62.6665 2.52843 61.8498 3.66812 60.9775 4.76239C62.7746 6.87453 64.7684 8.81222 66.9326 10.5482Z" fill="url(#paint15_linear)"/>
<path d="M77.4053 31.3233C77.3949 31.3367 77.3783 31.3371 77.3638 31.3419C75.9411 33.1774 74.3972 34.9137 72.7109 36.5068C73.0379 36.6006 74.3968 36.9207 75.6599 36.1944C76.7501 35.5676 77.4332 32.8037 77.7045 31.4745C77.6947 31.2862 77.5291 31.1643 77.4053 31.3233Z" fill="url(#paint16_linear)"/>
<path d="M75.1557 26.3353C77.0328 26.7098 76.7119 21.1914 76.5198 19.0607C76.4867 18.4799 75.8464 18.3088 75.5652 18.7348C75.5345 18.7812 75.5078 18.8125 75.4825 18.8388C74.0961 20.9503 72.5493 22.9465 70.8384 24.7926C72.2395 25.3853 73.6834 25.8933 75.1557 26.3353Z" fill="url(#paint17_linear)"/>
<path d="M71.2787 8.3317C71.1439 8.11337 70.7394 7.97433 70.504 8.35405C70.4833 8.3873 70.4647 8.40658 70.4469 8.4201C69.7737 9.51302 69.0694 10.5848 68.3071 11.6126C69.7971 12.7135 71.3636 13.7147 72.9893 14.6222C73.3648 12.7926 71.9608 9.69162 71.2787 8.3317Z" fill="url(#paint18_linear)"/>
<defs>
<linearGradient id="paint0_linear" x1="60.4054" y1="49" x2="60.4054" y2="25.3748" gradientUnits="userSpaceOnUse">
<stop offset="0.471875" stop-color="#455A64"/>
<stop offset="1" stop-color="#455A64" stop-opacity="0"/>
</linearGradient>
<linearGradient id="paint1_linear" x1="51.8867" y1="24.0348" x2="51.8867" y2="12.9853" gradientUnits="userSpaceOnUse">
<stop offset="0.497917" stop-color="#006660"/>
<stop offset="1" stop-color="#30706C" stop-opacity="0"/>
</linearGradient>
<linearGradient id="paint2_linear" x1="59.8523" y1="31.4695" x2="59.8523" y2="20.8716" gradientUnits="userSpaceOnUse">
<stop offset="0.497917" stop-color="#006660"/>
<stop offset="1" stop-color="#30706C" stop-opacity="0"/>
</linearGradient>
<linearGradient id="paint3_linear" x1="50.0493" y1="44.0078" x2="50.0493" y2="37.9588" gradientUnits="userSpaceOnUse">
<stop offset="0.497917" stop-color="#006660"/>
<stop offset="1" stop-color="#30706C" stop-opacity="0"/>
</linearGradient>
<linearGradient id="paint4_linear" x1="55.2817" y1="10.5484" x2="55.2817" y2="1.35549" gradientUnits="userSpaceOnUse">
<stop offset="0.497917" stop-color="#006660"/>
<stop offset="1" stop-color="#30706C" stop-opacity="0"/>
</linearGradient>
<linearGradient id="paint5_linear" x1="59.8521" y1="3.70825" x2="59.8521" y2="2.55108e-05" gradientUnits="userSpaceOnUse">
<stop offset="0.497917" stop-color="#006660"/>
<stop offset="1" stop-color="#30706C" stop-opacity="0"/>
</linearGradient>
<linearGradient id="paint6_linear" x1="44.4968" y1="36.6583" x2="44.4968" y2="31.2501" gradientUnits="userSpaceOnUse">
<stop offset="0.497917" stop-color="#006660"/>
<stop offset="1" stop-color="#30706C" stop-opacity="0"/>
</linearGradient>
<linearGradient id="paint7_linear" x1="45.951" y1="26.3536" x2="45.951" y2="18.4977" gradientUnits="userSpaceOnUse">
<stop offset="0.497917" stop-color="#006660"/>
<stop offset="1" stop-color="#30706C" stop-opacity="0"/>
</linearGradient>
<linearGradient id="paint8_linear" x1="49.0248" y1="14.6223" x2="49.0248" y2="8.11664" gradientUnits="userSpaceOnUse">
<stop offset="0.497917" stop-color="#006660"/>
<stop offset="1" stop-color="#30706C" stop-opacity="0"/>
</linearGradient>
<linearGradient id="paint9_linear" x1="67.8174" y1="24.0346" x2="67.8174" y2="12.9851" gradientUnits="userSpaceOnUse">
<stop offset="0.497917" stop-color="#006660"/>
<stop offset="1" stop-color="#30706C" stop-opacity="0"/>
</linearGradient>
<linearGradient id="paint10_linear" x1="69.3925" y1="36.0458" x2="69.3925" y2="26.1232" gradientUnits="userSpaceOnUse">
<stop offset="0.497917" stop-color="#006660"/>
<stop offset="1" stop-color="#30706C" stop-opacity="0"/>
</linearGradient>
<linearGradient id="paint11_linear" x1="59.8523" y1="18.064" x2="59.8523" y2="6.69623" gradientUnits="userSpaceOnUse">
<stop offset="0.497917" stop-color="#006660"/>
<stop offset="1" stop-color="#30706C" stop-opacity="0"/>
</linearGradient>
<linearGradient id="paint12_linear" x1="69.6557" y1="44.0077" x2="69.6557" y2="37.9587" gradientUnits="userSpaceOnUse">
<stop offset="0.497917" stop-color="#006660"/>
<stop offset="1" stop-color="#30706C" stop-opacity="0"/>
</linearGradient>
<linearGradient id="paint13_linear" x1="59.8522" y1="43.1416" x2="59.8522" y2="34.0531" gradientUnits="userSpaceOnUse">
<stop offset="0.497917" stop-color="#006660"/>
<stop offset="1" stop-color="#30706C" stop-opacity="0"/>
</linearGradient>
<linearGradient id="paint14_linear" x1="59.8521" y1="46.6414" x2="59.8521" y2="44.3969" gradientUnits="userSpaceOnUse">
<stop offset="0.497917" stop-color="#006660"/>
<stop offset="1" stop-color="#30706C" stop-opacity="0"/>
</linearGradient>
<linearGradient id="paint15_linear" x1="64.4228" y1="10.5482" x2="64.4228" y2="1.3554" gradientUnits="userSpaceOnUse">
<stop offset="0.497917" stop-color="#006660"/>
<stop offset="1" stop-color="#30706C" stop-opacity="0"/>
</linearGradient>
<linearGradient id="paint16_linear" x1="75.2077" y1="36.6581" x2="75.2077" y2="31.2499" gradientUnits="userSpaceOnUse">
<stop offset="0.497917" stop-color="#006660"/>
<stop offset="1" stop-color="#30706C" stop-opacity="0"/>
</linearGradient>
<linearGradient id="paint17_linear" x1="73.7537" y1="26.3535" x2="73.7537" y2="18.4975" gradientUnits="userSpaceOnUse">
<stop offset="0.497917" stop-color="#006660"/>
<stop offset="1" stop-color="#30706C" stop-opacity="0"/>
</linearGradient>
<linearGradient id="paint18_linear" x1="70.6796" y1="14.6222" x2="70.6796" y2="8.11652" gradientUnits="userSpaceOnUse">
<stop offset="0.497917" stop-color="#006660"/>
<stop offset="1" stop-color="#30706C" stop-opacity="0"/>
</linearGradient>
</defs>
</svg>
