<svg width="1580" height="64" viewBox="0 0 1580 64" fill="none" xmlns="http://www.w3.org/2000/svg">
<path d="M986.973 55.8468L976.814 47.3982C980.633 46.553 983.161 45.6662 983.161 45.6662L974.616 37.1382C977.478 36.3203 979.349 35.4978 979.349 35.4978L972.154 26.4942C974.205 25.649 975.537 24.8198 975.537 24.8198L964.1 6.98193L952.664 24.8198C952.664 24.8198 953.996 25.649 956.046 26.4942L948.852 35.4978C948.852 35.4978 950.723 36.3203 953.584 37.1372L945.039 45.6662C945.039 45.6662 947.567 46.553 951.385 47.3982L941.228 55.8468C941.228 55.8468 949.157 58.1688 958.763 58.8808V63.7092H969.438V58.8808C979.043 58.1688 986.973 55.8468 986.973 55.8468Z" fill="black" fill-opacity="0.09"/>
<path d="M944.952 54.5031L931.355 45.0797C936.467 44.1369 939.85 43.1478 939.85 43.1478L928.413 33.6358C932.243 32.7236 934.748 31.8061 934.748 31.8061L925.117 21.7637C927.862 20.8209 929.645 19.8961 929.645 19.8961L914.337 0L899.031 19.8961C899.031 19.8961 900.814 20.8209 903.558 21.7637L893.929 31.8061C893.929 31.8061 896.433 32.7236 900.262 33.6347L888.826 43.1478C888.826 43.1478 892.209 44.1369 897.32 45.0797L883.724 54.5031C883.724 54.5031 894.336 57.0931 907.194 57.8872V63.2727H921.482V57.8872C934.339 57.0931 944.952 54.5031 944.952 54.5031Z" fill="black" fill-opacity="0.09"/>
<path d="M1355.64 55.8468L1343.45 47.3982C1348.04 46.553 1351.07 45.6662 1351.07 45.6662L1340.82 37.1382C1344.25 36.3203 1346.5 35.4978 1346.5 35.4978L1337.86 26.4942C1340.32 25.649 1341.92 24.8198 1341.92 24.8198L1328.2 6.98193L1314.47 24.8198C1314.47 24.8198 1316.07 25.649 1318.53 26.4942L1309.9 35.4978C1309.9 35.4978 1312.14 36.3203 1315.58 37.1372L1305.32 45.6662C1305.32 45.6662 1308.36 46.553 1312.94 47.3982L1300.75 55.8468C1300.75 55.8468 1310.26 58.1688 1321.79 58.8808V63.7092H1334.6V58.8808C1346.13 58.1688 1355.64 55.8468 1355.64 55.8468Z" fill="black" fill-opacity="0.09"/>
<path d="M1439.51 55.8468L1427.32 47.3982C1431.91 46.553 1434.94 45.6662 1434.94 45.6662L1424.69 37.1382C1428.12 36.3203 1430.37 35.4978 1430.37 35.4978L1421.73 26.4942C1424.19 25.649 1425.79 24.8198 1425.79 24.8198L1412.07 6.98193L1398.34 24.8198C1398.34 24.8198 1399.94 25.649 1402.4 26.4942L1393.77 35.4978C1393.77 35.4978 1396.01 36.3203 1399.45 37.1372L1389.19 45.6662C1389.19 45.6662 1392.23 46.553 1396.81 47.3982L1384.62 55.8468C1384.62 55.8468 1394.13 58.1688 1405.66 58.8808V63.7092H1418.47V58.8808C1430 58.1688 1439.51 55.8468 1439.51 55.8468Z" fill="black" fill-opacity="0.09"/>
<path d="M1478.9 58.6244L1471.24 53.317C1474.12 52.786 1476.03 52.2289 1476.03 52.2289L1469.59 46.8715C1471.74 46.3578 1473.16 45.8411 1473.16 45.8411L1467.73 40.185C1469.28 39.654 1470.28 39.1331 1470.28 39.1331L1461.66 27.9272L1453.04 39.1331C1453.04 39.1331 1454.04 39.654 1455.59 40.185L1450.16 45.8411C1450.16 45.8411 1451.58 46.3578 1453.73 46.8709L1447.29 52.2289C1447.29 52.2289 1449.2 52.786 1452.07 53.317L1444.42 58.6244C1444.42 58.6244 1450.39 60.0831 1457.64 60.5304V63.5636H1465.68V60.5304C1472.92 60.0831 1478.9 58.6244 1478.9 58.6244Z" fill="black" fill-opacity="0.09"/>
<path d="M1388.31 58.3552L1379.56 52.2895C1382.85 51.6827 1385.02 51.046 1385.02 51.046L1377.66 44.9233C1380.13 44.3362 1381.74 43.7456 1381.74 43.7456L1375.54 37.2815C1377.31 36.6747 1378.46 36.0794 1378.46 36.0794L1368.6 23.2727L1358.75 36.0794C1358.75 36.0794 1359.9 36.6747 1361.66 37.2815L1355.47 43.7456C1355.47 43.7456 1357.08 44.3362 1359.54 44.9226L1352.18 51.046C1352.18 51.046 1354.36 51.6827 1357.65 52.2895L1348.9 58.3552C1348.9 58.3552 1355.73 60.0223 1364 60.5334V64H1373.2V60.5334C1381.48 60.0223 1388.31 58.3552 1388.31 58.3552Z" fill="black" fill-opacity="0.09"/>
<path d="M1522.66 58.3552L1513.91 52.2895C1517.2 51.6827 1519.37 51.046 1519.37 51.046L1512.01 44.9233C1514.48 44.3362 1516.09 43.7456 1516.09 43.7456L1509.89 37.2815C1511.66 36.6747 1512.8 36.0794 1512.8 36.0794L1502.95 23.2727L1493.1 36.0794C1493.1 36.0794 1494.25 36.6747 1496.01 37.2815L1489.81 43.7456C1489.81 43.7456 1491.43 44.3362 1493.89 44.9226L1486.53 51.046C1486.53 51.046 1488.71 51.6827 1492 52.2895L1483.25 58.3552C1483.25 58.3552 1490.08 60.0223 1498.35 60.5334V64H1507.55V60.5334C1515.83 60.0223 1522.66 58.3552 1522.66 58.3552Z" fill="black" fill-opacity="0.09"/>
<path d="M1579.74 55.6974L1568.48 47.1405C1572.71 46.2844 1575.51 45.3862 1575.51 45.3862L1566.05 36.7489C1569.22 35.9206 1571.29 35.0875 1571.29 35.0875L1563.32 25.9685C1565.59 25.1124 1567.07 24.2726 1567.07 24.2726L1554.4 6.20605L1541.73 24.2726C1541.73 24.2726 1543.21 25.1124 1545.48 25.9685L1537.51 35.0875C1537.51 35.0875 1539.58 35.9206 1542.75 36.7479L1533.29 45.3862C1533.29 45.3862 1536.09 46.2844 1540.32 47.1405L1529.06 55.6974C1529.06 55.6974 1537.85 58.0492 1548.49 58.7703V63.6606H1560.31V58.7703C1570.95 58.0492 1579.74 55.6974 1579.74 55.6974Z" fill="black" fill-opacity="0.09"/>
<path d="M1089.78 55.8468L1077.59 47.3982C1082.18 46.553 1085.21 45.6662 1085.21 45.6662L1074.96 37.1382C1078.39 36.3203 1080.64 35.4978 1080.64 35.4978L1072 26.4942C1074.46 25.649 1076.06 24.8198 1076.06 24.8198L1062.34 6.98193L1048.61 24.8198C1048.61 24.8198 1050.21 25.649 1052.67 26.4942L1044.04 35.4978C1044.04 35.4978 1046.28 36.3203 1049.72 37.1372L1039.46 45.6662C1039.46 45.6662 1042.5 46.553 1047.08 47.3982L1034.89 55.8468C1034.89 55.8468 1044.4 58.1688 1055.93 58.8808V63.7092H1068.74V58.8808C1080.27 58.1688 1089.78 55.8468 1089.78 55.8468Z" fill="black" fill-opacity="0.09"/>
<path d="M882.219 58.6244L874.561 53.317C877.44 52.786 879.345 52.2289 879.345 52.2289L872.904 46.8715C875.061 46.3578 876.472 45.8411 876.472 45.8411L871.048 40.185C872.594 39.654 873.598 39.1331 873.598 39.1331L864.976 27.9272L856.355 39.1331C856.355 39.1331 857.359 39.654 858.905 40.185L853.482 45.8411C853.482 45.8411 854.892 46.3578 857.048 46.8709L850.607 52.2289C850.607 52.2289 852.513 52.786 855.391 53.317L847.734 58.6244C847.734 58.6244 853.711 60.0831 860.953 60.5304V63.5636H869V60.5304C876.241 60.0831 882.219 58.6244 882.219 58.6244Z" fill="black" fill-opacity="0.09"/>
<path d="M1127.34 58.6244L1119.68 53.317C1122.56 52.786 1124.47 52.2289 1124.47 52.2289L1118.03 46.8715C1120.18 46.3578 1121.59 45.8411 1121.59 45.8411L1116.17 40.185C1117.72 39.654 1118.72 39.1331 1118.72 39.1331L1110.1 27.9272L1101.48 39.1331C1101.48 39.1331 1102.48 39.654 1104.03 40.185L1098.6 45.8411C1098.6 45.8411 1100.01 46.3578 1102.17 46.8709L1095.73 52.2289C1095.73 52.2289 1097.63 52.786 1100.51 53.317L1092.86 58.6244C1092.86 58.6244 1098.83 60.0831 1106.07 60.5304V63.5636H1114.12V60.5304C1121.36 60.0831 1127.34 58.6244 1127.34 58.6244Z" fill="black" fill-opacity="0.09"/>
<path d="M844.895 55.8468L832.704 47.3982C837.287 46.553 840.32 45.6662 840.32 45.6662L830.067 37.1382C833.5 36.3203 835.746 35.4978 835.746 35.4978L827.112 26.4942C829.572 25.649 831.171 24.8198 831.171 24.8198L817.446 6.98193L803.724 24.8198C803.724 24.8198 805.322 25.649 807.782 26.4942L799.149 35.4978C799.149 35.4978 801.394 36.3203 804.827 37.1372L794.574 45.6662C794.574 45.6662 797.608 46.553 802.189 47.3982L790 55.8468C790 55.8468 799.515 58.1688 811.043 58.8808V63.7092H823.852V58.8808C835.379 58.1688 844.895 55.8468 844.895 55.8468Z" fill="black" fill-opacity="0.09"/>
<path d="M1027.68 58.3552L1018.93 52.2895C1022.22 51.6827 1024.4 51.046 1024.4 51.046L1017.04 44.9233C1019.5 44.3362 1021.11 43.7456 1021.11 43.7456L1014.92 37.2815C1016.68 36.6747 1017.83 36.0794 1017.83 36.0794L1007.98 23.2727L998.124 36.0794C998.124 36.0794 999.272 36.6747 1001.04 37.2815L994.84 43.7456C994.84 43.7456 996.452 44.3362 998.917 44.9226L991.556 51.046C991.556 51.046 993.733 51.6827 997.023 52.2895L988.271 58.3552C988.271 58.3552 995.103 60.0223 1003.38 60.5334V64H1012.58V60.5334C1020.85 60.0223 1027.68 58.3552 1027.68 58.3552Z" fill="black" fill-opacity="0.09"/>
<path d="M1298.31 57.1609L1287.84 50.2287C1291.78 49.5352 1294.38 48.8075 1294.38 48.8075L1285.57 41.8102C1288.52 41.1392 1290.45 40.4643 1290.45 40.4643L1283.04 33.0767C1285.15 32.3832 1286.52 31.7029 1286.52 31.7029L1274.73 17.0667L1262.95 31.7029C1262.95 31.7029 1264.32 32.3832 1266.43 33.0767L1259.02 40.4643C1259.02 40.4643 1260.94 41.1392 1263.89 41.8094L1255.09 48.8075C1255.09 48.8075 1257.69 49.5352 1261.63 50.2287L1251.16 57.1609C1251.16 57.1609 1259.33 59.0662 1269.23 59.6503V63.6121H1280.24V59.6503C1290.14 59.0662 1298.31 57.1609 1298.31 57.1609Z" fill="black" fill-opacity="0.09"/>
<path d="M1193.52 54.5031L1179.92 45.0797C1185.03 44.1369 1188.42 43.1478 1188.42 43.1478L1176.98 33.6358C1180.81 32.7236 1183.32 31.8061 1183.32 31.8061L1173.68 21.7637C1176.43 20.8209 1178.21 19.8961 1178.21 19.8961L1162.9 0L1147.6 19.8961C1147.6 19.8961 1149.38 20.8209 1152.12 21.7637L1142.5 31.8061C1142.5 31.8061 1145 32.7236 1148.83 33.6347L1137.39 43.1478C1137.39 43.1478 1140.78 44.1369 1145.89 45.0797L1132.29 54.5031C1132.29 54.5031 1142.9 57.0931 1155.76 57.8872V63.2727H1170.05V57.8872C1182.91 57.0931 1193.52 54.5031 1193.52 54.5031Z" fill="black" fill-opacity="0.09"/>
<path d="M1248.5 57.1609L1237.56 50.2287C1241.67 49.5352 1244.39 48.8075 1244.39 48.8075L1235.19 41.8102C1238.27 41.1392 1240.29 40.4643 1240.29 40.4643L1232.54 33.0767C1234.75 32.3832 1236.18 31.7029 1236.18 31.7029L1223.87 17.0667L1211.55 31.7029C1211.55 31.7029 1212.99 32.3832 1215.19 33.0767L1207.45 40.4643C1207.45 40.4643 1209.46 41.1392 1212.54 41.8094L1203.34 48.8075C1203.34 48.8075 1206.06 49.5352 1210.17 50.2287L1199.23 57.1609C1199.23 57.1609 1207.77 59.0662 1218.12 59.6503V63.6121H1229.61V59.6503C1239.96 59.0662 1248.5 57.1609 1248.5 57.1609Z" fill="black" fill-opacity="0.09"/>
<path d="M196.973 55.8468L186.814 47.3982C190.633 46.553 193.161 45.6662 193.161 45.6662L184.616 37.1382C187.478 36.3203 189.349 35.4978 189.349 35.4978L182.154 26.4942C184.205 25.649 185.537 24.8198 185.537 24.8198L174.1 6.98193L162.664 24.8198C162.664 24.8198 163.996 25.649 166.046 26.4942L158.852 35.4978C158.852 35.4978 160.723 36.3203 163.584 37.1372L155.039 45.6662C155.039 45.6662 157.567 46.553 161.385 47.3982L151.228 55.8468C151.228 55.8468 159.157 58.1688 168.763 58.8808V63.7092H179.438V58.8808C189.043 58.1688 196.973 55.8468 196.973 55.8468Z" fill="black" fill-opacity="0.09"/>
<path d="M154.952 54.5031L141.355 45.0797C146.467 44.1369 149.85 43.1478 149.85 43.1478L138.413 33.6358C142.243 32.7236 144.748 31.8061 144.748 31.8061L135.117 21.7637C137.862 20.8209 139.645 19.8961 139.645 19.8961L124.337 0L109.031 19.8961C109.031 19.8961 110.814 20.8209 113.558 21.7637L103.929 31.8061C103.929 31.8061 106.433 32.7236 110.262 33.6347L98.8257 43.1478C98.8257 43.1478 102.209 44.1369 107.32 45.0797L93.7236 54.5031C93.7236 54.5031 104.336 57.0931 117.194 57.8872V63.2727H131.482V57.8872C144.339 57.0931 154.952 54.5031 154.952 54.5031Z" fill="black" fill-opacity="0.09"/>
<path d="M565.644 55.8468L553.453 47.3982C558.036 46.553 561.07 45.6662 561.07 45.6662L550.816 37.1382C554.249 36.3203 556.495 35.4978 556.495 35.4978L547.861 26.4942C550.321 25.649 551.92 24.8198 551.92 24.8198L538.195 6.98193L524.473 24.8198C524.473 24.8198 526.071 25.649 528.531 26.4942L519.898 35.4978C519.898 35.4978 522.143 36.3203 525.576 37.1372L515.323 45.6662C515.323 45.6662 518.357 46.553 522.938 47.3982L510.749 55.8468C510.749 55.8468 520.264 58.1688 531.792 58.8808V63.7092H544.601V58.8808C556.128 58.1688 565.644 55.8468 565.644 55.8468Z" fill="black" fill-opacity="0.09"/>
<path d="M649.515 55.8468L637.324 47.3982C641.907 46.553 644.941 45.6662 644.941 45.6662L634.687 37.1382C638.12 36.3203 640.366 35.4978 640.366 35.4978L631.732 26.4942C634.193 25.649 635.791 24.8198 635.791 24.8198L622.067 6.98193L608.344 24.8198C608.344 24.8198 609.942 25.649 612.402 26.4942L603.77 35.4978C603.77 35.4978 606.015 36.3203 609.447 37.1372L599.194 45.6662C599.194 45.6662 602.228 46.553 606.81 47.3982L594.62 55.8468C594.62 55.8468 604.135 58.1688 615.663 58.8808V63.7092H628.472V58.8808C639.999 58.1688 649.515 55.8468 649.515 55.8468Z" fill="black" fill-opacity="0.09"/>
<path d="M688.902 58.6244L681.244 53.317C684.123 52.786 686.029 52.2289 686.029 52.2289L679.587 46.8715C681.744 46.3578 683.155 45.8411 683.155 45.8411L677.731 40.185C679.277 39.654 680.281 39.1331 680.281 39.1331L671.659 27.9272L663.038 39.1331C663.038 39.1331 664.043 39.654 665.588 40.185L660.165 45.8411C660.165 45.8411 661.575 46.3578 663.732 46.8709L657.291 52.2289C657.291 52.2289 659.196 52.786 662.074 53.317L654.417 58.6244C654.417 58.6244 660.394 60.0831 667.636 60.5304V63.5636H675.683V60.5304C682.924 60.0831 688.902 58.6244 688.902 58.6244Z" fill="black" fill-opacity="0.09"/>
<path d="M598.309 58.3552L589.556 52.2895C592.847 51.6827 595.025 51.046 595.025 51.046L587.663 44.9233C590.128 44.3362 591.74 43.7456 591.74 43.7456L585.541 37.2815C587.308 36.6747 588.456 36.0794 588.456 36.0794L578.602 23.2727L568.75 36.0794C568.75 36.0794 569.898 36.6747 571.664 37.2815L565.466 43.7456C565.466 43.7456 567.078 44.3362 569.542 44.9226L562.181 51.046C562.181 51.046 564.359 51.6827 567.648 52.2895L558.897 58.3552C558.897 58.3552 565.728 60.0223 574.005 60.5334V64H583.201V60.5334C591.477 60.0223 598.309 58.3552 598.309 58.3552Z" fill="black" fill-opacity="0.09"/>
<path d="M732.658 58.3552L723.906 52.2895C727.196 51.6827 729.374 51.046 729.374 51.046L722.012 44.9233C724.477 44.3362 726.09 43.7456 726.09 43.7456L719.89 37.2815C721.657 36.6747 722.805 36.0794 722.805 36.0794L712.951 23.2727L703.099 36.0794C703.099 36.0794 704.247 36.6747 706.013 37.2815L699.815 43.7456C699.815 43.7456 701.427 44.3362 703.891 44.9226L696.53 51.046C696.53 51.046 698.708 51.6827 701.998 52.2895L693.246 58.3552C693.246 58.3552 700.077 60.0223 708.354 60.5334V64H717.55V60.5334C725.826 60.0223 732.658 58.3552 732.658 58.3552Z" fill="black" fill-opacity="0.09"/>
<path d="M789.737 55.6974L778.484 47.1405C782.715 46.2844 785.515 45.3862 785.515 45.3862L776.049 36.7489C779.219 35.9206 781.292 35.0875 781.292 35.0875L773.322 25.9685C775.593 25.1124 777.069 24.2726 777.069 24.2726L764.4 6.20605L751.733 24.2726C751.733 24.2726 753.209 25.1124 755.479 25.9685L747.511 35.0875C747.511 35.0875 749.583 35.9206 752.752 36.7479L743.287 45.3862C743.287 45.3862 746.087 46.2844 750.317 47.1405L739.065 55.6974C739.065 55.6974 747.848 58.0492 758.489 58.7703V63.6606H770.313V58.7703C780.953 58.0492 789.737 55.6974 789.737 55.6974Z" fill="black" fill-opacity="0.09"/>
<path d="M299.785 55.8468L287.594 47.3982C292.177 46.553 295.211 45.6662 295.211 45.6662L284.957 37.1382C288.39 36.3203 290.636 35.4978 290.636 35.4978L282.002 26.4942C284.463 25.649 286.061 24.8198 286.061 24.8198L272.337 6.98193L258.614 24.8198C258.614 24.8198 260.212 25.649 262.672 26.4942L254.04 35.4978C254.04 35.4978 256.285 36.3203 259.717 37.1372L249.464 45.6662C249.464 45.6662 252.498 46.553 257.08 47.3982L244.89 55.8468C244.89 55.8468 254.405 58.1688 265.933 58.8808V63.7092H278.742V58.8808C290.269 58.1688 299.785 55.8468 299.785 55.8468Z" fill="black" fill-opacity="0.09"/>
<path d="M92.219 58.6244L84.561 53.317C87.4399 52.786 89.3455 52.2289 89.3455 52.2289L82.9039 46.8715C85.061 46.3578 86.4719 45.8411 86.4719 45.8411L81.0476 40.185C82.5935 39.654 83.5978 39.1331 83.5978 39.1331L74.9759 27.9272L66.3552 39.1331C66.3552 39.1331 67.3594 39.654 68.9047 40.185L63.4816 45.8411C63.4816 45.8411 64.8919 46.3578 67.0484 46.8709L60.6075 52.2289C60.6075 52.2289 62.5131 52.786 65.3914 53.317L57.7339 58.6244C57.7339 58.6244 63.7111 60.0831 70.953 60.5304V63.5636H78.9999V60.5304C86.2412 60.0831 92.219 58.6244 92.219 58.6244Z" fill="black" fill-opacity="0.09"/>
<path d="M337.341 58.6244L329.683 53.317C332.561 52.786 334.467 52.2289 334.467 52.2289L328.025 46.8715C330.183 46.3578 331.593 45.8411 331.593 45.8411L326.169 40.185C327.715 39.654 328.719 39.1331 328.719 39.1331L320.097 27.9272L311.477 39.1331C311.477 39.1331 312.481 39.654 314.026 40.185L308.603 45.8411C308.603 45.8411 310.014 46.3578 312.17 46.8709L305.729 52.2289C305.729 52.2289 307.635 52.786 310.513 53.317L302.855 58.6244C302.855 58.6244 308.833 60.0831 316.075 60.5304V63.5636H324.122V60.5304C331.363 60.0831 337.341 58.6244 337.341 58.6244Z" fill="black" fill-opacity="0.09"/>
<path d="M54.8947 55.8468L42.7043 47.3982C47.2871 46.553 50.3205 45.6662 50.3205 45.6662L40.0665 37.1382C43.5003 36.3203 45.7462 35.4978 45.7462 35.4978L37.1117 26.4942C39.5725 25.649 41.171 24.8198 41.171 24.8198L27.4464 6.98193L13.7237 24.8198C13.7237 24.8198 15.3223 25.649 17.7821 26.4942L9.14944 35.4978C9.14944 35.4978 11.3944 36.3203 14.8273 37.1372L4.57425 45.6662C4.57425 45.6662 7.60765 46.553 12.1895 47.3982L0 55.8468C0 55.8468 9.51477 58.1688 21.0427 58.8808V63.7092H33.8521V58.8808C45.379 58.1688 54.8947 55.8468 54.8947 55.8468Z" fill="black" fill-opacity="0.09"/>
<path d="M237.683 58.3552L228.931 52.2895C232.221 51.6827 234.399 51.046 234.399 51.046L227.037 44.9233C229.502 44.3362 231.115 43.7456 231.115 43.7456L224.916 37.2815C226.682 36.6747 227.83 36.0794 227.83 36.0794L217.977 23.2727L208.124 36.0794C208.124 36.0794 209.272 36.6747 211.038 37.2815L204.84 43.7456C204.84 43.7456 206.452 44.3362 208.917 44.9226L201.556 51.046C201.556 51.046 203.733 51.6827 207.023 52.2895L198.271 58.3552C198.271 58.3552 205.103 60.0223 213.379 60.5334V64H222.576V60.5334C230.851 60.0223 237.683 58.3552 237.683 58.3552Z" fill="black" fill-opacity="0.09"/>
<path d="M508.31 57.1609L497.839 50.2287C501.776 49.5352 504.381 48.8075 504.381 48.8075L495.573 41.8102C498.523 41.1392 500.452 40.4643 500.452 40.4643L493.035 33.0767C495.149 32.3832 496.522 31.7029 496.522 31.7029L484.733 17.0667L472.946 31.7029C472.946 31.7029 474.319 32.3832 476.432 33.0767L469.016 40.4643C469.016 40.4643 470.945 41.1392 473.893 41.8094L465.086 48.8075C465.086 48.8075 467.692 49.5352 471.628 50.2287L461.157 57.1609C461.157 57.1609 469.33 59.0662 479.232 59.6503V63.6121H490.235V59.6503C500.137 59.0662 508.31 57.1609 508.31 57.1609Z" fill="black" fill-opacity="0.09"/>
<path d="M403.52 54.5031L389.923 45.0797C395.034 44.1369 398.418 43.1478 398.418 43.1478L386.981 33.6358C390.811 32.7236 393.316 31.8061 393.316 31.8061L383.685 21.7637C386.43 20.8209 388.213 19.8961 388.213 19.8961L372.904 0L357.598 19.8961C357.598 19.8961 359.381 20.8209 362.125 21.7637L352.496 31.8061C352.496 31.8061 355 32.7236 358.829 33.6347L347.393 43.1478C347.393 43.1478 350.776 44.1369 355.887 45.0797L342.291 54.5031C342.291 54.5031 352.904 57.0931 365.762 57.8872V63.2727H380.049V57.8872C392.906 57.0931 403.52 54.5031 403.52 54.5031Z" fill="black" fill-opacity="0.09"/>
<path d="M458.499 57.1609L447.559 50.2287C451.672 49.5352 454.394 48.8075 454.394 48.8075L445.192 41.8102C448.274 41.1392 450.289 40.4643 450.289 40.4643L442.54 33.0767C444.749 32.3832 446.183 31.7029 446.183 31.7029L433.866 17.0667L421.551 31.7029C421.551 31.7029 422.986 32.3832 425.193 33.0767L417.446 40.4643C417.446 40.4643 419.461 41.1392 422.541 41.8094L413.34 48.8075C413.34 48.8075 416.062 49.5352 420.174 50.2287L409.235 57.1609C409.235 57.1609 417.774 59.0662 428.119 59.6503V63.6121H439.615V59.6503C449.96 59.0662 458.499 57.1609 458.499 57.1609Z" fill="black" fill-opacity="0.09"/>
</svg>
