<svg width="156" height="33" viewBox="0 0 156 33" fill="none" xmlns="http://www.w3.org/2000/svg">
<path d="M13.4411 4.19106C14.5566 1.64487 17.073 0 19.8528 0H144.116C149.281 0 152.668 5.40208 150.417 10.0507L141.217 29.0507C140.047 31.4659 137.6 33 134.916 33H11.529C6.47945 33 3.09105 27.8162 5.11732 23.1911L13.4411 4.19106Z" fill="#F1F1F1"/>
<path d="M41.5558 7.534C42.3038 7.534 43.1178 7.578 43.9978 7.666C44.8778 7.73933 45.7358 7.89333 46.5718 8.128L46.3518 10.372C45.7065 10.3427 44.9438 10.3207 44.0638 10.306C43.1985 10.2913 42.3551 10.284 41.5338 10.284C40.9911 10.284 40.5511 10.3133 40.2138 10.372C39.8911 10.4307 39.6565 10.5627 39.5098 10.768C39.3778 10.9587 39.3118 11.2813 39.3118 11.736C39.3118 12.264 39.4291 12.6453 39.6638 12.88C39.9131 13.1147 40.3311 13.32 40.9178 13.496L43.8438 14.442C45.0465 14.8673 45.8825 15.432 46.3518 16.136C46.8358 16.8253 47.0778 17.742 47.0778 18.886C47.0778 20.0447 46.8945 20.9467 46.5278 21.592C46.1611 22.2227 45.5598 22.6627 44.7238 22.912C43.9025 23.1613 42.8025 23.286 41.4238 23.286C40.9251 23.286 40.2138 23.2493 39.2898 23.176C38.3658 23.1173 37.3171 22.956 36.1438 22.692L36.3418 20.316C37.6471 20.36 38.6885 20.3893 39.4658 20.404C40.2578 20.4187 40.9105 20.426 41.4238 20.426C42.3038 20.426 42.9051 20.338 43.2278 20.162C43.5505 19.9713 43.7118 19.5607 43.7118 18.93C43.7118 18.3873 43.5945 18.006 43.3598 17.786C43.1398 17.566 42.7658 17.3753 42.2378 17.214L39.1578 16.158C37.9845 15.7473 37.1558 15.1973 36.6718 14.508C36.2025 13.8187 35.9678 12.902 35.9678 11.758C35.9678 10.5993 36.1511 9.71933 36.5178 9.118C36.8991 8.502 37.5005 8.084 38.3218 7.864C39.1431 7.644 40.2211 7.534 41.5558 7.534Z" fill="#FF3E28"/>
<path d="M60.1884 12.132L56.6024 22.23C56.4264 22.7433 56.0744 23 55.5464 23H52.7304C52.1877 23 51.8357 22.7433 51.6744 22.23L48.0884 12.132H51.5204L53.5224 18.93C53.6104 19.2527 53.6911 19.5827 53.7644 19.92C53.8377 20.2573 53.9111 20.58 53.9844 20.888H54.2704C54.3437 20.5653 54.4244 20.2427 54.5124 19.92C54.6004 19.5827 54.6884 19.2527 54.7764 18.93L56.7564 12.132H60.1884ZM66.6265 11.846C68.4598 11.846 69.7725 12.1613 70.5645 12.792C71.3712 13.4227 71.7745 14.3467 71.7745 15.564C71.7892 16.5467 71.5398 17.2873 71.0265 17.786C70.5132 18.2847 69.6258 18.534 68.3645 18.534H64.4925C64.5805 19.3847 64.8225 19.9567 65.2185 20.25C65.6292 20.5433 66.2598 20.69 67.1105 20.69C67.6092 20.69 68.2252 20.6753 68.9585 20.646C69.7065 20.602 70.4545 20.536 71.2025 20.448L71.5105 22.45C70.8652 22.758 70.1025 22.9707 69.2225 23.088C68.3572 23.2053 67.5285 23.264 66.7365 23.264C64.6538 23.264 63.1798 22.8093 62.3145 21.9C61.4638 20.9907 61.0385 19.5533 61.0385 17.588C61.0385 16.1653 61.2218 15.036 61.5885 14.2C61.9698 13.364 62.5712 12.7627 63.3925 12.396C64.2138 12.0293 65.2918 11.846 66.6265 11.846ZM66.7365 14.134C66.1792 14.134 65.7318 14.2 65.3945 14.332C65.0718 14.464 64.8372 14.7207 64.6905 15.102C64.5438 15.4687 64.4558 16.004 64.4265 16.708H67.4845C67.9685 16.708 68.2765 16.6053 68.4085 16.4C68.5552 16.1947 68.6285 15.894 68.6285 15.498C68.6285 14.9847 68.4818 14.6327 68.1885 14.442C67.8952 14.2367 67.4112 14.134 66.7365 14.134ZM81.1785 12.132V14.266H78.1425V19.524C78.1425 19.92 78.2305 20.206 78.4065 20.382C78.5825 20.5433 78.8905 20.624 79.3305 20.624H80.7385L81.0905 22.824C80.8118 22.9267 80.4818 23.0073 80.1005 23.066C79.7191 23.1247 79.3378 23.1687 78.9565 23.198C78.5898 23.2273 78.2745 23.242 78.0105 23.242C77.0278 23.242 76.2578 22.9853 75.7005 22.472C75.1578 21.944 74.8865 21.2033 74.8865 20.25V14.266H72.9945V12.242L74.8865 12.154V9.118H78.1425V12.132H81.1785ZM86.1979 7.6L86.1759 19.524C86.1759 20.2573 86.6086 20.624 87.4739 20.624H88.3539L88.7279 22.824C88.5372 22.9267 88.2806 23.0073 87.9579 23.066C87.6352 23.1247 87.3052 23.1687 86.9679 23.198C86.6306 23.2273 86.3519 23.242 86.1319 23.242C85.1492 23.242 84.3719 22.9927 83.7999 22.494C83.2426 21.9807 82.9639 21.262 82.9639 20.338V7.6H86.1979ZM95.8592 11.846C97.2232 11.846 98.2718 12.132 99.0052 12.704C99.7385 13.276 100.105 14.31 100.105 15.806V23H97.5312L97.1792 21.284C96.7832 21.7387 96.2478 22.1787 95.5732 22.604C94.8985 23.0293 94.0698 23.242 93.0872 23.242C92.1045 23.242 91.2758 22.9853 90.6012 22.472C89.9265 21.9587 89.5892 21.196 89.5892 20.184V19.062C89.5892 18.1967 89.8825 17.522 90.4692 17.038C91.0558 16.554 91.8625 16.312 92.8892 16.312H96.8492V15.806C96.8345 15.278 96.7025 14.904 96.4532 14.684C96.2185 14.4493 95.7712 14.332 95.1112 14.332C94.5392 14.332 93.8352 14.354 92.9992 14.398C92.1632 14.4273 91.3052 14.4713 90.4252 14.53L90.1392 12.374C90.6525 12.286 91.2465 12.2053 91.9212 12.132C92.6105 12.044 93.2998 11.978 93.9892 11.934C94.6785 11.8753 95.3018 11.846 95.8592 11.846ZM94.0992 20.888C94.4952 20.888 94.9352 20.8 95.4192 20.624C95.9178 20.4333 96.3945 20.1767 96.8492 19.854V18.138H93.9012C93.5052 18.1527 93.2192 18.2553 93.0432 18.446C92.8818 18.6367 92.8012 18.8933 92.8012 19.216V19.744C92.8012 20.5067 93.2338 20.888 94.0992 20.888ZM105.261 12.132L105.547 13.782C107.101 12.4913 108.656 11.846 110.211 11.846C112.264 11.846 113.291 12.8507 113.291 14.86V23H110.035V15.872C110.035 15.388 109.947 15.058 109.771 14.882C109.595 14.6913 109.294 14.596 108.869 14.596C108.429 14.596 107.981 14.6767 107.527 14.838C107.072 14.9847 106.529 15.2193 105.899 15.542V23H102.665V12.132H105.261ZM121.597 11.846C122.961 11.846 124.01 12.132 124.743 12.704C125.477 13.276 125.843 14.31 125.843 15.806V23H123.269L122.917 21.284C122.521 21.7387 121.986 22.1787 121.311 22.604C120.637 23.0293 119.808 23.242 118.825 23.242C117.843 23.242 117.014 22.9853 116.339 22.472C115.665 21.9587 115.327 21.196 115.327 20.184V19.062C115.327 18.1967 115.621 17.522 116.207 17.038C116.794 16.554 117.601 16.312 118.627 16.312H122.587V15.806C122.573 15.278 122.441 14.904 122.191 14.684C121.957 14.4493 121.509 14.332 120.849 14.332C120.277 14.332 119.573 14.354 118.737 14.398C117.901 14.4273 117.043 14.4713 116.163 14.53L115.877 12.374C116.391 12.286 116.985 12.2053 117.659 12.132C118.349 12.044 119.038 11.978 119.727 11.934C120.417 11.8753 121.04 11.846 121.597 11.846ZM119.837 20.888C120.233 20.888 120.673 20.8 121.157 20.624C121.656 20.4333 122.133 20.1767 122.587 19.854V18.138H119.639C119.243 18.1527 118.957 18.2553 118.781 18.446C118.62 18.6367 118.539 18.8933 118.539 19.216V19.744C118.539 20.5067 118.972 20.888 119.837 20.888Z" fill="#424347"/>
</svg>
