<svg width="267" height="33" viewBox="0 0 267 33" fill="none" xmlns="http://www.w3.org/2000/svg">
<path d="M20.9595 2.99171C22.2689 1.11697 24.4115 0 26.6983 0H251.966C257.755 0 261.042 6.62557 257.54 11.2346L243.105 30.2346C241.782 31.9769 239.72 33 237.532 33H13.4276C7.76775 33 4.44791 26.6318 7.68882 21.9917L20.9595 2.99171Z" fill="#F1F1F1"/>
<path d="M45.563 11.562C46.427 11.562 47.297 11.568 48.173 11.58C49.061 11.592 49.907 11.628 50.711 11.688L50.621 12.912H45.959C45.539 12.912 45.233 13.008 45.041 13.2C44.849 13.38 44.753 13.68 44.753 14.1V16.98H49.937V18.258H44.753V24H43.169V13.794C43.169 13.086 43.385 12.54 43.817 12.156C44.249 11.76 44.831 11.562 45.563 11.562ZM56.1729 15.018C57.1809 15.018 57.9849 15.168 58.5849 15.468C59.1969 15.768 59.6349 16.26 59.8989 16.944C60.1629 17.616 60.2949 18.51 60.2949 19.626C60.2949 20.742 60.1629 21.642 59.8989 22.326C59.6349 22.998 59.1969 23.484 58.5849 23.784C57.9849 24.084 57.1809 24.234 56.1729 24.234C55.1769 24.234 54.3729 24.084 53.7609 23.784C53.1609 23.484 52.7229 22.998 52.4469 22.326C52.1829 21.642 52.0509 20.742 52.0509 19.626C52.0509 18.51 52.1829 17.616 52.4469 16.944C52.7229 16.26 53.1609 15.768 53.7609 15.468C54.3729 15.168 55.1769 15.018 56.1729 15.018ZM56.1729 16.314C55.5369 16.314 55.0329 16.416 54.6609 16.62C54.3009 16.812 54.0429 17.148 53.8869 17.628C53.7309 18.108 53.6529 18.774 53.6529 19.626C53.6529 20.478 53.7309 21.144 53.8869 21.624C54.0429 22.104 54.3009 22.446 54.6609 22.65C55.0329 22.842 55.5369 22.938 56.1729 22.938C56.8089 22.938 57.3129 22.842 57.6849 22.65C58.0569 22.446 58.3209 22.104 58.4769 21.624C58.6329 21.144 58.7109 20.478 58.7109 19.626C58.7109 18.774 58.6329 18.108 58.4769 17.628C58.3209 17.148 58.0569 16.812 57.6849 16.62C57.3129 16.416 56.8089 16.314 56.1729 16.314ZM64.1714 15.234V21.39C64.1594 21.942 64.2614 22.332 64.4774 22.56C64.6934 22.788 65.0534 22.902 65.5574 22.902C66.0254 22.902 66.4934 22.8 66.9614 22.596C67.4294 22.38 67.9814 22.062 68.6174 21.642V15.234H70.1474V24H68.9234L68.8154 22.722C68.1554 23.226 67.5194 23.604 66.9074 23.856C66.2954 24.108 65.6714 24.234 65.0354 24.234C63.4394 24.234 62.6414 23.43 62.6414 21.822V15.234H64.1714ZM74.257 15.234L74.365 16.62C75.025 16.104 75.679 15.708 76.327 15.432C76.987 15.156 77.641 15.018 78.289 15.018C79.873 15.018 80.665 15.822 80.665 17.43V24H79.135V17.862C79.135 17.274 79.039 16.872 78.847 16.656C78.655 16.428 78.331 16.314 77.875 16.314C77.359 16.314 76.837 16.44 76.309 16.692C75.793 16.932 75.187 17.262 74.491 17.682V24H72.961V15.234H74.257ZM86.336 15.018C87.428 15.018 88.466 15.282 89.45 15.81C89.426 15.534 89.408 15.258 89.396 14.982C89.384 14.706 89.378 14.412 89.378 14.1V11.4H90.908V24H89.72L89.576 22.74C89.096 23.148 88.562 23.496 87.974 23.784C87.398 24.072 86.774 24.216 86.102 24.216C84.998 24.216 84.206 23.826 83.726 23.046C83.258 22.266 83.024 21.114 83.024 19.59C83.024 18.45 83.144 17.55 83.384 16.89C83.624 16.218 83.99 15.738 84.482 15.45C84.974 15.162 85.592 15.018 86.336 15.018ZM84.59 19.572C84.59 20.436 84.656 21.108 84.788 21.588C84.932 22.068 85.154 22.404 85.454 22.596C85.754 22.788 86.138 22.884 86.606 22.884C87.098 22.884 87.536 22.788 87.92 22.596C88.304 22.404 88.79 22.098 89.378 21.678V16.836C88.862 16.692 88.4 16.578 87.992 16.494C87.584 16.398 87.152 16.35 86.696 16.35C86.192 16.35 85.784 16.44 85.472 16.62C85.172 16.788 84.95 17.106 84.806 17.574C84.662 18.042 84.59 18.708 84.59 19.572ZM97.3384 15.018C98.6584 15.018 99.6124 15.258 100.2 15.738C100.8 16.218 101.1 16.932 101.1 17.88C101.112 18.66 100.95 19.272 100.614 19.716C100.278 20.148 99.7444 20.364 99.0124 20.364H94.9444C94.9924 21.06 95.1184 21.594 95.3224 21.966C95.5384 22.326 95.8384 22.578 96.2224 22.722C96.6064 22.854 97.0984 22.92 97.6984 22.92C98.1664 22.92 98.6764 22.902 99.2284 22.866C99.7924 22.818 100.296 22.764 100.74 22.704L100.902 23.73C100.626 23.838 100.284 23.928 99.8764 24C99.4804 24.072 99.0664 24.126 98.6344 24.162C98.2144 24.198 97.8364 24.216 97.5004 24.216C96.4924 24.216 95.6824 24.066 95.0704 23.766C94.4584 23.454 94.0084 22.962 93.7204 22.29C93.4444 21.606 93.3064 20.706 93.3064 19.59C93.3064 18.438 93.4444 17.532 93.7204 16.872C94.0084 16.2 94.4464 15.726 95.0344 15.45C95.6344 15.162 96.4024 15.018 97.3384 15.018ZM97.4104 16.314C96.7984 16.314 96.3124 16.398 95.9524 16.566C95.6044 16.734 95.3464 17.028 95.1784 17.448C95.0224 17.856 94.9324 18.432 94.9084 19.176H98.6164C99.0124 19.176 99.2704 19.044 99.3904 18.78C99.5104 18.504 99.5704 18.204 99.5704 17.88C99.5584 17.316 99.3904 16.914 99.0664 16.674C98.7424 16.434 98.1904 16.314 97.4104 16.314ZM104.594 15.234L104.756 16.62C105.392 16.116 106.022 15.726 106.646 15.45C107.282 15.162 107.9 15.018 108.5 15.018H108.896L108.716 16.458H108.212C107.72 16.458 107.222 16.56 106.718 16.764C106.226 16.956 105.632 17.226 104.936 17.574V24H103.406V15.234H104.594ZM117.96 15.018C118.968 15.018 119.772 15.168 120.372 15.468C120.984 15.768 121.422 16.26 121.686 16.944C121.95 17.616 122.082 18.51 122.082 19.626C122.082 20.742 121.95 21.642 121.686 22.326C121.422 22.998 120.984 23.484 120.372 23.784C119.772 24.084 118.968 24.234 117.96 24.234C116.964 24.234 116.16 24.084 115.548 23.784C114.948 23.484 114.51 22.998 114.234 22.326C113.97 21.642 113.838 20.742 113.838 19.626C113.838 18.51 113.97 17.616 114.234 16.944C114.51 16.26 114.948 15.768 115.548 15.468C116.16 15.168 116.964 15.018 117.96 15.018ZM117.96 16.314C117.324 16.314 116.82 16.416 116.448 16.62C116.088 16.812 115.83 17.148 115.674 17.628C115.518 18.108 115.44 18.774 115.44 19.626C115.44 20.478 115.518 21.144 115.674 21.624C115.83 22.104 116.088 22.446 116.448 22.65C116.82 22.842 117.324 22.938 117.96 22.938C118.596 22.938 119.1 22.842 119.472 22.65C119.844 22.446 120.108 22.104 120.264 21.624C120.42 21.144 120.498 20.478 120.498 19.626C120.498 18.774 120.42 18.108 120.264 17.628C120.108 17.148 119.844 16.812 119.472 16.62C119.1 16.416 118.596 16.314 117.96 16.314ZM129.487 15.234V16.44H126.679V24H125.149V16.44H123.565V15.324L125.149 15.234V13.668C125.149 12.852 125.341 12.222 125.725 11.778C126.109 11.322 126.769 11.094 127.705 11.094C127.897 11.094 128.143 11.1 128.443 11.112C128.743 11.112 129.049 11.124 129.361 11.148C129.673 11.16 129.943 11.184 130.171 11.22L130.045 12.354H128.245C127.669 12.354 127.261 12.468 127.021 12.696C126.793 12.924 126.679 13.302 126.679 13.83V15.234H129.487ZM139.646 15.234V16.44H136.856V21.588C136.856 22.008 136.946 22.308 137.126 22.488C137.306 22.668 137.612 22.758 138.044 22.758H139.376L139.556 23.928C139.268 24.012 138.92 24.072 138.512 24.108C138.104 24.144 137.792 24.162 137.576 24.162C136.844 24.162 136.286 23.958 135.902 23.55C135.518 23.142 135.326 22.554 135.326 21.786V16.44H133.742V15.324L135.326 15.234V12.642H136.856V15.234H139.646ZM146.844 15.018C148.428 15.018 149.22 15.822 149.22 17.43V24H147.672V17.862C147.672 17.274 147.576 16.872 147.384 16.656C147.204 16.428 146.886 16.314 146.43 16.314C145.914 16.314 145.392 16.434 144.864 16.674C144.348 16.902 143.742 17.238 143.046 17.682V24H141.516V11.4H143.046L143.064 14.874C143.064 15.198 143.052 15.504 143.028 15.792C143.016 16.08 142.992 16.344 142.956 16.584C143.616 16.104 144.264 15.726 144.9 15.45C145.548 15.162 146.196 15.018 146.844 15.018ZM155.575 15.018C156.895 15.018 157.849 15.258 158.437 15.738C159.037 16.218 159.337 16.932 159.337 17.88C159.349 18.66 159.187 19.272 158.851 19.716C158.515 20.148 157.981 20.364 157.249 20.364H153.181C153.229 21.06 153.355 21.594 153.559 21.966C153.775 22.326 154.075 22.578 154.459 22.722C154.843 22.854 155.335 22.92 155.935 22.92C156.403 22.92 156.913 22.902 157.465 22.866C158.029 22.818 158.533 22.764 158.977 22.704L159.139 23.73C158.863 23.838 158.521 23.928 158.113 24C157.717 24.072 157.303 24.126 156.871 24.162C156.451 24.198 156.073 24.216 155.737 24.216C154.729 24.216 153.919 24.066 153.307 23.766C152.695 23.454 152.245 22.962 151.957 22.29C151.681 21.606 151.543 20.706 151.543 19.59C151.543 18.438 151.681 17.532 151.957 16.872C152.245 16.2 152.683 15.726 153.271 15.45C153.871 15.162 154.639 15.018 155.575 15.018ZM155.647 16.314C155.035 16.314 154.549 16.398 154.189 16.566C153.841 16.734 153.583 17.028 153.415 17.448C153.259 17.856 153.169 18.432 153.145 19.176H156.853C157.249 19.176 157.507 19.044 157.627 18.78C157.747 18.504 157.807 18.204 157.807 17.88C157.795 17.316 157.627 16.914 157.303 16.674C156.979 16.434 156.427 16.314 155.647 16.314ZM168.566 15.018C169.142 15.03 169.766 15.06 170.438 15.108C171.11 15.144 171.716 15.204 172.256 15.288L172.13 16.404C171.578 16.38 171.02 16.362 170.456 16.35C169.904 16.326 169.352 16.314 168.8 16.314C168.26 16.302 167.834 16.314 167.522 16.35C167.21 16.386 166.982 16.482 166.838 16.638C166.706 16.794 166.64 17.058 166.64 17.43C166.64 17.886 166.748 18.186 166.964 18.33C167.18 18.474 167.498 18.594 167.918 18.69L170.474 19.266C171.17 19.434 171.68 19.692 172.004 20.04C172.34 20.388 172.508 20.934 172.508 21.678C172.508 22.398 172.37 22.938 172.094 23.298C171.83 23.658 171.422 23.898 170.87 24.018C170.318 24.138 169.616 24.198 168.764 24.198C168.452 24.198 167.984 24.186 167.36 24.162C166.748 24.138 166.07 24.066 165.326 23.946L165.434 22.83C165.866 22.854 166.334 22.878 166.838 22.902C167.354 22.914 167.894 22.914 168.458 22.902C169.118 22.902 169.634 22.872 170.006 22.812C170.378 22.752 170.642 22.638 170.798 22.47C170.954 22.29 171.032 22.026 171.032 21.678C171.032 21.246 170.906 20.958 170.654 20.814C170.402 20.67 170.066 20.55 169.646 20.454L167.126 19.878C166.418 19.71 165.908 19.44 165.596 19.068C165.296 18.696 165.146 18.15 165.146 17.43C165.146 16.746 165.266 16.23 165.506 15.882C165.746 15.534 166.118 15.3 166.622 15.18C167.126 15.06 167.774 15.006 168.566 15.018ZM178.535 15.018C178.919 15.018 179.375 15.048 179.903 15.108C180.443 15.156 180.929 15.264 181.361 15.432L181.163 16.422C180.767 16.386 180.347 16.362 179.903 16.35C179.471 16.326 179.099 16.314 178.787 16.314C178.091 16.314 177.539 16.41 177.131 16.602C176.723 16.794 176.429 17.13 176.249 17.61C176.069 18.09 175.979 18.756 175.979 19.608C175.979 20.46 176.069 21.132 176.249 21.624C176.429 22.104 176.723 22.44 177.131 22.632C177.539 22.824 178.091 22.92 178.787 22.92C179.051 22.92 179.435 22.908 179.939 22.884C180.443 22.86 180.917 22.812 181.361 22.74L181.523 23.766C181.079 23.922 180.593 24.036 180.065 24.108C179.549 24.18 179.033 24.216 178.517 24.216C177.509 24.216 176.699 24.066 176.087 23.766C175.475 23.466 175.031 22.98 174.755 22.308C174.491 21.636 174.359 20.736 174.359 19.608C174.359 18.48 174.497 17.58 174.773 16.908C175.049 16.236 175.493 15.756 176.105 15.468C176.717 15.168 177.527 15.018 178.535 15.018ZM188.926 15.018C190.51 15.018 191.302 15.822 191.302 17.43V24H189.754V17.862C189.754 17.274 189.658 16.872 189.466 16.656C189.286 16.428 188.968 16.314 188.512 16.314C187.996 16.314 187.474 16.434 186.946 16.674C186.43 16.902 185.824 17.238 185.128 17.682V24H183.598V11.4H185.128L185.146 14.874C185.146 15.198 185.134 15.504 185.11 15.792C185.098 16.08 185.074 16.344 185.038 16.584C185.698 16.104 186.346 15.726 186.982 15.45C187.63 15.162 188.278 15.018 188.926 15.018ZM197.765 15.018C198.773 15.018 199.577 15.168 200.177 15.468C200.789 15.768 201.227 16.26 201.491 16.944C201.755 17.616 201.887 18.51 201.887 19.626C201.887 20.742 201.755 21.642 201.491 22.326C201.227 22.998 200.789 23.484 200.177 23.784C199.577 24.084 198.773 24.234 197.765 24.234C196.769 24.234 195.965 24.084 195.353 23.784C194.753 23.484 194.315 22.998 194.039 22.326C193.775 21.642 193.643 20.742 193.643 19.626C193.643 18.51 193.775 17.616 194.039 16.944C194.315 16.26 194.753 15.768 195.353 15.468C195.965 15.168 196.769 15.018 197.765 15.018ZM197.765 16.314C197.129 16.314 196.625 16.416 196.253 16.62C195.893 16.812 195.635 17.148 195.479 17.628C195.323 18.108 195.245 18.774 195.245 19.626C195.245 20.478 195.323 21.144 195.479 21.624C195.635 22.104 195.893 22.446 196.253 22.65C196.625 22.842 197.129 22.938 197.765 22.938C198.401 22.938 198.905 22.842 199.277 22.65C199.649 22.446 199.913 22.104 200.069 21.624C200.225 21.144 200.303 20.478 200.303 19.626C200.303 18.774 200.225 18.108 200.069 17.628C199.913 17.148 199.649 16.812 199.277 16.62C198.905 16.416 198.401 16.314 197.765 16.314ZM207.995 15.018C209.003 15.018 209.807 15.168 210.407 15.468C211.019 15.768 211.457 16.26 211.721 16.944C211.985 17.616 212.117 18.51 212.117 19.626C212.117 20.742 211.985 21.642 211.721 22.326C211.457 22.998 211.019 23.484 210.407 23.784C209.807 24.084 209.003 24.234 207.995 24.234C206.999 24.234 206.195 24.084 205.583 23.784C204.983 23.484 204.545 22.998 204.269 22.326C204.005 21.642 203.873 20.742 203.873 19.626C203.873 18.51 204.005 17.616 204.269 16.944C204.545 16.26 204.983 15.768 205.583 15.468C206.195 15.168 206.999 15.018 207.995 15.018ZM207.995 16.314C207.359 16.314 206.855 16.416 206.483 16.62C206.123 16.812 205.865 17.148 205.709 17.628C205.553 18.108 205.475 18.774 205.475 19.626C205.475 20.478 205.553 21.144 205.709 21.624C205.865 22.104 206.123 22.446 206.483 22.65C206.855 22.842 207.359 22.938 207.995 22.938C208.631 22.938 209.135 22.842 209.507 22.65C209.879 22.446 210.143 22.104 210.299 21.624C210.455 21.144 210.533 20.478 210.533 19.626C210.533 18.774 210.455 18.108 210.299 17.628C210.143 17.148 209.879 16.812 209.507 16.62C209.135 16.416 208.631 16.314 207.995 16.314ZM216.066 11.4L216.048 21.588C216.048 22.368 216.45 22.758 217.254 22.758H218.1L218.28 23.928C218.112 24.012 217.854 24.072 217.506 24.108C217.17 24.144 216.894 24.162 216.678 24.162C216.03 24.162 215.508 23.97 215.112 23.586C214.728 23.202 214.536 22.65 214.536 21.93V11.4H216.066Z" fill="#424347"/>
</svg>
