<svg width="32" height="32" viewBox="0 0 32 32" fill="none" xmlns="http://www.w3.org/2000/svg">
<path d="M32 16C32 21.4875 29.2437 26.325 25.0312 29.2062C24.3563 29.6687 23.6437 30.0812 22.9 30.4375C20.8125 31.4375 18.4688 32 16 32C15.0375 32 14.0938 31.9125 13.1812 31.75C11.8687 31.5187 10.6125 31.125 9.43125 30.5938C3.86875 28.0875 0 22.4937 0 16C0 8.875 4.6625 2.83125 11.1 0.7625C11.2625 0.7125 11.4187 0.6625 11.5813 0.61875C12.425 0.375 13.2937 0.2 14.1875 0.1C14.7812 0.03125 15.3875 0 16 0C16.2625 0 16.5187 0.00625 16.7812 0.01875C25.25 0.425 32 7.425 32 16Z" fill="#F1F1F1"/>
<path d="M11.4499 16.5938C8.91242 16.5938 6.86242 18.6438 6.89992 21.1625C6.92492 22.775 7.81242 24.175 9.11867 24.9562C8.67492 24.275 8.41242 23.4688 8.39992 22.6C8.36242 20.0875 10.4124 18.0375 12.9499 18.0375C13.4499 18.0375 13.9312 18.1188 14.3812 18.2625V13.2312C13.9124 13.1625 13.4312 13.125 12.9499 13.125C12.9249 13.125 12.9062 13.125 12.8812 13.125V16.825C12.4312 16.675 11.9499 16.5938 11.4499 16.5938Z" fill="#F00044"/>
<path d="M22.4186 1.5H22.3811H21.0811C21.4561 3.38125 22.5123 5.01875 23.9873 6.13125C23.0186 4.85 22.4311 3.25 22.4186 1.5Z" fill="#F00044"/>
<path d="M30.0686 14.0687V9.1624C29.5748 9.1624 29.0998 9.1124 28.6311 9.0249V12.6249C26.9311 12.6249 25.2811 12.2937 23.7311 11.6312C22.7311 11.2062 21.7998 10.6624 20.9436 10.0062L20.9686 21.1249C20.9561 23.6249 19.9686 25.9686 18.1811 27.7374C16.7248 29.1749 14.8811 30.0936 12.8811 30.3874C12.4123 30.4562 11.9311 30.4936 11.4498 30.4936C10.2561 30.4936 9.0998 30.2749 8.01855 29.8686C8.4748 30.1311 8.94355 30.3749 9.43105 30.5936C10.6123 31.1249 11.8686 31.5186 13.1811 31.7499C13.4561 31.7999 13.7311 31.8374 14.0123 31.8749C14.1373 31.8624 14.2561 31.8436 14.3811 31.8249C16.3811 31.5311 18.2248 30.6124 19.6811 29.1749C21.4686 27.4061 22.4561 25.0624 22.4686 22.5624L22.3811 11.4437C23.2311 12.0999 24.1623 12.6499 25.1686 13.0687C26.7186 13.7312 28.3748 14.0687 30.0686 14.0687Z" fill="#F00044"/>
<path d="M4.70615 14.45C2.9374 16.2 1.93115 18.6 1.93115 21.0938C1.93115 22.4938 2.24365 23.8501 2.8249 25.0813C3.41865 25.9438 4.0999 26.7501 4.8499 27.4751C3.9249 26.0063 3.43115 24.3063 3.43115 22.5313C3.43115 20.0376 4.4374 17.6376 6.20615 15.8813C7.9874 14.1125 10.3562 13.1313 12.8812 13.1125V11.7813C12.4124 11.7125 11.9312 11.675 11.4499 11.675C8.8999 11.6813 6.50615 12.6625 4.70615 14.45Z" fill="#08FFF9"/>
<path d="M28.6312 9.01884V7.68135H28.6187C26.8812 7.68135 25.2812 7.10635 23.9937 6.13135C25.1124 7.60635 26.7499 8.65635 28.6312 9.01884Z" fill="#08FFF9"/>
<path d="M12.694 27.0187C13.2878 27.05 13.8565 26.9688 14.3815 26.8C16.194 26.2062 17.5003 24.5187 17.5003 22.5312L17.5065 15.0938V1.5H21.0815C20.9878 1.03125 20.9378 0.55625 20.9315 0.0625H16.0003V13.6438L15.994 21.0812C15.994 23.0687 14.6878 24.7563 12.8753 25.35C12.3503 25.525 11.7815 25.6063 11.1878 25.5688C10.4315 25.525 9.72529 25.3 9.11279 24.9375C9.88779 26.1313 11.2003 26.9375 12.694 27.0187Z" fill="#08FFF9"/>
<path d="M28.6312 12.6313V9.0251C26.7499 8.6626 25.1124 7.6126 23.9937 6.1376C22.5187 5.0251 21.4624 3.3876 21.0874 1.50635H17.5124V15.0876L17.5062 22.5251C17.5062 24.5126 16.1999 26.2001 14.3874 26.7938C13.8624 26.9688 13.2937 27.0501 12.6999 27.0126C11.1999 26.9313 9.89365 26.1251 9.1249 24.9438C7.81865 24.1688 6.93115 22.7626 6.90615 21.1501C6.86865 18.6376 8.91865 16.5876 11.4562 16.5876C11.9562 16.5876 12.4374 16.6688 12.8874 16.8126V13.1126C10.3624 13.1313 7.99365 14.1126 6.2124 15.8813C4.4374 17.6376 3.43115 20.0376 3.43115 22.5313C3.43115 24.3063 3.9249 26.0063 4.8499 27.4751C5.7999 28.4001 6.8624 29.2001 8.01865 29.8688C9.0999 30.2813 10.2562 30.4938 11.4499 30.4938C11.9312 30.4938 12.4124 30.4563 12.8812 30.3876C14.8812 30.0938 16.7249 29.1751 18.1812 27.7376C19.9687 25.9688 20.9562 23.6251 20.9687 21.1251L20.9437 10.0063C21.7937 10.6626 22.7249 11.2126 23.7312 11.6313C25.2812 12.2938 26.9374 12.6313 28.6312 12.6313Z" fill="black"/>
</svg>
