<svg width="58" height="58" viewBox="0 0 58 58" fill="none" xmlns="http://www.w3.org/2000/svg">
<path d="M29 53.1668C42.3469 53.1668 53.1667 42.347 53.1667 29.0001C53.1667 15.6532 42.3469 4.83344 29 4.83344C15.6532 4.83344 4.83337 15.6532 4.83337 29.0001C4.83337 42.347 15.6532 53.1668 29 53.1668Z" fill="#33DCD9"/>
<path d="M29 48.3332C39.6775 48.3332 48.3333 39.6774 48.3333 28.9999C48.3333 18.3224 39.6775 9.66656 29 9.66656C18.3225 9.66656 9.66663 18.3224 9.66663 28.9999C9.66663 39.6774 18.3225 48.3332 29 48.3332Z" fill="#EEEEEE"/>
<path d="M27.7916 13.2916H30.2083V28.9999H27.7916V13.2916Z" fill="black"/>
<path d="M37.8029 35.8319L35.8394 37.7966L27.9803 29.9376L29.9451 27.9717L37.8029 35.8319Z" fill="black"/>
<path d="M29 31.4168C30.3347 31.4168 31.4167 30.3348 31.4167 29.0001C31.4167 27.6654 30.3347 26.5834 29 26.5834C27.6654 26.5834 26.5834 27.6654 26.5834 29.0001C26.5834 30.3348 27.6654 31.4168 29 31.4168Z" fill="black"/>
<path d="M29 30.2082C29.6673 30.2082 30.2083 29.6672 30.2083 28.9999C30.2083 28.3326 29.6673 27.7916 29 27.7916C28.3326 27.7916 27.7916 28.3326 27.7916 28.9999C27.7916 29.6672 28.3326 30.2082 29 30.2082Z" fill="#00ACC1"/>
</svg>
