<svg width="17" height="17" viewBox="0 0 17 17" fill="none" xmlns="http://www.w3.org/2000/svg">
<path d="M7.58595 9.984C7.58595 9.516 7.68995 9.13033 7.89795 8.827C8.11462 8.515 8.42662 8.177 8.83395 7.813C9.14595 7.53567 9.37562 7.29733 9.52295 7.098C9.67895 6.89 9.75695 6.656 9.75695 6.396C9.75695 6.032 9.60962 5.73733 9.31495 5.512C9.02028 5.28667 8.62595 5.174 8.13195 5.174C7.19595 5.174 6.48962 5.50767 6.01295 6.175L4.75195 5.356C5.12462 4.84467 5.60562 4.45467 6.19495 4.186C6.78428 3.90867 7.47762 3.77 8.27495 3.77C9.24562 3.77 10.017 3.98233 10.589 4.407C11.1696 4.823 11.46 5.39933 11.46 6.136C11.46 6.49133 11.3993 6.80333 11.278 7.072C11.1653 7.34067 11.0266 7.57033 10.862 7.761C10.6973 7.943 10.4806 8.15533 10.212 8.398C9.88262 8.69267 9.63562 8.95267 9.47095 9.178C9.31495 9.40333 9.23695 9.672 9.23695 9.984H7.58595ZM8.41795 13.091C8.11462 13.091 7.86328 12.9957 7.66395 12.805C7.47328 12.6057 7.37795 12.363 7.37795 12.077C7.37795 11.791 7.47328 11.5527 7.66395 11.362C7.86328 11.1713 8.11462 11.076 8.41795 11.076C8.71262 11.076 8.95528 11.1713 9.14595 11.362C9.34528 11.5527 9.44495 11.791 9.44495 12.077C9.44495 12.363 9.34528 12.6057 9.14595 12.805C8.95528 12.9957 8.71262 13.091 8.41795 13.091Z" fill="black" fill-opacity="0.3"/>
<circle cx="8.5" cy="8.5" r="8" stroke="black" stroke-opacity="0.3"/>
</svg>
