<svg width="27" height="27" viewBox="0 0 27 27" fill="none" xmlns="http://www.w3.org/2000/svg">
<path d="M26.0443 15.7159C26.0358 15.7634 26.0298 15.8113 26.0208 15.8588L25.9746 15.5868C25.9999 15.6292 26.0208 15.6733 26.0443 15.716C26.185 14.9536 26.2561 14.1801 26.2569 13.4049C26.2569 11.6838 25.9199 10.014 25.2542 8.44225C24.6119 6.92392 23.693 5.56031 22.5215 4.38961C21.3516 3.21891 19.9871 2.29996 18.4696 1.65776C16.8982 0.992883 15.2285 0.65591 13.5075 0.65591C12.6964 0.65591 11.8839 0.732059 11.0933 0.883828C11.0916 0.88425 11.0895 0.88425 11.0873 0.884672C11.1318 0.908191 11.1767 0.92918 11.2203 0.953543L10.9522 0.911566C10.9971 0.903129 11.0425 0.893637 11.0873 0.884672C10.0027 0.307969 8.78259 0 7.54777 0C5.53184 0 3.63625 0.785004 2.21062 2.21105C0.785426 3.63667 0 5.53215 0 7.54819C0.000684369 8.82882 0.327502 10.0882 0.949641 11.2075C0.957762 11.1613 0.963352 11.1147 0.972316 11.0685L1.01851 11.3358C0.99457 11.2939 0.973582 11.2502 0.949641 11.2075C0.822749 11.9331 0.758527 12.6683 0.757688 13.4049C0.757688 15.1263 1.09466 16.7957 1.76038 18.3679C2.40173 19.8867 3.32111 21.2493 4.49139 22.42C5.66293 23.5908 7.02569 24.511 8.54487 25.1516C10.1164 25.8177 11.7864 26.1551 13.5075 26.1551C14.2566 26.1551 15.0075 26.0866 15.7403 25.9567C15.6975 25.9328 15.654 25.9109 15.6103 25.8857L15.8827 25.9336C15.8357 25.9426 15.7883 25.9482 15.7404 25.9567C16.8729 26.5977 18.1521 26.9348 19.4535 26.935C21.4691 26.935 23.3638 26.1512 24.7894 24.7248C26.2153 23.3001 27 21.4041 27 19.3881C26.9993 18.1027 26.6704 16.8387 26.0443 15.716V15.7159ZM13.5583 21.213C9.02897 21.213 7.0026 18.9862 7.0026 17.3173C7.0026 16.4612 7.63457 15.8613 8.50553 15.8613C10.4438 15.8613 9.9418 18.6446 13.5583 18.6446C15.4098 18.6446 16.4321 17.6392 16.4321 16.6105C16.4321 15.9918 16.1269 15.3058 14.9078 15.0052L10.8791 13.9996C7.63457 13.1859 7.04573 11.432 7.04573 9.78318C7.04573 6.35998 10.2689 5.07463 13.2958 5.07463C16.0841 5.07463 19.371 6.61563 19.371 8.66932C19.371 9.54935 18.609 10.0611 17.7384 10.0611C16.0841 10.0611 16.3886 7.77136 13.0564 7.77136C11.4029 7.77136 10.487 8.52019 10.487 9.59164C10.487 10.6611 11.7929 11.0027 12.9268 11.2609L15.9088 11.9228C19.1752 12.6506 20.0034 14.5576 20.0034 16.3539C20.0034 19.1358 17.868 21.213 13.5583 21.213ZM15.6103 25.8857C15.654 25.911 15.6975 25.9328 15.7404 25.9567C15.7883 25.9482 15.8357 25.9426 15.8827 25.9335L15.6103 25.8857ZM26.0208 15.8588C26.0298 15.8113 26.0358 15.7635 26.0443 15.716C26.0208 15.6732 25.9998 15.6292 25.9747 15.5868L26.0208 15.8588ZM0.972316 11.0685C0.963352 11.1147 0.957762 11.1613 0.949641 11.2075C0.973582 11.2502 0.99457 11.2939 1.01851 11.3358L0.972316 11.0685ZM11.2203 0.953543C11.1767 0.92918 11.1318 0.908191 11.0874 0.884672C11.0425 0.893637 10.9971 0.903023 10.9522 0.911566L11.2203 0.953543Z" fill="#00AFF0"/>
</svg>
