<svg width="74" height="53" viewBox="0 0 74 53" fill="none" xmlns="http://www.w3.org/2000/svg">
<path d="M17.5473 39.5464C17.5473 39.6864 17.4643 39.7563 17.2983 39.7563H16.1264C16.0027 39.7563 15.866 39.7124 15.7162 39.6245C15.5698 39.5334 15.4575 39.4243 15.3793 39.2974L14.5493 37.9985C14.2075 37.4647 13.794 37.1978 13.309 37.1978H12.1176V39.2974C12.1176 39.4243 12.072 39.5334 11.9809 39.6245C11.893 39.7124 11.7856 39.7563 11.6586 39.7563H10.7407C10.6137 39.7563 10.5047 39.7124 10.4135 39.6245C10.3224 39.5334 10.2768 39.4243 10.2768 39.2974V33.2183C10.2768 33.0913 10.3207 32.9823 10.4086 32.8911C10.4965 32.8 10.6039 32.7544 10.7309 32.7544H14.7592C15.5047 32.7544 16.115 32.9546 16.5903 33.355C17.0688 33.7554 17.308 34.2957 17.308 34.9761C17.308 35.9233 16.6944 36.5174 15.4672 36.7583C15.6625 36.8299 15.8432 36.9536 16.0092 37.1294C16.1752 37.3019 16.3657 37.5542 16.5805 37.8862L17.4692 39.2974C17.5213 39.3885 17.5473 39.4715 17.5473 39.5464ZM12.1176 35.8159H14.1977C14.533 35.8159 14.8276 35.7492 15.0815 35.6157C15.3386 35.4823 15.4672 35.269 15.4672 34.9761C15.4672 34.6831 15.3386 34.4699 15.0815 34.3364C14.8276 34.203 14.533 34.1362 14.1977 34.1362H12.1176V35.8159ZM18.2651 36.9878V33.2183C18.2651 33.0913 18.309 32.9823 18.3969 32.8911C18.4881 32.8 18.6004 32.7544 18.7338 32.7544H19.6469C19.7706 32.7544 19.878 32.8 19.9692 32.8911C20.0603 32.9823 20.1059 33.0913 20.1059 33.2183V36.9976C20.1059 37.4761 20.2101 37.8325 20.4184 38.0669C20.63 38.3013 20.9555 38.4185 21.395 38.4185H22.1762C22.6157 38.4185 22.9396 38.3013 23.1479 38.0669C23.3595 37.8325 23.4653 37.4761 23.4653 36.9976V33.2183C23.4653 33.0913 23.5092 32.9823 23.5971 32.8911C23.6883 32.8 23.7973 32.7544 23.9243 32.7544H24.8325C24.9659 32.7544 25.0782 32.8 25.1694 32.8911C25.2605 32.9823 25.3061 33.0913 25.3061 33.2183V36.9878C25.3061 37.8797 25.044 38.5715 24.52 39.063C23.9959 39.5513 23.2309 39.7954 22.225 39.7954H21.3461C20.337 39.7954 19.5704 39.5513 19.0463 39.063C18.5255 38.5715 18.2651 37.8797 18.2651 36.9878ZM26.2045 37.9644C26.2045 37.7723 26.2615 37.6356 26.3754 37.5542C26.4894 37.4696 26.6 37.4272 26.7075 37.4272H27.2885C27.5815 37.4272 27.8045 37.5868 27.9575 37.9058C28.1105 38.2248 28.4539 38.3843 28.9877 38.3843L30.6967 38.4185C31.2696 38.4185 31.5561 38.2313 31.5561 37.8569C31.5561 37.5737 31.2062 37.3507 30.5063 37.188C30.1938 37.1131 29.8487 37.0399 29.4711 36.9683C29.0935 36.8934 28.7175 36.8006 28.3432 36.6899C27.9721 36.5793 27.6303 36.4491 27.3178 36.2993C27.0053 36.1496 26.7514 35.9445 26.5561 35.6841C26.364 35.4204 26.268 35.1112 26.268 34.7563C26.268 34.1021 26.5008 33.5991 26.9662 33.2476C27.4317 32.8927 28.2325 32.7153 29.3686 32.7153L30.6088 32.7446C31.2761 32.7446 31.8767 32.9172 32.4106 33.2622C32.9477 33.604 33.2162 34.0321 33.2162 34.5464C33.2162 34.7384 33.1593 34.8768 33.0453 34.9614C32.9314 35.0461 32.8224 35.0884 32.7182 35.0884H32.1371C31.8442 35.0884 31.6212 34.9289 31.4682 34.6099C31.3152 34.2876 30.9718 34.1265 30.4379 34.1265L28.9682 34.0972C28.3953 34.0972 28.1088 34.2843 28.1088 34.6587C28.1088 34.8638 28.2895 35.0314 28.6508 35.1616C29.0154 35.2918 29.4549 35.4074 29.9692 35.5083C30.4868 35.606 31.006 35.7248 31.5268 35.8647C32.0476 36.0047 32.4887 36.2358 32.85 36.5581C33.2146 36.8771 33.3969 37.2759 33.3969 37.7544C33.3969 38.4087 33.1625 38.9132 32.6938 39.2681C32.2283 39.6196 31.4291 39.7954 30.2963 39.7954L28.8168 39.7661C28.1495 39.7661 27.5473 39.5952 27.0102 39.2534C26.4731 38.9084 26.2045 38.4787 26.2045 37.9644ZM33.9975 37.9644C33.9975 37.7723 34.0545 37.6356 34.1684 37.5542C34.2823 37.4696 34.393 37.4272 34.5004 37.4272H35.0815C35.3745 37.4272 35.5974 37.5868 35.7504 37.9058C35.9034 38.2248 36.2468 38.3843 36.7807 38.3843L38.4897 38.4185C39.0626 38.4185 39.3491 38.2313 39.3491 37.8569C39.3491 37.5737 38.9991 37.3507 38.2993 37.188C37.9868 37.1131 37.6417 37.0399 37.2641 36.9683C36.8865 36.8934 36.5105 36.8006 36.1362 36.6899C35.7651 36.5793 35.4233 36.4491 35.1108 36.2993C34.7983 36.1496 34.5444 35.9445 34.3491 35.6841C34.157 35.4204 34.061 35.1112 34.061 34.7563C34.061 34.1021 34.2937 33.5991 34.7592 33.2476C35.2247 32.8927 36.0255 32.7153 37.1616 32.7153L38.4018 32.7446C39.0691 32.7446 39.6697 32.9172 40.2036 33.2622C40.7407 33.604 41.0092 34.0321 41.0092 34.5464C41.0092 34.7384 40.9523 34.8768 40.8383 34.9614C40.7244 35.0461 40.6153 35.0884 40.5112 35.0884H39.9301C39.6371 35.0884 39.4142 34.9289 39.2612 34.6099C39.1082 34.2876 38.7648 34.1265 38.2309 34.1265L36.7612 34.0972C36.1883 34.0972 35.9018 34.2843 35.9018 34.6587C35.9018 34.8638 36.0825 35.0314 36.4438 35.1616C36.8084 35.2918 37.2478 35.4074 37.7621 35.5083C38.2797 35.606 38.7989 35.7248 39.3198 35.8647C39.8406 36.0047 40.2817 36.2358 40.643 36.5581C41.0076 36.8771 41.1899 37.2759 41.1899 37.7544C41.1899 38.4087 40.9555 38.9132 40.4868 39.2681C40.0213 39.6196 39.2221 39.7954 38.0893 39.7954L36.6098 39.7661C35.9425 39.7661 35.3403 39.5952 34.8032 39.2534C34.2661 38.9084 33.9975 38.4787 33.9975 37.9644ZM42.1909 39.3071V33.2183C42.1909 33.0913 42.2364 32.9823 42.3276 32.8911C42.4187 32.8 42.5278 32.7544 42.6547 32.7544H43.5629C43.6964 32.7544 43.8071 32.8 43.895 32.8911C43.9861 32.9823 44.0317 33.0913 44.0317 33.2183V39.2974C44.0317 39.4243 43.9845 39.5334 43.8901 39.6245C43.7989 39.7124 43.6899 39.7563 43.5629 39.7563H42.6547C42.5278 39.7563 42.4187 39.714 42.3276 39.6294C42.2364 39.5415 42.1909 39.4341 42.1909 39.3071ZM44.8569 39.3071L46.0825 34.6587C46.4145 33.3924 47.4952 32.7576 49.3246 32.7544H51.9565C52.0769 32.7544 52.1762 32.8 52.2543 32.8911C52.3357 32.9823 52.3764 33.0881 52.3764 33.2085V39.3071C52.3764 39.4341 52.3308 39.5415 52.2397 39.6294C52.1485 39.714 52.0395 39.7563 51.9125 39.7563H50.9946C50.8611 39.7563 50.7504 39.714 50.6625 39.6294C50.5779 39.5415 50.5356 39.4308 50.5356 39.2974V38.0669H47.0639L46.7368 39.2974C46.7042 39.4308 46.631 39.5415 46.517 39.6294C46.4031 39.714 46.2827 39.7563 46.1557 39.7563H45.1938C45.0668 39.7563 44.9757 39.7205 44.9203 39.6489C44.865 39.5741 44.8373 39.509 44.8373 39.4536C44.8406 39.3983 44.8471 39.3494 44.8569 39.3071ZM47.4252 36.6851H50.5356V34.1362H49.144C48.8315 34.1362 48.558 34.2257 48.3237 34.4048C48.0925 34.5806 47.9363 34.8182 47.8549 35.1177L47.4252 36.6851ZM53.7729 39.2974V33.2183C53.7729 33.0913 53.8168 32.9823 53.9047 32.8911C53.9926 32.8 54.1 32.7544 54.227 32.7544H55.6625C55.7765 32.7544 55.8969 32.8 56.0239 32.8911C56.1508 32.9823 56.255 33.0913 56.3364 33.2183L59.2856 37.7544V33.2085C59.2856 33.0815 59.3295 32.9741 59.4174 32.8862C59.5086 32.7983 59.6176 32.7544 59.7446 32.7544H60.5844C60.7114 32.7544 60.8188 32.7983 60.9067 32.8862C60.9978 32.9741 61.0434 33.0848 61.0434 33.2183V39.2974C61.0434 39.4243 60.9978 39.5334 60.9067 39.6245C60.8188 39.7124 60.7114 39.7563 60.5844 39.7563H58.9633C58.8364 39.7563 58.7062 39.7124 58.5727 39.6245C58.4392 39.5334 58.3334 39.4243 58.2553 39.2974L55.5551 35.1079V39.2974C55.5551 39.4243 55.5095 39.5334 55.4184 39.6245C55.3305 39.7124 55.2231 39.7563 55.0961 39.7563H54.2368C54.1098 39.7563 54.0008 39.7124 53.9096 39.6245C53.8185 39.5334 53.7729 39.4243 53.7729 39.2974ZM14.8373 49.2876V43.2085C14.8373 43.0815 14.8829 42.9741 14.9741 42.8862C15.0652 42.7983 15.1743 42.7544 15.3012 42.7544H20.9311C21.058 42.7544 21.1655 42.8 21.2534 42.8911C21.3445 42.9823 21.3901 43.0913 21.3901 43.2183V43.6772C21.3901 43.8042 21.3445 43.9132 21.2534 44.0044C21.1655 44.0923 21.058 44.1362 20.9311 44.1362H16.6782V45.855H20.1401C20.267 45.855 20.3745 45.9006 20.4623 45.9917C20.5535 46.0828 20.5991 46.1903 20.5991 46.314V46.7778C20.5991 46.9048 20.5535 47.0138 20.4623 47.105C20.3745 47.1929 20.267 47.2368 20.1401 47.2368H16.6782V49.2876C16.6782 49.4211 16.6326 49.5334 16.5414 49.6245C16.4536 49.7124 16.3461 49.7563 16.2192 49.7563H15.3012C15.1743 49.7563 15.0652 49.7124 14.9741 49.6245C14.8829 49.5334 14.8373 49.4211 14.8373 49.2876ZM29.4614 49.5464C29.4614 49.6864 29.3784 49.7563 29.2123 49.7563H28.0405C27.9168 49.7563 27.78 49.7124 27.6303 49.6245C27.4838 49.5334 27.3715 49.4243 27.2934 49.2974L26.4633 47.9985C26.1215 47.4647 25.7081 47.1978 25.2231 47.1978H24.0317V49.2974C24.0317 49.4243 23.9861 49.5334 23.895 49.6245C23.8071 49.7124 23.6996 49.7563 23.5727 49.7563H22.6547C22.5278 49.7563 22.4187 49.7124 22.3276 49.6245C22.2364 49.5334 22.1909 49.4243 22.1909 49.2974V43.2183C22.1909 43.0913 22.2348 42.9823 22.3227 42.8911C22.4106 42.8 22.518 42.7544 22.645 42.7544H26.6733C27.4187 42.7544 28.0291 42.9546 28.5043 43.355C28.9828 43.7554 29.2221 44.2957 29.2221 44.9761C29.2221 45.9233 28.6085 46.5174 27.3813 46.7583C27.5766 46.8299 27.7573 46.9536 27.9233 47.1294C28.0893 47.3019 28.2797 47.5542 28.4946 47.8862L29.3832 49.2974C29.4353 49.3885 29.4614 49.4715 29.4614 49.5464ZM24.0317 45.8159H26.1118C26.447 45.8159 26.7416 45.7492 26.9955 45.6157C27.2527 45.4823 27.3813 45.269 27.3813 44.9761C27.3813 44.6831 27.2527 44.4699 26.9955 44.3364C26.7416 44.203 26.447 44.1362 26.1118 44.1362H24.0317V45.8159ZM30.2768 49.3071V43.2183C30.2768 43.0913 30.3224 42.9823 30.4135 42.8911C30.5047 42.8 30.6137 42.7544 30.7407 42.7544H31.6489C31.7823 42.7544 31.893 42.8 31.9809 42.8911C32.072 42.9823 32.1176 43.0913 32.1176 43.2183V49.2974C32.1176 49.4243 32.0704 49.5334 31.976 49.6245C31.8849 49.7124 31.7758 49.7563 31.6489 49.7563H30.7407C30.6137 49.7563 30.5047 49.714 30.4135 49.6294C30.3224 49.5415 30.2768 49.4341 30.2768 49.3071ZM33.519 49.2876V43.2085C33.519 43.0815 33.5646 42.9741 33.6557 42.8862C33.7468 42.7983 33.8559 42.7544 33.9828 42.7544H39.6127C39.7397 42.7544 39.8471 42.8 39.935 42.8911C40.0261 42.9823 40.0717 43.0913 40.0717 43.2183V43.6772C40.0717 43.8042 40.0261 43.9132 39.935 44.0044C39.8471 44.0923 39.7397 44.1362 39.6127 44.1362H35.3598V45.5571H39.0219C39.1489 45.5571 39.2563 45.6027 39.3442 45.6938C39.4353 45.7817 39.4809 45.8892 39.4809 46.0161V46.4751C39.4809 46.6021 39.4353 46.7111 39.3442 46.8022C39.2563 46.8901 39.1489 46.9341 39.0219 46.9341H35.3598V48.3745H39.603C39.7267 48.3745 39.8325 48.4185 39.9203 48.5063C40.0082 48.5942 40.0522 48.7017 40.0522 48.8286V49.2974C40.0522 49.4243 40.0066 49.5334 39.9155 49.6245C39.8243 49.7124 39.7153 49.7563 39.5883 49.7563H33.9828C33.8559 49.7563 33.7468 49.7124 33.6557 49.6245C33.5646 49.5334 33.519 49.4211 33.519 49.2876ZM40.9702 49.2974V43.2183C40.9702 43.0913 41.0141 42.9823 41.102 42.8911C41.1899 42.8 41.2973 42.7544 41.4243 42.7544H42.8598C42.9737 42.7544 43.0942 42.8 43.2211 42.8911C43.3481 42.9823 43.4523 43.0913 43.5336 43.2183L46.4828 47.7544V43.2085C46.4828 43.0815 46.5268 42.9741 46.6147 42.8862C46.7058 42.7983 46.8149 42.7544 46.9418 42.7544H47.7817C47.9086 42.7544 48.0161 42.7983 48.1039 42.8862C48.1951 42.9741 48.2407 43.0848 48.2407 43.2183V49.2974C48.2407 49.4243 48.1951 49.5334 48.1039 49.6245C48.0161 49.7124 47.9086 49.7563 47.7817 49.7563H46.1606C46.0336 49.7563 45.9034 49.7124 45.77 49.6245C45.6365 49.5334 45.5307 49.4243 45.4526 49.2974L42.7524 45.1079V49.2974C42.7524 49.4243 42.7068 49.5334 42.6157 49.6245C42.5278 49.7124 42.4203 49.7563 42.2934 49.7563H41.434C41.3071 49.7563 41.198 49.7124 41.1069 49.6245C41.0157 49.5334 40.9702 49.4243 40.9702 49.2974ZM49.642 49.3071V43.228C49.642 43.0946 49.6876 42.9823 49.7787 42.8911C49.8699 42.8 49.9789 42.7544 50.1059 42.7544H52.8354C54.2481 42.7544 55.2752 43.0376 55.9164 43.604C56.561 44.1672 56.8832 45.0526 56.8832 46.2603C56.8832 47.4647 56.561 48.3485 55.9164 48.9116C55.2752 49.4748 54.2481 49.7563 52.8354 49.7563H50.1059C49.9789 49.7563 49.8699 49.714 49.7787 49.6294C49.6876 49.5415 49.642 49.4341 49.642 49.3071ZM51.4828 48.3745H52.7817C53.6573 48.3745 54.253 48.215 54.5688 47.896C54.8845 47.577 55.0424 47.0317 55.0424 46.2603C55.0424 45.4855 54.8845 44.9386 54.5688 44.6196C54.253 44.2974 53.6573 44.1362 52.7817 44.1362H51.4828V48.3745Z" fill="url(#paint0_linear)"/>
<path d="M34.7017 12.0309C33.3254 10.8598 32.0624 9.56068 30.9307 8.1506C29.5251 9.19124 28.0215 10.1064 26.4346 10.8766C27.3936 12.3869 28.4963 13.7959 29.7244 15.0862C31.4972 14.2456 33.1631 13.2176 34.7017 12.0309Z" fill="url(#paint1_linear)"/>
<path d="M28.7584 22.6253C30.7563 22.0843 32.6924 21.3236 34.4816 20.3669C32.6654 19.2317 30.9839 17.9008 29.4729 16.3972C27.94 17.0723 26.337 17.6141 24.6772 18.0111C25.8714 19.6999 27.2208 21.2491 28.7584 22.6253Z" fill="#FF3E28"/>
<path d="M35.5677 19.7528V19.7528C37.393 18.6666 39.0799 17.3726 40.5989 15.9052C38.8069 15.0254 37.045 14.1049 35.5677 13.1007V13.1008C34.0905 14.105 32.3285 15.0256 30.5366 15.9053C32.0556 17.3727 33.7425 18.6667 35.5677 19.7528Z" fill="url(#paint2_linear)"/>
<path d="M33.0593 27.0155C31.4372 26.0997 29.9126 25.0319 28.5078 23.826C27.6113 24.049 26.6977 24.2274 25.7705 24.3634C25.8392 24.469 25.9157 24.5688 25.9877 24.672C26.5823 25.4842 28.3088 27.6228 30.0048 27.6228C32.0981 27.6228 33.0521 27.0152 33.0521 27.0152L33.0593 27.0155Z" fill="url(#paint3_linear)"/>
<path d="M34.8617 2.98936C34.3142 2.30251 33.8016 1.58715 33.3184 0.850801C33.3184 0.850801 30.4763 3.33488 30.5376 5.77728C30.7308 6.06019 30.9202 6.34599 31.1238 6.62103C32.4823 5.53131 33.7338 4.31511 34.8617 2.98936Z" fill="url(#paint4_linear)"/>
<path d="M35.5678 2.32761V2.32755C35.9286 1.8667 36.2737 1.39291 36.6116 0.914078C36.6946 0.150414 35.5678 2.40803e-05 35.5678 2.40803e-05V7.93934e-05C35.5678 7.93934e-05 34.4409 0.150526 34.5239 0.914133C34.8618 1.39302 35.2069 1.86676 35.5678 2.32761Z" fill="url(#paint5_linear)"/>
<path d="M27.4967 22.9147C26.4382 21.9148 25.4692 20.825 24.5762 19.6729C24.567 19.6698 24.5566 19.6695 24.5501 19.6612C24.4724 19.5614 24.3684 19.6378 24.3623 19.7561C24.5326 20.5904 24.9613 22.3252 25.6456 22.7186C26.4385 23.1745 27.2914 22.9736 27.4967 22.9147Z" fill="url(#paint6_linear)"/>
<path d="M25.9622 16.5303C26.8863 16.2528 27.7926 15.934 28.672 15.562C27.5981 14.4032 26.6272 13.1502 25.757 11.8249C25.7411 11.8083 25.7244 11.7887 25.7051 11.7595C25.5286 11.4922 25.1267 11.5995 25.1059 11.9641C24.9853 13.3016 24.7839 16.7653 25.9622 16.5303Z" fill="url(#paint7_linear)"/>
<path d="M30.261 7.28914C29.7826 6.64391 29.3405 5.97119 28.9179 5.28524C28.9068 5.27676 28.8951 5.26466 28.8821 5.24379C28.7343 5.00539 28.4804 5.09266 28.3958 5.22976C27.9677 6.0833 27.0864 8.02973 27.3221 9.17816C28.3425 8.60855 29.3258 7.98007 30.261 7.28914Z" fill="url(#paint8_linear)"/>
<path d="M36.4336 12.0308C37.9722 13.2175 39.6381 14.2455 41.4109 15.0861C42.639 13.7958 43.7417 12.3868 44.7007 10.8766C43.1138 10.1062 41.6102 9.19111 40.2046 8.15048C39.0729 9.56062 37.81 10.8597 36.4336 12.0308Z" fill="url(#paint9_linear)"/>
<path d="M46.4581 18.011C44.7984 17.614 43.1953 17.0722 41.6625 16.3971C40.1514 17.9007 38.4699 19.2316 36.6538 20.3668C38.4429 21.3235 40.3791 22.0842 42.377 22.6252C43.9145 21.249 45.264 19.6998 46.4581 18.011Z" fill="url(#paint10_linear)"/>
<path d="M35.5677 11.3384C36.9496 10.1807 38.2138 8.8879 39.3434 7.48223C37.9754 6.38617 36.8024 5.37268 35.5677 4.20309V4.20321C34.333 5.3728 33.16 6.38622 31.792 7.48229C32.9216 8.88801 34.1859 10.1808 35.5677 11.3384V11.3384Z" fill="url(#paint11_linear)"/>
<path d="M38.0767 27.0154L38.0838 27.0152C38.0838 27.0152 39.0378 27.6228 41.1312 27.6228C42.8272 27.6228 44.5537 25.4841 45.1483 24.6719C45.2203 24.5687 45.2968 24.4689 45.3655 24.3633C44.4382 24.2273 43.5246 24.0488 42.6282 23.8259C41.2233 25.0318 39.6987 26.0996 38.0767 27.0154Z" fill="url(#paint12_linear)"/>
<path d="M35.5676 27.0792V27.079C37.6495 26.1183 39.5919 24.9058 41.3519 23.4755C39.3189 22.8671 37.3121 22.1967 35.5676 21.3745C35.5676 21.3745 35.5676 21.3745 35.5676 21.3745V21.3746C33.823 22.1968 31.8162 22.8671 29.7832 23.4756C31.5432 24.9059 33.4857 26.1183 35.5676 27.0792Z" fill="url(#paint13_linear)"/>
<path d="M35.5679 27.8671V27.8672C35.5679 27.8672 32.5829 28.4506 31.1738 28.3149C31.7765 28.6486 32.3461 28.8271 32.7486 28.9295C32.7475 28.9299 32.7465 28.9303 32.7453 28.9306C32.7638 28.9352 32.7828 28.9383 32.8013 28.9427C32.9712 28.9848 33.1111 29.0142 33.2005 29.0339L33.207 29.0307C33.9699 29.1879 34.7585 29.2759 35.5679 29.2759V29.2758C36.3773 29.2758 37.1659 29.1878 37.9288 29.0306L37.9353 29.0338C38.0247 29.0141 38.1646 28.9847 38.3346 28.9427C38.3531 28.9382 38.3721 28.9351 38.3905 28.9305C38.3894 28.9302 38.3883 28.9298 38.3872 28.9294C38.7898 28.827 39.3594 28.6486 39.962 28.3148C38.5529 28.4505 35.5679 27.8671 35.5679 27.8671Z" fill="url(#paint14_linear)"/>
<path d="M40.0118 6.62094C40.2154 6.34589 40.4048 6.06016 40.5981 5.77725C40.6594 3.33479 37.8173 0.850769 37.8173 0.850769C37.3341 1.58706 36.8214 2.30242 36.2739 2.98927C37.4019 4.31502 38.6534 5.53127 40.0118 6.62094Z" fill="url(#paint15_linear)"/>
<path d="M46.5857 19.661C46.5792 19.6695 46.5688 19.6697 46.5597 19.6727C45.6666 20.8248 44.6976 21.9146 43.6392 22.9146C43.8444 22.9735 44.6973 23.1744 45.4902 22.7185C46.1745 22.3251 46.6032 20.5902 46.7735 19.7559C46.7674 19.6377 46.6634 19.5613 46.5857 19.661Z" fill="url(#paint16_linear)"/>
<path d="M45.1733 16.5302C46.3515 16.7652 46.1501 13.3014 46.0295 11.964C46.0087 11.5994 45.6068 11.4921 45.4303 11.7595C45.411 11.7886 45.3943 11.8082 45.3784 11.8247C44.5082 13.1501 43.5373 14.4031 42.4634 15.5618C43.3428 15.9339 44.2491 16.2527 45.1733 16.5302Z" fill="url(#paint17_linear)"/>
<path d="M42.7402 5.22964C42.6556 5.0926 42.4017 5.00533 42.2539 5.24367C42.241 5.26454 42.2293 5.27664 42.2181 5.28512C41.7956 5.97113 41.3534 6.64385 40.875 7.28902C41.8102 7.98 42.7935 8.60843 43.8139 9.17804C44.0496 8.02966 43.1684 6.08323 42.7402 5.22964Z" fill="url(#paint18_linear)"/>
<defs>
<linearGradient id="paint0_linear" x1="35.9153" y1="30.7563" x2="35.9153" y2="15.9272" gradientUnits="userSpaceOnUse">
<stop offset="0.471875" stop-color="#455A64"/>
<stop offset="1" stop-color="#455A64" stop-opacity="0"/>
</linearGradient>
<linearGradient id="paint1_linear" x1="30.5681" y1="15.0862" x2="30.5681" y2="8.1506" gradientUnits="userSpaceOnUse">
<stop offset="0.497917" stop-color="#006660"/>
<stop offset="1" stop-color="#30706C" stop-opacity="0"/>
</linearGradient>
<linearGradient id="paint2_linear" x1="35.5677" y1="19.7528" x2="35.5677" y2="13.1007" gradientUnits="userSpaceOnUse">
<stop offset="0.497917" stop-color="#006660"/>
<stop offset="1" stop-color="#30706C" stop-opacity="0"/>
</linearGradient>
<linearGradient id="paint3_linear" x1="29.4149" y1="27.6228" x2="29.4149" y2="23.826" gradientUnits="userSpaceOnUse">
<stop offset="0.497917" stop-color="#006660"/>
<stop offset="1" stop-color="#30706C" stop-opacity="0"/>
</linearGradient>
<linearGradient id="paint4_linear" x1="32.6992" y1="6.62103" x2="32.6992" y2="0.850801" gradientUnits="userSpaceOnUse">
<stop offset="0.497917" stop-color="#006660"/>
<stop offset="1" stop-color="#30706C" stop-opacity="0"/>
</linearGradient>
<linearGradient id="paint5_linear" x1="35.5678" y1="2.32761" x2="35.5678" y2="2.40803e-05" gradientUnits="userSpaceOnUse">
<stop offset="0.497917" stop-color="#006660"/>
<stop offset="1" stop-color="#30706C" stop-opacity="0"/>
</linearGradient>
<linearGradient id="paint6_linear" x1="25.9295" y1="23.0097" x2="25.9295" y2="19.6151" gradientUnits="userSpaceOnUse">
<stop offset="0.497917" stop-color="#006660"/>
<stop offset="1" stop-color="#30706C" stop-opacity="0"/>
</linearGradient>
<linearGradient id="paint7_linear" x1="26.8421" y1="16.5417" x2="26.8421" y2="11.6107" gradientUnits="userSpaceOnUse">
<stop offset="0.497917" stop-color="#006660"/>
<stop offset="1" stop-color="#30706C" stop-opacity="0"/>
</linearGradient>
<linearGradient id="paint8_linear" x1="28.7719" y1="9.17816" x2="28.7719" y2="5.09465" gradientUnits="userSpaceOnUse">
<stop offset="0.497917" stop-color="#006660"/>
<stop offset="1" stop-color="#30706C" stop-opacity="0"/>
</linearGradient>
<linearGradient id="paint9_linear" x1="40.5672" y1="15.0861" x2="40.5672" y2="8.15048" gradientUnits="userSpaceOnUse">
<stop offset="0.497917" stop-color="#006660"/>
<stop offset="1" stop-color="#30706C" stop-opacity="0"/>
</linearGradient>
<linearGradient id="paint10_linear" x1="41.556" y1="22.6252" x2="41.556" y2="16.3971" gradientUnits="userSpaceOnUse">
<stop offset="0.497917" stop-color="#006660"/>
<stop offset="1" stop-color="#30706C" stop-opacity="0"/>
</linearGradient>
<linearGradient id="paint11_linear" x1="35.5677" y1="11.3384" x2="35.5677" y2="4.20309" gradientUnits="userSpaceOnUse">
<stop offset="0.497917" stop-color="#006660"/>
<stop offset="1" stop-color="#30706C" stop-opacity="0"/>
</linearGradient>
<linearGradient id="paint12_linear" x1="41.7211" y1="27.6228" x2="41.7211" y2="23.8259" gradientUnits="userSpaceOnUse">
<stop offset="0.497917" stop-color="#006660"/>
<stop offset="1" stop-color="#30706C" stop-opacity="0"/>
</linearGradient>
<linearGradient id="paint13_linear" x1="35.5676" y1="27.0792" x2="35.5676" y2="21.3745" gradientUnits="userSpaceOnUse">
<stop offset="0.497917" stop-color="#006660"/>
<stop offset="1" stop-color="#30706C" stop-opacity="0"/>
</linearGradient>
<linearGradient id="paint14_linear" x1="35.5679" y1="29.2759" x2="35.5679" y2="27.8671" gradientUnits="userSpaceOnUse">
<stop offset="0.497917" stop-color="#006660"/>
<stop offset="1" stop-color="#30706C" stop-opacity="0"/>
</linearGradient>
<linearGradient id="paint15_linear" x1="38.4365" y1="6.62094" x2="38.4365" y2="0.850769" gradientUnits="userSpaceOnUse">
<stop offset="0.497917" stop-color="#006660"/>
<stop offset="1" stop-color="#30706C" stop-opacity="0"/>
</linearGradient>
<linearGradient id="paint16_linear" x1="45.2063" y1="23.0096" x2="45.2063" y2="19.615" gradientUnits="userSpaceOnUse">
<stop offset="0.497917" stop-color="#006660"/>
<stop offset="1" stop-color="#30706C" stop-opacity="0"/>
</linearGradient>
<linearGradient id="paint17_linear" x1="44.2933" y1="16.5416" x2="44.2933" y2="11.6105" gradientUnits="userSpaceOnUse">
<stop offset="0.497917" stop-color="#006660"/>
<stop offset="1" stop-color="#30706C" stop-opacity="0"/>
</linearGradient>
<linearGradient id="paint18_linear" x1="42.3642" y1="9.17804" x2="42.3642" y2="5.09457" gradientUnits="userSpaceOnUse">
<stop offset="0.497917" stop-color="#006660"/>
<stop offset="1" stop-color="#30706C" stop-opacity="0"/>
</linearGradient>
</defs>
</svg>
