<svg width="20" height="20" viewBox="0 0 20 20" fill="none" xmlns="http://www.w3.org/2000/svg">
<g clip-path="url(#clip0)">
<path d="M16.4995 3.50099C16.3835 3.38497 16.1954 3.38497 16.0794 3.50095L6.93564 12.6447C6.81963 12.7608 6.81963 12.9488 6.93564 13.0648C6.99361 13.1227 7.06967 13.1518 7.14568 13.1518C7.2217 13.1518 7.29772 13.1228 7.35572 13.0648L16.4995 3.92103C16.6155 3.80505 16.6155 3.61696 16.4995 3.50099Z" fill="black"/>
<path d="M19.9284 2.73203C19.7012 1.36824 18.6322 0.299258 17.2684 0.0719928C16.3042 -0.0886322 15.2924 0.0216412 14.2612 0.399962C14 0.495821 13.7455 0.60668 13.4983 0.731055C13.4876 0.735821 13.4771 0.741134 13.4668 0.747227C11.8445 1.57301 10.5472 2.99352 9.84139 4.7484C9.8215 4.79781 9.80217 4.84711 9.78354 4.89617C9.75748 4.69676 9.73541 4.48137 9.72178 4.25731C9.716 4.16242 9.67037 4.07211 9.59131 4.01934C9.46826 3.93715 9.30978 3.95742 9.21162 4.05852C8.666 4.62024 8.18162 5.18145 7.74939 5.73852C7.73924 5.74969 7.72994 5.7618 7.72147 5.77469C5.47955 8.67793 4.65604 11.4635 4.02717 13.5916C3.5674 15.1474 3.20424 16.3763 2.47936 17.1012C2.47932 17.1012 2.47928 17.1013 2.47924 17.1013L0.0870117 19.4933C-0.0290039 19.6093 -0.0290039 19.7974 0.0870117 19.9134C0.14498 19.9713 0.221035 20.0004 0.297051 20.0004C0.373066 20.0004 0.449082 19.9714 0.50709 19.9134L2.89963 17.5208C3.62455 16.7961 4.85334 16.433 6.409 15.9733C7.96811 15.5125 9.90791 14.9393 11.9594 13.7845C12.0556 13.7304 12.1209 13.6297 12.1203 13.5193C12.1194 13.3784 12.0214 13.26 11.8876 13.2304C11.4817 13.1402 11.1355 13.0388 10.8481 12.9398C11.1327 12.8977 11.4621 12.8338 11.8337 12.7378C13.9942 12.1797 15.9206 10.9651 17.4046 9.22524C17.5733 9.02742 17.7428 8.82215 17.9085 8.615C18.0504 8.4377 18.1867 8.25883 18.3139 8.08321C18.4097 7.95094 18.3916 7.76188 18.2619 7.66258C18.1285 7.56039 17.9381 7.58899 17.8403 7.7243C17.7165 7.89567 17.5834 8.07051 17.4446 8.24395C17.1422 8.62172 16.759 8.92754 16.323 9.13731C14.1775 10.1694 12.3761 10.447 12.3562 10.4499C12.194 10.4739 12.082 10.6249 12.106 10.7872C12.1278 10.9347 12.2546 11.0408 12.3994 11.0408C12.4139 11.0408 12.4285 11.0397 12.4432 11.0375C12.5171 11.0266 13.914 10.8127 15.7407 10.0505C14.5586 11.0556 13.1811 11.7762 11.685 12.1626C10.3844 12.4986 9.65404 12.4105 9.64799 12.4097C9.51119 12.3911 9.37979 12.4689 9.33041 12.5978C9.28104 12.7266 9.32689 12.8724 9.44104 12.9498C9.4665 12.9671 9.97525 13.3068 11.0139 13.6173C9.26068 14.5111 7.60264 15.0011 6.24053 15.4036C5.58627 15.597 4.98709 15.7741 4.45022 15.9702L6.40471 14.0157C6.52283 13.8976 6.52068 13.7046 6.39814 13.5893C6.27975 13.4778 6.0908 13.4895 5.9758 13.6045L4.03014 15.5502C4.22623 15.0133 4.40334 14.4142 4.59666 13.7599C4.97787 12.4701 5.40986 11.0082 6.16408 9.42914C6.37428 8.9891 6.60025 8.56141 6.84178 8.14406C6.51143 9.22094 6.34268 10.1095 6.34045 10.7898C6.33998 10.9429 6.44885 11.0799 6.60084 11.098C6.78123 11.1196 6.93447 10.9793 6.93447 10.8032C6.93447 9.81816 7.34076 8.45574 7.70018 7.4434C8.02588 6.52586 8.5251 5.67848 9.18041 4.9584C9.18381 4.95469 9.18721 4.9509 9.19064 4.94719C9.2851 5.68723 9.43244 6.22113 9.44033 6.24949C9.47752 6.38281 9.60189 6.47246 9.74014 6.46637C9.87838 6.45996 9.99393 6.35895 10.0187 6.22281C10.09 5.8307 10.2157 5.40926 10.3923 4.97016C10.8002 3.95606 11.4213 3.06336 12.1951 2.35047C11.6694 3.22895 11.3918 4.10832 11.3898 4.91336C11.3894 5.06481 11.5001 5.19922 11.6504 5.21707C11.8307 5.23852 11.9838 5.0982 11.9838 4.92223C11.9838 3.66098 12.766 2.46922 13.3102 1.7927C13.612 1.41762 14.007 1.1266 14.4587 0.960274C14.461 0.959454 14.4633 0.958555 14.4656 0.957735C15.3989 0.615313 16.309 0.514493 17.1705 0.658048C18.2839 0.843594 19.1567 1.71633 19.3422 2.82973C19.5512 4.08367 19.2421 5.43024 18.4235 6.83203C18.3338 6.9857 18.3976 7.18668 18.5683 7.25711C18.7066 7.31422 18.8652 7.25402 18.9405 7.12473C19.8281 5.60227 20.1604 4.12442 19.9284 2.73203Z" fill="black"/>
</g>
<defs>
<clipPath id="clip0">
<rect width="20" height="20" fill="white"/>
</clipPath>
</defs>
</svg>
