<svg width="91" height="91" viewBox="0 0 91 91" fill="none" xmlns="http://www.w3.org/2000/svg">
<path d="M45.5 0C36.501 0 27.704 2.66853 20.2216 7.66813C12.7391 12.6677 6.90729 19.7739 3.4635 28.0879C0.0197143 36.4019 -0.881337 45.5505 0.87429 54.3766C2.62992 63.2027 6.96337 71.3101 13.3267 77.6733C19.6899 84.0366 27.7973 88.3701 36.6234 90.1257C45.4495 91.8813 54.5981 90.9803 62.9121 87.5365C71.2261 84.0927 78.3323 78.2609 83.3319 70.7784C88.3315 63.296 91 54.499 91 45.5C91 33.4326 86.2063 21.8595 77.6734 13.3266C69.1405 4.79374 57.5674 0 45.5 0V0ZM45.5 85.3125C37.6258 85.3125 29.9285 82.9775 23.3814 78.6029C16.8342 74.2282 11.7314 68.0104 8.71806 60.7356C5.70475 53.4608 4.91633 45.4558 6.45251 37.733C7.98868 30.0101 11.7805 22.9162 17.3483 17.3483C22.9162 11.7804 30.0101 7.98866 37.733 6.45248C45.4558 4.91631 53.4608 5.70473 60.7356 8.71804C68.0104 11.7314 74.2282 16.8342 78.6029 23.3814C82.9775 29.9285 85.3125 37.6258 85.3125 45.5C85.3125 56.0589 81.118 66.1854 73.6517 73.6517C66.1854 81.118 56.0589 85.3125 45.5 85.3125Z" fill="#F8D6B0"/>
<path d="M73.937 28.7219C73.4042 28.1922 72.6835 27.8949 71.9322 27.8949C71.1809 27.8949 70.4602 28.1922 69.9274 28.7219L38.3617 60.1453L21.2992 43.0828C20.7788 42.5209 20.0565 42.1888 19.2912 42.1594C18.5259 42.1301 17.7803 42.406 17.2185 42.9264C16.6566 43.4468 16.3244 44.1691 16.2951 44.9344C16.2658 45.6997 16.5416 46.4453 17.062 47.0072L38.3617 68.25L73.937 32.76C74.2036 32.4956 74.4151 32.1811 74.5595 31.8346C74.7039 31.488 74.7782 31.1163 74.7782 30.7409C74.7782 30.3655 74.7039 29.9938 74.5595 29.6473C74.4151 29.3008 74.2036 28.9862 73.937 28.7219Z" fill="#F8D6B0"/>
</svg>
