<svg width="13" height="13" viewBox="0 0 13 13" fill="none" xmlns="http://www.w3.org/2000/svg">
<path d="M9.80055 12.2778H3.19944C3.06049 12.2745 2.92354 12.2439 2.79642 12.1876C2.6693 12.1314 2.55451 12.0507 2.4586 11.9501C2.36269 11.8495 2.28754 11.731 2.23745 11.6013C2.18736 11.4717 2.16331 11.3334 2.16667 11.1944V4.05528H2.88889V11.1944C2.88544 11.2386 2.89075 11.283 2.90451 11.325C2.91827 11.3671 2.94022 11.406 2.96908 11.4396C2.99794 11.4731 3.03315 11.5007 3.07268 11.5206C3.11222 11.5405 3.1553 11.5524 3.19944 11.5556H9.80055C9.8447 11.5524 9.88778 11.5405 9.92732 11.5206C9.96685 11.5007 10.0021 11.4731 10.0309 11.4396C10.0598 11.406 10.0817 11.3671 10.0955 11.325C10.1092 11.283 10.1146 11.2386 10.1111 11.1944V4.05528H10.8333V11.1944C10.8367 11.3334 10.8126 11.4717 10.7625 11.6013C10.7125 11.731 10.6373 11.8495 10.5414 11.9501C10.4455 12.0507 10.3307 12.1314 10.2036 12.1876C10.0765 12.2439 9.93951 12.2745 9.80055 12.2778Z" fill="#C4C4C4"/>
<path d="M11.115 3.24999H1.80556C1.70978 3.24999 1.61793 3.21195 1.55021 3.14423C1.48249 3.0765 1.44444 2.98465 1.44444 2.88888C1.44444 2.79311 1.48249 2.70126 1.55021 2.63354C1.61793 2.56582 1.70978 2.52777 1.80556 2.52777H11.115C11.2108 2.52777 11.3026 2.56582 11.3703 2.63354C11.4381 2.70126 11.4761 2.79311 11.4761 2.88888C11.4761 2.98465 11.4381 3.0765 11.3703 3.14423C11.3026 3.21195 11.2108 3.24999 11.115 3.24999Z" fill="#C4C4C4"/>
<path d="M7.58333 4.69444H8.30555V10.1111H7.58333V4.69444Z" fill="#C4C4C4"/>
<path d="M4.69444 4.69444H5.41667V10.1111H4.69444V4.69444Z" fill="#C4C4C4"/>
<path d="M8.30556 2.11612H7.61944V1.44445H5.38055V2.11612H4.69444V1.44445C4.69421 1.259 4.76533 1.08057 4.89305 0.946118C5.02078 0.811667 5.19534 0.731501 5.38055 0.722229H7.61944C7.80466 0.731501 7.97922 0.811667 8.10694 0.946118C8.23467 1.08057 8.30579 1.259 8.30556 1.44445V2.11612Z" fill="#C4C4C4"/>
</svg>
