<svg width="51" height="48" viewBox="0 0 51 48" fill="none" xmlns="http://www.w3.org/2000/svg">
<path d="M50.5 23.5385C50.5 36.2545 40.0175 46.5769 27.0692 46.5769C14.1209 46.5769 3.63846 36.2545 3.63846 23.5385C3.63846 10.8224 14.1209 0.5 27.0692 0.5C40.0175 0.5 50.5 10.8224 50.5 23.5385Z" fill="#D6D1D1" stroke="black"/>
<circle cx="23.5385" cy="23.5385" r="23.0385" fill="#ECBC42" stroke="black"/>
<path d="M32.9538 4.70769L34.9923 10.5923H30.9153L32.9538 4.70769Z" fill="#FEFEFE"/>
<path d="M38.4461 10.2L32.5615 12.2385V8.1615L38.4461 10.2Z" fill="#FEFEFE"/>
<path d="M27.4615 10.2L33.3461 8.1615V12.2385L27.4615 10.2Z" fill="#FEFEFE"/>
<path d="M32.9538 15.6923L30.9153 9.80769L34.9923 9.80769L32.9538 15.6923Z" fill="#FEFEFE"/>
<path d="M34.3552 20.7321C36.445 21.2669 37.861 22.0734 38.603 23.1516C39.345 24.2298 39.5221 25.5268 39.1342 27.0425C38.9053 27.9369 38.4885 28.7265 37.8837 29.4116C37.2978 30.0853 36.4725 30.5444 35.4079 30.7888C34.3582 31.0369 33.0348 30.9567 31.4375 30.5479L29.6014 30.078L27.4615 36.8769L25.5 36.3988L30.1231 19.649L34.3552 20.7321ZM33.728 22.4369L31.6903 21.9155L30.0494 28.3273L31.6616 28.7398C33.1843 29.1295 34.3828 29.1698 35.2572 28.8606C36.1316 28.5514 36.722 27.798 37.0285 26.6006C37.2961 25.5547 37.1675 24.69 36.6426 24.0065C36.1176 23.3231 35.1461 22.7999 33.728 22.4369Z" fill="black"/>
<path d="M12.14 14.2863L12.4486 12.0061L20.7876 12.1281L17.7215 35.746L14.1981 34.5207L16.9259 14.3658L12.14 14.2863Z" fill="black"/>
<path d="M29 29L25 28" stroke="black" stroke-width="2"/>
<path d="M31.9267 33.0711L24.135 31" stroke="black" stroke-width="2"/>
</svg>
