<svg width="65" height="60" viewBox="0 0 65 60" fill="none" xmlns="http://www.w3.org/2000/svg">
<path d="M64.5 30C64.5 46.2846 51.0764 59.5 34.5 59.5C17.9236 59.5 4.5 46.2846 4.5 30C4.5 13.7154 17.9236 0.5 34.5 0.5C51.0764 0.5 64.5 13.7154 64.5 30Z" fill="#D6D1D1" stroke="black"/>
<circle cx="30" cy="30" r="29.5" fill="#ECBC42" stroke="black"/>
<path d="M11.3098 11.6603C12.2722 11.0609 13.2479 10.5482 14.2369 10.1222C16.643 9.12783 18.8327 8.73165 20.8062 8.93364C23.4082 9.19996 25.661 10.3533 27.5645 12.3935C29.4841 14.4199 30.2924 16.9141 29.9892 19.8761C29.6028 23.6515 26.5998 27.8802 20.9801 32.5622L14.4354 38.0567L29.9892 41.7673L27.5645 46L8.87083 41.7673L9.30438 37.5315L18.9864 29.3108C23.3251 25.5988 25.6415 22.3776 25.9357 19.6473C26.1509 17.5448 25.7531 15.8757 24.7421 14.6402C23.7312 13.4046 22.2683 12.6889 20.3533 12.4929C18.9207 12.3462 17.312 12.6933 15.5273 13.5342C14.8626 13.8228 12.1506 14.4347 11.3098 15L11.3098 11.6603Z" fill="black"/>
<path d="M43.786 26.4232C46.4496 27.1049 48.2542 28.1328 49.1999 29.5069C50.1456 30.8811 50.3713 32.5341 49.8769 34.466C49.5852 35.6058 49.0539 36.6123 48.2832 37.4854C47.5363 38.344 46.4845 38.9291 45.1277 39.2406C43.7899 39.5569 42.1031 39.4546 40.0674 38.9336L37.7273 38.3347L35 47L32.5 46.3907L38.3922 25.0429L43.786 26.4232ZM42.9866 28.5961L40.3896 27.9315L38.2983 36.1034L40.3531 36.6292C42.2937 37.1259 43.8212 37.1771 44.9356 36.7831C46.0501 36.389 46.8026 35.4289 47.1931 33.9027C47.5343 32.5697 47.3703 31.4676 46.7013 30.5966C46.0323 29.7255 44.7941 29.0587 42.9866 28.5961Z" fill="black"/>
<path d="M49 11L51.5981 18.5H46.4019L49 11Z" fill="#FEFEFE"/>
<path d="M56 18L48.5 20.5981L48.5 15.4019L56 18Z" fill="#FEFEFE"/>
<path d="M42 18L49.5 15.4019V20.5981L42 18Z" fill="#FEFEFE"/>
<path d="M49 25L46.4019 17.5L51.5981 17.5L49 25Z" fill="#FEFEFE"/>
<path d="M36 37L32 36" stroke="black" stroke-width="2"/>
<path d="M38.7917 41.5711L31 39.5" stroke="black" stroke-width="2"/>
</svg>
