<svg width="87" height="81" viewBox="0 0 87 81" fill="none" xmlns="http://www.w3.org/2000/svg">
<path d="M86.5 40.1538C86.5 62.0463 68.4545 79.8077 46.1769 79.8077C23.8993 79.8077 5.85382 62.0463 5.85382 40.1538C5.85382 18.2614 23.8993 0.5 46.1769 0.5C68.4545 0.5 86.5 18.2614 86.5 40.1538Z" fill="#D6D1D1" stroke="black"/>
<circle cx="40.1538" cy="40.1538" r="39.6538" fill="#ECBC42" stroke="black"/>
<path d="M58.6058 35.3665C62.1709 36.2788 64.5864 37.6546 65.8522 39.4939C67.118 41.3331 67.42 43.5456 66.7583 46.1314C66.3678 47.657 65.6568 49.0041 64.6251 50.1727C63.6256 51.322 62.2177 52.1051 60.4017 52.522C58.6111 52.9454 56.3534 52.8084 53.6287 52.1111L50.4965 51.3095L46.8461 62.9077L43.5 62.0921L51.3865 33.5189L58.6058 35.3665ZM57.5359 38.2748L54.06 37.3852L51.2608 48.323L54.011 49.0268C56.6084 49.6915 58.653 49.7602 60.1446 49.2327C61.6362 48.7053 62.6434 47.4202 63.1662 45.3774C63.6228 43.5933 63.4034 42.1182 62.5079 40.9523C61.6124 39.7864 59.9551 38.8939 57.5359 38.2748Z" fill="black"/>
<path d="M65.5846 14.7231L69.062 24.7615H62.1072L65.5846 14.7231Z" fill="#FEFEFE"/>
<path d="M74.9539 24.0923L64.9154 27.5697L64.9154 20.6149L74.9539 24.0923Z" fill="#FEFEFE"/>
<path d="M56.2154 24.0923L66.2539 20.6149V27.5697L56.2154 24.0923Z" fill="#FEFEFE"/>
<path d="M65.5846 33.4615L62.1072 23.4231L69.062 23.4231L65.5846 33.4615Z" fill="#FEFEFE"/>
<path d="M48.1846 49.5231L42.8307 48.1846" stroke="black" stroke-width="2"/>
<path d="M51.9212 55.6414L41.4923 52.8692" stroke="black" stroke-width="2"/>
<path d="M39.4239 46.1168C39.0687 48.2383 38.4359 50.0721 37.5253 51.6182C36.6148 53.1644 35.4844 54.4115 34.134 55.3598C32.787 56.2876 31.2581 56.9124 29.5471 57.2341C27.8543 57.5588 26.0299 57.5574 24.0738 57.2299C22.9872 57.048 21.9702 56.7833 21.0229 56.436C20.0722 56.1091 19.237 55.7595 18.5173 55.3874C17.8011 54.9949 17.2189 54.6353 16.7709 54.3086C16.3229 53.9819 16.0384 53.7351 15.9174 53.5681C15.8145 53.404 15.7462 53.2563 15.7123 53.1248C15.6785 52.9933 15.6481 52.8414 15.621 52.6691C15.6156 52.4795 15.626 52.2506 15.6522 51.9823C15.6785 51.7141 15.7224 51.3964 15.7839 51.0293C15.8419 50.6825 15.9022 50.378 15.9647 50.1159C16.0488 49.8364 16.1407 49.6211 16.2404 49.47C16.3436 49.2986 16.4473 49.1796 16.5515 49.1132C16.6739 49.0498 16.7984 49.0287 16.9252 49.0499C17.1063 49.0803 17.3648 49.2598 17.7008 49.5887C18.0401 49.8972 18.5011 50.2574 19.0838 50.6696C19.688 51.0643 20.4388 51.4731 21.3362 51.896C22.2517 52.3219 23.3614 52.644 24.6655 52.8623C25.8789 53.0655 27.0201 53.0888 28.089 52.9322C29.1578 52.7756 30.1126 52.4112 30.9531 51.839C31.8118 51.2697 32.5365 50.4998 33.1273 49.5293C33.7214 48.5383 34.1448 47.2881 34.3976 45.7786C34.6093 44.5139 34.6143 43.3718 34.4126 42.3525C34.2324 41.3157 33.824 40.419 33.1873 39.6623C32.5722 38.8883 31.7287 38.2543 30.6571 37.7603C29.5888 37.2459 28.2759 36.8583 26.7183 36.5976C25.6135 36.4126 24.6525 36.3146 23.8351 36.3035C23.0177 36.2925 22.2649 36.2294 21.5766 36.1142C21.0695 36.0293 20.7295 35.836 20.5566 35.5344C20.3836 35.2329 20.3603 34.7047 20.4867 33.95L23.1865 17.825C23.2992 17.1519 23.5187 16.6748 23.845 16.3939C24.1894 16.1161 24.6242 16.0211 25.1495 16.1091L40.7161 18.7153C40.861 18.7396 40.9883 18.8133 41.098 18.9366C41.2292 19.0424 41.3248 19.1947 41.3846 19.3935C41.4444 19.5922 41.4685 19.8374 41.4569 20.129C41.4634 20.4237 41.4343 20.7648 41.3694 21.1524C41.2464 21.8868 41.0602 22.4428 40.8108 22.8204C40.5614 23.198 40.2737 23.3596 39.9477 23.305L26.8261 21.1081L24.9665 32.215C25.6174 32.2192 26.2706 32.2656 26.926 32.3544C27.5996 32.4462 28.371 32.5649 29.2404 32.7104C31.2507 33.047 32.9614 33.6165 34.3724 34.419C35.7869 35.201 36.9085 36.1752 37.7372 37.3415C38.5875 38.4904 39.1484 39.8111 39.4199 41.3035C39.7095 42.7989 39.7108 44.4034 39.4239 46.1168Z" fill="black"/>
</svg>
