<svg width="242" height="59" viewBox="0 0 242 59" fill="none" xmlns="http://www.w3.org/2000/svg">
<path d="M4.73818 8.41309C4.73818 6.20395 6.52904 4.41309 8.73818 4.41309H205.647C225.529 4.41309 241.647 20.5308 241.647 40.4131V54.8411C241.647 57.0502 239.856 58.8411 237.647 58.8411H9.73818C6.97676 58.8411 4.73818 56.6025 4.73818 53.8411V8.41309Z" fill="#C5C5C5"/>
<path d="M8.73818 4.91309H205.647C225.253 4.91309 241.147 20.807 241.147 40.4131V54.8411C241.147 56.7741 239.58 58.3411 237.647 58.3411H9.73818C7.2529 58.3411 5.23818 56.3264 5.23818 53.8411V8.41309C5.23818 6.48009 6.80519 4.91309 8.73818 4.91309Z" stroke="black" stroke-opacity="0.24"/>
<path d="M4 0.5H196.171C215.777 0.5 231.671 16.3939 231.671 36V48.957C231.671 50.89 230.104 52.457 228.171 52.457H5C2.51472 52.457 0.5 50.4423 0.5 47.957V4C0.5 2.067 2.067 0.5 4 0.5Z" fill="#22A95E" stroke="black"/>
<path d="M25.2344 35.4258C25.2344 35.6341 25.2279 35.8164 25.2148 35.9727C25.2018 36.1289 25.1758 36.2656 25.1367 36.3828C25.1107 36.5 25.0716 36.6042 25.0195 36.6953C24.9674 36.7865 24.8763 36.8971 24.7461 37.0273C24.6159 37.1576 24.3424 37.3594 23.9258 37.6328C23.5091 37.8932 22.9883 38.1536 22.3633 38.4141C21.7513 38.6615 21.0417 38.8698 20.2344 39.0391C19.4401 39.2214 18.5677 39.3125 17.6172 39.3125C15.9766 39.3125 14.4922 39.0391 13.1641 38.4922C11.849 37.9453 10.7227 37.138 9.78516 36.0703C8.86068 35.0026 8.14453 33.6875 7.63672 32.125C7.14193 30.5495 6.89453 28.7396 6.89453 26.6953C6.89453 24.599 7.16146 22.7305 7.69531 21.0898C8.24219 19.4492 9.00391 18.0625 9.98047 16.9297C10.957 15.7839 12.1224 14.9115 13.4766 14.3125C14.8438 13.7135 16.3542 13.4141 18.0078 13.4141C18.737 13.4141 19.4466 13.4857 20.1367 13.6289C20.8268 13.7591 21.4648 13.9284 22.0508 14.1367C22.6367 14.3451 23.1576 14.5859 23.6133 14.8594C24.069 15.1328 24.3815 15.3607 24.5508 15.543C24.7331 15.7122 24.8503 15.8424 24.9023 15.9336C24.9544 16.0247 24.9935 16.1354 25.0195 16.2656C25.0586 16.3828 25.0846 16.526 25.0977 16.6953C25.1237 16.8646 25.1367 17.0664 25.1367 17.3008C25.1367 17.5612 25.1237 17.7826 25.0977 17.9648C25.0716 18.1471 25.0326 18.3034 24.9805 18.4336C24.9284 18.5508 24.8633 18.6419 24.7852 18.707C24.7201 18.7591 24.6354 18.7852 24.5312 18.7852C24.349 18.7852 24.0951 18.6615 23.7695 18.4141C23.444 18.1536 23.0208 17.8737 22.5 17.5742C21.9922 17.2617 21.3672 16.9818 20.625 16.7344C19.8958 16.474 19.0169 16.3438 17.9883 16.3438C16.8685 16.3438 15.8464 16.5716 14.9219 17.0273C14.0104 17.4701 13.2292 18.1276 12.5781 19C11.9271 19.8724 11.4193 20.9401 11.0547 22.2031C10.7031 23.4531 10.5273 24.8854 10.5273 26.5C10.5273 28.1016 10.6966 29.5208 11.0352 30.7578C11.3867 31.9818 11.8815 33.0104 12.5195 33.8438C13.1706 34.6641 13.9648 35.2891 14.9023 35.7188C15.8398 36.1354 16.901 36.3438 18.0859 36.3438C19.0885 36.3438 19.9609 36.2201 20.7031 35.9727C21.4583 35.7253 22.0964 35.4518 22.6172 35.1523C23.151 34.8398 23.5872 34.5599 23.9258 34.3125C24.2643 34.0651 24.5312 33.9414 24.7266 33.9414C24.8177 33.9414 24.8958 33.9609 24.9609 34C25.026 34.0391 25.0781 34.1172 25.1172 34.2344C25.1562 34.3385 25.1823 34.4883 25.1953 34.6836C25.2214 34.8789 25.2344 35.1263 25.2344 35.4258ZM49.9805 38.5117C49.9805 38.6159 49.9544 38.707 49.9023 38.7852C49.8503 38.8503 49.7656 38.9089 49.6484 38.9609C49.5312 39.013 49.3685 39.0521 49.1602 39.0781C48.9518 39.1042 48.6849 39.1172 48.3594 39.1172C48.0469 39.1172 47.7865 39.1042 47.5781 39.0781C47.3698 39.0521 47.2005 39.013 47.0703 38.9609C46.9531 38.9089 46.8685 38.8503 46.8164 38.7852C46.7773 38.707 46.7578 38.6159 46.7578 38.5117V20.9336C46.7578 20.8294 46.7773 20.7448 46.8164 20.6797C46.8685 20.6016 46.9531 20.5365 47.0703 20.4844C47.2005 20.4193 47.3698 20.3802 47.5781 20.3672C47.7865 20.3411 48.0469 20.3281 48.3594 20.3281C48.6849 20.3281 48.9518 20.3411 49.1602 20.3672C49.3685 20.3802 49.5312 20.4193 49.6484 20.4844C49.7656 20.5365 49.8503 20.6016 49.9023 20.6797C49.9544 20.7448 49.9805 20.8294 49.9805 20.9336V38.5117ZM32.5391 27.125C33.0208 27.0859 33.5026 27.0599 33.9844 27.0469C34.4792 27.0208 35.013 27.0078 35.5859 27.0078C36.9792 27.0078 38.1706 27.151 39.1602 27.4375C40.1497 27.7109 40.9635 28.1081 41.6016 28.6289C42.2526 29.1497 42.7279 29.7747 43.0273 30.5039C43.3268 31.2201 43.4766 32.0273 43.4766 32.9258C43.4766 33.8242 43.3138 34.6641 42.9883 35.4453C42.6758 36.2266 42.1745 36.9036 41.4844 37.4766C40.8073 38.0495 39.9349 38.5052 38.8672 38.8438C37.7995 39.1693 36.5169 39.332 35.0195 39.332C34.668 39.332 34.3164 39.3255 33.9648 39.3125C33.6133 39.3125 33.2682 39.2995 32.9297 39.2734C32.5911 39.2604 32.2526 39.2409 31.9141 39.2148C31.5885 39.1888 31.2565 39.1562 30.918 39.1172C30.3711 39.0521 29.9674 38.8763 29.707 38.5898C29.4466 38.3034 29.3164 37.8672 29.3164 37.2812V20.9336C29.3164 20.8294 29.3359 20.7448 29.375 20.6797C29.4271 20.6016 29.5117 20.5365 29.6289 20.4844C29.7591 20.4193 29.9219 20.3802 30.1172 20.3672C30.3255 20.3411 30.5794 20.3281 30.8789 20.3281C31.5039 20.3281 31.9336 20.3802 32.168 20.4844C32.4154 20.5755 32.5391 20.7253 32.5391 20.9336V27.125ZM40.1172 33.1406C40.1172 32.6068 40.0326 32.125 39.8633 31.6953C39.707 31.2526 39.4401 30.8815 39.0625 30.582C38.6979 30.2695 38.2096 30.0352 37.5977 29.8789C36.9857 29.7096 36.237 29.625 35.3516 29.625C34.8177 29.625 34.3229 29.638 33.8672 29.6641C33.4115 29.6901 32.9688 29.7227 32.5391 29.7617V36.5195C32.9948 36.5716 33.444 36.6172 33.8867 36.6562C34.3294 36.6953 34.8698 36.7148 35.5078 36.7148C37.0964 36.7148 38.2617 36.4023 39.0039 35.7773C39.7461 35.1393 40.1172 34.2604 40.1172 33.1406ZM66.4453 21.8711C66.4453 22.1315 66.4258 22.3529 66.3867 22.5352C66.3607 22.7174 66.3151 22.8672 66.25 22.9844C66.1979 23.1016 66.1328 23.1862 66.0547 23.2383C65.9896 23.2904 65.9049 23.3164 65.8008 23.3164H59.1797V38.5117C59.1797 38.6159 59.1536 38.707 59.1016 38.7852C59.0495 38.8503 58.9648 38.9089 58.8477 38.9609C58.7305 39.013 58.5677 39.0521 58.3594 39.0781C58.151 39.1042 57.8841 39.1172 57.5586 39.1172C57.2461 39.1172 56.9857 39.1042 56.7773 39.0781C56.569 39.0521 56.3997 39.013 56.2695 38.9609C56.1523 38.9089 56.0677 38.8503 56.0156 38.7852C55.9766 38.707 55.957 38.6159 55.957 38.5117V21.5781C55.957 21.1875 56.0417 20.901 56.2109 20.7188C56.3932 20.5234 56.6406 20.4258 56.9531 20.4258H65.8008C65.9049 20.4258 65.9896 20.4583 66.0547 20.5234C66.1328 20.5755 66.1979 20.6667 66.25 20.7969C66.3151 20.9141 66.3607 21.0638 66.3867 21.2461C66.4258 21.4154 66.4453 21.6237 66.4453 21.8711ZM85.957 29.4492C85.957 30.9857 85.7878 32.3659 85.4492 33.5898C85.1237 34.8138 84.6354 35.8555 83.9844 36.7148C83.3464 37.5612 82.5521 38.2188 81.6016 38.6875C80.651 39.1432 79.5638 39.3711 78.3398 39.3711C77.819 39.3711 77.3372 39.319 76.8945 39.2148C76.4518 39.1107 76.0156 38.9479 75.5859 38.7266C75.1693 38.5052 74.7526 38.2253 74.3359 37.8867C73.9193 37.5482 73.4766 37.151 73.0078 36.6953V45.4844C73.0078 45.5885 72.9818 45.6797 72.9297 45.7578C72.8776 45.8359 72.793 45.901 72.6758 45.9531C72.5586 46.0052 72.3958 46.0443 72.1875 46.0703C71.9792 46.0964 71.7122 46.1094 71.3867 46.1094C71.0742 46.1094 70.8138 46.0964 70.6055 46.0703C70.3971 46.0443 70.2279 46.0052 70.0977 45.9531C69.9805 45.901 69.8958 45.8359 69.8438 45.7578C69.8047 45.6797 69.7852 45.5885 69.7852 45.4844V20.9336C69.7852 20.8164 69.8047 20.7253 69.8438 20.6602C69.8828 20.582 69.9609 20.5169 70.0781 20.4648C70.1953 20.4128 70.3451 20.3802 70.5273 20.3672C70.7096 20.3411 70.931 20.3281 71.1914 20.3281C71.4648 20.3281 71.6862 20.3411 71.8555 20.3672C72.0378 20.3802 72.1875 20.4128 72.3047 20.4648C72.4219 20.5169 72.5 20.582 72.5391 20.6602C72.5911 20.7253 72.6172 20.8164 72.6172 20.9336V23.2969C73.151 22.75 73.6654 22.2747 74.1602 21.8711C74.6549 21.4674 75.1497 21.1354 75.6445 20.875C76.1523 20.6016 76.6667 20.3997 77.1875 20.2695C77.7214 20.1263 78.2812 20.0547 78.8672 20.0547C80.1432 20.0547 81.2305 20.3021 82.1289 20.7969C83.0273 21.2917 83.7565 21.9688 84.3164 22.8281C84.8893 23.6875 85.306 24.6901 85.5664 25.8359C85.8268 26.9688 85.957 28.1732 85.957 29.4492ZM82.5586 29.8203C82.5586 28.9219 82.487 28.056 82.3438 27.2227C82.2135 26.3763 81.9792 25.6276 81.6406 24.9766C81.3151 24.3255 80.8724 23.8047 80.3125 23.4141C79.7526 23.0234 79.056 22.8281 78.2227 22.8281C77.806 22.8281 77.3958 22.8932 76.9922 23.0234C76.5885 23.1406 76.1784 23.3359 75.7617 23.6094C75.3451 23.8698 74.9089 24.2214 74.4531 24.6641C73.9974 25.0938 73.5156 25.6276 73.0078 26.2656V33.2578C73.8932 34.3385 74.7331 35.1654 75.5273 35.7383C76.3216 36.3112 77.1549 36.5977 78.0273 36.5977C78.8346 36.5977 79.5247 36.4023 80.0977 36.0117C80.6836 35.6211 81.1523 35.1003 81.5039 34.4492C81.8685 33.7982 82.1354 33.069 82.3047 32.2617C82.474 31.4544 82.5586 30.6406 82.5586 29.8203ZM104.043 38.5312C104.043 38.6875 103.991 38.8047 103.887 38.8828C103.783 38.9609 103.639 39.0195 103.457 39.0586C103.275 39.0977 103.008 39.1172 102.656 39.1172C102.318 39.1172 102.044 39.0977 101.836 39.0586C101.641 39.0195 101.497 38.9609 101.406 38.8828C101.315 38.8047 101.27 38.6875 101.27 38.5312V36.7734C100.501 37.5938 99.6419 38.2318 98.6914 38.6875C97.7539 39.1432 96.7578 39.3711 95.7031 39.3711C94.7786 39.3711 93.9388 39.2474 93.1836 39C92.4414 38.7656 91.8034 38.4206 91.2695 37.9648C90.7487 37.5091 90.3385 36.9492 90.0391 36.2852C89.7526 35.6211 89.6094 34.8659 89.6094 34.0195C89.6094 33.0299 89.8112 32.1706 90.2148 31.4414C90.6185 30.7122 91.1979 30.1068 91.9531 29.625C92.7083 29.1432 93.6328 28.7852 94.7266 28.5508C95.8203 28.3034 97.0508 28.1797 98.418 28.1797H100.84V26.8125C100.84 26.1354 100.768 25.5365 100.625 25.0156C100.482 24.4948 100.247 24.0651 99.9219 23.7266C99.6094 23.375 99.1992 23.1146 98.6914 22.9453C98.1836 22.763 97.5586 22.6719 96.8164 22.6719C96.0221 22.6719 95.306 22.7695 94.668 22.9648C94.043 23.1471 93.4896 23.3555 93.0078 23.5898C92.5391 23.8112 92.1419 24.0195 91.8164 24.2148C91.5039 24.3971 91.2695 24.4883 91.1133 24.4883C91.0091 24.4883 90.918 24.4622 90.8398 24.4102C90.7617 24.3581 90.6901 24.2799 90.625 24.1758C90.5729 24.0716 90.5339 23.9414 90.5078 23.7852C90.4818 23.6159 90.4688 23.4336 90.4688 23.2383C90.4688 22.9128 90.4883 22.6589 90.5273 22.4766C90.5794 22.2812 90.6901 22.099 90.8594 21.9297C91.0417 21.7604 91.3477 21.5651 91.7773 21.3438C92.207 21.1094 92.7018 20.901 93.2617 20.7188C93.8216 20.5234 94.4336 20.3672 95.0977 20.25C95.7617 20.1198 96.4323 20.0547 97.1094 20.0547C98.3724 20.0547 99.4466 20.1979 100.332 20.4844C101.217 20.7708 101.934 21.194 102.48 21.7539C103.027 22.3008 103.424 22.9844 103.672 23.8047C103.919 24.625 104.043 25.582 104.043 26.6758V38.5312ZM100.84 30.5039H98.0859C97.2005 30.5039 96.4323 30.582 95.7812 30.7383C95.1302 30.8815 94.5898 31.1029 94.1602 31.4023C93.7305 31.6888 93.4115 32.0404 93.2031 32.457C93.0078 32.8607 92.9102 33.3294 92.9102 33.8633C92.9102 34.7747 93.1966 35.5039 93.7695 36.0508C94.3555 36.5846 95.1693 36.8516 96.2109 36.8516C97.0573 36.8516 97.8385 36.6367 98.5547 36.207C99.2839 35.7773 100.046 35.1198 100.84 34.2344V30.5039ZM122.168 21.8906C122.168 22.151 122.155 22.3724 122.129 22.5547C122.103 22.737 122.057 22.8867 121.992 23.0039C121.94 23.1211 121.875 23.2122 121.797 23.2773C121.719 23.3294 121.621 23.3555 121.504 23.3555H116.23V38.5117C116.23 38.6159 116.204 38.707 116.152 38.7852C116.1 38.8503 116.016 38.9089 115.898 38.9609C115.781 39.013 115.618 39.0521 115.41 39.0781C115.202 39.1042 114.935 39.1172 114.609 39.1172C114.297 39.1172 114.036 39.1042 113.828 39.0781C113.62 39.0521 113.451 39.013 113.32 38.9609C113.203 38.9089 113.118 38.8503 113.066 38.7852C113.027 38.707 113.008 38.6159 113.008 38.5117V23.3555H107.734C107.63 23.3555 107.533 23.3294 107.441 23.2773C107.363 23.2122 107.298 23.1211 107.246 23.0039C107.194 22.8867 107.148 22.737 107.109 22.5547C107.083 22.3594 107.07 22.1315 107.07 21.8711C107.07 21.6367 107.083 21.4284 107.109 21.2461C107.148 21.0638 107.194 20.9141 107.246 20.7969C107.311 20.6667 107.383 20.5755 107.461 20.5234C107.539 20.4583 107.63 20.4258 107.734 20.4258H121.504C121.608 20.4258 121.699 20.4583 121.777 20.5234C121.868 20.5755 121.94 20.6667 121.992 20.7969C122.044 20.9141 122.083 21.0703 122.109 21.2656C122.148 21.4479 122.168 21.6562 122.168 21.8906ZM139.961 32.9258C139.961 33.8242 139.792 34.6641 139.453 35.4453C139.128 36.2266 138.613 36.9036 137.91 37.4766C137.207 38.0495 136.309 38.5052 135.215 38.8438C134.121 39.1693 132.812 39.332 131.289 39.332C130.938 39.332 130.573 39.3255 130.195 39.3125C129.818 39.3125 129.447 39.2995 129.082 39.2734C128.717 39.2604 128.359 39.2409 128.008 39.2148C127.656 39.1888 127.311 39.1562 126.973 39.1172C126.426 39.0521 126.022 38.8763 125.762 38.5898C125.501 38.3034 125.371 37.8672 125.371 37.2812V20.9336C125.371 20.8294 125.391 20.7448 125.43 20.6797C125.482 20.6016 125.566 20.5365 125.684 20.4844C125.814 20.4193 125.983 20.3802 126.191 20.3672C126.4 20.3411 126.66 20.3281 126.973 20.3281C127.285 20.3281 127.546 20.3411 127.754 20.3672C127.962 20.3802 128.125 20.4193 128.242 20.4844C128.372 20.5365 128.464 20.6016 128.516 20.6797C128.568 20.7448 128.594 20.8294 128.594 20.9336V27.125C129.076 27.0859 129.596 27.0599 130.156 27.0469C130.716 27.0208 131.289 27.0078 131.875 27.0078C133.294 27.0078 134.512 27.151 135.527 27.4375C136.556 27.7109 137.396 28.1081 138.047 28.6289C138.698 29.1497 139.18 29.7747 139.492 30.5039C139.805 31.2201 139.961 32.0273 139.961 32.9258ZM136.562 33.1406C136.562 32.6068 136.478 32.125 136.309 31.6953C136.139 31.2526 135.859 30.8815 135.469 30.582C135.078 30.2695 134.57 30.0352 133.945 29.8789C133.32 29.7096 132.552 29.625 131.641 29.625C131.094 29.625 130.553 29.638 130.02 29.6641C129.499 29.6901 129.023 29.7227 128.594 29.7617V36.5195C129.049 36.5716 129.538 36.6172 130.059 36.6562C130.579 36.6953 131.159 36.7148 131.797 36.7148C133.411 36.7148 134.609 36.4023 135.391 35.7773C136.172 35.1393 136.562 34.2604 136.562 33.1406ZM168.223 28.9609C168.223 29.4688 168.092 29.8333 167.832 30.0547C167.585 30.263 167.298 30.3672 166.973 30.3672H155.449C155.449 31.3438 155.547 32.2227 155.742 33.0039C155.938 33.7852 156.263 34.4557 156.719 35.0156C157.174 35.5755 157.767 36.0052 158.496 36.3047C159.225 36.6042 160.117 36.7539 161.172 36.7539C162.005 36.7539 162.747 36.6888 163.398 36.5586C164.049 36.4154 164.609 36.2591 165.078 36.0898C165.56 35.9206 165.951 35.7708 166.25 35.6406C166.562 35.4974 166.797 35.4258 166.953 35.4258C167.044 35.4258 167.122 35.4518 167.188 35.5039C167.266 35.543 167.324 35.6081 167.363 35.6992C167.402 35.7904 167.428 35.9206 167.441 36.0898C167.467 36.2461 167.48 36.4414 167.48 36.6758C167.48 36.8451 167.474 36.9948 167.461 37.125C167.448 37.2422 167.428 37.3529 167.402 37.457C167.389 37.5482 167.357 37.6328 167.305 37.7109C167.266 37.7891 167.207 37.8672 167.129 37.9453C167.064 38.0104 166.855 38.1276 166.504 38.2969C166.152 38.4531 165.697 38.6094 165.137 38.7656C164.577 38.9219 163.926 39.0586 163.184 39.1758C162.454 39.306 161.673 39.3711 160.84 39.3711C159.395 39.3711 158.125 39.1693 157.031 38.7656C155.951 38.362 155.039 37.763 154.297 36.9688C153.555 36.1745 152.995 35.1784 152.617 33.9805C152.24 32.7826 152.051 31.3893 152.051 29.8008C152.051 28.2904 152.246 26.9362 152.637 25.7383C153.027 24.5273 153.587 23.5052 154.316 22.6719C155.059 21.8255 155.951 21.181 156.992 20.7383C158.034 20.2826 159.199 20.0547 160.488 20.0547C161.868 20.0547 163.04 20.276 164.004 20.7188C164.98 21.1615 165.781 21.7604 166.406 22.5156C167.031 23.2578 167.487 24.1367 167.773 25.1523C168.073 26.1549 168.223 27.2292 168.223 28.375V28.9609ZM164.98 28.0039C165.02 26.3112 164.642 24.9831 163.848 24.0195C163.066 23.056 161.901 22.5742 160.352 22.5742C159.557 22.5742 158.861 22.724 158.262 23.0234C157.663 23.3229 157.161 23.7201 156.758 24.2148C156.354 24.7096 156.042 25.2891 155.82 25.9531C155.599 26.6042 155.475 27.2878 155.449 28.0039H164.98ZM199.492 44.9766C199.492 45.0547 199.466 45.1198 199.414 45.1719C199.375 45.224 199.297 45.263 199.18 45.2891C199.076 45.3281 198.939 45.3542 198.77 45.3672C198.613 45.3932 198.418 45.4062 198.184 45.4062C197.936 45.4062 197.721 45.3932 197.539 45.3672C197.357 45.3542 197.207 45.3281 197.09 45.2891C196.986 45.25 196.908 45.2044 196.855 45.1523C196.816 45.1133 196.797 45.0612 196.797 44.9961V39H174.16C173.835 39 173.581 38.9089 173.398 38.7266C173.229 38.5312 173.145 38.2448 173.145 37.8672V20.9336C173.145 20.8294 173.164 20.7448 173.203 20.6797C173.255 20.6016 173.346 20.5365 173.477 20.4844C173.607 20.4193 173.776 20.3802 173.984 20.3672C174.193 20.3411 174.453 20.3281 174.766 20.3281C175.078 20.3281 175.339 20.3411 175.547 20.3672C175.755 20.3802 175.918 20.4193 176.035 20.4844C176.152 20.5365 176.237 20.6016 176.289 20.6797C176.341 20.7448 176.367 20.8294 176.367 20.9336V36.2266H183.145V20.9336C183.145 20.8294 183.164 20.7448 183.203 20.6797C183.255 20.6016 183.34 20.5365 183.457 20.4844C183.574 20.4193 183.73 20.3802 183.926 20.3672C184.134 20.3411 184.395 20.3281 184.707 20.3281C185.02 20.3281 185.273 20.3411 185.469 20.3672C185.677 20.3802 185.84 20.4193 185.957 20.4844C186.074 20.5365 186.159 20.6016 186.211 20.6797C186.263 20.7448 186.289 20.8294 186.289 20.9336V36.2266H193.086V20.9336C193.086 20.8294 193.105 20.7448 193.145 20.6797C193.197 20.6016 193.281 20.5365 193.398 20.4844C193.529 20.4193 193.691 20.3802 193.887 20.3672C194.095 20.3411 194.355 20.3281 194.668 20.3281C194.993 20.3281 195.26 20.3411 195.469 20.3672C195.677 20.3802 195.84 20.4193 195.957 20.4844C196.087 20.5365 196.178 20.6016 196.23 20.6797C196.283 20.7448 196.309 20.8294 196.309 20.9336V36.2266H198.691C198.991 36.2266 199.206 36.2852 199.336 36.4023C199.466 36.5195 199.518 36.7279 199.492 37.0273V44.9766ZM217.715 28.9609C217.715 29.4688 217.585 29.8333 217.324 30.0547C217.077 30.263 216.79 30.3672 216.465 30.3672H204.941C204.941 31.3438 205.039 32.2227 205.234 33.0039C205.43 33.7852 205.755 34.4557 206.211 35.0156C206.667 35.5755 207.259 36.0052 207.988 36.3047C208.717 36.6042 209.609 36.7539 210.664 36.7539C211.497 36.7539 212.24 36.6888 212.891 36.5586C213.542 36.4154 214.102 36.2591 214.57 36.0898C215.052 35.9206 215.443 35.7708 215.742 35.6406C216.055 35.4974 216.289 35.4258 216.445 35.4258C216.536 35.4258 216.615 35.4518 216.68 35.5039C216.758 35.543 216.816 35.6081 216.855 35.6992C216.895 35.7904 216.921 35.9206 216.934 36.0898C216.96 36.2461 216.973 36.4414 216.973 36.6758C216.973 36.8451 216.966 36.9948 216.953 37.125C216.94 37.2422 216.921 37.3529 216.895 37.457C216.882 37.5482 216.849 37.6328 216.797 37.7109C216.758 37.7891 216.699 37.8672 216.621 37.9453C216.556 38.0104 216.348 38.1276 215.996 38.2969C215.645 38.4531 215.189 38.6094 214.629 38.7656C214.069 38.9219 213.418 39.0586 212.676 39.1758C211.947 39.306 211.165 39.3711 210.332 39.3711C208.887 39.3711 207.617 39.1693 206.523 38.7656C205.443 38.362 204.531 37.763 203.789 36.9688C203.047 36.1745 202.487 35.1784 202.109 33.9805C201.732 32.7826 201.543 31.3893 201.543 29.8008C201.543 28.2904 201.738 26.9362 202.129 25.7383C202.52 24.5273 203.079 23.5052 203.809 22.6719C204.551 21.8255 205.443 21.181 206.484 20.7383C207.526 20.2826 208.691 20.0547 209.98 20.0547C211.361 20.0547 212.533 20.276 213.496 20.7188C214.473 21.1615 215.273 21.7604 215.898 22.5156C216.523 23.2578 216.979 24.1367 217.266 25.1523C217.565 26.1549 217.715 27.2292 217.715 28.375V28.9609ZM214.473 28.0039C214.512 26.3112 214.134 24.9831 213.34 24.0195C212.559 23.056 211.393 22.5742 209.844 22.5742C209.049 22.5742 208.353 22.724 207.754 23.0234C207.155 23.3229 206.654 23.7201 206.25 24.2148C205.846 24.7096 205.534 25.2891 205.312 25.9531C205.091 26.6042 204.967 27.2878 204.941 28.0039H214.473Z" fill="white"/>
</svg>
