<svg width="210" height="55" viewBox="0 0 210 55" fill="none" xmlns="http://www.w3.org/2000/svg">
<path d="M102.833 54.7178L102.828 54.2179L102.838 54.2178L102.833 54.7178ZM102.833 54.7178C102.838 54.2179 102.839 54.2179 102.839 54.2179L102.841 54.2179L102.849 54.218L102.882 54.2183L103.011 54.2197L103.517 54.2249C103.96 54.2294 104.611 54.2359 105.442 54.244C107.104 54.2601 109.486 54.2825 112.365 54.3073C118.123 54.357 125.87 54.4166 133.827 54.4564C149.765 54.536 166.483 54.535 169.814 54.2201C173.16 53.9036 175.607 53.4332 177.765 52.362C179.916 51.294 181.823 49.6062 184.038 46.7775C186.186 44.0359 186.875 40.0425 187.511 36.1145L187.548 35.8874C187.849 34.0267 188.145 32.1908 188.601 30.5827C189.073 28.9121 189.734 27.4204 190.808 26.3755C192.794 24.444 194.365 23.3069 195.452 22.6491C195.995 22.3203 196.417 22.1114 196.709 21.9831C196.855 21.919 196.969 21.875 197.048 21.8463C197.088 21.8319 197.12 21.8214 197.143 21.814L197.159 21.8087L197.163 21.8074L197.218 21.7863C197.266 21.7676 197.338 21.7398 197.43 21.7036C197.613 21.6313 197.878 21.5255 198.199 21.3926C198.841 21.1266 199.708 20.7527 200.608 20.3207C201.51 19.8876 202.435 19.4009 203.199 18.9099C203.984 18.405 204.522 17.9423 204.737 17.5766C204.83 17.4171 204.923 17.1313 204.997 16.7056C205.069 16.2907 205.115 15.7848 205.141 15.2157C205.193 14.0781 205.159 12.727 205.089 11.4238C205.019 10.1227 204.915 8.87953 204.828 7.96089C204.786 7.52093 204.748 7.15594 204.72 6.89532H168.179C162.752 6.89531 158.405 8.32614 153.678 10.013C153.356 10.1281 153.031 10.2444 152.705 10.3615C148.251 11.9587 143.396 13.6999 137.031 14.5652C130.227 15.4901 121.398 15.81 114.284 15.8996C110.724 15.9445 107.588 15.9318 105.342 15.9078C104.219 15.8958 103.318 15.881 102.698 15.8693C102.387 15.8634 102.147 15.8582 101.985 15.8545L101.8 15.8502L101.753 15.849L101.75 15.849L101.749 15.849L101.707 15.8502L101.54 15.8545C101.393 15.8582 101.176 15.8633 100.896 15.8692C100.334 15.881 99.5181 15.8958 98.4964 15.9078C96.4531 15.9318 93.5876 15.9445 90.2982 15.8996C83.7241 15.8099 75.438 15.4899 68.6354 14.5652C62.27 13.6999 57.4148 11.9587 52.9611 10.3614C52.6347 10.2444 52.3104 10.1281 51.9879 10.013C47.2614 8.32614 42.9138 6.89531 37.4867 6.89532H0.94573C0.917781 7.15594 0.880052 7.52093 0.838309 7.96089C0.751148 8.87953 0.6467 10.1227 0.577126 11.4238C0.507438 12.727 0.473323 14.0781 0.524786 15.2157C0.550531 15.7848 0.597304 16.2907 0.669038 16.7056C0.74265 17.1313 0.835541 17.4171 0.929274 17.5766C1.14409 17.9423 1.68219 18.405 2.46741 18.9099C3.2309 19.4009 4.15599 19.8876 5.05792 20.3207C5.95787 20.7527 6.82466 21.1266 7.46716 21.3926C7.78815 21.5255 8.05252 21.6313 8.23627 21.7036C8.32814 21.7398 8.39981 21.7676 8.44829 21.7863L8.50323 21.8074L8.50665 21.8087L8.52346 21.814C8.54634 21.8214 8.57779 21.8319 8.61767 21.8463C8.69743 21.875 8.81086 21.919 8.95687 21.9831C9.24892 22.1114 9.67101 22.3203 10.2143 22.6491C11.301 23.3069 12.8719 24.444 14.8576 26.3755C15.9318 27.4204 16.5926 28.9121 17.0654 30.5827C17.5206 32.1908 17.8174 34.0266 18.1182 35.8874C18.1305 35.9631 18.1427 36.0388 18.155 36.1145C18.7907 40.0425 19.4803 44.0359 21.6278 46.7775C23.8434 49.6062 25.7504 51.294 27.9015 52.362C30.0589 53.4332 32.5063 53.9036 35.8524 54.2201C39.1827 54.535 55.9013 54.536 71.8386 54.4564C79.796 54.4166 87.5433 54.357 93.3013 54.3073C96.1804 54.2825 98.562 54.2601 100.224 54.244C101.055 54.2359 101.706 54.2294 102.149 54.2249L102.655 54.2197L102.784 54.2183L102.817 54.218L102.825 54.2179L102.827 54.2179C102.827 54.2179 102.828 54.2179 102.833 54.7178Z" fill="#E4A577" stroke="black"/>
<path d="M107.167 48.3225C107.162 47.8226 107.161 47.8226 107.161 47.8226L107.159 47.8226L107.151 47.8227L107.118 47.823L106.989 47.8244L106.483 47.8295C106.04 47.834 105.389 47.8406 104.558 47.8486C102.896 47.8648 100.514 47.8871 97.6353 47.912C91.8773 47.9617 84.13 48.0213 76.1726 48.061C60.2353 48.1406 43.5167 48.1397 40.1864 47.8247C36.8403 47.5083 34.3929 47.0379 32.2355 45.9667C30.0844 44.8987 28.1774 43.2109 25.9618 40.3822C23.8143 37.6406 23.1247 33.6472 22.489 29.7192C22.4767 29.6434 22.4645 29.5677 22.4522 29.492C22.1514 27.6313 21.8546 25.7954 21.3994 24.1873C20.9266 22.5168 20.2658 21.025 19.1916 19.9802C17.2059 18.0487 15.635 16.9115 14.5483 16.2538C14.005 15.925 13.5829 15.7161 13.2909 15.5878C13.1449 15.5237 13.0314 15.4797 12.9517 15.4509C12.9118 15.4366 12.8803 15.426 12.8575 15.4187L12.8406 15.4134L12.8372 15.4121L12.7823 15.391C12.7338 15.3723 12.6621 15.3445 12.5703 15.3083C12.3865 15.2359 12.1221 15.1302 11.8012 14.9973C11.1587 14.7313 10.2919 14.3574 9.39192 13.9253C8.48999 13.4923 7.5649 13.0056 6.80141 12.5146C6.01619 12.0096 5.47809 11.547 5.26327 11.1813C5.16954 11.0218 5.07665 10.7359 5.00304 10.3102C4.9313 9.89541 4.88453 9.3895 4.85879 8.82038C4.80732 7.68276 4.84144 6.33169 4.91113 5.02848C4.9807 3.72741 5.08515 2.4842 5.17231 1.56557C5.21405 1.12561 5.25178 0.760611 5.27973 0.5H41.8207C47.2478 0.499982 51.5954 1.93081 56.3219 3.61768C56.6444 3.73279 56.9687 3.84907 57.2951 3.96613C61.7488 5.56335 66.604 7.30455 72.9694 8.16984C84.3551 9.71759 99.9136 9.57255 104.657 9.48518C107.303 9.57273 129.986 9.71666 141.365 8.16984C147.73 7.30455 152.585 5.56335 157.039 3.96612C157.365 3.84906 157.69 3.73279 158.012 3.61768C162.739 1.93081 167.086 0.499982 172.513 0.5H209.054C209.082 0.760611 209.12 1.12561 209.162 1.56557C209.249 2.48421 209.353 3.72741 209.423 5.02848C209.493 6.33169 209.527 7.68276 209.475 8.82038C209.449 9.3895 209.403 9.89541 209.331 10.3102C209.257 10.7359 209.164 11.0218 209.071 11.1813C208.856 11.547 208.318 12.0096 207.533 12.5146C206.769 13.0056 205.844 13.4923 204.942 13.9253C204.042 14.3574 203.175 14.7313 202.533 14.9973C202.212 15.1302 201.947 15.2359 201.764 15.3083C201.672 15.3445 201.6 15.3723 201.552 15.391L201.497 15.4121L201.493 15.4134L201.477 15.4187C201.454 15.426 201.422 15.4366 201.382 15.4509C201.303 15.4797 201.189 15.5237 201.043 15.5878C200.751 15.7161 200.329 15.925 199.786 16.2538C198.699 16.9115 197.128 18.0487 195.142 19.9802C194.068 21.025 193.407 22.5168 192.935 24.1873C192.479 25.7953 192.183 27.6311 191.882 29.4917L191.845 29.7192C191.209 33.6472 190.52 37.6406 188.372 40.3822C186.157 43.2109 184.25 44.8987 182.099 45.9667C179.941 47.0379 177.494 47.5083 174.148 47.8247C170.817 48.1397 154.099 48.1406 138.161 48.061C130.204 48.0213 122.457 47.9617 116.699 47.912C113.82 47.8871 111.438 47.8648 109.776 47.8486C108.945 47.8406 108.294 47.834 107.851 47.8295L107.345 47.8244L107.216 47.823L107.183 47.8227L107.175 47.8226L107.173 47.8226C107.173 47.8226 107.172 47.8226 107.167 48.3225ZM107.167 48.3225L107.162 47.8226L107.172 47.8224L107.167 48.3225Z" fill="#FFF500" stroke="black"/>
</svg>
