<svg width="206" height="49" viewBox="0 0 206 49" fill="none" xmlns="http://www.w3.org/2000/svg">
<path d="M102.833 48.3225C102.828 47.8226 102.827 47.8226 102.827 47.8226L102.825 47.8226L102.817 47.8227L102.784 47.823L102.655 47.8244L102.149 47.8295C101.706 47.834 101.055 47.8406 100.224 47.8486C98.562 47.8648 96.1804 47.8871 93.3013 47.912C87.5433 47.9617 79.796 48.0213 71.8386 48.061C55.9013 48.1406 39.1827 48.1397 35.8524 47.8247C32.5063 47.5083 30.0589 47.0379 27.9015 45.9667C25.7504 44.8987 23.8434 43.2109 21.6278 40.3822C19.4803 37.6406 18.7907 33.6472 18.155 29.7192C18.1427 29.6434 18.1305 29.5677 18.1182 29.4921C17.8174 27.6313 17.5206 25.7954 17.0654 24.1873C16.5926 22.5168 15.9318 21.025 14.8576 19.9802C12.8719 18.0487 11.301 16.9115 10.2143 16.2538C9.67101 15.925 9.24892 15.7161 8.95687 15.5878C8.81086 15.5237 8.69743 15.4797 8.61767 15.4509C8.57779 15.4366 8.54634 15.426 8.52346 15.4187L8.50665 15.4134L8.50323 15.4121L8.44829 15.391C8.39981 15.3723 8.32814 15.3445 8.23627 15.3083C8.05252 15.2359 7.78815 15.1302 7.46716 14.9973C6.82466 14.7313 5.95787 14.3574 5.05792 13.9253C4.15599 13.4923 3.2309 13.0056 2.46741 12.5146C1.68219 12.0096 1.14409 11.547 0.929274 11.1813C0.835541 11.0218 0.74265 10.7359 0.669038 10.3102C0.597304 9.89541 0.550531 9.3895 0.524786 8.82038C0.473323 7.68276 0.507438 6.33169 0.577126 5.02848C0.6467 3.72741 0.751148 2.4842 0.838309 1.56557C0.880052 1.12561 0.917781 0.760611 0.94573 0.5H37.4867C42.9138 0.499982 47.2614 1.93081 51.9879 3.61768C52.3104 3.73279 52.6347 3.84907 52.9611 3.96613C57.4148 5.56335 62.27 7.30455 68.6354 8.16984C80.0211 9.71759 95.5796 9.57255 100.323 9.48518C102.969 9.57273 125.652 9.71666 137.031 8.16984C143.396 7.30456 148.251 5.56337 152.705 3.96615C153.031 3.84909 153.356 3.7328 153.678 3.61768C158.405 1.93081 162.752 0.499982 168.179 0.5H204.72C204.748 0.760611 204.786 1.12561 204.828 1.56557C204.915 2.48421 205.019 3.72741 205.089 5.02848C205.159 6.33169 205.193 7.68276 205.141 8.82038C205.115 9.3895 205.069 9.89541 204.997 10.3102C204.923 10.7359 204.83 11.0218 204.737 11.1813C204.522 11.547 203.984 12.0096 203.199 12.5146C202.435 13.0056 201.51 13.4923 200.608 13.9253C199.708 14.3574 198.841 14.7313 198.199 14.9973C197.878 15.1302 197.613 15.2359 197.43 15.3083C197.338 15.3445 197.266 15.3723 197.218 15.391L197.163 15.4121L197.159 15.4134L197.143 15.4187C197.12 15.426 197.088 15.4366 197.048 15.4509C196.969 15.4797 196.855 15.5237 196.709 15.5878C196.417 15.7161 195.995 15.925 195.452 16.2538C194.365 16.9115 192.794 18.0487 190.808 19.9802C189.734 21.025 189.073 22.5168 188.601 24.1873C188.145 25.7954 187.849 27.6313 187.548 29.4921L187.511 29.7192C186.875 33.6472 186.186 37.6406 184.038 40.3822C181.823 43.2109 179.916 44.8987 177.765 45.9667C175.607 47.0379 173.16 47.5083 169.814 47.8247C166.483 48.1397 149.765 48.1406 133.827 48.061C125.87 48.0213 118.123 47.9617 112.365 47.912C109.486 47.8871 107.104 47.8648 105.442 47.8486C104.611 47.8406 103.96 47.834 103.517 47.8295L103.011 47.8244L102.882 47.823L102.849 47.8227L102.841 47.8226L102.839 47.8226C102.839 47.8226 102.838 47.8226 102.833 48.3225ZM102.833 48.3225L102.828 47.8226L102.838 47.8224L102.833 48.3225Z" fill="#ECBC42" stroke="black"/>
</svg>
