<svg width="34" height="32" viewBox="0 0 34 32" fill="none" xmlns="http://www.w3.org/2000/svg">
<path d="M33.5 15.6923C33.5 24.075 26.5889 30.8846 18.0462 30.8846C9.50341 30.8846 2.59232 24.075 2.59232 15.6923C2.59232 7.30959 9.50341 0.5 18.0462 0.5C26.5889 0.5 33.5 7.30959 33.5 15.6923Z" fill="#D6D1D1" stroke="black"/>
<circle cx="15.6923" cy="15.6923" r="15.1923" fill="#ECBC42" stroke="black"/>
<path d="M21.9693 3.13846L23.3283 7.06153H20.6103L21.9693 3.13846Z" fill="#FEFEFE"/>
<path d="M25.6308 6.8L21.7077 8.15899L21.7077 5.441L25.6308 6.8Z" fill="#FEFEFE"/>
<path d="M18.3077 6.8L22.2308 5.441V8.15899L18.3077 6.8Z" fill="#FEFEFE"/>
<path d="M21.9693 10.4615L20.6103 6.53846L23.3283 6.53846L21.9693 10.4615Z" fill="#FEFEFE"/>
<path d="M15.6087 7.08333C17.5733 7.08333 19.0047 7.53945 19.9028 8.45169C20.8009 9.36394 21.25 10.6494 21.25 12.308C21.25 13.2866 21.0606 14.2071 20.6817 15.0696C20.3168 15.9155 19.6923 16.6038 18.8082 17.1346C17.9382 17.6654 16.7524 17.9307 15.2508 17.9307H13.5247L13.1719 25.4755L11.3333 25.5L11.6303 7.08333H15.6087ZM15.4403 8.99904H13.5247V16.015H15.0403C16.4717 16.015 17.5382 15.7414 18.2399 15.194C18.9415 14.6467 19.2924 13.7178 19.2924 12.4075C19.2924 11.2631 18.9836 10.4089 18.3662 9.84494C17.7487 9.28101 16.7734 8.99904 15.4403 8.99904Z" fill="black"/>
<path d="M9.20834 20.5645L16.2917 20.5417" stroke="black"/>
<path d="M9.20834 17H17" stroke="black"/>
</svg>
