<svg width="41" height="41" viewBox="0 0 41 41" fill="none" xmlns="http://www.w3.org/2000/svg">
<g clip-path="url(#clip0)">
<path d="M41 20.5012C41 9.17837 31.8218 0.000946045 20.5003 0.000946045C9.17833 0.000946045 0 9.17829 0 20.5012C0 31.8222 9.17825 41.0004 20.5003 41.0004C31.8218 41.0003 41 31.8221 41 20.5012Z" fill="#E04F5F"/>
<path d="M21.4381 10.653C21.1564 10.5001 20.8135 10.5135 20.5446 10.6881L12.6829 15.7942H9.77717C9.29417 15.7942 8.90265 16.1858 8.90265 16.6687V24.3312C8.90265 24.8142 9.29417 25.2058 9.77717 25.2058H12.6829L20.5446 30.3118C20.689 30.4056 20.8548 30.4529 21.021 30.4529C21.1642 30.4529 21.3078 30.4177 21.4382 30.3469C21.72 30.1938 21.8955 29.899 21.8955 29.5783V11.4217C21.8954 11.1011 21.7199 10.806 21.4381 10.653Z" fill="white"/>
<path d="M24.7904 14.2132C24.7904 14.2132 28.0958 16.4189 28.0958 20.4934C28.0958 24.5679 24.7904 26.7737 24.7904 26.7737" stroke="white"/>
<path d="M27.2695 11.4036C27.2695 11.4036 32.0623 14.5961 32.0623 20.4934C32.0623 26.3907 27.2695 29.5832 27.2695 29.5832" stroke="white" stroke-width="3"/>
</g>
<defs>
<clipPath id="clip0">
<rect width="41" height="41" fill="white"/>
</clipPath>
</defs>
</svg>
