<svg width="253" height="92" viewBox="0 0 253 92" fill="none" xmlns="http://www.w3.org/2000/svg">
<path d="M4.96078 10.8659C4.96078 8.65681 6.75165 6.86595 8.96078 6.86595H183C221.66 6.86595 253 38.206 253 76.866V87.5461C253 89.7552 251.209 91.5461 249 91.5461H9.96079C7.19936 91.5461 4.96078 89.3075 4.96078 86.5461V10.8659Z" fill="#E4D1D1"/>
<path d="M8.96078 7.36595H183C221.384 7.36595 252.5 38.4822 252.5 76.866V87.5461C252.5 89.479 250.933 91.0461 249 91.0461H9.96079C7.47551 91.0461 5.46078 89.0313 5.46078 86.5461V10.8659C5.46078 8.93295 7.02779 7.36595 8.96078 7.36595Z" stroke="black" stroke-opacity="0.24"/>
<path d="M4 0.5H164.61C207.671 0.5 242.578 35.4075 242.578 78.468C242.578 80.3587 241.046 81.8914 239.155 81.8914H5C2.51472 81.8914 0.5 79.8767 0.5 77.3914V4C0.5 2.06701 2.067 0.5 4 0.5Z" fill="#E38484" stroke="black"/>
<path d="M64.1094 58.3145C64.1094 58.4551 64.0742 58.5781 64.0039 58.6836C63.9336 58.7891 63.8105 58.877 63.6348 58.9473C63.459 59 63.2217 59.0439 62.9229 59.0791C62.6416 59.1318 62.29 59.1582 61.8682 59.1582C61.4111 59.1582 61.042 59.1318 60.7607 59.0791C60.4795 59.0439 60.251 59 60.0752 58.9473C59.8994 58.877 59.7764 58.7891 59.7061 58.6836C59.6357 58.5781 59.6006 58.4551 59.6006 58.3145V43.1797H44.0703V58.3145C44.0703 58.4551 44.0352 58.5781 43.9648 58.6836C43.8945 58.7891 43.7715 58.877 43.5957 58.9473C43.4199 59 43.1826 59.0439 42.8838 59.0791C42.6025 59.1318 42.2422 59.1582 41.8027 59.1582C41.3809 59.1582 41.0205 59.1318 40.7217 59.0791C40.4229 59.0439 40.1855 59 40.0098 58.9473C39.834 58.877 39.7109 58.7891 39.6406 58.6836C39.5703 58.5781 39.5352 58.4551 39.5352 58.3145V25.5664C39.5352 25.4258 39.5703 25.3027 39.6406 25.1973C39.7109 25.0918 39.834 25.0127 40.0098 24.96C40.1855 24.8896 40.4229 24.8369 40.7217 24.8018C41.0205 24.749 41.3809 24.7227 41.8027 24.7227C42.2422 24.7227 42.6025 24.749 42.8838 24.8018C43.1826 24.8369 43.4199 24.8896 43.5957 24.96C43.7715 25.0127 43.8945 25.0918 43.9648 25.1973C44.0352 25.3027 44.0703 25.4258 44.0703 25.5664V39.2246H59.6006V25.5664C59.6006 25.4258 59.6357 25.3027 59.7061 25.1973C59.7764 25.0918 59.8994 25.0127 60.0752 24.96C60.251 24.8896 60.4795 24.8369 60.7607 24.8018C61.042 24.749 61.4111 24.7227 61.8682 24.7227C62.29 24.7227 62.6416 24.749 62.9229 24.8018C63.2217 24.8369 63.459 24.8896 63.6348 24.96C63.8105 25.0127 63.9336 25.0918 64.0039 25.1973C64.0742 25.3027 64.1094 25.4258 64.1094 25.5664V58.3145ZM90.5557 58.3672C90.5557 58.5781 90.4854 58.7363 90.3447 58.8418C90.2041 58.9473 90.0107 59.0264 89.7646 59.0791C89.5186 59.1318 89.1582 59.1582 88.6836 59.1582C88.2266 59.1582 87.8574 59.1318 87.5762 59.0791C87.3125 59.0264 87.1191 58.9473 86.9961 58.8418C86.873 58.7363 86.8115 58.5781 86.8115 58.3672V55.9941C85.7744 57.1016 84.6143 57.9629 83.3311 58.5781C82.0654 59.1934 80.7207 59.501 79.2969 59.501C78.0488 59.501 76.915 59.334 75.8955 59C74.8936 58.6836 74.0322 58.2178 73.3115 57.6025C72.6084 56.9873 72.0547 56.2314 71.6504 55.335C71.2637 54.4385 71.0703 53.4189 71.0703 52.2764C71.0703 50.9404 71.3428 49.7803 71.8877 48.7959C72.4326 47.8115 73.2148 46.9941 74.2344 46.3438C75.2539 45.6934 76.502 45.21 77.9785 44.8936C79.4551 44.5596 81.1162 44.3926 82.9619 44.3926H86.2314V42.5469C86.2314 41.6328 86.1348 40.8242 85.9414 40.1211C85.748 39.418 85.4316 38.8379 84.9922 38.3809C84.5703 37.9062 84.0166 37.5547 83.3311 37.3262C82.6455 37.0801 81.8018 36.957 80.7998 36.957C79.7275 36.957 78.7607 37.0889 77.8994 37.3525C77.0557 37.5986 76.3086 37.8799 75.6582 38.1963C75.0254 38.4951 74.4893 38.7764 74.0498 39.04C73.6279 39.2861 73.3115 39.4092 73.1006 39.4092C72.96 39.4092 72.8369 39.374 72.7314 39.3037C72.626 39.2334 72.5293 39.1279 72.4414 38.9873C72.3711 38.8467 72.3184 38.6709 72.2832 38.46C72.248 38.2314 72.2305 37.9854 72.2305 37.7217C72.2305 37.2822 72.2568 36.9395 72.3096 36.6934C72.3799 36.4297 72.5293 36.1836 72.7578 35.9551C73.0039 35.7266 73.417 35.4629 73.9971 35.1641C74.5771 34.8477 75.2451 34.5664 76.001 34.3203C76.7568 34.0566 77.583 33.8457 78.4795 33.6875C79.376 33.5117 80.2812 33.4238 81.1953 33.4238C82.9004 33.4238 84.3506 33.6172 85.5459 34.0039C86.7412 34.3906 87.708 34.9619 88.4463 35.7178C89.1846 36.4561 89.7207 37.3789 90.0547 38.4863C90.3887 39.5938 90.5557 40.8857 90.5557 42.3623V58.3672ZM86.2314 47.5303H82.5137C81.3184 47.5303 80.2812 47.6357 79.4023 47.8467C78.5234 48.04 77.7939 48.3389 77.2139 48.7432C76.6338 49.1299 76.2031 49.6045 75.9219 50.167C75.6582 50.7119 75.5264 51.3447 75.5264 52.0654C75.5264 53.2959 75.9131 54.2803 76.6865 55.0186C77.4775 55.7393 78.5762 56.0996 79.9824 56.0996C81.125 56.0996 82.1797 55.8096 83.1465 55.2295C84.1309 54.6494 85.1592 53.7617 86.2314 52.5664V47.5303ZM115.815 58.3408C115.815 58.4814 115.78 58.6045 115.71 58.71C115.64 58.7979 115.525 58.877 115.367 58.9473C115.209 59.0176 114.989 59.0703 114.708 59.1055C114.427 59.1406 114.075 59.1582 113.653 59.1582C113.231 59.1582 112.871 59.1406 112.572 59.1055C112.291 59.0703 112.062 59.0176 111.887 58.9473C111.729 58.877 111.614 58.7979 111.544 58.71C111.491 58.6045 111.465 58.4814 111.465 58.3408V48.7959C110.48 49.2354 109.435 49.5869 108.327 49.8506C107.237 50.0967 106.051 50.2197 104.768 50.2197C103.133 50.2197 101.771 50.0088 100.681 49.5869C99.5908 49.165 98.7207 48.585 98.0703 47.8467C97.4199 47.1084 96.9541 46.2295 96.6729 45.21C96.4092 44.1904 96.2773 42.9072 96.2773 41.3604V34.6104C96.2773 34.4697 96.3037 34.3555 96.3564 34.2676C96.4268 34.1621 96.5498 34.0742 96.7256 34.0039C96.9014 33.916 97.1211 33.8633 97.3848 33.8457C97.666 33.8105 98.0176 33.793 98.4395 33.793C98.8789 33.793 99.2393 33.8105 99.5205 33.8457C99.8018 33.8633 100.021 33.916 100.18 34.0039C100.338 34.0742 100.452 34.1621 100.522 34.2676C100.61 34.3555 100.654 34.4697 100.654 34.6104V40.6748C100.654 42.0986 100.76 43.1621 100.971 43.8652C101.182 44.5684 101.489 45.1309 101.894 45.5527C102.298 45.957 102.79 46.2471 103.37 46.4229C103.968 46.5811 104.662 46.6602 105.453 46.6602C106.49 46.6602 107.501 46.5283 108.485 46.2646C109.487 46.001 110.48 45.623 111.465 45.1309V34.6104C111.465 34.4697 111.491 34.3555 111.544 34.2676C111.614 34.1621 111.729 34.0742 111.887 34.0039C112.062 33.916 112.291 33.8633 112.572 33.8457C112.871 33.8105 113.231 33.793 113.653 33.793C114.075 33.793 114.427 33.8105 114.708 33.8457C114.989 33.8633 115.209 33.916 115.367 34.0039C115.525 34.0742 115.64 34.1621 115.71 34.2676C115.78 34.3555 115.815 34.4697 115.815 34.6104V58.3408ZM141.761 58.3672C141.761 58.5781 141.69 58.7363 141.55 58.8418C141.409 58.9473 141.216 59.0264 140.97 59.0791C140.724 59.1318 140.363 59.1582 139.889 59.1582C139.432 59.1582 139.062 59.1318 138.781 59.0791C138.518 59.0264 138.324 58.9473 138.201 58.8418C138.078 58.7363 138.017 58.5781 138.017 58.3672V55.9941C136.979 57.1016 135.819 57.9629 134.536 58.5781C133.271 59.1934 131.926 59.501 130.502 59.501C129.254 59.501 128.12 59.334 127.101 59C126.099 58.6836 125.237 58.2178 124.517 57.6025C123.813 56.9873 123.26 56.2314 122.855 55.335C122.469 54.4385 122.275 53.4189 122.275 52.2764C122.275 50.9404 122.548 49.7803 123.093 48.7959C123.638 47.8115 124.42 46.9941 125.439 46.3438C126.459 45.6934 127.707 45.21 129.184 44.8936C130.66 44.5596 132.321 44.3926 134.167 44.3926H137.437V42.5469C137.437 41.6328 137.34 40.8242 137.146 40.1211C136.953 39.418 136.637 38.8379 136.197 38.3809C135.775 37.9062 135.222 37.5547 134.536 37.3262C133.851 37.0801 133.007 36.957 132.005 36.957C130.933 36.957 129.966 37.0889 129.104 37.3525C128.261 37.5986 127.514 37.8799 126.863 38.1963C126.23 38.4951 125.694 38.7764 125.255 39.04C124.833 39.2861 124.517 39.4092 124.306 39.4092C124.165 39.4092 124.042 39.374 123.937 39.3037C123.831 39.2334 123.734 39.1279 123.646 38.9873C123.576 38.8467 123.523 38.6709 123.488 38.46C123.453 38.2314 123.436 37.9854 123.436 37.7217C123.436 37.2822 123.462 36.9395 123.515 36.6934C123.585 36.4297 123.734 36.1836 123.963 35.9551C124.209 35.7266 124.622 35.4629 125.202 35.1641C125.782 34.8477 126.45 34.5664 127.206 34.3203C127.962 34.0566 128.788 33.8457 129.685 33.6875C130.581 33.5117 131.486 33.4238 132.4 33.4238C134.105 33.4238 135.556 33.6172 136.751 34.0039C137.946 34.3906 138.913 34.9619 139.651 35.7178C140.39 36.4561 140.926 37.3789 141.26 38.4863C141.594 39.5938 141.761 40.8857 141.761 42.3623V58.3672ZM137.437 47.5303H133.719C132.523 47.5303 131.486 47.6357 130.607 47.8467C129.729 48.04 128.999 48.3389 128.419 48.7432C127.839 49.1299 127.408 49.6045 127.127 50.167C126.863 50.7119 126.731 51.3447 126.731 52.0654C126.731 53.2959 127.118 54.2803 127.892 55.0186C128.683 55.7393 129.781 56.0996 131.188 56.0996C132.33 56.0996 133.385 55.8096 134.352 55.2295C135.336 54.6494 136.364 53.7617 137.437 52.5664V47.5303ZM166.229 35.9023C166.229 36.2539 166.212 36.5527 166.177 36.7988C166.142 37.0449 166.08 37.2471 165.992 37.4053C165.922 37.5635 165.834 37.6865 165.729 37.7744C165.623 37.8447 165.491 37.8799 165.333 37.8799H158.214V58.3408C158.214 58.4814 158.179 58.6045 158.108 58.71C158.038 58.7979 157.924 58.877 157.766 58.9473C157.607 59.0176 157.388 59.0703 157.106 59.1055C156.825 59.1406 156.465 59.1582 156.025 59.1582C155.604 59.1582 155.252 59.1406 154.971 59.1055C154.689 59.0703 154.461 59.0176 154.285 58.9473C154.127 58.877 154.013 58.7979 153.942 58.71C153.89 58.6045 153.863 58.4814 153.863 58.3408V37.8799H146.744C146.604 37.8799 146.472 37.8447 146.349 37.7744C146.243 37.6865 146.155 37.5635 146.085 37.4053C146.015 37.2471 145.953 37.0449 145.9 36.7988C145.865 36.5352 145.848 36.2275 145.848 35.876C145.848 35.5596 145.865 35.2783 145.9 35.0322C145.953 34.7861 146.015 34.584 146.085 34.4258C146.173 34.25 146.27 34.127 146.375 34.0566C146.48 33.9688 146.604 33.9248 146.744 33.9248H165.333C165.474 33.9248 165.597 33.9688 165.702 34.0566C165.825 34.127 165.922 34.25 165.992 34.4258C166.062 34.584 166.115 34.7949 166.15 35.0586C166.203 35.3047 166.229 35.5859 166.229 35.9023ZM190.25 50.7998C190.25 52.0127 190.021 53.1465 189.564 54.2012C189.125 55.2559 188.431 56.1699 187.481 56.9434C186.532 57.7168 185.319 58.332 183.843 58.7891C182.366 59.2285 180.6 59.4482 178.543 59.4482C178.068 59.4482 177.576 59.4395 177.066 59.4219C176.557 59.4219 176.056 59.4043 175.563 59.3691C175.071 59.3516 174.588 59.3252 174.113 59.29C173.639 59.2549 173.173 59.2109 172.716 59.1582C171.978 59.0703 171.433 58.833 171.081 58.4463C170.729 58.0596 170.554 57.4707 170.554 56.6797V34.6104C170.554 34.4697 170.58 34.3555 170.633 34.2676C170.703 34.1621 170.817 34.0742 170.976 34.0039C171.151 33.916 171.38 33.8633 171.661 33.8457C171.942 33.8105 172.294 33.793 172.716 33.793C173.138 33.793 173.489 33.8105 173.771 33.8457C174.052 33.8633 174.271 33.916 174.43 34.0039C174.605 34.0742 174.729 34.1621 174.799 34.2676C174.869 34.3555 174.904 34.4697 174.904 34.6104V42.9688C175.555 42.916 176.258 42.8809 177.014 42.8633C177.77 42.8281 178.543 42.8105 179.334 42.8105C181.25 42.8105 182.894 43.0039 184.265 43.3906C185.653 43.7598 186.787 44.2959 187.666 44.999C188.545 45.7021 189.195 46.5459 189.617 47.5303C190.039 48.4971 190.25 49.5869 190.25 50.7998ZM185.662 51.0898C185.662 50.3691 185.548 49.7188 185.319 49.1387C185.091 48.541 184.713 48.04 184.186 47.6357C183.658 47.2139 182.973 46.8975 182.129 46.6865C181.285 46.458 180.248 46.3438 179.018 46.3438C178.279 46.3438 177.55 46.3613 176.829 46.3965C176.126 46.4316 175.484 46.4756 174.904 46.5283V55.6514C175.52 55.7217 176.179 55.7832 176.882 55.8359C177.585 55.8887 178.367 55.915 179.229 55.915C181.408 55.915 183.025 55.4932 184.08 54.6494C185.135 53.7881 185.662 52.6016 185.662 51.0898Z" fill="white"/>
</svg>
