<svg width="354" height="79" viewBox="0 0 354 79" fill="none" xmlns="http://www.w3.org/2000/svg">
<path d="M347.059 9.91301C347.059 7.70387 345.268 5.91301 343.059 5.91301H36C16.1178 5.91301 -1.52588e-05 22.0308 -1.52588e-05 41.913V74.84C-1.52588e-05 77.0491 1.79085 78.84 3.99998 78.84H342.059C344.82 78.84 347.059 76.6014 347.059 73.84V9.91301Z" fill="#C5C5C5"/>
<path d="M343.059 6.41301H36C16.3939 6.41301 0.499985 22.3069 0.499985 41.913V74.84C0.499985 76.773 2.067 78.34 3.99998 78.34H342.059C344.544 78.34 346.559 76.3253 346.559 73.84V9.91301C346.559 7.98001 344.992 6.41301 343.059 6.41301Z" stroke="black" stroke-opacity="0.24"/>
<path d="M350 0.5H49.8824C30.2763 0.5 14.3824 16.3939 14.3824 36V66.956C14.3824 68.889 15.9494 70.456 17.8824 70.456H349C351.485 70.456 353.5 68.4413 353.5 65.956V4C353.5 2.067 351.933 0.5 350 0.5Z" fill="#EB4D4D" stroke="black"/>
<path d="M108.504 48.5117C108.504 48.6159 108.478 48.707 108.426 48.7852C108.374 48.8503 108.283 48.9089 108.152 48.9609C108.022 49.013 107.846 49.0521 107.625 49.0781C107.417 49.1042 107.15 49.1172 106.824 49.1172C106.512 49.1172 106.245 49.1042 106.023 49.0781C105.802 49.0521 105.626 49.013 105.496 48.9609C105.379 48.9089 105.288 48.8503 105.223 48.7852C105.171 48.707 105.145 48.6159 105.145 48.5117V26.6367H93.7188V48.5117C93.7188 48.6159 93.6862 48.707 93.6211 48.7852C93.569 48.8503 93.4779 48.9089 93.3477 48.9609C93.2305 49.013 93.0612 49.0521 92.8398 49.0781C92.6315 49.1042 92.3646 49.1172 92.0391 49.1172C91.7135 49.1172 91.4401 49.1042 91.2188 49.0781C91.0104 49.0521 90.8411 49.013 90.7109 48.9609C90.5807 48.9089 90.4896 48.8503 90.4375 48.7852C90.3854 48.707 90.3594 48.6159 90.3594 48.5117V25.0938C90.3594 24.638 90.4701 24.2995 90.6914 24.0781C90.9258 23.8438 91.2188 23.7266 91.5703 23.7266H107.332C107.697 23.7266 107.983 23.8438 108.191 24.0781C108.4 24.2995 108.504 24.638 108.504 25.0938V48.5117ZM131.043 39.4492C131.043 40.9857 130.874 42.3659 130.535 43.5898C130.21 44.8138 129.721 45.8555 129.07 46.7148C128.432 47.5612 127.638 48.2188 126.688 48.6875C125.737 49.1432 124.65 49.3711 123.426 49.3711C122.905 49.3711 122.423 49.319 121.98 49.2148C121.538 49.1107 121.102 48.9479 120.672 48.7266C120.255 48.5052 119.839 48.2253 119.422 47.8867C119.005 47.5482 118.562 47.151 118.094 46.6953V55.4844C118.094 55.5885 118.068 55.6797 118.016 55.7578C117.964 55.8359 117.879 55.901 117.762 55.9531C117.645 56.0052 117.482 56.0443 117.273 56.0703C117.065 56.0964 116.798 56.1094 116.473 56.1094C116.16 56.1094 115.9 56.0964 115.691 56.0703C115.483 56.0443 115.314 56.0052 115.184 55.9531C115.066 55.901 114.982 55.8359 114.93 55.7578C114.891 55.6797 114.871 55.5885 114.871 55.4844V30.9336C114.871 30.8164 114.891 30.7253 114.93 30.6602C114.969 30.582 115.047 30.5169 115.164 30.4648C115.281 30.4128 115.431 30.3802 115.613 30.3672C115.796 30.3411 116.017 30.3281 116.277 30.3281C116.551 30.3281 116.772 30.3411 116.941 30.3672C117.124 30.3802 117.273 30.4128 117.391 30.4648C117.508 30.5169 117.586 30.582 117.625 30.6602C117.677 30.7253 117.703 30.8164 117.703 30.9336V33.2969C118.237 32.75 118.751 32.2747 119.246 31.8711C119.741 31.4674 120.236 31.1354 120.73 30.875C121.238 30.6016 121.753 30.3997 122.273 30.2695C122.807 30.1263 123.367 30.0547 123.953 30.0547C125.229 30.0547 126.316 30.3021 127.215 30.7969C128.113 31.2917 128.842 31.9688 129.402 32.8281C129.975 33.6875 130.392 34.6901 130.652 35.8359C130.913 36.9688 131.043 38.1732 131.043 39.4492ZM127.645 39.8203C127.645 38.9219 127.573 38.056 127.43 37.2227C127.299 36.3763 127.065 35.6276 126.727 34.9766C126.401 34.3255 125.958 33.8047 125.398 33.4141C124.839 33.0234 124.142 32.8281 123.309 32.8281C122.892 32.8281 122.482 32.8932 122.078 33.0234C121.674 33.1406 121.264 33.3359 120.848 33.6094C120.431 33.8698 119.995 34.2214 119.539 34.6641C119.083 35.0938 118.602 35.6276 118.094 36.2656V43.2578C118.979 44.3385 119.819 45.1654 120.613 45.7383C121.408 46.3112 122.241 46.5977 123.113 46.5977C123.921 46.5977 124.611 46.4023 125.184 46.0117C125.77 45.6211 126.238 45.1003 126.59 44.4492C126.954 43.7982 127.221 43.069 127.391 42.2617C127.56 41.4544 127.645 40.6406 127.645 39.8203ZM151.531 48.5312C151.531 48.6224 151.505 48.707 151.453 48.7852C151.401 48.8633 151.316 48.9284 151.199 48.9805C151.082 49.0195 150.919 49.0521 150.711 49.0781C150.503 49.1042 150.242 49.1172 149.93 49.1172C149.617 49.1172 149.357 49.1042 149.148 49.0781C148.94 49.0521 148.771 49.0195 148.641 48.9805C148.51 48.9284 148.419 48.8633 148.367 48.7852C148.315 48.707 148.289 48.6224 148.289 48.5312V38.4141C148.289 37.9062 148.302 37.3919 148.328 36.8711C148.354 36.3372 148.387 35.8164 148.426 35.3086C148.126 35.8294 147.794 36.3438 147.43 36.8516C147.078 37.3464 146.72 37.8411 146.355 38.3359L138.895 48.5312C138.803 48.6354 138.719 48.7266 138.641 48.8047C138.576 48.8828 138.484 48.9479 138.367 49C138.263 49.0391 138.126 49.0651 137.957 49.0781C137.788 49.1042 137.579 49.1172 137.332 49.1172C137.046 49.1172 136.811 49.1042 136.629 49.0781C136.447 49.0521 136.297 49.0195 136.18 48.9805C136.076 48.9284 135.997 48.8633 135.945 48.7852C135.906 48.707 135.887 48.6224 135.887 48.5312V30.9141C135.887 30.8229 135.906 30.7383 135.945 30.6602C135.997 30.582 136.082 30.5169 136.199 30.4648C136.329 30.4128 136.499 30.3802 136.707 30.3672C136.915 30.3411 137.169 30.3281 137.469 30.3281C138.094 30.3281 138.523 30.3802 138.758 30.4844C138.992 30.5755 139.109 30.7188 139.109 30.9141V41.0898C139.109 41.5977 139.096 42.1055 139.07 42.6133C139.044 43.1081 139.012 43.6029 138.973 44.0977C139.272 43.6029 139.572 43.1211 139.871 42.6523C140.184 42.1706 140.516 41.7018 140.867 41.2461L148.426 30.9141C148.504 30.8099 148.582 30.7188 148.66 30.6406C148.751 30.5625 148.855 30.5039 148.973 30.4648C149.103 30.4128 149.253 30.3802 149.422 30.3672C149.591 30.3411 149.812 30.3281 150.086 30.3281C150.359 30.3281 150.587 30.3411 150.77 30.3672C150.965 30.3802 151.115 30.4128 151.219 30.4648C151.336 30.5169 151.414 30.582 151.453 30.6602C151.505 30.7383 151.531 30.8294 151.531 30.9336V48.5312ZM179.715 48.3359C179.728 48.6224 179.637 48.8242 179.441 48.9414C179.246 49.0586 178.849 49.1172 178.25 49.1172C177.924 49.1172 177.658 49.1107 177.449 49.0977C177.241 49.0846 177.078 49.0586 176.961 49.0195C176.844 48.9805 176.759 48.9284 176.707 48.8633C176.668 48.7852 176.642 48.6875 176.629 48.5703L175.359 38.3164C175.32 37.9518 175.281 37.5612 175.242 37.1445C175.203 36.7279 175.164 36.3047 175.125 35.875C175.086 35.4453 175.047 35.0156 175.008 34.5859C174.982 34.1562 174.949 33.7526 174.91 33.375L174.891 32.9258C174.773 33.3034 174.65 33.7005 174.52 34.1172C174.389 34.5339 174.246 34.957 174.09 35.3867C173.947 35.8164 173.803 36.2461 173.66 36.6758C173.53 37.1055 173.406 37.5091 173.289 37.8867L169.598 48.2969C169.546 48.4531 169.48 48.5833 169.402 48.6875C169.337 48.7917 169.24 48.8763 169.109 48.9414C168.992 49.0065 168.836 49.0521 168.641 49.0781C168.458 49.1042 168.23 49.1172 167.957 49.1172C167.684 49.1172 167.456 49.1042 167.273 49.0781C167.091 49.0521 166.935 49.013 166.805 48.9609C166.688 48.8958 166.59 48.8112 166.512 48.707C166.434 48.6029 166.368 48.4727 166.316 48.3164L162.762 37.8867C162.632 37.5221 162.495 37.1315 162.352 36.7148C162.221 36.2982 162.085 35.875 161.941 35.4453C161.811 35.0026 161.681 34.5664 161.551 34.1367C161.421 33.707 161.31 33.3034 161.219 32.9258L161.199 33.375C161.16 33.7526 161.121 34.1562 161.082 34.5859C161.043 35.0156 160.997 35.4453 160.945 35.875C160.906 36.3047 160.861 36.7279 160.809 37.1445C160.77 37.5612 160.737 37.9518 160.711 38.3164L159.5 48.3945C159.487 48.5508 159.454 48.681 159.402 48.7852C159.363 48.8763 159.279 48.9479 159.148 49C159.018 49.0391 158.849 49.0651 158.641 49.0781C158.432 49.1042 158.159 49.1172 157.82 49.1172C157.495 49.1172 157.234 49.1042 157.039 49.0781C156.857 49.0521 156.714 49.0065 156.609 48.9414C156.518 48.8763 156.46 48.7982 156.434 48.707C156.408 48.6029 156.408 48.4792 156.434 48.3359L158.367 31.6953C158.432 31.2786 158.576 30.9661 158.797 30.7578C159.031 30.5365 159.376 30.4258 159.832 30.4258H161.375C161.753 30.4258 162.072 30.4583 162.332 30.5234C162.605 30.5755 162.833 30.6732 163.016 30.8164C163.211 30.9596 163.374 31.1549 163.504 31.4023C163.634 31.6367 163.758 31.9362 163.875 32.3008L166.473 39.7812C166.616 40.237 166.766 40.6992 166.922 41.168C167.078 41.6237 167.221 42.0794 167.352 42.5352C167.495 42.9779 167.625 43.4141 167.742 43.8438C167.872 44.2734 167.99 44.6836 168.094 45.0742H168.133C168.25 44.6706 168.367 44.2474 168.484 43.8047C168.615 43.349 168.751 42.8932 168.895 42.4375C169.038 41.9688 169.181 41.5065 169.324 41.0508C169.48 40.5951 169.63 40.1589 169.773 39.7422L172.371 32.3008C172.475 31.9753 172.586 31.6953 172.703 31.4609C172.833 31.2135 172.99 31.0182 173.172 30.875C173.354 30.7188 173.569 30.6081 173.816 30.543C174.077 30.4648 174.389 30.4258 174.754 30.4258H176.277C176.746 30.4258 177.098 30.5234 177.332 30.7188C177.579 30.9141 177.723 31.2266 177.762 31.6562L179.715 48.3359ZM199.598 38.9609C199.598 39.4688 199.467 39.8333 199.207 40.0547C198.96 40.263 198.673 40.3672 198.348 40.3672H186.824C186.824 41.3438 186.922 42.2227 187.117 43.0039C187.312 43.7852 187.638 44.4557 188.094 45.0156C188.549 45.5755 189.142 46.0052 189.871 46.3047C190.6 46.6042 191.492 46.7539 192.547 46.7539C193.38 46.7539 194.122 46.6888 194.773 46.5586C195.424 46.4154 195.984 46.2591 196.453 46.0898C196.935 45.9206 197.326 45.7708 197.625 45.6406C197.938 45.4974 198.172 45.4258 198.328 45.4258C198.419 45.4258 198.497 45.4518 198.562 45.5039C198.641 45.543 198.699 45.6081 198.738 45.6992C198.777 45.7904 198.803 45.9206 198.816 46.0898C198.842 46.2461 198.855 46.4414 198.855 46.6758C198.855 46.8451 198.849 46.9948 198.836 47.125C198.823 47.2422 198.803 47.3529 198.777 47.457C198.764 47.5482 198.732 47.6328 198.68 47.7109C198.641 47.7891 198.582 47.8672 198.504 47.9453C198.439 48.0104 198.23 48.1276 197.879 48.2969C197.527 48.4531 197.072 48.6094 196.512 48.7656C195.952 48.9219 195.301 49.0586 194.559 49.1758C193.829 49.306 193.048 49.3711 192.215 49.3711C190.77 49.3711 189.5 49.1693 188.406 48.7656C187.326 48.362 186.414 47.763 185.672 46.9688C184.93 46.1745 184.37 45.1784 183.992 43.9805C183.615 42.7826 183.426 41.3893 183.426 39.8008C183.426 38.2904 183.621 36.9362 184.012 35.7383C184.402 34.5273 184.962 33.5052 185.691 32.6719C186.434 31.8255 187.326 31.181 188.367 30.7383C189.409 30.2826 190.574 30.0547 191.863 30.0547C193.243 30.0547 194.415 30.276 195.379 30.7188C196.355 31.1615 197.156 31.7604 197.781 32.5156C198.406 33.2578 198.862 34.1367 199.148 35.1523C199.448 36.1549 199.598 37.2292 199.598 38.375V38.9609ZM196.355 38.0039C196.395 36.3112 196.017 34.9831 195.223 34.0195C194.441 33.056 193.276 32.5742 191.727 32.5742C190.932 32.5742 190.236 32.724 189.637 33.0234C189.038 33.3229 188.536 33.7201 188.133 34.2148C187.729 34.7096 187.417 35.2891 187.195 35.9531C186.974 36.6042 186.85 37.2878 186.824 38.0039H196.355ZM219.93 48.5117C219.93 48.6159 219.904 48.707 219.852 48.7852C219.799 48.8503 219.715 48.9089 219.598 48.9609C219.48 49.013 219.318 49.0521 219.109 49.0781C218.901 49.1042 218.641 49.1172 218.328 49.1172C218.003 49.1172 217.736 49.1042 217.527 49.0781C217.319 49.0521 217.156 49.013 217.039 48.9609C216.922 48.9089 216.837 48.8503 216.785 48.7852C216.733 48.707 216.707 48.6159 216.707 48.5117V40.7969H207.742V48.5117C207.742 48.6159 207.716 48.707 207.664 48.7852C207.612 48.8503 207.527 48.9089 207.41 48.9609C207.293 49.013 207.13 49.0521 206.922 49.0781C206.714 49.1042 206.447 49.1172 206.121 49.1172C205.809 49.1172 205.548 49.1042 205.34 49.0781C205.132 49.0521 204.962 49.013 204.832 48.9609C204.715 48.9089 204.63 48.8503 204.578 48.7852C204.539 48.707 204.52 48.6159 204.52 48.5117V30.9336C204.52 30.8294 204.539 30.7448 204.578 30.6797C204.63 30.6016 204.715 30.5365 204.832 30.4844C204.962 30.4193 205.132 30.3802 205.34 30.3672C205.548 30.3411 205.809 30.3281 206.121 30.3281C206.447 30.3281 206.714 30.3411 206.922 30.3672C207.13 30.3802 207.293 30.4193 207.41 30.4844C207.527 30.5365 207.612 30.6016 207.664 30.6797C207.716 30.7448 207.742 30.8294 207.742 30.9336V38.082H216.707V30.9336C216.707 30.8294 216.733 30.7448 216.785 30.6797C216.837 30.6016 216.922 30.5365 217.039 30.4844C217.156 30.4193 217.319 30.3802 217.527 30.3672C217.736 30.3411 218.003 30.3281 218.328 30.3281C218.641 30.3281 218.901 30.3411 219.109 30.3672C219.318 30.3802 219.48 30.4193 219.598 30.4844C219.715 30.5365 219.799 30.6016 219.852 30.6797C219.904 30.7448 219.93 30.8294 219.93 30.9336V48.5117ZM241.57 48.5312C241.57 48.6224 241.544 48.707 241.492 48.7852C241.44 48.8633 241.355 48.9284 241.238 48.9805C241.121 49.0195 240.958 49.0521 240.75 49.0781C240.542 49.1042 240.281 49.1172 239.969 49.1172C239.656 49.1172 239.396 49.1042 239.188 49.0781C238.979 49.0521 238.81 49.0195 238.68 48.9805C238.549 48.9284 238.458 48.8633 238.406 48.7852C238.354 48.707 238.328 48.6224 238.328 48.5312V38.4141C238.328 37.9062 238.341 37.3919 238.367 36.8711C238.393 36.3372 238.426 35.8164 238.465 35.3086C238.165 35.8294 237.833 36.3438 237.469 36.8516C237.117 37.3464 236.759 37.8411 236.395 38.3359L228.934 48.5312C228.842 48.6354 228.758 48.7266 228.68 48.8047C228.615 48.8828 228.523 48.9479 228.406 49C228.302 49.0391 228.165 49.0651 227.996 49.0781C227.827 49.1042 227.618 49.1172 227.371 49.1172C227.085 49.1172 226.85 49.1042 226.668 49.0781C226.486 49.0521 226.336 49.0195 226.219 48.9805C226.115 48.9284 226.036 48.8633 225.984 48.7852C225.945 48.707 225.926 48.6224 225.926 48.5312V30.9141C225.926 30.8229 225.945 30.7383 225.984 30.6602C226.036 30.582 226.121 30.5169 226.238 30.4648C226.368 30.4128 226.538 30.3802 226.746 30.3672C226.954 30.3411 227.208 30.3281 227.508 30.3281C228.133 30.3281 228.562 30.3802 228.797 30.4844C229.031 30.5755 229.148 30.7188 229.148 30.9141V41.0898C229.148 41.5977 229.135 42.1055 229.109 42.6133C229.083 43.1081 229.051 43.6029 229.012 44.0977C229.311 43.6029 229.611 43.1211 229.91 42.6523C230.223 42.1706 230.555 41.7018 230.906 41.2461L238.465 30.9141C238.543 30.8099 238.621 30.7188 238.699 30.6406C238.79 30.5625 238.895 30.5039 239.012 30.4648C239.142 30.4128 239.292 30.3802 239.461 30.3672C239.63 30.3411 239.852 30.3281 240.125 30.3281C240.398 30.3281 240.626 30.3411 240.809 30.3672C241.004 30.3802 241.154 30.4128 241.258 30.4648C241.375 30.5169 241.453 30.582 241.492 30.6602C241.544 30.7383 241.57 30.8294 241.57 30.9336V48.5312ZM259.871 31.8906C259.871 32.151 259.858 32.3724 259.832 32.5547C259.806 32.737 259.76 32.8867 259.695 33.0039C259.643 33.1211 259.578 33.2122 259.5 33.2773C259.422 33.3294 259.324 33.3555 259.207 33.3555H253.934V48.5117C253.934 48.6159 253.908 48.707 253.855 48.7852C253.803 48.8503 253.719 48.9089 253.602 48.9609C253.484 49.013 253.322 49.0521 253.113 49.0781C252.905 49.1042 252.638 49.1172 252.312 49.1172C252 49.1172 251.74 49.1042 251.531 49.0781C251.323 49.0521 251.154 49.013 251.023 48.9609C250.906 48.9089 250.822 48.8503 250.77 48.7852C250.73 48.707 250.711 48.6159 250.711 48.5117V33.3555H245.438C245.333 33.3555 245.236 33.3294 245.145 33.2773C245.066 33.2122 245.001 33.1211 244.949 33.0039C244.897 32.8867 244.852 32.737 244.812 32.5547C244.786 32.3594 244.773 32.1315 244.773 31.8711C244.773 31.6367 244.786 31.4284 244.812 31.2461C244.852 31.0638 244.897 30.9141 244.949 30.7969C245.014 30.6667 245.086 30.5755 245.164 30.5234C245.242 30.4583 245.333 30.4258 245.438 30.4258H259.207C259.311 30.4258 259.402 30.4583 259.48 30.5234C259.572 30.5755 259.643 30.6667 259.695 30.7969C259.747 30.9141 259.786 31.0703 259.812 31.2656C259.852 31.4479 259.871 31.6562 259.871 31.8906ZM277.664 42.9258C277.664 43.8242 277.495 44.6641 277.156 45.4453C276.831 46.2266 276.316 46.9036 275.613 47.4766C274.91 48.0495 274.012 48.5052 272.918 48.8438C271.824 49.1693 270.516 49.332 268.992 49.332C268.641 49.332 268.276 49.3255 267.898 49.3125C267.521 49.3125 267.15 49.2995 266.785 49.2734C266.421 49.2604 266.062 49.2409 265.711 49.2148C265.359 49.1888 265.014 49.1562 264.676 49.1172C264.129 49.0521 263.725 48.8763 263.465 48.5898C263.204 48.3034 263.074 47.8672 263.074 47.2812V30.9336C263.074 30.8294 263.094 30.7448 263.133 30.6797C263.185 30.6016 263.27 30.5365 263.387 30.4844C263.517 30.4193 263.686 30.3802 263.895 30.3672C264.103 30.3411 264.363 30.3281 264.676 30.3281C264.988 30.3281 265.249 30.3411 265.457 30.3672C265.665 30.3802 265.828 30.4193 265.945 30.4844C266.076 30.5365 266.167 30.6016 266.219 30.6797C266.271 30.7448 266.297 30.8294 266.297 30.9336V37.125C266.779 37.0859 267.299 37.0599 267.859 37.0469C268.419 37.0208 268.992 37.0078 269.578 37.0078C270.997 37.0078 272.215 37.151 273.23 37.4375C274.259 37.7109 275.099 38.1081 275.75 38.6289C276.401 39.1497 276.883 39.7747 277.195 40.5039C277.508 41.2201 277.664 42.0273 277.664 42.9258ZM274.266 43.1406C274.266 42.6068 274.181 42.125 274.012 41.6953C273.842 41.2526 273.562 40.8815 273.172 40.582C272.781 40.2695 272.273 40.0352 271.648 39.8789C271.023 39.7096 270.255 39.625 269.344 39.625C268.797 39.625 268.257 39.638 267.723 39.6641C267.202 39.6901 266.727 39.7227 266.297 39.7617V46.5195C266.753 46.5716 267.241 46.6172 267.762 46.6562C268.283 46.6953 268.862 46.7148 269.5 46.7148C271.115 46.7148 272.312 46.4023 273.094 45.7773C273.875 45.1393 274.266 44.2604 274.266 43.1406Z" fill="white"/>
</svg>
