<svg width="167" height="59" viewBox="0 0 167 59" fill="none" xmlns="http://www.w3.org/2000/svg">
<path d="M163.461 8.41301C163.461 6.20387 161.67 4.41301 159.461 4.41301H36C16.1177 4.41301 -1.90735e-06 20.5308 -1.90735e-06 40.413V54.84C-1.90735e-06 57.0491 1.79086 58.84 4 58.84H158.461C161.222 58.84 163.461 56.6014 163.461 53.84V8.41301Z" fill="#C5C5C5"/>
<path d="M159.461 4.91301H36C16.3939 4.91301 0.499998 20.8069 0.499998 40.413V54.84C0.499998 56.773 2.067 58.34 4 58.34H158.461C160.946 58.34 162.961 56.3253 162.961 53.84V8.41301C162.961 6.48001 161.394 4.91301 159.461 4.91301Z" stroke="black" stroke-opacity="0.24"/>
<path d="M162.73 0.5H42.5385C22.9324 0.5 7.03844 16.3939 7.03844 36V48.956C7.03844 50.889 8.60544 52.456 10.5384 52.456H161.73C164.215 52.456 166.23 50.4413 166.23 47.956V4C166.23 2.067 164.663 0.5 162.73 0.5Z" fill="#EB4D4D" stroke="black"/>
<path d="M85.8828 44.1523C85.8828 44.2565 85.8633 44.3411 85.8242 44.4062C85.7852 44.4714 85.707 44.5234 85.5898 44.5625C85.4857 44.6016 85.3424 44.6341 85.1602 44.6602C84.9779 44.6862 84.7305 44.6992 84.418 44.6992C84.1576 44.6992 83.9362 44.6862 83.7539 44.6602C83.5716 44.6341 83.4219 44.6016 83.3047 44.5625C83.2005 44.5234 83.1224 44.4714 83.0703 44.4062C83.0312 44.3411 83.0117 44.2565 83.0117 44.1523V38H63.9883V44.1523C63.9883 44.2565 63.9622 44.3411 63.9102 44.4062C63.8711 44.4714 63.793 44.5234 63.6758 44.5625C63.5716 44.6016 63.4284 44.6341 63.2461 44.6602C63.0638 44.6862 62.8359 44.6992 62.5625 44.6992C62.263 44.6992 62.0221 44.6862 61.8398 44.6602C61.6576 44.6341 61.5078 44.6016 61.3906 44.5625C61.2865 44.5234 61.2083 44.4714 61.1562 44.4062C61.1172 44.3411 61.0977 44.2565 61.0977 44.1523V36.125C61.0716 35.7865 61.1237 35.5391 61.2539 35.3828C61.3841 35.2266 61.5859 35.1484 61.8594 35.1484H63.3242C63.6888 34.6797 64.0273 34.2044 64.3398 33.7227C64.6523 33.2279 64.9518 32.6484 65.2383 31.9844C65.5247 31.3203 65.8047 30.513 66.0781 29.5625C66.3516 28.612 66.6185 27.4401 66.8789 26.0469C67.1523 24.6406 67.4258 22.9674 67.6992 21.0273C67.9727 19.0872 68.2591 16.7826 68.5586 14.1133C68.6367 13.6445 68.7669 13.2995 68.9492 13.0781C69.1445 12.8438 69.418 12.7266 69.7695 12.7266H81.4297C81.7812 12.7266 82.0612 12.8438 82.2695 13.0781C82.4909 13.2995 82.6016 13.638 82.6016 14.0938V35.1484H85.1211C85.3945 35.1484 85.5898 35.2331 85.707 35.4023C85.8242 35.5586 85.8828 35.806 85.8828 36.1445V44.1523ZM79.2422 15.5977H71.7422C71.4688 18.0065 71.1953 20.1094 70.9219 21.9062C70.6615 23.7031 70.401 25.2656 70.1406 26.5938C69.8932 27.9219 69.6393 29.0482 69.3789 29.9727C69.1185 30.8841 68.8516 31.6654 68.5781 32.3164C68.3177 32.9544 68.0443 33.4948 67.7578 33.9375C67.4844 34.3802 67.1979 34.7839 66.8984 35.1484H79.2422V15.5977ZM103.012 37.5312C103.012 37.6875 102.96 37.8047 102.855 37.8828C102.751 37.9609 102.608 38.0195 102.426 38.0586C102.243 38.0977 101.977 38.1172 101.625 38.1172C101.286 38.1172 101.013 38.0977 100.805 38.0586C100.609 38.0195 100.466 37.9609 100.375 37.8828C100.284 37.8047 100.238 37.6875 100.238 37.5312V35.7734C99.4701 36.5938 98.6107 37.2318 97.6602 37.6875C96.7227 38.1432 95.7266 38.3711 94.6719 38.3711C93.7474 38.3711 92.9076 38.2474 92.1523 38C91.4102 37.7656 90.7721 37.4206 90.2383 36.9648C89.7174 36.5091 89.3073 35.9492 89.0078 35.2852C88.7214 34.6211 88.5781 33.8659 88.5781 33.0195C88.5781 32.0299 88.7799 31.1706 89.1836 30.4414C89.5872 29.7122 90.1667 29.1068 90.9219 28.625C91.6771 28.1432 92.6016 27.7852 93.6953 27.5508C94.7891 27.3034 96.0195 27.1797 97.3867 27.1797H99.8086V25.8125C99.8086 25.1354 99.737 24.5365 99.5938 24.0156C99.4505 23.4948 99.2161 23.0651 98.8906 22.7266C98.5781 22.375 98.168 22.1146 97.6602 21.9453C97.1523 21.763 96.5273 21.6719 95.7852 21.6719C94.9909 21.6719 94.2747 21.7695 93.6367 21.9648C93.0117 22.1471 92.4583 22.3555 91.9766 22.5898C91.5078 22.8112 91.1107 23.0195 90.7852 23.2148C90.4727 23.3971 90.2383 23.4883 90.082 23.4883C89.9779 23.4883 89.8867 23.4622 89.8086 23.4102C89.7305 23.3581 89.6589 23.2799 89.5938 23.1758C89.5417 23.0716 89.5026 22.9414 89.4766 22.7852C89.4505 22.6159 89.4375 22.4336 89.4375 22.2383C89.4375 21.9128 89.457 21.6589 89.4961 21.4766C89.5482 21.2812 89.6589 21.099 89.8281 20.9297C90.0104 20.7604 90.3164 20.5651 90.7461 20.3438C91.1758 20.1094 91.6706 19.901 92.2305 19.7188C92.7904 19.5234 93.4023 19.3672 94.0664 19.25C94.7305 19.1198 95.401 19.0547 96.0781 19.0547C97.3411 19.0547 98.4154 19.1979 99.3008 19.4844C100.186 19.7708 100.902 20.194 101.449 20.7539C101.996 21.3008 102.393 21.9844 102.641 22.8047C102.888 23.625 103.012 24.582 103.012 25.6758V37.5312ZM99.8086 29.5039H97.0547C96.1693 29.5039 95.401 29.582 94.75 29.7383C94.099 29.8815 93.5586 30.1029 93.1289 30.4023C92.6992 30.6888 92.3802 31.0404 92.1719 31.457C91.9766 31.8607 91.8789 32.3294 91.8789 32.8633C91.8789 33.7747 92.1654 34.5039 92.7383 35.0508C93.3242 35.5846 94.138 35.8516 95.1797 35.8516C96.026 35.8516 96.8073 35.6367 97.5234 35.207C98.2526 34.7773 99.0143 34.1198 99.8086 33.2344V29.5039ZM114.652 30.7148C114.652 30.819 114.626 30.9102 114.574 30.9883C114.535 31.0664 114.457 31.1315 114.34 31.1836C114.223 31.2357 114.073 31.2747 113.891 31.3008C113.708 31.3268 113.48 31.3398 113.207 31.3398C112.934 31.3398 112.706 31.3268 112.523 31.3008C112.341 31.2747 112.191 31.2357 112.074 31.1836C111.957 31.1315 111.872 31.0664 111.82 30.9883C111.781 30.9102 111.762 30.819 111.762 30.7148L111.43 12.082C111.417 11.9258 111.436 11.7891 111.488 11.6719C111.54 11.5547 111.632 11.457 111.762 11.3789C111.905 11.3008 112.087 11.2487 112.309 11.2227C112.543 11.1836 112.842 11.1641 113.207 11.1641C113.559 11.1641 113.845 11.1836 114.066 11.2227C114.301 11.2617 114.483 11.3203 114.613 11.3984C114.757 11.4766 114.854 11.5742 114.906 11.6914C114.958 11.7956 114.984 11.9258 114.984 12.082L114.652 30.7148ZM115.258 35.9688C115.258 36.3984 115.225 36.7565 115.16 37.043C115.108 37.3164 114.997 37.5443 114.828 37.7266C114.672 37.8958 114.464 38.013 114.203 38.0781C113.943 38.1562 113.611 38.1953 113.207 38.1953C112.803 38.1953 112.465 38.1562 112.191 38.0781C111.931 38.013 111.723 37.8958 111.566 37.7266C111.41 37.5443 111.299 37.3164 111.234 37.043C111.182 36.7565 111.156 36.3984 111.156 35.9688C111.156 35.5391 111.182 35.181 111.234 34.8945C111.299 34.5951 111.41 34.3672 111.566 34.2109C111.723 34.0417 111.931 33.9245 112.191 33.8594C112.465 33.7812 112.803 33.7422 113.207 33.7422C113.611 33.7422 113.943 33.7812 114.203 33.8594C114.464 33.9245 114.672 34.0417 114.828 34.2109C114.997 34.3672 115.108 34.5951 115.16 34.8945C115.225 35.181 115.258 35.5391 115.258 35.9688Z" fill="white"/>
</svg>
