<svg width="267" height="41" viewBox="0 0 267 41" fill="none" xmlns="http://www.w3.org/2000/svg">
<g filter="url(#filter0_d)">
<path d="M21.0389 2.98236C22.3491 1.11306 24.4884 0 26.7711 0H252.861C258.655 0 261.941 6.63644 258.428 11.2439L243.943 30.2439C242.619 31.9807 240.56 33 238.376 33H13.4543C7.78928 33 4.47064 26.6214 7.72209 21.9824L21.0389 2.98236Z" fill="#F1F1F1"/>
<path d="M30.305 11.346C31.517 11.346 32.477 11.544 33.185 11.94C33.905 12.336 34.421 13.008 34.733 13.956C35.045 14.892 35.201 16.17 35.201 17.79C35.201 19.41 35.045 20.688 34.733 21.624C34.421 22.56 33.905 23.232 33.185 23.64C32.477 24.036 31.517 24.234 30.305 24.234C29.105 24.234 28.145 24.036 27.425 23.64C26.705 23.232 26.183 22.56 25.859 21.624C25.547 20.688 25.391 19.41 25.391 17.79C25.391 16.17 25.547 14.892 25.859 13.956C26.183 13.008 26.705 12.336 27.425 11.94C28.145 11.544 29.105 11.346 30.305 11.346ZM30.305 12.768C29.489 12.768 28.841 12.924 28.361 13.236C27.893 13.548 27.557 14.07 27.353 14.802C27.161 15.522 27.065 16.518 27.065 17.79C27.065 19.05 27.161 20.046 27.353 20.778C27.557 21.51 27.893 22.032 28.361 22.344C28.841 22.656 29.489 22.812 30.305 22.812C31.121 22.812 31.763 22.656 32.231 22.344C32.711 22.032 33.047 21.51 33.239 20.778C33.443 20.046 33.545 19.05 33.545 17.79C33.545 16.518 33.443 15.522 33.239 14.802C33.047 14.07 32.711 13.548 32.231 13.236C31.763 12.924 31.121 12.768 30.305 12.768ZM41.4297 15.018C41.8257 15.018 42.2877 15.048 42.8157 15.108C43.3437 15.156 43.8237 15.264 44.2557 15.432L44.0577 16.422C43.6617 16.386 43.2417 16.362 42.7977 16.35C42.3657 16.326 41.9937 16.314 41.6817 16.314C40.9977 16.314 40.4457 16.41 40.0257 16.602C39.6177 16.794 39.3237 17.13 39.1437 17.61C38.9637 18.09 38.8737 18.756 38.8737 19.608C38.8737 20.46 38.9637 21.132 39.1437 21.624C39.3237 22.104 39.6177 22.44 40.0257 22.632C40.4457 22.824 40.9977 22.92 41.6817 22.92C41.9577 22.92 42.3477 22.908 42.8517 22.884C43.3557 22.86 43.8297 22.812 44.2737 22.74L44.4177 23.766C43.9857 23.922 43.5057 24.036 42.9777 24.108C42.4617 24.18 41.9457 24.216 41.4297 24.216C40.4217 24.216 39.6117 24.066 38.9997 23.766C38.3877 23.466 37.9437 22.98 37.6677 22.308C37.4037 21.636 37.2717 20.736 37.2717 19.608C37.2717 18.48 37.4037 17.58 37.6677 16.908C37.9437 16.236 38.3877 15.756 38.9997 15.468C39.6117 15.168 40.4217 15.018 41.4297 15.018ZM48.057 15.234V18.762H52.665V15.234H54.177V24H52.665V19.932H48.057V24H46.545V15.234H48.057ZM60.7476 15.018C61.7556 15.018 62.5596 15.168 63.1596 15.468C63.7596 15.768 64.1916 16.26 64.4556 16.944C64.7316 17.616 64.8696 18.51 64.8696 19.626C64.8696 20.742 64.7316 21.642 64.4556 22.326C64.1916 22.998 63.7596 23.484 63.1596 23.784C62.5596 24.084 61.7556 24.234 60.7476 24.234C59.7396 24.234 58.9296 24.084 58.3176 23.784C57.7176 23.484 57.2796 22.998 57.0036 22.326C56.7396 21.642 56.6076 20.742 56.6076 19.626C56.6076 18.51 56.7396 17.616 57.0036 16.944C57.2796 16.26 57.7176 15.768 58.3176 15.468C58.9296 15.168 59.7396 15.018 60.7476 15.018ZM60.7476 16.314C60.1116 16.314 59.6076 16.416 59.2356 16.62C58.8636 16.812 58.5996 17.148 58.4436 17.628C58.2876 18.108 58.2096 18.774 58.2096 19.626C58.2096 20.478 58.2876 21.144 58.4436 21.624C58.5996 22.104 58.8636 22.446 59.2356 22.65C59.6076 22.842 60.1116 22.938 60.7476 22.938C61.3836 22.938 61.8816 22.842 62.2416 22.65C62.6136 22.446 62.8776 22.104 63.0336 21.624C63.1896 21.144 63.2676 20.478 63.2676 19.626C63.2676 18.774 63.1896 18.108 63.0336 17.628C62.8776 17.148 62.6136 16.812 62.2416 16.62C61.8816 16.416 61.3836 16.314 60.7476 16.314ZM70.8688 15.144C71.7808 15.144 72.5008 15.21 73.0288 15.342C73.5688 15.474 73.9588 15.708 74.1988 16.044C74.4388 16.38 74.5588 16.86 74.5588 17.484C74.5588 18.108 74.4088 18.582 74.1088 18.906C73.8208 19.218 73.3408 19.404 72.6688 19.464V19.518C73.4848 19.578 74.0548 19.806 74.3788 20.202C74.7028 20.586 74.8648 21.132 74.8648 21.84C74.8648 22.44 74.7448 22.908 74.5048 23.244C74.2768 23.568 73.9048 23.796 73.3888 23.928C72.8848 24.06 72.2068 24.126 71.3548 24.126C70.7428 24.126 70.2088 24.12 69.7528 24.108C69.2968 24.108 68.8768 24.096 68.4928 24.072C68.1208 24.06 67.7248 24.042 67.3048 24.018V15.252C67.6768 15.216 68.0308 15.192 68.3668 15.18C68.7028 15.168 69.0688 15.162 69.4648 15.162C69.8608 15.15 70.3288 15.144 70.8688 15.144ZM70.8148 16.35C70.4068 16.35 70.0288 16.35 69.6808 16.35C69.3328 16.338 69.0208 16.338 68.7448 16.35V18.942H71.0488C71.8048 18.942 72.3328 18.852 72.6328 18.672C72.9448 18.492 73.1008 18.138 73.1008 17.61C73.1008 17.106 72.9328 16.77 72.5968 16.602C72.2608 16.434 71.6668 16.35 70.8148 16.35ZM71.0488 20.04H68.7448V22.902C69.0688 22.914 69.4288 22.92 69.8248 22.92C70.2328 22.92 70.6708 22.92 71.1388 22.92C71.9548 22.92 72.5248 22.83 72.8488 22.65C73.1728 22.458 73.3348 22.08 73.3348 21.516C73.3348 20.952 73.1668 20.568 72.8308 20.364C72.4948 20.148 71.9008 20.04 71.0488 20.04ZM81.4296 15.018C82.4016 15.018 83.1396 15.222 83.6436 15.63C84.1596 16.026 84.4176 16.758 84.4176 17.826V24H83.2116L83.0316 22.56C82.8036 22.788 82.5096 23.028 82.1496 23.28C81.7896 23.52 81.3756 23.73 80.9076 23.91C80.4516 24.078 79.9536 24.162 79.4136 24.162C78.6336 24.162 78.0036 23.952 77.5236 23.532C77.0436 23.112 76.8036 22.506 76.8036 21.714V20.76C76.8036 20.076 77.0136 19.548 77.4336 19.176C77.8656 18.792 78.4656 18.6 79.2336 18.6H82.8876V17.826C82.8756 17.286 82.7496 16.902 82.5096 16.674C82.2696 16.434 81.8016 16.314 81.1056 16.314C80.6376 16.314 80.0556 16.338 79.3596 16.386C78.6756 16.434 77.9976 16.488 77.3256 16.548L77.1816 15.414C77.7936 15.318 78.4896 15.228 79.2696 15.144C80.0496 15.06 80.7696 15.018 81.4296 15.018ZM79.7196 22.848C80.1516 22.86 80.6556 22.758 81.2316 22.542C81.8196 22.314 82.3716 21.972 82.8876 21.516V19.752L79.5036 19.77C79.0836 19.782 78.7836 19.896 78.6036 20.112C78.4356 20.316 78.3516 20.604 78.3516 20.976V21.534C78.3516 21.99 78.4596 22.326 78.6756 22.542C78.9036 22.746 79.2516 22.848 79.7196 22.848ZM94.1333 15.234V16.494H90.9653V24H89.4353V16.494H86.2493V15.234H94.1333ZM99.4868 15.018C100.807 15.018 101.761 15.258 102.349 15.738C102.949 16.218 103.255 16.932 103.267 17.88C103.267 18.66 103.099 19.272 102.763 19.716C102.439 20.148 101.911 20.364 101.179 20.364H97.0928C97.1408 21.06 97.2668 21.594 97.4708 21.966C97.6868 22.326 97.9868 22.578 98.3708 22.722C98.7548 22.854 99.2468 22.92 99.8468 22.92C100.327 22.92 100.843 22.902 101.395 22.866C101.959 22.818 102.463 22.764 102.907 22.704L103.051 23.73C102.787 23.838 102.451 23.928 102.043 24C101.635 24.072 101.215 24.126 100.783 24.162C100.363 24.198 99.9848 24.216 99.6488 24.216C98.6528 24.216 97.8428 24.066 97.2188 23.766C96.6068 23.454 96.1628 22.962 95.8868 22.29C95.6108 21.606 95.4728 20.706 95.4728 19.59C95.4728 18.438 95.6108 17.532 95.8868 16.872C96.1748 16.2 96.6128 15.726 97.2008 15.45C97.7888 15.162 98.5508 15.018 99.4868 15.018ZM99.5588 16.314C98.9468 16.314 98.4608 16.398 98.1008 16.566C97.7528 16.734 97.4948 17.028 97.3268 17.448C97.1708 17.856 97.0808 18.432 97.0568 19.176H100.783C101.167 19.176 101.419 19.044 101.539 18.78C101.671 18.504 101.731 18.204 101.719 17.88C101.719 17.316 101.557 16.914 101.233 16.674C100.909 16.434 100.351 16.314 99.5588 16.314ZM112.862 15.234V24H111.332V16.44H109.424C109.052 16.44 108.782 16.524 108.614 16.692C108.458 16.848 108.35 17.13 108.29 17.538C108.194 18.33 108.086 19.146 107.966 19.986C107.846 20.814 107.672 21.534 107.444 22.146C107 23.43 106.082 24.078 104.69 24.09L104.528 22.92C105.02 22.8 105.368 22.644 105.572 22.452C105.788 22.26 105.956 22.008 106.076 21.696C106.232 21.312 106.358 20.856 106.454 20.328C106.55 19.8 106.628 19.266 106.688 18.726C106.76 18.174 106.814 17.694 106.85 17.286C106.934 16.614 107.15 16.104 107.498 15.756C107.858 15.408 108.404 15.234 109.136 15.234H112.862ZM119.279 18.636C120.179 18.636 120.881 18.72 121.385 18.888C121.901 19.056 122.267 19.344 122.483 19.752C122.699 20.148 122.807 20.688 122.807 21.372C122.807 22.08 122.693 22.638 122.465 23.046C122.249 23.442 121.895 23.718 121.403 23.874C120.923 24.03 120.293 24.108 119.513 24.108C118.937 24.108 118.439 24.102 118.019 24.09C117.599 24.09 117.215 24.078 116.867 24.054C116.519 24.042 116.153 24.024 115.769 24H115.715V15.234H117.209V18.636H119.279ZM119.279 19.77H117.209V22.884C117.773 22.896 118.463 22.902 119.279 22.902C119.999 22.902 120.503 22.8 120.791 22.596C121.091 22.392 121.241 21.966 121.241 21.318C121.241 20.742 121.109 20.34 120.845 20.112C120.581 19.884 120.059 19.77 119.279 19.77ZM130.498 15.234V22.776H134.134V15.234H135.52V22.776H139.174V15.234H140.65V24H129.004V15.234H130.498ZM145.036 15.234V17.844C145.036 18.192 145.006 18.528 144.946 18.852H146.17C146.746 18.852 147.208 18.708 147.556 18.42C147.904 18.132 148.204 17.718 148.456 17.178C148.72 16.638 148.996 15.99 149.284 15.234H150.868C150.544 16.098 150.244 16.83 149.968 17.43C149.692 18.03 149.368 18.492 148.996 18.816C148.636 19.14 148.144 19.338 147.52 19.41V19.464C148.18 19.524 148.702 19.722 149.086 20.058C149.47 20.382 149.812 20.868 150.112 21.516C150.412 22.152 150.748 22.98 151.12 24H149.518C149.158 23.052 148.84 22.29 148.564 21.714C148.288 21.126 147.97 20.7 147.61 20.436C147.262 20.16 146.782 20.028 146.17 20.04H144.964C145.012 20.34 145.036 20.622 145.036 20.886V24H143.506V15.234H145.036ZM156.812 15.018C157.82 15.018 158.624 15.168 159.224 15.468C159.824 15.768 160.256 16.26 160.52 16.944C160.796 17.616 160.934 18.51 160.934 19.626C160.934 20.742 160.796 21.642 160.52 22.326C160.256 22.998 159.824 23.484 159.224 23.784C158.624 24.084 157.82 24.234 156.812 24.234C155.804 24.234 154.994 24.084 154.382 23.784C153.782 23.484 153.344 22.998 153.068 22.326C152.804 21.642 152.672 20.742 152.672 19.626C152.672 18.51 152.804 17.616 153.068 16.944C153.344 16.26 153.782 15.768 154.382 15.468C154.994 15.168 155.804 15.018 156.812 15.018ZM156.812 16.314C156.176 16.314 155.672 16.416 155.3 16.62C154.928 16.812 154.664 17.148 154.508 17.628C154.352 18.108 154.274 18.774 154.274 19.626C154.274 20.478 154.352 21.144 154.508 21.624C154.664 22.104 154.928 22.446 155.3 22.65C155.672 22.842 156.176 22.938 156.812 22.938C157.448 22.938 157.946 22.842 158.306 22.65C158.678 22.446 158.942 22.104 159.098 21.624C159.254 21.144 159.332 20.478 159.332 19.626C159.332 18.774 159.254 18.108 159.098 17.628C158.942 17.148 158.678 16.812 158.306 16.62C157.946 16.416 157.448 16.314 156.812 16.314ZM170.483 15.234V24H168.953V16.44H167.045C166.673 16.44 166.403 16.524 166.235 16.692C166.079 16.848 165.971 17.13 165.911 17.538C165.815 18.33 165.707 19.146 165.587 19.986C165.467 20.814 165.293 21.534 165.065 22.146C164.621 23.43 163.703 24.078 162.311 24.09L162.149 22.92C162.641 22.8 162.989 22.644 163.193 22.452C163.409 22.26 163.577 22.008 163.697 21.696C163.853 21.312 163.979 20.856 164.075 20.328C164.171 19.8 164.249 19.266 164.309 18.726C164.381 18.174 164.435 17.694 164.471 17.286C164.555 16.614 164.771 16.104 165.119 15.756C165.479 15.408 166.025 15.234 166.757 15.234H170.483ZM176.9 18.636C177.776 18.636 178.46 18.72 178.952 18.888C179.444 19.056 179.792 19.344 179.996 19.752C180.212 20.148 180.32 20.688 180.32 21.372C180.32 22.08 180.212 22.638 179.996 23.046C179.78 23.442 179.438 23.718 178.97 23.874C178.502 24.03 177.89 24.108 177.134 24.108C176.558 24.108 176.06 24.102 175.64 24.09C175.22 24.09 174.836 24.078 174.488 24.054C174.14 24.042 173.774 24.024 173.39 24H173.336V15.234H174.83V18.636H176.9ZM183.47 15.234V24H181.922V15.234H183.47ZM176.9 19.77H174.83V22.884C175.394 22.896 176.084 22.902 176.9 22.902C177.596 22.902 178.082 22.8 178.358 22.596C178.634 22.392 178.772 21.966 178.772 21.318C178.772 20.742 178.64 20.34 178.376 20.112C178.124 19.884 177.632 19.77 176.9 19.77Z" fill="#424347"/>
<path d="M198.921 11.58V12.984H194.907V24H193.323V12.984H189.327V11.58H198.921ZM204.725 11.58C205.049 11.58 205.247 11.724 205.319 12.012L209.315 24H207.677L206.453 20.112H201.341L200.117 24H198.479L202.475 12.012C202.547 11.724 202.745 11.58 203.069 11.58H204.725ZM203.339 13.812L201.773 18.744H206.021L204.455 13.812C204.407 13.644 204.353 13.476 204.293 13.308C204.245 13.128 204.197 12.96 204.149 12.804H203.645C203.597 12.96 203.549 13.128 203.501 13.308C203.453 13.476 203.399 13.644 203.339 13.812ZM212.646 11.58V24H211.062V11.58H212.646ZM224.287 16.818V24H223.135L222.955 22.686C222.595 23.046 222.097 23.394 221.461 23.73C220.837 24.066 220.099 24.234 219.247 24.234C217.855 24.234 216.853 23.712 216.241 22.668C215.629 21.624 215.323 19.986 215.323 17.754C215.323 16.11 215.485 14.826 215.809 13.902C216.145 12.966 216.691 12.306 217.447 11.922C218.215 11.538 219.235 11.346 220.507 11.346C221.143 11.346 221.743 11.376 222.307 11.436C222.883 11.496 223.435 11.592 223.963 11.724L223.801 12.912C223.237 12.852 222.673 12.816 222.109 12.804C221.557 12.78 221.053 12.768 220.597 12.768C219.925 12.768 219.355 12.834 218.887 12.966C218.431 13.086 218.065 13.326 217.789 13.686C217.513 14.046 217.309 14.562 217.177 15.234C217.057 15.906 216.997 16.782 216.997 17.862C216.997 19.086 217.081 20.064 217.249 20.796C217.417 21.516 217.693 22.038 218.077 22.362C218.473 22.686 219.007 22.848 219.679 22.848C220.315 22.848 220.873 22.728 221.353 22.488C221.845 22.236 222.307 21.954 222.739 21.642V16.818H224.287ZM231.936 11.58C232.26 11.58 232.458 11.724 232.53 12.012L236.526 24H234.888L233.664 20.112H228.552L227.328 24H225.69L229.686 12.012C229.758 11.724 229.956 11.58 230.28 11.58H231.936ZM230.55 13.812L228.984 18.744H233.232L231.666 13.812C231.618 13.644 231.564 13.476 231.504 13.308C231.456 13.128 231.408 12.96 231.36 12.804H230.856C230.808 12.96 230.76 13.128 230.712 13.308C230.664 13.476 230.61 13.644 230.55 13.812Z" fill="#FF3E28"/>
</g>
<defs>
<filter id="filter0_d" x="2.44238" y="0" width="261.432" height="41" filterUnits="userSpaceOnUse" color-interpolation-filters="sRGB">
<feFlood flood-opacity="0" result="BackgroundImageFix"/>
<feColorMatrix in="SourceAlpha" type="matrix" values="0 0 0 0 0 0 0 0 0 0 0 0 0 0 0 0 0 0 127 0"/>
<feOffset dy="4"/>
<feGaussianBlur stdDeviation="2"/>
<feColorMatrix type="matrix" values="0 0 0 0 0 0 0 0 0 0 0 0 0 0 0 0 0 0 0.25 0"/>
<feBlend mode="normal" in2="BackgroundImageFix" result="effect1_dropShadow"/>
<feBlend mode="normal" in="SourceGraphic" in2="effect1_dropShadow" result="shape"/>
</filter>
</defs>
</svg>
