<svg width="156" height="41" viewBox="0 0 156 41" fill="none" xmlns="http://www.w3.org/2000/svg">
<g filter="url(#filter0_d)">
<path d="M13.6685 4.18288C14.7859 1.64108 17.3001 0 20.0766 0H144.816C149.985 0 153.371 5.40999 151.112 10.0592L141.88 29.0592C140.709 31.4698 138.264 33 135.584 33H11.7239C6.67049 33 3.28205 27.809 5.31578 23.1829L13.6685 4.18288Z" fill="#F1F1F1"/>
<path d="M42.0145 7.534C42.7625 7.534 43.5765 7.578 44.4565 7.666C45.3365 7.73933 46.1945 7.89333 47.0305 8.128L46.8105 10.372C46.1651 10.3427 45.4025 10.3207 44.5225 10.306C43.6571 10.2913 42.8138 10.284 41.9925 10.284C41.4498 10.284 41.0098 10.3133 40.6725 10.372C40.3498 10.4307 40.1151 10.5627 39.9685 10.768C39.8365 10.9587 39.7705 11.2813 39.7705 11.736C39.7705 12.264 39.8878 12.6453 40.1225 12.88C40.3718 13.1147 40.7898 13.32 41.3765 13.496L44.3025 14.442C45.5051 14.8673 46.3411 15.432 46.8105 16.136C47.2945 16.8253 47.5365 17.742 47.5365 18.886C47.5365 20.0447 47.3531 20.9467 46.9865 21.592C46.6198 22.2227 46.0185 22.6627 45.1825 22.912C44.3611 23.1613 43.2611 23.286 41.8825 23.286C41.3838 23.286 40.6725 23.2493 39.7485 23.176C38.8245 23.1173 37.7758 22.956 36.6025 22.692L36.8005 20.316C38.1058 20.36 39.1471 20.3893 39.9245 20.404C40.7165 20.4187 41.3691 20.426 41.8825 20.426C42.7625 20.426 43.3638 20.338 43.6865 20.162C44.0091 19.9713 44.1705 19.5607 44.1705 18.93C44.1705 18.3873 44.0531 18.006 43.8185 17.786C43.5985 17.566 43.2245 17.3753 42.6965 17.214L39.6165 16.158C38.4431 15.7473 37.6145 15.1973 37.1305 14.508C36.6611 13.8187 36.4265 12.902 36.4265 11.758C36.4265 10.5993 36.6098 9.71933 36.9765 9.118C37.3578 8.502 37.9591 8.084 38.7805 7.864C39.6018 7.644 40.6798 7.534 42.0145 7.534Z" fill="#FF3E28"/>
<path d="M60.6471 12.132L57.0611 22.23C56.8851 22.7433 56.5331 23 56.0051 23H53.1891C52.6464 23 52.2944 22.7433 52.1331 22.23L48.5471 12.132H51.9791L53.9811 18.93C54.0691 19.2527 54.1498 19.5827 54.2231 19.92C54.2964 20.2573 54.3698 20.58 54.4431 20.888H54.7291C54.8024 20.5653 54.8831 20.2427 54.9711 19.92C55.0591 19.5827 55.1471 19.2527 55.2351 18.93L57.2151 12.132H60.6471ZM67.0852 11.846C68.9185 11.846 70.2312 12.1613 71.0232 12.792C71.8299 13.4227 72.2332 14.3467 72.2332 15.564C72.2479 16.5467 71.9985 17.2873 71.4852 17.786C70.9719 18.2847 70.0845 18.534 68.8232 18.534H64.9512C65.0392 19.3847 65.2812 19.9567 65.6772 20.25C66.0879 20.5433 66.7185 20.69 67.5692 20.69C68.0679 20.69 68.6839 20.6753 69.4172 20.646C70.1652 20.602 70.9132 20.536 71.6612 20.448L71.9692 22.45C71.3239 22.758 70.5612 22.9707 69.6812 23.088C68.8159 23.2053 67.9872 23.264 67.1952 23.264C65.1125 23.264 63.6385 22.8093 62.7732 21.9C61.9225 20.9907 61.4972 19.5533 61.4972 17.588C61.4972 16.1653 61.6805 15.036 62.0472 14.2C62.4285 13.364 63.0299 12.7627 63.8512 12.396C64.6725 12.0293 65.7505 11.846 67.0852 11.846ZM67.1952 14.134C66.6379 14.134 66.1905 14.2 65.8532 14.332C65.5305 14.464 65.2959 14.7207 65.1492 15.102C65.0025 15.4687 64.9145 16.004 64.8852 16.708H67.9432C68.4272 16.708 68.7352 16.6053 68.8672 16.4C69.0139 16.1947 69.0872 15.894 69.0872 15.498C69.0872 14.9847 68.9405 14.6327 68.6472 14.442C68.3539 14.2367 67.8699 14.134 67.1952 14.134ZM81.6372 12.132V14.266H78.6012V19.524C78.6012 19.92 78.6892 20.206 78.8652 20.382C79.0412 20.5433 79.3492 20.624 79.7892 20.624H81.1972L81.5492 22.824C81.2705 22.9267 80.9405 23.0073 80.5592 23.066C80.1778 23.1247 79.7965 23.1687 79.4152 23.198C79.0485 23.2273 78.7332 23.242 78.4692 23.242C77.4865 23.242 76.7165 22.9853 76.1592 22.472C75.6165 21.944 75.3452 21.2033 75.3452 20.25V14.266H73.4532V12.242L75.3452 12.154V9.118H78.6012V12.132H81.6372ZM86.6566 7.6L86.6346 19.524C86.6346 20.2573 87.0673 20.624 87.9326 20.624H88.8126L89.1866 22.824C88.9959 22.9267 88.7393 23.0073 88.4166 23.066C88.0939 23.1247 87.7639 23.1687 87.4266 23.198C87.0893 23.2273 86.8106 23.242 86.5906 23.242C85.6079 23.242 84.8306 22.9927 84.2586 22.494C83.7013 21.9807 83.4226 21.262 83.4226 20.338V7.6H86.6566ZM96.3179 11.846C97.6819 11.846 98.7305 12.132 99.4639 12.704C100.197 13.276 100.564 14.31 100.564 15.806V23H97.9899L97.6379 21.284C97.2419 21.7387 96.7065 22.1787 96.0319 22.604C95.3572 23.0293 94.5285 23.242 93.5459 23.242C92.5632 23.242 91.7345 22.9853 91.0599 22.472C90.3852 21.9587 90.0479 21.196 90.0479 20.184V19.062C90.0479 18.1967 90.3412 17.522 90.9279 17.038C91.5145 16.554 92.3212 16.312 93.3479 16.312H97.3079V15.806C97.2932 15.278 97.1612 14.904 96.9119 14.684C96.6772 14.4493 96.2299 14.332 95.5699 14.332C94.9979 14.332 94.2939 14.354 93.4579 14.398C92.6219 14.4273 91.7639 14.4713 90.8839 14.53L90.5979 12.374C91.1112 12.286 91.7052 12.2053 92.3799 12.132C93.0692 12.044 93.7585 11.978 94.4479 11.934C95.1372 11.8753 95.7605 11.846 96.3179 11.846ZM94.5579 20.888C94.9539 20.888 95.3939 20.8 95.8779 20.624C96.3765 20.4333 96.8532 20.1767 97.3079 19.854V18.138H94.3599C93.9639 18.1527 93.6779 18.2553 93.5019 18.446C93.3405 18.6367 93.2599 18.8933 93.2599 19.216V19.744C93.2599 20.5067 93.6925 20.888 94.5579 20.888ZM105.719 12.132L106.005 13.782C107.56 12.4913 109.115 11.846 110.669 11.846C112.723 11.846 113.749 12.8507 113.749 14.86V23H110.493V15.872C110.493 15.388 110.405 15.058 110.229 14.882C110.053 14.6913 109.753 14.596 109.327 14.596C108.887 14.596 108.44 14.6767 107.985 14.838C107.531 14.9847 106.988 15.2193 106.357 15.542V23H103.123V12.132H105.719ZM122.056 11.846C123.42 11.846 124.469 12.132 125.202 12.704C125.935 13.276 126.302 14.31 126.302 15.806V23H123.728L123.376 21.284C122.98 21.7387 122.445 22.1787 121.77 22.604C121.095 23.0293 120.267 23.242 119.284 23.242C118.301 23.242 117.473 22.9853 116.798 22.472C116.123 21.9587 115.786 21.196 115.786 20.184V19.062C115.786 18.1967 116.079 17.522 116.666 17.038C117.253 16.554 118.059 16.312 119.086 16.312H123.046V15.806C123.031 15.278 122.899 14.904 122.65 14.684C122.415 14.4493 121.968 14.332 121.308 14.332C120.736 14.332 120.032 14.354 119.196 14.398C118.36 14.4273 117.502 14.4713 116.622 14.53L116.336 12.374C116.849 12.286 117.443 12.2053 118.118 12.132C118.807 12.044 119.497 11.978 120.186 11.934C120.875 11.8753 121.499 11.846 122.056 11.846ZM120.296 20.888C120.692 20.888 121.132 20.8 121.616 20.624C122.115 20.4333 122.591 20.1767 123.046 19.854V18.138H120.098C119.702 18.1527 119.416 18.2553 119.24 18.446C119.079 18.6367 118.998 18.8933 118.998 19.216V19.744C118.998 20.5067 119.431 20.888 120.296 20.888Z" fill="#424347"/>
</g>
<defs>
<filter id="filter0_d" x="0.716309" y="0" width="155.109" height="41" filterUnits="userSpaceOnUse" color-interpolation-filters="sRGB">
<feFlood flood-opacity="0" result="BackgroundImageFix"/>
<feColorMatrix in="SourceAlpha" type="matrix" values="0 0 0 0 0 0 0 0 0 0 0 0 0 0 0 0 0 0 127 0"/>
<feOffset dy="4"/>
<feGaussianBlur stdDeviation="2"/>
<feColorMatrix type="matrix" values="0 0 0 0 0 0 0 0 0 0 0 0 0 0 0 0 0 0 0.25 0"/>
<feBlend mode="normal" in2="BackgroundImageFix" result="effect1_dropShadow"/>
<feBlend mode="normal" in="SourceGraphic" in2="effect1_dropShadow" result="shape"/>
</filter>
</defs>
</svg>
