<svg width="28" height="28" viewBox="0 0 28 28" fill="none" xmlns="http://www.w3.org/2000/svg">
<path d="M14 6C13.0111 6 12.0444 6.29325 11.2222 6.84265C10.3999 7.39206 9.75904 8.17295 9.3806 9.08658C9.00217 10.0002 8.90315 11.0055 9.09608 11.9755C9.289 12.9454 9.76521 13.8363 10.4645 14.5355C11.1637 15.2348 12.0546 15.711 13.0246 15.9039C13.9945 16.0969 14.9998 15.9978 15.9134 15.6194C16.8271 15.241 17.6079 14.6001 18.1574 13.7779C18.7068 12.9556 19 11.9889 19 11C19 9.67392 18.4732 8.40215 17.5355 7.46447C16.5979 6.52678 15.3261 6 14 6ZM14 14C13.4067 14 12.8266 13.8241 12.3333 13.4944C11.8399 13.1648 11.4554 12.6962 11.2284 12.1481C11.0013 11.5999 10.9419 10.9967 11.0576 10.4147C11.1734 9.83279 11.4591 9.29824 11.8787 8.87868C12.2982 8.45912 12.8328 8.1734 13.4147 8.05764C13.9967 7.94189 14.5999 8.0013 15.1481 8.22836C15.6962 8.45542 16.1648 8.83994 16.4944 9.33329C16.8241 9.82664 17 10.4067 17 11C16.9992 11.7954 16.6829 12.558 16.1204 13.1204C15.558 13.6829 14.7954 13.9992 14 14Z" fill="black" fill-opacity="0.41"/>
<path d="M14 0C11.2311 0 8.52431 0.821086 6.22202 2.35943C3.91973 3.89777 2.12532 6.08427 1.06569 8.64243C0.00606596 11.2006 -0.271181 14.0155 0.269012 16.7313C0.809205 19.447 2.14258 21.9416 4.10051 23.8995C6.05845 25.8574 8.55301 27.1908 11.2687 27.731C13.9845 28.2712 16.7994 27.9939 19.3576 26.9343C21.9157 25.8747 24.1022 24.0803 25.6406 21.778C27.1789 19.4757 28 16.7689 28 14C27.9958 10.2883 26.5194 6.72977 23.8948 4.10518C21.2702 1.48059 17.7117 0.00423472 14 0ZM8.00001 24.377V23C8.0008 22.2046 8.31713 21.442 8.87956 20.8796C9.442 20.3171 10.2046 20.0008 11 20H17C17.7954 20.0008 18.558 20.3171 19.1204 20.8796C19.6829 21.442 19.9992 22.2046 20 23V24.377C18.1792 25.4402 16.1085 26.0005 14 26.0005C11.8915 26.0005 9.82084 25.4402 8.00001 24.377ZM21.992 22.926C21.9721 21.6143 21.4377 20.363 20.5039 19.4416C19.5702 18.5202 18.3118 18.0025 17 18H11C9.68819 18.0025 8.42984 18.5202 7.4961 19.4416C6.56235 20.363 6.02794 21.6143 6.00801 22.926C4.19457 21.3067 2.91574 19.1749 2.34084 16.8127C1.76594 14.4505 1.92211 11.9693 2.78864 9.69786C3.65518 7.42637 5.19123 5.47167 7.19338 4.09257C9.19553 2.71347 11.5693 1.97503 14.0005 1.97503C16.4317 1.97503 18.8055 2.71347 20.8076 4.09257C22.8098 5.47167 24.3458 7.42637 25.2124 9.69786C26.0789 11.9693 26.2351 14.4505 25.6602 16.8127C25.0853 19.1749 23.8064 21.3067 21.993 22.926H21.992Z" fill="black" fill-opacity="0.41"/>
</svg>
