<svg width="41" height="17" viewBox="0 0 41 17" fill="none" xmlns="http://www.w3.org/2000/svg">
<g clip-path="url(#clip0)">
<path d="M32.0641 2.65044e-06C27.1289 3.06084e-06 23.1282 3.80558 23.1282 8.5C23.1282 13.1944 27.1289 17 32.0641 17C36.9993 17 41 13.1944 41 8.5C41 3.80558 36.9993 2.24004e-06 32.0641 2.65044e-06Z" fill="#F55B4B"/>
<path d="M23.6818 11.4511L40.4468 11.4511C39.1849 14.6911 35.9087 17 32.0641 17C28.2196 17 24.9433 14.6911 23.6818 11.4511Z" fill="#DB1B1B"/>
<path d="M23.682 5.54926L40.4469 5.54926C41.1863 7.45368 41.1863 9.54669 40.4469 11.4511L23.682 11.4511C23.5576 11.1319 23.4537 10.8058 23.371 10.4746C22.9631 8.83946 23.0713 7.12621 23.682 5.54926V5.54926Z" fill="#3586CB"/>
<path d="M32.0641 1.5757e-05C33.8899 -3.82769e-05 35.672 0.531728 37.1706 1.5238C38.6692 2.51587 39.8125 3.92066 40.4468 5.54926L23.6818 5.54926C23.8117 5.21486 23.9638 4.8887 24.1374 4.57275C24.8926 3.19383 26.031 2.03836 27.4286 1.23211C28.8262 0.425852 30.4296 -0.000305424 32.0641 1.5757e-05V1.5757e-05Z" fill="white"/>
<path d="M30.8948 16.9279C34.2241 16.5139 36.9768 14.357 38.1081 11.4494L40.4468 11.4494C39.1849 14.6911 35.9087 17 32.0641 17C31.6731 17.0001 31.2825 16.976 30.8948 16.9279V16.9279Z" fill="#C11A1A"/>
<path d="M38.6615 8.50002C38.6627 7.49299 38.4754 6.49379 38.1082 5.54926L40.4469 5.54926C41.1863 7.45368 41.1863 9.54669 40.4469 11.4511L38.1082 11.4511C38.2319 11.1319 38.335 10.8058 38.4171 10.4746C38.5794 9.82776 38.6615 9.16504 38.6615 8.50002V8.50002Z" fill="#366FCA"/>
<path d="M30.8948 0.0720671C31.2825 0.0240049 31.6731 -6.31436e-05 32.0641 1.5757e-05C33.8899 -3.82769e-05 35.672 0.531728 37.1706 1.5238C38.6692 2.51587 39.8125 3.92066 40.4468 5.54926L38.1081 5.54926C37.5433 4.09835 36.5732 2.82147 35.3021 1.8561C34.0311 0.890738 32.5073 0.273461 30.8948 0.0707387L30.8948 0.0720671Z" fill="#E2E2E2"/>
<path d="M24.7081 7.35879C24.3598 7.35879 24.0774 7.62741 24.0774 7.95877C24.0774 8.29013 24.3598 8.55875 24.7081 8.55875C25.0565 8.55875 25.3389 8.29013 25.3389 7.95877C25.3389 7.62741 25.0565 7.35879 24.7081 7.35879Z" fill="#4C9CD8"/>
<path d="M24.708 8.78354C24.4612 8.78354 24.2612 8.97382 24.2612 9.20854C24.2612 9.44327 24.4612 9.63354 24.708 9.63354C24.9547 9.63354 25.1548 9.44327 25.1548 9.20854C25.1548 8.97382 24.9547 8.78354 24.708 8.78354Z" fill="#4C9CD8"/>
</g>
<path d="M7.0752 12.8223C7.0752 12.8587 7.06836 12.8906 7.05469 12.918C7.04102 12.9453 7.01139 12.9681 6.96582 12.9863C6.92025 13.0046 6.85645 13.0182 6.77441 13.0273C6.69238 13.0365 6.58301 13.041 6.44629 13.041C6.3278 13.041 6.22982 13.0365 6.15234 13.0273C6.07943 13.0182 6.02018 13.0046 5.97461 12.9863C5.92904 12.9635 5.89258 12.9339 5.86523 12.8975C5.84245 12.861 5.82194 12.8154 5.80371 12.7607L4.99023 10.6758C4.89453 10.4388 4.79427 10.2223 4.68945 10.0264C4.58919 9.82585 4.46842 9.65495 4.32715 9.51367C4.18587 9.36784 4.01953 9.25618 3.82812 9.17871C3.63672 9.09668 3.40658 9.05566 3.1377 9.05566H2.35156V12.8223C2.35156 12.8587 2.34017 12.8906 2.31738 12.918C2.29915 12.9453 2.26725 12.9681 2.22168 12.9863C2.18066 13 2.12142 13.0114 2.04395 13.0205C1.97103 13.0342 1.8776 13.041 1.76367 13.041C1.64974 13.041 1.55404 13.0342 1.47656 13.0205C1.40365 13.0114 1.3444 13 1.29883 12.9863C1.25326 12.9681 1.22135 12.9453 1.20312 12.918C1.1849 12.8906 1.17578 12.8587 1.17578 12.8223V4.63281C1.17578 4.45508 1.22135 4.33203 1.3125 4.26367C1.4082 4.19076 1.50846 4.1543 1.61328 4.1543H3.49316C3.71647 4.1543 3.90104 4.16113 4.04688 4.1748C4.19727 4.18392 4.33171 4.19531 4.4502 4.20898C4.79199 4.26823 5.09277 4.36165 5.35254 4.48926C5.61686 4.61686 5.83789 4.77865 6.01562 4.97461C6.19336 5.17057 6.32552 5.39616 6.41211 5.65137C6.50326 5.90202 6.54883 6.18001 6.54883 6.48535C6.54883 6.78158 6.50781 7.04818 6.42578 7.28516C6.34831 7.51758 6.23438 7.72493 6.08398 7.90723C5.93359 8.08496 5.75358 8.23991 5.54395 8.37207C5.33431 8.50423 5.09961 8.61589 4.83984 8.70703C4.98568 8.77083 5.11784 8.85286 5.23633 8.95312C5.35482 9.04883 5.46419 9.16504 5.56445 9.30176C5.66927 9.43848 5.76725 9.5957 5.8584 9.77344C5.94954 9.95117 6.04069 10.1517 6.13184 10.375L6.9248 12.3232C6.98861 12.4873 7.02962 12.6035 7.04785 12.6719C7.06608 12.7357 7.0752 12.7858 7.0752 12.8223ZM5.30469 6.6084C5.30469 6.26204 5.22721 5.97038 5.07227 5.7334C4.91732 5.49186 4.65755 5.31868 4.29297 5.21387C4.17904 5.18197 4.04915 5.15918 3.90332 5.14551C3.76204 5.13184 3.5752 5.125 3.34277 5.125H2.35156V8.10547H3.5C3.8099 8.10547 4.0765 8.06901 4.2998 7.99609C4.52767 7.91862 4.7168 7.8138 4.86719 7.68164C5.01758 7.54492 5.12695 7.38542 5.19531 7.20312C5.26823 7.02083 5.30469 6.82259 5.30469 6.6084ZM15.4287 9.73242C15.4287 10.2702 15.349 10.751 15.1895 11.1748C15.0345 11.5941 14.8112 11.9495 14.5195 12.2412C14.2279 12.5329 13.8724 12.7539 13.4531 12.9043C13.0339 13.0547 12.5576 13.1299 12.0244 13.1299C11.5368 13.1299 11.0924 13.0592 10.6914 12.918C10.2904 12.7767 9.94629 12.5693 9.65918 12.2959C9.37207 12.0179 9.15104 11.6715 8.99609 11.2568C8.84115 10.8421 8.76367 10.3636 8.76367 9.82129V4.33203C8.76367 4.29557 8.77279 4.26367 8.79102 4.23633C8.80924 4.20898 8.84115 4.18848 8.88672 4.1748C8.93229 4.15658 8.99154 4.1429 9.06445 4.13379C9.13737 4.12012 9.23307 4.11328 9.35156 4.11328C9.46094 4.11328 9.55436 4.12012 9.63184 4.13379C9.70931 4.1429 9.76855 4.15658 9.80957 4.1748C9.85514 4.18848 9.88704 4.20898 9.90527 4.23633C9.9235 4.26367 9.93262 4.29557 9.93262 4.33203V9.67773C9.93262 10.0879 9.98275 10.4456 10.083 10.751C10.1833 11.0563 10.3268 11.3115 10.5137 11.5166C10.7051 11.7171 10.9329 11.8698 11.1973 11.9746C11.4661 12.0749 11.7669 12.125 12.0996 12.125C12.4414 12.125 12.7445 12.0749 13.0088 11.9746C13.2777 11.8743 13.5033 11.724 13.6855 11.5234C13.8724 11.3229 14.0137 11.0745 14.1094 10.7783C14.2096 10.4821 14.2598 10.1357 14.2598 9.73926V4.33203C14.2598 4.29557 14.2689 4.26367 14.2871 4.23633C14.3053 4.20898 14.3372 4.18848 14.3828 4.1748C14.4284 4.15658 14.4876 4.1429 14.5605 4.13379C14.638 4.12012 14.7337 4.11328 14.8477 4.11328C14.957 4.11328 15.0482 4.12012 15.1211 4.13379C15.1986 4.1429 15.2578 4.15658 15.2988 4.1748C15.3444 4.18848 15.3763 4.20898 15.3945 4.23633C15.4173 4.26367 15.4287 4.29557 15.4287 4.33203V9.73242Z" fill="black"/>
<defs>
<clipPath id="clip0">
<rect width="17.8718" height="17" fill="white" transform="translate(41 17) rotate(180)"/>
</clipPath>
</defs>
</svg>
