<svg width="58" height="58" viewBox="0 0 58 58" fill="none" xmlns="http://www.w3.org/2000/svg">
<path d="M28.9999 53.1668C42.3468 53.1668 53.1666 42.347 53.1666 29.0002C53.1666 15.6533 42.3468 4.8335 28.9999 4.8335C15.653 4.8335 4.83325 15.6533 4.83325 29.0002C4.83325 42.347 15.653 53.1668 28.9999 53.1668Z" fill="#4C59D8"/>
<path d="M29.0001 48.3332C39.6776 48.3332 48.3334 39.6774 48.3334 28.9999C48.3334 18.3224 39.6776 9.66656 29.0001 9.66656C18.3226 9.66656 9.66675 18.3224 9.66675 28.9999C9.66675 39.6774 18.3226 48.3332 29.0001 48.3332Z" fill="#EEEEEE"/>
<path d="M27.7917 13.2916H30.2084V28.9999H27.7917V13.2916Z" fill="black"/>
<path d="M37.8028 35.8318L35.8392 37.7965L27.9802 29.9375L29.945 27.9716L37.8028 35.8318Z" fill="black"/>
<path d="M28.9999 31.4168C30.3346 31.4168 31.4166 30.3348 31.4166 29.0001C31.4166 27.6654 30.3346 26.5834 28.9999 26.5834C27.6652 26.5834 26.5833 27.6654 26.5833 29.0001C26.5833 30.3348 27.6652 31.4168 28.9999 31.4168Z" fill="black"/>
<path d="M29.0001 30.2082C29.6674 30.2082 30.2084 29.6672 30.2084 28.9999C30.2084 28.3326 29.6674 27.7916 29.0001 27.7916C28.3327 27.7916 27.7917 28.3326 27.7917 28.9999C27.7917 29.6672 28.3327 30.2082 29.0001 30.2082Z" fill="#00ACC1"/>
</svg>
