<svg width="46" height="46" viewBox="0 0 46 46" fill="none" xmlns="http://www.w3.org/2000/svg">
<path d="M23 17.296C21.8719 17.296 20.769 17.6305 19.831 18.2573C18.893 18.8841 18.1619 19.7749 17.7302 20.8172C17.2985 21.8594 17.1855 23.0063 17.4056 24.1128C17.6257 25.2193 18.1689 26.2356 18.9667 27.0333C19.7644 27.8311 20.7807 28.3743 21.8872 28.5944C22.9937 28.8145 24.1406 28.7015 25.1828 28.2698C26.2251 27.8381 27.1159 27.107 27.7427 26.169C28.3695 25.231 28.704 24.1281 28.704 23C28.704 22.2509 28.5565 21.5092 28.2698 20.8172C27.9832 20.1251 27.563 19.4963 27.0333 18.9667C26.5037 18.437 25.8749 18.0168 25.1828 17.7302C24.4908 17.4435 23.7491 17.296 23 17.296V17.296ZM45.839 11.661C45.8269 9.88484 45.4998 8.12491 44.873 6.463C44.4113 5.2469 43.6971 4.14252 42.7773 3.22273C41.8575 2.30294 40.7531 1.58865 39.537 1.127C37.8751 0.500167 36.1152 0.1731 34.339 0.161C31.372 -1.54227e-07 30.498 0 23 0C15.502 0 14.628 -1.54227e-07 11.661 0.161C9.88484 0.1731 8.12491 0.500167 6.463 1.127C5.2469 1.58865 4.14252 2.30294 3.22273 3.22273C2.30294 4.14252 1.58865 5.2469 1.127 6.463C0.500167 8.12491 0.1731 9.88484 0.161 11.661C-1.54227e-07 14.628 0 15.502 0 23C0 30.498 -1.54227e-07 31.372 0.161 34.339C0.185757 36.1214 0.512381 37.8867 1.127 39.56C1.5866 40.7705 2.3003 41.8685 3.22 42.78C4.13585 43.7053 5.2426 44.4196 6.463 44.873C8.12491 45.4998 9.88484 45.8269 11.661 45.839C14.628 46 15.502 46 23 46C30.498 46 31.372 46 34.339 45.839C36.1152 45.8269 37.8751 45.4998 39.537 44.873C40.7574 44.4196 41.8642 43.7053 42.78 42.78C43.6997 41.8685 44.4134 40.7705 44.873 39.56C45.4992 37.8899 45.8262 36.1226 45.839 34.339C46 31.372 46 30.498 46 23C46 15.502 46 14.628 45.839 11.661V11.661ZM39.997 30.061C39.9232 31.4803 39.6203 32.8784 39.1 34.201C38.6535 35.3043 37.9897 36.3065 37.1481 37.1481C36.3065 37.9897 35.3043 38.6535 34.201 39.1C32.8659 39.5913 31.46 39.8631 30.038 39.905H15.962C14.54 39.8631 13.1341 39.5913 11.799 39.1C10.6584 38.6762 9.62844 38 8.786 37.122C7.95263 36.2969 7.30904 35.3001 6.9 34.201C6.40678 32.8673 6.1424 31.4598 6.118 30.038V23V15.962C6.1424 14.5402 6.40678 13.1327 6.9 11.799C7.32385 10.6584 8.00003 9.62844 8.878 8.786C9.70677 7.95713 10.7025 7.31422 11.799 6.9C13.1341 6.40873 14.54 6.13688 15.962 6.095H30.038C31.46 6.13688 32.8659 6.40873 34.201 6.9C35.3416 7.32385 36.3716 8.00003 37.214 8.878C38.0474 9.70312 38.691 10.6999 39.1 11.799C39.5913 13.1341 39.8631 14.54 39.905 15.962V23C39.905 27.738 40.066 28.221 39.997 30.038V30.061ZM36.317 12.949C36.0432 12.2061 35.6114 11.5314 35.0515 10.9715C34.4916 10.4116 33.8169 9.97984 33.074 9.706C32.0539 9.3524 30.9795 9.18112 29.9 9.2H16.1C15.015 9.2106 13.9405 9.41306 12.926 9.798C12.1944 10.0594 11.5269 10.4735 10.9677 11.0129C10.4086 11.5522 9.97064 12.2043 9.683 12.926C9.34899 13.9503 9.18581 15.0227 9.2 16.1V29.9C9.2228 30.9838 9.42487 32.0562 9.798 33.074C10.0718 33.8169 10.5036 34.4916 11.0635 35.0515C11.6234 35.6114 12.2981 36.0432 13.041 36.317C14.0223 36.6779 15.055 36.8798 16.1 36.915H29.9C30.985 36.9044 32.0595 36.7019 33.074 36.317C33.8169 36.0432 34.4916 35.6114 35.0515 35.0515C35.6114 34.4916 36.0432 33.8169 36.317 33.074C36.7019 32.0595 36.9044 30.985 36.915 29.9V23V16.1C36.9157 15.0139 36.7128 13.9374 36.317 12.926V12.949ZM23 31.786C21.8473 31.786 20.7059 31.5586 19.6412 31.1168C18.5765 30.6749 17.6095 30.0274 16.7955 29.2112C15.9815 28.3951 15.3365 27.4263 14.8974 26.3605C14.4584 25.2947 14.234 24.1527 14.237 23C14.237 21.2613 14.7529 19.5617 15.7193 18.1164C16.6858 16.671 18.0593 15.5449 19.6661 14.8806C21.2728 14.2163 23.0406 14.0437 24.7455 14.3845C26.4505 14.7254 28.016 15.5645 29.2438 16.7955C30.4716 18.0266 31.3066 19.5942 31.643 21.3001C31.9794 23.0059 31.8021 24.7732 31.1336 26.3782C30.4651 27.9832 29.3354 29.3538 27.8875 30.3165C26.4396 31.2791 24.7387 31.7906 23 31.786V31.786ZM32.2 15.939C31.6916 15.8852 31.221 15.6451 30.8791 15.265C30.5371 14.885 30.3479 14.3918 30.3479 13.8805C30.3479 13.3692 30.5371 12.876 30.8791 12.496C31.221 12.1159 31.6916 11.8758 32.2 11.822C32.7084 11.8758 33.179 12.1159 33.5209 12.496C33.8629 12.876 34.0521 13.3692 34.0521 13.8805C34.0521 14.3918 33.8629 14.885 33.5209 15.265C33.179 15.6451 32.7084 15.8852 32.2 15.939Z" fill="#EC3E37"/>
</svg>
