<svg width="149" height="108" viewBox="0 0 149 108" fill="none" xmlns="http://www.w3.org/2000/svg">
<path d="M41.8867 83.7986C41.8867 84.1345 41.6875 84.3025 41.2891 84.3025H38.4766C38.1797 84.3025 37.8516 84.197 37.4922 83.9861C37.1406 83.7673 36.8711 83.5056 36.6836 83.2009L34.6914 80.0837C33.8711 78.8025 32.8789 78.1619 31.7148 78.1619H28.8555V83.2009C28.8555 83.5056 28.7461 83.7673 28.5273 83.9861C28.3164 84.197 28.0586 84.3025 27.7539 84.3025H25.5508C25.2461 84.3025 24.9844 84.197 24.7656 83.9861C24.5469 83.7673 24.4375 83.5056 24.4375 83.2009V68.6111C24.4375 68.3064 24.543 68.0447 24.7539 67.8259C24.9648 67.6072 25.2227 67.4978 25.5273 67.4978H35.1953C36.9844 67.4978 38.4492 67.9783 39.5898 68.9392C40.7383 69.9001 41.3125 71.197 41.3125 72.8298C41.3125 75.1033 39.8398 76.5291 36.8945 77.1072C37.3633 77.2791 37.7969 77.5759 38.1953 77.9978C38.5938 78.4119 39.0508 79.0173 39.5664 79.8142L41.6992 83.2009C41.8242 83.4197 41.8867 83.6189 41.8867 83.7986ZM28.8555 74.8455H33.8477C34.6523 74.8455 35.3594 74.6853 35.9688 74.365C36.5859 74.0447 36.8945 73.533 36.8945 72.8298C36.8945 72.1267 36.5859 71.615 35.9688 71.2947C35.3594 70.9744 34.6523 70.8142 33.8477 70.8142H28.8555V74.8455ZM43.4922 78.9001V72.1853C43.4922 71.9744 43.5586 71.8025 43.6914 71.6697C43.832 71.5291 44.0039 71.4587 44.207 71.4587H46.832C47.0352 71.4587 47.2031 71.5291 47.3359 71.6697C47.4766 71.8025 47.5469 71.9744 47.5469 72.1853V78.9001C47.5469 80.7751 48.2891 81.7126 49.7734 81.7126C50.75 81.7126 51.8008 81.1501 52.9258 80.0251V72.1853C52.9258 71.9744 52.9922 71.8025 53.125 71.6697C53.2656 71.5291 53.4375 71.4587 53.6406 71.4587H56.2539C56.4648 71.4587 56.6367 71.5291 56.7695 71.6697C56.9102 71.8025 56.9805 71.9744 56.9805 72.1853V83.5876C56.9805 83.7908 56.9102 83.9626 56.7695 84.1033C56.6367 84.2361 56.4648 84.3025 56.2539 84.3025H53.6406C53.4375 84.3025 53.2656 84.2361 53.125 84.1033C52.9922 83.9626 52.9258 83.7908 52.9258 83.5876V82.8376C51.582 83.9705 50.1484 84.5369 48.625 84.5369C47.1094 84.5369 45.875 84.0759 44.9219 83.1541C43.9688 82.2244 43.4922 80.8064 43.4922 78.9001ZM59.1484 75.0095C59.1484 72.4861 61.1836 71.2244 65.2539 71.2244C69.5352 71.2244 71.6758 72.3455 71.6758 74.5876C71.6758 74.7908 71.6094 74.9626 71.4766 75.1033C71.3438 75.2361 71.1719 75.3025 70.9609 75.3025H69.2148C68.6523 75.3025 68.1797 75.0681 67.7969 74.5994C67.4141 74.1228 66.6602 73.8845 65.5352 73.8845C63.9883 73.8845 63.2148 74.2595 63.2148 75.0095C63.2148 75.3611 63.5156 75.6541 64.1172 75.8884C64.7266 76.1228 65.4648 76.3298 66.332 76.5095C67.207 76.6814 68.0781 76.9041 68.9453 77.1775C69.8125 77.4509 70.5469 77.8884 71.1484 78.49C71.7578 79.0837 72.0625 79.8376 72.0625 80.7517C72.0625 83.2751 69.9141 84.5369 65.6172 84.5369C61.3203 84.5369 59.1719 83.4197 59.1719 81.1853C59.1719 80.9744 59.2383 80.8025 59.3711 80.6697C59.5117 80.5291 59.6875 80.4587 59.8984 80.4587H61.6445C62.207 80.4587 62.6797 80.697 63.0625 81.1736C63.4453 81.6423 64.1992 81.8767 65.3242 81.8767C67.1133 81.8767 68.0078 81.5017 68.0078 80.7517C68.0078 80.4001 67.7031 80.1072 67.0938 79.8728C66.4922 79.6384 65.7539 79.4314 64.8789 79.2517C64.0039 79.0642 63.1328 78.8376 62.2656 78.572C61.4062 78.2986 60.6719 77.8611 60.0625 77.2595C59.4531 76.658 59.1484 75.908 59.1484 75.0095ZM73.5156 75.0095C73.5156 72.4861 75.5508 71.2244 79.6211 71.2244C83.9023 71.2244 86.043 72.3455 86.043 74.5876C86.043 74.7908 85.9766 74.9626 85.8438 75.1033C85.7109 75.2361 85.5391 75.3025 85.3281 75.3025H83.582C83.0195 75.3025 82.5469 75.0681 82.1641 74.5994C81.7812 74.1228 81.0273 73.8845 79.9023 73.8845C78.3555 73.8845 77.582 74.2595 77.582 75.0095C77.582 75.3611 77.8828 75.6541 78.4844 75.8884C79.0938 76.1228 79.832 76.3298 80.6992 76.5095C81.5742 76.6814 82.4453 76.9041 83.3125 77.1775C84.1797 77.4509 84.9141 77.8884 85.5156 78.49C86.125 79.0837 86.4297 79.8376 86.4297 80.7517C86.4297 83.2751 84.2812 84.5369 79.9844 84.5369C75.6875 84.5369 73.5391 83.4197 73.5391 81.1853C73.5391 80.9744 73.6055 80.8025 73.7383 80.6697C73.8789 80.5291 74.0547 80.4587 74.2656 80.4587H76.0117C76.5742 80.4587 77.0469 80.697 77.4297 81.1736C77.8125 81.6423 78.5664 81.8767 79.6914 81.8767C81.4805 81.8767 82.375 81.5017 82.375 80.7517C82.375 80.4001 82.0703 80.1072 81.4609 79.8728C80.8594 79.6384 80.1211 79.4314 79.2461 79.2517C78.3711 79.0642 77.5 78.8376 76.6328 78.572C75.7734 78.2986 75.0391 77.8611 74.4297 77.2595C73.8203 76.658 73.5156 75.908 73.5156 75.0095ZM88.6094 69.0095V68.6111C88.6094 68.197 88.7266 67.8689 88.9609 67.6267C89.2031 67.3845 89.5352 67.2634 89.957 67.2634H91.4102C91.8242 67.2634 92.1523 67.3845 92.3945 67.6267C92.6367 67.8611 92.7578 68.1892 92.7578 68.6111V69.0095C92.7578 69.4236 92.6367 69.7517 92.3945 69.9939C92.1602 70.2361 91.832 70.3572 91.4102 70.3572H89.957C89.543 70.3572 89.2148 70.2361 88.9727 69.9939C88.7305 69.7517 88.6094 69.4236 88.6094 69.0095ZM88.6562 83.5876V72.4666C88.6562 72.2556 88.7227 72.0837 88.8555 71.9509C88.9961 71.8181 89.168 71.7517 89.3711 71.7517H91.9961C92.207 71.7517 92.3789 71.822 92.5117 71.9626C92.6445 72.0955 92.7109 72.2634 92.7109 72.4666V83.5876C92.7109 83.7986 92.6406 83.9705 92.5 84.1033C92.3672 84.2361 92.1992 84.3025 91.9961 84.3025H89.3711C89.1602 84.3025 88.9883 84.2361 88.8555 84.1033C88.7227 83.9705 88.6562 83.7986 88.6562 83.5876ZM96.4609 83.4587C95.4297 82.74 94.9141 81.7244 94.9141 80.4119C94.9141 79.0994 95.4297 78.0916 96.4609 77.3884C97.5 76.6853 98.8359 76.3337 100.469 76.3337H104.348C104.348 75.4197 104.156 74.783 103.773 74.4236C103.391 74.0642 102.719 73.8845 101.758 73.8845C100.805 73.8845 100.133 74.1228 99.7422 74.5994C99.3594 75.0681 98.8867 75.3025 98.3242 75.3025H96.5781C96.3672 75.3025 96.1914 75.2361 96.0508 75.1033C95.918 74.9626 95.8516 74.7908 95.8516 74.5876C95.8516 72.3455 97.9805 71.2244 102.238 71.2244C104.098 71.2244 105.59 71.6423 106.715 72.4783C107.84 73.3064 108.402 74.5916 108.402 76.3337V83.5876C108.402 83.7986 108.336 83.9705 108.203 84.1033C108.07 84.2361 107.898 84.3025 107.688 84.3025H105.426C105.215 84.3025 105.043 84.2361 104.91 84.1033C104.777 83.9626 104.711 83.7908 104.711 83.5876V83.2244C103.477 84.1072 102.051 84.5447 100.434 84.5369C98.8242 84.5369 97.5 84.1775 96.4609 83.4587ZM100.75 78.9939C100.203 78.9939 99.7695 79.1267 99.4492 79.3923C99.1367 79.658 98.9805 80.0017 98.9805 80.4236C98.9805 80.8455 99.1445 81.1931 99.4727 81.4666C99.8008 81.74 100.266 81.8767 100.867 81.8767C102.07 81.8767 103.23 81.5251 104.348 80.822V78.9939H100.75ZM111.297 83.5876V72.1853C111.297 71.9744 111.363 71.8025 111.496 71.6697C111.637 71.5291 111.809 71.4587 112.012 71.4587H114.637C114.84 71.4587 115.008 71.5291 115.141 71.6697C115.281 71.8025 115.352 71.9744 115.352 72.1853V72.9236C116.695 71.7908 118.125 71.2244 119.641 71.2244C121.164 71.2244 122.402 71.6892 123.355 72.6189C124.309 73.5408 124.785 74.9548 124.785 76.8611V83.5876C124.785 83.7908 124.715 83.9626 124.574 84.1033C124.441 84.2361 124.27 84.3025 124.059 84.3025H121.445C121.242 84.3025 121.07 84.2361 120.93 84.1033C120.797 83.9626 120.73 83.7908 120.73 83.5876V76.8611C120.73 74.9939 119.984 74.0603 118.492 74.0603C117.516 74.0603 116.469 74.6189 115.352 75.7361V83.5876C115.352 83.7908 115.281 83.9626 115.141 84.1033C115.008 84.2361 114.84 84.3025 114.637 84.3025H112.012C111.809 84.3025 111.637 84.2361 111.496 84.1033C111.363 83.9626 111.297 83.7908 111.297 83.5876ZM34.5977 106.177V91.5876C34.5977 91.283 34.707 91.0251 34.9258 90.8142C35.1445 90.6033 35.4062 90.4978 35.7109 90.4978H49.2227C49.5273 90.4978 49.7852 90.6072 49.9961 90.8259C50.2148 91.0447 50.3242 91.3064 50.3242 91.6111V92.7126C50.3242 93.0173 50.2148 93.2791 49.9961 93.4978C49.7852 93.7087 49.5273 93.8142 49.2227 93.8142H39.0156V97.9392H47.3242C47.6289 97.9392 47.8867 98.0486 48.0977 98.2673C48.3164 98.4861 48.4258 98.7439 48.4258 99.0408V100.154C48.4258 100.459 48.3164 100.72 48.0977 100.939C47.8867 101.15 47.6289 101.256 47.3242 101.256H39.0156V106.177C39.0156 106.498 38.9062 106.767 38.6875 106.986C38.4766 107.197 38.2188 107.302 37.9141 107.302H35.7109C35.4062 107.302 35.1445 107.197 34.9258 106.986C34.707 106.767 34.5977 106.498 34.5977 106.177ZM60.3086 97.4353L58.5039 97.365C57.4492 97.365 56.4414 97.9431 55.4805 99.0994V106.588C55.4805 106.799 55.4102 106.97 55.2695 107.103C55.1367 107.236 54.9688 107.302 54.7656 107.302H52.1406C51.9297 107.302 51.7578 107.236 51.625 107.103C51.4922 106.97 51.4258 106.799 51.4258 106.588V95.1853C51.4258 94.9744 51.4922 94.8025 51.625 94.6697C51.7656 94.5291 51.9375 94.4587 52.1406 94.4587H54.7656C54.9766 94.4587 55.1484 94.5291 55.2812 94.6697C55.4141 94.8025 55.4805 94.9744 55.4805 95.1853V95.9236C56.2773 95.3455 57.043 94.9197 57.7773 94.6462C58.5195 94.365 59.4883 94.2244 60.6836 94.2244C60.8945 94.2244 61.0664 94.2947 61.1992 94.4353C61.3398 94.5681 61.4102 94.7361 61.4102 94.9392V96.7205C61.4102 96.9314 61.3398 97.1033 61.1992 97.2361C61.0664 97.3689 60.8945 97.4353 60.6836 97.4353H60.3086ZM63.0977 92.0095V91.6111C63.0977 91.197 63.2148 90.8689 63.4492 90.6267C63.6914 90.3845 64.0234 90.2634 64.4453 90.2634H65.8984C66.3125 90.2634 66.6406 90.3845 66.8828 90.6267C67.125 90.8611 67.2461 91.1892 67.2461 91.6111V92.0095C67.2461 92.4236 67.125 92.7517 66.8828 92.9939C66.6484 93.2361 66.3203 93.3572 65.8984 93.3572H64.4453C64.0312 93.3572 63.7031 93.2361 63.4609 92.9939C63.2188 92.7517 63.0977 92.4236 63.0977 92.0095ZM63.1445 106.588V95.4666C63.1445 95.2556 63.2109 95.0837 63.3438 94.9509C63.4844 94.8181 63.6562 94.7517 63.8594 94.7517H66.4844C66.6953 94.7517 66.8672 94.822 67 94.9626C67.1328 95.0955 67.1992 95.2634 67.1992 95.4666V106.588C67.1992 106.799 67.1289 106.97 66.9883 107.103C66.8555 107.236 66.6875 107.302 66.4844 107.302H63.8594C63.6484 107.302 63.4766 107.236 63.3438 107.103C63.2109 106.97 63.1445 106.799 63.1445 106.588ZM71.207 105.826C70.0039 104.685 69.4023 103.045 69.4023 100.904C69.4023 98.7556 70.0078 97.1072 71.2188 95.9587C72.4297 94.8025 74.1094 94.2244 76.2578 94.2244C78.4062 94.2244 80.082 94.7869 81.2852 95.9119C82.4883 97.0291 83.0898 98.6345 83.0898 100.728V101.396C83.0898 101.607 83.0195 101.783 82.8789 101.924C82.7461 102.056 82.5742 102.123 82.3633 102.123H73.5391C73.6172 103.084 73.8906 103.783 74.3594 104.22C74.8359 104.658 75.5938 104.877 76.6328 104.877C77.6719 104.877 78.3828 104.642 78.7656 104.174C79.1484 103.705 79.6211 103.467 80.1836 103.459H81.9297C82.1406 103.459 82.3125 103.529 82.4453 103.67C82.5859 103.802 82.6562 103.974 82.6562 104.185C82.6562 106.427 80.5195 107.545 76.2461 107.537C74.0898 107.537 72.4102 106.967 71.207 105.826ZM73.5156 99.6501H78.9648C78.8867 97.8064 77.9805 96.8845 76.2461 96.8845C74.5195 96.8845 73.6094 97.8064 73.5156 99.6501ZM85.2461 106.588V95.1853C85.2461 94.9744 85.3125 94.8025 85.4453 94.6697C85.5859 94.5291 85.7578 94.4587 85.9609 94.4587H88.5859C88.7891 94.4587 88.957 94.5291 89.0898 94.6697C89.2305 94.8025 89.3008 94.9744 89.3008 95.1853V95.9236C90.6445 94.7908 92.0742 94.2244 93.5898 94.2244C95.1133 94.2244 96.3516 94.6892 97.3047 95.6189C98.2578 96.5408 98.7344 97.9548 98.7344 99.8611V106.588C98.7344 106.791 98.6641 106.963 98.5234 107.103C98.3906 107.236 98.2188 107.302 98.0078 107.302H95.3945C95.1914 107.302 95.0195 107.236 94.8789 107.103C94.7461 106.963 94.6797 106.791 94.6797 106.588V99.8611C94.6797 97.9939 93.9336 97.0603 92.4414 97.0603C91.4648 97.0603 90.418 97.6189 89.3008 98.7361V106.588C89.3008 106.791 89.2305 106.963 89.0898 107.103C88.957 107.236 88.7891 107.302 88.5859 107.302H85.9609C85.7578 107.302 85.5859 107.236 85.4453 107.103C85.3125 106.963 85.2461 106.791 85.2461 106.588ZM106.645 107.537C105.012 107.537 103.645 106.963 102.543 105.814C101.449 104.666 100.902 103.021 100.902 100.881C100.902 98.7322 101.469 97.0876 102.602 95.947C103.742 94.7986 105.273 94.2244 107.195 94.2244C108.188 94.2244 109.316 94.4236 110.582 94.822V91.2244C110.582 91.0134 110.648 90.8416 110.781 90.7087C110.922 90.5681 111.094 90.4978 111.297 90.4978H113.91C114.121 90.4978 114.293 90.5681 114.426 90.7087C114.566 90.8416 114.637 91.0134 114.637 91.2244V106.588C114.637 106.791 114.566 106.963 114.426 107.103C114.293 107.236 114.121 107.302 113.91 107.302H111.66C111.449 107.302 111.277 107.236 111.145 107.103C111.012 106.963 110.945 106.791 110.945 106.588V106.224C109.711 107.099 108.277 107.537 106.645 107.537ZM108.039 97.0603C106.961 97.0603 106.199 97.365 105.754 97.9744C105.309 98.5759 105.086 99.5447 105.086 100.881C105.086 102.217 105.297 103.189 105.719 103.799C106.141 104.408 106.773 104.713 107.617 104.713C108.469 104.713 109.457 104.361 110.582 103.658V97.5291C109.574 97.2166 108.727 97.0603 108.039 97.0603Z" fill="url(#paint0_linear)"/>
<path d="M72.4523 24.4391C69.7297 22.1419 67.2316 19.5938 64.993 16.828C62.2125 18.8691 59.2382 20.6641 56.0991 22.175C57.9961 25.1374 60.1775 27.901 62.6067 30.4319C66.1134 28.7831 69.4089 26.7667 72.4523 24.4391Z" fill="url(#paint1_linear)"/>
<path d="M60.6959 45.2197C64.648 44.1585 68.4778 42.6665 72.0169 40.7899C68.4245 38.5634 65.0983 35.9527 62.1093 33.0034C59.0771 34.3277 55.9061 35.3904 52.623 36.1692C54.9852 39.4817 57.6545 42.5204 60.6959 45.2197Z" fill="#FF3E28"/>
<path d="M74.1661 39.5847V39.5846C77.7767 37.4541 81.1135 34.9159 84.1181 32.0376C80.5736 30.3121 77.0882 28.5064 74.1661 26.5368V26.537C71.2439 28.5066 67.7587 30.3123 64.2141 32.0378C67.2187 34.9162 70.5555 37.4542 74.1661 39.5847Z" fill="url(#paint2_linear)"/>
<path d="M69.2033 53.831C65.9947 52.0347 62.9789 49.9402 60.2 47.5749C58.4267 48.0122 56.6196 48.3622 54.7854 48.629C54.9212 48.8361 55.0726 49.0318 55.215 49.2342C56.3912 50.8274 59.8063 55.0222 63.1611 55.0222C67.302 55.0222 69.1891 53.8304 69.1891 53.8304L69.2033 53.831Z" fill="url(#paint3_linear)"/>
<path d="M72.7686 6.70398C71.6856 5.35673 70.6715 3.95357 69.7157 2.50925C69.7157 2.50925 64.0938 7.38171 64.2151 12.1724C64.5972 12.7273 64.9719 13.2879 65.3747 13.8274C68.0618 11.6899 70.5374 9.3044 72.7686 6.70398Z" fill="url(#paint4_linear)"/>
<path d="M74.1653 5.40576V5.40565C74.8791 4.50171 75.5618 3.57238 76.2301 2.63317C76.3944 1.13526 74.1653 0.840279 74.1653 0.840279V0.840387C74.1653 0.840387 71.9362 1.13548 72.1004 2.63328C72.7688 3.5726 73.4515 4.50183 74.1653 5.40576Z" fill="url(#paint5_linear)"/>
<path d="M58.2 45.7866C56.1063 43.8252 54.1895 41.6876 52.423 39.4278C52.405 39.4218 52.3844 39.4212 52.3714 39.4048C52.2177 39.2091 52.0121 39.3591 52 39.591C52.3369 41.2274 53.1849 44.6303 54.5385 45.402C56.1069 46.2961 57.794 45.9021 58.2 45.7866Z" fill="url(#paint6_linear)"/>
<path d="M55.165 33.2643C56.993 32.7201 58.7857 32.0946 60.5254 31.365C58.4011 29.0922 56.4806 26.6343 54.7592 24.0348C54.7278 24.0023 54.6946 23.9639 54.6565 23.9066C54.3073 23.3823 53.5123 23.5928 53.4712 24.3079C53.2327 26.9313 52.8343 33.7253 55.165 33.2643Z" fill="url(#paint7_linear)"/>
<path d="M63.668 15.1382C62.7216 13.8726 61.8471 12.5531 61.0112 11.2077C60.9892 11.191 60.966 11.1673 60.9404 11.1263C60.6479 10.6587 60.1458 10.8299 59.9784 11.0988C59.1315 12.773 57.3883 16.5909 57.8545 18.8435C59.873 17.7262 61.8181 16.4935 63.668 15.1382Z" fill="url(#paint8_linear)"/>
<path d="M75.8787 24.4392C78.9221 26.7667 82.2175 28.7831 85.7243 30.4319C88.1535 27.9011 90.3348 25.1374 92.2319 22.1751C89.0927 20.6641 86.1184 18.8691 83.338 16.828C81.0994 19.5939 78.6012 22.1419 75.8787 24.4392Z" fill="url(#paint9_linear)"/>
<path d="M95.7081 36.1691C92.425 35.3904 89.254 34.3276 86.2218 33.0033C83.2328 35.9526 79.9067 38.5633 76.3142 40.7898C79.8533 42.6663 83.6831 44.1585 87.6352 45.2197C90.6766 42.5204 93.3459 39.4816 95.7081 36.1691Z" fill="url(#paint10_linear)"/>
<path d="M74.1658 23.0809C76.8992 20.8102 79.4 18.2744 81.6345 15.5172C78.9285 13.3673 76.6081 11.3794 74.1658 9.08528V9.08551C71.7234 11.3796 69.4031 13.3674 66.697 15.5173C68.9315 18.2746 71.4323 20.8103 74.1658 23.0811V23.0809Z" fill="url(#paint11_linear)"/>
<path d="M79.1282 53.831L79.1424 53.8304C79.1424 53.8304 81.0295 55.0222 85.1703 55.0222C88.5252 55.0222 91.9403 50.8273 93.1165 49.2342C93.2589 49.0317 93.4103 48.836 93.5461 48.6289C91.7119 48.3621 89.9047 48.0121 88.1314 47.5749C85.3526 49.9402 82.3368 52.0346 79.1282 53.831Z" fill="url(#paint12_linear)"/>
<path d="M74.1659 53.9551V53.9549C78.2841 52.0703 82.1265 49.6921 85.6079 46.8867C81.5864 45.6932 77.6167 44.3783 74.1659 42.7655C74.1659 42.7656 74.1659 42.7656 74.1659 42.7656V42.7657C70.715 44.3785 66.7454 45.6933 62.7239 46.8868C66.2053 49.6923 70.0477 52.0704 74.1659 53.9551Z" fill="url(#paint13_linear)"/>
<path d="M74.1657 55.5009V55.5011C74.1657 55.5011 68.2611 56.6453 65.4738 56.3792C66.6659 57.0338 67.7926 57.3839 68.5889 57.5848C68.5867 57.5854 68.5846 57.5863 68.5824 57.587C68.6189 57.596 68.6564 57.602 68.693 57.6107C69.0292 57.6932 69.3059 57.751 69.4828 57.7896L69.4957 57.7832C71.0047 58.0915 72.5646 58.2642 74.1657 58.2642V58.2639C75.7668 58.2639 77.3268 58.0913 78.8358 57.7831L78.8487 57.7893C79.0255 57.7507 79.3022 57.6929 79.6384 57.6106C79.675 57.6017 79.7126 57.5958 79.7491 57.5868C79.7468 57.5861 79.7447 57.5853 79.7426 57.5845C80.5388 57.3836 81.6657 57.0337 82.8576 56.3791C80.0704 56.6451 74.1657 55.5009 74.1657 55.5009Z" fill="url(#paint14_linear)"/>
<path d="M82.9564 13.8274C83.3592 13.2879 83.7338 12.7274 84.116 12.1725C84.2373 7.38171 78.6154 2.50937 78.6154 2.50937C77.6596 3.95358 76.6455 5.35673 75.5625 6.70398C77.7937 9.3044 80.2693 11.69 82.9564 13.8274Z" fill="url(#paint15_linear)"/>
<path d="M95.9597 39.4048C95.9467 39.4213 95.9261 39.4217 95.9081 39.4277C94.1417 41.6876 92.2248 43.8251 90.1311 45.7865C90.5371 45.902 92.2243 46.2962 93.7926 45.4019C95.1462 44.6302 95.9943 41.2274 96.3311 39.5909C96.3191 39.359 96.1134 39.2091 95.9597 39.4048Z" fill="url(#paint16_linear)"/>
<path d="M93.1663 33.2643C95.497 33.7253 95.0986 26.9312 94.86 24.3079C94.819 23.5928 94.024 23.3822 93.6748 23.9066C93.6366 23.9638 93.6035 24.0023 93.5721 24.0347C91.8507 26.6343 89.9302 29.0921 87.8059 31.3649C89.5455 32.0946 91.3383 32.7201 93.1663 33.2643Z" fill="url(#paint17_linear)"/>
<path d="M88.3524 11.0988C88.185 10.83 87.6828 10.6589 87.3905 11.1263C87.3648 11.1673 87.3417 11.191 87.3196 11.2077C86.4838 12.5532 85.6092 13.8728 84.6628 15.1382C86.5128 16.4936 88.4578 17.7262 90.4763 18.8435C90.9425 16.591 89.1993 12.7731 88.3524 11.0988Z" fill="url(#paint18_linear)"/>
<defs>
<linearGradient id="paint0_linear" x1="75" y1="64.3025" x2="75" y2="35.2157" gradientUnits="userSpaceOnUse">
<stop offset="0.471875" stop-color="#455A64"/>
<stop offset="1" stop-color="#455A64" stop-opacity="0"/>
</linearGradient>
<linearGradient id="paint1_linear" x1="64.2757" y1="30.4319" x2="64.2757" y2="16.828" gradientUnits="userSpaceOnUse">
<stop offset="0.497917" stop-color="#006660"/>
<stop offset="1" stop-color="#30706C" stop-opacity="0"/>
</linearGradient>
<linearGradient id="paint2_linear" x1="74.1661" y1="39.5847" x2="74.1661" y2="26.5368" gradientUnits="userSpaceOnUse">
<stop offset="0.497917" stop-color="#006660"/>
<stop offset="1" stop-color="#30706C" stop-opacity="0"/>
</linearGradient>
<linearGradient id="paint3_linear" x1="61.9944" y1="55.0222" x2="61.9944" y2="47.5749" gradientUnits="userSpaceOnUse">
<stop offset="0.497917" stop-color="#006660"/>
<stop offset="1" stop-color="#30706C" stop-opacity="0"/>
</linearGradient>
<linearGradient id="paint4_linear" x1="68.4909" y1="13.8274" x2="68.4909" y2="2.50925" gradientUnits="userSpaceOnUse">
<stop offset="0.497917" stop-color="#006660"/>
<stop offset="1" stop-color="#30706C" stop-opacity="0"/>
</linearGradient>
<linearGradient id="paint5_linear" x1="74.1653" y1="5.40576" x2="74.1653" y2="0.840279" gradientUnits="userSpaceOnUse">
<stop offset="0.497917" stop-color="#006660"/>
<stop offset="1" stop-color="#30706C" stop-opacity="0"/>
</linearGradient>
<linearGradient id="paint6_linear" x1="55.1" y1="45.9729" x2="55.1" y2="39.3145" gradientUnits="userSpaceOnUse">
<stop offset="0.497917" stop-color="#006660"/>
<stop offset="1" stop-color="#30706C" stop-opacity="0"/>
</linearGradient>
<linearGradient id="paint7_linear" x1="56.9056" y1="33.2866" x2="56.9056" y2="23.6146" gradientUnits="userSpaceOnUse">
<stop offset="0.497917" stop-color="#006660"/>
<stop offset="1" stop-color="#30706C" stop-opacity="0"/>
</linearGradient>
<linearGradient id="paint8_linear" x1="60.7223" y1="18.8435" x2="60.7223" y2="10.8338" gradientUnits="userSpaceOnUse">
<stop offset="0.497917" stop-color="#006660"/>
<stop offset="1" stop-color="#30706C" stop-opacity="0"/>
</linearGradient>
<linearGradient id="paint9_linear" x1="84.0553" y1="30.4319" x2="84.0553" y2="16.828" gradientUnits="userSpaceOnUse">
<stop offset="0.497917" stop-color="#006660"/>
<stop offset="1" stop-color="#30706C" stop-opacity="0"/>
</linearGradient>
<linearGradient id="paint10_linear" x1="86.0111" y1="45.2197" x2="86.0111" y2="33.0033" gradientUnits="userSpaceOnUse">
<stop offset="0.497917" stop-color="#006660"/>
<stop offset="1" stop-color="#30706C" stop-opacity="0"/>
</linearGradient>
<linearGradient id="paint11_linear" x1="74.1658" y1="23.0811" x2="74.1658" y2="9.08528" gradientUnits="userSpaceOnUse">
<stop offset="0.497917" stop-color="#006660"/>
<stop offset="1" stop-color="#30706C" stop-opacity="0"/>
</linearGradient>
<linearGradient id="paint12_linear" x1="86.3371" y1="55.0222" x2="86.3371" y2="47.5749" gradientUnits="userSpaceOnUse">
<stop offset="0.497917" stop-color="#006660"/>
<stop offset="1" stop-color="#30706C" stop-opacity="0"/>
</linearGradient>
<linearGradient id="paint13_linear" x1="74.1659" y1="53.9551" x2="74.1659" y2="42.7655" gradientUnits="userSpaceOnUse">
<stop offset="0.497917" stop-color="#006660"/>
<stop offset="1" stop-color="#30706C" stop-opacity="0"/>
</linearGradient>
<linearGradient id="paint14_linear" x1="74.1657" y1="58.2642" x2="74.1657" y2="55.5009" gradientUnits="userSpaceOnUse">
<stop offset="0.497917" stop-color="#006660"/>
<stop offset="1" stop-color="#30706C" stop-opacity="0"/>
</linearGradient>
<linearGradient id="paint15_linear" x1="79.8402" y1="13.8274" x2="79.8402" y2="2.50937" gradientUnits="userSpaceOnUse">
<stop offset="0.497917" stop-color="#006660"/>
<stop offset="1" stop-color="#30706C" stop-opacity="0"/>
</linearGradient>
<linearGradient id="paint16_linear" x1="93.2311" y1="45.9729" x2="93.2311" y2="39.3144" gradientUnits="userSpaceOnUse">
<stop offset="0.497917" stop-color="#006660"/>
<stop offset="1" stop-color="#30706C" stop-opacity="0"/>
</linearGradient>
<linearGradient id="paint17_linear" x1="91.4256" y1="33.2866" x2="91.4256" y2="23.6146" gradientUnits="userSpaceOnUse">
<stop offset="0.497917" stop-color="#006660"/>
<stop offset="1" stop-color="#30706C" stop-opacity="0"/>
</linearGradient>
<linearGradient id="paint18_linear" x1="87.6085" y1="18.8435" x2="87.6085" y2="10.8339" gradientUnits="userSpaceOnUse">
<stop offset="0.497917" stop-color="#006660"/>
<stop offset="1" stop-color="#30706C" stop-opacity="0"/>
</linearGradient>
</defs>
</svg>
