<svg width="14" height="19" viewBox="0 0 14 19" fill="none" xmlns="http://www.w3.org/2000/svg">
<path d="M2.70773 17.423C3.96254 18.4398 5.79839 18.6593 7.39317 18.6593C8.98795 18.6593 10.8238 18.4306 12.0786 17.423C13.3334 16.4154 13.9763 14.7898 13.9639 12.8983C13.9639 10.7565 13.1016 8.80315 11.9457 6.99512C11.3214 6.01538 11.411 5.21181 11.411 4.13317C11.4112 3.05459 10.9777 2.02123 10.2081 1.26556C9.43851 0.509899 8.39739 0.0953974 7.319 0.11531C5.10075 0.202129 3.35356 2.03695 3.37531 4.25679C3.37531 5.30144 3.44949 6.03083 2.80972 7.03839C1.68472 8.79079 0.834792 10.8028 0.822429 12.8921C0.810066 14.7774 1.49928 16.4278 2.70773 17.423ZM7.39317 18.0411C4.8681 18.0411 2.78809 17.5157 1.85471 15.1915C1.92804 15.1249 1.96494 15.0271 1.95393 14.9285C1.94292 14.83 1.88533 14.7428 1.79908 14.694L1.66 14.6105C1.6037 14.4173 1.55728 14.2213 1.52092 14.0233C2.26577 14.4251 3.91 14.9505 7.39317 14.9505C10.8763 14.9505 12.5082 14.4189 13.2654 14.0233C13.2333 14.2231 13.1911 14.4212 13.1387 14.6167L12.9996 14.7001C12.9134 14.749 12.8558 14.8362 12.8448 14.9347C12.8338 15.0332 12.8707 15.131 12.944 15.1977C11.9983 17.5095 9.9306 18.0411 7.39317 18.0411ZM3.32895 7.366C4.08926 6.18227 3.99345 5.2458 3.99345 4.25679C3.96753 2.34828 5.48495 0.775681 7.39317 0.733442C8.29484 0.733442 9.15957 1.09163 9.79714 1.7292C10.4347 2.36677 10.7929 3.2315 10.7929 4.13317C10.7929 5.30453 10.7064 6.20082 11.411 7.31655C11.7165 7.79044 11.9961 8.28051 12.2486 8.78461C11.3554 9.03804 8.58308 9.64381 7.65588 7.70906C7.60424 7.60244 7.49619 7.53471 7.37772 7.53471C7.25925 7.53471 7.1512 7.60244 7.09956 7.70906C6.17236 9.63763 3.39077 9.03495 2.50684 8.78461C2.75401 8.29667 3.02848 7.82305 3.32895 7.366ZM9.55663 10.7039C8.80629 10.8841 8.02947 10.5313 7.67133 9.8478C7.61566 9.75397 7.51464 9.69645 7.40554 9.69645C7.29643 9.69645 7.19541 9.75397 7.13974 9.8478C6.77915 10.5421 5.98795 10.8968 5.22971 10.7039C5.28005 10.3332 5.36068 9.96732 5.47078 9.60982C6.23628 9.48997 6.92543 9.07781 7.39317 8.46009C7.85556 9.0779 8.53878 9.49315 9.30011 9.61909C9.41705 9.97253 9.50288 10.3355 9.55663 10.7039ZM2.2565 9.35329C3.08471 9.60821 3.94945 9.72414 4.81556 9.69635C4.6985 10.0988 4.63002 10.5139 4.61158 10.9326C4.61146 11.0593 4.68862 11.1732 4.80629 11.2201C5.72592 11.5691 6.76573 11.2946 7.39317 10.537C8.02062 11.2946 9.06043 11.5691 9.98005 11.2201C10.0977 11.1732 10.1749 11.0593 10.1748 10.9326C10.1549 10.5138 10.0854 10.0988 9.96769 9.69635C10.8347 9.7317 11.7014 9.61775 12.5298 9.35947C13.457 11.4518 13.3458 12.9632 13.3458 12.8983V13.2073C13.3241 13.2228 12.3382 14.3323 7.39317 14.3323C2.44812 14.3323 1.4622 13.2228 1.45911 13.2197C1.41937 11.8863 1.69246 10.5622 2.2565 9.35329Z" fill="black"/>
<path d="M7.39283 6.91481C8.24689 6.91463 9.05352 6.52212 9.5807 5.85018C10.1079 5.17824 10.2971 4.30137 10.0941 3.47181C10.0941 3.47181 10.0941 3.47181 10.0941 3.45327C9.77948 2.22173 8.67009 1.36011 7.39901 1.36011C6.12793 1.36011 5.01854 2.22173 4.70396 3.45327V3.47181C4.50138 4.29927 4.68916 5.17393 5.2135 5.84533C5.73785 6.51674 6.54095 6.91084 7.39283 6.91481ZM7.39283 6.29667C6.77439 6.29662 6.18554 6.0319 5.775 5.56938C5.36447 5.10686 5.17149 4.49076 5.24482 3.87669C6.10712 3.95704 6.95087 3.72525 7.40828 2.97731C7.85025 3.72525 8.694 3.95704 9.57175 3.87669C9.64578 4.49615 9.4488 5.11742 9.03136 5.58105C8.61391 6.04468 8.01664 6.30554 7.39283 6.29667ZM9.37394 3.26783C8.44675 3.32037 7.82861 2.95876 7.72662 1.99757C8.45662 2.1119 9.07779 2.59088 9.37394 3.26783ZM7.05904 1.99757C6.95396 2.87531 6.44091 3.32655 5.41172 3.26783C5.70788 2.59088 6.32904 2.1119 7.05904 1.99757Z" fill="black"/>
<path d="M5.084 15.4727C4.88311 15.4542 4.69149 15.4356 4.50914 15.4109C4.39872 15.3977 4.28962 15.4443 4.22294 15.5333C4.15625 15.6223 4.14212 15.7401 4.18585 15.8424C4.22958 15.9446 4.32455 16.0158 4.43496 16.029C4.6204 16.0507 4.81821 16.0723 5.02528 16.0909C5.1357 16.1013 5.24333 16.0521 5.30762 15.9618C5.37191 15.8714 5.38311 15.7536 5.33698 15.6527C5.29086 15.5518 5.19442 15.4832 5.084 15.4727Z" fill="black"/>
<path d="M11.961 15.0895C11.7972 15.1358 11.6148 15.1822 11.4108 15.2255C11.3004 15.2486 11.2107 15.329 11.1756 15.4362C11.1405 15.5434 11.1652 15.6612 11.2405 15.7453C11.3158 15.8293 11.4302 15.8668 11.5406 15.8436C11.757 15.8003 11.9517 15.7509 12.1279 15.7014C12.2102 15.6788 12.2794 15.6231 12.3192 15.5476C12.359 15.472 12.3658 15.3834 12.338 15.3027C12.2915 15.1407 12.1238 15.0458 11.961 15.0895Z" fill="black"/>
<path d="M10.2827 15.4109L9.70788 15.4727C9.53718 15.4889 9.41195 15.6405 9.42817 15.8112C9.44439 15.9818 9.59591 16.1071 9.7666 16.0909C9.97367 16.0723 10.1715 16.0507 10.3569 16.029C10.4386 16.019 10.5129 15.9769 10.5633 15.9119C10.6138 15.8469 10.6363 15.7645 10.6258 15.6829C10.6165 15.6013 10.5751 15.5267 10.5107 15.4757C10.4464 15.4247 10.3643 15.4014 10.2827 15.4109Z" fill="black"/>
<path d="M3.37537 15.2257C3.17448 15.1824 2.98904 15.1392 2.82523 15.0928C2.71629 15.0532 2.59438 15.0779 2.50944 15.1568C2.4245 15.2356 2.39082 15.3554 2.4222 15.467C2.45358 15.5785 2.54474 15.6632 2.65834 15.6862C2.8345 15.7356 3.02922 15.7851 3.24556 15.8315C3.41625 15.8673 3.58369 15.758 3.61953 15.5873C3.65538 15.4166 3.54606 15.2492 3.37537 15.2133V15.2257Z" fill="black"/>
<path d="M8.55499 15.5468H7.97704C7.80634 15.5468 7.66797 15.6852 7.66797 15.8559C7.66797 16.0266 7.80634 16.165 7.97704 16.165H8.57353C8.74423 16.165 8.8826 16.0266 8.8826 15.8559C8.88275 15.7706 8.84766 15.689 8.78562 15.6305C8.72359 15.572 8.64012 15.5417 8.55499 15.5468Z" fill="black"/>
<path d="M6.81475 15.5686H6.2368C6.06611 15.5686 5.92773 15.707 5.92773 15.8777C5.92773 16.0484 6.06611 16.1867 6.2368 16.1867H6.8333C7.00399 16.1867 7.14236 16.0484 7.14236 15.8777C7.14236 15.707 7.00399 15.5686 6.8333 15.5686H6.81475Z" fill="black"/>
<path d="M2.96103 13.2136C4.07985 13.8904 5.00395 12.6974 4.27765 11.2603C4.22741 11.1614 4.12826 11.0969 4.01756 11.091C3.90685 11.0851 3.80141 11.1387 3.74094 11.2316C3.68048 11.3246 3.67418 11.4427 3.72442 11.5415C4.07676 12.2338 3.94386 13.0868 3.27936 12.6851C3.04012 12.5266 2.84795 12.3067 2.72305 12.0484C2.67851 11.9414 2.5779 11.8684 2.46242 11.8591C2.34694 11.8499 2.23598 11.906 2.17498 12.0044C2.11398 12.1029 2.11318 12.2273 2.17291 12.3265C2.34781 12.6899 2.62079 12.9971 2.96103 13.2136Z" fill="black"/>
<path d="M10.7928 13.3092C11.4758 13.6554 12.2547 13.0373 12.6132 12.3264C12.6754 12.177 12.6118 12.0048 12.4673 11.9318C12.3228 11.8588 12.1465 11.9096 12.063 12.0483C11.9381 12.3066 11.746 12.5265 11.5067 12.6849C10.8422 13.096 10.7093 12.2337 11.0617 11.5507C11.1119 11.4518 11.1056 11.3337 11.0451 11.2408C10.9847 11.1479 10.8792 11.0943 10.7685 11.1002C10.6578 11.1061 10.5587 11.1706 10.5084 11.2694C10.0788 12.1101 10.2025 13.0125 10.7928 13.3092Z" fill="black"/>
<path d="M6.4658 4.75131C6.29511 4.75131 6.15674 4.61294 6.15674 4.44225C6.15674 4.27155 6.29511 4.13318 6.4658 4.13318C6.6365 4.13318 6.77487 4.27155 6.77487 4.44225C6.77487 4.61294 6.6365 4.75131 6.4658 4.75131Z" fill="black"/>
<path d="M8.32005 4.75131C8.14936 4.75131 8.01099 4.61294 8.01099 4.44225C8.01099 4.27155 8.14936 4.13318 8.32005 4.13318C8.49074 4.13318 8.62911 4.27155 8.62911 4.44225C8.62911 4.61294 8.49074 4.75131 8.32005 4.75131Z" fill="black"/>
</svg>
