<svg width="19" height="25" viewBox="0 0 19 25" fill="none" xmlns="http://www.w3.org/2000/svg">
<path d="M3.18349 23.3333C4.87516 24.7041 7.35016 25 9.50016 25C11.6502 25 14.1252 24.6916 15.8168 23.3333C17.5085 21.975 18.3752 19.7833 18.3585 17.2333C18.3585 14.3458 17.196 11.7125 15.6377 9.27498C14.796 7.95415 14.9168 6.87081 14.9168 5.41665C14.9171 3.96256 14.3327 2.56944 13.2951 1.55069C12.2576 0.531944 10.854 -0.0268663 9.40016 -2.16664e-05C6.40963 0.117023 4.05416 2.59064 4.08349 5.58331C4.08349 6.99165 4.18349 7.97498 3.32099 9.33331C1.80432 11.6958 0.658489 14.4083 0.641822 17.225C0.625155 19.7666 1.55432 21.9916 3.18349 23.3333ZM9.50016 24.1666C6.09599 24.1666 3.29182 23.4583 2.03349 20.325C2.13235 20.2351 2.1821 20.1032 2.16725 19.9704C2.1524 19.8376 2.07477 19.72 1.95849 19.6541L1.77099 19.5416C1.69509 19.2811 1.63251 19.0169 1.58349 18.75C2.58766 19.2916 4.80432 20 9.50016 20C14.196 20 16.396 19.2833 17.4168 18.75C17.3736 19.0194 17.3166 19.2864 17.246 19.55L17.0585 19.6625C16.9422 19.7283 16.8646 19.8459 16.8497 19.9788C16.8349 20.1115 16.8846 20.2434 16.9835 20.3333C15.7085 23.45 12.921 24.1666 9.50016 24.1666ZM4.02099 9.77498C5.04599 8.17914 4.91682 6.91665 4.91682 5.58331C4.88188 3.01036 6.92759 0.890257 9.50016 0.833312C10.7157 0.833312 11.8815 1.3162 12.7411 2.17574C13.6006 3.03528 14.0835 4.20107 14.0835 5.41665C14.0835 6.99581 13.9668 8.20415 14.9168 9.70831C15.3286 10.3472 15.7056 11.0079 16.046 11.6875C14.8418 12.0291 11.1043 12.8458 9.85432 10.2375C9.7847 10.0937 9.63904 10.0024 9.47932 10.0024C9.31961 10.0024 9.17394 10.0937 9.10432 10.2375C7.85432 12.8375 4.10432 12.025 2.91266 11.6875C3.24588 11.0297 3.61591 10.3911 4.02099 9.77498ZM12.4168 14.275C11.4052 14.5179 10.358 14.0423 9.87516 13.1208C9.8001 12.9943 9.66391 12.9168 9.51682 12.9168C9.36974 12.9168 9.23355 12.9943 9.15849 13.1208C8.67236 14.0569 7.6057 14.535 6.58349 14.275C6.65136 13.7753 6.76006 13.2819 6.90849 12.8C7.9405 12.6384 8.86958 12.0828 9.50016 11.25C10.1235 12.0829 11.0446 12.6427 12.071 12.8125C12.2286 13.289 12.3444 13.7783 12.4168 14.275ZM2.57516 12.4541C3.69171 12.7978 4.8575 12.9541 6.02516 12.9166C5.86734 13.4592 5.77501 14.0188 5.75016 14.5833C5.74999 14.7541 5.85402 14.9076 6.01266 14.9708C7.25245 15.4414 8.65427 15.0713 9.50016 14.05C10.346 15.0713 11.7479 15.4414 12.9877 14.9708C13.1463 14.9076 13.2503 14.7541 13.2502 14.5833C13.2234 14.0187 13.1296 13.4592 12.971 12.9166C14.1399 12.9643 15.3083 12.8107 16.4252 12.4625C17.6752 15.2833 17.5252 17.3208 17.5252 17.2333V17.65C17.496 17.6708 16.1668 19.1666 9.50016 19.1666C2.83349 19.1666 1.50432 17.6708 1.50016 17.6666C1.44659 15.869 1.81476 14.0839 2.57516 12.4541Z" fill="black"/>
<path d="M9.50018 9.16663C10.6516 9.16639 11.739 8.63722 12.4497 7.73135C13.1605 6.82548 13.4156 5.64333 13.1418 4.52496C13.1418 4.52496 13.1418 4.52496 13.1418 4.49996C12.7177 2.83967 11.2221 1.67807 9.50851 1.67807C7.7949 1.67807 6.29928 2.83967 5.87517 4.49996V4.52496C5.60208 5.6405 5.85522 6.81966 6.56212 7.72482C7.26902 8.62997 8.35171 9.16128 9.50018 9.16663ZM9.50018 8.33329C8.66643 8.33322 7.87257 7.97634 7.31911 7.3528C6.76564 6.72925 6.50548 5.89866 6.60434 5.07079C7.76684 5.17913 8.90434 4.86663 9.52101 3.85829C10.1168 4.86663 11.2543 5.17913 12.4377 5.07079C12.5375 5.90592 12.2719 6.74348 11.7091 7.36853C11.1464 7.99357 10.3412 8.34524 9.50018 8.33329ZM12.171 4.24996C10.921 4.32079 10.0877 3.83329 9.95018 2.53746C10.9343 2.69159 11.7717 3.33734 12.171 4.24996ZM9.05018 2.53746C8.90851 3.72079 8.21684 4.32913 6.82934 4.24996C7.22861 3.33734 8.06603 2.69159 9.05018 2.53746Z" fill="black"/>
<path d="M6.38724 20.7041C6.1164 20.6791 5.85807 20.6541 5.61224 20.6208C5.46338 20.6029 5.31629 20.6658 5.22639 20.7858C5.13649 20.9058 5.11743 21.0646 5.17639 21.2025C5.23535 21.3403 5.36338 21.4363 5.51224 21.4541C5.76224 21.4833 6.0289 21.5125 6.30807 21.5375C6.45693 21.5516 6.60203 21.4853 6.68871 21.3634C6.77538 21.2416 6.79047 21.0827 6.72829 20.9467C6.66611 20.8108 6.5361 20.7183 6.38724 20.7041Z" fill="black"/>
<path d="M15.659 20.1875C15.4382 20.25 15.1924 20.3125 14.9174 20.3708C14.7685 20.4021 14.6476 20.5104 14.6003 20.6549C14.5529 20.7995 14.5863 20.9583 14.6878 21.0716C14.7893 21.1849 14.9435 21.2354 15.0924 21.2042C15.384 21.1458 15.6465 21.0792 15.884 21.0125C15.995 20.9819 16.0884 20.9069 16.142 20.8051C16.1957 20.7033 16.2049 20.5838 16.1674 20.475C16.1047 20.2566 15.8785 20.1287 15.659 20.1875Z" fill="black"/>
<path d="M13.3962 20.6208L12.6212 20.7041C12.3911 20.726 12.2222 20.9303 12.2441 21.1604C12.266 21.3905 12.4702 21.5593 12.7003 21.5375C12.9795 21.5125 13.2462 21.4833 13.4962 21.4541C13.6063 21.4406 13.7064 21.3838 13.7745 21.2962C13.8425 21.2086 13.8728 21.0975 13.8587 20.9875C13.8461 20.8775 13.7903 20.7769 13.7035 20.7081C13.6168 20.6393 13.5062 20.6079 13.3962 20.6208Z" fill="black"/>
<path d="M4.0838 20.3708C3.81296 20.3125 3.56296 20.2541 3.34213 20.1916C3.19526 20.1383 3.0309 20.1716 2.91639 20.2779C2.80188 20.3842 2.75647 20.5457 2.79878 20.6961C2.84108 20.8465 2.96399 20.9606 3.11713 20.9916C3.35463 21.0583 3.61713 21.125 3.9088 21.1875C4.13891 21.2358 4.36464 21.0884 4.41296 20.8583C4.46129 20.6282 4.31391 20.4025 4.0838 20.3541V20.3708Z" fill="black"/>
<path d="M11.0669 20.8041H10.2878C10.0576 20.8041 9.87109 20.9907 9.87109 21.2208C9.87109 21.4509 10.0576 21.6375 10.2878 21.6375H11.0919C11.322 21.6375 11.5086 21.4509 11.5086 21.2208C11.5088 21.1058 11.4615 20.9959 11.3779 20.917C11.2942 20.8381 11.1817 20.7972 11.0669 20.8041Z" fill="black"/>
<path d="M8.72122 20.8333H7.94206C7.71194 20.8333 7.52539 21.0199 7.52539 21.25C7.52539 21.4801 7.71194 21.6666 7.94206 21.6666H8.74622C8.97634 21.6666 9.16289 21.4801 9.16289 21.25C9.16289 21.0199 8.97634 20.8333 8.74622 20.8333H8.72122Z" fill="black"/>
<path d="M3.52547 17.6583C5.0338 18.5708 6.27964 16.9625 5.30047 15.025C5.23274 14.8918 5.09908 14.8048 4.94983 14.7968C4.80058 14.7889 4.65843 14.8611 4.57691 14.9864C4.4954 15.1117 4.48691 15.2709 4.55464 15.4042C5.02964 16.3375 4.85047 17.4875 3.95464 16.9458C3.6321 16.7322 3.37303 16.4358 3.20464 16.0875C3.1446 15.9433 3.00896 15.8448 2.85328 15.8323C2.69759 15.8199 2.548 15.8955 2.46576 16.0283C2.38352 16.161 2.38244 16.3287 2.46297 16.4625C2.69877 16.9523 3.06678 17.3665 3.52547 17.6583Z" fill="black"/>
<path d="M14.0833 17.7875C15.0041 18.2541 16.0541 17.4208 16.5374 16.4625C16.6213 16.261 16.5355 16.0289 16.3408 15.9305C16.146 15.832 15.9083 15.9005 15.7958 16.0875C15.6274 16.4357 15.3683 16.7322 15.0458 16.9458C14.1499 17.5 13.9708 16.3375 14.4458 15.4166C14.5135 15.2834 14.505 15.1242 14.4235 14.9989C14.342 14.8736 14.1998 14.8014 14.0506 14.8093C13.9013 14.8173 13.7677 14.9042 13.6999 15.0375C13.1208 16.1708 13.2874 17.3875 14.0833 17.7875Z" fill="black"/>
<path d="M8.24968 6.24999C8.01956 6.24999 7.83301 6.06344 7.83301 5.83332C7.83301 5.6032 8.01956 5.41666 8.24968 5.41666C8.47979 5.41666 8.66634 5.6032 8.66634 5.83332C8.66634 6.06344 8.47979 6.24999 8.24968 6.24999Z" fill="black"/>
<path d="M10.7497 6.24999C10.5196 6.24999 10.333 6.06344 10.333 5.83332C10.333 5.6032 10.5196 5.41666 10.7497 5.41666C10.9798 5.41666 11.1663 5.6032 11.1663 5.83332C11.1663 6.06344 10.9798 6.24999 10.7497 6.24999Z" fill="black"/>
</svg>
