<svg width="21" height="21" viewBox="0 0 21 21" fill="none" xmlns="http://www.w3.org/2000/svg">
<path d="M20.2596 12.2235C20.3673 11.6328 20.425 11.029 20.425 10.4252C20.425 9.08624 20.1625 7.78671 19.6453 6.56593C19.1465 5.38454 18.4298 4.32391 17.5188 3.41292C16.6154 2.50724 15.5445 1.78589 14.3658 1.28903C13.1424 0.771845 11.8455 0.509313 10.5066 0.509313C9.87648 0.509313 9.24378 0.569695 8.62946 0.687835C7.77941 0.23739 6.83225 0.00127642 5.87024 0C4.30292 0 2.82749 0.6117 1.7196 1.71959C1.17291 2.26347 0.739458 2.91033 0.444301 3.62276C0.149143 4.3352 -0.00186128 5.09907 1.73148e-05 5.87022C1.73148e-05 6.86785 0.257299 7.84972 0.737733 8.71607C0.640596 9.27789 0.58809 9.85284 0.58809 10.4252C0.58809 11.7641 0.850622 13.0636 1.36781 14.2844C1.86662 15.4658 2.58071 16.5264 3.4917 17.4374C4.40268 18.3484 5.46332 19.0625 6.64471 19.5613C7.86811 20.0785 9.16502 20.341 10.5039 20.341C11.0868 20.341 11.6696 20.2885 12.2419 20.1861C13.1214 20.6823 14.1138 20.9475 15.1298 20.9475C16.6971 20.9475 18.1725 20.3384 19.2804 19.2279C20.3909 18.12 21 16.6446 21 15.0772C21.0026 14.0796 20.7453 13.0951 20.2596 12.2235ZM17.9467 17.8942C17.1933 18.6503 16.1983 19.0598 15.1324 19.0598C14.4472 19.0598 13.7725 18.8813 13.1739 18.5427L12.5832 18.2092L11.9137 18.3274C11.4464 18.4114 10.9739 18.4534 10.5066 18.4534C9.41968 18.4534 8.37217 18.2407 7.3798 17.8207C6.42681 17.419 5.56833 16.8414 4.82799 16.1011C4.09512 15.3708 3.51111 14.505 3.1084 13.5519C2.68835 12.5622 2.47832 11.5147 2.47832 10.4278C2.47832 9.97098 2.52033 9.50367 2.59909 9.04161L2.7146 8.38266L2.38906 7.79721C2.06072 7.20799 1.88813 6.54475 1.88762 5.87022C1.88762 4.80434 2.2998 3.80934 3.05327 3.05588C3.80936 2.30241 4.80436 1.89023 5.87024 1.89023C6.524 1.892 7.16745 2.05331 7.74472 2.36017L8.33279 2.66995L8.98388 2.54394C9.48006 2.44943 9.992 2.39955 10.5066 2.39955C11.5934 2.39955 12.641 2.6122 13.6307 3.02962C14.5889 3.43392 15.4448 4.01149 16.1825 4.74921C16.9229 5.48693 17.5004 6.34541 17.9047 7.30102C18.3248 8.29077 18.5348 9.33828 18.5348 10.4252C18.5348 10.9082 18.4902 11.3965 18.4009 11.8822L18.2775 12.5517L18.6083 13.145C18.9391 13.7357 19.1124 14.4052 19.1124 15.0799C19.1124 16.1484 18.7002 17.1407 17.9467 17.8942ZM12.3758 9.27264L10.055 8.75808C9.1729 8.55593 8.1569 8.29077 8.1569 7.45854C8.1569 6.62632 8.86836 6.04349 10.1548 6.04349C12.746 6.04349 12.5097 7.82346 13.7961 7.82346C14.4734 7.82346 15.0667 7.42441 15.0667 6.74183C15.0667 5.14563 12.5097 3.94586 10.3412 3.94586C7.98625 3.94586 5.47907 4.94611 5.47907 7.60819C5.47907 8.88935 5.93587 10.2545 8.46143 10.8872L11.5961 11.6696C12.5438 11.9032 12.7827 12.4362 12.7827 12.9192C12.7827 13.7199 11.9872 14.5023 10.5459 14.5023C7.7316 14.5023 8.12277 12.3364 6.61583 12.3364C5.9385 12.3364 5.44756 12.8037 5.44756 13.4679C5.44756 14.7648 7.02276 16.4975 10.5459 16.4975C13.8985 16.4975 15.5603 14.883 15.5603 12.7171C15.5603 11.323 14.9171 9.83971 12.3758 9.27264Z" fill="black" fill-opacity="0.55"/>
</svg>
