<svg width="1440" height="83" viewBox="0 0 1440 83" fill="none" xmlns="http://www.w3.org/2000/svg">
<g clip-path="url(#clip0)">
<path d="M311.003 71.9899L297.907 61.0991C302.83 60.0096 306.089 58.8664 306.089 58.8664L295.074 47.8732C298.763 46.819 301.175 45.7587 301.175 45.7587L291.9 34.1526C294.543 33.063 296.26 31.9942 296.26 31.9942L281.517 9L266.776 31.9942C266.776 31.9942 268.493 33.063 271.136 34.1526L261.862 45.7587C261.862 45.7587 264.274 46.819 267.961 47.872L256.947 58.8664C256.947 58.8664 260.206 60.0096 265.128 61.0991L252.034 71.9899C252.034 71.9899 262.255 74.9831 274.638 75.9008V82.125H288.398V75.9008C300.781 74.9831 311.003 71.9899 311.003 71.9899Z" fill="black" fill-opacity="0.09"/>
</g>
<path d="M256.835 70.2579L239.308 58.1106C245.897 56.8953 250.259 55.6202 250.259 55.6202L235.515 43.3586C240.452 42.1828 243.682 41.0001 243.682 41.0001L231.267 28.0548C234.805 26.8395 237.103 25.6473 237.103 25.6473L217.37 0L197.64 25.6473C197.64 25.6473 199.938 26.8395 203.475 28.0548L191.063 41.0001C191.063 41.0001 194.291 42.1828 199.226 43.3573L184.485 55.6202C184.485 55.6202 188.846 56.8953 195.434 58.1106L177.908 70.2579C177.908 70.2579 191.588 73.5966 208.163 74.6202V81.5625H226.58V74.6202C243.154 73.5966 256.835 70.2579 256.835 70.2579Z" fill="black" fill-opacity="0.09"/>
<path d="M786.242 71.9899L770.528 61.0991C776.435 60.0096 780.346 58.8664 780.346 58.8664L767.128 47.8732C771.554 46.819 774.449 45.7587 774.449 45.7587L763.319 34.1526C766.491 33.063 768.552 31.9942 768.552 31.9942L750.86 9L733.17 31.9942C733.17 31.9942 735.231 33.063 738.402 34.1526L727.274 45.7587C727.274 45.7587 730.168 46.819 734.593 47.872L721.376 58.8664C721.376 58.8664 725.286 60.0096 731.192 61.0991L715.479 71.9899C715.479 71.9899 727.745 74.9831 742.605 75.9008V82.125H759.117V75.9008C773.976 74.9831 786.242 71.9899 786.242 71.9899Z" fill="black" fill-opacity="0.09"/>
<path d="M1217.7 71.9899L1201.99 61.0991C1207.89 60.0096 1211.8 58.8664 1211.8 58.8664L1198.59 47.8732C1203.01 46.819 1205.91 45.7587 1205.91 45.7587L1194.78 34.1526C1197.95 33.063 1200.01 31.9942 1200.01 31.9942L1182.32 9L1164.63 31.9942C1164.63 31.9942 1166.69 33.063 1169.86 34.1526L1158.73 45.7587C1158.73 45.7587 1161.63 46.819 1166.05 47.872L1152.83 58.8664C1152.83 58.8664 1156.75 60.0096 1162.65 61.0991L1146.94 71.9899C1146.94 71.9899 1159.2 74.9831 1174.06 75.9008V82.125H1190.58V75.9008C1205.43 74.9831 1217.7 71.9899 1217.7 71.9899Z" fill="black" fill-opacity="0.09"/>
<path d="M894.357 71.9899L878.643 61.0991C884.55 60.0096 888.46 58.8664 888.46 58.8664L875.242 47.8732C879.669 46.819 882.564 45.7587 882.564 45.7587L871.434 34.1526C874.606 33.063 876.666 31.9942 876.666 31.9942L858.974 9L841.285 31.9942C841.285 31.9942 843.346 33.063 846.516 34.1526L835.388 45.7587C835.388 45.7587 838.282 46.819 842.707 47.872L829.491 58.8664C829.491 58.8664 833.401 60.0096 839.307 61.0991L823.594 71.9899C823.594 71.9899 835.859 74.9831 850.72 75.9008V82.125H867.232V75.9008C882.091 74.9831 894.357 71.9899 894.357 71.9899Z" fill="black" fill-opacity="0.09"/>
<path d="M1349.84 71.9899L1334.13 61.0991C1340.04 60.0096 1343.95 58.8664 1343.95 58.8664L1330.73 47.8732C1335.15 46.819 1338.05 45.7587 1338.05 45.7587L1326.92 34.1526C1330.09 33.063 1332.15 31.9942 1332.15 31.9942L1314.46 9L1296.77 31.9942C1296.77 31.9942 1298.83 33.063 1302 34.1526L1290.87 45.7587C1290.87 45.7587 1293.77 46.819 1298.19 47.872L1284.98 58.8664C1284.98 58.8664 1288.89 60.0096 1294.79 61.0991L1279.08 71.9899C1279.08 71.9899 1291.34 74.9831 1306.2 75.9008V82.125H1322.72V75.9008C1337.58 74.9831 1349.84 71.9899 1349.84 71.9899Z" fill="black" fill-opacity="0.09"/>
<path d="M945.13 75.5706L935.258 68.7289C938.969 68.0445 941.426 67.3263 941.426 67.3263L933.122 60.4204C935.903 59.7581 937.721 59.092 937.721 59.092L930.729 51.801C932.722 51.1165 934.016 50.445 934.016 50.445L922.902 36L911.79 50.445C911.79 50.445 913.084 51.1165 915.076 51.801L908.085 59.092C908.085 59.092 909.903 59.7581 912.683 60.4196L904.38 67.3263C904.38 67.3263 906.837 68.0445 910.547 68.7289L900.676 75.5706C900.676 75.5706 908.381 77.4509 917.717 78.0275V81.9375H928.09V78.0275C937.424 77.4509 945.13 75.5706 945.13 75.5706Z" fill="black" fill-opacity="0.09"/>
<path d="M1390.6 75.5706L1380.73 68.7289C1384.44 68.0445 1386.9 67.3263 1386.9 67.3263L1378.6 60.4204C1381.38 59.7581 1383.2 59.092 1383.2 59.092L1376.2 51.801C1378.2 51.1165 1379.49 50.445 1379.49 50.445L1368.38 36L1357.26 50.445C1357.26 50.445 1358.56 51.1165 1360.55 51.801L1353.56 59.092C1353.56 59.092 1355.38 59.7581 1358.16 60.4196L1349.85 67.3263C1349.85 67.3263 1352.31 68.0445 1356.02 68.7289L1346.15 75.5706C1346.15 75.5706 1353.85 77.4509 1363.19 78.0275V81.9375H1373.56V78.0275C1382.9 77.4509 1390.6 75.5706 1390.6 75.5706Z" fill="black" fill-opacity="0.09"/>
<path d="M828.349 75.2235L817.067 67.4045C821.309 66.6222 824.116 65.8015 824.116 65.8015L814.626 57.909C817.804 57.1521 819.883 56.3909 819.883 56.3909L811.892 48.0583C814.169 47.276 815.648 46.5086 815.648 46.5086L802.947 30L790.246 46.5086C790.246 46.5086 791.726 47.276 794.002 48.0583L786.013 56.3909C786.013 56.3909 788.091 57.1521 791.268 57.9081L781.779 65.8015C781.779 65.8015 784.586 66.6222 788.827 67.4045L777.545 75.2235C777.545 75.2235 786.351 77.3725 797.02 78.0314V82.5H808.875V78.0314C819.543 77.3725 828.349 75.2235 828.349 75.2235Z" fill="black" fill-opacity="0.09"/>
<path d="M1273.82 75.2235L1262.54 67.4045C1266.78 66.6222 1269.59 65.8015 1269.59 65.8015L1260.1 57.909C1263.28 57.1521 1265.36 56.3909 1265.36 56.3909L1257.37 48.0583C1259.64 47.276 1261.12 46.5086 1261.12 46.5086L1248.42 30L1235.72 46.5086C1235.72 46.5086 1237.2 47.276 1239.48 48.0583L1231.49 56.3909C1231.49 56.3909 1233.56 57.1521 1236.74 57.9081L1227.25 65.8015C1227.25 65.8015 1230.06 66.6222 1234.3 67.4045L1223.02 75.2235C1223.02 75.2235 1231.83 77.3725 1242.49 78.0314V82.5H1254.35V78.0314C1265.02 77.3725 1273.82 75.2235 1273.82 75.2235Z" fill="black" fill-opacity="0.09"/>
<path d="M1001.53 75.2235L990.252 67.4045C994.493 66.6222 997.3 65.8015 997.3 65.8015L987.81 57.909C990.988 57.1521 993.067 56.3909 993.067 56.3909L985.076 48.0583C987.353 47.276 988.833 46.5086 988.833 46.5086L976.131 30L963.43 46.5086C963.43 46.5086 964.91 47.276 967.186 48.0583L959.197 56.3909C959.197 56.3909 961.275 57.1521 964.452 57.9081L954.963 65.8015C954.963 65.8015 957.77 66.6222 962.011 67.4045L950.729 75.2235C950.729 75.2235 959.535 77.3725 970.204 78.0314V82.5H982.059V78.0314C992.727 77.3725 1001.53 75.2235 1001.53 75.2235Z" fill="black" fill-opacity="0.09"/>
<path d="M1440 75.2235L1428.72 67.4045C1432.96 66.6222 1435.77 65.8015 1435.77 65.8015L1426.28 57.909C1429.45 57.1521 1431.53 56.3909 1431.53 56.3909L1423.54 48.0583C1425.82 47.276 1427.3 46.5086 1427.3 46.5086L1414.6 30L1401.9 46.5086C1401.9 46.5086 1403.38 47.276 1405.65 48.0583L1397.66 56.3909C1397.66 56.3909 1399.74 57.1521 1402.92 57.9081L1393.43 65.8015C1393.43 65.8015 1396.24 66.6222 1400.48 67.4045L1389.2 75.2235C1389.2 75.2235 1398 77.3725 1408.67 78.0314V82.5H1420.53V78.0314C1431.19 77.3725 1440 75.2235 1440 75.2235Z" fill="black" fill-opacity="0.09"/>
<path d="M1075.11 71.7974L1060.61 60.7671C1066.06 59.6635 1069.67 58.5057 1069.67 58.5057L1057.47 47.3716C1061.55 46.3039 1064.23 45.23 1064.23 45.23L1053.95 33.475C1056.88 32.3715 1058.78 31.289 1058.78 31.289L1042.45 8L1026.12 31.289C1026.12 31.289 1028.02 32.3715 1030.95 33.475L1020.68 45.23C1020.68 45.23 1023.35 46.3039 1027.44 47.3704L1015.24 58.5057C1015.24 58.5057 1018.85 59.6635 1024.3 60.7671L1009.79 71.7974C1009.79 71.7974 1021.11 74.8291 1034.83 75.7586V82.0625H1050.07V75.7586C1063.79 74.8291 1075.11 71.7974 1075.11 71.7974Z" fill="black" fill-opacity="0.09"/>
<path d="M1140.99 73.684L1126.89 64.748C1132.19 63.854 1135.7 62.916 1135.7 62.916L1123.84 53.896C1127.81 53.031 1130.41 52.161 1130.41 52.161L1120.42 42.638C1123.27 41.744 1125.12 40.867 1125.12 40.867L1109.24 22L1093.37 40.867C1093.37 40.867 1095.22 41.744 1098.06 42.638L1088.07 52.161C1088.07 52.161 1090.67 53.031 1094.64 53.895L1082.78 62.916C1082.78 62.916 1086.29 63.854 1091.59 64.748L1077.49 73.684C1077.49 73.684 1088.5 76.14 1101.83 76.893V82H1116.65V76.893C1129.99 76.14 1140.99 73.684 1140.99 73.684Z" fill="black" fill-opacity="0.09"/>
<path d="M443.534 71.9899L427.82 61.0991C433.727 60.0096 437.637 58.8664 437.637 58.8664L424.419 47.8732C428.846 46.819 431.741 45.7587 431.741 45.7587L420.61 34.1526C423.782 33.063 425.843 31.9942 425.843 31.9942L408.151 9L390.462 31.9942C390.462 31.9942 392.522 33.063 395.693 34.1526L384.565 45.7587C384.565 45.7587 387.459 46.819 391.884 47.872L378.667 58.8664C378.667 58.8664 382.578 60.0096 388.484 61.0991L372.771 71.9899C372.771 71.9899 385.036 74.9831 399.896 75.9008V82.125H416.408V75.9008C431.267 74.9831 443.534 71.9899 443.534 71.9899Z" fill="black" fill-opacity="0.09"/>
<path d="M175.968 75.5706L166.096 68.7289C169.808 68.0445 172.264 67.3263 172.264 67.3263L163.96 60.4204C166.741 59.7581 168.56 59.092 168.56 59.092L161.568 51.801C163.56 51.1165 164.855 50.445 164.855 50.445L153.741 36L142.628 50.445C142.628 50.445 143.923 51.1165 145.915 51.801L138.924 59.092C138.924 59.092 140.742 59.7581 143.522 60.4196L135.219 67.3263C135.219 67.3263 137.675 68.0445 141.386 68.7289L131.515 75.5706C131.515 75.5706 139.22 77.4509 148.555 78.0275V81.9375H158.928V78.0275C168.262 77.4509 175.968 75.5706 175.968 75.5706Z" fill="black" fill-opacity="0.09"/>
<path d="M491.945 75.5706L482.073 68.7289C485.785 68.0445 488.241 67.3263 488.241 67.3263L479.937 60.4204C482.718 59.7581 484.537 59.092 484.537 59.092L477.545 51.801C479.537 51.1165 480.832 50.445 480.832 50.445L469.718 36L458.605 50.445C458.605 50.445 459.9 51.1165 461.892 51.801L454.901 59.092C454.901 59.092 456.719 59.7581 459.499 60.4196L451.196 67.3263C451.196 67.3263 453.652 68.0445 457.363 68.7289L447.492 75.5706C447.492 75.5706 455.197 77.4509 464.532 78.0275V81.9375H474.905V78.0275C484.239 77.4509 491.945 75.5706 491.945 75.5706Z" fill="black" fill-opacity="0.09"/>
<path d="M127.855 71.9899L112.14 61.0991C118.048 60.0096 121.958 58.8664 121.958 58.8664L108.74 47.8732C113.166 46.819 116.062 45.7587 116.062 45.7587L104.931 34.1526C108.103 33.063 110.164 31.9942 110.164 31.9942L92.4719 9L74.7825 31.9942C74.7825 31.9942 76.8431 33.063 80.014 34.1526L68.886 45.7587C68.886 45.7587 71.7799 46.819 76.2051 47.872L62.9883 58.8664C62.9883 58.8664 66.8985 60.0096 72.8048 61.0991L57.0918 71.9899C57.0918 71.9899 69.3569 74.9831 84.2171 75.9008V82.125H100.729V75.9008C115.588 74.9831 127.855 71.9899 127.855 71.9899Z" fill="black" fill-opacity="0.09"/>
<path d="M363.48 75.2235L352.198 67.4045C356.44 66.6222 359.247 65.8015 359.247 65.8015L349.757 57.909C352.935 57.1521 355.014 56.3909 355.014 56.3909L347.022 48.0583C349.3 47.276 350.779 46.5086 350.779 46.5086L338.077 30L325.377 46.5086C325.377 46.5086 326.857 47.276 329.133 48.0583L321.144 56.3909C321.144 56.3909 323.222 57.1521 326.399 57.9081L316.91 65.8015C316.91 65.8015 319.717 66.6222 323.957 67.4045L312.676 75.2235C312.676 75.2235 321.482 77.3725 332.151 78.0314V82.5H344.006V78.0314C354.674 77.3725 363.48 75.2235 363.48 75.2235Z" fill="black" fill-opacity="0.09"/>
<path d="M712.336 73.684L698.838 64.748C703.912 63.854 707.271 62.916 707.271 62.916L695.917 53.896C699.719 53.031 702.206 52.161 702.206 52.161L692.645 42.638C695.37 41.744 697.14 40.867 697.14 40.867L681.943 22L666.748 40.867C666.748 40.867 668.518 41.744 671.242 42.638L661.683 52.161C661.683 52.161 664.169 53.031 667.97 53.895L656.617 62.916C656.617 62.916 659.976 63.854 665.049 64.748L651.552 73.684C651.552 73.684 662.088 76.14 674.852 76.893V82H689.036V76.893C701.799 76.14 712.336 73.684 712.336 73.684Z" fill="black" fill-opacity="0.09"/>
<path d="M577.254 70.2579L559.727 58.1106C566.316 56.8953 570.677 55.6202 570.677 55.6202L555.934 43.3586C560.871 42.1828 564.101 41.0001 564.101 41.0001L551.686 28.0548C555.224 26.8395 557.522 25.6473 557.522 25.6473L537.789 0L518.059 25.6473C518.059 25.6473 520.357 26.8395 523.894 28.0548L511.482 41.0001C511.482 41.0001 514.71 42.1828 519.645 43.3573L504.904 55.6202C504.904 55.6202 509.265 56.8953 515.853 58.1106L498.327 70.2579C498.327 70.2579 512.007 73.5966 528.582 74.6202V81.5625H546.999V74.6202C563.573 73.5966 577.254 70.2579 577.254 70.2579Z" fill="black" fill-opacity="0.09"/>
<path d="M648.127 73.684L634.024 64.748C639.326 63.854 642.835 62.916 642.835 62.916L630.973 53.896C634.945 53.031 637.543 52.161 637.543 52.161L627.554 42.638C630.401 41.744 632.25 40.867 632.25 40.867L616.373 22L600.498 40.867C600.498 40.867 602.347 41.744 605.193 42.638L595.206 52.161C595.206 52.161 597.803 53.031 601.775 53.895L589.913 62.916C589.913 62.916 593.423 63.854 598.723 64.748L584.622 73.684C584.622 73.684 595.629 76.14 608.965 76.893V82H623.783V76.893C637.118 76.14 648.127 73.684 648.127 73.684Z" fill="black" fill-opacity="0.09"/>
<path d="M50.804 75.2235L39.522 67.4045C43.7633 66.6222 46.5706 65.8015 46.5706 65.8015L37.0808 57.909C40.2587 57.1521 42.3373 56.3909 42.3373 56.3909L34.3461 48.0583C36.6236 47.276 38.103 46.5086 38.103 46.5086L25.4011 30L12.701 46.5086C12.701 46.5086 14.1805 47.276 16.457 48.0583L8.46763 56.3909C8.46763 56.3909 10.5453 57.1521 13.7223 57.9081L4.23338 65.8015C4.23338 65.8015 7.04074 66.6222 11.2811 67.4045L0 75.2235C0 75.2235 8.80574 77.3725 19.4746 78.0314V82.5H31.3294V78.0314C41.9974 77.3725 50.804 75.2235 50.804 75.2235Z" fill="black" fill-opacity="0.09"/>
<defs>
<clipPath id="clip0">
<rect width="65.0692" height="78" fill="white" transform="translate(248.983 1)"/>
</clipPath>
</defs>
</svg>
