<svg width="2074" height="84" viewBox="0 0 2074 84" fill="none" xmlns="http://www.w3.org/2000/svg">
<path d="M308.843 72.9899L295.838 62.0991C300.727 61.0096 303.963 59.8664 303.963 59.8664L293.025 48.8732C296.688 47.819 299.083 46.7587 299.083 46.7587L289.872 35.1526C292.498 34.063 294.203 32.9942 294.203 32.9942L279.562 10L264.923 32.9942C264.923 32.9942 266.628 34.063 269.252 35.1526L260.044 46.7587C260.044 46.7587 262.438 47.819 266.1 48.872L255.163 59.8664C255.163 59.8664 258.399 61.0096 263.286 62.0991L250.283 72.9899C250.283 72.9899 260.433 75.9831 272.731 76.9008V83.125H286.395V76.9008C298.692 75.9831 308.843 72.9899 308.843 72.9899Z" fill="black" fill-opacity="0.09"/>
<path d="M255.052 71.2579L237.646 59.1106C244.189 57.8953 248.521 56.6202 248.521 56.6202L233.88 44.3586C238.783 43.1828 241.989 42.0001 241.989 42.0001L229.661 29.0548C233.174 27.8395 235.457 26.6473 235.457 26.6473L215.861 1L196.267 26.6473C196.267 26.6473 198.55 27.8395 202.062 29.0548L189.736 42.0001C189.736 42.0001 192.941 43.1828 197.843 44.3573L183.203 56.6202C183.203 56.6202 187.535 57.8953 194.077 59.1106L176.672 71.2579C176.672 71.2579 190.258 74.5966 206.717 75.6202V82.5625H225.007V75.6202C241.465 74.5966 255.052 71.2579 255.052 71.2579Z" fill="black" fill-opacity="0.09"/>
<path d="M780.782 72.9899L765.177 62.0991C771.044 61.0096 774.927 59.8664 774.927 59.8664L761.8 48.8732C766.196 47.819 769.071 46.7587 769.071 46.7587L758.018 35.1526C761.168 34.063 763.214 32.9942 763.214 32.9942L745.645 10L728.079 32.9942C728.079 32.9942 730.125 34.063 733.274 35.1526L722.223 46.7587C722.223 46.7587 725.097 47.819 729.491 48.872L716.366 59.8664C716.366 59.8664 720.25 61.0096 726.115 62.0991L710.511 72.9899C710.511 72.9899 722.691 75.9831 737.448 76.9008V83.125H753.845V76.9008C768.601 75.9831 780.782 72.9899 780.782 72.9899Z" fill="black" fill-opacity="0.09"/>
<path d="M1209.24 72.9899L1193.64 62.0991C1199.51 61.0096 1203.39 59.8664 1203.39 59.8664L1190.26 48.8732C1194.66 47.819 1197.53 46.7587 1197.53 46.7587L1186.48 35.1526C1189.63 34.063 1191.68 32.9942 1191.68 32.9942L1174.11 10L1156.54 32.9942C1156.54 32.9942 1158.59 34.063 1161.74 35.1526L1150.69 46.7587C1150.69 46.7587 1153.56 47.819 1157.95 48.872L1144.83 59.8664C1144.83 59.8664 1148.71 61.0096 1154.58 62.0991L1138.97 72.9899C1138.97 72.9899 1151.15 75.9831 1165.91 76.9008V83.125H1182.31V76.9008C1197.06 75.9831 1209.24 72.9899 1209.24 72.9899Z" fill="black" fill-opacity="0.09"/>
<path d="M888.146 72.9899L872.541 62.0991C878.407 61.0096 882.291 59.8664 882.291 59.8664L869.164 48.8732C873.56 47.819 876.435 46.7587 876.435 46.7587L865.382 35.1526C868.532 34.063 870.578 32.9942 870.578 32.9942L853.009 10L835.443 32.9942C835.443 32.9942 837.489 34.063 840.638 35.1526L829.587 46.7587C829.587 46.7587 832.461 47.819 836.855 48.872L823.73 59.8664C823.73 59.8664 827.613 61.0096 833.479 62.0991L817.875 72.9899C817.875 72.9899 830.055 75.9831 844.812 76.9008V83.125H861.209V76.9008C875.965 75.9831 888.146 72.9899 888.146 72.9899Z" fill="black" fill-opacity="0.09"/>
<path d="M1340.47 72.9899L1324.86 62.0991C1330.73 61.0096 1334.61 59.8664 1334.61 59.8664L1321.49 48.8732C1325.88 47.819 1328.76 46.7587 1328.76 46.7587L1317.7 35.1526C1320.85 34.063 1322.9 32.9942 1322.9 32.9942L1305.33 10L1287.76 32.9942C1287.76 32.9942 1289.81 34.063 1292.96 35.1526L1281.91 46.7587C1281.91 46.7587 1284.78 47.819 1289.18 48.872L1276.05 59.8664C1276.05 59.8664 1279.94 61.0096 1285.8 62.0991L1270.2 72.9899C1270.2 72.9899 1282.38 75.9831 1297.13 76.9008V83.125H1313.53V76.9008C1328.29 75.9831 1340.47 72.9899 1340.47 72.9899Z" fill="black" fill-opacity="0.09"/>
<path d="M938.566 76.5706L928.763 69.7289C932.449 69.0445 934.888 68.3263 934.888 68.3263L926.642 61.4204C929.403 60.7581 931.209 60.092 931.209 60.092L924.266 52.801C926.245 52.1165 927.53 51.445 927.53 51.445L916.493 37L905.458 51.445C905.458 51.445 906.743 52.1165 908.722 52.801L901.779 60.092C901.779 60.092 903.585 60.7581 906.345 61.4196L898.1 68.3263C898.1 68.3263 900.539 69.0445 904.224 69.7289L894.422 76.5706C894.422 76.5706 902.073 78.4509 911.344 79.0275V82.9375H921.645V79.0275C930.914 78.4509 938.566 76.5706 938.566 76.5706Z" fill="black" fill-opacity="0.09"/>
<path d="M1380.95 76.5706L1371.14 69.7289C1374.83 69.0445 1377.27 68.3263 1377.27 68.3263L1369.02 61.4204C1371.78 60.7581 1373.59 60.092 1373.59 60.092L1366.65 52.801C1368.62 52.1165 1369.91 51.445 1369.91 51.445L1358.87 37L1347.84 51.445C1347.84 51.445 1349.12 52.1165 1351.1 52.801L1344.16 60.092C1344.16 60.092 1345.96 60.7581 1348.73 61.4196L1340.48 68.3263C1340.48 68.3263 1342.92 69.0445 1346.6 69.7289L1336.8 76.5706C1336.8 76.5706 1344.45 78.4509 1353.72 79.0275V82.9375H1364.02V79.0275C1373.29 78.4509 1380.95 76.5706 1380.95 76.5706Z" fill="black" fill-opacity="0.09"/>
<path d="M822.597 76.2235L811.393 68.4045C815.605 67.6222 818.393 66.8015 818.393 66.8015L808.969 58.909C812.125 58.1521 814.189 57.3909 814.189 57.3909L806.253 49.0583C808.515 48.276 809.984 47.5086 809.984 47.5086L797.37 31L784.759 47.5086C784.759 47.5086 786.228 48.276 788.488 49.0583L780.555 57.3909C780.555 57.3909 782.618 58.1521 785.773 58.9081L776.35 66.8015C776.35 66.8015 779.138 67.6222 783.349 68.4045L772.146 76.2235C772.146 76.2235 780.89 78.3725 791.485 79.0314V83.5H803.258V79.0314C813.852 78.3725 822.597 76.2235 822.597 76.2235Z" fill="black" fill-opacity="0.09"/>
<path d="M1264.98 76.2235L1253.77 68.4045C1257.99 67.6222 1260.77 66.8015 1260.77 66.8015L1251.35 58.909C1254.51 58.1521 1256.57 57.3909 1256.57 57.3909L1248.63 49.0583C1250.9 48.276 1252.36 47.5086 1252.36 47.5086L1239.75 31L1227.14 47.5086C1227.14 47.5086 1228.61 48.276 1230.87 49.0583L1222.93 57.3909C1222.93 57.3909 1225 58.1521 1228.15 58.9081L1218.73 66.8015C1218.73 66.8015 1221.52 67.6222 1225.73 68.4045L1214.53 76.2235C1214.53 76.2235 1223.27 78.3725 1233.87 79.0314V83.5H1245.64V79.0314C1256.23 78.3725 1264.98 76.2235 1264.98 76.2235Z" fill="black" fill-opacity="0.09"/>
<path d="M994.579 76.2235L983.375 68.4045C987.587 67.6222 990.375 66.8015 990.375 66.8015L980.951 58.909C984.107 58.1521 986.171 57.3909 986.171 57.3909L978.235 49.0583C980.497 48.276 981.966 47.5086 981.966 47.5086L969.352 31L956.74 47.5086C956.74 47.5086 958.209 48.276 960.47 49.0583L952.536 57.3909C952.536 57.3909 954.6 58.1521 957.754 58.9081L948.331 66.8015C948.331 66.8015 951.119 67.6222 955.33 68.4045L944.127 76.2235C944.127 76.2235 952.872 78.3725 963.467 79.0314V83.5H975.239V79.0314C985.833 78.3725 994.579 76.2235 994.579 76.2235Z" fill="black" fill-opacity="0.09"/>
<path d="M1430 76.2235L1418.8 68.4045C1423.01 67.6222 1425.8 66.8015 1425.8 66.8015L1416.37 58.909C1419.53 58.1521 1421.59 57.3909 1421.59 57.3909L1413.66 49.0583C1415.92 48.276 1417.39 47.5086 1417.39 47.5086L1404.77 31L1392.16 47.5086C1392.16 47.5086 1393.63 48.276 1395.89 49.0583L1387.96 57.3909C1387.96 57.3909 1390.02 58.1521 1393.18 58.9081L1383.75 66.8015C1383.75 66.8015 1386.54 67.6222 1390.75 68.4045L1379.55 76.2235C1379.55 76.2235 1388.29 78.3725 1398.89 79.0314V83.5H1410.66V79.0314C1421.25 78.3725 1430 76.2235 1430 76.2235Z" fill="black" fill-opacity="0.09"/>
<path d="M1067.65 72.7974L1053.24 61.7671C1058.66 60.6635 1062.24 59.5057 1062.24 59.5057L1050.12 48.3716C1054.18 47.3039 1056.84 46.23 1056.84 46.23L1046.63 34.475C1049.54 33.3715 1051.43 32.289 1051.43 32.289L1035.21 9L1019 32.289C1019 32.289 1020.89 33.3715 1023.79 34.475L1013.59 46.23C1013.59 46.23 1016.24 47.3039 1020.3 48.3704L1008.19 59.5057C1008.19 59.5057 1011.77 60.6635 1017.18 61.7671L1002.78 72.7974C1002.78 72.7974 1014.02 75.8291 1027.65 76.7586V83.0625H1042.78V76.7586C1056.4 75.8291 1067.65 72.7974 1067.65 72.7974Z" fill="black" fill-opacity="0.09"/>
<path d="M1133.07 74.684L1119.07 65.748C1124.33 64.854 1127.82 63.916 1127.82 63.916L1116.04 54.896C1119.98 54.031 1122.56 53.161 1122.56 53.161L1112.64 43.638C1115.47 42.744 1117.31 41.867 1117.31 41.867L1101.54 23L1085.77 41.867C1085.77 41.867 1087.61 42.744 1090.44 43.638L1080.52 53.161C1080.52 53.161 1083.1 54.031 1087.04 54.895L1075.26 63.916C1075.26 63.916 1078.75 64.854 1084.01 65.748L1070.01 74.684C1070.01 74.684 1080.94 77.14 1094.18 77.893V83H1108.9V77.893C1122.14 77.14 1133.07 74.684 1133.07 74.684Z" fill="black" fill-opacity="0.09"/>
<path d="M440.454 72.9899L424.849 62.0991C430.715 61.0096 434.598 59.8664 434.598 59.8664L421.472 48.8732C425.868 47.819 428.743 46.7587 428.743 46.7587L417.69 35.1526C420.84 34.063 422.886 32.9942 422.886 32.9942L405.317 10L387.75 32.9942C387.75 32.9942 389.797 34.063 392.946 35.1526L381.895 46.7587C381.895 46.7587 384.769 47.819 389.163 48.872L376.038 59.8664C376.038 59.8664 379.921 61.0096 385.786 62.0991L370.183 72.9899C370.183 72.9899 382.363 75.9831 397.119 76.9008V83.125H413.517V76.9008C428.273 75.9831 440.454 72.9899 440.454 72.9899Z" fill="black" fill-opacity="0.09"/>
<path d="M174.746 76.5706L164.943 69.7289C168.628 69.0445 171.068 68.3263 171.068 68.3263L162.822 61.4204C165.583 60.7581 167.389 60.092 167.389 60.092L160.446 52.801C162.424 52.1165 163.71 51.445 163.71 51.445L152.673 37L141.638 51.445C141.638 51.445 142.923 52.1165 144.901 52.801L137.959 60.092C137.959 60.092 139.764 60.7581 142.525 61.4196L134.28 68.3263C134.28 68.3263 136.719 69.0445 140.404 69.7289L130.601 76.5706C130.601 76.5706 138.253 78.4509 147.523 79.0275V82.9375H157.824V79.0275C167.094 78.4509 174.746 76.5706 174.746 76.5706Z" fill="black" fill-opacity="0.09"/>
<path d="M488.529 76.5706L478.726 69.7289C482.411 69.0445 484.85 68.3263 484.85 68.3263L476.605 61.4204C479.366 60.7581 481.172 60.092 481.172 60.092L474.228 52.801C476.207 52.1165 477.493 51.445 477.493 51.445L466.456 37L455.42 51.445C455.42 51.445 456.706 52.1165 458.684 52.801L451.742 60.092C451.742 60.092 453.547 60.7581 456.308 61.4196L448.063 68.3263C448.063 68.3263 450.502 69.0445 454.187 69.7289L444.384 76.5706C444.384 76.5706 452.036 78.4509 461.306 79.0275V82.9375H471.607V79.0275C480.877 78.4509 488.529 76.5706 488.529 76.5706Z" fill="black" fill-opacity="0.09"/>
<path d="M126.967 72.9899L111.362 62.0991C117.228 61.0096 121.111 59.8664 121.111 59.8664L107.985 48.8732C112.38 47.819 115.256 46.7587 115.256 46.7587L104.202 35.1526C107.352 34.063 109.399 32.9942 109.399 32.9942L91.8298 10L74.2631 32.9942C74.2631 32.9942 76.3095 34.063 79.4584 35.1526L68.4076 46.7587C68.4076 46.7587 71.2815 47.819 75.6758 48.872L62.5509 59.8664C62.5509 59.8664 66.4339 61.0096 72.2992 62.0991L56.6953 72.9899C56.6953 72.9899 68.8753 75.9831 83.6323 76.9008V83.125H100.03V76.9008C114.785 75.9831 126.967 72.9899 126.967 72.9899Z" fill="black" fill-opacity="0.09"/>
<path d="M360.956 76.2235L349.752 68.4045C353.964 67.6222 356.752 66.8015 356.752 66.8015L347.328 58.909C350.484 58.1521 352.548 57.3909 352.548 57.3909L344.613 49.0583C346.874 48.276 348.343 47.5086 348.343 47.5086L335.73 31L323.118 47.5086C323.118 47.5086 324.587 48.276 326.848 49.0583L318.914 57.3909C318.914 57.3909 320.977 58.1521 324.132 58.9081L314.709 66.8015C314.709 66.8015 317.497 67.6222 321.708 68.4045L310.505 76.2235C310.505 76.2235 319.249 78.3725 329.844 79.0314V83.5H341.617V79.0314C352.211 78.3725 360.956 76.2235 360.956 76.2235Z" fill="black" fill-opacity="0.09"/>
<path d="M707.389 74.684L693.984 65.748C699.024 64.854 702.359 63.916 702.359 63.916L691.084 54.896C694.86 54.031 697.329 53.161 697.329 53.161L687.835 43.638C690.541 42.744 692.299 41.867 692.299 41.867L677.207 23L662.118 41.867C662.118 41.867 663.876 42.744 666.58 43.638L657.088 53.161C657.088 53.161 659.557 54.031 663.331 54.895L652.057 63.916C652.057 63.916 655.393 64.854 660.431 65.748L647.028 74.684C647.028 74.684 657.49 77.14 670.166 77.893V83H684.251V77.893C696.926 77.14 707.389 74.684 707.389 74.684Z" fill="black" fill-opacity="0.09"/>
<path d="M573.246 71.2579L555.84 59.1106C562.383 57.8953 566.714 56.6202 566.714 56.6202L552.074 44.3586C556.976 43.1828 560.183 42.0001 560.183 42.0001L547.855 29.0548C551.368 27.8395 553.651 26.6473 553.651 26.6473L534.055 1L514.461 26.6473C514.461 26.6473 516.743 27.8395 520.256 29.0548L507.93 42.0001C507.93 42.0001 511.135 43.1828 516.037 44.3573L501.397 56.6202C501.397 56.6202 505.728 57.8953 512.27 59.1106L494.866 71.2579C494.866 71.2579 508.451 74.5966 524.911 75.6202V82.5625H543.201V75.6202C559.659 74.5966 573.246 71.2579 573.246 71.2579Z" fill="black" fill-opacity="0.09"/>
<path d="M643.626 74.684L629.621 65.748C634.886 64.854 638.371 63.916 638.371 63.916L626.591 54.896C630.536 54.031 633.116 53.161 633.116 53.161L623.196 43.638C626.023 42.744 627.86 41.867 627.86 41.867L612.093 23L596.328 41.867C596.328 41.867 598.164 42.744 600.99 43.638L591.073 53.161C591.073 53.161 593.652 54.031 597.596 54.895L585.817 63.916C585.817 63.916 589.302 64.854 594.565 65.748L580.562 74.684C580.562 74.684 591.492 77.14 604.736 77.893V83H619.452V77.893C632.694 77.14 643.626 74.684 643.626 74.684Z" fill="black" fill-opacity="0.09"/>
<path d="M50.4512 76.2235L39.2476 68.4045C43.4594 67.6222 46.2472 66.8015 46.2472 66.8015L36.8233 58.909C39.9791 58.1521 42.0433 57.3909 42.0433 57.3909L34.1076 49.0583C36.3692 48.276 37.8384 47.5086 37.8384 47.5086L25.2247 31L12.6128 47.5086C12.6128 47.5086 14.082 48.276 16.3427 49.0583L8.40883 57.3909C8.40883 57.3909 10.4721 58.1521 13.627 58.9081L4.20398 66.8015C4.20398 66.8015 6.99184 67.6222 11.2028 68.4045L0 76.2235C0 76.2235 8.74459 78.3725 19.3393 79.0314V83.5H31.1119V79.0314C41.7058 78.3725 50.4512 76.2235 50.4512 76.2235Z" fill="black" fill-opacity="0.09"/>
<path d="M1738.84 71.9899L1725.84 61.0991C1730.73 60.0096 1733.96 58.8664 1733.96 58.8664L1723.02 47.8732C1726.69 46.819 1729.08 45.7587 1729.08 45.7587L1719.87 34.1526C1722.5 33.063 1724.2 31.9942 1724.2 31.9942L1709.56 9L1694.92 31.9942C1694.92 31.9942 1696.63 33.063 1699.25 34.1526L1690.04 45.7587C1690.04 45.7587 1692.44 46.819 1696.1 47.872L1685.16 58.8664C1685.16 58.8664 1688.4 60.0096 1693.29 61.0991L1680.28 71.9899C1680.28 71.9899 1690.43 74.9831 1702.73 75.9008V82.125H1716.4V75.9008C1728.69 74.9831 1738.84 71.9899 1738.84 71.9899Z" fill="black" fill-opacity="0.09"/>
<path d="M1685.05 70.2579L1667.65 58.1106C1674.19 56.8953 1678.52 55.6202 1678.52 55.6202L1663.88 43.3586C1668.78 42.1828 1671.99 41.0001 1671.99 41.0001L1659.66 28.0548C1663.17 26.8395 1665.46 25.6473 1665.46 25.6473L1645.86 0L1626.27 25.6473C1626.27 25.6473 1628.55 26.8395 1632.06 28.0548L1619.74 41.0001C1619.74 41.0001 1622.94 42.1828 1627.84 43.3573L1613.2 55.6202C1613.2 55.6202 1617.53 56.8953 1624.08 58.1106L1606.67 70.2579C1606.67 70.2579 1620.26 73.5966 1636.72 74.6202V81.5625H1655.01V74.6202C1671.47 73.5966 1685.05 70.2579 1685.05 70.2579Z" fill="black" fill-opacity="0.09"/>
<path d="M1870.45 71.9899L1854.85 61.0991C1860.72 60.0096 1864.6 58.8664 1864.6 58.8664L1851.47 47.8732C1855.87 46.819 1858.74 45.7587 1858.74 45.7587L1847.69 34.1526C1850.84 33.063 1852.89 31.9942 1852.89 31.9942L1835.32 9L1817.75 31.9942C1817.75 31.9942 1819.8 33.063 1822.95 34.1526L1811.89 45.7587C1811.89 45.7587 1814.77 46.819 1819.16 47.872L1806.04 58.8664C1806.04 58.8664 1809.92 60.0096 1815.79 61.0991L1800.18 71.9899C1800.18 71.9899 1812.36 74.9831 1827.12 75.9008V82.125H1843.52V75.9008C1858.27 74.9831 1870.45 71.9899 1870.45 71.9899Z" fill="black" fill-opacity="0.09"/>
<path d="M1604.75 75.5706L1594.94 68.7289C1598.63 68.0445 1601.07 67.3263 1601.07 67.3263L1592.82 60.4204C1595.58 59.7581 1597.39 59.092 1597.39 59.092L1590.45 51.801C1592.42 51.1165 1593.71 50.445 1593.71 50.445L1582.67 36L1571.64 50.445C1571.64 50.445 1572.92 51.1165 1574.9 51.801L1567.96 59.092C1567.96 59.092 1569.76 59.7581 1572.52 60.4196L1564.28 67.3263C1564.28 67.3263 1566.72 68.0445 1570.4 68.7289L1560.6 75.5706C1560.6 75.5706 1568.25 77.4509 1577.52 78.0275V81.9375H1587.82V78.0275C1597.09 77.4509 1604.75 75.5706 1604.75 75.5706Z" fill="black" fill-opacity="0.09"/>
<path d="M1918.53 75.5706L1908.73 68.7289C1912.41 68.0445 1914.85 67.3263 1914.85 67.3263L1906.6 60.4204C1909.37 59.7581 1911.17 59.092 1911.17 59.092L1904.23 51.801C1906.21 51.1165 1907.49 50.445 1907.49 50.445L1896.46 36L1885.42 50.445C1885.42 50.445 1886.71 51.1165 1888.68 51.801L1881.74 59.092C1881.74 59.092 1883.55 59.7581 1886.31 60.4196L1878.06 67.3263C1878.06 67.3263 1880.5 68.0445 1884.19 68.7289L1874.38 75.5706C1874.38 75.5706 1882.04 77.4509 1891.31 78.0275V81.9375H1901.61V78.0275C1910.88 77.4509 1918.53 75.5706 1918.53 75.5706Z" fill="black" fill-opacity="0.09"/>
<path d="M1556.97 71.9899L1541.36 61.0991C1547.23 60.0096 1551.11 58.8664 1551.11 58.8664L1537.98 47.8732C1542.38 46.819 1545.26 45.7587 1545.26 45.7587L1534.2 34.1526C1537.35 33.063 1539.4 31.9942 1539.4 31.9942L1521.83 9L1504.26 31.9942C1504.26 31.9942 1506.31 33.063 1509.46 34.1526L1498.41 45.7587C1498.41 45.7587 1501.28 46.819 1505.68 47.872L1492.55 58.8664C1492.55 58.8664 1496.43 60.0096 1502.3 61.0991L1486.7 71.9899C1486.7 71.9899 1498.88 74.9831 1513.63 75.9008V82.125H1530.03V75.9008C1544.79 74.9831 1556.97 71.9899 1556.97 71.9899Z" fill="black" fill-opacity="0.09"/>
<path d="M1790.96 75.2235L1779.75 67.4045C1783.96 66.6223 1786.75 65.8015 1786.75 65.8015L1777.33 57.909C1780.48 57.1521 1782.55 56.3909 1782.55 56.3909L1774.61 48.0583C1776.87 47.276 1778.34 46.5086 1778.34 46.5086L1765.73 30L1753.12 46.5086C1753.12 46.5086 1754.59 47.276 1756.85 48.0583L1748.91 56.3909C1748.91 56.3909 1750.98 57.1521 1754.13 57.9081L1744.71 65.8015C1744.71 65.8015 1747.5 66.6223 1751.71 67.4045L1740.5 75.2235C1740.5 75.2235 1749.25 77.3725 1759.84 78.0314V82.5H1771.62V78.0314C1782.21 77.3725 1790.96 75.2235 1790.96 75.2235Z" fill="black" fill-opacity="0.09"/>
<path d="M2003.25 70.2579L1985.84 58.1106C1992.38 56.8953 1996.71 55.6202 1996.71 55.6202L1982.07 43.3586C1986.98 42.1828 1990.18 41.0001 1990.18 41.0001L1977.85 28.0548C1981.37 26.8395 1983.65 25.6473 1983.65 25.6473L1964.05 0L1944.46 25.6473C1944.46 25.6473 1946.74 26.8395 1950.26 28.0548L1937.93 41.0001C1937.93 41.0001 1941.14 42.1828 1946.04 43.3573L1931.4 55.6202C1931.4 55.6202 1935.73 56.8953 1942.27 58.1106L1924.87 70.2579C1924.87 70.2579 1938.45 73.5966 1954.91 74.6202V81.5625H1973.2V74.6202C1989.66 73.5966 2003.25 70.2579 2003.25 70.2579Z" fill="black" fill-opacity="0.09"/>
<path d="M2073.63 73.684L2059.62 64.748C2064.89 63.854 2068.37 62.916 2068.37 62.916L2056.59 53.896C2060.54 53.031 2063.12 52.161 2063.12 52.161L2053.2 42.638C2056.02 41.744 2057.86 40.867 2057.86 40.867L2042.09 22L2026.33 40.867C2026.33 40.867 2028.16 41.744 2030.99 42.638L2021.07 52.161C2021.07 52.161 2023.65 53.031 2027.6 53.895L2015.82 62.916C2015.82 62.916 2019.3 63.854 2024.57 64.748L2010.56 73.684C2010.56 73.684 2021.49 76.14 2034.74 76.893V82H2049.45V76.893C2062.69 76.14 2073.63 73.684 2073.63 73.684Z" fill="black" fill-opacity="0.09"/>
<path d="M1480.45 75.2235L1469.25 67.4045C1473.46 66.6223 1476.25 65.8015 1476.25 65.8015L1466.82 57.909C1469.98 57.1521 1472.04 56.3909 1472.04 56.3909L1464.11 48.0583C1466.37 47.276 1467.84 46.5086 1467.84 46.5086L1455.22 30L1442.61 46.5086C1442.61 46.5086 1444.08 47.276 1446.34 48.0583L1438.41 56.3909C1438.41 56.3909 1440.47 57.1521 1443.63 57.9081L1434.2 65.8015C1434.2 65.8015 1436.99 66.6223 1441.2 67.4045L1430 75.2235C1430 75.2235 1438.74 77.3725 1449.34 78.0314V82.5H1461.11V78.0314C1471.71 77.3725 1480.45 75.2235 1480.45 75.2235Z" fill="black" fill-opacity="0.09"/>
</svg>
